<svg width="390" height="849" viewBox="0 0 390 849" fill="none" xmlns="http://www.w3.org/2000/svg">
<rect y="5" width="390" height="844" rx="32" fill="white"/>
<path fill-rule="evenodd" clip-rule="evenodd" d="M121 838.5C121 837.119 122.119 836 123.5 836H266.5C267.881 836 269 837.119 269 838.5C269 839.881 267.881 841 266.5 841H123.5C122.119 841 121 839.881 121 838.5Z" fill="#090A0A"/>
<path d="M54.0688 36V26.1304H53.9194L50.9395 28.2305V26.2217L54.0688 24.022H56.2021V36H54.0688ZM63.4219 36.2988C62.4701 36.2988 61.6538 36.0443 60.9731 35.5352C60.298 35.026 59.7778 34.3011 59.4126 33.3604C59.0474 32.4196 58.8647 31.3045 58.8647 30.0151V29.9985C58.8647 28.7091 59.0474 27.5968 59.4126 26.6616C59.7778 25.7209 60.298 24.9959 60.9731 24.4868C61.6538 23.9777 62.4701 23.7231 63.4219 23.7231C64.3737 23.7231 65.1899 23.9777 65.8706 24.4868C66.5513 24.9959 67.0742 25.7209 67.4395 26.6616C67.8047 27.5968 67.9873 28.7091 67.9873 29.9985V30.0151C67.9873 31.3045 67.8047 32.4196 67.4395 33.3604C67.0742 34.3011 66.5513 35.026 65.8706 35.5352C65.1899 36.0443 64.3737 36.2988 63.4219 36.2988ZM63.4219 34.564C63.931 34.564 64.3654 34.3813 64.7251 34.0161C65.0848 33.6509 65.3587 33.1307 65.5469 32.4556C65.7406 31.7749 65.8374 30.9614 65.8374 30.0151V29.9985C65.8374 29.0522 65.7406 28.2415 65.5469 27.5664C65.3587 26.8857 65.0848 26.3656 64.7251 26.0059C64.3654 25.6406 63.931 25.458 63.4219 25.458C62.9128 25.458 62.4784 25.6406 62.1187 26.0059C61.7645 26.3656 61.4906 26.8857 61.2969 27.5664C61.1087 28.2415 61.0146 29.0522 61.0146 29.9985V30.0151C61.0146 30.9614 61.1087 31.7749 61.2969 32.4556C61.4906 33.1307 61.7645 33.6509 62.1187 34.0161C62.4784 34.3813 62.9128 34.564 63.4219 34.564ZM71.2974 34.3896C70.9211 34.3896 70.6056 34.2651 70.3511 34.0161C70.1021 33.7616 69.9775 33.4517 69.9775 33.0864C69.9775 32.7157 70.1021 32.4058 70.3511 32.1567C70.6056 31.9022 70.9211 31.7749 71.2974 31.7749C71.6792 31.7749 71.9946 31.9022 72.2437 32.1567C72.4927 32.4058 72.6172 32.7157 72.6172 33.0864C72.6172 33.4517 72.4927 33.7616 72.2437 34.0161C71.9946 34.2651 71.6792 34.3896 71.2974 34.3896ZM71.2974 28.2305C70.9211 28.2305 70.6056 28.106 70.3511 27.8569C70.1021 27.6024 69.9775 27.2925 69.9775 26.9272C69.9775 26.5565 70.1021 26.2466 70.3511 25.9976C70.6056 25.743 70.9211 25.6157 71.2974 25.6157C71.6792 25.6157 71.9946 25.743 72.2437 25.9976C72.4927 26.2466 72.6172 26.5565 72.6172 26.9272C72.6172 27.2925 72.4927 27.6024 72.2437 27.8569C71.9946 28.106 71.6792 28.2305 71.2974 28.2305ZM79.1562 36.2988C78.2044 36.2988 77.3882 36.0443 76.7075 35.5352C76.0324 35.026 75.5122 34.3011 75.147 33.3604C74.7817 32.4196 74.5991 31.3045 74.5991 30.0151V29.9985C74.5991 28.7091 74.7817 27.5968 75.147 26.6616C75.5122 25.7209 76.0324 24.9959 76.7075 24.4868C77.3882 23.9777 78.2044 23.7231 79.1562 23.7231C80.1081 23.7231 80.9243 23.9777 81.605 24.4868C82.2856 24.9959 82.8086 25.7209 83.1738 26.6616C83.5391 27.5968 83.7217 28.7091 83.7217 29.9985V30.0151C83.7217 31.3045 83.5391 32.4196 83.1738 33.3604C82.8086 34.3011 82.2856 35.026 81.605 35.5352C80.9243 36.0443 80.1081 36.2988 79.1562 36.2988ZM79.1562 34.564C79.6654 34.564 80.0998 34.3813 80.4595 34.0161C80.8192 33.6509 81.0931 33.1307 81.2812 32.4556C81.4749 31.7749 81.5718 30.9614 81.5718 30.0151V29.9985C81.5718 29.0522 81.4749 28.2415 81.2812 27.5664C81.0931 26.8857 80.8192 26.3656 80.4595 26.0059C80.0998 25.6406 79.6654 25.458 79.1562 25.458C78.6471 25.458 78.2127 25.6406 77.853 26.0059C77.4989 26.3656 77.2249 26.8857 77.0312 27.5664C76.8431 28.2415 76.749 29.0522 76.749 29.9985V30.0151C76.749 30.9614 76.8431 31.7749 77.0312 32.4556C77.2249 33.1307 77.4989 33.6509 77.853 34.0161C78.2127 34.3813 78.6471 34.564 79.1562 34.564ZM89.9619 36.2988C89.0101 36.2988 88.1938 36.0443 87.5132 35.5352C86.8381 35.026 86.3179 34.3011 85.9526 33.3604C85.5874 32.4196 85.4048 31.3045 85.4048 30.0151V29.9985C85.4048 28.7091 85.5874 27.5968 85.9526 26.6616C86.3179 25.7209 86.8381 24.9959 87.5132 24.4868C88.1938 23.9777 89.0101 23.7231 89.9619 23.7231C90.9137 23.7231 91.73 23.9777 92.4106 24.4868C93.0913 24.9959 93.6143 25.7209 93.9795 26.6616C94.3447 27.5968 94.5273 28.7091 94.5273 29.9985V30.0151C94.5273 31.3045 94.3447 32.4196 93.9795 33.3604C93.6143 34.3011 93.0913 35.026 92.4106 35.5352C91.73 36.0443 90.9137 36.2988 89.9619 36.2988ZM89.9619 34.564C90.471 34.564 90.9054 34.3813 91.2651 34.0161C91.6248 33.6509 91.8988 33.1307 92.0869 32.4556C92.2806 31.7749 92.3774 30.9614 92.3774 30.0151V29.9985C92.3774 29.0522 92.2806 28.2415 92.0869 27.5664C91.8988 26.8857 91.6248 26.3656 91.2651 26.0059C90.9054 25.6406 90.471 25.458 89.9619 25.458C89.4528 25.458 89.0184 25.6406 88.6587 26.0059C88.3045 26.3656 88.0306 26.8857 87.8369 27.5664C87.6488 28.2415 87.5547 29.0522 87.5547 29.9985V30.0151C87.5547 30.9614 87.6488 31.7749 87.8369 32.4556C88.0306 33.1307 88.3045 33.6509 88.6587 34.0161C89.0184 34.3813 89.4528 34.564 89.9619 34.564Z" fill="black"/>
<path d="M288.333 31C288.977 31 289.5 31.5037 289.5 32.125V34.375C289.5 34.9963 288.977 35.5 288.333 35.5H287.167C286.523 35.5 286 34.9963 286 34.375V32.125C286 31.5037 286.523 31 287.167 31H288.333ZM293.823 28.75C294.468 28.75 294.99 29.2537 294.99 29.875V34.375C294.99 34.9963 294.468 35.5 293.823 35.5H292.657C292.013 35.5 291.49 34.9963 291.49 34.375V29.875C291.49 29.2537 292.013 28.75 292.657 28.75H293.823ZM299.313 26.125C299.958 26.125 300.48 26.6287 300.48 27.25V34.375C300.48 34.9963 299.958 35.5 299.313 35.5H298.147C297.503 35.5 296.98 34.9963 296.98 34.375V27.25C296.981 26.6287 297.503 26.125 298.147 26.125H299.313ZM304.804 23.5C305.448 23.5 305.971 24.0037 305.971 24.625V34.375C305.971 34.9963 305.448 35.5 304.804 35.5H303.638C302.993 35.5 302.471 34.9963 302.471 34.375V24.625C302.471 24.0037 302.993 23.5 303.638 23.5H304.804Z" fill="black"/>
<path d="M318.512 32.8262C319.932 31.5964 322.011 31.5964 323.431 32.8262C323.502 32.8924 323.544 32.9855 323.546 33.084C323.548 33.1826 323.51 33.2777 323.441 33.3467L321.218 35.6446C321.153 35.7121 321.063 35.7501 320.971 35.7501C320.878 35.7499 320.79 35.7119 320.725 35.6446L318.501 33.3467C318.432 33.2776 318.394 33.1826 318.396 33.084C318.399 32.9855 318.44 32.8923 318.512 32.8262ZM315.545 29.7608C318.604 26.8467 323.341 26.8467 326.4 29.7608C326.469 29.829 326.509 29.9225 326.51 30.0206C326.511 30.1188 326.473 30.2135 326.405 30.2833L325.12 31.6133C324.988 31.7491 324.774 31.7524 324.638 31.6202C323.633 30.6886 322.326 30.1728 320.971 30.1729C319.617 30.1736 318.311 30.6895 317.308 31.6202C317.172 31.7524 316.958 31.7491 316.825 31.6133L315.54 30.2833C315.472 30.2136 315.435 30.1189 315.436 30.0206C315.437 29.9224 315.476 29.829 315.545 29.7608ZM312.578 26.7032C317.27 22.0989 324.671 22.099 329.363 26.7032C329.431 26.7716 329.47 26.8654 329.471 26.963C329.471 27.0605 329.433 27.1545 329.366 27.2237L328.08 28.5538C327.947 28.6901 327.732 28.691 327.598 28.5567C325.81 26.8164 323.437 25.8459 320.971 25.8458C318.504 25.8459 316.131 26.8163 314.344 28.5567C314.209 28.6913 313.994 28.6904 313.861 28.5538L312.574 27.2237C312.507 27.1545 312.47 27.0605 312.471 26.963C312.471 26.8654 312.51 26.7715 312.578 26.7032Z" fill="black"/>
<rect opacity="0.4" x="336.471" y="23.5" width="24" height="12" rx="3.5" stroke="black"/>
<path opacity="0.5" d="M361.971 27.5V31.5C362.777 31.1612 363.301 30.3731 363.301 29.5C363.301 28.6269 362.777 27.8388 361.971 27.5Z" fill="black"/>
<rect x="337.971" y="25" width="17" height="9" rx="2" fill="black"/>
<path d="M42.8095 99.5268C42.068 100.323 40.8068 100.323 40.0652 99.5268L28.2697 86.8632C27.5544 86.0952 27.5544 84.9048 28.2697 84.1368L40.0652 71.4732C40.8068 70.677 42.068 70.677 42.8095 71.4732C43.4802 72.1932 43.4802 73.3093 42.8095 74.0293L33.395 84.1368C32.6796 84.9048 32.6796 86.0952 33.395 86.8632L42.8095 96.9707C43.4802 97.6907 43.4802 98.8068 42.8095 99.5268Z" fill="#535353"/>
<path d="M118.32 93C117.587 93 117.02 92.7933 116.62 92.38C116.233 91.9533 116.04 91.3667 116.04 90.62V82.3H119.08V89.8C119.08 90.12 119.147 90.3467 119.28 90.48C119.413 90.6133 119.633 90.68 119.94 90.68H120.64V93H118.32ZM121.67 82.3H124.71L126.21 88.84L128.05 82.3H130.25L132.09 88.84L133.59 82.3H136.63L133.65 93H131.07L129.15 86.34L127.23 93H124.65L121.67 82.3ZM124.426 79.06H133.686V80.98H124.426V79.06ZM130.966 74.5H133.686V77.32H130.966V74.5ZM144.59 93.3C143.924 93.3 143.277 93.1733 142.65 92.92C142.024 92.6667 141.477 92.2933 141.01 91.8V93H138.11V82.3H141.15V89.5C141.444 89.9933 141.797 90.36 142.21 90.6C142.624 90.8267 143.11 90.94 143.67 90.94C145.044 90.94 145.73 90.2933 145.73 89V82.3H148.75V89.18C148.75 89.9533 148.59 90.6533 148.27 91.28C147.95 91.9067 147.477 92.4 146.85 92.76C146.224 93.12 145.47 93.3 144.59 93.3ZM150.845 84.76C150.845 83.9733 151.058 83.3667 151.485 82.94C151.911 82.5133 152.518 82.3 153.305 82.3H155.465V84.64H154.745C154.425 84.64 154.198 84.7067 154.065 84.84C153.931 84.9733 153.865 85.2133 153.865 85.56V89.04L155.885 85.96H156.945L158.965 89.04V82.3H161.965V93H159.245L156.405 88.68L153.565 93H150.845V84.76ZM159.067 98.6C158.081 98.6 157.321 98.4067 156.787 98.02C156.241 97.6333 155.967 97.12 155.967 96.48V96.12C155.967 95.9467 155.941 95.8267 155.887 95.76C155.821 95.6933 155.707 95.66 155.547 95.66H154.887V93.94H157.147C157.547 93.94 157.827 94.0267 157.987 94.2C158.134 94.3867 158.207 94.6733 158.207 95.06V96.16C158.207 96.64 158.461 96.88 158.967 96.88C159.461 96.88 159.707 96.64 159.707 96.16V93.94H161.947V96.4C161.947 97.04 161.701 97.5667 161.207 97.98C160.701 98.3933 159.987 98.6 159.067 98.6ZM157.087 79.7C157.087 79.5533 157.061 79.4533 157.007 79.4C156.941 79.3333 156.834 79.3 156.687 79.3H155.747V77.24H157.627C158.121 77.24 158.481 77.3533 158.707 77.58C158.921 77.8067 159.027 78.0933 159.027 78.44V79.04H163.047V80.98H157.087V79.7ZM169.027 93.3C167.374 93.3 166.067 92.8467 165.107 91.94C164.147 91.02 163.667 89.6733 163.667 87.9C163.667 86.6867 163.841 85.64 164.187 84.76C164.534 83.8667 165.021 83.1867 165.647 82.72C166.287 82.24 167.021 82 167.847 82C168.341 82 168.767 82.0933 169.127 82.28C169.501 82.4667 169.801 82.7267 170.027 83.06C170.281 82.7 170.627 82.4333 171.067 82.26C171.521 82.0867 172.027 82 172.587 82C173.601 82 174.387 82.3133 174.947 82.94C175.507 83.5533 175.787 84.3667 175.787 85.38V93H172.767V85.68C172.767 85.2267 172.694 84.8933 172.547 84.68C172.414 84.4667 172.181 84.36 171.847 84.36C171.261 84.36 170.894 84.72 170.747 85.44H169.327C169.234 84.72 168.921 84.36 168.387 84.36C167.907 84.36 167.521 84.66 167.227 85.26C166.934 85.86 166.787 86.74 166.787 87.9C166.787 88.94 167.007 89.7067 167.447 90.2C167.901 90.6933 168.614 90.94 169.587 90.94C170.094 90.94 170.547 90.8667 170.947 90.72V93.04C170.427 93.2133 169.787 93.3 169.027 93.3ZM166.535 79.06H175.795V80.98H166.535V79.06ZM182.855 93.3C181.202 93.3 179.895 92.84 178.935 91.92C177.975 91 177.495 89.6533 177.495 87.88C177.495 86.0267 178.049 84.5867 179.155 83.56C180.262 82.52 181.789 82 183.735 82C185.749 82 187.229 82.4667 188.175 83.4C189.135 84.3333 189.615 85.56 189.615 87.08V93H186.595V87.06C186.595 86.18 186.369 85.5133 185.915 85.06C185.475 84.5933 184.749 84.36 183.735 84.36C182.775 84.36 182.015 84.66 181.455 85.26C180.895 85.86 180.615 86.7333 180.615 87.88C180.615 88.9333 180.842 89.7067 181.295 90.2C181.762 90.6933 182.469 90.94 183.415 90.94C183.922 90.94 184.375 90.8667 184.775 90.72V93.04C184.255 93.2133 183.615 93.3 182.855 93.3ZM196.684 93.3C195.03 93.3 193.724 92.8467 192.764 91.94C191.804 91.02 191.324 89.6733 191.324 87.9C191.324 86.6867 191.497 85.64 191.844 84.76C192.19 83.8667 192.677 83.1867 193.304 82.72C193.944 82.24 194.677 82 195.504 82C195.997 82 196.424 82.0933 196.784 82.28C197.157 82.4667 197.457 82.7267 197.684 83.06C197.937 82.7 198.284 82.4333 198.724 82.26C199.177 82.0867 199.684 82 200.244 82C201.257 82 202.044 82.3133 202.604 82.94C203.164 83.5533 203.444 84.3667 203.444 85.38V93H200.424V85.68C200.424 85.2267 200.35 84.8933 200.204 84.68C200.07 84.4667 199.837 84.36 199.504 84.36C198.917 84.36 198.55 84.72 198.404 85.44H196.984C196.89 84.72 196.577 84.36 196.044 84.36C195.564 84.36 195.177 84.66 194.884 85.26C194.59 85.86 194.444 86.74 194.444 87.9C194.444 88.94 194.664 89.7067 195.104 90.2C195.557 90.6933 196.27 90.94 197.244 90.94C197.75 90.94 198.204 90.8667 198.604 90.72V93.04C198.084 93.2133 197.444 93.3 196.684 93.3ZM200.432 77.42H203.472V80.98H200.432V77.42ZM209.952 93.3C209.058 93.3 208.178 93.2067 207.312 93.02C206.445 92.8467 205.725 92.6 205.152 92.28V86.66H210.212V88.88H208.132V90.6C208.545 90.8267 209.152 90.94 209.952 90.94C212.072 90.94 213.132 89.8333 213.132 87.62C213.132 86.4867 212.825 85.66 212.212 85.14C211.598 84.62 210.565 84.36 209.112 84.36C208.445 84.36 207.758 84.4333 207.052 84.58C206.358 84.7133 205.772 84.9067 205.292 85.16V82.8C205.838 82.5467 206.498 82.3533 207.272 82.22C208.045 82.0733 208.852 82 209.692 82C211.838 82 213.465 82.4933 214.572 83.48C215.692 84.4533 216.252 85.8333 216.252 87.62C216.252 89.38 215.705 90.7667 214.612 91.78C213.518 92.7933 211.965 93.3 209.952 93.3ZM221.715 93.3C220.408 93.3 219.408 92.94 218.715 92.22C218.035 91.4867 217.695 90.4933 217.695 89.24V86.94H220.735V89.06C220.735 89.7 220.888 90.1733 221.195 90.48C221.515 90.7867 222.008 90.94 222.675 90.94C223.195 90.94 223.675 90.8133 224.115 90.56C224.568 90.3067 224.921 89.9533 225.175 89.5V87.42C225.175 86.3667 224.915 85.5933 224.395 85.1C223.888 84.6067 222.968 84.36 221.635 84.36C220.955 84.36 220.208 84.4267 219.395 84.56C218.595 84.6933 217.975 84.8667 217.535 85.08V82.74C218.055 82.5267 218.735 82.3533 219.575 82.22C220.428 82.0733 221.241 82 222.015 82C224.201 82 225.775 82.4467 226.735 83.34C227.708 84.2333 228.195 85.5533 228.195 87.3V93H225.315V91.8C224.915 92.28 224.395 92.6533 223.755 92.92C223.128 93.1733 222.448 93.3 221.715 93.3ZM225.578 96.52C225.578 96.28 225.531 96.1067 225.438 96C225.344 95.9067 225.178 95.86 224.938 95.86H224.278V93.94H226.378C227.098 93.94 227.598 94.0867 227.878 94.38C228.144 94.6733 228.278 95.18 228.278 95.9V98.48H225.578V96.52ZM230.858 86.62L229.858 84.92C231.418 82.9733 233.424 82 235.878 82C237.598 82 238.918 82.38 239.838 83.14C240.771 83.9 241.238 84.96 241.238 86.32V93H238.198V86.56C238.198 85.0933 237.424 84.36 235.878 84.36C235.304 84.36 234.791 84.44 234.338 84.6C233.898 84.76 233.484 85.02 233.098 85.38L233.878 86.66V93H230.858V86.62ZM245.605 93C244.872 93 244.305 92.7933 243.905 92.38C243.518 91.9533 243.325 91.3667 243.325 90.62V82.3H246.365V89.8C246.365 90.12 246.432 90.3467 246.565 90.48C246.698 90.6133 246.918 90.68 247.225 90.68H247.925V93H245.605ZM253.336 93.3C252.029 93.3 251.029 92.94 250.336 92.22C249.656 91.4867 249.316 90.4933 249.316 89.24V86.94H252.356V89.06C252.356 89.7 252.509 90.1733 252.816 90.48C253.136 90.7867 253.629 90.94 254.296 90.94C254.816 90.94 255.296 90.8133 255.736 90.56C256.189 90.3067 256.542 89.9533 256.796 89.5V87.42C256.796 86.3667 256.536 85.5933 256.016 85.1C255.509 84.6067 254.589 84.36 253.256 84.36C252.576 84.36 251.829 84.4267 251.016 84.56C250.216 84.6933 249.596 84.8667 249.156 85.08V82.74C249.676 82.5267 250.356 82.3533 251.196 82.22C252.049 82.0733 252.862 82 253.636 82C255.822 82 257.396 82.4467 258.356 83.34C259.329 84.2333 259.816 85.5533 259.816 87.3V93H256.936V91.8C256.536 92.28 256.016 92.6533 255.376 92.92C254.749 93.1733 254.069 93.3 253.336 93.3ZM250.559 79.06H259.819V80.98H250.559V79.06ZM266.079 93.3C265.212 93.3 264.466 93.12 263.839 92.76C263.212 92.4 262.732 91.9067 262.399 91.28C262.079 90.6533 261.919 89.9533 261.919 89.18V82.3H264.959V89C264.959 90.2933 265.646 90.94 267.019 90.94C267.579 90.94 268.059 90.8267 268.459 90.6C268.872 90.36 269.232 89.9933 269.539 89.5V82.3H272.559V93H269.679V91.8C269.212 92.2933 268.659 92.6667 268.019 92.92C267.392 93.1733 266.746 93.3 266.079 93.3Z" fill="black"/>
<rect x="36" y="167" width="330" height="49" rx="10" fill="#F8F8F8"/>
<rect x="36" y="227" width="330" height="49" rx="10" fill="#F8F8F8"/>
<path d="M54.032 196.21C53.3693 196.21 52.786 196.093 52.282 195.86C51.778 195.627 51.386 195.3 51.106 194.88C50.8353 194.451 50.7 193.961 50.7 193.41V192.934C50.7 192.617 50.77 192.323 50.91 192.052C51.05 191.772 51.2413 191.469 51.484 191.142C51.6613 190.899 51.7873 190.703 51.862 190.554C51.946 190.405 51.988 190.265 51.988 190.134C51.988 189.957 51.9413 189.831 51.848 189.756C51.764 189.681 51.6193 189.644 51.414 189.644H50.63V188.51H52.1C52.5107 188.51 52.8327 188.631 53.066 188.874C53.3087 189.107 53.43 189.42 53.43 189.812C53.43 190.083 53.374 190.335 53.262 190.568C53.15 190.792 52.982 191.067 52.758 191.394C52.534 191.73 52.3707 192.001 52.268 192.206C52.1747 192.411 52.128 192.635 52.128 192.878V193.396C52.128 193.928 52.296 194.343 52.632 194.642C52.968 194.941 53.4347 195.09 54.032 195.09C54.6667 195.09 55.1613 194.917 55.516 194.572C55.8707 194.227 56.048 193.718 56.048 193.046C56.048 192.374 55.908 191.87 55.628 191.534C55.348 191.198 54.9373 191.03 54.396 191.03V190.26L55.894 188.3H57.434L55.852 190.386C56.4213 190.601 56.832 190.932 57.084 191.38C57.3453 191.819 57.476 192.374 57.476 193.046C57.476 193.69 57.3313 194.25 57.042 194.726C56.762 195.202 56.3607 195.571 55.838 195.832C55.3153 196.084 54.7133 196.21 54.032 196.21ZM51.2178 186.466H54.0318V184.94H55.0818V186.466H56.2158V184.94H57.2518V187.404H51.2178V186.466ZM55.9638 182.616H57.2518V184.478H55.9638V182.616ZM61.8578 196.21C61.2791 196.21 60.7191 196.14 60.1778 196C59.6364 195.869 59.1791 195.683 58.8058 195.44V191.716H61.9138V192.864H60.2338V194.726C60.6351 194.969 61.1764 195.09 61.8578 195.09C62.7538 195.09 63.4351 194.843 63.9018 194.348C64.3778 193.853 64.6158 193.135 64.6158 192.192C64.6158 191.249 64.3731 190.554 63.8878 190.106C63.4118 189.658 62.6278 189.434 61.5358 189.434C61.0411 189.434 60.5558 189.485 60.0798 189.588C59.6038 189.681 59.2024 189.835 58.8758 190.05V188.916C59.2398 188.711 59.6691 188.557 60.1638 188.454C60.6584 188.351 61.1904 188.3 61.7598 188.3C63.1598 188.3 64.2284 188.641 64.9658 189.322C65.7031 190.003 66.0718 190.96 66.0718 192.192C66.0718 193.433 65.7031 194.413 64.9658 195.132C64.2378 195.851 63.2018 196.21 61.8578 196.21ZM67.617 190.036C67.617 189.541 67.7477 189.163 68.009 188.902C68.2704 188.641 68.6437 188.51 69.129 188.51H70.235V189.714H69.731C69.479 189.714 69.297 189.77 69.185 189.882C69.0824 189.985 69.031 190.167 69.031 190.428V193.914L70.907 190.862H71.523L73.399 193.914V188.51H74.813V196H73.525L71.215 192.234L68.905 196H67.617V190.036ZM73.0708 199.794C72.4921 199.794 72.0441 199.673 71.7268 199.43C71.4001 199.187 71.2368 198.861 71.2368 198.45V198.072C71.2368 197.941 71.2181 197.853 71.1808 197.806C71.1435 197.769 71.0641 197.75 70.9428 197.75H70.4668V196.798H71.6988C71.9508 196.798 72.1235 196.854 72.2168 196.966C72.3101 197.078 72.3568 197.26 72.3568 197.512V198.31C72.3568 198.721 72.5808 198.926 73.0288 198.926C73.4675 198.926 73.6868 198.721 73.6868 198.31V196.798H74.8068V198.408C74.8068 198.819 74.6575 199.15 74.3588 199.402C74.0508 199.663 73.6215 199.794 73.0708 199.794ZM71.7968 186.522C71.7968 186.41 71.7781 186.331 71.7408 186.284C71.6941 186.237 71.6148 186.214 71.5028 186.214H70.8728V185.206H71.9228C72.2215 185.206 72.4408 185.281 72.5808 185.43C72.7115 185.57 72.7768 185.747 72.7768 185.962V186.452H75.6468V187.404H71.7968V186.522ZM79.9448 196.21C78.8248 196.21 77.9428 195.893 77.2988 195.258C76.6641 194.623 76.3468 193.69 76.3468 192.458C76.3468 191.609 76.4635 190.871 76.6968 190.246C76.9301 189.621 77.2475 189.14 77.6488 188.804C78.0595 188.468 78.5261 188.3 79.0488 188.3C79.7581 188.3 80.2575 188.585 80.5468 189.154C80.7055 188.865 80.9435 188.65 81.2608 188.51C81.5781 188.37 81.9328 188.3 82.3248 188.3C82.9688 188.3 83.4495 188.505 83.7668 188.916C84.0935 189.327 84.2568 189.877 84.2568 190.568V196H82.8288V190.666C82.8288 190.246 82.7635 189.938 82.6328 189.742C82.5021 189.537 82.2781 189.434 81.9608 189.434C81.4288 189.434 81.0975 189.723 80.9668 190.302H80.1268C80.0801 190.013 79.9868 189.798 79.8468 189.658C79.7161 189.509 79.5248 189.434 79.2728 189.434C78.8341 189.434 78.4748 189.695 78.1948 190.218C77.9241 190.741 77.7888 191.487 77.7888 192.458C77.7888 193.354 77.9848 194.017 78.3768 194.446C78.7688 194.875 79.3708 195.09 80.1828 195.09C80.5375 195.09 80.8641 195.043 81.1628 194.95V196.056C80.8361 196.159 80.4301 196.21 79.9448 196.21ZM78.1921 186.438H84.2401V187.404H78.1921V186.438ZM89.3921 196.21C88.2721 196.21 87.3901 195.893 86.7461 195.258C86.1114 194.623 85.7941 193.69 85.7941 192.458C85.7941 191.599 85.9574 190.857 86.2841 190.232C86.6201 189.607 87.0961 189.131 87.7121 188.804C88.3281 188.468 89.0607 188.3 89.9101 188.3C91.2261 188.3 92.1874 188.613 92.7941 189.238C93.4007 189.854 93.7041 190.643 93.7041 191.604V196H92.2761V191.59C92.2761 190.153 91.4874 189.434 89.9101 189.434C89.0794 189.434 88.4261 189.695 87.9501 190.218C87.4741 190.741 87.2361 191.487 87.2361 192.458C87.2361 193.354 87.4367 194.017 87.8381 194.446C88.2394 194.875 88.8367 195.09 89.6301 195.09C89.9847 195.09 90.3114 195.043 90.6101 194.95V196.056C90.2834 196.159 89.8774 196.21 89.3921 196.21ZM98.8393 196.21C97.7193 196.21 96.8373 195.893 96.1933 195.258C95.5587 194.623 95.2413 193.69 95.2413 192.458C95.2413 191.609 95.358 190.871 95.5913 190.246C95.8247 189.621 96.142 189.14 96.5433 188.804C96.954 188.468 97.4207 188.3 97.9433 188.3C98.6527 188.3 99.152 188.585 99.4413 189.154C99.6 188.865 99.838 188.65 100.155 188.51C100.473 188.37 100.827 188.3 101.219 188.3C101.863 188.3 102.344 188.505 102.661 188.916C102.988 189.327 103.151 189.877 103.151 190.568V196H101.723V190.666C101.723 190.246 101.658 189.938 101.527 189.742C101.397 189.537 101.173 189.434 100.855 189.434C100.323 189.434 99.992 189.723 99.8613 190.302H99.0213C98.9747 190.013 98.8813 189.798 98.7413 189.658C98.6107 189.509 98.4193 189.434 98.1673 189.434C97.7287 189.434 97.3693 189.695 97.0893 190.218C96.8187 190.741 96.6833 191.487 96.6833 192.458C96.6833 193.354 96.8793 194.017 97.2713 194.446C97.6633 194.875 98.2653 195.09 99.0773 195.09C99.432 195.09 99.7587 195.043 100.057 194.95V196.056C99.7307 196.159 99.3247 196.21 98.8393 196.21ZM101.763 185.066H103.177V187.404H101.763V185.066ZM107.741 196.21C107.162 196.21 106.602 196.14 106.061 196C105.519 195.869 105.062 195.683 104.689 195.44V191.716H107.797V192.864H106.117V194.726C106.518 194.969 107.059 195.09 107.741 195.09C108.637 195.09 109.318 194.843 109.785 194.348C110.261 193.853 110.499 193.135 110.499 192.192C110.499 191.249 110.256 190.554 109.771 190.106C109.295 189.658 108.511 189.434 107.419 189.434C106.924 189.434 106.439 189.485 105.963 189.588C105.487 189.681 105.085 189.835 104.759 190.05V188.916C105.123 188.711 105.552 188.557 106.047 188.454C106.541 188.351 107.073 188.3 107.643 188.3C109.043 188.3 110.111 188.641 110.849 189.322C111.586 190.003 111.955 190.96 111.955 192.192C111.955 193.433 111.586 194.413 110.849 195.132C110.121 195.851 109.085 196.21 107.741 196.21Z" fill="black"/>
<path d="M52.31 256C51.8527 256 51.5027 255.874 51.26 255.622C51.0267 255.361 50.91 254.997 50.91 254.53V248.51H52.338V254.138C52.338 254.39 52.3893 254.567 52.492 254.67C52.5947 254.763 52.772 254.81 53.024 254.81H53.528V256H52.31ZM58.6643 256.21C57.9363 256.21 57.3016 256.079 56.7603 255.818C56.2189 255.557 55.7989 255.193 55.5003 254.726C55.2109 254.25 55.0663 253.709 55.0663 253.102V248.51H56.4943V253.074C56.4943 253.699 56.6763 254.194 57.0403 254.558C57.4136 254.913 57.9549 255.09 58.6643 255.09C59.3643 255.09 59.8963 254.913 60.2603 254.558C60.6336 254.194 60.8203 253.699 60.8203 253.074V248.51H62.2483V253.102C62.2483 253.709 62.0989 254.25 61.8003 254.726C61.5109 255.193 61.0956 255.557 60.5543 255.818C60.0129 256.079 59.3829 256.21 58.6643 256.21ZM66.8343 256.21C66.2557 256.21 65.6957 256.14 65.1543 256C64.613 255.869 64.1557 255.683 63.7823 255.44V251.716H66.8903V252.864H65.2103V254.726C65.6117 254.969 66.153 255.09 66.8343 255.09C67.7303 255.09 68.4117 254.843 68.8783 254.348C69.3543 253.853 69.5923 253.135 69.5923 252.192C69.5923 251.249 69.3497 250.554 68.8643 250.106C68.3883 249.658 67.6043 249.434 66.5123 249.434C66.0177 249.434 65.5323 249.485 65.0563 249.588C64.5803 249.681 64.179 249.835 63.8523 250.05V248.916C64.2163 248.711 64.6457 248.557 65.1403 248.454C65.635 248.351 66.167 248.3 66.7363 248.3C68.1363 248.3 69.205 248.641 69.9423 249.322C70.6797 250.003 71.0483 250.96 71.0483 252.192C71.0483 253.433 70.6797 254.413 69.9423 255.132C69.2143 255.851 68.1783 256.21 66.8343 256.21ZM75.1696 256.21C74.6563 256.21 74.1336 256.149 73.6016 256.028C73.0696 255.916 72.6543 255.748 72.3556 255.524V254.376C72.7569 254.619 73.1956 254.805 73.6716 254.936C74.1569 255.057 74.6189 255.118 75.0576 255.118C75.6736 255.118 76.1169 255.048 76.3876 254.908C76.6583 254.759 76.7936 254.507 76.7936 254.152C76.7936 253.909 76.7283 253.713 76.5976 253.564C76.4669 253.415 76.2663 253.284 75.9956 253.172C75.7343 253.06 75.3189 252.92 74.7496 252.752C73.9283 252.5 73.3169 252.206 72.9156 251.87C72.5143 251.525 72.3136 251.049 72.3136 250.442C72.3136 249.751 72.5796 249.224 73.1116 248.86C73.6436 248.487 74.3716 248.3 75.2956 248.3C75.7716 248.3 76.2289 248.356 76.6676 248.468C77.1156 248.571 77.4843 248.711 77.7736 248.888V250.064C77.4563 249.868 77.0923 249.714 76.6816 249.602C76.2709 249.49 75.8509 249.434 75.4216 249.434C74.3016 249.434 73.7416 249.77 73.7416 250.442C73.7416 250.694 73.8163 250.895 73.9656 251.044C74.1243 251.193 74.3296 251.319 74.5816 251.422C74.8429 251.515 75.2769 251.651 75.8836 251.828C76.4809 252.005 76.9476 252.197 77.2836 252.402C77.6196 252.607 77.8576 252.85 77.9976 253.13C78.1376 253.41 78.2076 253.755 78.2076 254.166C78.2076 254.782 77.9556 255.277 77.4516 255.65C76.9476 256.023 76.1869 256.21 75.1696 256.21ZM74.578 246.606C74.578 245.878 74.9747 245.514 75.768 245.514H78.862V246.452H76.328C76.16 246.452 76.0433 246.485 75.978 246.55C75.9127 246.615 75.88 246.732 75.88 246.9V247.404H74.578V246.606ZM79.744 250.036C79.744 249.541 79.8747 249.163 80.136 248.902C80.3973 248.641 80.7707 248.51 81.256 248.51H82.362V249.714H81.858C81.606 249.714 81.424 249.77 81.312 249.882C81.2093 249.985 81.158 250.167 81.158 250.428V253.914L83.034 250.862H83.65L85.526 253.914V248.51H86.94V256H85.652L83.342 252.234L81.032 256H79.744V250.036ZM85.1977 259.794C84.6191 259.794 84.1711 259.673 83.8537 259.43C83.5271 259.187 83.3637 258.861 83.3637 258.45V258.072C83.3637 257.941 83.3451 257.853 83.3077 257.806C83.2704 257.769 83.1911 257.75 83.0697 257.75H82.5937V256.798H83.8257C84.0777 256.798 84.2504 256.854 84.3438 256.966C84.4371 257.078 84.4837 257.26 84.4837 257.512V258.31C84.4837 258.721 84.7077 258.926 85.1557 258.926C85.5944 258.926 85.8137 258.721 85.8137 258.31V256.798H86.9337V258.408C86.9337 258.819 86.7844 259.15 86.4857 259.402C86.1777 259.663 85.7484 259.794 85.1977 259.794ZM83.9237 246.522C83.9237 246.41 83.9051 246.331 83.8677 246.284C83.8211 246.237 83.7417 246.214 83.6297 246.214H82.9997V245.206H84.0497C84.3484 245.206 84.5677 245.281 84.7077 245.43C84.8384 245.57 84.9037 245.747 84.9037 245.962V246.452H87.7737V247.404H83.9237V246.522ZM92.0718 256.21C90.9518 256.21 90.0698 255.893 89.4258 255.258C88.7911 254.623 88.4738 253.69 88.4738 252.458C88.4738 251.609 88.5904 250.871 88.8238 250.246C89.0571 249.621 89.3744 249.14 89.7758 248.804C90.1864 248.468 90.6531 248.3 91.1758 248.3C91.8851 248.3 92.3844 248.585 92.6738 249.154C92.8324 248.865 93.0704 248.65 93.3878 248.51C93.7051 248.37 94.0598 248.3 94.4518 248.3C95.0958 248.3 95.5764 248.505 95.8938 248.916C96.2204 249.327 96.3838 249.877 96.3838 250.568V256H94.9558V250.666C94.9558 250.246 94.8904 249.938 94.7598 249.742C94.6291 249.537 94.4051 249.434 94.0878 249.434C93.5558 249.434 93.2244 249.723 93.0938 250.302H92.2538C92.2071 250.013 92.1138 249.798 91.9738 249.658C91.8431 249.509 91.6518 249.434 91.3998 249.434C90.9611 249.434 90.6018 249.695 90.3218 250.218C90.0511 250.741 89.9158 251.487 89.9158 252.458C89.9158 253.354 90.1118 254.017 90.5038 254.446C90.8958 254.875 91.4978 255.09 92.3098 255.09C92.6644 255.09 92.9911 255.043 93.2898 254.95V256.056C92.9631 256.159 92.5571 256.21 92.0718 256.21ZM90.319 246.438H96.367V247.404H90.319V246.438ZM101.519 256.21C100.399 256.21 99.517 255.893 98.873 255.258C98.2383 254.623 97.921 253.69 97.921 252.458C97.921 251.599 98.0843 250.857 98.411 250.232C98.747 249.607 99.223 249.131 99.839 248.804C100.455 248.468 101.188 248.3 102.037 248.3C103.353 248.3 104.314 248.613 104.921 249.238C105.528 249.854 105.831 250.643 105.831 251.604V256H104.403V251.59C104.403 250.153 103.614 249.434 102.037 249.434C101.206 249.434 100.553 249.695 100.077 250.218C99.601 250.741 99.363 251.487 99.363 252.458C99.363 253.354 99.5637 254.017 99.965 254.446C100.366 254.875 100.964 255.09 101.757 255.09C102.112 255.09 102.438 255.043 102.737 254.95V256.056C102.41 256.159 102.004 256.21 101.519 256.21ZM110.966 256.21C109.846 256.21 108.964 255.893 108.32 255.258C107.686 254.623 107.368 253.69 107.368 252.458C107.368 251.609 107.485 250.871 107.718 250.246C107.952 249.621 108.269 249.14 108.67 248.804C109.081 248.468 109.548 248.3 110.07 248.3C110.78 248.3 111.279 248.585 111.568 249.154C111.727 248.865 111.965 248.65 112.282 248.51C112.6 248.37 112.954 248.3 113.346 248.3C113.99 248.3 114.471 248.505 114.788 248.916C115.115 249.327 115.278 249.877 115.278 250.568V256H113.85V250.666C113.85 250.246 113.785 249.938 113.654 249.742C113.524 249.537 113.3 249.434 112.982 249.434C112.45 249.434 112.119 249.723 111.988 250.302H111.148C111.102 250.013 111.008 249.798 110.868 249.658C110.738 249.509 110.546 249.434 110.294 249.434C109.856 249.434 109.496 249.695 109.216 250.218C108.946 250.741 108.81 251.487 108.81 252.458C108.81 253.354 109.006 254.017 109.398 254.446C109.79 254.875 110.392 255.09 111.204 255.09C111.559 255.09 111.886 255.043 112.184 254.95V256.056C111.858 256.159 111.452 256.21 110.966 256.21ZM113.89 245.066H115.304V247.404H113.89V245.066ZM119.868 256.21C119.289 256.21 118.729 256.14 118.188 256C117.646 255.869 117.189 255.683 116.816 255.44V251.716H119.924V252.864H118.244V254.726C118.645 254.969 119.186 255.09 119.868 255.09C120.764 255.09 121.445 254.843 121.912 254.348C122.388 253.853 122.626 253.135 122.626 252.192C122.626 251.249 122.383 250.554 121.898 250.106C121.422 249.658 120.638 249.434 119.546 249.434C119.051 249.434 118.566 249.485 118.09 249.588C117.614 249.681 117.212 249.835 116.886 250.05V248.916C117.25 248.711 117.679 248.557 118.174 248.454C118.668 248.351 119.2 248.3 119.77 248.3C121.17 248.3 122.238 248.641 122.976 249.322C123.713 250.003 124.082 250.96 124.082 252.192C124.082 253.433 123.713 254.413 122.976 255.132C122.248 255.851 121.212 256.21 119.868 256.21Z" fill="black"/>
<rect x="86" y="301" width="217" height="44" rx="22" fill="#16AD78"/>
<path d="M178.412 328.24C177.079 328.24 176.012 328 175.212 327.52C174.412 327.029 174.012 326.331 174.012 325.424C174.012 325.008 174.124 324.635 174.348 324.304C174.583 323.963 174.892 323.717 175.276 323.568C174.924 323.387 174.636 323.125 174.412 322.784C174.199 322.443 174.092 322.069 174.092 321.664C174.092 320.917 174.353 320.32 174.876 319.872C175.409 319.424 176.177 319.2 177.18 319.2C177.489 319.2 177.793 319.221 178.092 319.264C178.401 319.307 178.636 319.355 178.796 319.408V321.232C178.647 321.168 178.465 321.115 178.252 321.072C178.049 321.029 177.863 321.008 177.692 321.008C176.945 321.008 176.572 321.285 176.572 321.84C176.572 322.128 176.663 322.347 176.844 322.496C177.036 322.635 177.329 322.704 177.724 322.704H178.796V324.416H177.724C176.913 324.416 176.508 324.736 176.508 325.376C176.508 325.717 176.668 325.984 176.988 326.176C177.319 326.357 177.793 326.448 178.412 326.448C179.159 326.448 179.703 326.299 180.044 326C180.396 325.691 180.572 325.232 180.572 324.624V319.424H183.004V324.608C183.004 325.216 182.849 325.797 182.54 326.352C182.231 326.896 181.735 327.349 181.052 327.712C180.369 328.064 179.489 328.24 178.412 328.24ZM175.62 316.848H178.596V315.152H180.276V316.848H181.348V315.152H183.012V318.384H175.62V316.848ZM188.004 328.24C187.31 328.24 186.713 328.096 186.212 327.808C185.71 327.52 185.326 327.125 185.06 326.624C184.804 326.123 184.676 325.563 184.676 324.944V319.44H187.108V324.8C187.108 325.835 187.657 326.352 188.756 326.352C189.204 326.352 189.588 326.261 189.908 326.08C190.238 325.888 190.526 325.595 190.772 325.2V319.44H193.188V328H190.884V327.04C190.51 327.435 190.068 327.733 189.556 327.936C189.054 328.139 188.537 328.24 188.004 328.24ZM198.943 328.24C197.61 328.24 196.543 328 195.743 327.52C194.943 327.029 194.543 326.331 194.543 325.424C194.543 325.008 194.655 324.635 194.879 324.304C195.114 323.963 195.423 323.717 195.807 323.568C195.455 323.387 195.167 323.125 194.943 322.784C194.73 322.443 194.623 322.069 194.623 321.664C194.623 320.917 194.885 320.32 195.407 319.872C195.941 319.424 196.709 319.2 197.711 319.2C198.021 319.2 198.325 319.221 198.623 319.264C198.933 319.307 199.167 319.355 199.327 319.408V321.232C199.178 321.168 198.997 321.115 198.783 321.072C198.581 321.029 198.394 321.008 198.223 321.008C197.477 321.008 197.103 321.285 197.103 321.84C197.103 322.128 197.194 322.347 197.375 322.496C197.567 322.635 197.861 322.704 198.255 322.704H199.327V324.416H198.255C197.445 324.416 197.039 324.736 197.039 325.376C197.039 325.717 197.199 325.984 197.519 326.176C197.85 326.357 198.325 326.448 198.943 326.448C199.69 326.448 200.234 326.299 200.575 326C200.927 325.691 201.103 325.232 201.103 324.624V319.424H203.535V324.608C203.535 325.216 203.381 325.797 203.071 326.352C202.762 326.896 202.266 327.349 201.583 327.712C200.901 328.064 200.021 328.24 198.943 328.24ZM200.231 318.384C199.207 318.384 198.695 317.867 198.695 316.832V315.664H200.871V316.448C200.871 316.597 200.903 316.704 200.967 316.768C201.02 316.821 201.127 316.848 201.287 316.848H204.935V318.384H200.231ZM208.535 328.24C207.842 328.24 207.244 328.096 206.743 327.808C206.242 327.52 205.858 327.125 205.591 326.624C205.335 326.123 205.207 325.563 205.207 324.944V319.44H207.639V324.8C207.639 325.835 208.188 326.352 209.287 326.352C209.735 326.352 210.119 326.261 210.439 326.08C210.77 325.888 211.058 325.595 211.303 325.2V319.44H213.719V328H211.415V327.04C211.042 327.435 210.599 327.733 210.087 327.936C209.586 328.139 209.068 328.24 208.535 328.24Z" fill="white"/>
</svg>
