<svg width="390" height="849" viewBox="0 0 390 849" fill="none" xmlns="http://www.w3.org/2000/svg">
<rect y="5" width="390" height="844" rx="32" fill="#A1A1A1"/>
<path d="M54.0688 36V26.1304H53.9194L50.9395 28.2305V26.2217L54.0688 24.022H56.2021V36H54.0688ZM63.4219 36.2988C62.4701 36.2988 61.6538 36.0443 60.9731 35.5352C60.298 35.026 59.7778 34.3011 59.4126 33.3604C59.0474 32.4196 58.8647 31.3045 58.8647 30.0151V29.9985C58.8647 28.7091 59.0474 27.5968 59.4126 26.6616C59.7778 25.7209 60.298 24.9959 60.9731 24.4868C61.6538 23.9777 62.4701 23.7231 63.4219 23.7231C64.3737 23.7231 65.1899 23.9777 65.8706 24.4868C66.5513 24.9959 67.0742 25.7209 67.4395 26.6616C67.8047 27.5968 67.9873 28.7091 67.9873 29.9985V30.0151C67.9873 31.3045 67.8047 32.4196 67.4395 33.3604C67.0742 34.3011 66.5513 35.026 65.8706 35.5352C65.1899 36.0443 64.3737 36.2988 63.4219 36.2988ZM63.4219 34.564C63.931 34.564 64.3654 34.3813 64.7251 34.0161C65.0848 33.6509 65.3587 33.1307 65.5469 32.4556C65.7406 31.7749 65.8374 30.9614 65.8374 30.0151V29.9985C65.8374 29.0522 65.7406 28.2415 65.5469 27.5664C65.3587 26.8857 65.0848 26.3656 64.7251 26.0059C64.3654 25.6406 63.931 25.458 63.4219 25.458C62.9128 25.458 62.4784 25.6406 62.1187 26.0059C61.7645 26.3656 61.4906 26.8857 61.2969 27.5664C61.1087 28.2415 61.0146 29.0522 61.0146 29.9985V30.0151C61.0146 30.9614 61.1087 31.7749 61.2969 32.4556C61.4906 33.1307 61.7645 33.6509 62.1187 34.0161C62.4784 34.3813 62.9128 34.564 63.4219 34.564ZM71.2974 34.3896C70.9211 34.3896 70.6056 34.2651 70.3511 34.0161C70.1021 33.7616 69.9775 33.4517 69.9775 33.0864C69.9775 32.7157 70.1021 32.4058 70.3511 32.1567C70.6056 31.9022 70.9211 31.7749 71.2974 31.7749C71.6792 31.7749 71.9946 31.9022 72.2437 32.1567C72.4927 32.4058 72.6172 32.7157 72.6172 33.0864C72.6172 33.4517 72.4927 33.7616 72.2437 34.0161C71.9946 34.2651 71.6792 34.3896 71.2974 34.3896ZM71.2974 28.2305C70.9211 28.2305 70.6056 28.106 70.3511 27.8569C70.1021 27.6024 69.9775 27.2925 69.9775 26.9272C69.9775 26.5565 70.1021 26.2466 70.3511 25.9976C70.6056 25.743 70.9211 25.6157 71.2974 25.6157C71.6792 25.6157 71.9946 25.743 72.2437 25.9976C72.4927 26.2466 72.6172 26.5565 72.6172 26.9272C72.6172 27.2925 72.4927 27.6024 72.2437 27.8569C71.9946 28.106 71.6792 28.2305 71.2974 28.2305ZM79.1562 36.2988C78.2044 36.2988 77.3882 36.0443 76.7075 35.5352C76.0324 35.026 75.5122 34.3011 75.147 33.3604C74.7817 32.4196 74.5991 31.3045 74.5991 30.0151V29.9985C74.5991 28.7091 74.7817 27.5968 75.147 26.6616C75.5122 25.7209 76.0324 24.9959 76.7075 24.4868C77.3882 23.9777 78.2044 23.7231 79.1562 23.7231C80.1081 23.7231 80.9243 23.9777 81.605 24.4868C82.2856 24.9959 82.8086 25.7209 83.1738 26.6616C83.5391 27.5968 83.7217 28.7091 83.7217 29.9985V30.0151C83.7217 31.3045 83.5391 32.4196 83.1738 33.3604C82.8086 34.3011 82.2856 35.026 81.605 35.5352C80.9243 36.0443 80.1081 36.2988 79.1562 36.2988ZM79.1562 34.564C79.6654 34.564 80.0998 34.3813 80.4595 34.0161C80.8192 33.6509 81.0931 33.1307 81.2812 32.4556C81.4749 31.7749 81.5718 30.9614 81.5718 30.0151V29.9985C81.5718 29.0522 81.4749 28.2415 81.2812 27.5664C81.0931 26.8857 80.8192 26.3656 80.4595 26.0059C80.0998 25.6406 79.6654 25.458 79.1562 25.458C78.6471 25.458 78.2127 25.6406 77.853 26.0059C77.4989 26.3656 77.2249 26.8857 77.0312 27.5664C76.8431 28.2415 76.749 29.0522 76.749 29.9985V30.0151C76.749 30.9614 76.8431 31.7749 77.0312 32.4556C77.2249 33.1307 77.4989 33.6509 77.853 34.0161C78.2127 34.3813 78.6471 34.564 79.1562 34.564ZM89.9619 36.2988C89.0101 36.2988 88.1938 36.0443 87.5132 35.5352C86.8381 35.026 86.3179 34.3011 85.9526 33.3604C85.5874 32.4196 85.4048 31.3045 85.4048 30.0151V29.9985C85.4048 28.7091 85.5874 27.5968 85.9526 26.6616C86.3179 25.7209 86.8381 24.9959 87.5132 24.4868C88.1938 23.9777 89.0101 23.7231 89.9619 23.7231C90.9137 23.7231 91.73 23.9777 92.4106 24.4868C93.0913 24.9959 93.6143 25.7209 93.9795 26.6616C94.3447 27.5968 94.5273 28.7091 94.5273 29.9985V30.0151C94.5273 31.3045 94.3447 32.4196 93.9795 33.3604C93.6143 34.3011 93.0913 35.026 92.4106 35.5352C91.73 36.0443 90.9137 36.2988 89.9619 36.2988ZM89.9619 34.564C90.471 34.564 90.9054 34.3813 91.2651 34.0161C91.6248 33.6509 91.8988 33.1307 92.0869 32.4556C92.2806 31.7749 92.3774 30.9614 92.3774 30.0151V29.9985C92.3774 29.0522 92.2806 28.2415 92.0869 27.5664C91.8988 26.8857 91.6248 26.3656 91.2651 26.0059C90.9054 25.6406 90.471 25.458 89.9619 25.458C89.4528 25.458 89.0184 25.6406 88.6587 26.0059C88.3045 26.3656 88.0306 26.8857 87.8369 27.5664C87.6488 28.2415 87.5547 29.0522 87.5547 29.9985V30.0151C87.5547 30.9614 87.6488 31.7749 87.8369 32.4556C88.0306 33.1307 88.3045 33.6509 88.6587 34.0161C89.0184 34.3813 89.4528 34.564 89.9619 34.564Z" fill="black"/>
<path d="M288.333 31C288.977 31 289.5 31.5037 289.5 32.125V34.375C289.5 34.9963 288.977 35.5 288.333 35.5H287.167C286.523 35.5 286 34.9963 286 34.375V32.125C286 31.5037 286.523 31 287.167 31H288.333ZM293.823 28.75C294.468 28.75 294.99 29.2537 294.99 29.875V34.375C294.99 34.9963 294.468 35.5 293.823 35.5H292.657C292.013 35.5 291.49 34.9963 291.49 34.375V29.875C291.49 29.2537 292.013 28.75 292.657 28.75H293.823ZM299.313 26.125C299.958 26.125 300.48 26.6287 300.48 27.25V34.375C300.48 34.9963 299.958 35.5 299.313 35.5H298.147C297.503 35.5 296.98 34.9963 296.98 34.375V27.25C296.981 26.6287 297.503 26.125 298.147 26.125H299.313ZM304.804 23.5C305.448 23.5 305.971 24.0037 305.971 24.625V34.375C305.971 34.9963 305.448 35.5 304.804 35.5H303.638C302.993 35.5 302.471 34.9963 302.471 34.375V24.625C302.471 24.0037 302.993 23.5 303.638 23.5H304.804Z" fill="black"/>
<path d="M318.512 32.8262C319.932 31.5963 322.011 31.5963 323.431 32.8262C323.502 32.8923 323.544 32.9854 323.546 33.084C323.548 33.1825 323.51 33.2776 323.441 33.3467L321.218 35.6445C321.153 35.712 321.063 35.75 320.971 35.75C320.878 35.7499 320.79 35.7119 320.725 35.6445L318.501 33.3467C318.432 33.2776 318.394 33.1826 318.396 33.084C318.399 32.9854 318.44 32.8923 318.512 32.8262ZM315.545 29.7607C318.604 26.8466 323.341 26.8466 326.4 29.7607C326.469 29.829 326.509 29.9224 326.51 30.0205C326.511 30.1188 326.473 30.2135 326.405 30.2832L325.12 31.6133C324.988 31.7491 324.774 31.7523 324.638 31.6201C323.633 30.6886 322.326 30.1728 320.971 30.1729C319.617 30.1735 318.311 30.6894 317.308 31.6201C317.172 31.7523 316.958 31.749 316.825 31.6133L315.54 30.2832C315.472 30.2136 315.435 30.1188 315.436 30.0205C315.437 29.9223 315.476 29.829 315.545 29.7607ZM312.578 26.7031C317.27 22.0988 324.671 22.0989 329.363 26.7031C329.431 26.7715 329.47 26.8653 329.471 26.9629C329.471 27.0604 329.433 27.1544 329.366 27.2236L328.08 28.5537C327.947 28.6901 327.732 28.691 327.598 28.5566C325.81 26.8163 323.437 25.8458 320.971 25.8457C318.504 25.8458 316.131 26.8163 314.344 28.5566C314.209 28.6912 313.994 28.6904 313.861 28.5537L312.574 27.2236C312.507 27.1544 312.47 27.0604 312.471 26.9629C312.471 26.8653 312.51 26.7715 312.578 26.7031Z" fill="black"/>
<rect opacity="0.4" x="336.471" y="23.5" width="24" height="12" rx="3.5" stroke="black"/>
<path opacity="0.5" d="M361.971 27.5V31.5C362.777 31.1612 363.301 30.3731 363.301 29.5C363.301 28.6269 362.777 27.8388 361.971 27.5Z" fill="black"/>
<rect x="337.971" y="25" width="17" height="9" rx="2" fill="black"/>
<path fill-rule="evenodd" clip-rule="evenodd" d="M121 838.5C121 837.119 122.119 836 123.5 836H266.5C267.881 836 269 837.119 269 838.5C269 839.881 267.881 841 266.5 841H123.5C122.119 841 121 839.881 121 838.5Z" fill="#090A0A"/>
<circle cx="73" cy="654" r="32" fill="#D9D9D9"/>
<circle cx="195" cy="659" r="32" fill="#D9D9D9"/>
<circle cx="317" cy="659" r="32" fill="#D9D9D9"/>
<circle cx="73" cy="762" r="32" fill="#D9D9D9"/>
<circle cx="195" cy="762" r="32" fill="#FF3737"/>
<circle cx="317" cy="762" r="32" fill="#D9D9D9"/>
<path d="M126.711 152.07C126.711 149.99 127.391 148.38 128.751 147.24C130.111 146.08 131.981 145.5 134.361 145.5C135.901 145.5 137.221 145.74 138.321 146.22L139.611 144.75H143.001L140.421 147.69C141.461 148.83 141.981 150.29 141.981 152.07V162H138.921V151.98C138.921 150.62 138.521 149.61 137.721 148.95C136.921 148.27 135.801 147.93 134.361 147.93C132.901 147.93 131.771 148.27 130.971 148.95C130.171 149.61 129.771 150.62 129.771 151.98V155.04C130.031 154.56 130.441 154.18 131.001 153.9C131.561 153.6 132.221 153.45 132.981 153.45H135.381V155.97H132.741C131.901 155.97 131.191 156.27 130.611 156.87C130.051 157.45 129.771 158.12 129.771 158.88V162H126.711V152.07ZM138.368 170.13C137.128 170.13 136.168 169.87 135.488 169.35C134.788 168.83 134.438 168.13 134.438 167.25V166.44C134.438 166.16 134.398 165.97 134.318 165.87C134.238 165.79 134.068 165.75 133.808 165.75H132.788V163.71H135.428C135.968 163.71 136.338 163.83 136.538 164.07C136.738 164.31 136.838 164.7 136.838 165.24V166.95C136.838 167.83 137.318 168.27 138.278 168.27C139.218 168.27 139.688 167.83 139.688 166.95V163.71H142.088V167.16C142.088 168.04 141.768 168.75 141.128 169.29C140.468 169.85 139.548 170.13 138.368 170.13ZM152.198 162.45C150.238 162.45 148.708 161.9 147.608 160.8C146.528 159.7 145.988 158.28 145.988 156.54V145.95H149.048V156.42C149.048 157.62 149.378 158.53 150.038 159.15C150.718 159.75 151.708 160.05 153.008 160.05C155.068 160.05 156.688 159.13 157.868 157.29V145.95H160.928V162H157.958V159.84C156.458 161.58 154.538 162.45 152.198 162.45ZM171.846 162.45C169.526 162.45 167.676 162.01 166.296 161.13C164.916 160.25 164.226 158.97 164.226 157.29C164.226 156.41 164.466 155.64 164.946 154.98C165.446 154.3 166.106 153.83 166.926 153.57C166.146 153.23 165.516 152.74 165.036 152.1C164.576 151.46 164.346 150.72 164.346 149.88C164.346 148.56 164.786 147.5 165.666 146.7C166.546 145.9 167.836 145.5 169.536 145.5C170.016 145.5 170.506 145.54 171.006 145.62C171.506 145.68 171.906 145.75 172.206 145.83V148.23C171.946 148.13 171.606 148.06 171.186 148.02C170.786 147.96 170.416 147.93 170.076 147.93C169.216 147.93 168.556 148.12 168.096 148.5C167.656 148.86 167.436 149.38 167.436 150.06C167.436 150.78 167.676 151.33 168.156 151.71C168.636 152.09 169.346 152.28 170.286 152.28H172.206V154.8H170.316C169.356 154.8 168.616 155.01 168.096 155.43C167.576 155.83 167.316 156.45 167.316 157.29C167.316 158.17 167.716 158.85 168.516 159.33C169.336 159.81 170.446 160.05 171.846 160.05C175.146 160.05 176.796 158.65 176.796 155.85V145.95H179.856V155.79C179.856 156.91 179.596 157.98 179.076 159C178.556 160 177.696 160.83 176.496 161.49C175.316 162.13 173.766 162.45 171.846 162.45ZM172.682 141.87C172.682 140.31 173.532 139.53 175.232 139.53H181.862V141.54H176.432C176.072 141.54 175.822 141.61 175.682 141.75C175.542 141.89 175.472 142.14 175.472 142.5V143.58H172.682V141.87ZM189.482 162.45C187.562 162.45 186.092 161.94 185.072 160.92C184.072 159.88 183.572 158.46 183.572 156.66V152.82H186.632V156.48C186.632 157.68 186.932 158.58 187.532 159.18C188.152 159.76 189.092 160.05 190.352 160.05C192.392 160.05 193.952 159.13 195.032 157.29V153.33C195.032 151.47 194.602 150.11 193.742 149.25C192.882 148.37 191.392 147.93 189.272 147.93C188.192 147.93 187.082 148.03 185.942 148.23C184.802 148.41 183.872 148.66 183.152 148.98V146.58C183.892 146.26 184.852 146 186.032 145.8C187.232 145.6 188.402 145.5 189.542 145.5C192.502 145.5 194.662 146.15 196.022 147.45C197.402 148.73 198.092 150.65 198.092 153.21V162H195.152V159.84C194.492 160.72 193.662 161.38 192.662 161.82C191.682 162.24 190.622 162.45 189.482 162.45ZM195.314 166.83C195.314 166.47 195.254 166.22 195.134 166.08C194.994 165.96 194.734 165.9 194.354 165.9H193.364V163.71H195.824C196.724 163.71 197.334 163.89 197.654 164.25C197.954 164.61 198.104 165.25 198.104 166.17V169.89H195.314V166.83ZM202.904 152.01L201.404 149.58C202.464 148.24 203.674 147.23 205.034 146.55C206.394 145.85 208.004 145.5 209.864 145.5C212.264 145.5 214.104 146.05 215.384 147.15C216.664 148.23 217.304 149.75 217.304 151.71V162H214.244V151.95C214.244 150.57 213.874 149.56 213.134 148.92C212.414 148.26 211.324 147.93 209.864 147.93C208.764 147.93 207.794 148.1 206.954 148.44C206.114 148.76 205.354 149.28 204.674 150L205.964 152.01V162H202.904V152.01ZM224.193 162C223.213 162 222.463 161.73 221.943 161.19C221.443 160.63 221.193 159.85 221.193 158.85V145.95H224.253V158.01C224.253 158.55 224.363 158.93 224.583 159.15C224.803 159.35 225.183 159.45 225.723 159.45H226.803V162H224.193ZM235.829 162.45C233.909 162.45 232.439 161.94 231.419 160.92C230.419 159.88 229.919 158.46 229.919 156.66V152.82H232.979V156.48C232.979 157.68 233.279 158.58 233.879 159.18C234.499 159.76 235.439 160.05 236.699 160.05C238.739 160.05 240.299 159.13 241.379 157.29V153.33C241.379 151.47 240.949 150.11 240.089 149.25C239.229 148.37 237.739 147.93 235.619 147.93C234.539 147.93 233.429 148.03 232.289 148.23C231.149 148.41 230.219 148.66 229.499 148.98V146.58C230.239 146.26 231.199 146 232.379 145.8C233.579 145.6 234.749 145.5 235.889 145.5C238.849 145.5 241.009 146.15 242.369 147.45C243.749 148.73 244.439 150.65 244.439 153.21V162H241.499V159.84C240.839 160.72 240.009 161.38 239.009 161.82C238.029 162.24 236.969 162.45 235.829 162.45ZM231.461 141.51H244.421V143.58H231.461V141.51ZM254.561 162.45C252.601 162.45 251.071 161.9 249.971 160.8C248.891 159.7 248.351 158.28 248.351 156.54V145.95H251.411V156.42C251.411 157.62 251.741 158.53 252.401 159.15C253.081 159.75 254.071 160.05 255.371 160.05C257.431 160.05 259.051 159.13 260.231 157.29V145.95H263.291V162H260.321V159.84C258.821 161.58 256.901 162.45 254.561 162.45ZM168.009 187.33L163.479 190.6V187.69L168.429 184.03H171.069V205H168.009V187.33ZM182.267 205.45C180.767 205.45 179.417 205.11 178.217 204.43C177.037 203.73 176.097 202.71 175.397 201.37C174.717 200.01 174.377 198.38 174.377 196.48C174.377 192.32 175.227 189.13 176.927 186.91C178.647 184.69 181.107 183.58 184.307 183.58C185.407 183.58 186.387 183.7 187.247 183.94V186.52C186.547 186.22 185.647 186.07 184.547 186.07C180.267 186.07 177.917 188.64 177.497 193.78C178.097 193.02 178.887 192.45 179.867 192.07C180.867 191.67 181.957 191.47 183.137 191.47C184.497 191.47 185.687 191.75 186.707 192.31C187.727 192.87 188.517 193.67 189.077 194.71C189.657 195.75 189.947 196.96 189.947 198.34C189.947 199.7 189.637 200.92 189.017 202C188.417 203.08 187.537 203.93 186.377 204.55C185.217 205.15 183.847 205.45 182.267 205.45ZM182.267 203.08C183.667 203.08 184.787 202.66 185.627 201.82C186.487 200.96 186.917 199.83 186.917 198.43C186.917 197.03 186.487 195.92 185.627 195.1C184.787 194.28 183.667 193.87 182.267 193.87C181.407 193.87 180.617 194.06 179.897 194.44C179.197 194.82 178.637 195.36 178.217 196.06C177.817 196.76 177.617 197.57 177.617 198.49C177.617 199.31 177.807 200.07 178.187 200.77C178.587 201.47 179.137 202.03 179.837 202.45C180.537 202.87 181.347 203.08 182.267 203.08ZM200.549 205.45C199.049 205.45 197.699 205.11 196.499 204.43C195.319 203.73 194.379 202.71 193.679 201.37C192.999 200.01 192.659 198.38 192.659 196.48C192.659 192.32 193.509 189.13 195.209 186.91C196.929 184.69 199.389 183.58 202.589 183.58C203.689 183.58 204.669 183.7 205.529 183.94V186.52C204.829 186.22 203.929 186.07 202.829 186.07C198.549 186.07 196.199 188.64 195.779 193.78C196.379 193.02 197.169 192.45 198.149 192.07C199.149 191.67 200.239 191.47 201.419 191.47C202.779 191.47 203.969 191.75 204.989 192.31C206.009 192.87 206.799 193.67 207.359 194.71C207.939 195.75 208.229 196.96 208.229 198.34C208.229 199.7 207.919 200.92 207.299 202C206.699 203.08 205.819 203.93 204.659 204.55C203.499 205.15 202.129 205.45 200.549 205.45ZM200.549 203.08C201.949 203.08 203.069 202.66 203.909 201.82C204.769 200.96 205.199 199.83 205.199 198.43C205.199 197.03 204.769 195.92 203.909 195.1C203.069 194.28 201.949 193.87 200.549 193.87C199.689 193.87 198.899 194.06 198.179 194.44C197.479 194.82 196.919 195.36 196.499 196.06C196.099 196.76 195.899 197.57 195.899 198.49C195.899 199.31 196.089 200.07 196.469 200.77C196.869 201.47 197.419 202.03 198.119 202.45C198.819 202.87 199.629 203.08 200.549 203.08ZM216.58 205.45C215.48 205.45 214.5 205.33 213.64 205.09V202.54C214.42 202.84 215.32 202.99 216.34 202.99C220.64 202.99 223 200.42 223.42 195.28C222.82 196.04 222.03 196.61 221.05 196.99C220.09 197.37 219.01 197.56 217.81 197.56C216.47 197.56 215.28 197.28 214.24 196.72C213.2 196.16 212.39 195.36 211.81 194.32C211.23 193.28 210.94 192.07 210.94 190.69C210.94 189.33 211.24 188.11 211.84 187.03C212.46 185.95 213.35 185.11 214.51 184.51C215.67 183.89 217.04 183.58 218.62 183.58C220.14 183.58 221.49 183.92 222.67 184.6C223.87 185.28 224.81 186.3 225.49 187.66C226.17 189 226.51 190.63 226.51 192.55C226.51 196.71 225.65 199.9 223.93 202.12C222.23 204.34 219.78 205.45 216.58 205.45ZM218.62 195.16C219.94 195.16 221.04 194.74 221.92 193.9C222.82 193.06 223.27 191.95 223.27 190.57C223.27 189.75 223.07 188.99 222.67 188.29C222.29 187.59 221.75 187.03 221.05 186.61C220.35 186.19 219.54 185.98 218.62 185.98C217.22 185.98 216.09 186.4 215.23 187.24C214.39 188.08 213.97 189.2 213.97 190.6C213.97 192 214.39 193.11 215.23 193.93C216.09 194.75 217.22 195.16 218.62 195.16Z" fill="white"/>
<path d="M162.814 123.34L161.814 121.72C162.521 120.827 163.327 120.153 164.234 119.7C165.141 119.233 166.214 119 167.454 119C169.054 119 170.281 119.367 171.134 120.1C171.987 120.82 172.414 121.833 172.414 123.14V130H170.374V123.3C170.374 122.38 170.127 121.707 169.634 121.28C169.154 120.84 168.427 120.62 167.454 120.62C166.721 120.62 166.074 120.733 165.514 120.96C164.954 121.173 164.447 121.52 163.994 122L164.854 123.34V130H162.814V123.34ZM171.127 117.9C170.527 117.9 170.014 117.687 169.587 117.26C169.147 116.833 168.927 116.32 168.927 115.72C168.927 115.107 169.147 114.587 169.587 114.16C170.014 113.72 170.527 113.5 171.127 113.5C171.727 113.5 172.247 113.72 172.687 114.16C173.114 114.587 173.327 115.107 173.327 115.72C173.327 116.32 173.114 116.833 172.687 117.26C172.247 117.687 171.727 117.9 171.127 117.9ZM171.127 116.66C171.367 116.66 171.58 116.567 171.767 116.38C171.94 116.18 172.027 115.96 172.027 115.72C172.027 115.48 171.94 115.267 171.767 115.08C171.58 114.893 171.367 114.8 171.127 114.8C170.887 114.8 170.68 114.893 170.507 115.08C170.32 115.267 170.227 115.48 170.227 115.72C170.227 115.96 170.32 116.18 170.507 116.38C170.68 116.567 170.887 116.66 171.127 116.66ZM178.767 123.08C178.767 122.227 178.594 121.607 178.247 121.22C177.9 120.82 177.287 120.62 176.407 120.62C175.554 120.62 174.754 120.807 174.007 121.18V119.58C174.327 119.42 174.74 119.287 175.247 119.18C175.767 119.06 176.28 119 176.787 119C178.134 119 179.14 119.367 179.807 120.1C180.474 120.82 180.807 121.86 180.807 123.22V130H178.767V123.08ZM186.885 130.3C185.699 130.3 184.752 130.007 184.045 129.42C183.352 128.82 183.005 127.973 183.005 126.88C183.005 125.8 183.392 124.94 184.165 124.3C184.952 123.66 186.012 123.34 187.345 123.34C188.665 123.34 189.852 123.587 190.905 124.08V123.26C190.905 122.34 190.652 121.673 190.145 121.26C189.652 120.833 188.825 120.62 187.665 120.62C187.025 120.62 186.399 120.68 185.785 120.8C185.172 120.92 184.639 121.087 184.185 121.3V119.7C184.599 119.5 185.159 119.333 185.865 119.2C186.585 119.067 187.285 119 187.965 119C189.632 119 190.879 119.38 191.705 120.14C192.532 120.9 192.945 121.927 192.945 123.22V130H190.905V125.7C189.932 125.207 188.819 124.96 187.565 124.96C186.699 124.96 186.059 125.12 185.645 125.44C185.245 125.76 185.045 126.24 185.045 126.88C185.045 128.093 185.825 128.7 187.385 128.7C187.865 128.7 188.285 128.633 188.645 128.5V130.08C188.165 130.227 187.579 130.3 186.885 130.3ZM189.194 117.72C188.621 117.72 188.207 117.58 187.954 117.3C187.687 117.007 187.554 116.573 187.554 116V114.96H189.394V115.76C189.394 115.987 189.441 116.14 189.534 116.22C189.614 116.3 189.774 116.34 190.014 116.34H194.734V117.72H189.194ZM195.154 120.64H197.194L199.734 128.4C200.987 128.4 201.954 128.053 202.634 127.36C203.314 126.667 203.654 125.687 203.654 124.42C203.654 123.167 203.421 122.22 202.954 121.58C202.487 120.94 201.741 120.62 200.714 120.62C200.234 120.62 199.767 120.68 199.314 120.8V119.22C199.847 119.073 200.427 119 201.054 119C202.574 119 203.734 119.48 204.534 120.44C205.334 121.4 205.734 122.727 205.734 124.42C205.734 125.58 205.481 126.58 204.974 127.42C204.481 128.26 203.807 128.9 202.954 129.34C202.101 129.78 201.154 130 200.114 130H198.194L195.154 120.64ZM210.917 130C210.263 130 209.763 129.82 209.417 129.46C209.083 129.087 208.917 128.567 208.917 127.9V120.22C208.917 119.247 208.737 118.487 208.377 117.94C208.017 117.393 207.437 116.953 206.637 116.62V114.96H212.937V116.68H209.357C209.903 117.04 210.303 117.52 210.557 118.12C210.823 118.72 210.957 119.44 210.957 120.28V127.34C210.957 127.7 211.03 127.953 211.177 128.1C211.323 128.233 211.577 128.3 211.937 128.3H212.657V130H210.917ZM214.538 119.3H216.498V120.74C217.018 120.153 217.625 119.72 218.318 119.44C219.025 119.147 219.738 119 220.458 119C221.765 119 222.765 119.36 223.458 120.08C224.152 120.8 224.498 121.727 224.498 122.86V130H222.458V122.96C222.458 122.213 222.252 121.64 221.838 121.24C221.425 120.827 220.785 120.62 219.918 120.62C218.465 120.62 217.352 121.227 216.578 122.44V130H214.538V119.3ZM230.777 130.3C230.044 130.3 229.297 130.213 228.537 130.04C227.777 129.88 227.184 129.64 226.757 129.32V127.68C227.33 128.027 227.957 128.293 228.637 128.48C229.33 128.653 229.99 128.74 230.617 128.74C231.497 128.74 232.13 128.64 232.517 128.44C232.904 128.227 233.097 127.867 233.097 127.36C233.097 127.013 233.004 126.733 232.817 126.52C232.63 126.307 232.344 126.12 231.957 125.96C231.584 125.8 230.99 125.6 230.177 125.36C229.004 125 228.13 124.58 227.557 124.1C226.984 123.607 226.697 122.927 226.697 122.06C226.697 121.073 227.077 120.32 227.837 119.8C228.597 119.267 229.637 119 230.957 119C231.637 119 232.29 119.08 232.917 119.24C233.557 119.387 234.084 119.587 234.497 119.84V121.52C234.044 121.24 233.524 121.02 232.937 120.86C232.35 120.7 231.75 120.62 231.137 120.62C229.537 120.62 228.737 121.1 228.737 122.06C228.737 122.42 228.844 122.707 229.057 122.92C229.284 123.133 229.577 123.313 229.937 123.46C230.31 123.593 230.93 123.787 231.797 124.04C232.65 124.293 233.317 124.567 233.797 124.86C234.277 125.153 234.617 125.5 234.817 125.9C235.017 126.3 235.117 126.793 235.117 127.38C235.117 128.26 234.757 128.967 234.037 129.5C233.317 130.033 232.23 130.3 230.777 130.3ZM237.852 130C237.585 130 237.358 129.913 237.172 129.74C236.998 129.553 236.912 129.327 236.912 129.06C236.912 128.793 236.998 128.567 237.172 128.38C237.358 128.193 237.585 128.1 237.852 128.1C238.118 128.1 238.345 128.193 238.532 128.38C238.718 128.567 238.812 128.793 238.812 129.06C238.812 129.327 238.718 129.553 238.532 129.74C238.345 129.913 238.118 130 237.852 130ZM241.543 130C241.276 130 241.05 129.913 240.863 129.74C240.69 129.553 240.603 129.327 240.603 129.06C240.603 128.793 240.69 128.567 240.863 128.38C241.05 128.193 241.276 128.1 241.543 128.1C241.81 128.1 242.036 128.193 242.223 128.38C242.41 128.567 242.503 128.793 242.503 129.06C242.503 129.327 242.41 129.553 242.223 129.74C242.036 129.913 241.81 130 241.543 130ZM245.235 130C244.968 130 244.741 129.913 244.555 129.74C244.381 129.553 244.295 129.327 244.295 129.06C244.295 128.793 244.381 128.567 244.555 128.38C244.741 128.193 244.968 128.1 245.235 128.1C245.501 128.1 245.728 128.193 245.915 128.38C246.101 128.567 246.195 128.793 246.195 129.06C246.195 129.327 246.101 129.553 245.915 129.74C245.728 129.913 245.501 130 245.235 130Z" fill="#DBD9D9"/>
</svg>
