<svg width="390" height="849" viewBox="0 0 390 849" fill="none" xmlns="http://www.w3.org/2000/svg">
<rect y="5" width="390" height="844" rx="32" fill="#C5C5C5"/>
<path fill-rule="evenodd" clip-rule="evenodd" d="M121 838.5C121 837.119 122.119 836 123.5 836H266.5C267.881 836 269 837.119 269 838.5C269 839.881 267.881 841 266.5 841H123.5C122.119 841 121 839.881 121 838.5Z" fill="#090A0A"/>
<path d="M54.0688 36V26.1304H53.9194L50.9395 28.2305V26.2217L54.0688 24.022H56.2021V36H54.0688ZM63.4219 36.2988C62.4701 36.2988 61.6538 36.0443 60.9731 35.5352C60.298 35.026 59.7778 34.3011 59.4126 33.3604C59.0474 32.4196 58.8647 31.3045 58.8647 30.0151V29.9985C58.8647 28.7091 59.0474 27.5968 59.4126 26.6616C59.7778 25.7209 60.298 24.9959 60.9731 24.4868C61.6538 23.9777 62.4701 23.7231 63.4219 23.7231C64.3737 23.7231 65.1899 23.9777 65.8706 24.4868C66.5513 24.9959 67.0742 25.7209 67.4395 26.6616C67.8047 27.5968 67.9873 28.7091 67.9873 29.9985V30.0151C67.9873 31.3045 67.8047 32.4196 67.4395 33.3604C67.0742 34.3011 66.5513 35.026 65.8706 35.5352C65.1899 36.0443 64.3737 36.2988 63.4219 36.2988ZM63.4219 34.564C63.931 34.564 64.3654 34.3813 64.7251 34.0161C65.0848 33.6509 65.3587 33.1307 65.5469 32.4556C65.7406 31.7749 65.8374 30.9614 65.8374 30.0151V29.9985C65.8374 29.0522 65.7406 28.2415 65.5469 27.5664C65.3587 26.8857 65.0848 26.3656 64.7251 26.0059C64.3654 25.6406 63.931 25.458 63.4219 25.458C62.9128 25.458 62.4784 25.6406 62.1187 26.0059C61.7645 26.3656 61.4906 26.8857 61.2969 27.5664C61.1087 28.2415 61.0146 29.0522 61.0146 29.9985V30.0151C61.0146 30.9614 61.1087 31.7749 61.2969 32.4556C61.4906 33.1307 61.7645 33.6509 62.1187 34.0161C62.4784 34.3813 62.9128 34.564 63.4219 34.564ZM71.2974 34.3896C70.9211 34.3896 70.6056 34.2651 70.3511 34.0161C70.1021 33.7616 69.9775 33.4517 69.9775 33.0864C69.9775 32.7157 70.1021 32.4058 70.3511 32.1567C70.6056 31.9022 70.9211 31.7749 71.2974 31.7749C71.6792 31.7749 71.9946 31.9022 72.2437 32.1567C72.4927 32.4058 72.6172 32.7157 72.6172 33.0864C72.6172 33.4517 72.4927 33.7616 72.2437 34.0161C71.9946 34.2651 71.6792 34.3896 71.2974 34.3896ZM71.2974 28.2305C70.9211 28.2305 70.6056 28.106 70.3511 27.8569C70.1021 27.6024 69.9775 27.2925 69.9775 26.9272C69.9775 26.5565 70.1021 26.2466 70.3511 25.9976C70.6056 25.743 70.9211 25.6157 71.2974 25.6157C71.6792 25.6157 71.9946 25.743 72.2437 25.9976C72.4927 26.2466 72.6172 26.5565 72.6172 26.9272C72.6172 27.2925 72.4927 27.6024 72.2437 27.8569C71.9946 28.106 71.6792 28.2305 71.2974 28.2305ZM79.1562 36.2988C78.2044 36.2988 77.3882 36.0443 76.7075 35.5352C76.0324 35.026 75.5122 34.3011 75.147 33.3604C74.7817 32.4196 74.5991 31.3045 74.5991 30.0151V29.9985C74.5991 28.7091 74.7817 27.5968 75.147 26.6616C75.5122 25.7209 76.0324 24.9959 76.7075 24.4868C77.3882 23.9777 78.2044 23.7231 79.1562 23.7231C80.1081 23.7231 80.9243 23.9777 81.605 24.4868C82.2856 24.9959 82.8086 25.7209 83.1738 26.6616C83.5391 27.5968 83.7217 28.7091 83.7217 29.9985V30.0151C83.7217 31.3045 83.5391 32.4196 83.1738 33.3604C82.8086 34.3011 82.2856 35.026 81.605 35.5352C80.9243 36.0443 80.1081 36.2988 79.1562 36.2988ZM79.1562 34.564C79.6654 34.564 80.0998 34.3813 80.4595 34.0161C80.8192 33.6509 81.0931 33.1307 81.2812 32.4556C81.4749 31.7749 81.5718 30.9614 81.5718 30.0151V29.9985C81.5718 29.0522 81.4749 28.2415 81.2812 27.5664C81.0931 26.8857 80.8192 26.3656 80.4595 26.0059C80.0998 25.6406 79.6654 25.458 79.1562 25.458C78.6471 25.458 78.2127 25.6406 77.853 26.0059C77.4989 26.3656 77.2249 26.8857 77.0312 27.5664C76.8431 28.2415 76.749 29.0522 76.749 29.9985V30.0151C76.749 30.9614 76.8431 31.7749 77.0312 32.4556C77.2249 33.1307 77.4989 33.6509 77.853 34.0161C78.2127 34.3813 78.6471 34.564 79.1562 34.564ZM89.9619 36.2988C89.0101 36.2988 88.1938 36.0443 87.5132 35.5352C86.8381 35.026 86.3179 34.3011 85.9526 33.3604C85.5874 32.4196 85.4048 31.3045 85.4048 30.0151V29.9985C85.4048 28.7091 85.5874 27.5968 85.9526 26.6616C86.3179 25.7209 86.8381 24.9959 87.5132 24.4868C88.1938 23.9777 89.0101 23.7231 89.9619 23.7231C90.9137 23.7231 91.73 23.9777 92.4106 24.4868C93.0913 24.9959 93.6143 25.7209 93.9795 26.6616C94.3447 27.5968 94.5273 28.7091 94.5273 29.9985V30.0151C94.5273 31.3045 94.3447 32.4196 93.9795 33.3604C93.6143 34.3011 93.0913 35.026 92.4106 35.5352C91.73 36.0443 90.9137 36.2988 89.9619 36.2988ZM89.9619 34.564C90.471 34.564 90.9054 34.3813 91.2651 34.0161C91.6248 33.6509 91.8988 33.1307 92.0869 32.4556C92.2806 31.7749 92.3774 30.9614 92.3774 30.0151V29.9985C92.3774 29.0522 92.2806 28.2415 92.0869 27.5664C91.8988 26.8857 91.6248 26.3656 91.2651 26.0059C90.9054 25.6406 90.471 25.458 89.9619 25.458C89.4528 25.458 89.0184 25.6406 88.6587 26.0059C88.3045 26.3656 88.0306 26.8857 87.8369 27.5664C87.6488 28.2415 87.5547 29.0522 87.5547 29.9985V30.0151C87.5547 30.9614 87.6488 31.7749 87.8369 32.4556C88.0306 33.1307 88.3045 33.6509 88.6587 34.0161C89.0184 34.3813 89.4528 34.564 89.9619 34.564Z" fill="black"/>
<path d="M288.333 31C288.977 31 289.5 31.5037 289.5 32.125V34.375C289.5 34.9963 288.977 35.5 288.333 35.5H287.167C286.523 35.5 286 34.9963 286 34.375V32.125C286 31.5037 286.523 31 287.167 31H288.333ZM293.823 28.75C294.468 28.75 294.99 29.2537 294.99 29.875V34.375C294.99 34.9963 294.468 35.5 293.823 35.5H292.657C292.013 35.5 291.49 34.9963 291.49 34.375V29.875C291.49 29.2537 292.013 28.75 292.657 28.75H293.823ZM299.313 26.125C299.958 26.125 300.48 26.6287 300.48 27.25V34.375C300.48 34.9963 299.958 35.5 299.313 35.5H298.147C297.503 35.5 296.98 34.9963 296.98 34.375V27.25C296.981 26.6287 297.503 26.125 298.147 26.125H299.313ZM304.804 23.5C305.448 23.5 305.971 24.0037 305.971 24.625V34.375C305.971 34.9963 305.448 35.5 304.804 35.5H303.638C302.993 35.5 302.471 34.9963 302.471 34.375V24.625C302.471 24.0037 302.993 23.5 303.638 23.5H304.804Z" fill="black"/>
<path d="M318.512 32.8262C319.932 31.5964 322.011 31.5964 323.431 32.8262C323.502 32.8924 323.544 32.9855 323.546 33.084C323.548 33.1826 323.51 33.2777 323.441 33.3467L321.218 35.6446C321.153 35.7121 321.063 35.7501 320.971 35.7501C320.878 35.7499 320.79 35.7119 320.725 35.6446L318.501 33.3467C318.432 33.2776 318.394 33.1826 318.396 33.084C318.399 32.9855 318.44 32.8923 318.512 32.8262ZM315.545 29.7608C318.604 26.8467 323.341 26.8467 326.4 29.7608C326.469 29.829 326.509 29.9225 326.51 30.0206C326.511 30.1188 326.473 30.2135 326.405 30.2833L325.12 31.6133C324.988 31.7491 324.774 31.7524 324.638 31.6202C323.633 30.6886 322.326 30.1728 320.971 30.1729C319.617 30.1736 318.311 30.6895 317.308 31.6202C317.172 31.7524 316.958 31.7491 316.825 31.6133L315.54 30.2833C315.472 30.2136 315.435 30.1189 315.436 30.0206C315.437 29.9224 315.476 29.829 315.545 29.7608ZM312.578 26.7032C317.27 22.0989 324.671 22.099 329.363 26.7032C329.431 26.7716 329.47 26.8654 329.471 26.963C329.471 27.0605 329.433 27.1545 329.366 27.2237L328.08 28.5538C327.947 28.6901 327.732 28.691 327.598 28.5567C325.81 26.8164 323.437 25.8459 320.971 25.8458C318.504 25.8459 316.131 26.8163 314.344 28.5567C314.209 28.6913 313.994 28.6904 313.861 28.5538L312.574 27.2237C312.507 27.1545 312.47 27.0605 312.471 26.963C312.471 26.8654 312.51 26.7715 312.578 26.7032Z" fill="black"/>
<rect opacity="0.4" x="336.471" y="23.5" width="24" height="12" rx="3.5" stroke="black"/>
<path opacity="0.5" d="M361.971 27.5V31.5C362.777 31.1612 363.301 30.3731 363.301 29.5C363.301 28.6269 362.777 27.8388 361.971 27.5Z" fill="black"/>
<rect x="337.971" y="25" width="17" height="9" rx="2" fill="black"/>
<path d="M42.8095 99.5268C42.068 100.323 40.8068 100.323 40.0652 99.5268L28.2697 86.8632C27.5544 86.0952 27.5544 84.9048 28.2697 84.1368L40.0652 71.4732C40.8068 70.677 42.068 70.677 42.8095 71.4732C43.4802 72.1932 43.4802 73.3093 42.8095 74.0293L33.395 84.1368C32.6796 84.9048 32.6796 86.0952 33.395 86.8632L42.8095 96.9707C43.4802 97.6907 43.4802 98.8068 42.8095 99.5268Z" fill="#535353"/>
<path d="M187.654 169.764C186.994 169.764 186.34 169.698 185.692 169.566C185.044 169.434 184.522 169.254 184.126 169.026V167.136C185.17 167.7 186.346 167.982 187.654 167.982C188.518 167.982 189.16 167.892 189.58 167.712C190 167.52 190.21 167.226 190.21 166.83C190.21 166.566 190.114 166.326 189.922 166.11C189.13 166.494 188.308 166.686 187.456 166.686C185.98 166.686 184.864 166.338 184.108 165.642C183.352 164.934 182.974 163.95 182.974 162.69V162.078C182.974 161.322 182.794 160.77 182.434 160.422C182.074 160.062 181.528 159.882 180.796 159.882C180.244 159.882 179.758 159.966 179.338 160.134C178.918 160.302 178.528 160.578 178.168 160.962L178.906 162.15V165.246C178.906 165.558 178.972 165.78 179.104 165.912C179.236 166.032 179.458 166.092 179.77 166.092H180.778V168H178.582C177.946 168 177.46 167.82 177.124 167.46C176.788 167.1 176.62 166.608 176.62 165.984V162.132L175.72 160.638C176.38 159.81 177.118 159.18 177.934 158.748C178.762 158.316 179.716 158.1 180.796 158.1C182.248 158.1 183.352 158.436 184.108 159.108C184.864 159.768 185.242 160.698 185.242 161.898V162.51C185.242 163.326 185.41 163.932 185.746 164.328C186.094 164.712 186.682 164.904 187.51 164.904C189.034 164.904 189.796 164.106 189.796 162.51V158.37H192.082V162.69C192.082 163.434 191.848 164.16 191.38 164.868C191.992 165.408 192.298 166.062 192.298 166.83C192.298 167.766 191.866 168.486 191.002 168.99C190.138 169.506 189.022 169.764 187.654 169.764ZM197.369 161.844C197.369 161.136 197.225 160.632 196.937 160.332C196.661 160.032 196.157 159.882 195.425 159.882C194.753 159.882 194.069 160.056 193.373 160.404V158.622C193.661 158.478 194.039 158.358 194.507 158.262C194.987 158.154 195.455 158.1 195.911 158.1C197.147 158.1 198.077 158.436 198.701 159.108C199.337 159.78 199.655 160.74 199.655 161.988V168H197.369V161.844ZM206.188 168.27C204.736 168.27 203.584 167.862 202.732 167.046C201.88 166.218 201.454 165.012 201.454 163.428C201.454 162.348 201.61 161.406 201.922 160.602C202.234 159.798 202.666 159.18 203.218 158.748C203.77 158.316 204.388 158.1 205.072 158.1C205.96 158.1 206.608 158.442 207.016 159.126C207.244 158.766 207.568 158.508 207.988 158.352C208.408 158.184 208.87 158.1 209.374 158.1C210.238 158.1 210.892 158.376 211.336 158.928C211.78 159.468 212.002 160.194 212.002 161.106V168H209.716V161.268C209.716 160.788 209.644 160.44 209.5 160.224C209.356 159.996 209.11 159.882 208.762 159.882C208.162 159.882 207.796 160.23 207.664 160.926H206.386C206.314 160.23 206.002 159.882 205.45 159.882C204.958 159.882 204.556 160.188 204.244 160.8C203.944 161.4 203.794 162.276 203.794 163.428C203.794 165.468 204.724 166.488 206.584 166.488C207.028 166.488 207.442 166.428 207.826 166.308V168.054C207.358 168.198 206.812 168.27 206.188 168.27ZM203.948 155.598H211.994V157.056H203.948V155.598Z" fill="black"/>
<path d="M158.704 194.21C157.864 194.21 157.136 194.005 156.52 193.594C155.913 193.183 155.447 192.595 155.12 191.83C154.793 191.065 154.63 190.159 154.63 189.114C154.63 188.069 154.789 187.163 155.106 186.398C155.433 185.623 155.899 185.031 156.506 184.62C157.122 184.209 157.855 184.004 158.704 184.004C159.553 184.004 160.281 184.209 160.888 184.62C161.504 185.031 161.971 185.623 162.288 186.398C162.615 187.163 162.778 188.069 162.778 189.114C162.778 190.159 162.615 191.065 162.288 191.83C161.961 192.595 161.49 193.183 160.874 193.594C160.267 194.005 159.544 194.21 158.704 194.21ZM158.704 192.95C159.535 192.95 160.183 192.609 160.65 191.928C161.126 191.237 161.364 190.304 161.364 189.128C161.364 187.952 161.131 187.019 160.664 186.328C160.197 185.637 159.544 185.292 158.704 185.292C157.864 185.292 157.211 185.637 156.744 186.328C156.277 187.019 156.044 187.952 156.044 189.128C156.044 190.304 156.277 191.237 156.744 191.928C157.22 192.609 157.873 192.95 158.704 192.95ZM166.668 194.21C166.155 194.21 165.698 194.154 165.296 194.042V192.852C165.66 192.992 166.08 193.062 166.556 193.062C168.563 193.062 169.664 191.863 169.86 189.464C169.58 189.819 169.212 190.085 168.754 190.262C168.306 190.439 167.802 190.528 167.242 190.528C166.617 190.528 166.062 190.397 165.576 190.136C165.091 189.875 164.713 189.501 164.442 189.016C164.172 188.531 164.036 187.966 164.036 187.322C164.036 186.687 164.176 186.118 164.456 185.614C164.746 185.11 165.161 184.718 165.702 184.438C166.244 184.149 166.883 184.004 167.62 184.004C168.33 184.004 168.96 184.163 169.51 184.48C170.07 184.797 170.509 185.273 170.826 185.908C171.144 186.533 171.302 187.294 171.302 188.19C171.302 190.131 170.901 191.62 170.098 192.656C169.305 193.692 168.162 194.21 166.668 194.21ZM167.62 189.408C168.236 189.408 168.75 189.212 169.16 188.82C169.58 188.428 169.79 187.91 169.79 187.266C169.79 186.883 169.697 186.529 169.51 186.202C169.333 185.875 169.081 185.614 168.754 185.418C168.428 185.222 168.05 185.124 167.62 185.124C166.967 185.124 166.44 185.32 166.038 185.712C165.646 186.104 165.45 186.627 165.45 187.28C165.45 187.933 165.646 188.451 166.038 188.834C166.44 189.217 166.967 189.408 167.62 189.408ZM176.152 194.21C175.05 194.21 174.178 193.963 173.534 193.468C172.89 192.964 172.568 192.25 172.568 191.326C172.568 190.701 172.731 190.178 173.058 189.758C173.384 189.329 173.818 189.039 174.36 188.89C173.912 188.703 173.557 188.419 173.296 188.036C173.034 187.644 172.904 187.191 172.904 186.678C172.904 185.857 173.198 185.208 173.785 184.732C174.374 184.247 175.162 184.004 176.152 184.004C177.132 184.004 177.916 184.247 178.504 184.732C179.092 185.208 179.386 185.857 179.386 186.678C179.386 187.191 179.255 187.644 178.994 188.036C178.732 188.419 178.378 188.703 177.93 188.89C178.471 189.039 178.905 189.329 179.232 189.758C179.568 190.178 179.736 190.701 179.736 191.326C179.736 192.25 179.414 192.964 178.77 193.468C178.126 193.963 177.253 194.21 176.152 194.21ZM176.152 188.456C176.702 188.456 177.15 188.307 177.496 188.008C177.841 187.7 178.014 187.299 178.014 186.804C178.014 186.3 177.841 185.889 177.496 185.572C177.16 185.255 176.712 185.096 176.152 185.096C175.592 185.096 175.139 185.255 174.794 185.572C174.458 185.889 174.29 186.3 174.29 186.804C174.29 187.299 174.462 187.7 174.808 188.008C175.153 188.307 175.601 188.456 176.152 188.456ZM176.152 193.174C176.824 193.174 177.351 193.001 177.734 192.656C178.116 192.311 178.308 191.835 178.308 191.228C178.308 190.649 178.107 190.192 177.706 189.856C177.314 189.52 176.796 189.352 176.152 189.352C175.508 189.352 174.985 189.52 174.584 189.856C174.182 190.192 173.982 190.649 173.982 191.228C173.982 191.835 174.173 192.311 174.556 192.656C174.948 193.001 175.48 193.174 176.152 193.174ZM186.043 185.418H180.849V184.214H187.499V185.264L183.565 194H182.165L186.043 185.418ZM192.3 194.21C191.6 194.21 190.97 194.051 190.41 193.734C189.86 193.407 189.421 192.931 189.094 192.306C188.777 191.671 188.618 190.911 188.618 190.024C188.618 188.083 189.015 186.594 189.808 185.558C190.611 184.522 191.759 184.004 193.252 184.004C193.766 184.004 194.223 184.06 194.624 184.172V185.376C194.298 185.236 193.878 185.166 193.364 185.166C191.367 185.166 190.27 186.365 190.074 188.764C190.354 188.409 190.723 188.143 191.18 187.966C191.647 187.779 192.156 187.686 192.706 187.686C193.341 187.686 193.896 187.817 194.372 188.078C194.848 188.339 195.217 188.713 195.478 189.198C195.749 189.683 195.884 190.248 195.884 190.892C195.884 191.527 195.74 192.096 195.45 192.6C195.17 193.104 194.76 193.501 194.218 193.79C193.677 194.07 193.038 194.21 192.3 194.21ZM192.3 193.104C192.954 193.104 193.476 192.908 193.868 192.516C194.27 192.115 194.47 191.587 194.47 190.934C194.47 190.281 194.27 189.763 193.868 189.38C193.476 188.997 192.954 188.806 192.3 188.806C191.899 188.806 191.53 188.895 191.194 189.072C190.868 189.249 190.606 189.501 190.41 189.828C190.224 190.155 190.13 190.533 190.13 190.962C190.13 191.345 190.219 191.699 190.396 192.026C190.583 192.353 190.84 192.614 191.166 192.81C191.493 193.006 191.871 193.104 192.3 193.104ZM199.88 194.21C199.366 194.21 198.867 194.154 198.382 194.042C197.896 193.939 197.486 193.795 197.15 193.608V192.334C197.532 192.567 197.966 192.749 198.452 192.88C198.937 193.001 199.399 193.062 199.838 193.062C200.687 193.062 201.331 192.885 201.77 192.53C202.208 192.166 202.428 191.634 202.428 190.934C202.428 190.271 202.222 189.767 201.812 189.422C201.41 189.067 200.808 188.89 200.006 188.89C199.67 188.89 199.315 188.923 198.942 188.988C198.578 189.053 198.251 189.142 197.962 189.254L197.332 188.89L197.696 184.214H203.17V185.418H198.998L198.788 187.938C199.366 187.817 199.954 187.756 200.552 187.756C201.588 187.756 202.4 188.045 202.988 188.624C203.576 189.203 203.87 189.973 203.87 190.934C203.87 191.989 203.538 192.801 202.876 193.37C202.213 193.93 201.214 194.21 199.88 194.21ZM209.614 191.592H204.854V190.682L209.6 184.214H211.056V190.472H212.568V191.592H211.056V194H209.614V191.592ZM209.782 190.472V185.922L206.464 190.472H209.782ZM216.524 194.21C215.955 194.21 215.409 194.163 214.886 194.07C214.373 193.986 213.925 193.855 213.542 193.678V192.502C214.41 192.894 215.343 193.09 216.342 193.09C217.201 193.09 217.835 192.936 218.246 192.628C218.666 192.311 218.876 191.863 218.876 191.284C218.876 190.687 218.661 190.262 218.232 190.01C217.803 189.749 217.149 189.618 216.272 189.618H215.124V188.47H216.244C216.944 188.47 217.509 188.33 217.938 188.05C218.367 187.761 218.582 187.341 218.582 186.79C218.582 186.249 218.405 185.838 218.05 185.558C217.695 185.278 217.182 185.138 216.51 185.138C215.987 185.138 215.516 185.199 215.096 185.32C214.676 185.441 214.242 185.642 213.794 185.922V184.746C214.615 184.251 215.577 184.004 216.678 184.004C217.77 184.004 218.601 184.247 219.17 184.732C219.739 185.217 220.024 185.889 220.024 186.748C220.024 187.271 219.884 187.728 219.604 188.12C219.324 188.512 218.904 188.815 218.344 189.03C218.979 189.179 219.464 189.45 219.8 189.842C220.145 190.234 220.318 190.729 220.318 191.326C220.318 192.213 220.015 192.917 219.408 193.44C218.801 193.953 217.84 194.21 216.524 194.21ZM221.581 193.062L223.695 191.032C223.882 190.845 224.143 190.603 224.479 190.304C225.011 189.819 225.417 189.427 225.697 189.128C225.977 188.829 226.206 188.512 226.383 188.176C226.561 187.831 226.649 187.462 226.649 187.07C226.649 186.491 226.481 186.053 226.145 185.754C225.809 185.446 225.319 185.292 224.675 185.292C224.237 185.292 223.784 185.371 223.317 185.53C222.86 185.689 222.431 185.922 222.029 186.23V184.858C222.813 184.289 223.77 184.004 224.899 184.004C225.907 184.004 226.691 184.275 227.251 184.816C227.811 185.348 228.091 186.076 228.091 187C228.091 187.448 227.993 187.877 227.797 188.288C227.611 188.699 227.345 189.105 226.999 189.506C226.654 189.898 226.187 190.379 225.599 190.948L223.695 192.81H228.455V194H221.581V193.062ZM231.83 185.754L229.716 187.28V185.922L232.026 184.214H233.258V194H231.83V185.754Z" fill="#4E5256"/>
<path d="M138.475 235C137.985 235 137.61 234.865 137.35 234.595C137.1 234.315 136.975 233.925 136.975 233.425V226.975H138.505V233.005C138.505 233.275 138.56 233.465 138.67 233.575C138.78 233.675 138.97 233.725 139.24 233.725H139.78V235H138.475ZM142.33 235C141.85 235 141.48 234.86 141.22 234.58C140.96 234.3 140.83 233.915 140.83 233.425V226.975H142.36V233.005C142.36 233.275 142.415 233.465 142.525 233.575C142.645 233.675 142.84 233.725 143.11 233.725H143.65V235H142.33ZM145.745 230.005L144.995 228.79C145.525 228.12 146.13 227.615 146.81 227.275C147.49 226.925 148.295 226.75 149.225 226.75C150.425 226.75 151.345 227.025 151.985 227.575C152.625 228.115 152.945 228.875 152.945 229.855V235H151.415V229.975C151.415 229.285 151.23 228.78 150.86 228.46C150.5 228.13 149.955 227.965 149.225 227.965C148.675 227.965 148.19 228.05 147.77 228.22C147.35 228.38 146.97 228.64 146.63 229L147.275 230.005V235H145.745V230.005ZM149.715 224.845C149.715 224.725 149.695 224.64 149.655 224.59C149.605 224.54 149.52 224.515 149.4 224.515H148.725V223.435H149.85C150.17 223.435 150.405 223.515 150.555 223.675C150.695 223.825 150.765 224.015 150.765 224.245V224.77H153.84V225.79H149.715V224.845ZM156.9 234.985C156.41 234.985 156.035 234.85 155.775 234.58C155.525 234.3 155.4 233.91 155.4 233.41V227.725C155.4 227.055 155.495 226.505 155.685 226.075C155.875 225.645 156.195 225.29 156.645 225.01H153.915V223.72H158.64V224.95C158.04 225.21 157.605 225.545 157.335 225.955C157.065 226.365 156.93 226.935 156.93 227.665V232.975C156.93 233.245 156.985 233.435 157.095 233.545C157.205 233.645 157.395 233.695 157.665 233.695H158.205V234.985H156.9ZM163.141 235.225C162.421 235.225 161.796 235.1 161.266 234.85C160.736 234.6 160.326 234.25 160.036 233.8C159.756 233.34 159.616 232.815 159.616 232.225V231.715C159.616 231.375 159.686 231.065 159.826 230.785C159.966 230.505 160.171 230.18 160.441 229.81C160.631 229.56 160.771 229.355 160.861 229.195C160.951 229.025 160.996 228.865 160.996 228.715C160.996 228.525 160.946 228.39 160.846 228.31C160.756 228.23 160.601 228.19 160.381 228.19H159.541V226.975H161.116C161.556 226.975 161.901 227.105 162.151 227.365C162.411 227.615 162.541 227.95 162.541 228.37C162.541 228.66 162.481 228.93 162.361 229.18C162.241 229.42 162.061 229.715 161.821 230.065C161.581 230.425 161.406 230.715 161.296 230.935C161.196 231.155 161.146 231.395 161.146 231.655V232.21C161.146 232.79 161.311 233.24 161.641 233.56C161.981 233.87 162.481 234.025 163.141 234.025C163.801 234.025 164.291 233.865 164.611 233.545C164.931 233.215 165.091 232.755 165.091 232.165V226.975H166.621V231.91C166.621 232.94 166.316 233.75 165.706 234.34C165.096 234.93 164.241 235.225 163.141 235.225ZM171.332 235.225C170.782 235.225 170.222 235.16 169.652 235.03C169.082 234.91 168.637 234.73 168.317 234.49V233.26C168.747 233.52 169.217 233.72 169.727 233.86C170.247 233.99 170.742 234.055 171.212 234.055C171.872 234.055 172.347 233.98 172.637 233.83C172.927 233.67 173.072 233.4 173.072 233.02C173.072 232.76 173.002 232.55 172.862 232.39C172.722 232.23 172.507 232.09 172.217 231.97C171.937 231.85 171.492 231.7 170.882 231.52C170.002 231.25 169.347 230.935 168.917 230.575C168.487 230.205 168.272 229.695 168.272 229.045C168.272 228.305 168.557 227.74 169.127 227.35C169.697 226.95 170.477 226.75 171.467 226.75C171.977 226.75 172.467 226.81 172.937 226.93C173.417 227.04 173.812 227.19 174.122 227.38V228.64C173.782 228.43 173.392 228.265 172.952 228.145C172.512 228.025 172.062 227.965 171.602 227.965C170.402 227.965 169.802 228.325 169.802 229.045C169.802 229.315 169.882 229.53 170.042 229.69C170.212 229.85 170.432 229.985 170.702 230.095C170.982 230.195 171.447 230.34 172.097 230.53C172.737 230.72 173.237 230.925 173.597 231.145C173.957 231.365 174.212 231.625 174.362 231.925C174.512 232.225 174.587 232.595 174.587 233.035C174.587 233.695 174.317 234.225 173.777 234.625C173.237 235.025 172.422 235.225 171.332 235.225ZM179.053 229.81C179.053 229.17 178.923 228.705 178.663 228.415C178.403 228.115 177.943 227.965 177.283 227.965C176.643 227.965 176.043 228.105 175.483 228.385V227.185C175.723 227.065 176.033 226.965 176.413 226.885C176.803 226.795 177.188 226.75 177.568 226.75C178.578 226.75 179.333 227.025 179.833 227.575C180.333 228.115 180.583 228.895 180.583 229.915V235H179.053V229.81ZM186.042 235.225C184.882 235.225 183.957 235.005 183.267 234.565C182.577 234.125 182.232 233.485 182.232 232.645C182.232 232.205 182.352 231.82 182.592 231.49C182.842 231.15 183.172 230.915 183.582 230.785C183.192 230.615 182.877 230.37 182.637 230.05C182.407 229.73 182.292 229.36 182.292 228.94C182.292 228.28 182.512 227.75 182.952 227.35C183.392 226.95 184.037 226.75 184.887 226.75C185.127 226.75 185.372 226.77 185.622 226.81C185.872 226.84 186.072 226.875 186.222 226.915V228.115C186.092 228.065 185.922 228.03 185.712 228.01C185.512 227.98 185.327 227.965 185.157 227.965C184.727 227.965 184.397 228.06 184.167 228.25C183.947 228.43 183.837 228.69 183.837 229.03C183.837 229.39 183.957 229.665 184.197 229.855C184.437 230.045 184.792 230.14 185.262 230.14H186.222V231.4H185.277C184.797 231.4 184.427 231.505 184.167 231.715C183.907 231.915 183.777 232.225 183.777 232.645C183.777 233.085 183.977 233.425 184.377 233.665C184.787 233.905 185.342 234.025 186.042 234.025C187.692 234.025 188.517 233.325 188.517 231.925V226.975H190.047V231.895C190.047 232.455 189.917 232.99 189.657 233.5C189.397 234 188.967 234.415 188.367 234.745C187.777 235.065 187.002 235.225 186.042 235.225ZM195.34 235.225C194.63 235.225 194.005 235.1 193.465 234.85C192.925 234.6 192.505 234.25 192.205 233.8C191.915 233.34 191.77 232.815 191.77 232.225V231.715C191.77 231.375 191.845 231.06 191.995 230.77C192.145 230.47 192.35 230.145 192.61 229.795C192.8 229.535 192.935 229.325 193.015 229.165C193.105 229.005 193.15 228.855 193.15 228.715C193.15 228.525 193.1 228.39 193 228.31C192.91 228.23 192.755 228.19 192.535 228.19H191.695V226.975H193.27C193.71 226.975 194.055 227.105 194.305 227.365C194.565 227.615 194.695 227.95 194.695 228.37C194.695 228.66 194.635 228.93 194.515 229.18C194.395 229.42 194.215 229.715 193.975 230.065C193.735 230.425 193.56 230.715 193.45 230.935C193.35 231.155 193.3 231.395 193.3 231.655V232.21C193.3 232.78 193.48 233.225 193.84 233.545C194.2 233.865 194.7 234.025 195.34 234.025C196.02 234.025 196.55 233.84 196.93 233.47C197.31 233.1 197.5 232.555 197.5 231.835C197.5 231.115 197.35 230.575 197.05 230.215C196.75 229.855 196.31 229.675 195.73 229.675V228.85L197.335 226.75H198.985L197.29 228.985C197.9 229.215 198.34 229.57 198.61 230.05C198.89 230.52 199.03 231.115 199.03 231.835C199.03 232.525 198.875 233.125 198.565 233.635C198.265 234.145 197.835 234.54 197.275 234.82C196.715 235.09 196.07 235.225 195.34 235.225ZM192.324 224.785H195.339V223.15H196.464V224.785H197.679V223.15H198.789V225.79H192.324V224.785ZM197.409 219.66H198.789V221.655H197.409V219.66ZM203.724 235.225C203.104 235.225 202.504 235.15 201.924 235C201.344 234.86 200.854 234.66 200.454 234.4V230.41H203.784V231.64H201.984V233.635C202.414 233.895 202.994 234.025 203.724 234.025C204.684 234.025 205.414 233.76 205.914 233.23C206.424 232.7 206.679 231.93 206.679 230.92C206.679 229.91 206.419 229.165 205.899 228.685C205.389 228.205 204.549 227.965 203.379 227.965C202.849 227.965 202.329 228.02 201.819 228.13C201.309 228.23 200.879 228.395 200.529 228.625V227.41C200.919 227.19 201.379 227.025 201.909 226.915C202.439 226.805 203.009 226.75 203.619 226.75C205.119 226.75 206.264 227.115 207.054 227.845C207.844 228.575 208.239 229.6 208.239 230.92C208.239 232.25 207.844 233.3 207.054 234.07C206.274 234.84 205.164 235.225 203.724 235.225ZM209.895 228.61C209.895 228.08 210.035 227.675 210.315 227.395C210.595 227.115 210.995 226.975 211.515 226.975H212.7V228.265H212.16C211.89 228.265 211.695 228.325 211.575 228.445C211.465 228.555 211.41 228.75 211.41 229.03V232.765L213.42 229.495H214.08L216.09 232.765V226.975H217.605V235H216.225L213.75 230.965L211.275 235H209.895V228.61ZM215.738 239.065C215.118 239.065 214.638 238.935 214.298 238.675C213.948 238.415 213.773 238.065 213.773 237.625V237.22C213.773 237.08 213.753 236.985 213.713 236.935C213.673 236.895 213.588 236.875 213.458 236.875H212.948V235.855H214.268C214.538 235.855 214.723 235.915 214.823 236.035C214.923 236.155 214.973 236.35 214.973 236.62V237.475C214.973 237.915 215.213 238.135 215.693 238.135C216.163 238.135 216.398 237.915 216.398 237.475V235.855H217.598V237.58C217.598 238.02 217.438 238.375 217.118 238.645C216.788 238.925 216.328 239.065 215.738 239.065ZM214.373 224.845C214.373 224.725 214.353 224.64 214.313 224.59C214.263 224.54 214.178 224.515 214.058 224.515H213.383V223.435H214.508C214.828 223.435 215.063 223.515 215.213 223.675C215.353 223.825 215.423 224.015 215.423 224.245V224.77H218.498V225.79H214.373V224.845ZM223.103 235.225C221.903 235.225 220.958 234.885 220.268 234.205C219.588 233.525 219.248 232.525 219.248 231.205C219.248 230.295 219.373 229.505 219.623 228.835C219.873 228.165 220.213 227.65 220.643 227.29C221.083 226.93 221.583 226.75 222.143 226.75C222.903 226.75 223.438 227.055 223.748 227.665C223.918 227.355 224.173 227.125 224.513 226.975C224.853 226.825 225.233 226.75 225.653 226.75C226.343 226.75 226.858 226.97 227.198 227.41C227.548 227.85 227.723 228.44 227.723 229.18V235H226.193V229.285C226.193 228.835 226.123 228.505 225.983 228.295C225.843 228.075 225.603 227.965 225.263 227.965C224.693 227.965 224.338 228.275 224.198 228.895H223.298C223.248 228.585 223.148 228.355 222.998 228.205C222.858 228.045 222.653 227.965 222.383 227.965C221.913 227.965 221.528 228.245 221.228 228.805C220.938 229.365 220.793 230.165 220.793 231.205C220.793 232.165 221.003 232.875 221.423 233.335C221.843 233.795 222.488 234.025 223.358 234.025C223.738 234.025 224.088 233.975 224.408 233.875V235.06C224.058 235.17 223.623 235.225 223.103 235.225ZM221.225 224.755H227.705V225.79H221.225V224.755ZM233.225 235.225C232.025 235.225 231.08 234.885 230.39 234.205C229.71 233.525 229.37 232.525 229.37 231.205C229.37 230.285 229.545 229.49 229.895 228.82C230.255 228.15 230.765 227.64 231.425 227.29C232.085 226.93 232.87 226.75 233.78 226.75C235.19 226.75 236.22 227.085 236.87 227.755C237.52 228.415 237.845 229.26 237.845 230.29V235H236.315V230.275C236.315 228.735 235.47 227.965 233.78 227.965C232.89 227.965 232.19 228.245 231.68 228.805C231.17 229.365 230.915 230.165 230.915 231.205C230.915 232.165 231.13 232.875 231.56 233.335C231.99 233.795 232.63 234.025 233.48 234.025C233.86 234.025 234.21 233.975 234.53 233.875V235.06C234.18 235.17 233.745 235.225 233.225 235.225ZM243.347 235.225C242.147 235.225 241.202 234.885 240.512 234.205C239.832 233.525 239.492 232.525 239.492 231.205C239.492 230.295 239.617 229.505 239.867 228.835C240.117 228.165 240.457 227.65 240.887 227.29C241.327 226.93 241.827 226.75 242.387 226.75C243.147 226.75 243.682 227.055 243.992 227.665C244.162 227.355 244.417 227.125 244.757 226.975C245.097 226.825 245.477 226.75 245.897 226.75C246.587 226.75 247.102 226.97 247.442 227.41C247.792 227.85 247.967 228.44 247.967 229.18V235H246.437V229.285C246.437 228.835 246.367 228.505 246.227 228.295C246.087 228.075 245.847 227.965 245.507 227.965C244.937 227.965 244.582 228.275 244.442 228.895H243.542C243.492 228.585 243.392 228.355 243.242 228.205C243.102 228.045 242.897 227.965 242.627 227.965C242.157 227.965 241.772 228.245 241.472 228.805C241.182 229.365 241.037 230.165 241.037 231.205C241.037 232.165 241.247 232.875 241.667 233.335C242.087 233.795 242.732 234.025 243.602 234.025C243.982 234.025 244.332 233.975 244.652 233.875V235.06C244.302 235.17 243.867 235.225 243.347 235.225ZM246.479 223.285H247.994V225.79H246.479V223.285ZM252.884 235.225C252.264 235.225 251.664 235.15 251.084 235C250.504 234.86 250.014 234.66 249.614 234.4V230.41H252.944V231.64H251.144V233.635C251.574 233.895 252.154 234.025 252.884 234.025C253.844 234.025 254.574 233.76 255.074 233.23C255.584 232.7 255.839 231.93 255.839 230.92C255.839 229.91 255.579 229.165 255.059 228.685C254.549 228.205 253.709 227.965 252.539 227.965C252.009 227.965 251.489 228.02 250.979 228.13C250.469 228.23 250.039 228.395 249.689 228.625V227.41C250.079 227.19 250.539 227.025 251.069 226.915C251.599 226.805 252.169 226.75 252.779 226.75C254.279 226.75 255.424 227.115 256.214 227.845C257.004 228.575 257.399 229.6 257.399 230.92C257.399 232.25 257.004 233.3 256.214 234.07C255.434 234.84 254.324 235.225 252.884 235.225Z" fill="#16AD78"/>
<line y1="117.875" x2="390" y2="117.875" stroke="black" stroke-opacity="0.5" stroke-width="0.25"/>
<path d="M337.562 99C336.909 99 336.35 98.7606 335.885 98.2819C335.42 97.8032 335.188 97.2278 335.188 96.5556V80.6667H334V78.2222H339.938V77H347.062V78.2222H353V80.6667H351.812V96.5556C351.812 97.2278 351.58 97.8032 351.115 98.2819C350.65 98.7606 350.091 99 349.438 99H337.562ZM349.438 80.6667H337.562V96.5556H349.438V80.6667ZM339.938 94.1111H342.312V83.1111H339.938V94.1111ZM344.688 94.1111H347.062V83.1111H344.688V94.1111Z" fill="black"/>
<rect x="68" y="294" width="261" height="172" rx="20" fill="white"/>
<path d="M142.57 326.225C141.68 326.225 140.96 326 140.41 325.55C139.87 325.1 139.6 324.465 139.6 323.645C139.6 323.105 139.735 322.63 140.005 322.22C140.285 321.81 140.675 321.49 141.175 321.26C141.685 321.03 142.28 320.915 142.96 320.915C143.93 320.915 144.77 321.08 145.48 321.41V321.05C145.48 320.43 145.295 319.975 144.925 319.685C144.565 319.385 143.98 319.235 143.17 319.235C142.68 319.235 142.195 319.285 141.715 319.385C141.245 319.485 140.835 319.62 140.485 319.79V318.305C140.805 318.155 141.245 318.025 141.805 317.915C142.375 317.805 142.93 317.75 143.47 317.75C144.77 317.75 145.745 318.045 146.395 318.635C147.045 319.225 147.37 320.015 147.37 321.005V326H145.48V322.91C144.81 322.57 144.045 322.4 143.185 322.4C142.625 322.4 142.205 322.51 141.925 322.73C141.655 322.94 141.52 323.25 141.52 323.66C141.52 324.03 141.645 324.305 141.895 324.485C142.145 324.655 142.54 324.74 143.08 324.74C143.42 324.74 143.715 324.69 143.965 324.59V326.045C143.595 326.165 143.13 326.225 142.57 326.225ZM153.192 326.225C152.392 326.225 151.687 326.08 151.077 325.79C150.477 325.5 150.012 325.1 149.682 324.59C149.362 324.07 149.202 323.48 149.202 322.82V317.975H151.107V322.745C151.107 323.375 151.282 323.865 151.632 324.215C151.982 324.565 152.502 324.74 153.192 324.74C153.872 324.74 154.387 324.565 154.737 324.215C155.087 323.865 155.262 323.375 155.262 322.745V317.975H157.167V322.82C157.167 323.48 157.002 324.07 156.672 324.59C156.352 325.1 155.892 325.5 155.292 325.79C154.692 326.08 153.992 326.225 153.192 326.225ZM161.837 326.225C161.267 326.225 160.687 326.165 160.097 326.045C159.517 325.925 159.062 325.745 158.732 325.505V324.02C159.172 324.28 159.657 324.475 160.187 324.605C160.727 324.735 161.222 324.8 161.672 324.8C162.272 324.8 162.702 324.74 162.962 324.62C163.232 324.5 163.367 324.275 163.367 323.945C163.367 323.715 163.297 323.535 163.157 323.405C163.017 323.265 162.827 323.15 162.587 323.06C162.347 322.97 161.897 322.825 161.237 322.625C160.377 322.355 159.732 322.03 159.302 321.65C158.882 321.27 158.672 320.755 158.672 320.105C158.672 319.355 158.972 318.775 159.572 318.365C160.172 317.955 160.982 317.75 162.002 317.75C162.542 317.75 163.057 317.81 163.547 317.93C164.047 318.04 164.457 318.19 164.777 318.38V319.94C164.447 319.73 164.047 319.56 163.577 319.43C163.117 319.3 162.652 319.235 162.182 319.235C161.112 319.235 160.577 319.525 160.577 320.105C160.577 320.315 160.642 320.485 160.772 320.615C160.902 320.745 161.077 320.855 161.297 320.945C161.517 321.025 161.852 321.135 162.302 321.275L162.797 321.425C163.437 321.625 163.932 321.84 164.282 322.07C164.642 322.3 164.892 322.565 165.032 322.865C165.182 323.165 165.257 323.535 165.257 323.975C165.257 324.645 164.972 325.19 164.402 325.61C163.832 326.02 162.977 326.225 161.837 326.225ZM169.331 320.87C169.331 320.28 169.211 319.86 168.971 319.61C168.741 319.36 168.321 319.235 167.711 319.235C167.151 319.235 166.581 319.38 166.001 319.67V318.185C166.241 318.065 166.556 317.965 166.946 317.885C167.346 317.795 167.736 317.75 168.116 317.75C169.146 317.75 169.921 318.03 170.441 318.59C170.971 319.15 171.236 319.95 171.236 320.99V326H169.331V320.87ZM176.68 326.225C175.49 326.225 174.535 325.995 173.815 325.535C173.095 325.075 172.735 324.425 172.735 323.585C172.735 323.175 172.855 322.805 173.095 322.475C173.335 322.145 173.645 321.915 174.025 321.785C173.665 321.615 173.37 321.37 173.14 321.05C172.92 320.73 172.81 320.37 172.81 319.97C172.81 319.3 173.04 318.765 173.5 318.365C173.96 317.955 174.64 317.75 175.54 317.75C175.82 317.75 176.09 317.77 176.35 317.81C176.61 317.84 176.815 317.88 176.965 317.93V319.415C176.835 319.355 176.665 319.31 176.455 319.28C176.255 319.25 176.075 319.235 175.915 319.235C175.145 319.235 174.76 319.52 174.76 320.09C174.76 320.4 174.855 320.63 175.045 320.78C175.235 320.93 175.54 321.005 175.96 321.005H176.965V322.55H175.96C175.11 322.55 174.685 322.895 174.685 323.585C174.685 323.945 174.86 324.23 175.21 324.44C175.57 324.64 176.06 324.74 176.68 324.74C177.46 324.74 178.03 324.58 178.39 324.26C178.76 323.94 178.945 323.47 178.945 322.85V317.96H180.85V322.82C180.85 323.39 180.71 323.935 180.43 324.455C180.16 324.965 179.71 325.39 179.08 325.73C178.46 326.06 177.66 326.225 176.68 326.225ZM186.154 326.225C185.414 326.225 184.764 326.1 184.204 325.85C183.644 325.59 183.209 325.235 182.899 324.785C182.589 324.325 182.434 323.805 182.434 323.225V322.85C182.434 322.5 182.509 322.175 182.659 321.875C182.809 321.575 183.014 321.24 183.274 320.87C183.454 320.6 183.579 320.405 183.649 320.285C183.719 320.165 183.754 320.045 183.754 319.925C183.754 319.625 183.569 319.475 183.199 319.475H182.344V317.975H184.204C184.654 317.975 185.009 318.105 185.269 318.365C185.539 318.615 185.674 318.955 185.674 319.385C185.674 319.685 185.614 319.96 185.494 320.21C185.384 320.46 185.219 320.765 184.999 321.125C184.779 321.485 184.614 321.785 184.504 322.025C184.394 322.255 184.339 322.505 184.339 322.775V323.15C184.339 323.65 184.494 324.04 184.804 324.32C185.124 324.6 185.574 324.74 186.154 324.74C186.764 324.74 187.229 324.575 187.549 324.245C187.879 323.905 188.044 323.41 188.044 322.76C188.044 321.45 187.509 320.795 186.439 320.795V319.79L187.969 317.75H190.009L188.344 319.97C188.914 320.24 189.324 320.6 189.574 321.05C189.824 321.5 189.949 322.07 189.949 322.76C189.949 323.43 189.794 324.03 189.484 324.56C189.174 325.08 188.729 325.49 188.149 325.79C187.579 326.08 186.914 326.225 186.154 326.225ZM183.046 315.665H185.956V314.045H187.291V315.665H188.431V314.045H189.751V316.88H183.046V315.665ZM188.026 311.51H189.736V313.565H188.026V311.51ZM194.641 326.225C194.001 326.225 193.371 326.155 192.751 326.015C192.131 325.875 191.616 325.68 191.206 325.43V321.23H194.806V322.775H193.111V324.44C193.481 324.64 193.991 324.74 194.641 324.74C195.521 324.74 196.186 324.5 196.636 324.02C197.086 323.54 197.311 322.84 197.311 321.92C197.311 321.29 197.211 320.78 197.011 320.39C196.811 320 196.481 319.71 196.021 319.52C195.561 319.33 194.941 319.235 194.161 319.235C193.651 319.235 193.131 319.29 192.601 319.4C192.081 319.5 191.646 319.65 191.296 319.85V318.365C191.696 318.165 192.171 318.015 192.721 317.915C193.281 317.805 193.871 317.75 194.491 317.75C196.011 317.75 197.186 318.115 198.016 318.845C198.846 319.565 199.261 320.59 199.261 321.92C199.261 323.25 198.861 324.3 198.061 325.07C197.271 325.84 196.131 326.225 194.641 326.225ZM204.409 326.225C203.199 326.225 202.239 325.885 201.529 325.205C200.819 324.515 200.464 323.51 200.464 322.19C200.464 321.29 200.594 320.505 200.854 319.835C201.114 319.165 201.474 318.65 201.934 318.29C202.394 317.93 202.909 317.75 203.479 317.75C204.219 317.75 204.759 318.035 205.099 318.605C205.289 318.305 205.559 318.09 205.909 317.96C206.259 317.82 206.644 317.75 207.064 317.75C207.784 317.75 208.329 317.98 208.699 318.44C209.069 318.89 209.254 319.495 209.254 320.255V326H207.349V320.39C207.349 319.99 207.289 319.7 207.169 319.52C207.049 319.33 206.844 319.235 206.554 319.235C206.054 319.235 205.749 319.525 205.639 320.105H204.574C204.514 319.525 204.254 319.235 203.794 319.235C203.384 319.235 203.049 319.49 202.789 320C202.539 320.5 202.414 321.23 202.414 322.19C202.414 323.89 203.189 324.74 204.739 324.74C205.109 324.74 205.454 324.69 205.774 324.59V326.045C205.384 326.165 204.929 326.225 204.409 326.225ZM202.542 315.665H209.247V316.88H202.542V315.665ZM214.692 326.225C213.472 326.225 212.507 325.885 211.797 325.205C211.097 324.515 210.747 323.51 210.747 322.19C210.747 321.27 210.927 320.48 211.287 319.82C211.657 319.15 212.182 318.64 212.862 318.29C213.552 317.93 214.362 317.75 215.292 317.75C216.762 317.75 217.837 318.09 218.517 318.77C219.197 319.45 219.537 320.335 219.537 321.425V326H217.632V321.41C217.632 320.71 217.447 320.175 217.077 319.805C216.717 319.425 216.122 319.235 215.292 319.235C214.492 319.235 213.857 319.495 213.387 320.015C212.927 320.525 212.697 321.25 212.697 322.19C212.697 323.05 212.897 323.69 213.297 324.11C213.697 324.53 214.272 324.74 215.022 324.74C215.392 324.74 215.737 324.69 216.057 324.59V326.045C215.667 326.165 215.212 326.225 214.692 326.225ZM224.976 326.225C223.766 326.225 222.806 325.885 222.096 325.205C221.386 324.515 221.031 323.51 221.031 322.19C221.031 321.29 221.161 320.505 221.421 319.835C221.681 319.165 222.041 318.65 222.501 318.29C222.961 317.93 223.476 317.75 224.046 317.75C224.786 317.75 225.326 318.035 225.666 318.605C225.856 318.305 226.126 318.09 226.476 317.96C226.826 317.82 227.211 317.75 227.631 317.75C228.351 317.75 228.896 317.98 229.266 318.44C229.636 318.89 229.821 319.495 229.821 320.255V326H227.916V320.39C227.916 319.99 227.856 319.7 227.736 319.52C227.616 319.33 227.411 319.235 227.121 319.235C226.621 319.235 226.316 319.525 226.206 320.105H225.141C225.081 319.525 224.821 319.235 224.361 319.235C223.951 319.235 223.616 319.49 223.356 320C223.106 320.5 222.981 321.23 222.981 322.19C222.981 323.89 223.756 324.74 225.306 324.74C225.676 324.74 226.021 324.69 226.341 324.59V326.045C225.951 326.165 225.496 326.225 224.976 326.225ZM227.924 314.3H229.829V316.88H227.924V314.3ZM234.749 326.225C234.109 326.225 233.479 326.155 232.859 326.015C232.239 325.875 231.724 325.68 231.314 325.43V321.23H234.914V322.775H233.219V324.44C233.589 324.64 234.099 324.74 234.749 324.74C235.629 324.74 236.294 324.5 236.744 324.02C237.194 323.54 237.419 322.84 237.419 321.92C237.419 321.29 237.319 320.78 237.119 320.39C236.919 320 236.589 319.71 236.129 319.52C235.669 319.33 235.049 319.235 234.269 319.235C233.759 319.235 233.239 319.29 232.709 319.4C232.189 319.5 231.754 319.65 231.404 319.85V318.365C231.804 318.165 232.279 318.015 232.829 317.915C233.389 317.805 233.979 317.75 234.599 317.75C236.119 317.75 237.294 318.115 238.124 318.845C238.954 319.565 239.369 320.59 239.369 321.92C239.369 323.25 238.969 324.3 238.169 325.07C237.379 325.84 236.239 326.225 234.749 326.225ZM243.992 326.225C243.342 326.225 242.782 326.095 242.312 325.835C241.842 325.565 241.482 325.2 241.232 324.74C240.992 324.27 240.872 323.75 240.872 323.18V317.975H242.777V323.09C242.777 324.19 243.362 324.74 244.532 324.74C245.452 324.74 246.172 324.33 246.692 323.51V317.975H248.597V326H246.767V325.01C246.387 325.41 245.952 325.715 245.462 325.925C244.982 326.125 244.492 326.225 243.992 326.225ZM241.918 315.665H246.913V314.045H248.623V316.88H241.918V315.665ZM245.863 312.68C245.863 312.57 245.843 312.495 245.803 312.455C245.763 312.405 245.683 312.38 245.563 312.38H244.933V311.135H246.148C246.758 311.135 247.063 311.4 247.063 311.93V312.365H249.643V313.505H245.863V312.68ZM251.878 322.52C251.878 321.93 251.988 321.435 252.208 321.035C252.428 320.635 252.788 320.255 253.288 319.895L253.678 319.625C254.098 319.335 254.393 319.095 254.563 318.905C254.743 318.715 254.833 318.46 254.833 318.14C254.833 317.73 254.673 317.41 254.353 317.18C254.043 316.95 253.568 316.835 252.928 316.835C252.448 316.835 251.958 316.89 251.458 317C250.958 317.11 250.503 317.26 250.093 317.45V315.875C250.483 315.705 250.928 315.565 251.428 315.455C251.928 315.345 252.428 315.29 252.928 315.29C254.088 315.29 255.003 315.54 255.673 316.04C256.353 316.54 256.693 317.24 256.693 318.14C256.693 318.51 256.623 318.83 256.483 319.1C256.353 319.36 256.183 319.585 255.973 319.775C255.773 319.965 255.463 320.22 255.043 320.54C254.613 320.87 254.318 321.11 254.158 321.26C254.008 321.4 253.893 321.565 253.813 321.755C253.733 321.945 253.693 322.205 253.693 322.535V322.865H251.878V322.52ZM252.763 326.225C252.463 326.225 252.208 326.125 251.998 325.925C251.798 325.715 251.698 325.465 251.698 325.175C251.698 324.875 251.798 324.625 251.998 324.425C252.208 324.225 252.463 324.125 252.763 324.125C253.063 324.125 253.313 324.225 253.513 324.425C253.723 324.625 253.828 324.875 253.828 325.175C253.828 325.465 253.723 325.715 253.513 325.925C253.303 326.125 253.053 326.225 252.763 326.225Z" fill="black"/>
<rect x="90" y="345" width="217" height="44" rx="22" fill="#FF494C"/>
<path d="M176.728 372.24C175.747 372.24 174.963 371.995 174.376 371.504C173.8 371.013 173.512 370.32 173.512 369.424C173.512 368.528 173.827 367.824 174.456 367.312C175.096 366.8 175.971 366.544 177.08 366.544C178.115 366.544 179 366.715 179.736 367.056V366.72C179.736 366.144 179.544 365.717 179.16 365.44C178.787 365.163 178.179 365.024 177.336 365.024C176.813 365.024 176.301 365.077 175.8 365.184C175.299 365.291 174.851 365.44 174.456 365.632V363.808C174.808 363.637 175.293 363.493 175.912 363.376C176.531 363.259 177.155 363.2 177.784 363.2C179.213 363.2 180.296 363.52 181.032 364.16C181.779 364.789 182.152 365.637 182.152 366.704V372H179.736V368.816C179.117 368.496 178.392 368.336 177.56 368.336C177.016 368.336 176.616 368.427 176.36 368.608C176.115 368.789 175.992 369.072 175.992 369.456C175.992 369.808 176.104 370.075 176.328 370.256C176.563 370.427 176.931 370.512 177.432 370.512C177.784 370.512 178.083 370.459 178.328 370.352V372.032C177.912 372.171 177.379 372.24 176.728 372.24ZM188.232 372.24C187.347 372.24 186.574 372.085 185.912 371.776C185.251 371.456 184.739 371.019 184.376 370.464C184.014 369.909 183.832 369.28 183.832 368.576V363.44H186.264V368.416C186.264 369.035 186.424 369.515 186.744 369.856C187.075 370.187 187.571 370.352 188.232 370.352C188.894 370.352 189.384 370.187 189.704 369.856C190.024 369.515 190.184 369.035 190.184 368.416V363.44H192.616V368.576C192.616 369.28 192.435 369.909 192.072 370.464C191.71 371.019 191.198 371.456 190.536 371.776C189.875 372.085 189.107 372.24 188.232 372.24ZM197.79 372.24C197.075 372.24 196.371 372.165 195.678 372.016C194.984 371.877 194.408 371.68 193.95 371.424V366.928H197.998V368.704H196.334V370.08C196.664 370.261 197.15 370.352 197.79 370.352C199.486 370.352 200.334 369.467 200.334 367.696C200.334 366.789 200.088 366.128 199.598 365.712C199.107 365.296 198.28 365.088 197.118 365.088C196.584 365.088 196.035 365.147 195.47 365.264C194.915 365.371 194.446 365.525 194.062 365.728V363.84C194.499 363.637 195.027 363.483 195.646 363.376C196.264 363.259 196.91 363.2 197.582 363.2C199.299 363.2 200.6 363.595 201.486 364.384C202.382 365.163 202.83 366.267 202.83 367.696C202.83 369.104 202.392 370.213 201.517 371.024C200.643 371.835 199.4 372.24 197.79 372.24ZM207.696 372.24C206.981 372.24 206.277 372.165 205.584 372.016C204.89 371.877 204.314 371.68 203.856 371.424V366.928H207.904V368.704H206.24V370.08C206.57 370.261 207.056 370.352 207.696 370.352C209.392 370.352 210.24 369.467 210.24 367.696C210.24 366.789 209.994 366.128 209.504 365.712C209.013 365.296 208.186 365.088 207.024 365.088C206.49 365.088 205.941 365.147 205.376 365.264C204.821 365.371 204.352 365.525 203.968 365.728V363.84C204.405 363.637 204.933 363.483 205.552 363.376C206.17 363.259 206.816 363.2 207.488 363.2C209.205 363.2 210.506 363.595 211.392 364.384C212.288 365.163 212.736 366.267 212.736 367.696C212.736 369.104 212.298 370.213 211.424 371.024C210.549 371.835 209.306 372.24 207.696 372.24ZM214.53 366.896L213.73 365.536C214.978 363.979 216.583 363.2 218.546 363.2C219.922 363.2 220.978 363.504 221.714 364.112C222.461 364.72 222.834 365.568 222.834 366.656V372H220.402V366.848C220.402 365.675 219.783 365.088 218.546 365.088C218.087 365.088 217.677 365.152 217.314 365.28C216.962 365.408 216.631 365.616 216.322 365.904L216.946 366.928V372H214.53V366.896Z" fill="white"/>
<rect x="90" y="404" width="217" height="44" rx="22" fill="#EFEFEF"/>
<path d="M179.912 431.24C178.579 431.24 177.512 431 176.712 430.52C175.912 430.029 175.512 429.331 175.512 428.424C175.512 428.008 175.624 427.635 175.848 427.304C176.083 426.963 176.392 426.717 176.776 426.568C176.424 426.387 176.136 426.125 175.912 425.784C175.699 425.443 175.592 425.069 175.592 424.664C175.592 423.917 175.853 423.32 176.376 422.872C176.909 422.424 177.677 422.2 178.68 422.2C178.989 422.2 179.293 422.221 179.592 422.264C179.901 422.307 180.136 422.355 180.296 422.408V424.232C180.147 424.168 179.965 424.115 179.752 424.072C179.549 424.029 179.363 424.008 179.192 424.008C178.445 424.008 178.072 424.285 178.072 424.84C178.072 425.128 178.163 425.347 178.344 425.496C178.536 425.635 178.829 425.704 179.224 425.704H180.296V427.416H179.224C178.413 427.416 178.008 427.736 178.008 428.376C178.008 428.717 178.168 428.984 178.488 429.176C178.819 429.357 179.293 429.448 179.912 429.448C180.659 429.448 181.203 429.299 181.544 429C181.896 428.691 182.072 428.232 182.072 427.624V422.424H184.504V427.608C184.504 428.216 184.349 428.797 184.04 429.352C183.731 429.896 183.235 430.349 182.552 430.712C181.869 431.064 180.989 431.24 179.912 431.24ZM186.624 425.896L185.824 424.536C187.072 422.979 188.677 422.2 190.64 422.2C192.016 422.2 193.072 422.504 193.808 423.112C194.554 423.72 194.928 424.568 194.928 425.656V431H192.496V425.848C192.496 424.675 191.877 424.088 190.64 424.088C190.181 424.088 189.77 424.152 189.408 424.28C189.056 424.408 188.725 424.616 188.416 424.904L189.04 425.928V431H186.624V425.896ZM198.422 431C197.835 431 197.382 430.835 197.062 430.504C196.752 430.163 196.598 429.693 196.598 429.096V422.44H199.03V428.44C199.03 428.696 199.083 428.877 199.19 428.984C199.296 429.091 199.472 429.144 199.718 429.144H200.278V431H198.422ZM204.478 431.24C203.497 431.24 202.713 430.995 202.126 430.504C201.55 430.013 201.262 429.32 201.262 428.424C201.262 427.528 201.577 426.824 202.206 426.312C202.846 425.8 203.721 425.544 204.83 425.544C205.865 425.544 206.75 425.715 207.486 426.056V425.72C207.486 425.144 207.294 424.717 206.91 424.44C206.537 424.163 205.929 424.024 205.086 424.024C204.563 424.024 204.051 424.077 203.55 424.184C203.049 424.291 202.601 424.44 202.206 424.632V422.808C202.558 422.637 203.043 422.493 203.662 422.376C204.281 422.259 204.905 422.2 205.534 422.2C206.963 422.2 208.046 422.52 208.782 423.16C209.529 423.789 209.902 424.637 209.902 425.704V431H207.486V427.816C206.867 427.496 206.142 427.336 205.31 427.336C204.766 427.336 204.366 427.427 204.11 427.608C203.865 427.789 203.742 428.072 203.742 428.456C203.742 428.808 203.854 429.075 204.078 429.256C204.313 429.427 204.681 429.512 205.182 429.512C205.534 429.512 205.833 429.459 206.078 429.352V431.032C205.662 431.171 205.129 431.24 204.478 431.24ZM202.478 419.848H209.886V421.384H202.478V419.848ZM212.014 425.896L211.214 424.536C212.462 422.979 214.068 422.2 216.03 422.2C217.406 422.2 218.462 422.504 219.198 423.112C219.945 423.72 220.318 424.568 220.318 425.656V431H217.886V425.848C217.886 424.675 217.268 424.088 216.03 424.088C215.572 424.088 215.161 424.152 214.798 424.28C214.446 424.408 214.116 424.616 213.806 424.904L214.43 425.928V431H212.014V425.896Z" fill="black"/>
</svg>
