<svg width="390" height="849" viewBox="0 0 390 849" fill="none" xmlns="http://www.w3.org/2000/svg">
<rect y="5" width="390" height="844" rx="32" fill="white"/>
<rect x="33" y="249" width="330" height="67" rx="10" fill="#F5F3F3"/>
<rect x="33" y="324" width="330" height="40" rx="10" fill="#F5F3F3"/>
<rect x="33" y="372" width="330" height="40" rx="10" fill="#F5F3F3"/>
<rect x="33" y="420" width="330" height="40" rx="10" fill="#F5F3F3"/>
<path fill-rule="evenodd" clip-rule="evenodd" d="M121 838.5C121 837.119 122.119 836 123.5 836H266.5C267.881 836 269 837.119 269 838.5C269 839.881 267.881 841 266.5 841H123.5C122.119 841 121 839.881 121 838.5Z" fill="#090A0A"/>
<path d="M54.0688 36V26.1304H53.9194L50.9395 28.2305V26.2217L54.0688 24.022H56.2021V36H54.0688ZM63.4219 36.2988C62.4701 36.2988 61.6538 36.0443 60.9731 35.5352C60.298 35.026 59.7778 34.3011 59.4126 33.3604C59.0474 32.4196 58.8647 31.3045 58.8647 30.0151V29.9985C58.8647 28.7091 59.0474 27.5968 59.4126 26.6616C59.7778 25.7209 60.298 24.9959 60.9731 24.4868C61.6538 23.9777 62.4701 23.7231 63.4219 23.7231C64.3737 23.7231 65.1899 23.9777 65.8706 24.4868C66.5513 24.9959 67.0742 25.7209 67.4395 26.6616C67.8047 27.5968 67.9873 28.7091 67.9873 29.9985V30.0151C67.9873 31.3045 67.8047 32.4196 67.4395 33.3604C67.0742 34.3011 66.5513 35.026 65.8706 35.5352C65.1899 36.0443 64.3737 36.2988 63.4219 36.2988ZM63.4219 34.564C63.931 34.564 64.3654 34.3813 64.7251 34.0161C65.0848 33.6509 65.3587 33.1307 65.5469 32.4556C65.7406 31.7749 65.8374 30.9614 65.8374 30.0151V29.9985C65.8374 29.0522 65.7406 28.2415 65.5469 27.5664C65.3587 26.8857 65.0848 26.3656 64.7251 26.0059C64.3654 25.6406 63.931 25.458 63.4219 25.458C62.9128 25.458 62.4784 25.6406 62.1187 26.0059C61.7645 26.3656 61.4906 26.8857 61.2969 27.5664C61.1087 28.2415 61.0146 29.0522 61.0146 29.9985V30.0151C61.0146 30.9614 61.1087 31.7749 61.2969 32.4556C61.4906 33.1307 61.7645 33.6509 62.1187 34.0161C62.4784 34.3813 62.9128 34.564 63.4219 34.564ZM71.2974 34.3896C70.9211 34.3896 70.6056 34.2651 70.3511 34.0161C70.1021 33.7616 69.9775 33.4517 69.9775 33.0864C69.9775 32.7157 70.1021 32.4058 70.3511 32.1567C70.6056 31.9022 70.9211 31.7749 71.2974 31.7749C71.6792 31.7749 71.9946 31.9022 72.2437 32.1567C72.4927 32.4058 72.6172 32.7157 72.6172 33.0864C72.6172 33.4517 72.4927 33.7616 72.2437 34.0161C71.9946 34.2651 71.6792 34.3896 71.2974 34.3896ZM71.2974 28.2305C70.9211 28.2305 70.6056 28.106 70.3511 27.8569C70.1021 27.6024 69.9775 27.2925 69.9775 26.9272C69.9775 26.5565 70.1021 26.2466 70.3511 25.9976C70.6056 25.743 70.9211 25.6157 71.2974 25.6157C71.6792 25.6157 71.9946 25.743 72.2437 25.9976C72.4927 26.2466 72.6172 26.5565 72.6172 26.9272C72.6172 27.2925 72.4927 27.6024 72.2437 27.8569C71.9946 28.106 71.6792 28.2305 71.2974 28.2305ZM79.1562 36.2988C78.2044 36.2988 77.3882 36.0443 76.7075 35.5352C76.0324 35.026 75.5122 34.3011 75.147 33.3604C74.7817 32.4196 74.5991 31.3045 74.5991 30.0151V29.9985C74.5991 28.7091 74.7817 27.5968 75.147 26.6616C75.5122 25.7209 76.0324 24.9959 76.7075 24.4868C77.3882 23.9777 78.2044 23.7231 79.1562 23.7231C80.1081 23.7231 80.9243 23.9777 81.605 24.4868C82.2856 24.9959 82.8086 25.7209 83.1738 26.6616C83.5391 27.5968 83.7217 28.7091 83.7217 29.9985V30.0151C83.7217 31.3045 83.5391 32.4196 83.1738 33.3604C82.8086 34.3011 82.2856 35.026 81.605 35.5352C80.9243 36.0443 80.1081 36.2988 79.1562 36.2988ZM79.1562 34.564C79.6654 34.564 80.0998 34.3813 80.4595 34.0161C80.8192 33.6509 81.0931 33.1307 81.2812 32.4556C81.4749 31.7749 81.5718 30.9614 81.5718 30.0151V29.9985C81.5718 29.0522 81.4749 28.2415 81.2812 27.5664C81.0931 26.8857 80.8192 26.3656 80.4595 26.0059C80.0998 25.6406 79.6654 25.458 79.1562 25.458C78.6471 25.458 78.2127 25.6406 77.853 26.0059C77.4989 26.3656 77.2249 26.8857 77.0312 27.5664C76.8431 28.2415 76.749 29.0522 76.749 29.9985V30.0151C76.749 30.9614 76.8431 31.7749 77.0312 32.4556C77.2249 33.1307 77.4989 33.6509 77.853 34.0161C78.2127 34.3813 78.6471 34.564 79.1562 34.564ZM89.9619 36.2988C89.0101 36.2988 88.1938 36.0443 87.5132 35.5352C86.8381 35.026 86.3179 34.3011 85.9526 33.3604C85.5874 32.4196 85.4048 31.3045 85.4048 30.0151V29.9985C85.4048 28.7091 85.5874 27.5968 85.9526 26.6616C86.3179 25.7209 86.8381 24.9959 87.5132 24.4868C88.1938 23.9777 89.0101 23.7231 89.9619 23.7231C90.9137 23.7231 91.73 23.9777 92.4106 24.4868C93.0913 24.9959 93.6143 25.7209 93.9795 26.6616C94.3447 27.5968 94.5273 28.7091 94.5273 29.9985V30.0151C94.5273 31.3045 94.3447 32.4196 93.9795 33.3604C93.6143 34.3011 93.0913 35.026 92.4106 35.5352C91.73 36.0443 90.9137 36.2988 89.9619 36.2988ZM89.9619 34.564C90.471 34.564 90.9054 34.3813 91.2651 34.0161C91.6248 33.6509 91.8988 33.1307 92.0869 32.4556C92.2806 31.7749 92.3774 30.9614 92.3774 30.0151V29.9985C92.3774 29.0522 92.2806 28.2415 92.0869 27.5664C91.8988 26.8857 91.6248 26.3656 91.2651 26.0059C90.9054 25.6406 90.471 25.458 89.9619 25.458C89.4528 25.458 89.0184 25.6406 88.6587 26.0059C88.3045 26.3656 88.0306 26.8857 87.8369 27.5664C87.6488 28.2415 87.5547 29.0522 87.5547 29.9985V30.0151C87.5547 30.9614 87.6488 31.7749 87.8369 32.4556C88.0306 33.1307 88.3045 33.6509 88.6587 34.0161C89.0184 34.3813 89.4528 34.564 89.9619 34.564Z" fill="black"/>
<path d="M288.333 31C288.977 31 289.5 31.5037 289.5 32.125V34.375C289.5 34.9963 288.977 35.5 288.333 35.5H287.167C286.523 35.5 286 34.9963 286 34.375V32.125C286 31.5037 286.523 31 287.167 31H288.333ZM293.823 28.75C294.468 28.75 294.99 29.2537 294.99 29.875V34.375C294.99 34.9963 294.468 35.5 293.823 35.5H292.657C292.013 35.5 291.49 34.9963 291.49 34.375V29.875C291.49 29.2537 292.013 28.75 292.657 28.75H293.823ZM299.313 26.125C299.958 26.125 300.48 26.6287 300.48 27.25V34.375C300.48 34.9963 299.958 35.5 299.313 35.5H298.147C297.503 35.5 296.98 34.9963 296.98 34.375V27.25C296.981 26.6287 297.503 26.125 298.147 26.125H299.313ZM304.804 23.5C305.448 23.5 305.971 24.0037 305.971 24.625V34.375C305.971 34.9963 305.448 35.5 304.804 35.5H303.638C302.993 35.5 302.471 34.9963 302.471 34.375V24.625C302.471 24.0037 302.993 23.5 303.638 23.5H304.804Z" fill="black"/>
<path d="M318.512 32.8262C319.932 31.5964 322.011 31.5964 323.431 32.8262C323.502 32.8924 323.544 32.9855 323.546 33.084C323.548 33.1826 323.51 33.2777 323.441 33.3467L321.218 35.6446C321.153 35.7121 321.063 35.7501 320.971 35.7501C320.878 35.7499 320.79 35.7119 320.725 35.6446L318.501 33.3467C318.432 33.2776 318.394 33.1826 318.396 33.084C318.399 32.9855 318.44 32.8923 318.512 32.8262ZM315.545 29.7608C318.604 26.8467 323.341 26.8467 326.4 29.7608C326.469 29.829 326.509 29.9225 326.51 30.0206C326.511 30.1188 326.473 30.2135 326.405 30.2833L325.12 31.6133C324.988 31.7491 324.774 31.7524 324.638 31.6202C323.633 30.6886 322.326 30.1728 320.971 30.1729C319.617 30.1736 318.311 30.6895 317.308 31.6202C317.172 31.7524 316.958 31.7491 316.825 31.6133L315.54 30.2833C315.472 30.2136 315.435 30.1189 315.436 30.0206C315.437 29.9224 315.476 29.829 315.545 29.7608ZM312.578 26.7032C317.27 22.0989 324.671 22.099 329.363 26.7032C329.431 26.7716 329.47 26.8654 329.471 26.963C329.471 27.0605 329.433 27.1545 329.366 27.2237L328.08 28.5538C327.947 28.6901 327.732 28.691 327.598 28.5567C325.81 26.8164 323.437 25.8459 320.971 25.8458C318.504 25.8459 316.131 26.8163 314.344 28.5567C314.209 28.6913 313.994 28.6904 313.861 28.5538L312.574 27.2237C312.507 27.1545 312.47 27.0605 312.471 26.963C312.471 26.8654 312.51 26.7715 312.578 26.7032Z" fill="black"/>
<rect opacity="0.4" x="336.471" y="23.5" width="24" height="12" rx="3.5" stroke="black"/>
<path opacity="0.5" d="M361.971 27.5V31.5C362.777 31.1612 363.301 30.3731 363.301 29.5C363.301 28.6269 362.777 27.8388 361.971 27.5Z" fill="black"/>
<rect x="337.971" y="25" width="17" height="9" rx="2" fill="black"/>
<path d="M42.8095 99.5268C42.068 100.323 40.8068 100.323 40.0652 99.5268L28.2697 86.8632C27.5544 86.0952 27.5544 84.9048 28.2697 84.1368L40.0652 71.4732C40.8068 70.677 42.068 70.677 42.8095 71.4732C43.4802 72.1932 43.4802 73.3093 42.8095 74.0293L33.395 84.1368C32.6796 84.9048 32.6796 86.0952 33.395 86.8632L42.8095 96.9707C43.4802 97.6907 43.4802 98.8068 42.8095 99.5268Z" fill="#535353"/>
<path d="M166.22 93C165.487 93 164.92 92.7933 164.52 92.38C164.133 91.9533 163.94 91.3667 163.94 90.62V83.44C163.94 82.5333 163.767 81.8267 163.42 81.32C163.073 80.8 162.513 80.3933 161.74 80.1V77.96H168.88V80.3H165.66C166.54 80.98 166.98 82.0467 166.98 83.5V89.8C166.98 90.12 167.047 90.3467 167.18 90.48C167.313 90.6133 167.533 90.68 167.84 90.68H168.54V93H166.22ZM175.454 93.3C174.347 93.3 173.381 93.1067 172.554 92.72C171.727 92.32 171.087 91.7733 170.634 91.08C170.181 90.3867 169.954 89.6 169.954 88.72V82.3H172.994V88.52C172.994 89.2933 173.194 89.8933 173.594 90.32C174.007 90.7333 174.627 90.94 175.454 90.94C176.281 90.94 176.894 90.7333 177.294 90.32C177.694 89.8933 177.894 89.2933 177.894 88.52V78.72H180.934V88.72C180.934 89.6 180.707 90.3867 180.254 91.08C179.801 91.7733 179.161 92.32 178.334 92.72C177.507 93.1067 176.547 93.3 175.454 93.3ZM187.02 93.3C186.234 93.3 185.434 93.22 184.62 93.06C183.82 92.9133 183.187 92.6867 182.72 92.38V90.06C183.307 90.4067 183.96 90.6733 184.68 90.86C185.414 91.0467 186.074 91.14 186.66 91.14C187.367 91.14 187.88 91.0733 188.2 90.94C188.534 90.7933 188.7 90.54 188.7 90.18C188.7 89.86 188.54 89.6133 188.22 89.44C187.914 89.2667 187.334 89.0467 186.48 88.78L185.98 88.62C184.834 88.26 183.987 87.8267 183.44 87.32C182.894 86.8133 182.62 86.12 182.62 85.24C182.62 84.2133 183.034 83.42 183.86 82.86C184.687 82.2867 185.8 82 187.2 82C187.96 82 188.694 82.08 189.4 82.24C190.107 82.4 190.674 82.6067 191.1 82.86V85.24C190.674 84.9467 190.14 84.7133 189.5 84.54C188.874 84.3533 188.254 84.26 187.64 84.26C186.347 84.26 185.7 84.5867 185.7 85.24C185.7 85.56 185.854 85.8067 186.16 85.98C186.467 86.1533 187.014 86.36 187.8 86.6L188.52 86.82C189.36 87.0867 190.014 87.38 190.48 87.7C190.96 88.02 191.294 88.38 191.48 88.78C191.667 89.18 191.76 89.6667 191.76 90.24C191.76 91.16 191.36 91.9 190.56 92.46C189.774 93.02 188.594 93.3 187.02 93.3ZM196.35 93C195.617 93 195.05 92.7933 194.65 92.38C194.263 91.9533 194.07 91.3667 194.07 90.62V83.72C194.07 82.1467 194.53 81.0067 195.45 80.3H192.15V77.96H199.29V80.1C198.517 80.4067 197.957 80.84 197.61 81.4C197.263 81.96 197.09 82.7133 197.09 83.66V89.8C197.09 90.12 197.157 90.3467 197.29 90.48C197.423 90.6133 197.65 90.68 197.97 90.68H198.67V93H196.35ZM199.764 82.3H202.804L204.304 88.84L206.144 82.3H208.344L210.184 88.84L212.284 78.72H215.224L211.744 93H209.164L207.244 86.34L205.324 93H202.744L199.764 82.3ZM219.316 93.3C218.09 93.3 217.11 92.9933 216.376 92.38C215.656 91.7667 215.296 90.9 215.296 89.78C215.296 88.66 215.69 87.78 216.476 87.14C217.276 86.5 218.37 86.18 219.756 86.18C221.05 86.18 222.156 86.3933 223.076 86.82V86.4C223.076 85.68 222.836 85.1467 222.356 84.8C221.89 84.4533 221.13 84.28 220.076 84.28C219.423 84.28 218.783 84.3467 218.156 84.48C217.53 84.6133 216.97 84.8 216.476 85.04V82.76C216.916 82.5467 217.523 82.3667 218.296 82.22C219.07 82.0733 219.85 82 220.636 82C222.423 82 223.776 82.4 224.696 83.2C225.63 83.9867 226.096 85.0467 226.096 86.38V93H223.076V89.02C222.303 88.62 221.396 88.42 220.356 88.42C219.676 88.42 219.176 88.5333 218.856 88.76C218.55 88.9867 218.396 89.34 218.396 89.82C218.396 90.26 218.536 90.5933 218.816 90.82C219.11 91.0333 219.57 91.14 220.196 91.14C220.636 91.14 221.01 91.0733 221.316 90.94V93.04C220.796 93.2133 220.13 93.3 219.316 93.3ZM220.677 79.46C220.677 78.8733 220.837 78.4333 221.157 78.14C221.463 77.8467 221.957 77.7 222.637 77.7H227.137V79.6H223.937C223.737 79.6 223.597 79.6467 223.517 79.74C223.423 79.82 223.377 79.96 223.377 80.16V80.98H220.677V79.46Z" fill="black"/>
<path d="M179.257 195.288C182.055 193.148 185.182 191.461 188.638 190.227C192.094 188.992 195.715 188.375 199.501 188.375C203.286 188.375 206.907 188.992 210.363 190.227C213.819 191.461 216.946 193.148 219.744 195.288C221.665 193.038 223.16 190.487 224.229 187.635C225.299 184.782 225.834 181.737 225.834 178.5C225.834 171.204 223.269 164.991 218.14 159.861C213.01 154.732 206.797 152.167 199.501 152.167C192.204 152.167 185.991 154.732 180.862 159.861C175.732 164.991 173.167 171.204 173.167 178.5C173.167 181.737 173.702 184.782 174.772 187.635C175.842 190.487 177.337 193.038 179.257 195.288ZM199.501 181.792C196.264 181.792 193.535 180.681 191.313 178.459C189.091 176.237 187.98 173.508 187.98 170.271C187.98 167.034 189.091 164.305 191.313 162.083C193.535 159.861 196.264 158.75 199.501 158.75C202.737 158.75 205.467 159.861 207.689 162.083C209.911 164.305 211.021 167.034 211.021 170.271C211.021 173.508 209.911 176.237 207.689 178.459C205.467 180.681 202.737 181.792 199.501 181.792ZM199.501 211.417C194.947 211.417 190.668 210.553 186.663 208.825C182.658 207.097 179.175 204.751 176.212 201.789C173.25 198.826 170.904 195.343 169.176 191.338C167.448 187.333 166.584 183.054 166.584 178.5C166.584 173.947 167.448 169.668 169.176 165.663C170.904 161.658 173.25 158.174 176.212 155.212C179.175 152.249 182.658 149.904 186.663 148.176C190.668 146.448 194.947 145.583 199.501 145.583C204.054 145.583 208.333 146.448 212.338 148.176C216.343 149.904 219.827 152.249 222.789 155.212C225.752 158.174 228.097 161.658 229.825 165.663C231.553 169.668 232.417 173.947 232.417 178.5C232.417 183.054 231.553 187.333 229.825 191.338C228.097 195.343 225.752 198.826 222.789 201.789C219.827 204.751 216.343 207.097 212.338 208.825C208.333 210.553 204.054 211.417 199.501 211.417ZM199.501 204.833C202.408 204.833 205.151 204.408 207.73 203.558C210.308 202.708 212.667 201.487 214.807 199.896C212.667 198.305 210.308 197.084 207.73 196.234C205.151 195.384 202.408 194.958 199.501 194.958C196.593 194.958 193.85 195.384 191.271 196.234C188.693 197.084 186.334 198.305 184.194 199.896C186.334 201.487 188.693 202.708 191.271 203.558C193.85 204.408 196.593 204.833 199.501 204.833ZM199.501 175.208C200.927 175.208 202.107 174.742 203.039 173.81C203.972 172.877 204.438 171.697 204.438 170.271C204.438 168.845 203.972 167.665 203.039 166.732C202.107 165.8 200.927 165.333 199.501 165.333C198.074 165.333 196.895 165.8 195.962 166.732C195.029 167.665 194.563 168.845 194.563 170.271C194.563 171.697 195.029 172.877 195.962 173.81C196.895 174.742 198.074 175.208 199.501 175.208Z" fill="#4E5256"/>
<path d="M48.116 272.21C47.4253 272.21 46.8187 272.093 46.296 271.86C45.7733 271.617 45.3673 271.286 45.078 270.866C44.7887 270.437 44.644 269.951 44.644 269.41V269.06C44.644 268.733 44.714 268.43 44.854 268.15C44.994 267.87 45.1853 267.557 45.428 267.212C45.596 266.96 45.7127 266.778 45.778 266.666C45.8433 266.554 45.876 266.442 45.876 266.33C45.876 266.05 45.7033 265.91 45.358 265.91H44.56V264.51H46.296C46.716 264.51 47.0473 264.631 47.29 264.874C47.542 265.107 47.668 265.425 47.668 265.826C47.668 266.106 47.612 266.363 47.5 266.596C47.3973 266.829 47.2433 267.114 47.038 267.45C46.8327 267.786 46.6787 268.066 46.576 268.29C46.4733 268.505 46.422 268.738 46.422 268.99V269.34C46.422 269.807 46.5667 270.171 46.856 270.432C47.1547 270.693 47.5747 270.824 48.116 270.824C48.6853 270.824 49.1193 270.67 49.418 270.362C49.726 270.045 49.88 269.583 49.88 268.976C49.88 267.753 49.3807 267.142 48.382 267.142V266.204L49.81 264.3H51.714L50.16 266.372C50.692 266.624 51.0747 266.96 51.308 267.38C51.5413 267.8 51.658 268.332 51.658 268.976C51.658 269.601 51.5133 270.161 51.224 270.656C50.9347 271.141 50.5193 271.524 49.978 271.804C49.446 272.075 48.8253 272.21 48.116 272.21ZM45.2155 262.354H47.9315V260.842H49.1775V262.354H50.2415V260.842H51.4735V263.488H45.2155V262.354ZM49.8635 257.476H51.4595V259.394H49.8635V257.476ZM56.0375 272.21C55.4402 272.21 54.8522 272.145 54.2735 272.014C53.6948 271.883 53.2142 271.701 52.8315 271.468V267.548H56.1915V268.99H54.6095V270.544C54.9548 270.731 55.4308 270.824 56.0375 270.824C56.8588 270.824 57.4795 270.6 57.8995 270.152C58.3195 269.704 58.5295 269.051 58.5295 268.192C58.5295 267.604 58.4362 267.128 58.2495 266.764C58.0628 266.4 57.7548 266.129 57.3255 265.952C56.8962 265.775 56.3175 265.686 55.5895 265.686C55.1135 265.686 54.6282 265.737 54.1335 265.84C53.6482 265.933 53.2422 266.073 52.9155 266.26V264.874C53.2888 264.687 53.7322 264.547 54.2455 264.454C54.7682 264.351 55.3188 264.3 55.8975 264.3C57.3162 264.3 58.4128 264.641 59.1875 265.322C59.9622 265.994 60.3495 266.951 60.3495 268.192C60.3495 269.433 59.9762 270.413 59.2295 271.132C58.4922 271.851 57.4282 272.21 56.0375 272.21Z" fill="#4E5256"/>
<path d="M182.826 232C182.401 232 182.071 231.879 181.836 231.637C181.609 231.388 181.495 231.047 181.495 230.614V226.115H183.431V230.152C183.431 230.321 183.464 230.438 183.53 230.504C183.596 230.57 183.71 230.603 183.871 230.603H184.256V232H182.826ZM186.038 232C185.613 232 185.283 231.879 185.048 231.637C184.821 231.388 184.707 231.047 184.707 230.614V226.115H186.643V230.152C186.643 230.321 186.676 230.438 186.742 230.504C186.808 230.57 186.922 230.603 187.083 230.603H187.468V232H186.038ZM188.462 228.568L187.912 227.611C188.807 226.504 189.947 225.95 191.333 225.95C192.309 225.95 193.06 226.166 193.588 226.599C194.116 227.024 194.38 227.615 194.38 228.37V232H192.444V228.524C192.444 227.813 192.074 227.457 191.333 227.457C190.791 227.457 190.343 227.607 189.991 227.908L190.398 228.601V232H188.462V228.568ZM191.513 224.74C191.513 224.667 191.498 224.615 191.469 224.586C191.44 224.549 191.385 224.531 191.304 224.531H190.776V223.233H191.92C192.455 223.233 192.723 223.464 192.723 223.926V224.234H194.901V225.455H191.513V224.74ZM197.024 232C196.599 232 196.269 231.879 196.034 231.637C195.807 231.388 195.693 231.047 195.693 230.614V226.984C195.693 226.133 195.931 225.514 196.408 225.125H194.659V223.728H198.806V224.982C198.388 225.151 198.087 225.396 197.904 225.719C197.721 226.034 197.629 226.449 197.629 226.962V230.152C197.629 230.321 197.662 230.438 197.728 230.504C197.794 230.57 197.908 230.603 198.069 230.603H198.454V232H197.024ZM202.079 232.165C201.456 232.165 200.92 232.073 200.473 231.89C200.026 231.707 199.685 231.454 199.45 231.131C199.215 230.808 199.098 230.442 199.098 230.031V229.745C199.098 229.474 199.146 229.239 199.241 229.041C199.336 228.836 199.472 228.605 199.648 228.348C199.758 228.194 199.839 228.073 199.89 227.985C199.941 227.89 199.967 227.798 199.967 227.71C199.967 227.519 199.853 227.424 199.626 227.424H199.021V226.115H200.836C201.181 226.115 201.452 226.21 201.65 226.401C201.848 226.592 201.947 226.841 201.947 227.149C201.947 227.369 201.907 227.571 201.826 227.754C201.745 227.937 201.628 228.139 201.474 228.359C201.327 228.601 201.217 228.803 201.144 228.964C201.071 229.118 201.034 229.294 201.034 229.492V229.69C201.034 230.005 201.122 230.247 201.298 230.416C201.474 230.577 201.734 230.658 202.079 230.658C202.438 230.658 202.699 230.57 202.86 230.394C203.029 230.211 203.113 229.961 203.113 229.646V226.115H205.049V229.525C205.049 230.346 204.796 230.992 204.29 231.461C203.791 231.93 203.054 232.165 202.079 232.165ZM208.34 232.165C207.893 232.165 207.438 232.121 206.976 232.033C206.514 231.952 206.151 231.831 205.887 231.67V230.218C206.202 230.401 206.562 230.548 206.965 230.658C207.376 230.768 207.742 230.823 208.065 230.823C208.402 230.823 208.652 230.794 208.813 230.735C208.974 230.669 209.055 230.559 209.055 230.405C209.055 230.266 208.978 230.156 208.824 230.075C208.67 229.994 208.384 229.888 207.966 229.756L207.625 229.646C207.002 229.441 206.543 229.202 206.25 228.931C205.964 228.652 205.821 228.271 205.821 227.787C205.821 227.2 206.056 226.749 206.525 226.434C206.994 226.111 207.621 225.95 208.406 225.95C208.846 225.95 209.271 225.994 209.682 226.082C210.093 226.17 210.423 226.284 210.672 226.423V227.897C210.437 227.736 210.14 227.604 209.781 227.501C209.429 227.398 209.092 227.347 208.769 227.347C208.124 227.347 207.801 227.494 207.801 227.787C207.801 227.934 207.882 228.047 208.043 228.128C208.212 228.209 208.487 228.304 208.868 228.414L209.286 228.546C209.953 228.751 210.412 229.004 210.661 229.305C210.91 229.598 211.035 229.976 211.035 230.438C211.035 230.959 210.808 231.377 210.353 231.692C209.906 232.007 209.235 232.165 208.34 232.165ZM209.147 235.135C208.561 235.135 208.11 235.021 207.794 234.794C207.472 234.574 207.31 234.277 207.31 233.903V233.716C207.31 233.621 207.296 233.555 207.266 233.518C207.23 233.481 207.167 233.463 207.079 233.463H206.716V232.462H208.102C208.337 232.462 208.498 232.513 208.586 232.616C208.674 232.719 208.718 232.88 208.718 233.1V233.694C208.718 233.804 208.751 233.888 208.817 233.947C208.876 234.013 208.964 234.046 209.081 234.046C209.316 234.046 209.433 233.929 209.433 233.694V232.462H210.841V233.859C210.841 234.233 210.695 234.537 210.401 234.772C210.108 235.014 209.69 235.135 209.147 235.135ZM214.922 232.165C214.299 232.165 213.753 232.059 213.283 231.846C212.814 231.626 212.451 231.322 212.194 230.933C211.938 230.544 211.809 230.104 211.809 229.613V226.115H213.745V229.448C213.745 229.844 213.837 230.145 214.02 230.35C214.211 230.555 214.512 230.658 214.922 230.658C215.707 230.658 216.099 230.255 216.099 229.448V224.146H218.035V229.613C218.035 230.104 217.907 230.544 217.65 230.933C217.394 231.322 217.031 231.626 216.561 231.846C216.092 232.059 215.546 232.165 214.922 232.165Z" fill="#4E5256"/>
<path d="M181 233.1H218.53V233.65H181V233.1Z" fill="#4E5256"/>
<path d="M264.004 286C263.588 286 263.268 285.884 263.044 285.652C262.828 285.412 262.72 285.08 262.72 284.656V279.58H264.244V284.176C264.244 284.384 264.288 284.528 264.376 284.608C264.464 284.688 264.608 284.728 264.808 284.728H265.228V286H264.004ZM267.232 286C266.816 286 266.496 285.884 266.272 285.652C266.056 285.412 265.948 285.08 265.948 284.656V279.58H267.472V284.176C267.472 284.384 267.516 284.528 267.604 284.608C267.692 284.688 267.836 284.728 268.036 284.728H268.456V286H267.232ZM270.018 282.088L269.418 281.092C269.858 280.54 270.362 280.12 270.93 279.832C271.506 279.544 272.17 279.4 272.922 279.4C273.922 279.4 274.686 279.624 275.214 280.072C275.75 280.52 276.018 281.14 276.018 281.932V286H274.494V282.052C274.494 281.556 274.362 281.188 274.098 280.948C273.834 280.708 273.442 280.588 272.922 280.588C272.53 280.588 272.182 280.644 271.878 280.756C271.582 280.868 271.306 281.052 271.05 281.308L271.542 282.1V286H270.018V282.088ZM273.286 277.948C273.286 277.86 273.27 277.796 273.238 277.756C273.198 277.716 273.13 277.696 273.034 277.696H272.482V276.64H273.502C273.774 276.64 273.974 276.708 274.102 276.844C274.23 276.972 274.294 277.132 274.294 277.324V277.708H276.754V278.704H273.286V277.948ZM279.13 286C278.714 286 278.394 285.884 278.17 285.652C277.954 285.412 277.846 285.08 277.846 284.656V280.324C277.846 279.364 278.138 278.672 278.722 278.248H276.682V276.976H280.714V278.164C280.242 278.356 279.898 278.616 279.682 278.944C279.474 279.264 279.37 279.712 279.37 280.288V284.176C279.37 284.384 279.414 284.528 279.502 284.608C279.59 284.688 279.734 284.728 279.934 284.728H280.354V286H279.13ZM284.348 286.18C283.748 286.18 283.224 286.08 282.776 285.88C282.328 285.672 281.984 285.388 281.744 285.028C281.504 284.66 281.384 284.244 281.384 283.78V283.48C281.384 283.2 281.44 282.944 281.552 282.712C281.672 282.48 281.836 282.216 282.044 281.92C282.18 281.728 282.28 281.576 282.344 281.464C282.408 281.352 282.44 281.244 282.44 281.14C282.44 280.9 282.292 280.78 281.996 280.78H281.312V279.58H282.8C283.16 279.58 283.444 279.684 283.652 279.892C283.868 280.092 283.976 280.364 283.976 280.708C283.976 280.948 283.928 281.168 283.832 281.368C283.744 281.568 283.612 281.812 283.436 282.1C283.26 282.388 283.128 282.628 283.04 282.82C282.952 283.004 282.908 283.204 282.908 283.42V283.72C282.908 284.128 283.028 284.444 283.268 284.668C283.508 284.884 283.868 284.992 284.348 284.992C285.284 284.992 285.752 284.548 285.752 283.66V279.58H287.276V283.408C287.276 284.256 287.02 284.932 286.508 285.436C286.004 285.932 285.284 286.18 284.348 286.18ZM291.508 286.18C290.908 286.18 290.384 286.08 289.936 285.88C289.488 285.672 289.144 285.388 288.904 285.028C288.664 284.66 288.544 284.244 288.544 283.78V283.48C288.544 283.2 288.6 282.944 288.712 282.712C288.832 282.48 288.996 282.216 289.204 281.92C289.34 281.728 289.44 281.576 289.504 281.464C289.568 281.352 289.6 281.244 289.6 281.14C289.6 280.9 289.452 280.78 289.156 280.78H288.472V279.58H289.96C290.32 279.58 290.604 279.684 290.812 279.892C291.028 280.092 291.136 280.364 291.136 280.708C291.136 280.948 291.088 281.168 290.992 281.368C290.904 281.568 290.772 281.812 290.596 282.1C290.42 282.388 290.288 282.628 290.2 282.82C290.112 283.004 290.068 283.204 290.068 283.42V283.72C290.068 284.128 290.188 284.444 290.428 284.668C290.668 284.884 291.028 284.992 291.508 284.992C292.444 284.992 292.912 284.548 292.912 283.66V279.58H294.436V283.408C294.436 284.256 294.18 284.932 293.668 285.436C293.164 285.932 292.444 286.18 291.508 286.18ZM291.696 277.948C291.696 277.86 291.68 277.796 291.648 277.756C291.608 277.716 291.54 277.696 291.444 277.696H290.892V276.64H291.912C292.184 276.64 292.384 276.708 292.512 276.844C292.64 276.972 292.704 277.132 292.704 277.324V277.708H295.164V278.704H291.696V277.948ZM298.38 286.18C297.868 286.18 297.364 286.124 296.868 286.012C296.372 285.9 295.96 285.744 295.632 285.544V282.184H298.512V283.42H297.156V284.752C297.452 284.912 297.86 284.992 298.38 284.992C299.084 284.992 299.616 284.8 299.976 284.416C300.336 284.032 300.516 283.472 300.516 282.736C300.516 282.232 300.436 281.824 300.276 281.512C300.116 281.2 299.852 280.968 299.484 280.816C299.116 280.664 298.62 280.588 297.996 280.588C297.588 280.588 297.172 280.632 296.748 280.72C296.332 280.8 295.984 280.92 295.704 281.08V279.892C296.024 279.732 296.404 279.612 296.844 279.532C297.292 279.444 297.764 279.4 298.26 279.4C299.476 279.4 300.416 279.692 301.08 280.276C301.744 280.852 302.076 281.672 302.076 282.736C302.076 283.8 301.756 284.64 301.116 285.256C300.484 285.872 299.572 286.18 298.38 286.18ZM306.963 286.18C306.563 286.18 306.167 286.1 305.775 285.94C305.391 285.772 305.047 285.528 304.743 285.208V286H303.279V279.58H304.803V284.008C305.219 284.664 305.795 284.992 306.531 284.992C307.475 284.992 307.947 284.552 307.947 283.672V279.58H309.459V283.744C309.459 284.2 309.359 284.616 309.159 284.992C308.967 285.36 308.683 285.652 308.307 285.868C307.931 286.076 307.483 286.18 306.963 286.18ZM307.872 289.3C307.328 289.3 306.908 289.188 306.612 288.964C306.308 288.748 306.156 288.456 306.156 288.088V287.872C306.156 287.76 306.14 287.684 306.108 287.644C306.076 287.612 306.008 287.596 305.904 287.596H305.496V286.624H306.708C306.932 286.624 307.088 286.672 307.176 286.768C307.264 286.872 307.308 287.036 307.308 287.26V287.932C307.308 288.252 307.48 288.412 307.824 288.412C308.16 288.412 308.328 288.252 308.328 287.932V286.624H309.48V288.052C309.48 288.42 309.34 288.72 309.06 288.952C308.78 289.184 308.384 289.3 307.872 289.3ZM313.032 286.18C312.32 286.18 311.744 286 311.304 285.64C310.872 285.28 310.656 284.772 310.656 284.116C310.656 283.684 310.764 283.304 310.98 282.976C311.204 282.648 311.516 282.392 311.916 282.208C312.324 282.024 312.8 281.932 313.344 281.932C314.12 281.932 314.792 282.064 315.36 282.328V282.04C315.36 281.544 315.212 281.18 314.916 280.948C314.628 280.708 314.16 280.588 313.512 280.588C313.12 280.588 312.732 280.628 312.348 280.708C311.972 280.788 311.644 280.896 311.364 281.032V279.844C311.62 279.724 311.972 279.62 312.42 279.532C312.876 279.444 313.32 279.4 313.752 279.4C314.792 279.4 315.572 279.636 316.092 280.108C316.612 280.58 316.872 281.212 316.872 282.004V286H315.36V283.528C314.824 283.256 314.212 283.12 313.524 283.12C313.076 283.12 312.74 283.208 312.516 283.384C312.3 283.552 312.192 283.8 312.192 284.128C312.192 284.424 312.292 284.644 312.492 284.788C312.692 284.924 313.008 284.992 313.44 284.992C313.712 284.992 313.948 284.952 314.148 284.872V286.036C313.852 286.132 313.48 286.18 313.032 286.18ZM320.45 286.18C319.738 286.18 319.162 286 318.722 285.64C318.29 285.28 318.074 284.772 318.074 284.116C318.074 283.684 318.182 283.304 318.398 282.976C318.622 282.648 318.934 282.392 319.334 282.208C319.742 282.024 320.218 281.932 320.762 281.932C321.538 281.932 322.21 282.064 322.778 282.328V282.04C322.778 281.544 322.63 281.18 322.334 280.948C322.046 280.708 321.578 280.588 320.93 280.588C320.538 280.588 320.15 280.628 319.766 280.708C319.39 280.788 319.062 280.896 318.782 281.032V279.844C319.038 279.724 319.39 279.62 319.838 279.532C320.294 279.444 320.738 279.4 321.17 279.4C321.818 279.4 322.378 279.5 322.85 279.7L323.378 279.1H325.058L323.822 280.516C324.134 280.868 324.29 281.364 324.29 282.004V286H322.778V283.528C322.242 283.256 321.63 283.12 320.942 283.12C320.494 283.12 320.158 283.208 319.934 283.384C319.718 283.552 319.61 283.8 319.61 284.128C319.61 284.424 319.71 284.644 319.91 284.788C320.11 284.924 320.426 284.992 320.858 284.992C321.13 284.992 321.366 284.952 321.566 284.872V286.036C321.27 286.132 320.898 286.18 320.45 286.18ZM322.78 276.64H324.304V278.704H322.78V276.64ZM328.161 286.18C327.113 286.18 326.317 286.008 325.773 285.664V284.464C326.269 284.816 326.961 284.992 327.849 284.992C328.577 284.992 329.141 284.812 329.541 284.452C329.941 284.084 330.141 283.532 330.141 282.796C330.141 282.06 329.941 281.508 329.541 281.14C329.141 280.772 328.577 280.588 327.849 280.588C327.009 280.588 326.329 280.764 325.809 281.116V279.916C326.361 279.572 327.145 279.4 328.161 279.4C329.265 279.4 330.129 279.7 330.753 280.3C331.385 280.892 331.701 281.724 331.701 282.796C331.701 283.86 331.385 284.692 330.753 285.292C330.121 285.884 329.257 286.18 328.161 286.18ZM335.4 286.18C334.88 286.18 334.432 286.076 334.056 285.868C333.68 285.652 333.392 285.36 333.192 284.992C333 284.616 332.904 284.2 332.904 283.744V279.58H334.428V283.672C334.428 284.552 334.896 284.992 335.832 284.992C336.568 284.992 337.144 284.664 337.56 284.008V279.58H339.084V286H337.62V285.208C337.316 285.528 336.968 285.772 336.576 285.94C336.192 286.1 335.8 286.18 335.4 286.18ZM343.437 286.18C342.469 286.18 341.701 285.908 341.133 285.364C340.565 284.812 340.281 284.008 340.281 282.952C340.281 282.232 340.385 281.604 340.593 281.068C340.801 280.532 341.089 280.12 341.457 279.832C341.825 279.544 342.237 279.4 342.693 279.4C343.285 279.4 343.717 279.628 343.989 280.084C344.141 279.844 344.357 279.672 344.637 279.568C344.917 279.456 345.225 279.4 345.561 279.4C346.137 279.4 346.573 279.584 346.869 279.952C347.165 280.312 347.313 280.796 347.313 281.404V286H345.789V281.512C345.789 281.192 345.741 280.96 345.645 280.816C345.549 280.664 345.385 280.588 345.153 280.588C344.753 280.588 344.509 280.82 344.421 281.284H343.569C343.521 280.82 343.313 280.588 342.945 280.588C342.617 280.588 342.349 280.792 342.141 281.2C341.941 281.6 341.841 282.184 341.841 282.952C341.841 284.312 342.461 284.992 343.701 284.992C343.997 284.992 344.273 284.952 344.529 284.872V286.036C344.217 286.132 343.853 286.18 343.437 286.18ZM344.883 278.704C344.507 278.704 344.235 278.608 344.067 278.416C343.891 278.224 343.803 277.936 343.803 277.552V276.856H345.171V277.408C345.171 277.536 345.195 277.624 345.243 277.672C345.291 277.712 345.379 277.732 345.507 277.732H348.363V278.704H344.883ZM350.895 286.18C349.847 286.18 349.051 286.008 348.507 285.664V284.464C349.003 284.816 349.695 284.992 350.583 284.992C351.311 284.992 351.875 284.812 352.275 284.452C352.675 284.084 352.875 283.532 352.875 282.796C352.875 282.06 352.675 281.508 352.275 281.14C351.875 280.772 351.311 280.588 350.583 280.588C349.743 280.588 349.063 280.764 348.543 281.116V279.916C349.095 279.572 349.879 279.4 350.895 279.4C351.999 279.4 352.863 279.7 353.487 280.3C354.119 280.892 354.435 281.724 354.435 282.796C354.435 283.86 354.119 284.692 353.487 285.292C352.855 285.884 351.991 286.18 350.895 286.18Z" fill="#4E5256"/>
<path d="M262 287.2H354.915V287.8H262V287.2Z" fill="#4E5256"/>
<path d="M288.004 395C287.588 395 287.268 394.884 287.044 394.652C286.828 394.412 286.72 394.08 286.72 393.656V388.58H288.244V393.176C288.244 393.384 288.288 393.528 288.376 393.608C288.464 393.688 288.608 393.728 288.808 393.728H289.228V395H288.004ZM291.232 395C290.816 395 290.496 394.884 290.272 394.652C290.056 394.412 289.948 394.08 289.948 393.656V388.58H291.472V393.176C291.472 393.384 291.516 393.528 291.604 393.608C291.692 393.688 291.836 393.728 292.036 393.728H292.456V395H291.232ZM294.018 391.088L293.418 390.092C293.858 389.54 294.362 389.12 294.93 388.832C295.506 388.544 296.17 388.4 296.922 388.4C297.922 388.4 298.686 388.624 299.214 389.072C299.75 389.52 300.018 390.14 300.018 390.932V395H298.494V391.052C298.494 390.556 298.362 390.188 298.098 389.948C297.834 389.708 297.442 389.588 296.922 389.588C296.53 389.588 296.182 389.644 295.878 389.756C295.582 389.868 295.306 390.052 295.05 390.308L295.542 391.1V395H294.018V391.088ZM297.286 386.948C297.286 386.86 297.27 386.796 297.238 386.756C297.198 386.716 297.13 386.696 297.034 386.696H296.482V385.64H297.502C297.774 385.64 297.974 385.708 298.102 385.844C298.23 385.972 298.294 386.132 298.294 386.324V386.708H300.754V387.704H297.286V386.948ZM303.13 395C302.714 395 302.394 394.884 302.17 394.652C301.954 394.412 301.846 394.08 301.846 393.656V389.324C301.846 388.364 302.138 387.672 302.722 387.248H300.682V385.976H304.714V387.164C304.242 387.356 303.898 387.616 303.682 387.944C303.474 388.264 303.37 388.712 303.37 389.288V393.176C303.37 393.384 303.414 393.528 303.502 393.608C303.59 393.688 303.734 393.728 303.934 393.728H304.354V395H303.13ZM308.348 395.18C307.748 395.18 307.224 395.08 306.776 394.88C306.328 394.672 305.984 394.388 305.744 394.028C305.504 393.66 305.384 393.244 305.384 392.78V392.48C305.384 392.2 305.44 391.944 305.552 391.712C305.672 391.48 305.836 391.216 306.044 390.92C306.18 390.728 306.28 390.576 306.344 390.464C306.408 390.352 306.44 390.244 306.44 390.14C306.44 389.9 306.292 389.78 305.996 389.78H305.312V388.58H306.8C307.16 388.58 307.444 388.684 307.652 388.892C307.868 389.092 307.976 389.364 307.976 389.708C307.976 389.948 307.928 390.168 307.832 390.368C307.744 390.568 307.612 390.812 307.436 391.1C307.26 391.388 307.128 391.628 307.04 391.82C306.952 392.004 306.908 392.204 306.908 392.42V392.72C306.908 393.128 307.028 393.444 307.268 393.668C307.508 393.884 307.868 393.992 308.348 393.992C309.284 393.992 309.752 393.548 309.752 392.66V388.58H311.276V392.408C311.276 393.256 311.02 393.932 310.508 394.436C310.004 394.932 309.284 395.18 308.348 395.18ZM315.22 395.18C314.708 395.18 314.204 395.124 313.708 395.012C313.212 394.9 312.8 394.744 312.472 394.544V391.184H315.352V392.42H313.996V393.752C314.292 393.912 314.7 393.992 315.22 393.992C315.924 393.992 316.456 393.8 316.816 393.416C317.176 393.032 317.356 392.472 317.356 391.736C317.356 391.232 317.276 390.824 317.116 390.512C316.956 390.2 316.692 389.968 316.324 389.816C315.956 389.664 315.46 389.588 314.836 389.588C314.428 389.588 314.012 389.632 313.588 389.72C313.172 389.8 312.824 389.92 312.544 390.08V388.892C312.864 388.732 313.244 388.612 313.684 388.532C314.132 388.444 314.604 388.4 315.1 388.4C316.316 388.4 317.256 388.692 317.92 389.276C318.584 389.852 318.916 390.672 318.916 391.736C318.916 392.8 318.596 393.64 317.956 394.256C317.324 394.872 316.412 395.18 315.22 395.18ZM313.338 386.732H317.334V385.436H318.702V387.704H313.338V386.732ZM321.402 395C320.986 395 320.666 394.884 320.442 394.652C320.226 394.412 320.118 394.08 320.118 393.656V388.58H321.642V393.176C321.642 393.384 321.686 393.528 321.774 393.608C321.862 393.688 322.006 393.728 322.206 393.728H322.626V395H321.402ZM327.506 395.18C327.106 395.18 326.71 395.1 326.318 394.94C325.934 394.772 325.59 394.528 325.286 394.208V395H323.822V388.58H325.346V393.008C325.762 393.664 326.338 393.992 327.074 393.992C328.018 393.992 328.49 393.552 328.49 392.672V388.58H330.002V392.744C330.002 393.2 329.902 393.616 329.702 393.992C329.51 394.36 329.226 394.652 328.85 394.868C328.474 395.076 328.026 395.18 327.506 395.18ZM333.575 395.18C332.863 395.18 332.287 395 331.847 394.64C331.415 394.28 331.199 393.772 331.199 393.116C331.199 392.684 331.307 392.304 331.523 391.976C331.747 391.648 332.059 391.392 332.459 391.208C332.867 391.024 333.343 390.932 333.887 390.932C334.663 390.932 335.335 391.064 335.903 391.328V391.04C335.903 390.544 335.755 390.18 335.459 389.948C335.171 389.708 334.703 389.588 334.055 389.588C333.663 389.588 333.275 389.628 332.891 389.708C332.515 389.788 332.187 389.896 331.907 390.032V388.844C332.163 388.724 332.515 388.62 332.963 388.532C333.419 388.444 333.863 388.4 334.295 388.4C335.335 388.4 336.115 388.636 336.635 389.108C337.155 389.58 337.415 390.212 337.415 391.004V395H335.903V392.528C335.367 392.256 334.755 392.12 334.067 392.12C333.619 392.12 333.283 392.208 333.059 392.384C332.843 392.552 332.735 392.8 332.735 393.128C332.735 393.424 332.835 393.644 333.035 393.788C333.235 393.924 333.551 393.992 333.983 393.992C334.255 393.992 334.491 393.952 334.691 393.872V395.036C334.395 395.132 334.023 395.18 333.575 395.18Z" fill="#4E5256"/>
<path d="M286 396.2H338.135V396.8H286V396.2Z" fill="#4E5256"/>
<path d="M288.004 443C287.588 443 287.268 442.884 287.044 442.652C286.828 442.412 286.72 442.08 286.72 441.656V436.58H288.244V441.176C288.244 441.384 288.288 441.528 288.376 441.608C288.464 441.688 288.608 441.728 288.808 441.728H289.228V443H288.004ZM291.232 443C290.816 443 290.496 442.884 290.272 442.652C290.056 442.412 289.948 442.08 289.948 441.656V436.58H291.472V441.176C291.472 441.384 291.516 441.528 291.604 441.608C291.692 441.688 291.836 441.728 292.036 441.728H292.456V443H291.232ZM294.018 439.088L293.418 438.092C293.858 437.54 294.362 437.12 294.93 436.832C295.506 436.544 296.17 436.4 296.922 436.4C297.922 436.4 298.686 436.624 299.214 437.072C299.75 437.52 300.018 438.14 300.018 438.932V443H298.494V439.052C298.494 438.556 298.362 438.188 298.098 437.948C297.834 437.708 297.442 437.588 296.922 437.588C296.53 437.588 296.182 437.644 295.878 437.756C295.582 437.868 295.306 438.052 295.05 438.308L295.542 439.1V443H294.018V439.088ZM297.286 434.948C297.286 434.86 297.27 434.796 297.238 434.756C297.198 434.716 297.13 434.696 297.034 434.696H296.482V433.64H297.502C297.774 433.64 297.974 433.708 298.102 433.844C298.23 433.972 298.294 434.132 298.294 434.324V434.708H300.754V435.704H297.286V434.948ZM303.13 443C302.714 443 302.394 442.884 302.17 442.652C301.954 442.412 301.846 442.08 301.846 441.656V437.324C301.846 436.364 302.138 435.672 302.722 435.248H300.682V433.976H304.714V435.164C304.242 435.356 303.898 435.616 303.682 435.944C303.474 436.264 303.37 436.712 303.37 437.288V441.176C303.37 441.384 303.414 441.528 303.502 441.608C303.59 441.688 303.734 441.728 303.934 441.728H304.354V443H303.13ZM308.348 443.18C307.748 443.18 307.224 443.08 306.776 442.88C306.328 442.672 305.984 442.388 305.744 442.028C305.504 441.66 305.384 441.244 305.384 440.78V440.48C305.384 440.2 305.44 439.944 305.552 439.712C305.672 439.48 305.836 439.216 306.044 438.92C306.18 438.728 306.28 438.576 306.344 438.464C306.408 438.352 306.44 438.244 306.44 438.14C306.44 437.9 306.292 437.78 305.996 437.78H305.312V436.58H306.8C307.16 436.58 307.444 436.684 307.652 436.892C307.868 437.092 307.976 437.364 307.976 437.708C307.976 437.948 307.928 438.168 307.832 438.368C307.744 438.568 307.612 438.812 307.436 439.1C307.26 439.388 307.128 439.628 307.04 439.82C306.952 440.004 306.908 440.204 306.908 440.42V440.72C306.908 441.128 307.028 441.444 307.268 441.668C307.508 441.884 307.868 441.992 308.348 441.992C309.284 441.992 309.752 441.548 309.752 440.66V436.58H311.276V440.408C311.276 441.256 311.02 441.932 310.508 442.436C310.004 442.932 309.284 443.18 308.348 443.18ZM315.004 443.18C314.548 443.18 314.084 443.132 313.612 443.036C313.148 442.94 312.784 442.796 312.52 442.604V441.416C312.872 441.624 313.26 441.78 313.684 441.884C314.116 441.988 314.512 442.04 314.872 442.04C315.352 442.04 315.696 441.992 315.904 441.896C316.12 441.8 316.228 441.62 316.228 441.356C316.228 441.172 316.172 441.028 316.06 440.924C315.948 440.812 315.796 440.72 315.604 440.648C315.412 440.576 315.052 440.46 314.524 440.3C313.836 440.084 313.32 439.824 312.976 439.52C312.64 439.216 312.472 438.804 312.472 438.284C312.472 437.684 312.712 437.22 313.192 436.892C313.672 436.564 314.32 436.4 315.136 436.4C315.568 436.4 315.98 436.448 316.372 436.544C316.772 436.632 317.1 436.752 317.356 436.904V438.152C317.092 437.984 316.772 437.848 316.396 437.744C316.028 437.64 315.656 437.588 315.28 437.588C314.424 437.588 313.996 437.82 313.996 438.284C313.996 438.452 314.048 438.588 314.152 438.692C314.256 438.796 314.396 438.884 314.572 438.956C314.748 439.02 315.016 439.108 315.376 439.22L315.772 439.34C316.284 439.5 316.68 439.672 316.96 439.856C317.248 440.04 317.448 440.252 317.56 440.492C317.68 440.732 317.74 441.028 317.74 441.38C317.74 441.916 317.512 442.352 317.056 442.688C316.6 443.016 315.916 443.18 315.004 443.18ZM318.935 436.58H320.459V439.148L323.231 436.58H324.983L323.231 438.2C323.879 438.368 324.331 438.64 324.587 439.016C324.843 439.392 324.971 439.892 324.971 440.516V443H323.447V440.624C323.447 440.168 323.363 439.824 323.195 439.592C323.035 439.36 322.739 439.196 322.307 439.1L320.459 440.816V443H318.935V436.58ZM322.559 435.704C322.183 435.704 321.911 435.608 321.743 435.416C321.567 435.224 321.479 434.936 321.479 434.552V433.856H322.847V434.408C322.847 434.536 322.871 434.624 322.919 434.672C322.967 434.712 323.055 434.732 323.183 434.732H326.039V435.704H322.559ZM328.559 443.18C327.847 443.18 327.271 443 326.831 442.64C326.399 442.28 326.183 441.772 326.183 441.116C326.183 440.684 326.291 440.304 326.507 439.976C326.731 439.648 327.043 439.392 327.443 439.208C327.851 439.024 328.327 438.932 328.871 438.932C329.647 438.932 330.319 439.064 330.887 439.328V439.04C330.887 438.544 330.739 438.18 330.443 437.948C330.155 437.708 329.687 437.588 329.039 437.588C328.647 437.588 328.259 437.628 327.875 437.708C327.499 437.788 327.171 437.896 326.891 438.032V436.844C327.147 436.724 327.499 436.62 327.947 436.532C328.403 436.444 328.847 436.4 329.279 436.4C329.927 436.4 330.487 436.5 330.959 436.7L331.487 436.1H333.167L331.931 437.516C332.243 437.868 332.399 438.364 332.399 439.004V443H330.887V440.528C330.351 440.256 329.739 440.12 329.051 440.12C328.603 440.12 328.267 440.208 328.043 440.384C327.827 440.552 327.719 440.8 327.719 441.128C327.719 441.424 327.819 441.644 328.019 441.788C328.219 441.924 328.535 441.992 328.967 441.992C329.239 441.992 329.475 441.952 329.675 441.872V443.036C329.379 443.132 329.007 443.18 328.559 443.18ZM334.122 437.984C334.122 437.528 334.242 437.18 334.482 436.94C334.73 436.7 335.082 436.58 335.538 436.58H336.63V437.852H336.186C335.978 437.852 335.834 437.896 335.754 437.984C335.674 438.072 335.634 438.228 335.634 438.452V440.84L337.014 438.68H337.614L338.994 440.84V436.58H340.506V443H339.138L337.314 440.108L335.49 443H334.122V437.984ZM338.998 433.64H340.522V435.704H338.998V433.64ZM344.014 438.896C344.014 438.424 343.918 438.088 343.726 437.888C343.542 437.688 343.206 437.588 342.718 437.588C342.27 437.588 341.814 437.704 341.35 437.936V436.748C341.542 436.652 341.794 436.572 342.106 436.508C342.426 436.436 342.738 436.4 343.042 436.4C343.866 436.4 344.486 436.624 344.902 437.072C345.326 437.52 345.538 438.16 345.538 438.992V443H344.014V438.896ZM349.474 443.18C348.954 443.18 348.506 443.076 348.13 442.868C347.754 442.652 347.466 442.36 347.266 441.992C347.074 441.616 346.978 441.2 346.978 440.744V436.58H348.502V440.672C348.502 441.552 348.97 441.992 349.906 441.992C350.642 441.992 351.218 441.664 351.634 441.008V436.58H353.158V443H351.694V442.208C351.39 442.528 351.042 442.772 350.65 442.94C350.266 443.1 349.874 443.18 349.474 443.18Z" fill="#4E5256"/>
<path d="M286 444.2H353.878V444.8H286V444.2Z" fill="#4E5256"/>
<path d="M290.004 348C289.588 348 289.268 347.884 289.044 347.652C288.828 347.412 288.72 347.08 288.72 346.656V341.58H290.244V346.176C290.244 346.384 290.288 346.528 290.376 346.608C290.464 346.688 290.608 346.728 290.808 346.728H291.228V348H290.004ZM293.232 348C292.816 348 292.496 347.884 292.272 347.652C292.056 347.412 291.948 347.08 291.948 346.656V341.58H293.472V346.176C293.472 346.384 293.516 346.528 293.604 346.608C293.692 346.688 293.836 346.728 294.036 346.728H294.456V348H293.232ZM296.018 344.088L295.418 343.092C295.858 342.54 296.362 342.12 296.93 341.832C297.506 341.544 298.17 341.4 298.922 341.4C299.922 341.4 300.686 341.624 301.214 342.072C301.75 342.52 302.018 343.14 302.018 343.932V348H300.494V344.052C300.494 343.556 300.362 343.188 300.098 342.948C299.834 342.708 299.442 342.588 298.922 342.588C298.53 342.588 298.182 342.644 297.878 342.756C297.582 342.868 297.306 343.052 297.05 343.308L297.542 344.1V348H296.018V344.088ZM299.286 339.948C299.286 339.86 299.27 339.796 299.238 339.756C299.198 339.716 299.13 339.696 299.034 339.696H298.482V338.64H299.502C299.774 338.64 299.974 338.708 300.102 338.844C300.23 338.972 300.294 339.132 300.294 339.324V339.708H302.754V340.704H299.286V339.948ZM305.13 348C304.714 348 304.394 347.884 304.17 347.652C303.954 347.412 303.846 347.08 303.846 346.656V342.324C303.846 341.364 304.138 340.672 304.722 340.248H302.682V338.976H306.714V340.164C306.242 340.356 305.898 340.616 305.682 340.944C305.474 341.264 305.37 341.712 305.37 342.288V346.176C305.37 346.384 305.414 346.528 305.502 346.608C305.59 346.688 305.734 346.728 305.934 346.728H306.354V348H305.13ZM310.348 348.18C309.748 348.18 309.224 348.08 308.776 347.88C308.328 347.672 307.984 347.388 307.744 347.028C307.504 346.66 307.384 346.244 307.384 345.78V345.48C307.384 345.2 307.44 344.944 307.552 344.712C307.672 344.48 307.836 344.216 308.044 343.92C308.18 343.728 308.28 343.576 308.344 343.464C308.408 343.352 308.44 343.244 308.44 343.14C308.44 342.9 308.292 342.78 307.996 342.78H307.312V341.58H308.8C309.16 341.58 309.444 341.684 309.652 341.892C309.868 342.092 309.976 342.364 309.976 342.708C309.976 342.948 309.928 343.168 309.832 343.368C309.744 343.568 309.612 343.812 309.436 344.1C309.26 344.388 309.128 344.628 309.04 344.82C308.952 345.004 308.908 345.204 308.908 345.42V345.72C308.908 346.128 309.028 346.444 309.268 346.668C309.508 346.884 309.868 346.992 310.348 346.992C311.284 346.992 311.752 346.548 311.752 345.66V341.58H313.276V345.408C313.276 346.256 313.02 346.932 312.508 347.436C312.004 347.932 311.284 348.18 310.348 348.18ZM315.996 348C315.58 348 315.26 347.884 315.036 347.652C314.82 347.412 314.712 347.08 314.712 346.656V341.58H316.236V346.176C316.236 346.384 316.28 346.528 316.368 346.608C316.456 346.688 316.6 346.728 316.8 346.728H317.22V348H315.996ZM321.631 348.18C320.991 348.18 320.427 348.064 319.939 347.832C319.459 347.6 319.087 347.28 318.823 346.872C318.567 346.456 318.439 345.984 318.439 345.456V341.58H319.963V345.396C319.963 345.9 320.103 346.292 320.383 346.572C320.663 346.852 321.079 346.992 321.631 346.992C322.175 346.992 322.587 346.852 322.867 346.572C323.147 346.292 323.287 345.9 323.287 345.396V341.58H324.811V345.456C324.811 345.984 324.679 346.456 324.415 346.872C324.159 347.28 323.791 347.6 323.311 347.832C322.831 348.064 322.271 348.18 321.631 348.18ZM328.763 348.18C328.251 348.18 327.747 348.124 327.251 348.012C326.755 347.9 326.343 347.744 326.015 347.544V344.184H328.895V345.42H327.539V346.752C327.835 346.912 328.243 346.992 328.763 346.992C329.467 346.992 329.999 346.8 330.359 346.416C330.719 346.032 330.899 345.472 330.899 344.736C330.899 344.232 330.819 343.824 330.659 343.512C330.499 343.2 330.235 342.968 329.867 342.816C329.499 342.664 329.003 342.588 328.379 342.588C327.971 342.588 327.555 342.632 327.131 342.72C326.715 342.8 326.367 342.92 326.087 343.08V341.892C326.407 341.732 326.787 341.612 327.227 341.532C327.675 341.444 328.147 341.4 328.643 341.4C329.859 341.4 330.799 341.692 331.463 342.276C332.127 342.852 332.459 343.672 332.459 344.736C332.459 345.8 332.139 346.64 331.499 347.256C330.867 347.872 329.955 348.18 328.763 348.18ZM335.953 348.18C335.497 348.18 335.033 348.132 334.561 348.036C334.097 347.94 333.733 347.796 333.469 347.604V346.416C333.821 346.624 334.209 346.78 334.633 346.884C335.065 346.988 335.461 347.04 335.821 347.04C336.301 347.04 336.645 346.992 336.853 346.896C337.069 346.8 337.177 346.62 337.177 346.356C337.177 346.172 337.121 346.028 337.009 345.924C336.897 345.812 336.745 345.72 336.553 345.648C336.361 345.576 336.001 345.46 335.473 345.3C334.785 345.084 334.269 344.824 333.925 344.52C333.589 344.216 333.421 343.804 333.421 343.284C333.421 342.684 333.661 342.22 334.141 341.892C334.621 341.564 335.269 341.4 336.085 341.4C336.517 341.4 336.929 341.448 337.321 341.544C337.721 341.632 338.049 341.752 338.305 341.904V343.152C338.041 342.984 337.721 342.848 337.345 342.744C336.977 342.64 336.605 342.588 336.229 342.588C335.373 342.588 334.945 342.82 334.945 343.284C334.945 343.452 334.997 343.588 335.101 343.692C335.205 343.796 335.345 343.884 335.521 343.956C335.697 344.02 335.965 344.108 336.325 344.22L336.721 344.34C337.233 344.5 337.629 344.672 337.909 344.856C338.197 345.04 338.397 345.252 338.509 345.492C338.629 345.732 338.689 346.028 338.689 346.38C338.689 346.916 338.461 347.352 338.005 347.688C337.549 348.016 336.865 348.18 335.953 348.18ZM335.408 339.936C335.408 339.6 335.496 339.348 335.672 339.18C335.848 339.004 336.132 338.916 336.524 338.916H339.176V339.888H337.136C337 339.888 336.908 339.916 336.86 339.972C336.804 340.028 336.776 340.124 336.776 340.26V340.704H335.408V339.936Z" fill="#4E5256"/>
<path d="M288 349.2H339.164V349.8H288V349.2Z" fill="#4E5256"/>
<path d="M48.766 396.21C48.1687 396.21 47.5807 396.145 47.002 396.014C46.4233 395.883 45.9427 395.701 45.56 395.468V391.548H48.92V392.99H47.338V394.544C47.6833 394.731 48.1593 394.824 48.766 394.824C49.5873 394.824 50.208 394.6 50.628 394.152C51.048 393.704 51.258 393.051 51.258 392.192C51.258 391.604 51.1647 391.128 50.978 390.764C50.7913 390.4 50.4833 390.129 50.054 389.952C49.6247 389.775 49.046 389.686 48.318 389.686C47.842 389.686 47.3567 389.737 46.862 389.84C46.3767 389.933 45.9707 390.073 45.644 390.26V388.874C46.0173 388.687 46.4607 388.547 46.974 388.454C47.4967 388.351 48.0473 388.3 48.626 388.3C50.0447 388.3 51.1413 388.641 51.916 389.322C52.6907 389.994 53.078 390.951 53.078 392.192C53.078 393.433 52.7047 394.413 51.958 395.132C51.2207 395.851 50.1567 396.21 48.766 396.21ZM46.5706 386.354H51.2326V384.842H52.8286V387.488H46.5706V386.354ZM55.9786 396C55.4933 396 55.12 395.865 54.8586 395.594C54.6066 395.314 54.4806 394.927 54.4806 394.432V388.51H56.2586V393.872C56.2586 394.115 56.31 394.283 56.4126 394.376C56.5153 394.469 56.6833 394.516 56.9166 394.516H57.4066V396H55.9786ZM63.0989 396.21C62.6323 396.21 62.1703 396.117 61.7129 395.93C61.2649 395.734 60.8636 395.449 60.5089 395.076V396H58.8009V388.51H60.5789V393.676C61.0643 394.441 61.7363 394.824 62.5949 394.824C63.6963 394.824 64.2469 394.311 64.2469 393.284V388.51H66.0109V393.368C66.0109 393.9 65.8943 394.385 65.6609 394.824C65.4369 395.253 65.1056 395.594 64.6669 395.846C64.2283 396.089 63.7056 396.21 63.0989 396.21ZM70.1797 396.21C69.349 396.21 68.677 396 68.1637 395.58C67.6597 395.16 67.4077 394.567 67.4077 393.802C67.4077 393.298 67.5337 392.855 67.7857 392.472C68.047 392.089 68.411 391.791 68.8777 391.576C69.3537 391.361 69.909 391.254 70.5437 391.254C71.449 391.254 72.233 391.408 72.8957 391.716V391.38C72.8957 390.801 72.723 390.377 72.3777 390.106C72.0417 389.826 71.4957 389.686 70.7397 389.686C70.2823 389.686 69.8297 389.733 69.3817 389.826C68.943 389.919 68.5603 390.045 68.2337 390.204V388.818C68.5323 388.678 68.943 388.557 69.4657 388.454C69.9977 388.351 70.5157 388.3 71.0197 388.3C72.233 388.3 73.143 388.575 73.7497 389.126C74.3563 389.677 74.6597 390.414 74.6597 391.338V396H72.8957V393.116C72.2703 392.799 71.5563 392.64 70.7537 392.64C70.231 392.64 69.839 392.743 69.5777 392.948C69.3257 393.144 69.1997 393.433 69.1997 393.816C69.1997 394.161 69.3163 394.418 69.5497 394.586C69.783 394.745 70.1517 394.824 70.6557 394.824C70.973 394.824 71.2483 394.777 71.4817 394.684V396.042C71.1363 396.154 70.7023 396.21 70.1797 396.21Z" fill="#4E5256"/>
<path d="M48.514 444.21C47.982 444.21 47.4407 444.154 46.89 444.042C46.3487 443.93 45.924 443.762 45.616 443.538V442.152C46.0267 442.395 46.4793 442.577 46.974 442.698C47.478 442.819 47.94 442.88 48.36 442.88C48.92 442.88 49.3213 442.824 49.564 442.712C49.816 442.6 49.942 442.39 49.942 442.082C49.942 441.867 49.8767 441.699 49.746 441.578C49.6153 441.447 49.438 441.34 49.214 441.256C48.99 441.172 48.57 441.037 47.954 440.85C47.1513 440.598 46.5493 440.295 46.148 439.94C45.756 439.585 45.56 439.105 45.56 438.498C45.56 437.798 45.84 437.257 46.4 436.874C46.96 436.491 47.716 436.3 48.668 436.3C49.172 436.3 49.6527 436.356 50.11 436.468C50.5767 436.571 50.9593 436.711 51.258 436.888V438.344C50.95 438.148 50.5767 437.989 50.138 437.868C49.7087 437.747 49.2747 437.686 48.836 437.686C47.8373 437.686 47.338 437.957 47.338 438.498C47.338 438.694 47.3987 438.853 47.52 438.974C47.6413 439.095 47.8047 439.198 48.01 439.282C48.2153 439.357 48.528 439.459 48.948 439.59L49.41 439.73C50.0073 439.917 50.4693 440.117 50.796 440.332C51.132 440.547 51.3653 440.794 51.496 441.074C51.636 441.354 51.706 441.699 51.706 442.11C51.706 442.735 51.44 443.244 50.908 443.636C50.376 444.019 49.578 444.21 48.514 444.21ZM53.0998 436.51H54.8778V439.506L58.1118 436.51H60.1558L58.1118 438.4C58.8678 438.596 59.3951 438.913 59.6938 439.352C59.9924 439.791 60.1418 440.374 60.1418 441.102V444H58.3638V441.228C58.3638 440.696 58.2658 440.295 58.0698 440.024C57.8831 439.753 57.5378 439.562 57.0338 439.45L54.8778 441.452V444H53.0998V436.51ZM57.3281 435.488C56.8894 435.488 56.5721 435.376 56.3761 435.152C56.1708 434.928 56.0681 434.592 56.0681 434.144V433.332H57.6641V433.976C57.6641 434.125 57.6921 434.228 57.7481 434.284C57.8041 434.331 57.9068 434.354 58.0561 434.354H61.3881V435.488H57.3281ZM64.3281 444.21C63.4974 444.21 62.8254 444 62.3121 443.58C61.8081 443.16 61.5561 442.567 61.5561 441.802C61.5561 441.298 61.6821 440.855 61.9341 440.472C62.1954 440.089 62.5594 439.791 63.0261 439.576C63.5021 439.361 64.0574 439.254 64.6921 439.254C65.5974 439.254 66.3814 439.408 67.0441 439.716V439.38C67.0441 438.801 66.8714 438.377 66.5261 438.106C66.1901 437.826 65.6441 437.686 64.8881 437.686C64.4308 437.686 63.9781 437.733 63.5301 437.826C63.0914 437.919 62.7088 438.045 62.3821 438.204V436.818C62.6808 436.678 63.0914 436.557 63.6141 436.454C64.1461 436.351 64.6641 436.3 65.1681 436.3C65.9241 436.3 66.5774 436.417 67.1281 436.65L67.7441 435.95H69.7041L68.2621 437.602C68.6261 438.013 68.8081 438.591 68.8081 439.338V444H67.0441V441.116C66.4188 440.799 65.7048 440.64 64.9021 440.64C64.3794 440.64 63.9874 440.743 63.7261 440.948C63.4741 441.144 63.3481 441.433 63.3481 441.816C63.3481 442.161 63.4648 442.418 63.6981 442.586C63.9314 442.745 64.3001 442.824 64.8041 442.824C65.1214 442.824 65.3968 442.777 65.6301 442.684V444.042C65.2848 444.154 64.8508 444.21 64.3281 444.21ZM70.8185 438.148C70.8185 437.616 70.9585 437.21 71.2385 436.93C71.5278 436.65 71.9385 436.51 72.4705 436.51H73.7445V437.994H73.2265C72.9838 437.994 72.8158 438.045 72.7225 438.148C72.6292 438.251 72.5825 438.433 72.5825 438.694V441.48L74.1925 438.96H74.8925L76.5025 441.48V436.51H78.2665V444H76.6705L74.5425 440.626L72.4145 444H70.8185V438.148ZM76.5073 433.08H78.2853V435.488H76.5073V433.08ZM82.3593 439.212C82.3593 438.661 82.2473 438.269 82.0233 438.036C81.8087 437.803 81.4167 437.686 80.8473 437.686C80.3247 437.686 79.7927 437.821 79.2513 438.092V436.706C79.4753 436.594 79.7693 436.501 80.1333 436.426C80.5067 436.342 80.8707 436.3 81.2253 436.3C82.1867 436.3 82.91 436.561 83.3953 437.084C83.89 437.607 84.1373 438.353 84.1373 439.324V444H82.3593V439.212ZM88.7286 444.21C88.1219 444.21 87.5992 444.089 87.1606 443.846C86.7219 443.594 86.3859 443.253 86.1526 442.824C85.9286 442.385 85.8166 441.9 85.8166 441.368V436.51H87.5946V441.284C87.5946 442.311 88.1406 442.824 89.2326 442.824C90.0912 442.824 90.7632 442.441 91.2486 441.676V436.51H93.0266V444H91.3186V443.076C90.9639 443.449 90.5579 443.734 90.1006 443.93C89.6526 444.117 89.1952 444.21 88.7286 444.21Z" fill="#4E5256"/>
<path d="M46.338 303C45.8527 303 45.4793 302.865 45.218 302.594C44.966 302.314 44.84 301.927 44.84 301.432V295.51H46.618V300.872C46.618 301.115 46.6693 301.283 46.772 301.376C46.8747 301.469 47.0427 301.516 47.276 301.516H47.766V303H46.338ZM48.7403 295.51H50.5183L51.7223 300.536L53.1783 295.51H54.4943L55.9503 300.536L57.1543 295.51H58.9323L56.8463 303H55.3483L53.8363 297.848L52.3243 303H50.8263L48.7403 295.51ZM60.1935 298.464C60.1935 297.456 60.5248 296.677 61.1875 296.126C61.8595 295.575 62.7648 295.3 63.9035 295.3C64.5475 295.3 65.1075 295.389 65.5835 295.566L66.1295 294.95H68.0895L66.8575 296.364C67.3522 296.905 67.5995 297.605 67.5995 298.464V303H65.8215V298.394C65.8215 297.825 65.6535 297.4 65.3175 297.12C64.9908 296.831 64.5195 296.686 63.9035 296.686C63.2875 296.686 62.8115 296.826 62.4755 297.106C62.1395 297.386 61.9715 297.815 61.9715 298.394V299.626C62.0928 299.43 62.2702 299.271 62.5035 299.15C62.7462 299.029 63.0262 298.968 63.3435 298.968H64.4775V300.452H63.2175C62.8535 300.452 62.5548 300.573 62.3215 300.816C62.0882 301.049 61.9715 301.334 61.9715 301.67V303H60.1935V298.464Z" fill="#4E5256"/>
<path d="M46.338 347C45.8527 347 45.4793 346.865 45.218 346.594C44.966 346.314 44.84 345.927 44.84 345.432V339.51H46.618V344.872C46.618 345.115 46.6693 345.283 46.772 345.376C46.8747 345.469 47.0427 345.516 47.276 345.516H47.766V347H46.338ZM52.9123 347.21C52.1656 347.21 51.5076 347.075 50.9383 346.804C50.3783 346.533 49.9443 346.16 49.6363 345.684C49.3376 345.199 49.1883 344.648 49.1883 344.032V339.51H50.9663V343.962C50.9663 344.55 51.1296 345.007 51.4563 345.334C51.783 345.661 52.2683 345.824 52.9123 345.824C53.547 345.824 54.0276 345.661 54.3543 345.334C54.681 345.007 54.8443 344.55 54.8443 343.962V339.51H56.6223V344.032C56.6223 344.648 56.4683 345.199 56.1603 345.684C55.8616 346.16 55.4323 346.533 54.8723 346.804C54.3123 347.075 53.659 347.21 52.9123 347.21ZM61.2328 347.21C60.6355 347.21 60.0475 347.145 59.4688 347.014C58.8901 346.883 58.4095 346.701 58.0268 346.468V342.548H61.3868V343.99H59.8048V345.544C60.1501 345.731 60.6261 345.824 61.2328 345.824C62.0541 345.824 62.6748 345.6 63.0948 345.152C63.5148 344.704 63.7248 344.051 63.7248 343.192C63.7248 342.604 63.6315 342.128 63.4448 341.764C63.2581 341.4 62.9501 341.129 62.5208 340.952C62.0915 340.775 61.5128 340.686 60.7848 340.686C60.3088 340.686 59.8235 340.737 59.3288 340.84C58.8435 340.933 58.4375 341.073 58.1108 341.26V339.874C58.4841 339.687 58.9275 339.547 59.4408 339.454C59.9635 339.351 60.5141 339.3 61.0928 339.3C62.5115 339.3 63.6081 339.641 64.3828 340.322C65.1575 340.994 65.5448 341.951 65.5448 343.192C65.5448 344.433 65.1715 345.413 64.4248 346.132C63.6875 346.851 62.6235 347.21 61.2328 347.21ZM69.6214 347.21C69.0894 347.21 68.5481 347.154 67.9974 347.042C67.4561 346.93 67.0314 346.762 66.7234 346.538V345.152C67.1341 345.395 67.5868 345.577 68.0814 345.698C68.5854 345.819 69.0474 345.88 69.4674 345.88C70.0274 345.88 70.4288 345.824 70.6714 345.712C70.9234 345.6 71.0494 345.39 71.0494 345.082C71.0494 344.867 70.9841 344.699 70.8534 344.578C70.7228 344.447 70.5454 344.34 70.3214 344.256C70.0974 344.172 69.6774 344.037 69.0614 343.85C68.2588 343.598 67.6568 343.295 67.2554 342.94C66.8634 342.585 66.6674 342.105 66.6674 341.498C66.6674 340.798 66.9474 340.257 67.5074 339.874C68.0674 339.491 68.8234 339.3 69.7754 339.3C70.2794 339.3 70.7601 339.356 71.2174 339.468C71.6841 339.571 72.0668 339.711 72.3654 339.888V341.344C72.0574 341.148 71.6841 340.989 71.2454 340.868C70.8161 340.747 70.3821 340.686 69.9434 340.686C68.9448 340.686 68.4454 340.957 68.4454 341.498C68.4454 341.694 68.5061 341.853 68.6274 341.974C68.7488 342.095 68.9121 342.198 69.1174 342.282C69.3228 342.357 69.6354 342.459 70.0554 342.59L70.5174 342.73C71.1148 342.917 71.5768 343.117 71.9034 343.332C72.2394 343.547 72.4728 343.794 72.6034 344.074C72.7434 344.354 72.8134 344.699 72.8134 345.11C72.8134 345.735 72.5474 346.244 72.0154 346.636C71.4834 347.019 70.6854 347.21 69.6214 347.21ZM68.9852 337.592C68.9852 337.2 69.0879 336.906 69.2932 336.71C69.4985 336.505 69.8299 336.402 70.2872 336.402H73.3812V337.536H71.0012C70.8425 337.536 70.7352 337.569 70.6792 337.634C70.6139 337.699 70.5812 337.811 70.5812 337.97V338.488H68.9852V337.592ZM76.3632 347C75.8779 347 75.5045 346.865 75.2432 346.594C74.9912 346.314 74.8652 345.927 74.8652 345.432V340.336C74.8652 339.664 74.7392 339.141 74.4872 338.768C74.2445 338.385 73.8479 338.082 73.2972 337.858V336.472H78.0012V337.956H75.6212C76.3025 338.451 76.6432 339.258 76.6432 340.378V344.872C76.6432 345.115 76.6945 345.283 76.7972 345.376C76.8999 345.469 77.0679 345.516 77.3012 345.516H77.7912V347H76.3632ZM78.9787 339.51H80.6867V340.434C81.0413 340.061 81.452 339.781 81.9187 339.594C82.3947 339.398 82.8707 339.3 83.3467 339.3C84.2707 339.3 84.9753 339.561 85.4607 340.084C85.946 340.597 86.1887 341.26 86.1887 342.072V347H84.4107V342.156C84.4107 341.176 83.888 340.686 82.8427 340.686C81.9373 340.686 81.242 341.069 80.7567 341.834V347H78.9787V339.51ZM90.5394 347.21C90.0074 347.21 89.4661 347.154 88.9154 347.042C88.3741 346.93 87.9494 346.762 87.6414 346.538V345.152C88.0521 345.395 88.5047 345.577 88.9994 345.698C89.5034 345.819 89.9654 345.88 90.3854 345.88C90.9454 345.88 91.3467 345.824 91.5894 345.712C91.8414 345.6 91.9674 345.39 91.9674 345.082C91.9674 344.867 91.9021 344.699 91.7714 344.578C91.6407 344.447 91.4634 344.34 91.2394 344.256C91.0154 344.172 90.5954 344.037 89.9794 343.85C89.1767 343.598 88.5747 343.295 88.1734 342.94C87.7814 342.585 87.5854 342.105 87.5854 341.498C87.5854 340.798 87.8654 340.257 88.4254 339.874C88.9854 339.491 89.7414 339.3 90.6934 339.3C91.1974 339.3 91.6781 339.356 92.1354 339.468C92.6021 339.571 92.9847 339.711 93.2834 339.888V341.344C92.9754 341.148 92.6021 340.989 92.1634 340.868C91.7341 340.747 91.3001 340.686 90.8614 340.686C89.8627 340.686 89.3634 340.957 89.3634 341.498C89.3634 341.694 89.4241 341.853 89.5454 341.974C89.6667 342.095 89.8301 342.198 90.0354 342.282C90.2407 342.357 90.5534 342.459 90.9734 342.59L91.4354 342.73C92.0327 342.917 92.4947 343.117 92.8214 343.332C93.1574 343.547 93.3907 343.794 93.5214 344.074C93.6614 344.354 93.7314 344.699 93.7314 345.11C93.7314 345.735 93.4654 346.244 92.9334 346.636C92.4014 347.019 91.6034 347.21 90.5394 347.21Z" fill="#4E5256"/>
</svg>
