<svg width="390" height="849" viewBox="0 0 390 849" fill="none" xmlns="http://www.w3.org/2000/svg">
<rect y="5" width="390" height="844" rx="32" fill="white"/>
<path fill-rule="evenodd" clip-rule="evenodd" d="M121 838.5C121 837.119 122.119 836 123.5 836H266.5C267.881 836 269 837.119 269 838.5C269 839.881 267.881 841 266.5 841H123.5C122.119 841 121 839.881 121 838.5Z" fill="#090A0A"/>
<path d="M54.0688 36V26.1304H53.9194L50.9395 28.2305V26.2217L54.0688 24.022H56.2021V36H54.0688ZM63.4219 36.2988C62.4701 36.2988 61.6538 36.0443 60.9731 35.5352C60.298 35.026 59.7778 34.3011 59.4126 33.3604C59.0474 32.4196 58.8647 31.3045 58.8647 30.0151V29.9985C58.8647 28.7091 59.0474 27.5968 59.4126 26.6616C59.7778 25.7209 60.298 24.9959 60.9731 24.4868C61.6538 23.9777 62.4701 23.7231 63.4219 23.7231C64.3737 23.7231 65.1899 23.9777 65.8706 24.4868C66.5513 24.9959 67.0742 25.7209 67.4395 26.6616C67.8047 27.5968 67.9873 28.7091 67.9873 29.9985V30.0151C67.9873 31.3045 67.8047 32.4196 67.4395 33.3604C67.0742 34.3011 66.5513 35.026 65.8706 35.5352C65.1899 36.0443 64.3737 36.2988 63.4219 36.2988ZM63.4219 34.564C63.931 34.564 64.3654 34.3813 64.7251 34.0161C65.0848 33.6509 65.3587 33.1307 65.5469 32.4556C65.7406 31.7749 65.8374 30.9614 65.8374 30.0151V29.9985C65.8374 29.0522 65.7406 28.2415 65.5469 27.5664C65.3587 26.8857 65.0848 26.3656 64.7251 26.0059C64.3654 25.6406 63.931 25.458 63.4219 25.458C62.9128 25.458 62.4784 25.6406 62.1187 26.0059C61.7645 26.3656 61.4906 26.8857 61.2969 27.5664C61.1087 28.2415 61.0146 29.0522 61.0146 29.9985V30.0151C61.0146 30.9614 61.1087 31.7749 61.2969 32.4556C61.4906 33.1307 61.7645 33.6509 62.1187 34.0161C62.4784 34.3813 62.9128 34.564 63.4219 34.564ZM71.2974 34.3896C70.9211 34.3896 70.6056 34.2651 70.3511 34.0161C70.1021 33.7616 69.9775 33.4517 69.9775 33.0864C69.9775 32.7157 70.1021 32.4058 70.3511 32.1567C70.6056 31.9022 70.9211 31.7749 71.2974 31.7749C71.6792 31.7749 71.9946 31.9022 72.2437 32.1567C72.4927 32.4058 72.6172 32.7157 72.6172 33.0864C72.6172 33.4517 72.4927 33.7616 72.2437 34.0161C71.9946 34.2651 71.6792 34.3896 71.2974 34.3896ZM71.2974 28.2305C70.9211 28.2305 70.6056 28.106 70.3511 27.8569C70.1021 27.6024 69.9775 27.2925 69.9775 26.9272C69.9775 26.5565 70.1021 26.2466 70.3511 25.9976C70.6056 25.743 70.9211 25.6157 71.2974 25.6157C71.6792 25.6157 71.9946 25.743 72.2437 25.9976C72.4927 26.2466 72.6172 26.5565 72.6172 26.9272C72.6172 27.2925 72.4927 27.6024 72.2437 27.8569C71.9946 28.106 71.6792 28.2305 71.2974 28.2305ZM79.1562 36.2988C78.2044 36.2988 77.3882 36.0443 76.7075 35.5352C76.0324 35.026 75.5122 34.3011 75.147 33.3604C74.7817 32.4196 74.5991 31.3045 74.5991 30.0151V29.9985C74.5991 28.7091 74.7817 27.5968 75.147 26.6616C75.5122 25.7209 76.0324 24.9959 76.7075 24.4868C77.3882 23.9777 78.2044 23.7231 79.1562 23.7231C80.1081 23.7231 80.9243 23.9777 81.605 24.4868C82.2856 24.9959 82.8086 25.7209 83.1738 26.6616C83.5391 27.5968 83.7217 28.7091 83.7217 29.9985V30.0151C83.7217 31.3045 83.5391 32.4196 83.1738 33.3604C82.8086 34.3011 82.2856 35.026 81.605 35.5352C80.9243 36.0443 80.1081 36.2988 79.1562 36.2988ZM79.1562 34.564C79.6654 34.564 80.0998 34.3813 80.4595 34.0161C80.8192 33.6509 81.0931 33.1307 81.2812 32.4556C81.4749 31.7749 81.5718 30.9614 81.5718 30.0151V29.9985C81.5718 29.0522 81.4749 28.2415 81.2812 27.5664C81.0931 26.8857 80.8192 26.3656 80.4595 26.0059C80.0998 25.6406 79.6654 25.458 79.1562 25.458C78.6471 25.458 78.2127 25.6406 77.853 26.0059C77.4989 26.3656 77.2249 26.8857 77.0312 27.5664C76.8431 28.2415 76.749 29.0522 76.749 29.9985V30.0151C76.749 30.9614 76.8431 31.7749 77.0312 32.4556C77.2249 33.1307 77.4989 33.6509 77.853 34.0161C78.2127 34.3813 78.6471 34.564 79.1562 34.564ZM89.9619 36.2988C89.0101 36.2988 88.1938 36.0443 87.5132 35.5352C86.8381 35.026 86.3179 34.3011 85.9526 33.3604C85.5874 32.4196 85.4048 31.3045 85.4048 30.0151V29.9985C85.4048 28.7091 85.5874 27.5968 85.9526 26.6616C86.3179 25.7209 86.8381 24.9959 87.5132 24.4868C88.1938 23.9777 89.0101 23.7231 89.9619 23.7231C90.9137 23.7231 91.73 23.9777 92.4106 24.4868C93.0913 24.9959 93.6143 25.7209 93.9795 26.6616C94.3447 27.5968 94.5273 28.7091 94.5273 29.9985V30.0151C94.5273 31.3045 94.3447 32.4196 93.9795 33.3604C93.6143 34.3011 93.0913 35.026 92.4106 35.5352C91.73 36.0443 90.9137 36.2988 89.9619 36.2988ZM89.9619 34.564C90.471 34.564 90.9054 34.3813 91.2651 34.0161C91.6248 33.6509 91.8988 33.1307 92.0869 32.4556C92.2806 31.7749 92.3774 30.9614 92.3774 30.0151V29.9985C92.3774 29.0522 92.2806 28.2415 92.0869 27.5664C91.8988 26.8857 91.6248 26.3656 91.2651 26.0059C90.9054 25.6406 90.471 25.458 89.9619 25.458C89.4528 25.458 89.0184 25.6406 88.6587 26.0059C88.3045 26.3656 88.0306 26.8857 87.8369 27.5664C87.6488 28.2415 87.5547 29.0522 87.5547 29.9985V30.0151C87.5547 30.9614 87.6488 31.7749 87.8369 32.4556C88.0306 33.1307 88.3045 33.6509 88.6587 34.0161C89.0184 34.3813 89.4528 34.564 89.9619 34.564Z" fill="black"/>
<path d="M288.333 31C288.977 31 289.5 31.5037 289.5 32.125V34.375C289.5 34.9963 288.977 35.5 288.333 35.5H287.167C286.523 35.5 286 34.9963 286 34.375V32.125C286 31.5037 286.523 31 287.167 31H288.333ZM293.823 28.75C294.468 28.75 294.99 29.2537 294.99 29.875V34.375C294.99 34.9963 294.468 35.5 293.823 35.5H292.657C292.013 35.5 291.49 34.9963 291.49 34.375V29.875C291.49 29.2537 292.013 28.75 292.657 28.75H293.823ZM299.313 26.125C299.958 26.125 300.48 26.6287 300.48 27.25V34.375C300.48 34.9963 299.958 35.5 299.313 35.5H298.147C297.503 35.5 296.98 34.9963 296.98 34.375V27.25C296.981 26.6287 297.503 26.125 298.147 26.125H299.313ZM304.804 23.5C305.448 23.5 305.971 24.0037 305.971 24.625V34.375C305.971 34.9963 305.448 35.5 304.804 35.5H303.638C302.993 35.5 302.471 34.9963 302.471 34.375V24.625C302.471 24.0037 302.993 23.5 303.638 23.5H304.804Z" fill="black"/>
<path d="M318.512 32.8262C319.932 31.5964 322.011 31.5964 323.431 32.8262C323.502 32.8924 323.544 32.9855 323.546 33.084C323.548 33.1826 323.51 33.2777 323.441 33.3467L321.218 35.6446C321.153 35.7121 321.063 35.7501 320.971 35.7501C320.878 35.7499 320.79 35.7119 320.725 35.6446L318.501 33.3467C318.432 33.2776 318.394 33.1826 318.396 33.084C318.399 32.9855 318.44 32.8923 318.512 32.8262ZM315.545 29.7608C318.604 26.8467 323.341 26.8467 326.4 29.7608C326.469 29.829 326.509 29.9225 326.51 30.0206C326.511 30.1188 326.473 30.2135 326.405 30.2833L325.12 31.6133C324.988 31.7491 324.774 31.7524 324.638 31.6202C323.633 30.6886 322.326 30.1728 320.971 30.1729C319.617 30.1736 318.311 30.6895 317.308 31.6202C317.172 31.7524 316.958 31.7491 316.825 31.6133L315.54 30.2833C315.472 30.2136 315.435 30.1189 315.436 30.0206C315.437 29.9224 315.476 29.829 315.545 29.7608ZM312.578 26.7032C317.27 22.0989 324.671 22.099 329.363 26.7032C329.431 26.7716 329.47 26.8654 329.471 26.963C329.471 27.0605 329.433 27.1545 329.366 27.2237L328.08 28.5538C327.947 28.6901 327.732 28.691 327.598 28.5567C325.81 26.8164 323.437 25.8459 320.971 25.8458C318.504 25.8459 316.131 26.8163 314.344 28.5567C314.209 28.6913 313.994 28.6904 313.861 28.5538L312.574 27.2237C312.507 27.1545 312.47 27.0605 312.471 26.963C312.471 26.8654 312.51 26.7715 312.578 26.7032Z" fill="black"/>
<rect opacity="0.4" x="336.471" y="23.5" width="24" height="12" rx="3.5" stroke="black"/>
<path opacity="0.5" d="M361.971 27.5V31.5C362.777 31.1612 363.301 30.3731 363.301 29.5C363.301 28.6269 362.777 27.8388 361.971 27.5Z" fill="black"/>
<rect x="337.971" y="25" width="17" height="9" rx="2" fill="black"/>
<path d="M42.8095 99.5268C42.068 100.323 40.8068 100.323 40.0652 99.5268L28.2697 86.8632C27.5544 86.0952 27.5544 84.9048 28.2697 84.1368L40.0652 71.4732C40.8068 70.677 42.068 70.677 42.8095 71.4732C43.4802 72.1932 43.4802 73.3093 42.8095 74.0293L33.395 84.1368C32.6796 84.9048 32.6796 86.0952 33.395 86.8632L42.8095 96.9707C43.4802 97.6907 43.4802 98.8068 42.8095 99.5268Z" fill="#535353"/>
<path d="M110.44 93.3C109.547 93.3 108.667 93.2067 107.8 93.02C106.933 92.8467 106.213 92.6 105.64 92.28V86.66H110.7V88.88H108.62V90.6C109.033 90.8267 109.64 90.94 110.44 90.94C112.56 90.94 113.62 89.8333 113.62 87.62C113.62 86.4867 113.313 85.66 112.7 85.14C112.087 84.62 111.053 84.36 109.6 84.36C108.933 84.36 108.247 84.4333 107.54 84.58C106.847 84.7133 106.26 84.9067 105.78 85.16V82.8C106.327 82.5467 106.987 82.3533 107.76 82.22C108.533 82.0733 109.34 82 110.18 82C112.327 82 113.953 82.4933 115.06 83.48C116.18 84.4533 116.74 85.8333 116.74 87.62C116.74 89.38 116.193 90.7667 115.1 91.78C114.007 92.7933 112.453 93.3 110.44 93.3ZM112.203 80.98C110.923 80.98 110.283 80.3333 110.283 79.04V77.58H113.003V78.56C113.003 78.7467 113.043 78.88 113.123 78.96C113.189 79.0267 113.323 79.06 113.523 79.06H118.083V80.98H112.203ZM123.923 93.3C122.816 93.3 121.849 93.1067 121.023 92.72C120.196 92.32 119.556 91.7733 119.103 91.08C118.649 90.3867 118.423 89.6 118.423 88.72V82.3H121.463V88.52C121.463 89.2933 121.663 89.8933 122.063 90.32C122.476 90.7333 123.096 90.94 123.923 90.94C124.749 90.94 125.363 90.7333 125.763 90.32C126.163 89.8933 126.363 89.2933 126.363 88.52V78.72H129.403V88.72C129.403 89.6 129.176 90.3867 128.723 91.08C128.269 91.7733 127.629 92.32 126.803 92.72C125.976 93.1067 125.016 93.3 123.923 93.3ZM133.769 93C133.036 93 132.469 92.7933 132.069 92.38C131.683 91.9533 131.489 91.3667 131.489 90.62V82.3H134.529V89.8C134.529 90.12 134.596 90.3467 134.729 90.48C134.863 90.6133 135.083 90.68 135.389 90.68H136.089V93H133.769ZM142.68 93.3C141.026 93.3 139.72 92.84 138.76 91.92C137.8 91 137.32 89.6533 137.32 87.88C137.32 86.0267 137.873 84.5867 138.98 83.56C140.086 82.52 141.613 82 143.56 82C145.573 82 147.053 82.4667 148 83.4C148.96 84.3333 149.44 85.56 149.44 87.08V93H146.42V87.06C146.42 86.18 146.193 85.5133 145.74 85.06C145.3 84.5933 144.573 84.36 143.56 84.36C142.6 84.36 141.84 84.66 141.28 85.26C140.72 85.86 140.44 86.7333 140.44 87.88C140.44 88.9333 140.666 89.7067 141.12 90.2C141.586 90.6933 142.293 90.94 143.24 90.94C143.746 90.94 144.2 90.8667 144.6 90.72V93.04C144.08 93.2133 143.44 93.3 142.68 93.3ZM156.508 93.3C154.854 93.3 153.548 92.8467 152.588 91.94C151.628 91.02 151.148 89.6733 151.148 87.9C151.148 86.6867 151.321 85.64 151.668 84.76C152.014 83.8667 152.501 83.1867 153.128 82.72C153.768 82.24 154.501 82 155.328 82C155.821 82 156.248 82.0933 156.608 82.28C156.981 82.4667 157.281 82.7267 157.508 83.06C157.761 82.7 158.108 82.4333 158.548 82.26C159.001 82.0867 159.508 82 160.068 82C161.081 82 161.868 82.3133 162.428 82.94C162.988 83.5533 163.268 84.3667 163.268 85.38V93H160.248V85.68C160.248 85.2267 160.174 84.8933 160.028 84.68C159.894 84.4667 159.661 84.36 159.328 84.36C158.741 84.36 158.374 84.72 158.228 85.44H156.808C156.714 84.72 156.401 84.36 155.868 84.36C155.388 84.36 155.001 84.66 154.708 85.26C154.414 85.86 154.268 86.74 154.268 87.9C154.268 88.94 154.488 89.7067 154.928 90.2C155.381 90.6933 156.094 90.94 157.068 90.94C157.574 90.94 158.028 90.8667 158.428 90.72V93.04C157.908 93.2133 157.268 93.3 156.508 93.3ZM170.296 93.3C169.229 93.3 168.303 93.1333 167.516 92.8C166.743 92.4667 166.149 92 165.736 91.4C165.323 90.8 165.116 90.12 165.116 89.36V88.86C165.116 88.38 165.209 87.9533 165.396 87.58C165.583 87.1933 165.843 86.76 166.176 86.28C166.389 85.9867 166.543 85.7533 166.636 85.58C166.729 85.3933 166.776 85.22 166.776 85.06C166.776 84.6867 166.549 84.5 166.096 84.5H164.976V82.3H167.876C168.476 82.3 168.956 82.4733 169.316 82.82C169.676 83.1667 169.856 83.62 169.856 84.18C169.856 84.58 169.783 84.9533 169.636 85.3C169.489 85.6333 169.269 86.02 168.976 86.46C168.696 86.9 168.483 87.2733 168.336 87.58C168.203 87.8867 168.136 88.22 168.136 88.58V89C168.136 89.6267 168.316 90.1067 168.676 90.44C169.049 90.7733 169.589 90.94 170.296 90.94C171.696 90.94 172.396 90.2667 172.396 88.92V82.3H175.436V88.6C175.436 90.0533 174.989 91.2 174.096 92.04C173.216 92.88 171.949 93.3 170.296 93.3ZM170.544 79.7C170.544 79.5533 170.518 79.4533 170.464 79.4C170.398 79.3333 170.291 79.3 170.144 79.3H169.204V77.24H171.084C171.578 77.24 171.938 77.3533 172.164 77.58C172.378 77.8067 172.484 78.0933 172.484 78.44V79.04H176.504V80.98H170.544V79.7ZM181.924 93.3C181.031 93.3 180.151 93.2067 179.284 93.02C178.418 92.8467 177.698 92.6 177.124 92.28V86.66H182.184V88.88H180.104V90.6C180.518 90.8267 181.124 90.94 181.924 90.94C184.044 90.94 185.104 89.8333 185.104 87.62C185.104 86.4867 184.798 85.66 184.184 85.14C183.571 84.62 182.538 84.36 181.084 84.36C180.418 84.36 179.731 84.4333 179.024 84.58C178.331 84.7133 177.744 84.9067 177.264 85.16V82.8C177.811 82.5467 178.471 82.3533 179.244 82.22C180.018 82.0733 180.824 82 181.664 82C183.811 82 185.438 82.4933 186.544 83.48C187.664 84.4533 188.224 85.8333 188.224 87.62C188.224 89.38 187.678 90.7667 186.584 91.78C185.491 92.7933 183.938 93.3 181.924 93.3ZM196.387 93.3C195.721 93.3 195.074 93.1733 194.447 92.92C193.821 92.6667 193.274 92.2933 192.807 91.8V93H189.907V82.3H192.947V89.5C193.241 89.9933 193.594 90.36 194.007 90.6C194.421 90.8267 194.907 90.94 195.467 90.94C196.841 90.94 197.527 90.2933 197.527 89V82.3H200.547V89.18C200.547 89.9533 200.387 90.6533 200.067 91.28C199.747 91.9067 199.274 92.4 198.647 92.76C198.021 93.12 197.267 93.3 196.387 93.3ZM197.642 98.6C196.655 98.6 195.895 98.4067 195.362 98.02C194.815 97.6333 194.542 97.12 194.542 96.48V96.12C194.542 95.9467 194.515 95.8267 194.462 95.76C194.395 95.6933 194.282 95.66 194.122 95.66H193.462V93.94H195.722C196.122 93.94 196.402 94.0267 196.562 94.2C196.708 94.3867 196.782 94.6733 196.782 95.06V96.16C196.782 96.64 197.035 96.88 197.542 96.88C198.035 96.88 198.282 96.64 198.282 96.16V93.94H200.522V96.4C200.522 97.04 200.275 97.5667 199.782 97.98C199.275 98.3933 198.562 98.6 197.642 98.6ZM206.262 93.3C205.035 93.3 204.055 92.9933 203.322 92.38C202.602 91.7667 202.242 90.9 202.242 89.78C202.242 88.66 202.635 87.78 203.422 87.14C204.222 86.5 205.315 86.18 206.702 86.18C207.995 86.18 209.102 86.3933 210.022 86.82V86.4C210.022 85.68 209.782 85.1467 209.302 84.8C208.835 84.4533 208.075 84.28 207.022 84.28C206.368 84.28 205.728 84.3467 205.102 84.48C204.475 84.6133 203.915 84.8 203.422 85.04V82.76C203.862 82.5467 204.468 82.3667 205.242 82.22C206.015 82.0733 206.795 82 207.582 82C209.368 82 210.722 82.4 211.642 83.2C212.575 83.9867 213.042 85.0467 213.042 86.38V93H210.022V89.02C209.248 88.62 208.342 88.42 207.302 88.42C206.622 88.42 206.122 88.5333 205.802 88.76C205.495 88.9867 205.342 89.34 205.342 89.82C205.342 90.26 205.482 90.5933 205.762 90.82C206.055 91.0333 206.515 91.14 207.142 91.14C207.582 91.14 207.955 91.0733 208.262 90.94V93.04C207.742 93.2133 207.075 93.3 206.262 93.3ZM220.042 93.3C218.975 93.3 218.049 93.1333 217.262 92.8C216.489 92.4667 215.895 92 215.482 91.4C215.069 90.8 214.862 90.12 214.862 89.36V88.86C214.862 88.38 214.955 87.9533 215.142 87.58C215.329 87.1933 215.589 86.76 215.922 86.28C216.135 85.9867 216.289 85.7533 216.382 85.58C216.475 85.3933 216.522 85.22 216.522 85.06C216.522 84.6867 216.295 84.5 215.842 84.5H214.722V82.3H217.622C218.222 82.3 218.702 82.4733 219.062 82.82C219.422 83.1667 219.602 83.62 219.602 84.18C219.602 84.58 219.529 84.9533 219.382 85.3C219.235 85.6333 219.015 86.02 218.722 86.46C218.442 86.9 218.229 87.2733 218.082 87.58C217.949 87.8867 217.882 88.22 217.882 88.58V89C217.882 89.6267 218.062 90.1067 218.422 90.44C218.795 90.7733 219.335 90.94 220.042 90.94C221.442 90.94 222.142 90.2667 222.142 88.92V82.3H225.182V88.6C225.182 90.0533 224.735 91.2 223.842 92.04C222.962 92.88 221.695 93.3 220.042 93.3ZM231.67 93.3C230.777 93.3 229.897 93.2067 229.03 93.02C228.164 92.8467 227.444 92.6 226.87 92.28V86.66H231.93V88.88H229.85V90.6C230.264 90.8267 230.87 90.94 231.67 90.94C233.79 90.94 234.85 89.8333 234.85 87.62C234.85 86.4867 234.544 85.66 233.93 85.14C233.317 84.62 232.284 84.36 230.83 84.36C230.164 84.36 229.477 84.4333 228.77 84.58C228.077 84.7133 227.49 84.9067 227.01 85.16V82.8C227.557 82.5467 228.217 82.3533 228.99 82.22C229.764 82.0733 230.57 82 231.41 82C233.557 82 235.184 82.4933 236.29 83.48C237.41 84.4533 237.97 85.8333 237.97 87.62C237.97 89.38 237.424 90.7667 236.33 91.78C235.237 92.7933 233.684 93.3 231.67 93.3ZM239.253 83.64H242.273L244.553 90.74C245.54 90.74 246.3 90.4467 246.833 89.86C247.367 89.26 247.633 88.4133 247.633 87.32C247.633 86.3333 247.447 85.5933 247.073 85.1C246.7 84.6067 246.127 84.36 245.353 84.36C244.927 84.36 244.5 84.4267 244.073 84.56V82.28C244.633 82.0933 245.267 82 245.973 82C247.56 82 248.747 82.4667 249.533 83.4C250.333 84.32 250.733 85.6267 250.733 87.32C250.733 88.5067 250.473 89.5267 249.953 90.38C249.433 91.2333 248.727 91.8867 247.833 92.34C246.953 92.78 245.987 93 244.933 93H242.253L239.253 83.64ZM252.427 86.58C252.427 85.1 252.92 83.9667 253.907 83.18C254.907 82.3933 256.247 82 257.927 82C259.607 82 260.94 82.3933 261.927 83.18C262.913 83.9667 263.407 85.1 263.407 86.58V93H260.367V86.56C260.367 85.8267 260.153 85.28 259.727 84.92C259.313 84.5467 258.713 84.36 257.927 84.36C257.127 84.36 256.513 84.5467 256.087 84.92C255.673 85.28 255.467 85.8267 255.467 86.56V88.08C255.627 87.84 255.86 87.6533 256.167 87.52C256.487 87.3733 256.84 87.3 257.227 87.3H258.787V89.62H257.067C256.6 89.62 256.213 89.7667 255.907 90.06C255.613 90.3533 255.467 90.7333 255.467 91.2V93H252.427V86.58ZM260.773 96.52C260.773 96.28 260.726 96.1067 260.633 96C260.54 95.9067 260.373 95.86 260.133 95.86H259.473V93.94H261.573C262.293 93.94 262.793 94.0867 263.073 94.38C263.34 94.6733 263.473 95.18 263.473 95.9V98.48H260.773V96.52ZM276.973 93.3C275.706 93.3 274.726 92.9133 274.033 92.14C273.34 91.3667 272.993 90.38 272.993 89.18V86.56C272.993 85.8133 272.82 85.26 272.473 84.9C272.126 84.54 271.593 84.36 270.873 84.36C270.34 84.36 269.866 84.44 269.453 84.6C269.053 84.76 268.666 85.02 268.293 85.38L269.073 86.66V89.8C269.073 90.12 269.146 90.3467 269.293 90.48C269.44 90.6133 269.68 90.68 270.013 90.68H271.033V93H268.353C267.62 93 267.053 92.7933 266.653 92.38C266.253 91.9533 266.053 91.3667 266.053 90.62V86.62L265.053 84.92C265.813 83.9733 266.666 83.2533 267.613 82.76C268.56 82.2533 269.646 82 270.873 82C272.526 82 273.793 82.3867 274.673 83.16C275.553 83.92 275.993 84.9733 275.993 86.32V89C275.993 90.2933 276.633 90.94 277.913 90.94C278.42 90.94 278.873 90.82 279.273 90.58C279.673 90.3267 280 89.9667 280.253 89.5V82.3H283.273V93H280.413V91.82C279.973 92.3133 279.46 92.6867 278.873 92.94C278.286 93.18 277.653 93.3 276.973 93.3Z" fill="black"/>
<rect x="31.5" y="156.5" width="158" height="43" rx="7.5" fill="white"/>
<rect x="31.5" y="156.5" width="158" height="43" rx="7.5" stroke="#D3D3D3"/>
<path d="M50.032 183.21C49.3693 183.21 48.786 183.093 48.282 182.86C47.778 182.627 47.386 182.3 47.106 181.88C46.8353 181.451 46.7 180.961 46.7 180.41V179.934C46.7 179.617 46.77 179.323 46.91 179.052C47.05 178.772 47.2413 178.469 47.484 178.142C47.6613 177.899 47.7873 177.703 47.862 177.554C47.946 177.405 47.988 177.265 47.988 177.134C47.988 176.957 47.9413 176.831 47.848 176.756C47.764 176.681 47.6193 176.644 47.414 176.644H46.63V175.51H48.1C48.5107 175.51 48.8327 175.631 49.066 175.874C49.3087 176.107 49.43 176.42 49.43 176.812C49.43 177.083 49.374 177.335 49.262 177.568C49.15 177.792 48.982 178.067 48.758 178.394C48.534 178.73 48.3707 179.001 48.268 179.206C48.1747 179.411 48.128 179.635 48.128 179.878V180.396C48.128 180.928 48.296 181.343 48.632 181.642C48.968 181.941 49.4347 182.09 50.032 182.09C50.6667 182.09 51.1613 181.917 51.516 181.572C51.8707 181.227 52.048 180.718 52.048 180.046C52.048 179.374 51.908 178.87 51.628 178.534C51.348 178.198 50.9373 178.03 50.396 178.03V177.26L51.894 175.3H53.434L51.852 177.386C52.4213 177.601 52.832 177.932 53.084 178.38C53.3453 178.819 53.476 179.374 53.476 180.046C53.476 180.69 53.3313 181.25 53.042 181.726C52.762 182.202 52.3607 182.571 51.838 182.832C51.3153 183.084 50.7133 183.21 50.032 183.21ZM47.2178 173.466H50.0318V171.94H51.0818V173.466H52.2158V171.94H53.2518V174.404H47.2178V173.466ZM51.9638 168.616H53.2518V170.478H51.9638V168.616ZM57.8578 183.21C57.2791 183.21 56.7191 183.14 56.1778 183C55.6364 182.869 55.1791 182.683 54.8058 182.44V178.716H57.9138V179.864H56.2338V181.726C56.6351 181.969 57.1764 182.09 57.8578 182.09C58.7538 182.09 59.4351 181.843 59.9018 181.348C60.3778 180.853 60.6158 180.135 60.6158 179.192C60.6158 178.249 60.3731 177.554 59.8878 177.106C59.4118 176.658 58.6278 176.434 57.5358 176.434C57.0411 176.434 56.5558 176.485 56.0798 176.588C55.6038 176.681 55.2024 176.835 54.8758 177.05V175.916C55.2398 175.711 55.6691 175.557 56.1638 175.454C56.6584 175.351 57.1904 175.3 57.7598 175.3C59.1598 175.3 60.2284 175.641 60.9658 176.322C61.7031 177.003 62.0718 177.96 62.0718 179.192C62.0718 180.433 61.7031 181.413 60.9658 182.132C60.2378 182.851 59.2018 183.21 57.8578 183.21Z" fill="#4E5256"/>
<rect x="199.5" y="156.5" width="158" height="43" rx="7.5" fill="white"/>
<rect x="199.5" y="156.5" width="158" height="43" rx="7.5" stroke="#D3D3D3"/>
<path d="M217.808 183.21C216.893 183.21 216.179 182.953 215.666 182.44C215.162 181.927 214.91 181.264 214.91 180.452V175.51H216.338V180.396C216.338 180.956 216.492 181.381 216.8 181.67C217.117 181.95 217.579 182.09 218.186 182.09C219.147 182.09 219.903 181.661 220.454 180.802V175.51H221.882V183H220.496V181.992C219.796 182.804 218.9 183.21 217.808 183.21ZM226.333 178.156C226.333 177.559 226.212 177.125 225.969 176.854C225.726 176.574 225.297 176.434 224.681 176.434C224.084 176.434 223.524 176.565 223.001 176.826V175.706C223.225 175.594 223.514 175.501 223.869 175.426C224.233 175.342 224.592 175.3 224.947 175.3C225.89 175.3 226.594 175.557 227.061 176.07C227.528 176.574 227.761 177.302 227.761 178.254V183H226.333V178.156ZM233.654 183.21C233.141 183.21 232.651 183.107 232.184 182.902C231.727 182.697 231.316 182.393 230.952 181.992V183H229.58V175.51H231.008V180.802C231.559 181.661 232.315 182.09 233.276 182.09C233.883 182.09 234.34 181.95 234.648 181.67C234.965 181.381 235.124 180.956 235.124 180.396V175.51H236.552V180.452C236.552 181.264 236.295 181.927 235.782 182.44C235.269 182.953 234.559 183.21 233.654 183.21ZM240.807 183.21C239.976 183.21 239.314 183.005 238.819 182.594C238.334 182.174 238.091 181.581 238.091 180.816C238.091 180.06 238.362 179.458 238.903 179.01C239.454 178.562 240.196 178.338 241.129 178.338C242.053 178.338 242.884 178.511 243.621 178.856V178.282C243.621 177.638 243.444 177.171 243.089 176.882C242.744 176.583 242.165 176.434 241.353 176.434C240.905 176.434 240.466 176.476 240.037 176.56C239.608 176.644 239.234 176.761 238.917 176.91V175.79C239.206 175.65 239.598 175.533 240.093 175.44C240.597 175.347 241.087 175.3 241.563 175.3C242.403 175.3 243.103 175.454 243.663 175.762L244.377 174.95H245.959L244.545 176.532C244.881 177.008 245.049 177.582 245.049 178.254V183H243.621V179.99C242.94 179.645 242.16 179.472 241.283 179.472C240.676 179.472 240.228 179.584 239.939 179.808C239.659 180.032 239.519 180.368 239.519 180.816C239.519 181.665 240.065 182.09 241.157 182.09C241.493 182.09 241.787 182.043 242.039 181.95V183.056C241.703 183.159 241.292 183.21 240.807 183.21ZM247.5 178.338L246.8 177.204C247.295 176.579 247.859 176.107 248.494 175.79C249.129 175.463 249.88 175.3 250.748 175.3C251.868 175.3 252.727 175.557 253.324 176.07C253.921 176.574 254.22 177.283 254.22 178.198V183H252.792V178.31C252.792 177.666 252.619 177.195 252.274 176.896C251.938 176.588 251.429 176.434 250.748 176.434C250.235 176.434 249.782 176.513 249.39 176.672C248.998 176.821 248.643 177.064 248.326 177.4L248.928 178.338V183H247.5V178.338ZM252.913 185.254C252.913 185.086 252.885 184.969 252.829 184.904C252.764 184.848 252.642 184.82 252.465 184.82H252.003V183.798H253.151C253.571 183.798 253.856 183.882 254.005 184.05C254.145 184.218 254.215 184.517 254.215 184.946V186.682H252.913V185.254ZM258.471 183.21C257.64 183.21 256.978 183.005 256.483 182.594C255.998 182.174 255.755 181.581 255.755 180.816C255.755 180.06 256.026 179.458 256.567 179.01C257.118 178.562 257.86 178.338 258.793 178.338C259.717 178.338 260.548 178.511 261.285 178.856V178.282C261.285 177.638 261.108 177.171 260.753 176.882C260.408 176.583 259.829 176.434 259.017 176.434C258.569 176.434 258.13 176.476 257.701 176.56C257.272 176.644 256.898 176.761 256.581 176.91V175.79C256.87 175.65 257.262 175.533 257.757 175.44C258.261 175.347 258.751 175.3 259.227 175.3C260.394 175.3 261.266 175.566 261.845 176.098C262.424 176.63 262.713 177.349 262.713 178.254V183H261.285V179.99C260.604 179.645 259.824 179.472 258.947 179.472C258.34 179.472 257.892 179.584 257.603 179.808C257.323 180.032 257.183 180.368 257.183 180.816C257.183 181.665 257.729 182.09 258.821 182.09C259.157 182.09 259.451 182.043 259.703 181.95V183.056C259.367 183.159 258.956 183.21 258.471 183.21Z" fill="#4E5256"/>
<rect x="31.5" y="226.5" width="326" height="43" rx="7.5" fill="white"/>
<rect x="31.5" y="226.5" width="326" height="43" rx="7.5" stroke="#D3D3D3"/>
<path d="M48.31 253C47.8527 253 47.5027 252.874 47.26 252.622C47.0267 252.361 46.91 251.997 46.91 251.53V245.51H48.338V251.138C48.338 251.39 48.3893 251.567 48.492 251.67C48.5947 251.763 48.772 251.81 49.024 251.81H49.528V253H48.31ZM50.6463 245.51H52.0743L53.4323 250.998L55.0563 245.51H56.1483L57.7583 250.998L59.1303 245.51H60.5583L58.4723 253H57.2683L55.6023 247.372L53.9223 253H52.7183L50.6463 245.51ZM61.9627 248.366C61.9627 247.395 62.2801 246.644 62.9147 246.112C63.5494 245.571 64.4221 245.3 65.5327 245.3C66.2514 245.3 66.8674 245.412 67.3807 245.636L67.9827 244.95H69.5647L68.3607 246.322C68.8461 246.854 69.0887 247.535 69.0887 248.366V253H67.6607V248.324C67.6607 247.689 67.4741 247.218 67.1007 246.91C66.7274 246.593 66.2047 246.434 65.5327 246.434C64.8514 246.434 64.3241 246.593 63.9507 246.91C63.5774 247.218 63.3907 247.689 63.3907 248.324V249.752C63.5121 249.528 63.7034 249.351 63.9647 249.22C64.2261 249.08 64.5341 249.01 64.8887 249.01H66.0087V250.186H64.7767C64.3847 250.186 64.0534 250.326 63.7827 250.606C63.5214 250.877 63.3907 251.189 63.3907 251.544V253H61.9627V248.366Z" fill="#4E5256"/>
<path d="M313 245L318.293 250.685C318.683 251.105 319.317 251.105 319.707 250.685L325 245" stroke="#131214" stroke-width="1.5" stroke-linecap="round"/>
<rect x="86" y="308" width="217" height="44" rx="22" fill="#16AD78"/>
<path d="M158.748 335.24C157.863 335.24 157.089 335.085 156.428 334.776C155.767 334.456 155.255 334.019 154.892 333.464C154.529 332.909 154.348 332.28 154.348 331.576V326.44H156.78V331.416C156.78 332.035 156.94 332.515 157.26 332.856C157.591 333.187 158.087 333.352 158.748 333.352C159.409 333.352 159.9 333.187 160.22 332.856C160.54 332.515 160.7 332.035 160.7 331.416V326.44H163.132V331.576C163.132 332.28 162.951 332.909 162.588 333.464C162.225 334.019 161.713 334.456 161.052 334.776C160.391 335.085 159.623 335.24 158.748 335.24ZM159.809 325.384C158.785 325.384 158.273 324.867 158.273 323.832V322.664H160.449V323.448C160.449 323.597 160.481 323.704 160.545 323.768C160.598 323.821 160.705 323.848 160.865 323.848H164.513V325.384H159.809ZM168.113 335.24C167.42 335.24 166.822 335.096 166.321 334.808C165.82 334.52 165.436 334.125 165.169 333.624C164.913 333.123 164.785 332.563 164.785 331.944V326.44H167.217V331.8C167.217 332.835 167.766 333.352 168.865 333.352C169.313 333.352 169.697 333.261 170.017 333.08C170.348 332.888 170.636 332.595 170.881 332.2V326.44H173.297V335H170.993V334.04C170.62 334.435 170.177 334.733 169.665 334.936C169.164 335.139 168.646 335.24 168.113 335.24ZM174.973 326.44H177.293V327.416C177.677 327.032 178.13 326.733 178.653 326.52C179.175 326.307 179.698 326.2 180.221 326.2C181.298 326.2 182.109 326.493 182.653 327.08C183.207 327.656 183.485 328.419 183.485 329.368V335H181.069V329.576C181.069 328.584 180.546 328.088 179.501 328.088C179.063 328.088 178.663 328.184 178.301 328.376C177.949 328.568 177.65 328.861 177.405 329.256V335H174.973V326.44ZM176.104 323.848H180.36C180.349 323.784 180.344 323.699 180.344 323.592C180.344 323.112 180.504 322.717 180.824 322.408C181.144 322.088 181.555 321.928 182.056 321.928C182.589 321.928 183.016 322.099 183.336 322.44C183.656 322.771 183.816 323.171 183.816 323.64C183.816 324.141 183.64 324.557 183.288 324.888C182.925 325.219 182.472 325.384 181.928 325.384H176.104V323.848ZM182.072 324.312C182.253 324.312 182.413 324.248 182.552 324.12C182.68 323.981 182.744 323.821 182.744 323.64C182.744 323.459 182.68 323.299 182.552 323.16C182.413 323.021 182.253 322.952 182.072 322.952C181.891 322.952 181.736 323.021 181.608 323.16C181.469 323.299 181.4 323.459 181.4 323.64C181.4 323.821 181.469 323.981 181.608 324.12C181.736 324.248 181.891 324.312 182.072 324.312ZM185.608 329.896L184.808 328.536C186.056 326.979 187.661 326.2 189.624 326.2C191 326.2 192.056 326.504 192.792 327.112C193.539 327.72 193.912 328.568 193.912 329.656V335H191.48V329.848C191.48 328.675 190.861 328.088 189.624 328.088C189.165 328.088 188.755 328.152 188.392 328.28C188.04 328.408 187.709 328.616 187.4 328.904L188.024 329.928V335H185.608V329.896ZM199.518 335.24C198.665 335.24 197.923 335.107 197.294 334.84C196.675 334.573 196.201 334.2 195.87 333.72C195.539 333.24 195.374 332.696 195.374 332.088V331.688C195.374 331.304 195.449 330.963 195.598 330.664C195.747 330.355 195.955 330.008 196.222 329.624C196.393 329.389 196.515 329.203 196.59 329.064C196.665 328.915 196.702 328.776 196.702 328.648C196.702 328.349 196.521 328.2 196.158 328.2H195.262V326.44H197.582C198.062 326.44 198.446 326.579 198.734 326.856C199.022 327.133 199.166 327.496 199.166 327.944C199.166 328.264 199.107 328.563 198.99 328.84C198.873 329.107 198.697 329.416 198.462 329.768C198.238 330.12 198.067 330.419 197.95 330.664C197.843 330.909 197.79 331.176 197.79 331.464V331.8C197.79 332.301 197.934 332.685 198.222 332.952C198.521 333.219 198.953 333.352 199.518 333.352C200.638 333.352 201.198 332.813 201.198 331.736V326.44H203.63V331.48C203.63 332.643 203.273 333.56 202.558 334.232C201.854 334.904 200.841 335.24 199.518 335.24ZM199.717 324.36C199.717 324.243 199.695 324.163 199.653 324.12C199.599 324.067 199.514 324.04 199.397 324.04H198.645V322.392H200.149C200.543 322.392 200.831 322.483 201.013 322.664C201.183 322.845 201.269 323.075 201.269 323.352V323.832H204.485V325.384H199.717V324.36ZM208.821 335.24C208.106 335.24 207.402 335.165 206.709 335.016C206.015 334.877 205.439 334.68 204.981 334.424V329.928H209.029V331.704H207.365V333.08C207.695 333.261 208.181 333.352 208.821 333.352C210.517 333.352 211.365 332.467 211.365 330.696C211.365 329.789 211.119 329.128 210.629 328.712C210.138 328.296 209.311 328.088 208.149 328.088C207.615 328.088 207.066 328.147 206.501 328.264C205.946 328.371 205.477 328.525 205.093 328.728V326.84C205.53 326.637 206.058 326.483 206.677 326.376C207.295 326.259 207.941 326.2 208.613 326.2C210.33 326.2 211.631 326.595 212.517 327.384C213.413 328.163 213.861 329.267 213.861 330.696C213.861 332.104 213.423 333.213 212.549 334.024C211.674 334.835 210.431 335.24 208.821 335.24ZM220.391 335.24C219.858 335.24 219.34 335.139 218.839 334.936C218.338 334.733 217.9 334.435 217.527 334.04V335H215.207V326.44H217.639V332.2C217.874 332.595 218.156 332.888 218.487 333.08C218.818 333.261 219.207 333.352 219.655 333.352C220.754 333.352 221.303 332.835 221.303 331.8V326.44H223.719V331.944C223.719 332.563 223.591 333.123 223.335 333.624C223.079 334.125 222.7 334.52 222.199 334.808C221.698 335.096 221.095 335.24 220.391 335.24ZM221.394 339.48C220.605 339.48 219.997 339.325 219.57 339.016C219.133 338.707 218.914 338.296 218.914 337.784V337.496C218.914 337.357 218.893 337.261 218.85 337.208C218.797 337.155 218.706 337.128 218.578 337.128H218.05V335.752H219.859C220.179 335.752 220.402 335.821 220.53 335.96C220.648 336.109 220.706 336.339 220.706 336.648V337.528C220.706 337.912 220.909 338.104 221.314 338.104C221.709 338.104 221.906 337.912 221.906 337.528V335.752H223.698V337.72C223.698 338.232 223.501 338.653 223.106 338.984C222.701 339.315 222.13 339.48 221.394 339.48ZM228.291 335.24C227.309 335.24 226.525 334.995 225.939 334.504C225.363 334.013 225.075 333.32 225.075 332.424C225.075 331.528 225.389 330.824 226.019 330.312C226.659 329.8 227.533 329.544 228.643 329.544C229.677 329.544 230.563 329.715 231.299 330.056V329.72C231.299 329.144 231.107 328.717 230.723 328.44C230.349 328.163 229.741 328.024 228.899 328.024C228.376 328.024 227.864 328.077 227.363 328.184C226.861 328.291 226.413 328.44 226.019 328.632V326.808C226.371 326.637 226.856 326.493 227.475 326.376C228.093 326.259 228.717 326.2 229.347 326.2C230.776 326.2 231.859 326.52 232.595 327.16C233.341 327.789 233.715 328.637 233.715 329.704V335H231.299V331.816C230.68 331.496 229.955 331.336 229.123 331.336C228.579 331.336 228.179 331.427 227.923 331.608C227.677 331.789 227.555 332.072 227.555 332.456C227.555 332.808 227.667 333.075 227.891 333.256C228.125 333.427 228.493 333.512 228.995 333.512C229.347 333.512 229.645 333.459 229.891 333.352V335.032C229.475 335.171 228.941 335.24 228.291 335.24Z" fill="white"/>
</svg>
