<svg width="390" height="849" viewBox="0 0 390 849" fill="none" xmlns="http://www.w3.org/2000/svg">
<rect y="5" width="390" height="844" rx="32" fill="white"/>
<path fill-rule="evenodd" clip-rule="evenodd" d="M121 838.5C121 837.119 122.119 836 123.5 836H266.5C267.881 836 269 837.119 269 838.5C269 839.881 267.881 841 266.5 841H123.5C122.119 841 121 839.881 121 838.5Z" fill="#090A0A"/>
<path d="M54.0688 36V26.1304H53.9194L50.9395 28.2305V26.2217L54.0688 24.022H56.2021V36H54.0688ZM63.4219 36.2988C62.4701 36.2988 61.6538 36.0443 60.9731 35.5352C60.298 35.026 59.7778 34.3011 59.4126 33.3604C59.0474 32.4196 58.8647 31.3045 58.8647 30.0151V29.9985C58.8647 28.7091 59.0474 27.5968 59.4126 26.6616C59.7778 25.7209 60.298 24.9959 60.9731 24.4868C61.6538 23.9777 62.4701 23.7231 63.4219 23.7231C64.3737 23.7231 65.1899 23.9777 65.8706 24.4868C66.5513 24.9959 67.0742 25.7209 67.4395 26.6616C67.8047 27.5968 67.9873 28.7091 67.9873 29.9985V30.0151C67.9873 31.3045 67.8047 32.4196 67.4395 33.3604C67.0742 34.3011 66.5513 35.026 65.8706 35.5352C65.1899 36.0443 64.3737 36.2988 63.4219 36.2988ZM63.4219 34.564C63.931 34.564 64.3654 34.3813 64.7251 34.0161C65.0848 33.6509 65.3587 33.1307 65.5469 32.4556C65.7406 31.7749 65.8374 30.9614 65.8374 30.0151V29.9985C65.8374 29.0522 65.7406 28.2415 65.5469 27.5664C65.3587 26.8857 65.0848 26.3656 64.7251 26.0059C64.3654 25.6406 63.931 25.458 63.4219 25.458C62.9128 25.458 62.4784 25.6406 62.1187 26.0059C61.7645 26.3656 61.4906 26.8857 61.2969 27.5664C61.1087 28.2415 61.0146 29.0522 61.0146 29.9985V30.0151C61.0146 30.9614 61.1087 31.7749 61.2969 32.4556C61.4906 33.1307 61.7645 33.6509 62.1187 34.0161C62.4784 34.3813 62.9128 34.564 63.4219 34.564ZM71.2974 34.3896C70.9211 34.3896 70.6056 34.2651 70.3511 34.0161C70.1021 33.7616 69.9775 33.4517 69.9775 33.0864C69.9775 32.7157 70.1021 32.4058 70.3511 32.1567C70.6056 31.9022 70.9211 31.7749 71.2974 31.7749C71.6792 31.7749 71.9946 31.9022 72.2437 32.1567C72.4927 32.4058 72.6172 32.7157 72.6172 33.0864C72.6172 33.4517 72.4927 33.7616 72.2437 34.0161C71.9946 34.2651 71.6792 34.3896 71.2974 34.3896ZM71.2974 28.2305C70.9211 28.2305 70.6056 28.106 70.3511 27.8569C70.1021 27.6024 69.9775 27.2925 69.9775 26.9272C69.9775 26.5565 70.1021 26.2466 70.3511 25.9976C70.6056 25.743 70.9211 25.6157 71.2974 25.6157C71.6792 25.6157 71.9946 25.743 72.2437 25.9976C72.4927 26.2466 72.6172 26.5565 72.6172 26.9272C72.6172 27.2925 72.4927 27.6024 72.2437 27.8569C71.9946 28.106 71.6792 28.2305 71.2974 28.2305ZM79.1562 36.2988C78.2044 36.2988 77.3882 36.0443 76.7075 35.5352C76.0324 35.026 75.5122 34.3011 75.147 33.3604C74.7817 32.4196 74.5991 31.3045 74.5991 30.0151V29.9985C74.5991 28.7091 74.7817 27.5968 75.147 26.6616C75.5122 25.7209 76.0324 24.9959 76.7075 24.4868C77.3882 23.9777 78.2044 23.7231 79.1562 23.7231C80.1081 23.7231 80.9243 23.9777 81.605 24.4868C82.2856 24.9959 82.8086 25.7209 83.1738 26.6616C83.5391 27.5968 83.7217 28.7091 83.7217 29.9985V30.0151C83.7217 31.3045 83.5391 32.4196 83.1738 33.3604C82.8086 34.3011 82.2856 35.026 81.605 35.5352C80.9243 36.0443 80.1081 36.2988 79.1562 36.2988ZM79.1562 34.564C79.6654 34.564 80.0998 34.3813 80.4595 34.0161C80.8192 33.6509 81.0931 33.1307 81.2812 32.4556C81.4749 31.7749 81.5718 30.9614 81.5718 30.0151V29.9985C81.5718 29.0522 81.4749 28.2415 81.2812 27.5664C81.0931 26.8857 80.8192 26.3656 80.4595 26.0059C80.0998 25.6406 79.6654 25.458 79.1562 25.458C78.6471 25.458 78.2127 25.6406 77.853 26.0059C77.4989 26.3656 77.2249 26.8857 77.0312 27.5664C76.8431 28.2415 76.749 29.0522 76.749 29.9985V30.0151C76.749 30.9614 76.8431 31.7749 77.0312 32.4556C77.2249 33.1307 77.4989 33.6509 77.853 34.0161C78.2127 34.3813 78.6471 34.564 79.1562 34.564ZM89.9619 36.2988C89.0101 36.2988 88.1938 36.0443 87.5132 35.5352C86.8381 35.026 86.3179 34.3011 85.9526 33.3604C85.5874 32.4196 85.4048 31.3045 85.4048 30.0151V29.9985C85.4048 28.7091 85.5874 27.5968 85.9526 26.6616C86.3179 25.7209 86.8381 24.9959 87.5132 24.4868C88.1938 23.9777 89.0101 23.7231 89.9619 23.7231C90.9137 23.7231 91.73 23.9777 92.4106 24.4868C93.0913 24.9959 93.6143 25.7209 93.9795 26.6616C94.3447 27.5968 94.5273 28.7091 94.5273 29.9985V30.0151C94.5273 31.3045 94.3447 32.4196 93.9795 33.3604C93.6143 34.3011 93.0913 35.026 92.4106 35.5352C91.73 36.0443 90.9137 36.2988 89.9619 36.2988ZM89.9619 34.564C90.471 34.564 90.9054 34.3813 91.2651 34.0161C91.6248 33.6509 91.8988 33.1307 92.0869 32.4556C92.2806 31.7749 92.3774 30.9614 92.3774 30.0151V29.9985C92.3774 29.0522 92.2806 28.2415 92.0869 27.5664C91.8988 26.8857 91.6248 26.3656 91.2651 26.0059C90.9054 25.6406 90.471 25.458 89.9619 25.458C89.4528 25.458 89.0184 25.6406 88.6587 26.0059C88.3045 26.3656 88.0306 26.8857 87.8369 27.5664C87.6488 28.2415 87.5547 29.0522 87.5547 29.9985V30.0151C87.5547 30.9614 87.6488 31.7749 87.8369 32.4556C88.0306 33.1307 88.3045 33.6509 88.6587 34.0161C89.0184 34.3813 89.4528 34.564 89.9619 34.564Z" fill="black"/>
<path d="M288.333 31C288.977 31 289.5 31.5037 289.5 32.125V34.375C289.5 34.9963 288.977 35.5 288.333 35.5H287.167C286.523 35.5 286 34.9963 286 34.375V32.125C286 31.5037 286.523 31 287.167 31H288.333ZM293.823 28.75C294.468 28.75 294.99 29.2537 294.99 29.875V34.375C294.99 34.9963 294.468 35.5 293.823 35.5H292.657C292.013 35.5 291.49 34.9963 291.49 34.375V29.875C291.49 29.2537 292.013 28.75 292.657 28.75H293.823ZM299.313 26.125C299.958 26.125 300.48 26.6287 300.48 27.25V34.375C300.48 34.9963 299.958 35.5 299.313 35.5H298.147C297.503 35.5 296.98 34.9963 296.98 34.375V27.25C296.981 26.6287 297.503 26.125 298.147 26.125H299.313ZM304.804 23.5C305.448 23.5 305.971 24.0037 305.971 24.625V34.375C305.971 34.9963 305.448 35.5 304.804 35.5H303.638C302.993 35.5 302.471 34.9963 302.471 34.375V24.625C302.471 24.0037 302.993 23.5 303.638 23.5H304.804Z" fill="black"/>
<path d="M318.512 32.8262C319.932 31.5964 322.011 31.5964 323.431 32.8262C323.502 32.8924 323.544 32.9855 323.546 33.084C323.548 33.1826 323.51 33.2777 323.441 33.3467L321.218 35.6446C321.153 35.7121 321.063 35.7501 320.971 35.7501C320.878 35.7499 320.79 35.7119 320.725 35.6446L318.501 33.3467C318.432 33.2776 318.394 33.1826 318.396 33.084C318.399 32.9855 318.44 32.8923 318.512 32.8262ZM315.545 29.7608C318.604 26.8467 323.341 26.8467 326.4 29.7608C326.469 29.829 326.509 29.9225 326.51 30.0206C326.511 30.1188 326.473 30.2135 326.405 30.2833L325.12 31.6133C324.988 31.7491 324.774 31.7524 324.638 31.6202C323.633 30.6886 322.326 30.1728 320.971 30.1729C319.617 30.1736 318.311 30.6895 317.308 31.6202C317.172 31.7524 316.958 31.7491 316.825 31.6133L315.54 30.2833C315.472 30.2136 315.435 30.1189 315.436 30.0206C315.437 29.9224 315.476 29.829 315.545 29.7608ZM312.578 26.7032C317.27 22.0989 324.671 22.099 329.363 26.7032C329.431 26.7716 329.47 26.8654 329.471 26.963C329.471 27.0605 329.433 27.1545 329.366 27.2237L328.08 28.5538C327.947 28.6901 327.732 28.691 327.598 28.5567C325.81 26.8164 323.437 25.8459 320.971 25.8458C318.504 25.8459 316.131 26.8163 314.344 28.5567C314.209 28.6913 313.994 28.6904 313.861 28.5538L312.574 27.2237C312.507 27.1545 312.47 27.0605 312.471 26.963C312.471 26.8654 312.51 26.7715 312.578 26.7032Z" fill="black"/>
<rect opacity="0.4" x="336.471" y="23.5" width="24" height="12" rx="3.5" stroke="black"/>
<path opacity="0.5" d="M361.971 27.5V31.5C362.777 31.1612 363.301 30.3731 363.301 29.5C363.301 28.6269 362.777 27.8388 361.971 27.5Z" fill="black"/>
<rect x="337.971" y="25" width="17" height="9" rx="2" fill="black"/>
<path d="M42.8095 99.5268C42.068 100.323 40.8068 100.323 40.0652 99.5268L28.2697 86.8632C27.5544 86.0952 27.5544 84.9048 28.2697 84.1368L40.0652 71.4732C40.8068 70.677 42.068 70.677 42.8095 71.4732C43.4802 72.1932 43.4802 73.3093 42.8095 74.0293L33.395 84.1368C32.6796 84.9048 32.6796 86.0952 33.395 86.8632L42.8095 96.9707C43.4802 97.6907 43.4802 98.8068 42.8095 99.5268Z" fill="#535353"/>
<path d="M131.44 93.3C130.547 93.3 129.667 93.2067 128.8 93.02C127.933 92.8467 127.213 92.6 126.64 92.28V86.66H131.7V88.88H129.62V90.6C130.033 90.8267 130.64 90.94 131.44 90.94C133.56 90.94 134.62 89.8333 134.62 87.62C134.62 86.4867 134.313 85.66 133.7 85.14C133.087 84.62 132.053 84.36 130.6 84.36C129.933 84.36 129.247 84.4333 128.54 84.58C127.847 84.7133 127.26 84.9067 126.78 85.16V82.8C127.327 82.5467 127.987 82.3533 128.76 82.22C129.533 82.0733 130.34 82 131.18 82C133.327 82 134.953 82.4933 136.06 83.48C137.18 84.4533 137.74 85.8333 137.74 87.62C137.74 89.38 137.193 90.7667 136.1 91.78C135.007 92.7933 133.453 93.3 131.44 93.3ZM128.083 79.06H134.603V76.94H137.343V80.98H128.083V79.06ZM141.703 93C140.969 93 140.403 92.7933 140.003 92.38C139.616 91.9533 139.423 91.3667 139.423 90.62V82.3H142.463V89.8C142.463 90.12 142.529 90.3467 142.663 90.48C142.796 90.6133 143.016 90.68 143.323 90.68H144.023V93H141.703ZM152.133 93.3C151.467 93.3 150.82 93.1733 150.193 92.92C149.567 92.6667 149.02 92.2933 148.553 91.8V93H145.653V82.3H148.693V89.5C148.987 89.9933 149.34 90.36 149.753 90.6C150.167 90.8267 150.653 90.94 151.213 90.94C152.587 90.94 153.273 90.2933 153.273 89V82.3H156.293V89.18C156.293 89.9533 156.133 90.6533 155.813 91.28C155.493 91.9067 155.02 92.4 154.393 92.76C153.767 93.12 153.013 93.3 152.133 93.3ZM162.008 93.3C160.781 93.3 159.801 92.9933 159.068 92.38C158.348 91.7667 157.988 90.9 157.988 89.78C157.988 88.66 158.381 87.78 159.168 87.14C159.968 86.5 161.061 86.18 162.448 86.18C163.741 86.18 164.848 86.3933 165.768 86.82V86.4C165.768 85.68 165.528 85.1467 165.048 84.8C164.581 84.4533 163.821 84.28 162.768 84.28C162.114 84.28 161.474 84.3467 160.848 84.48C160.221 84.6133 159.661 84.8 159.168 85.04V82.76C159.608 82.5467 160.214 82.3667 160.988 82.22C161.761 82.0733 162.541 82 163.328 82C165.114 82 166.468 82.4 167.388 83.2C168.321 83.9867 168.788 85.0467 168.788 86.38V93H165.768V89.02C164.994 88.62 164.088 88.42 163.048 88.42C162.368 88.42 161.868 88.5333 161.548 88.76C161.241 88.9867 161.088 89.34 161.088 89.82C161.088 90.26 161.228 90.5933 161.508 90.82C161.801 91.0333 162.261 91.14 162.888 91.14C163.328 91.14 163.701 91.0733 164.008 90.94V93.04C163.488 93.2133 162.821 93.3 162.008 93.3ZM175.788 93.3C174.721 93.3 173.795 93.1333 173.008 92.8C172.235 92.4667 171.641 92 171.228 91.4C170.815 90.8 170.608 90.12 170.608 89.36V88.86C170.608 88.38 170.701 87.9533 170.888 87.58C171.075 87.1933 171.335 86.76 171.668 86.28C171.881 85.9867 172.035 85.7533 172.128 85.58C172.221 85.3933 172.268 85.22 172.268 85.06C172.268 84.6867 172.041 84.5 171.588 84.5H170.468V82.3H173.368C173.968 82.3 174.448 82.4733 174.808 82.82C175.168 83.1667 175.348 83.62 175.348 84.18C175.348 84.58 175.275 84.9533 175.128 85.3C174.981 85.6333 174.761 86.02 174.468 86.46C174.188 86.9 173.975 87.2733 173.828 87.58C173.695 87.8867 173.628 88.22 173.628 88.58V89C173.628 89.6267 173.808 90.1067 174.168 90.44C174.541 90.7733 175.081 90.94 175.788 90.94C177.188 90.94 177.888 90.2667 177.888 88.92V82.3H180.928V88.6C180.928 90.0533 180.481 91.2 179.588 92.04C178.708 92.88 177.441 93.3 175.788 93.3ZM187.417 93.3C186.523 93.3 185.643 93.2067 184.777 93.02C183.91 92.8467 183.19 92.6 182.617 92.28V86.66H187.677V88.88H185.597V90.6C186.01 90.8267 186.617 90.94 187.417 90.94C189.537 90.94 190.597 89.8333 190.597 87.62C190.597 86.4867 190.29 85.66 189.677 85.14C189.063 84.62 188.03 84.36 186.577 84.36C185.91 84.36 185.223 84.4333 184.517 84.58C183.823 84.7133 183.237 84.9067 182.757 85.16V82.8C183.303 82.5467 183.963 82.3533 184.737 82.22C185.51 82.0733 186.317 82 187.157 82C189.303 82 190.93 82.4933 192.037 83.48C193.157 84.4533 193.717 85.8333 193.717 87.62C193.717 89.38 193.17 90.7667 192.077 91.78C190.983 92.7933 189.43 93.3 187.417 93.3ZM194.999 83.64H198.019L200.299 90.74C201.286 90.74 202.046 90.4467 202.579 89.86C203.113 89.26 203.379 88.4133 203.379 87.32C203.379 86.3333 203.193 85.5933 202.819 85.1C202.446 84.6067 201.873 84.36 201.099 84.36C200.673 84.36 200.246 84.4267 199.819 84.56V82.28C200.379 82.0933 201.013 82 201.719 82C203.306 82 204.493 82.4667 205.279 83.4C206.079 84.32 206.479 85.6267 206.479 87.32C206.479 88.5067 206.219 89.5267 205.699 90.38C205.179 91.2333 204.473 91.8867 203.579 92.34C202.699 92.78 201.733 93 200.679 93H197.999L194.999 83.64ZM208.173 86.58C208.173 85.1 208.666 83.9667 209.653 83.18C210.653 82.3933 211.993 82 213.673 82C215.353 82 216.686 82.3933 217.673 83.18C218.659 83.9667 219.153 85.1 219.153 86.58V93H216.113V86.56C216.113 85.8267 215.899 85.28 215.473 84.92C215.059 84.5467 214.459 84.36 213.673 84.36C212.873 84.36 212.259 84.5467 211.833 84.92C211.419 85.28 211.213 85.8267 211.213 86.56V88.08C211.373 87.84 211.606 87.6533 211.913 87.52C212.233 87.3733 212.586 87.3 212.973 87.3H214.533V89.62H212.813C212.346 89.62 211.959 89.7667 211.653 90.06C211.359 90.3533 211.213 90.7333 211.213 91.2V93H208.173V86.58ZM216.519 96.52C216.519 96.28 216.473 96.1067 216.379 96C216.286 95.9067 216.119 95.86 215.879 95.86H215.219V93.94H217.319C218.039 93.94 218.539 94.0867 218.819 94.38C219.086 94.6733 219.219 95.18 219.219 95.9V98.48H216.519V96.52ZM232.719 93.3C231.453 93.3 230.473 92.9133 229.779 92.14C229.086 91.3667 228.739 90.38 228.739 89.18V86.56C228.739 85.8133 228.566 85.26 228.219 84.9C227.873 84.54 227.339 84.36 226.619 84.36C226.086 84.36 225.613 84.44 225.199 84.6C224.799 84.76 224.413 85.02 224.039 85.38L224.819 86.66V89.8C224.819 90.12 224.893 90.3467 225.039 90.48C225.186 90.6133 225.426 90.68 225.759 90.68H226.779V93H224.099C223.366 93 222.799 92.7933 222.399 92.38C221.999 91.9533 221.799 91.3667 221.799 90.62V86.62L220.799 84.92C221.559 83.9733 222.413 83.2533 223.359 82.76C224.306 82.2533 225.393 82 226.619 82C228.273 82 229.539 82.3867 230.419 83.16C231.299 83.92 231.739 84.9733 231.739 86.32V89C231.739 90.2933 232.379 90.94 233.659 90.94C234.166 90.94 234.619 90.82 235.019 90.58C235.419 90.3267 235.746 89.9667 235.999 89.5V82.3H239.019V93H236.159V91.82C235.719 92.3133 235.206 92.6867 234.619 92.94C234.033 93.18 233.399 93.3 232.719 93.3Z" fill="black"/>
<rect x="31.5" y="155.5" width="326" height="43" rx="7.5" fill="white"/>
<rect x="31.5" y="155.5" width="326" height="43" rx="7.5" stroke="#D3D3D3"/>
<path d="M49.682 182.21C49.1033 182.21 48.5433 182.14 48.002 182C47.4607 181.869 47.0033 181.683 46.63 181.44V177.716H49.738V178.864H48.058V180.726C48.4593 180.969 49.0007 181.09 49.682 181.09C50.578 181.09 51.2593 180.843 51.726 180.348C52.202 179.853 52.44 179.135 52.44 178.192C52.44 177.249 52.1973 176.554 51.712 176.106C51.236 175.658 50.452 175.434 49.36 175.434C48.8653 175.434 48.38 175.485 47.904 175.588C47.428 175.681 47.0267 175.835 46.7 176.05V174.916C47.064 174.711 47.4933 174.557 47.988 174.454C48.4827 174.351 49.0147 174.3 49.584 174.3C50.984 174.3 52.0527 174.641 52.79 175.322C53.5273 176.003 53.896 176.96 53.896 178.192C53.896 179.433 53.5273 180.413 52.79 181.132C52.062 181.851 51.026 182.21 49.682 182.21ZM47.5592 172.438H52.3052V170.94H53.6073V173.404H47.5592V172.438ZM56.8413 182C56.3839 182 56.0339 181.874 55.7913 181.622C55.5579 181.361 55.4413 180.997 55.4413 180.53V174.51H56.8693V180.138C56.8693 180.39 56.9206 180.567 57.0233 180.67C57.1259 180.763 57.3033 180.81 57.5553 180.81H58.0593V182H56.8413ZM63.6715 182.21C63.1582 182.21 62.6682 182.107 62.2015 181.902C61.7442 181.697 61.3335 181.393 60.9695 180.992V182H59.5975V174.51H61.0255V179.802C61.5762 180.661 62.3322 181.09 63.2935 181.09C63.9002 181.09 64.3575 180.95 64.6655 180.67C64.9828 180.381 65.1415 179.956 65.1415 179.396V174.51H66.5695V179.452C66.5695 180.264 66.3128 180.927 65.7995 181.44C65.2862 181.953 64.5768 182.21 63.6715 182.21ZM70.8245 182.21C69.9938 182.21 69.3312 182.005 68.8365 181.594C68.3512 181.174 68.1085 180.581 68.1085 179.816C68.1085 179.06 68.3792 178.458 68.9205 178.01C69.4712 177.562 70.2132 177.338 71.1465 177.338C72.0705 177.338 72.9012 177.511 73.6385 177.856V177.282C73.6385 176.638 73.4612 176.171 73.1065 175.882C72.7612 175.583 72.1825 175.434 71.3705 175.434C70.9225 175.434 70.4838 175.476 70.0545 175.56C69.6252 175.644 69.2518 175.761 68.9345 175.91V174.79C69.2238 174.65 69.6158 174.533 70.1105 174.44C70.6145 174.347 71.1045 174.3 71.5805 174.3C72.7472 174.3 73.6198 174.566 74.1985 175.098C74.7772 175.63 75.0665 176.349 75.0665 177.254V182H73.6385V178.99C72.9572 178.645 72.1778 178.472 71.3005 178.472C70.6938 178.472 70.2458 178.584 69.9565 178.808C69.6765 179.032 69.5365 179.368 69.5365 179.816C69.5365 180.665 70.0825 181.09 71.1745 181.09C71.5105 181.09 71.8045 181.043 72.0565 180.95V182.056C71.7205 182.159 71.3098 182.21 70.8245 182.21Z" fill="#4E5256"/>
<rect x="89" y="228" width="217" height="44" rx="22" fill="#16AD78"/>
<path d="M163.912 255.24C162.579 255.24 161.512 255 160.712 254.52C159.912 254.029 159.512 253.331 159.512 252.424C159.512 252.008 159.624 251.635 159.848 251.304C160.083 250.963 160.392 250.717 160.776 250.568C160.424 250.387 160.136 250.125 159.912 249.784C159.699 249.443 159.592 249.069 159.592 248.664C159.592 247.917 159.853 247.32 160.376 246.872C160.909 246.424 161.677 246.2 162.68 246.2C162.989 246.2 163.293 246.221 163.592 246.264C163.901 246.307 164.136 246.355 164.296 246.408V248.232C164.147 248.168 163.965 248.115 163.752 248.072C163.549 248.029 163.363 248.008 163.192 248.008C162.445 248.008 162.072 248.285 162.072 248.84C162.072 249.128 162.163 249.347 162.344 249.496C162.536 249.635 162.829 249.704 163.224 249.704H164.296V251.416H163.224C162.413 251.416 162.008 251.736 162.008 252.376C162.008 252.717 162.168 252.984 162.488 253.176C162.819 253.357 163.293 253.448 163.912 253.448C164.659 253.448 165.203 253.299 165.544 253C165.896 252.691 166.072 252.232 166.072 251.624V246.424H168.504V251.608C168.504 252.216 168.349 252.797 168.04 253.352C167.731 253.896 167.235 254.349 166.552 254.712C165.869 255.064 164.989 255.24 163.912 255.24ZM161.12 243.848H164.096V242.152H165.776V243.848H166.848V242.152H168.512V245.384H161.12V243.848ZM173.504 255.24C172.81 255.24 172.213 255.096 171.712 254.808C171.21 254.52 170.826 254.125 170.56 253.624C170.304 253.123 170.176 252.563 170.176 251.944V246.44H172.608V251.8C172.608 252.835 173.157 253.352 174.256 253.352C174.704 253.352 175.088 253.261 175.408 253.08C175.738 252.888 176.026 252.595 176.272 252.2V246.44H178.688V255H176.384V254.04C176.01 254.435 175.568 254.733 175.056 254.936C174.554 255.139 174.037 255.24 173.504 255.24ZM184.443 255.24C183.11 255.24 182.043 255 181.243 254.52C180.443 254.029 180.043 253.331 180.043 252.424C180.043 252.008 180.155 251.635 180.379 251.304C180.614 250.963 180.923 250.717 181.307 250.568C180.955 250.387 180.667 250.125 180.443 249.784C180.23 249.443 180.123 249.069 180.123 248.664C180.123 247.917 180.385 247.32 180.907 246.872C181.441 246.424 182.209 246.2 183.211 246.2C183.521 246.2 183.825 246.221 184.123 246.264C184.433 246.307 184.667 246.355 184.827 246.408V248.232C184.678 248.168 184.497 248.115 184.283 248.072C184.081 248.029 183.894 248.008 183.723 248.008C182.977 248.008 182.603 248.285 182.603 248.84C182.603 249.128 182.694 249.347 182.875 249.496C183.067 249.635 183.361 249.704 183.755 249.704H184.827V251.416H183.755C182.945 251.416 182.539 251.736 182.539 252.376C182.539 252.717 182.699 252.984 183.019 253.176C183.35 253.357 183.825 253.448 184.443 253.448C185.19 253.448 185.734 253.299 186.075 253C186.427 252.691 186.603 252.232 186.603 251.624V246.424H189.035V251.608C189.035 252.216 188.881 252.797 188.571 253.352C188.262 253.896 187.766 254.349 187.083 254.712C186.401 255.064 185.521 255.24 184.443 255.24ZM185.731 245.384C184.707 245.384 184.195 244.867 184.195 243.832V242.664H186.371V243.448C186.371 243.597 186.403 243.704 186.467 243.768C186.52 243.821 186.627 243.848 186.787 243.848H190.435V245.384H185.731ZM194.035 255.24C193.342 255.24 192.744 255.096 192.243 254.808C191.742 254.52 191.358 254.125 191.091 253.624C190.835 253.123 190.707 252.563 190.707 251.944V246.44H193.139V251.8C193.139 252.835 193.688 253.352 194.787 253.352C195.235 253.352 195.619 253.261 195.939 253.08C196.27 252.888 196.558 252.595 196.803 252.2V246.44H199.219V255H196.915V254.04C196.542 254.435 196.099 254.733 195.587 254.936C195.086 255.139 194.568 255.24 194.035 255.24ZM204.415 255.24C203.7 255.24 202.996 255.165 202.303 255.016C201.609 254.877 201.033 254.68 200.575 254.424V249.928H204.623V251.704H202.959V253.08C203.289 253.261 203.775 253.352 204.415 253.352C206.111 253.352 206.959 252.467 206.959 250.696C206.959 249.789 206.713 249.128 206.223 248.712C205.732 248.296 204.905 248.088 203.743 248.088C203.209 248.088 202.66 248.147 202.095 248.264C201.54 248.371 201.071 248.525 200.687 248.728V246.84C201.124 246.637 201.652 246.483 202.271 246.376C202.889 246.259 203.535 246.2 204.207 246.2C205.924 246.2 207.225 246.595 208.111 247.384C209.007 248.163 209.455 249.267 209.455 250.696C209.455 252.104 209.017 253.213 208.142 254.024C207.268 254.835 206.025 255.24 204.415 255.24ZM201.729 243.848H206.945V242.152H209.137V245.384H201.729V243.848ZM212.625 255C212.038 255 211.585 254.835 211.265 254.504C210.955 254.163 210.801 253.693 210.801 253.096V246.44H213.233V252.44C213.233 252.696 213.286 252.877 213.393 252.984C213.499 253.091 213.675 253.144 213.921 253.144H214.481V255H212.625ZM220.969 255.24C220.436 255.24 219.918 255.139 219.417 254.936C218.916 254.733 218.478 254.435 218.105 254.04V255H215.785V246.44H218.217V252.2C218.452 252.595 218.734 252.888 219.065 253.08C219.396 253.261 219.785 253.352 220.233 253.352C221.332 253.352 221.881 252.835 221.881 251.8V246.44H224.297V251.944C224.297 252.563 224.169 253.123 223.913 253.624C223.657 254.125 223.278 254.52 222.777 254.808C222.276 255.096 221.673 255.24 220.969 255.24ZM228.869 255.24C227.887 255.24 227.103 254.995 226.517 254.504C225.941 254.013 225.653 253.32 225.653 252.424C225.653 251.528 225.967 250.824 226.597 250.312C227.237 249.8 228.111 249.544 229.221 249.544C230.255 249.544 231.141 249.715 231.877 250.056V249.72C231.877 249.144 231.685 248.717 231.301 248.44C230.927 248.163 230.319 248.024 229.477 248.024C228.954 248.024 228.442 248.077 227.941 248.184C227.439 248.291 226.991 248.44 226.597 248.632V246.808C226.949 246.637 227.434 246.493 228.053 246.376C228.671 246.259 229.295 246.2 229.925 246.2C231.354 246.2 232.437 246.52 233.173 247.16C233.919 247.789 234.293 248.637 234.293 249.704V255H231.877V251.816C231.258 251.496 230.533 251.336 229.701 251.336C229.157 251.336 228.757 251.427 228.501 251.608C228.255 251.789 228.133 252.072 228.133 252.456C228.133 252.808 228.245 253.075 228.469 253.256C228.703 253.427 229.071 253.512 229.573 253.512C229.925 253.512 230.223 253.459 230.469 253.352V255.032C230.053 255.171 229.519 255.24 228.869 255.24Z" fill="white"/>
</svg>
