<svg width="390" height="849" viewBox="0 0 390 849" fill="none" xmlns="http://www.w3.org/2000/svg">
<rect y="5" width="390" height="844" rx="32" fill="white"/>
<path fill-rule="evenodd" clip-rule="evenodd" d="M121 838.5C121 837.119 122.119 836 123.5 836H266.5C267.881 836 269 837.119 269 838.5C269 839.881 267.881 841 266.5 841H123.5C122.119 841 121 839.881 121 838.5Z" fill="#090A0A"/>
<path d="M54.0688 36V26.1304H53.9194L50.9395 28.2305V26.2217L54.0688 24.022H56.2021V36H54.0688ZM63.4219 36.2988C62.4701 36.2988 61.6538 36.0443 60.9731 35.5352C60.298 35.026 59.7778 34.3011 59.4126 33.3604C59.0474 32.4196 58.8647 31.3045 58.8647 30.0151V29.9985C58.8647 28.7091 59.0474 27.5968 59.4126 26.6616C59.7778 25.7209 60.298 24.9959 60.9731 24.4868C61.6538 23.9777 62.4701 23.7231 63.4219 23.7231C64.3737 23.7231 65.1899 23.9777 65.8706 24.4868C66.5513 24.9959 67.0742 25.7209 67.4395 26.6616C67.8047 27.5968 67.9873 28.7091 67.9873 29.9985V30.0151C67.9873 31.3045 67.8047 32.4196 67.4395 33.3604C67.0742 34.3011 66.5513 35.026 65.8706 35.5352C65.1899 36.0443 64.3737 36.2988 63.4219 36.2988ZM63.4219 34.564C63.931 34.564 64.3654 34.3813 64.7251 34.0161C65.0848 33.6509 65.3587 33.1307 65.5469 32.4556C65.7406 31.7749 65.8374 30.9614 65.8374 30.0151V29.9985C65.8374 29.0522 65.7406 28.2415 65.5469 27.5664C65.3587 26.8857 65.0848 26.3656 64.7251 26.0059C64.3654 25.6406 63.931 25.458 63.4219 25.458C62.9128 25.458 62.4784 25.6406 62.1187 26.0059C61.7645 26.3656 61.4906 26.8857 61.2969 27.5664C61.1087 28.2415 61.0146 29.0522 61.0146 29.9985V30.0151C61.0146 30.9614 61.1087 31.7749 61.2969 32.4556C61.4906 33.1307 61.7645 33.6509 62.1187 34.0161C62.4784 34.3813 62.9128 34.564 63.4219 34.564ZM71.2974 34.3896C70.9211 34.3896 70.6056 34.2651 70.3511 34.0161C70.1021 33.7616 69.9775 33.4517 69.9775 33.0864C69.9775 32.7157 70.1021 32.4058 70.3511 32.1567C70.6056 31.9022 70.9211 31.7749 71.2974 31.7749C71.6792 31.7749 71.9946 31.9022 72.2437 32.1567C72.4927 32.4058 72.6172 32.7157 72.6172 33.0864C72.6172 33.4517 72.4927 33.7616 72.2437 34.0161C71.9946 34.2651 71.6792 34.3896 71.2974 34.3896ZM71.2974 28.2305C70.9211 28.2305 70.6056 28.106 70.3511 27.8569C70.1021 27.6024 69.9775 27.2925 69.9775 26.9272C69.9775 26.5565 70.1021 26.2466 70.3511 25.9976C70.6056 25.743 70.9211 25.6157 71.2974 25.6157C71.6792 25.6157 71.9946 25.743 72.2437 25.9976C72.4927 26.2466 72.6172 26.5565 72.6172 26.9272C72.6172 27.2925 72.4927 27.6024 72.2437 27.8569C71.9946 28.106 71.6792 28.2305 71.2974 28.2305ZM79.1562 36.2988C78.2044 36.2988 77.3882 36.0443 76.7075 35.5352C76.0324 35.026 75.5122 34.3011 75.147 33.3604C74.7817 32.4196 74.5991 31.3045 74.5991 30.0151V29.9985C74.5991 28.7091 74.7817 27.5968 75.147 26.6616C75.5122 25.7209 76.0324 24.9959 76.7075 24.4868C77.3882 23.9777 78.2044 23.7231 79.1562 23.7231C80.1081 23.7231 80.9243 23.9777 81.605 24.4868C82.2856 24.9959 82.8086 25.7209 83.1738 26.6616C83.5391 27.5968 83.7217 28.7091 83.7217 29.9985V30.0151C83.7217 31.3045 83.5391 32.4196 83.1738 33.3604C82.8086 34.3011 82.2856 35.026 81.605 35.5352C80.9243 36.0443 80.1081 36.2988 79.1562 36.2988ZM79.1562 34.564C79.6654 34.564 80.0998 34.3813 80.4595 34.0161C80.8192 33.6509 81.0931 33.1307 81.2812 32.4556C81.4749 31.7749 81.5718 30.9614 81.5718 30.0151V29.9985C81.5718 29.0522 81.4749 28.2415 81.2812 27.5664C81.0931 26.8857 80.8192 26.3656 80.4595 26.0059C80.0998 25.6406 79.6654 25.458 79.1562 25.458C78.6471 25.458 78.2127 25.6406 77.853 26.0059C77.4989 26.3656 77.2249 26.8857 77.0312 27.5664C76.8431 28.2415 76.749 29.0522 76.749 29.9985V30.0151C76.749 30.9614 76.8431 31.7749 77.0312 32.4556C77.2249 33.1307 77.4989 33.6509 77.853 34.0161C78.2127 34.3813 78.6471 34.564 79.1562 34.564ZM89.9619 36.2988C89.0101 36.2988 88.1938 36.0443 87.5132 35.5352C86.8381 35.026 86.3179 34.3011 85.9526 33.3604C85.5874 32.4196 85.4048 31.3045 85.4048 30.0151V29.9985C85.4048 28.7091 85.5874 27.5968 85.9526 26.6616C86.3179 25.7209 86.8381 24.9959 87.5132 24.4868C88.1938 23.9777 89.0101 23.7231 89.9619 23.7231C90.9137 23.7231 91.73 23.9777 92.4106 24.4868C93.0913 24.9959 93.6143 25.7209 93.9795 26.6616C94.3447 27.5968 94.5273 28.7091 94.5273 29.9985V30.0151C94.5273 31.3045 94.3447 32.4196 93.9795 33.3604C93.6143 34.3011 93.0913 35.026 92.4106 35.5352C91.73 36.0443 90.9137 36.2988 89.9619 36.2988ZM89.9619 34.564C90.471 34.564 90.9054 34.3813 91.2651 34.0161C91.6248 33.6509 91.8988 33.1307 92.0869 32.4556C92.2806 31.7749 92.3774 30.9614 92.3774 30.0151V29.9985C92.3774 29.0522 92.2806 28.2415 92.0869 27.5664C91.8988 26.8857 91.6248 26.3656 91.2651 26.0059C90.9054 25.6406 90.471 25.458 89.9619 25.458C89.4528 25.458 89.0184 25.6406 88.6587 26.0059C88.3045 26.3656 88.0306 26.8857 87.8369 27.5664C87.6488 28.2415 87.5547 29.0522 87.5547 29.9985V30.0151C87.5547 30.9614 87.6488 31.7749 87.8369 32.4556C88.0306 33.1307 88.3045 33.6509 88.6587 34.0161C89.0184 34.3813 89.4528 34.564 89.9619 34.564Z" fill="black"/>
<path d="M288.333 31C288.977 31 289.5 31.5037 289.5 32.125V34.375C289.5 34.9963 288.977 35.5 288.333 35.5H287.167C286.523 35.5 286 34.9963 286 34.375V32.125C286 31.5037 286.523 31 287.167 31H288.333ZM293.823 28.75C294.468 28.75 294.99 29.2537 294.99 29.875V34.375C294.99 34.9963 294.468 35.5 293.823 35.5H292.657C292.013 35.5 291.49 34.9963 291.49 34.375V29.875C291.49 29.2537 292.013 28.75 292.657 28.75H293.823ZM299.313 26.125C299.958 26.125 300.48 26.6287 300.48 27.25V34.375C300.48 34.9963 299.958 35.5 299.313 35.5H298.147C297.503 35.5 296.98 34.9963 296.98 34.375V27.25C296.981 26.6287 297.503 26.125 298.147 26.125H299.313ZM304.804 23.5C305.448 23.5 305.971 24.0037 305.971 24.625V34.375C305.971 34.9963 305.448 35.5 304.804 35.5H303.638C302.993 35.5 302.471 34.9963 302.471 34.375V24.625C302.471 24.0037 302.993 23.5 303.638 23.5H304.804Z" fill="black"/>
<path d="M318.512 32.8262C319.932 31.5964 322.011 31.5964 323.431 32.8262C323.502 32.8924 323.544 32.9855 323.546 33.084C323.548 33.1826 323.51 33.2777 323.441 33.3467L321.218 35.6446C321.153 35.7121 321.063 35.7501 320.971 35.7501C320.878 35.7499 320.79 35.7119 320.725 35.6446L318.501 33.3467C318.432 33.2776 318.394 33.1826 318.396 33.084C318.399 32.9855 318.44 32.8923 318.512 32.8262ZM315.545 29.7608C318.604 26.8467 323.341 26.8467 326.4 29.7608C326.469 29.829 326.509 29.9225 326.51 30.0206C326.511 30.1188 326.473 30.2135 326.405 30.2833L325.12 31.6133C324.988 31.7491 324.774 31.7524 324.638 31.6202C323.633 30.6886 322.326 30.1728 320.971 30.1729C319.617 30.1736 318.311 30.6895 317.308 31.6202C317.172 31.7524 316.958 31.7491 316.825 31.6133L315.54 30.2833C315.472 30.2136 315.435 30.1189 315.436 30.0206C315.437 29.9224 315.476 29.829 315.545 29.7608ZM312.578 26.7032C317.27 22.0989 324.671 22.099 329.363 26.7032C329.431 26.7716 329.47 26.8654 329.471 26.963C329.471 27.0605 329.433 27.1545 329.366 27.2237L328.08 28.5538C327.947 28.6901 327.732 28.691 327.598 28.5567C325.81 26.8164 323.437 25.8459 320.971 25.8458C318.504 25.8459 316.131 26.8163 314.344 28.5567C314.209 28.6913 313.994 28.6904 313.861 28.5538L312.574 27.2237C312.507 27.1545 312.47 27.0605 312.471 26.963C312.471 26.8654 312.51 26.7715 312.578 26.7032Z" fill="black"/>
<rect opacity="0.4" x="336.471" y="23.5" width="24" height="12" rx="3.5" stroke="black"/>
<path opacity="0.5" d="M361.971 27.5V31.5C362.777 31.1612 363.301 30.3731 363.301 29.5C363.301 28.6269 362.777 27.8388 361.971 27.5Z" fill="black"/>
<rect x="337.971" y="25" width="17" height="9" rx="2" fill="black"/>
<path d="M42.8095 99.5268C42.068 100.323 40.8068 100.323 40.0652 99.5268L28.2697 86.8632C27.5544 86.0952 27.5544 84.9048 28.2697 84.1368L40.0652 71.4732C40.8068 70.677 42.068 70.677 42.8095 71.4732C43.4802 72.1932 43.4802 73.3093 42.8095 74.0293L33.395 84.1368C32.6796 84.9048 32.6796 86.0952 33.395 86.8632L42.8095 96.9707C43.4802 97.6907 43.4802 98.8068 42.8095 99.5268Z" fill="#535353"/>
<path d="M95.44 93.3C94.5467 93.3 93.6667 93.2067 92.8 93.02C91.9333 92.8467 91.2133 92.6 90.64 92.28V86.66H95.7V88.88H93.62V90.6C94.0333 90.8267 94.64 90.94 95.44 90.94C97.56 90.94 98.62 89.8333 98.62 87.62C98.62 86.4867 98.3133 85.66 97.7 85.14C97.0867 84.62 96.0533 84.36 94.6 84.36C93.9333 84.36 93.2467 84.4333 92.54 84.58C91.8467 84.7133 91.26 84.9067 90.78 85.16V82.8C91.3267 82.5467 91.9867 82.3533 92.76 82.22C93.5333 82.0733 94.34 82 95.18 82C97.3267 82 98.9533 82.4933 100.06 83.48C101.18 84.4533 101.74 85.8333 101.74 87.62C101.74 89.38 101.193 90.7667 100.1 91.78C99.0067 92.7933 97.4533 93.3 95.44 93.3ZM97.2028 80.98C95.9228 80.98 95.2828 80.3333 95.2828 79.04V77.58H98.0028V78.56C98.0028 78.7467 98.0428 78.88 98.1228 78.96C98.1895 79.0267 98.3228 79.06 98.5228 79.06H103.083V80.98H97.2028ZM108.923 93.3C107.816 93.3 106.849 93.1067 106.023 92.72C105.196 92.32 104.556 91.7733 104.103 91.08C103.649 90.3867 103.423 89.6 103.423 88.72V82.3H106.463V88.52C106.463 89.2933 106.663 89.8933 107.063 90.32C107.476 90.7333 108.096 90.94 108.923 90.94C109.749 90.94 110.363 90.7333 110.763 90.32C111.163 89.8933 111.363 89.2933 111.363 88.52V78.72H114.403V88.72C114.403 89.6 114.176 90.3867 113.723 91.08C113.269 91.7733 112.629 92.32 111.803 92.72C110.976 93.1067 110.016 93.3 108.923 93.3ZM118.769 93C118.036 93 117.469 92.7933 117.069 92.38C116.683 91.9533 116.489 91.3667 116.489 90.62V82.3H119.529V89.8C119.529 90.12 119.596 90.3467 119.729 90.48C119.863 90.6133 120.083 90.68 120.389 90.68H121.089V93H118.769ZM127.68 93.3C126.026 93.3 124.72 92.84 123.76 91.92C122.8 91 122.32 89.6533 122.32 87.88C122.32 86.0267 122.873 84.5867 123.98 83.56C125.086 82.52 126.613 82 128.56 82C130.573 82 132.053 82.4667 133 83.4C133.96 84.3333 134.44 85.56 134.44 87.08V93H131.42V87.06C131.42 86.18 131.193 85.5133 130.74 85.06C130.3 84.5933 129.573 84.36 128.56 84.36C127.6 84.36 126.84 84.66 126.28 85.26C125.72 85.86 125.44 86.7333 125.44 87.88C125.44 88.9333 125.666 89.7067 126.12 90.2C126.586 90.6933 127.293 90.94 128.24 90.94C128.746 90.94 129.2 90.8667 129.6 90.72V93.04C129.08 93.2133 128.44 93.3 127.68 93.3ZM141.508 93.3C139.854 93.3 138.548 92.8467 137.588 91.94C136.628 91.02 136.148 89.6733 136.148 87.9C136.148 86.6867 136.321 85.64 136.668 84.76C137.014 83.8667 137.501 83.1867 138.128 82.72C138.768 82.24 139.501 82 140.328 82C140.821 82 141.248 82.0933 141.608 82.28C141.981 82.4667 142.281 82.7267 142.508 83.06C142.761 82.7 143.108 82.4333 143.548 82.26C144.001 82.0867 144.508 82 145.068 82C146.081 82 146.868 82.3133 147.428 82.94C147.988 83.5533 148.268 84.3667 148.268 85.38V93H145.248V85.68C145.248 85.2267 145.174 84.8933 145.028 84.68C144.894 84.4667 144.661 84.36 144.328 84.36C143.741 84.36 143.374 84.72 143.228 85.44H141.808C141.714 84.72 141.401 84.36 140.868 84.36C140.388 84.36 140.001 84.66 139.708 85.26C139.414 85.86 139.268 86.74 139.268 87.9C139.268 88.94 139.488 89.7067 139.928 90.2C140.381 90.6933 141.094 90.94 142.068 90.94C142.574 90.94 143.028 90.8667 143.428 90.72V93.04C142.908 93.2133 142.268 93.3 141.508 93.3ZM150.376 82.3H153.416V86.16L157.476 82.3H160.936L158.056 85.04C159.096 85.3333 159.823 85.7867 160.236 86.4C160.663 87.0133 160.876 87.8267 160.876 88.84V93H157.836V89.1C157.836 88.42 157.716 87.9133 157.476 87.58C157.249 87.2467 156.829 87.0067 156.216 86.86L153.416 89.48V93H150.376V82.3ZM169.454 93.3C168.787 93.3 168.14 93.1733 167.514 92.92C166.887 92.6667 166.34 92.2933 165.874 91.8V93H162.974V82.3H166.014V89.5C166.307 89.9933 166.66 90.36 167.074 90.6C167.487 90.8267 167.974 90.94 168.534 90.94C169.907 90.94 170.594 90.2933 170.594 89V82.3H173.614V89.18C173.614 89.9533 173.454 90.6533 173.134 91.28C172.814 91.9067 172.34 92.4 171.714 92.76C171.087 93.12 170.334 93.3 169.454 93.3ZM178.928 86.34C178.928 85.6467 178.781 85.1467 178.488 84.84C178.195 84.52 177.681 84.36 176.948 84.36C176.241 84.36 175.528 84.54 174.808 84.9V82.6C175.128 82.44 175.555 82.3 176.088 82.18C176.635 82.06 177.161 82 177.668 82C179.068 82 180.135 82.3733 180.868 83.12C181.601 83.8667 181.968 84.9467 181.968 86.36V93H178.928V86.34ZM189.148 93.3C187.481 93.3 186.148 93 185.148 92.4C184.148 91.7867 183.648 90.9133 183.648 89.78C183.648 89.26 183.788 88.7933 184.068 88.38C184.361 87.9533 184.748 87.6467 185.228 87.46C184.788 87.2333 184.428 86.9067 184.148 86.48C183.881 86.0533 183.748 85.5867 183.748 85.08C183.748 84.1467 184.074 83.4 184.728 82.84C185.394 82.28 186.354 82 187.608 82C187.994 82 188.374 82.0267 188.748 82.08C189.134 82.1333 189.428 82.1933 189.628 82.26V84.54C189.441 84.46 189.214 84.3933 188.948 84.34C188.694 84.2867 188.461 84.26 188.248 84.26C187.314 84.26 186.848 84.6067 186.848 85.3C186.848 85.66 186.961 85.9333 187.188 86.12C187.428 86.2933 187.794 86.38 188.288 86.38H189.628V88.52H188.288C187.274 88.52 186.768 88.92 186.768 89.72C186.768 90.1467 186.968 90.48 187.368 90.72C187.781 90.9467 188.374 91.06 189.148 91.06C190.081 91.06 190.761 90.8733 191.188 90.5C191.628 90.1133 191.848 89.54 191.848 88.78V82.28H194.888V88.76C194.888 89.52 194.694 90.2467 194.308 90.94C193.921 91.62 193.301 92.1867 192.448 92.64C191.594 93.08 190.494 93.3 189.148 93.3ZM199.258 93C198.524 93 197.958 92.7933 197.558 92.38C197.171 91.9533 196.978 91.3667 196.978 90.62V82.3H200.018V89.8C200.018 90.12 200.084 90.3467 200.218 90.48C200.351 90.6133 200.571 90.68 200.878 90.68H201.578V93H199.258ZM206.828 93.3C205.601 93.3 204.621 92.9933 203.888 92.38C203.168 91.7667 202.808 90.9 202.808 89.78C202.808 88.66 203.201 87.78 203.988 87.14C204.788 86.5 205.881 86.18 207.268 86.18C208.561 86.18 209.668 86.3933 210.588 86.82V86.4C210.588 85.68 210.348 85.1467 209.868 84.8C209.401 84.4533 208.641 84.28 207.588 84.28C206.935 84.28 206.295 84.3467 205.668 84.48C205.041 84.6133 204.481 84.8 203.988 85.04V82.76C204.428 82.5467 205.035 82.3667 205.808 82.22C206.581 82.0733 207.361 82 208.148 82C209.935 82 211.288 82.4 212.208 83.2C213.141 83.9867 213.608 85.0467 213.608 86.38V93H210.588V89.02C209.815 88.62 208.908 88.42 207.868 88.42C207.188 88.42 206.688 88.5333 206.368 88.76C206.061 88.9867 205.908 89.34 205.908 89.82C205.908 90.26 206.048 90.5933 206.328 90.82C206.621 91.0333 207.081 91.14 207.708 91.14C208.148 91.14 208.521 91.0733 208.828 90.94V93.04C208.308 93.2133 207.641 93.3 206.828 93.3ZM220.608 93.3C219.542 93.3 218.615 93.1333 217.828 92.8C217.055 92.4667 216.462 92 216.048 91.4C215.635 90.8 215.428 90.12 215.428 89.36V88.86C215.428 88.38 215.522 87.9533 215.708 87.58C215.895 87.1933 216.155 86.76 216.488 86.28C216.702 85.9867 216.855 85.7533 216.948 85.58C217.042 85.3933 217.088 85.22 217.088 85.06C217.088 84.6867 216.862 84.5 216.408 84.5H215.288V82.3H218.188C218.788 82.3 219.268 82.4733 219.628 82.82C219.988 83.1667 220.168 83.62 220.168 84.18C220.168 84.58 220.095 84.9533 219.948 85.3C219.802 85.6333 219.582 86.02 219.288 86.46C219.008 86.9 218.795 87.2733 218.648 87.58C218.515 87.8867 218.448 88.22 218.448 88.58V89C218.448 89.6267 218.628 90.1067 218.988 90.44C219.362 90.7733 219.902 90.94 220.608 90.94C222.008 90.94 222.708 90.2667 222.708 88.92V82.3H225.748V88.6C225.748 90.0533 225.302 91.2 224.408 92.04C223.528 92.88 222.262 93.3 220.608 93.3ZM231.017 93C230.284 93 229.717 92.7933 229.317 92.38C228.93 91.9533 228.737 91.3667 228.737 90.62V83.44C228.737 82.5333 228.564 81.8267 228.217 81.32C227.87 80.8 227.31 80.3933 226.537 80.1V77.96H233.677V80.3H230.457C231.337 80.98 231.777 82.0467 231.777 83.5V89.8C231.777 90.12 231.844 90.3467 231.977 90.48C232.11 90.6133 232.33 90.68 232.637 90.68H233.337V93H231.017ZM234.751 82.3H237.651V83.52C238.131 83.04 238.698 82.6667 239.351 82.4C240.004 82.1333 240.658 82 241.311 82C242.658 82 243.671 82.3667 244.351 83.1C245.044 83.82 245.391 84.7733 245.391 85.96V93H242.371V86.22C242.371 84.98 241.718 84.36 240.411 84.36C239.864 84.36 239.364 84.48 238.911 84.72C238.471 84.96 238.098 85.3267 237.791 85.82V93H234.751V82.3ZM251.485 93.3C250.699 93.3 249.899 93.22 249.085 93.06C248.285 92.9133 247.652 92.6867 247.185 92.38V90.06C247.772 90.4067 248.425 90.6733 249.145 90.86C249.879 91.0467 250.539 91.14 251.125 91.14C251.832 91.14 252.345 91.0733 252.665 90.94C252.999 90.7933 253.165 90.54 253.165 90.18C253.165 89.86 253.005 89.6133 252.685 89.44C252.379 89.2667 251.799 89.0467 250.945 88.78L250.445 88.62C249.299 88.26 248.452 87.8267 247.905 87.32C247.359 86.8133 247.085 86.12 247.085 85.24C247.085 84.2133 247.499 83.42 248.325 82.86C249.152 82.2867 250.265 82 251.665 82C252.425 82 253.159 82.08 253.865 82.24C254.572 82.4 255.139 82.6067 255.565 82.86V85.24C255.139 84.9467 254.605 84.7133 253.965 84.54C253.339 84.3533 252.719 84.26 252.105 84.26C250.812 84.26 250.165 84.5867 250.165 85.24C250.165 85.56 250.319 85.8067 250.625 85.98C250.932 86.1533 251.479 86.36 252.265 86.6L252.985 86.82C253.825 87.0867 254.479 87.38 254.945 87.7C255.425 88.02 255.759 88.38 255.945 88.78C256.132 89.18 256.225 89.6667 256.225 90.24C256.225 91.16 255.825 91.9 255.025 92.46C254.239 93.02 253.059 93.3 251.485 93.3ZM257.915 86.58C257.915 85.1 258.408 83.9667 259.395 83.18C260.395 82.3933 261.735 82 263.415 82C264.268 82 265.035 82.12 265.715 82.36L266.435 81.5H269.735L267.855 83.66C268.548 84.3533 268.895 85.3267 268.895 86.58V93H265.855V86.56C265.855 85.8267 265.642 85.28 265.215 84.92C264.802 84.5467 264.202 84.36 263.415 84.36C262.615 84.36 262.002 84.5467 261.575 84.92C261.162 85.28 260.955 85.8267 260.955 86.56V88.08C261.115 87.84 261.348 87.6533 261.655 87.52C261.975 87.3733 262.328 87.3 262.715 87.3H264.275V89.62H262.555C262.088 89.62 261.702 89.7667 261.395 90.06C261.102 90.3533 260.955 90.7333 260.955 91.2V93H257.915V86.58ZM264.996 80.98C263.716 80.98 263.076 80.3333 263.076 79.04V77.58H265.796V78.56C265.796 78.7467 265.836 78.88 265.916 78.96C265.982 79.0267 266.116 79.06 266.316 79.06H270.876V80.98H264.996ZM270.616 82.3H273.656L275.156 88.84L276.996 82.3H279.196L281.036 88.84L282.536 82.3H285.576L282.596 93H280.016L278.096 86.34L276.176 93H273.596L270.616 82.3ZM287.056 82.3H289.956V83.52C290.436 83.04 291.002 82.6667 291.656 82.4C292.309 82.1333 292.962 82 293.616 82C294.962 82 295.976 82.3667 296.656 83.1C297.349 83.82 297.696 84.7733 297.696 85.96V93H294.676V86.22C294.676 84.98 294.022 84.36 292.716 84.36C292.169 84.36 291.669 84.48 291.216 84.72C290.776 84.96 290.402 85.3267 290.096 85.82V93H287.056V82.3ZM292.29 79.46C292.29 78.8733 292.45 78.4333 292.77 78.14C293.077 77.8467 293.57 77.7 294.25 77.7H298.75V79.6H295.55C295.35 79.6 295.21 79.6467 295.13 79.74C295.037 79.82 294.99 79.96 294.99 80.16V80.98H292.29V79.46Z" fill="black"/>
<rect x="31.5" y="155.5" width="326" height="43" rx="7.5" fill="white"/>
<rect x="31.5" y="155.5" width="326" height="43" rx="7.5" stroke="#D3D3D3"/>
<path d="M48.31 182C47.8527 182 47.5027 181.874 47.26 181.622C47.0267 181.361 46.91 180.997 46.91 180.53V174.51H48.338V180.138C48.338 180.39 48.3893 180.567 48.492 180.67C48.5947 180.763 48.772 180.81 49.024 180.81H49.528V182H48.31ZM54.6643 182.21C53.9363 182.21 53.3016 182.079 52.7603 181.818C52.2189 181.557 51.7989 181.193 51.5003 180.726C51.2109 180.25 51.0663 179.709 51.0663 179.102V174.51H52.4943V179.074C52.4943 179.699 52.6763 180.194 53.0403 180.558C53.4136 180.913 53.9549 181.09 54.6643 181.09C55.3643 181.09 55.8963 180.913 56.2603 180.558C56.6336 180.194 56.8203 179.699 56.8203 179.074V174.51H58.2483V179.102C58.2483 179.709 58.0989 180.25 57.8003 180.726C57.5109 181.193 57.0956 181.557 56.5543 181.818C56.0129 182.079 55.3829 182.21 54.6643 182.21ZM62.8343 182.21C62.2557 182.21 61.6957 182.14 61.1543 182C60.613 181.869 60.1557 181.683 59.7823 181.44V177.716H62.8903V178.864H61.2103V180.726C61.6117 180.969 62.153 181.09 62.8343 181.09C63.7303 181.09 64.4117 180.843 64.8783 180.348C65.3543 179.853 65.5923 179.135 65.5923 178.192C65.5923 177.249 65.3497 176.554 64.8643 176.106C64.3883 175.658 63.6043 175.434 62.5123 175.434C62.0177 175.434 61.5323 175.485 61.0563 175.588C60.5803 175.681 60.179 175.835 59.8523 176.05V174.916C60.2163 174.711 60.6457 174.557 61.1403 174.454C61.635 174.351 62.167 174.3 62.7363 174.3C64.1363 174.3 65.205 174.641 65.9423 175.322C66.6797 176.003 67.0483 176.96 67.0483 178.192C67.0483 179.433 66.6797 180.413 65.9423 181.132C65.2143 181.851 64.1783 182.21 62.8343 182.21ZM71.1696 182.21C70.6563 182.21 70.1336 182.149 69.6016 182.028C69.0696 181.916 68.6543 181.748 68.3556 181.524V180.376C68.7569 180.619 69.1956 180.805 69.6716 180.936C70.1569 181.057 70.6189 181.118 71.0576 181.118C71.6736 181.118 72.1169 181.048 72.3876 180.908C72.6583 180.759 72.7936 180.507 72.7936 180.152C72.7936 179.909 72.7283 179.713 72.5976 179.564C72.4669 179.415 72.2663 179.284 71.9956 179.172C71.7343 179.06 71.3189 178.92 70.7496 178.752C69.9283 178.5 69.3169 178.206 68.9156 177.87C68.5143 177.525 68.3136 177.049 68.3136 176.442C68.3136 175.751 68.5796 175.224 69.1116 174.86C69.6436 174.487 70.3716 174.3 71.2956 174.3C71.7716 174.3 72.2289 174.356 72.6676 174.468C73.1156 174.571 73.4843 174.711 73.7736 174.888V176.064C73.4563 175.868 73.0923 175.714 72.6816 175.602C72.2709 175.49 71.8509 175.434 71.4216 175.434C70.3016 175.434 69.7416 175.77 69.7416 176.442C69.7416 176.694 69.8163 176.895 69.9656 177.044C70.1243 177.193 70.3296 177.319 70.5816 177.422C70.8429 177.515 71.2769 177.651 71.8836 177.828C72.4809 178.005 72.9476 178.197 73.2836 178.402C73.6196 178.607 73.8576 178.85 73.9976 179.13C74.1376 179.41 74.2076 179.755 74.2076 180.166C74.2076 180.782 73.9556 181.277 73.4516 181.65C72.9476 182.023 72.1869 182.21 71.1696 182.21ZM70.578 172.606C70.578 171.878 70.9747 171.514 71.768 171.514H74.862V172.452H72.328C72.16 172.452 72.0433 172.485 71.978 172.55C71.9127 172.615 71.88 172.732 71.88 172.9V173.404H70.578V172.606ZM77.83 182C77.3727 182 77.0227 181.874 76.78 181.622C76.5467 181.361 76.43 180.997 76.43 180.53V175.154C76.43 174.473 76.304 173.941 76.052 173.558C75.8 173.175 75.394 172.867 74.834 172.634V171.472H79.244V172.676H76.738C77.1207 172.928 77.4007 173.264 77.578 173.684C77.7647 174.104 77.858 174.608 77.858 175.196V180.138C77.858 180.39 77.9093 180.567 78.012 180.67C78.1147 180.763 78.292 180.81 78.544 180.81H79.048V182H77.83ZM80.3651 174.51H81.7371V175.518C82.1011 175.107 82.5257 174.804 83.0111 174.608C83.5057 174.403 84.0051 174.3 84.5091 174.3C85.4237 174.3 86.1237 174.552 86.6091 175.056C87.0944 175.56 87.3371 176.209 87.3371 177.002V182H85.9091V177.072C85.9091 176.549 85.7644 176.148 85.4751 175.868C85.1857 175.579 84.7377 175.434 84.1311 175.434C83.1137 175.434 82.3344 175.859 81.7931 176.708V182H80.3651V174.51ZM91.7321 182.21C91.2188 182.21 90.6961 182.149 90.1641 182.028C89.6321 181.916 89.2168 181.748 88.9181 181.524V180.376C89.3194 180.619 89.7581 180.805 90.2341 180.936C90.7194 181.057 91.1814 181.118 91.6201 181.118C92.2361 181.118 92.6794 181.048 92.9501 180.908C93.2208 180.759 93.3561 180.507 93.3561 180.152C93.3561 179.909 93.2908 179.713 93.1601 179.564C93.0294 179.415 92.8288 179.284 92.5581 179.172C92.2968 179.06 91.8814 178.92 91.3121 178.752C90.4908 178.5 89.8794 178.206 89.4781 177.87C89.0768 177.525 88.8761 177.049 88.8761 176.442C88.8761 175.751 89.1421 175.224 89.6741 174.86C90.2061 174.487 90.9341 174.3 91.8581 174.3C92.3341 174.3 92.7914 174.356 93.2301 174.468C93.6781 174.571 94.0468 174.711 94.3361 174.888V176.064C94.0188 175.868 93.6548 175.714 93.2441 175.602C92.8334 175.49 92.4134 175.434 91.9841 175.434C90.8641 175.434 90.3041 175.77 90.3041 176.442C90.3041 176.694 90.3788 176.895 90.5281 177.044C90.6868 177.193 90.8921 177.319 91.1441 177.422C91.4054 177.515 91.8394 177.651 92.4461 177.828C93.0434 178.005 93.5101 178.197 93.8461 178.402C94.1821 178.607 94.4201 178.85 94.5601 179.13C94.7001 179.41 94.7701 179.755 94.7701 180.166C94.7701 180.782 94.5181 181.277 94.0141 181.65C93.5101 182.023 92.7494 182.21 91.7321 182.21ZM96.3065 177.366C96.3065 176.395 96.6238 175.644 97.2585 175.112C97.8932 174.571 98.7658 174.3 99.8765 174.3C100.595 174.3 101.211 174.412 101.724 174.636L102.326 173.95H103.908L102.704 175.322C103.19 175.854 103.432 176.535 103.432 177.366V182H102.004V177.324C102.004 176.689 101.818 176.218 101.444 175.91C101.071 175.593 100.548 175.434 99.8765 175.434C99.1952 175.434 98.6678 175.593 98.2945 175.91C97.9212 176.218 97.7345 176.689 97.7345 177.324V178.752C97.8558 178.528 98.0472 178.351 98.3085 178.22C98.5698 178.08 98.8778 178.01 99.2325 178.01H100.352V179.186H99.1205C98.7285 179.186 98.3972 179.326 98.1265 179.606C97.8652 179.877 97.7345 180.189 97.7345 180.544V182H96.3065V177.366ZM100.851 173.404C100.449 173.404 100.16 173.306 99.9826 173.11C99.7959 172.905 99.7026 172.601 99.7026 172.2V171.472H100.991V172.032C100.991 172.191 101.023 172.298 101.089 172.354C101.145 172.41 101.257 172.438 101.425 172.438H104.729V173.404H100.851ZM104.883 174.51H106.311L107.669 179.998L109.293 174.51H110.385L111.995 179.998L113.367 174.51H114.795L112.709 182H111.505L109.839 176.372L108.159 182H106.955L104.883 174.51ZM116.199 174.51H117.571V175.518C117.935 175.107 118.36 174.804 118.845 174.608C119.34 174.403 119.839 174.3 120.343 174.3C121.258 174.3 121.958 174.552 122.443 175.056C122.928 175.56 123.171 176.209 123.171 177.002V182H121.743V177.072C121.743 176.549 121.598 176.148 121.309 175.868C121.02 175.579 120.572 175.434 119.965 175.434C118.948 175.434 118.168 175.859 117.627 176.708V182H116.199V174.51ZM119.824 172.606C119.824 171.878 120.221 171.514 121.014 171.514H124.108V172.452H121.574C121.406 172.452 121.289 172.485 121.224 172.55C121.159 172.615 121.126 172.732 121.126 172.9V173.404H119.824V172.606Z" fill="#4E5256"/>
<rect x="86" y="228" width="217" height="44" rx="22" fill="#16AD78"/>
<path d="M161.912 255.24C160.579 255.24 159.512 255 158.712 254.52C157.912 254.029 157.512 253.331 157.512 252.424C157.512 252.008 157.624 251.635 157.848 251.304C158.083 250.963 158.392 250.717 158.776 250.568C158.424 250.387 158.136 250.125 157.912 249.784C157.699 249.443 157.592 249.069 157.592 248.664C157.592 247.917 157.853 247.32 158.376 246.872C158.909 246.424 159.677 246.2 160.68 246.2C160.989 246.2 161.293 246.221 161.592 246.264C161.901 246.307 162.136 246.355 162.296 246.408V248.232C162.147 248.168 161.965 248.115 161.752 248.072C161.549 248.029 161.363 248.008 161.192 248.008C160.445 248.008 160.072 248.285 160.072 248.84C160.072 249.128 160.163 249.347 160.344 249.496C160.536 249.635 160.829 249.704 161.224 249.704H162.296V251.416H161.224C160.413 251.416 160.008 251.736 160.008 252.376C160.008 252.717 160.168 252.984 160.488 253.176C160.819 253.357 161.293 253.448 161.912 253.448C162.659 253.448 163.203 253.299 163.544 253C163.896 252.691 164.072 252.232 164.072 251.624V246.424H166.504V251.608C166.504 252.216 166.349 252.797 166.04 253.352C165.731 253.896 165.235 254.349 164.552 254.712C163.869 255.064 162.989 255.24 161.912 255.24ZM159.12 243.848H162.096V242.152H163.776V243.848H164.848V242.152H166.512V245.384H159.12V243.848ZM171.504 255.24C170.81 255.24 170.213 255.096 169.712 254.808C169.21 254.52 168.826 254.125 168.56 253.624C168.304 253.123 168.176 252.563 168.176 251.944V246.44H170.608V251.8C170.608 252.835 171.157 253.352 172.256 253.352C172.704 253.352 173.088 253.261 173.408 253.08C173.738 252.888 174.026 252.595 174.272 252.2V246.44H176.688V255H174.384V254.04C174.01 254.435 173.568 254.733 173.056 254.936C172.554 255.139 172.037 255.24 171.504 255.24ZM182.443 255.24C181.11 255.24 180.043 255 179.243 254.52C178.443 254.029 178.043 253.331 178.043 252.424C178.043 252.008 178.155 251.635 178.379 251.304C178.614 250.963 178.923 250.717 179.307 250.568C178.955 250.387 178.667 250.125 178.443 249.784C178.23 249.443 178.123 249.069 178.123 248.664C178.123 247.917 178.385 247.32 178.907 246.872C179.441 246.424 180.209 246.2 181.211 246.2C181.521 246.2 181.825 246.221 182.123 246.264C182.433 246.307 182.667 246.355 182.827 246.408V248.232C182.678 248.168 182.497 248.115 182.283 248.072C182.081 248.029 181.894 248.008 181.723 248.008C180.977 248.008 180.603 248.285 180.603 248.84C180.603 249.128 180.694 249.347 180.875 249.496C181.067 249.635 181.361 249.704 181.755 249.704H182.827V251.416H181.755C180.945 251.416 180.539 251.736 180.539 252.376C180.539 252.717 180.699 252.984 181.019 253.176C181.35 253.357 181.825 253.448 182.443 253.448C183.19 253.448 183.734 253.299 184.075 253C184.427 252.691 184.603 252.232 184.603 251.624V246.424H187.035V251.608C187.035 252.216 186.881 252.797 186.571 253.352C186.262 253.896 185.766 254.349 185.083 254.712C184.401 255.064 183.521 255.24 182.443 255.24ZM183.731 245.384C182.707 245.384 182.195 244.867 182.195 243.832V242.664H184.371V243.448C184.371 243.597 184.403 243.704 184.467 243.768C184.52 243.821 184.627 243.848 184.787 243.848H188.435V245.384H183.731ZM192.035 255.24C191.342 255.24 190.744 255.096 190.243 254.808C189.742 254.52 189.358 254.125 189.091 253.624C188.835 253.123 188.707 252.563 188.707 251.944V246.44H191.139V251.8C191.139 252.835 191.688 253.352 192.787 253.352C193.235 253.352 193.619 253.261 193.939 253.08C194.27 252.888 194.558 252.595 194.803 252.2V246.44H197.219V255H194.915V254.04C194.542 254.435 194.099 254.733 193.587 254.936C193.086 255.139 192.568 255.24 192.035 255.24ZM200.719 255C200.132 255 199.679 254.835 199.359 254.504C199.049 254.163 198.895 253.693 198.895 253.096V246.44H201.327V252.44C201.327 252.696 201.38 252.877 201.487 252.984C201.593 253.091 201.769 253.144 202.015 253.144H202.575V255H200.719ZM208.295 255.24C207.41 255.24 206.636 255.085 205.975 254.776C205.314 254.456 204.802 254.019 204.439 253.464C204.076 252.909 203.895 252.28 203.895 251.576V246.44H206.327V251.416C206.327 252.035 206.487 252.515 206.807 252.856C207.138 253.187 207.634 253.352 208.295 253.352C208.956 253.352 209.447 253.187 209.767 252.856C210.087 252.515 210.247 252.035 210.247 251.416V246.44H212.679V251.576C212.679 252.28 212.498 252.909 212.135 253.464C211.772 254.019 211.26 254.456 210.599 254.776C209.938 255.085 209.17 255.24 208.295 255.24ZM217.852 255.24C217.137 255.24 216.433 255.165 215.74 255.016C215.047 254.877 214.471 254.68 214.012 254.424V249.928H218.06V251.704H216.396V253.08C216.727 253.261 217.212 253.352 217.852 253.352C219.548 253.352 220.396 252.467 220.396 250.696C220.396 249.789 220.151 249.128 219.66 248.712C219.169 248.296 218.343 248.088 217.18 248.088C216.647 248.088 216.097 248.147 215.532 248.264C214.977 248.371 214.508 248.525 214.124 248.728V246.84C214.561 246.637 215.089 246.483 215.708 246.376C216.327 246.259 216.972 246.2 217.644 246.2C219.361 246.2 220.663 246.595 221.548 247.384C222.444 248.163 222.892 249.267 222.892 250.696C222.892 252.104 222.455 253.213 221.58 254.024C220.705 254.835 219.463 255.24 217.852 255.24ZM227.438 255.24C226.809 255.24 226.169 255.176 225.518 255.048C224.878 254.931 224.372 254.749 223.998 254.504V252.648C224.468 252.925 224.99 253.139 225.566 253.288C226.153 253.437 226.681 253.512 227.15 253.512C227.716 253.512 228.126 253.459 228.382 253.352C228.649 253.235 228.782 253.032 228.782 252.744C228.782 252.488 228.654 252.291 228.398 252.152C228.153 252.013 227.689 251.837 227.006 251.624L226.606 251.496C225.689 251.208 225.012 250.861 224.574 250.456C224.137 250.051 223.918 249.496 223.918 248.792C223.918 247.971 224.249 247.336 224.91 246.888C225.572 246.429 226.462 246.2 227.582 246.2C228.19 246.2 228.777 246.264 229.342 246.392C229.908 246.52 230.361 246.685 230.702 246.888V248.792C230.361 248.557 229.934 248.371 229.422 248.232C228.921 248.083 228.425 248.008 227.934 248.008C226.9 248.008 226.382 248.269 226.382 248.792C226.382 249.048 226.505 249.245 226.75 249.384C226.996 249.523 227.433 249.688 228.062 249.88L228.638 250.056C229.31 250.269 229.833 250.504 230.206 250.76C230.59 251.016 230.857 251.304 231.006 251.624C231.156 251.944 231.23 252.333 231.23 252.792C231.23 253.528 230.91 254.12 230.27 254.568C229.641 255.016 228.697 255.24 227.438 255.24ZM226.582 244.168C226.582 243.699 226.71 243.347 226.966 243.112C227.211 242.877 227.606 242.76 228.15 242.76H231.75V244.28H229.19C229.03 244.28 228.918 244.317 228.854 244.392C228.779 244.456 228.742 244.568 228.742 244.728V245.384H226.582V244.168Z" fill="white"/>
</svg>
