<svg width="390" height="849" viewBox="0 0 390 849" fill="none" xmlns="http://www.w3.org/2000/svg">
<rect y="5" width="390" height="844" rx="32" fill="white"/>
<path fill-rule="evenodd" clip-rule="evenodd" d="M121 838.5C121 837.119 122.119 836 123.5 836H266.5C267.881 836 269 837.119 269 838.5C269 839.881 267.881 841 266.5 841H123.5C122.119 841 121 839.881 121 838.5Z" fill="#090A0A"/>
<path d="M54.0688 36V26.1304H53.9194L50.9395 28.2305V26.2217L54.0688 24.022H56.2021V36H54.0688ZM63.4219 36.2988C62.4701 36.2988 61.6538 36.0443 60.9731 35.5352C60.298 35.026 59.7778 34.3011 59.4126 33.3604C59.0474 32.4196 58.8647 31.3045 58.8647 30.0151V29.9985C58.8647 28.7091 59.0474 27.5968 59.4126 26.6616C59.7778 25.7209 60.298 24.9959 60.9731 24.4868C61.6538 23.9777 62.4701 23.7231 63.4219 23.7231C64.3737 23.7231 65.1899 23.9777 65.8706 24.4868C66.5513 24.9959 67.0742 25.7209 67.4395 26.6616C67.8047 27.5968 67.9873 28.7091 67.9873 29.9985V30.0151C67.9873 31.3045 67.8047 32.4196 67.4395 33.3604C67.0742 34.3011 66.5513 35.026 65.8706 35.5352C65.1899 36.0443 64.3737 36.2988 63.4219 36.2988ZM63.4219 34.564C63.931 34.564 64.3654 34.3813 64.7251 34.0161C65.0848 33.6509 65.3587 33.1307 65.5469 32.4556C65.7406 31.7749 65.8374 30.9614 65.8374 30.0151V29.9985C65.8374 29.0522 65.7406 28.2415 65.5469 27.5664C65.3587 26.8857 65.0848 26.3656 64.7251 26.0059C64.3654 25.6406 63.931 25.458 63.4219 25.458C62.9128 25.458 62.4784 25.6406 62.1187 26.0059C61.7645 26.3656 61.4906 26.8857 61.2969 27.5664C61.1087 28.2415 61.0146 29.0522 61.0146 29.9985V30.0151C61.0146 30.9614 61.1087 31.7749 61.2969 32.4556C61.4906 33.1307 61.7645 33.6509 62.1187 34.0161C62.4784 34.3813 62.9128 34.564 63.4219 34.564ZM71.2974 34.3896C70.9211 34.3896 70.6056 34.2651 70.3511 34.0161C70.1021 33.7616 69.9775 33.4517 69.9775 33.0864C69.9775 32.7157 70.1021 32.4058 70.3511 32.1567C70.6056 31.9022 70.9211 31.7749 71.2974 31.7749C71.6792 31.7749 71.9946 31.9022 72.2437 32.1567C72.4927 32.4058 72.6172 32.7157 72.6172 33.0864C72.6172 33.4517 72.4927 33.7616 72.2437 34.0161C71.9946 34.2651 71.6792 34.3896 71.2974 34.3896ZM71.2974 28.2305C70.9211 28.2305 70.6056 28.106 70.3511 27.8569C70.1021 27.6024 69.9775 27.2925 69.9775 26.9272C69.9775 26.5565 70.1021 26.2466 70.3511 25.9976C70.6056 25.743 70.9211 25.6157 71.2974 25.6157C71.6792 25.6157 71.9946 25.743 72.2437 25.9976C72.4927 26.2466 72.6172 26.5565 72.6172 26.9272C72.6172 27.2925 72.4927 27.6024 72.2437 27.8569C71.9946 28.106 71.6792 28.2305 71.2974 28.2305ZM79.1562 36.2988C78.2044 36.2988 77.3882 36.0443 76.7075 35.5352C76.0324 35.026 75.5122 34.3011 75.147 33.3604C74.7817 32.4196 74.5991 31.3045 74.5991 30.0151V29.9985C74.5991 28.7091 74.7817 27.5968 75.147 26.6616C75.5122 25.7209 76.0324 24.9959 76.7075 24.4868C77.3882 23.9777 78.2044 23.7231 79.1562 23.7231C80.1081 23.7231 80.9243 23.9777 81.605 24.4868C82.2856 24.9959 82.8086 25.7209 83.1738 26.6616C83.5391 27.5968 83.7217 28.7091 83.7217 29.9985V30.0151C83.7217 31.3045 83.5391 32.4196 83.1738 33.3604C82.8086 34.3011 82.2856 35.026 81.605 35.5352C80.9243 36.0443 80.1081 36.2988 79.1562 36.2988ZM79.1562 34.564C79.6654 34.564 80.0998 34.3813 80.4595 34.0161C80.8192 33.6509 81.0931 33.1307 81.2812 32.4556C81.4749 31.7749 81.5718 30.9614 81.5718 30.0151V29.9985C81.5718 29.0522 81.4749 28.2415 81.2812 27.5664C81.0931 26.8857 80.8192 26.3656 80.4595 26.0059C80.0998 25.6406 79.6654 25.458 79.1562 25.458C78.6471 25.458 78.2127 25.6406 77.853 26.0059C77.4989 26.3656 77.2249 26.8857 77.0312 27.5664C76.8431 28.2415 76.749 29.0522 76.749 29.9985V30.0151C76.749 30.9614 76.8431 31.7749 77.0312 32.4556C77.2249 33.1307 77.4989 33.6509 77.853 34.0161C78.2127 34.3813 78.6471 34.564 79.1562 34.564ZM89.9619 36.2988C89.0101 36.2988 88.1938 36.0443 87.5132 35.5352C86.8381 35.026 86.3179 34.3011 85.9526 33.3604C85.5874 32.4196 85.4048 31.3045 85.4048 30.0151V29.9985C85.4048 28.7091 85.5874 27.5968 85.9526 26.6616C86.3179 25.7209 86.8381 24.9959 87.5132 24.4868C88.1938 23.9777 89.0101 23.7231 89.9619 23.7231C90.9137 23.7231 91.73 23.9777 92.4106 24.4868C93.0913 24.9959 93.6143 25.7209 93.9795 26.6616C94.3447 27.5968 94.5273 28.7091 94.5273 29.9985V30.0151C94.5273 31.3045 94.3447 32.4196 93.9795 33.3604C93.6143 34.3011 93.0913 35.026 92.4106 35.5352C91.73 36.0443 90.9137 36.2988 89.9619 36.2988ZM89.9619 34.564C90.471 34.564 90.9054 34.3813 91.2651 34.0161C91.6248 33.6509 91.8988 33.1307 92.0869 32.4556C92.2806 31.7749 92.3774 30.9614 92.3774 30.0151V29.9985C92.3774 29.0522 92.2806 28.2415 92.0869 27.5664C91.8988 26.8857 91.6248 26.3656 91.2651 26.0059C90.9054 25.6406 90.471 25.458 89.9619 25.458C89.4528 25.458 89.0184 25.6406 88.6587 26.0059C88.3045 26.3656 88.0306 26.8857 87.8369 27.5664C87.6488 28.2415 87.5547 29.0522 87.5547 29.9985V30.0151C87.5547 30.9614 87.6488 31.7749 87.8369 32.4556C88.0306 33.1307 88.3045 33.6509 88.6587 34.0161C89.0184 34.3813 89.4528 34.564 89.9619 34.564Z" fill="black"/>
<path d="M288.333 31C288.977 31 289.5 31.5037 289.5 32.125V34.375C289.5 34.9963 288.977 35.5 288.333 35.5H287.167C286.523 35.5 286 34.9963 286 34.375V32.125C286 31.5037 286.523 31 287.167 31H288.333ZM293.823 28.75C294.468 28.75 294.99 29.2537 294.99 29.875V34.375C294.99 34.9963 294.468 35.5 293.823 35.5H292.657C292.013 35.5 291.49 34.9963 291.49 34.375V29.875C291.49 29.2537 292.013 28.75 292.657 28.75H293.823ZM299.313 26.125C299.958 26.125 300.48 26.6287 300.48 27.25V34.375C300.48 34.9963 299.958 35.5 299.313 35.5H298.147C297.503 35.5 296.98 34.9963 296.98 34.375V27.25C296.981 26.6287 297.503 26.125 298.147 26.125H299.313ZM304.804 23.5C305.448 23.5 305.971 24.0037 305.971 24.625V34.375C305.971 34.9963 305.448 35.5 304.804 35.5H303.638C302.993 35.5 302.471 34.9963 302.471 34.375V24.625C302.471 24.0037 302.993 23.5 303.638 23.5H304.804Z" fill="black"/>
<path d="M318.512 32.8262C319.932 31.5964 322.011 31.5964 323.431 32.8262C323.502 32.8924 323.544 32.9855 323.546 33.084C323.548 33.1826 323.51 33.2777 323.441 33.3467L321.218 35.6446C321.153 35.7121 321.063 35.7501 320.971 35.7501C320.878 35.7499 320.79 35.7119 320.725 35.6446L318.501 33.3467C318.432 33.2776 318.394 33.1826 318.396 33.084C318.399 32.9855 318.44 32.8923 318.512 32.8262ZM315.545 29.7608C318.604 26.8467 323.341 26.8467 326.4 29.7608C326.469 29.829 326.509 29.9225 326.51 30.0206C326.511 30.1188 326.473 30.2135 326.405 30.2833L325.12 31.6133C324.988 31.7491 324.774 31.7524 324.638 31.6202C323.633 30.6886 322.326 30.1728 320.971 30.1729C319.617 30.1736 318.311 30.6895 317.308 31.6202C317.172 31.7524 316.958 31.7491 316.825 31.6133L315.54 30.2833C315.472 30.2136 315.435 30.1189 315.436 30.0206C315.437 29.9224 315.476 29.829 315.545 29.7608ZM312.578 26.7032C317.27 22.0989 324.671 22.099 329.363 26.7032C329.431 26.7716 329.47 26.8654 329.471 26.963C329.471 27.0605 329.433 27.1545 329.366 27.2237L328.08 28.5538C327.947 28.6901 327.732 28.691 327.598 28.5567C325.81 26.8164 323.437 25.8459 320.971 25.8458C318.504 25.8459 316.131 26.8163 314.344 28.5567C314.209 28.6913 313.994 28.6904 313.861 28.5538L312.574 27.2237C312.507 27.1545 312.47 27.0605 312.471 26.963C312.471 26.8654 312.51 26.7715 312.578 26.7032Z" fill="black"/>
<rect opacity="0.4" x="336.471" y="23.5" width="24" height="12" rx="3.5" stroke="black"/>
<path opacity="0.5" d="M361.971 27.5V31.5C362.777 31.1612 363.301 30.3731 363.301 29.5C363.301 28.6269 362.777 27.8388 361.971 27.5Z" fill="black"/>
<rect x="337.971" y="25" width="17" height="9" rx="2" fill="black"/>
<path d="M42.8095 99.5268C42.068 100.323 40.8068 100.323 40.0652 99.5268L28.2697 86.8632C27.5544 86.0952 27.5544 84.9048 28.2697 84.1368L40.0652 71.4732C40.8068 70.677 42.068 70.677 42.8095 71.4732C43.4802 72.1932 43.4802 73.3093 42.8095 74.0293L33.395 84.1368C32.6796 84.9048 32.6796 86.0952 33.395 86.8632L42.8095 96.9707C43.4802 97.6907 43.4802 98.8068 42.8095 99.5268Z" fill="#535353"/>
<path d="M114.32 93C113.587 93 113.02 92.7933 112.62 92.38C112.233 91.9533 112.04 91.3667 112.04 90.62V82.3H115.08V89.8C115.08 90.12 115.147 90.3467 115.28 90.48C115.413 90.6133 115.633 90.68 115.94 90.68H116.64V93H114.32ZM119.94 93C119.207 93 118.64 92.7933 118.24 92.38C117.853 91.9533 117.66 91.3667 117.66 90.62V82.3H120.68V89.8C120.68 90.12 120.747 90.3467 120.88 90.48C121.013 90.6133 121.24 90.68 121.56 90.68H122.26V93H119.94ZM124.455 86.62L123.455 84.92C125.015 82.9733 127.022 82 129.475 82C131.195 82 132.515 82.38 133.435 83.14C134.369 83.9 134.835 84.96 134.835 86.32V93H131.795V86.56C131.795 85.0933 131.022 84.36 129.475 84.36C128.902 84.36 128.389 84.44 127.935 84.6C127.495 84.76 127.082 85.02 126.695 85.38L127.475 86.66V93H124.455V86.62ZM129.943 79.7C129.943 79.5533 129.916 79.4533 129.863 79.4C129.796 79.3333 129.689 79.3 129.543 79.3H128.603V77.24H130.483C130.976 77.24 131.336 77.3533 131.563 77.58C131.776 77.8067 131.883 78.0933 131.883 78.44V79.04H135.903V80.98H129.943V79.7ZM139.823 93C139.089 93 138.523 92.7933 138.123 92.38C137.736 91.9533 137.543 91.3667 137.543 90.62V83.72C137.543 82.1467 138.003 81.0067 138.923 80.3H135.623V77.96H142.763V80.1C141.989 80.4067 141.429 80.84 141.083 81.4C140.736 81.96 140.563 82.7133 140.563 83.66V89.8C140.563 90.12 140.629 90.3467 140.763 90.48C140.896 90.6133 141.123 90.68 141.443 90.68H142.143V93H139.823ZM148.757 93.3C147.69 93.3 146.764 93.1333 145.977 92.8C145.204 92.4667 144.61 92 144.197 91.4C143.784 90.8 143.577 90.12 143.577 89.36V88.86C143.577 88.38 143.67 87.9533 143.857 87.58C144.044 87.1933 144.304 86.76 144.637 86.28C144.85 85.9867 145.004 85.7533 145.097 85.58C145.19 85.3933 145.237 85.22 145.237 85.06C145.237 84.6867 145.01 84.5 144.557 84.5H143.437V82.3H146.337C146.937 82.3 147.417 82.4733 147.777 82.82C148.137 83.1667 148.317 83.62 148.317 84.18C148.317 84.58 148.244 84.9533 148.097 85.3C147.95 85.6333 147.73 86.02 147.437 86.46C147.157 86.9 146.944 87.2733 146.797 87.58C146.664 87.8867 146.597 88.22 146.597 88.58V89C146.597 89.6267 146.777 90.1067 147.137 90.44C147.51 90.7733 148.05 90.94 148.757 90.94C150.157 90.94 150.857 90.2667 150.857 88.92V82.3H153.897V88.6C153.897 90.0533 153.45 91.2 152.557 92.04C151.677 92.88 150.41 93.3 148.757 93.3ZM160.905 93.3C159.839 93.3 158.912 93.1333 158.125 92.8C157.352 92.4667 156.759 92 156.345 91.4C155.932 90.8 155.725 90.12 155.725 89.36V88.86C155.725 88.38 155.819 87.9533 156.005 87.58C156.192 87.1933 156.452 86.76 156.785 86.28C156.999 85.9867 157.152 85.7533 157.245 85.58C157.339 85.3933 157.385 85.22 157.385 85.06C157.385 84.6867 157.159 84.5 156.705 84.5H155.585V82.3H158.485C159.085 82.3 159.565 82.4733 159.925 82.82C160.285 83.1667 160.465 83.62 160.465 84.18C160.465 84.58 160.392 84.9533 160.245 85.3C160.099 85.6333 159.879 86.02 159.585 86.46C159.305 86.9 159.092 87.2733 158.945 87.58C158.812 87.8867 158.745 88.22 158.745 88.58V89C158.745 89.6267 158.925 90.1067 159.285 90.44C159.659 90.7733 160.199 90.94 160.905 90.94C162.305 90.94 163.005 90.2667 163.005 88.92V82.3H166.045V88.6C166.045 90.0533 165.599 91.2 164.705 92.04C163.825 92.88 162.559 93.3 160.905 93.3ZM161.154 79.7C161.154 79.5533 161.127 79.4533 161.074 79.4C161.007 79.3333 160.9 79.3 160.754 79.3H159.814V77.24H161.694C162.187 77.24 162.547 77.3533 162.774 77.58C162.987 77.8067 163.094 78.0933 163.094 78.44V79.04H167.114V80.98H161.154V79.7ZM172.534 93.3C171.64 93.3 170.76 93.2067 169.894 93.02C169.027 92.8467 168.307 92.6 167.734 92.28V86.66H172.794V88.88H170.714V90.6C171.127 90.8267 171.734 90.94 172.534 90.94C174.654 90.94 175.714 89.8333 175.714 87.62C175.714 86.4867 175.407 85.66 174.794 85.14C174.18 84.62 173.147 84.36 171.694 84.36C171.027 84.36 170.34 84.4333 169.634 84.58C168.94 84.7133 168.354 84.9067 167.874 85.16V82.8C168.42 82.5467 169.08 82.3533 169.854 82.22C170.627 82.0733 171.434 82 172.274 82C174.42 82 176.047 82.4933 177.154 83.48C178.274 84.4533 178.834 85.8333 178.834 87.62C178.834 89.38 178.287 90.7667 177.194 91.78C176.1 92.7933 174.547 93.3 172.534 93.3ZM186.997 93.3C186.33 93.3 185.683 93.1733 185.057 92.92C184.43 92.6667 183.883 92.2933 183.417 91.8V93H180.517V82.3H183.557V89.5C183.85 89.9933 184.203 90.36 184.617 90.6C185.03 90.8267 185.517 90.94 186.077 90.94C187.45 90.94 188.137 90.2933 188.137 89V82.3H191.157V89.18C191.157 89.9533 190.997 90.6533 190.677 91.28C190.357 91.9067 189.883 92.4 189.257 92.76C188.63 93.12 187.877 93.3 186.997 93.3ZM188.251 98.6C187.264 98.6 186.504 98.4067 185.971 98.02C185.424 97.6333 185.151 97.12 185.151 96.48V96.12C185.151 95.9467 185.124 95.8267 185.071 95.76C185.004 95.6933 184.891 95.66 184.731 95.66H184.071V93.94H186.331C186.731 93.94 187.011 94.0267 187.171 94.2C187.318 94.3867 187.391 94.6733 187.391 95.06V96.16C187.391 96.64 187.644 96.88 188.151 96.88C188.644 96.88 188.891 96.64 188.891 96.16V93.94H191.131V96.4C191.131 97.04 190.884 97.5667 190.391 97.98C189.884 98.3933 189.171 98.6 188.251 98.6ZM196.871 93.3C195.644 93.3 194.664 92.9933 193.931 92.38C193.211 91.7667 192.851 90.9 192.851 89.78C192.851 88.66 193.244 87.78 194.031 87.14C194.831 86.5 195.924 86.18 197.311 86.18C198.604 86.18 199.711 86.3933 200.631 86.82V86.4C200.631 85.68 200.391 85.1467 199.911 84.8C199.444 84.4533 198.684 84.28 197.631 84.28C196.978 84.28 196.338 84.3467 195.711 84.48C195.084 84.6133 194.524 84.8 194.031 85.04V82.76C194.471 82.5467 195.078 82.3667 195.851 82.22C196.624 82.0733 197.404 82 198.191 82C199.978 82 201.331 82.4 202.251 83.2C203.184 83.9867 203.651 85.0467 203.651 86.38V93H200.631V89.02C199.858 88.62 198.951 88.42 197.911 88.42C197.231 88.42 196.731 88.5333 196.411 88.76C196.104 88.9867 195.951 89.34 195.951 89.82C195.951 90.26 196.091 90.5933 196.371 90.82C196.664 91.0333 197.124 91.14 197.751 91.14C198.191 91.14 198.564 91.0733 198.871 90.94V93.04C198.351 93.2133 197.684 93.3 196.871 93.3ZM205.731 84.76C205.731 83.9733 205.945 83.3667 206.371 82.94C206.798 82.5133 207.405 82.3 208.191 82.3H210.351V84.64H209.631C209.311 84.64 209.085 84.7067 208.951 84.84C208.818 84.9733 208.751 85.2133 208.751 85.56V89.04L210.771 85.96H211.831L213.851 89.04V82.3H216.851V93H214.131L211.291 88.68L208.451 93H205.731V84.76ZM213.954 98.6C212.967 98.6 212.207 98.4067 211.674 98.02C211.127 97.6333 210.854 97.12 210.854 96.48V96.12C210.854 95.9467 210.827 95.8267 210.774 95.76C210.707 95.6933 210.594 95.66 210.434 95.66H209.774V93.94H212.034C212.434 93.94 212.714 94.0267 212.874 94.2C213.021 94.3867 213.094 94.6733 213.094 95.06V96.16C213.094 96.64 213.347 96.88 213.854 96.88C214.347 96.88 214.594 96.64 214.594 96.16V93.94H216.834V96.4C216.834 97.04 216.587 97.5667 216.094 97.98C215.587 98.3933 214.874 98.6 213.954 98.6ZM211.974 79.7C211.974 79.5533 211.947 79.4533 211.894 79.4C211.827 79.3333 211.721 79.3 211.574 79.3H210.634V77.24H212.514C213.007 77.24 213.367 77.3533 213.594 77.58C213.807 77.8067 213.914 78.0933 213.914 78.44V79.04H217.934V80.98H211.974V79.7ZM222.574 93.3C221.347 93.3 220.367 92.9933 219.634 92.38C218.914 91.7667 218.554 90.9 218.554 89.78C218.554 88.66 218.947 87.78 219.734 87.14C220.534 86.5 221.627 86.18 223.014 86.18C224.307 86.18 225.414 86.3933 226.334 86.82V86.4C226.334 85.68 226.094 85.1467 225.614 84.8C225.147 84.4533 224.387 84.28 223.334 84.28C222.681 84.28 222.041 84.3467 221.414 84.48C220.787 84.6133 220.227 84.8 219.734 85.04V82.76C220.174 82.5467 220.781 82.3667 221.554 82.22C222.327 82.0733 223.107 82 223.894 82C224.787 82 225.621 82.1333 226.394 82.4L227.174 81.5H230.474L228.494 83.8C229.067 84.4533 229.354 85.3133 229.354 86.38V93H226.334V89.02C225.561 88.62 224.654 88.42 223.614 88.42C222.934 88.42 222.434 88.5333 222.114 88.76C221.807 88.9867 221.654 89.34 221.654 89.82C221.654 90.26 221.794 90.5933 222.074 90.82C222.367 91.0333 222.827 91.14 223.454 91.14C223.894 91.14 224.267 91.0733 224.574 90.94V93.04C224.054 93.2133 223.387 93.3 222.574 93.3ZM226.708 98.6C225.721 98.6 224.961 98.4067 224.428 98.02C223.881 97.6333 223.608 97.12 223.608 96.48V96.12C223.608 95.9467 223.581 95.8267 223.528 95.76C223.461 95.6933 223.348 95.66 223.188 95.66H222.528V93.94H224.788C225.188 93.94 225.468 94.0267 225.628 94.2C225.775 94.3867 225.848 94.6733 225.848 95.06V96.16C225.848 96.64 226.101 96.88 226.608 96.88C227.101 96.88 227.348 96.64 227.348 96.16V93.94H229.588V96.4C229.588 97.04 229.341 97.5667 228.848 97.98C228.341 98.3933 227.628 98.6 226.708 98.6ZM231.308 83.64H234.328L236.608 90.74C237.595 90.74 238.355 90.4467 238.888 89.86C239.421 89.26 239.688 88.4133 239.688 87.32C239.688 86.3333 239.501 85.5933 239.128 85.1C238.755 84.6067 238.181 84.36 237.408 84.36C236.981 84.36 236.555 84.4267 236.128 84.56V82.28C236.688 82.0933 237.321 82 238.028 82C239.615 82 240.801 82.4667 241.588 83.4C242.388 84.32 242.788 85.6267 242.788 87.32C242.788 88.5067 242.528 89.5267 242.008 90.38C241.488 91.2333 240.781 91.8867 239.888 92.34C239.008 92.78 238.041 93 236.988 93H234.308L231.308 83.64ZM248.881 93.3C247.988 93.3 247.108 93.2067 246.241 93.02C245.375 92.8467 244.655 92.6 244.081 92.28V86.66H249.141V88.88H247.061V90.6C247.475 90.8267 248.081 90.94 248.881 90.94C251.001 90.94 252.061 89.8333 252.061 87.62C252.061 86.4867 251.755 85.66 251.141 85.14C250.528 84.62 249.495 84.36 248.041 84.36C247.375 84.36 246.688 84.4333 245.981 84.58C245.288 84.7133 244.701 84.9067 244.221 85.16V82.8C244.768 82.5467 245.428 82.3533 246.201 82.22C246.975 82.0733 247.781 82 248.621 82C250.768 82 252.395 82.4933 253.501 83.48C254.621 84.4533 255.181 85.8333 255.181 87.62C255.181 89.38 254.635 90.7667 253.541 91.78C252.448 92.7933 250.895 93.3 248.881 93.3ZM260.084 86.34C260.084 85.6467 259.938 85.1467 259.644 84.84C259.351 84.52 258.838 84.36 258.104 84.36C257.398 84.36 256.684 84.54 255.964 84.9V82.6C256.284 82.44 256.711 82.3 257.244 82.18C257.791 82.06 258.318 82 258.824 82C260.224 82 261.291 82.3733 262.024 83.12C262.758 83.8667 263.124 84.9467 263.124 86.36V93H260.084V86.34ZM270.304 93.3C268.637 93.3 267.304 93 266.304 92.4C265.304 91.7867 264.804 90.9133 264.804 89.78C264.804 89.26 264.944 88.7933 265.224 88.38C265.517 87.9533 265.904 87.6467 266.384 87.46C265.944 87.2333 265.584 86.9067 265.304 86.48C265.037 86.0533 264.904 85.5867 264.904 85.08C264.904 84.1467 265.231 83.4 265.884 82.84C266.551 82.28 267.511 82 268.764 82C269.151 82 269.531 82.0267 269.904 82.08C270.291 82.1333 270.584 82.1933 270.784 82.26V84.54C270.597 84.46 270.371 84.3933 270.104 84.34C269.851 84.2867 269.617 84.26 269.404 84.26C268.471 84.26 268.004 84.6067 268.004 85.3C268.004 85.66 268.117 85.9333 268.344 86.12C268.584 86.2933 268.951 86.38 269.444 86.38H270.784V88.52H269.444C268.431 88.52 267.924 88.92 267.924 89.72C267.924 90.1467 268.124 90.48 268.524 90.72C268.937 90.9467 269.531 91.06 270.304 91.06C271.237 91.06 271.917 90.8733 272.344 90.5C272.784 90.1133 273.004 89.54 273.004 88.78V82.28H276.044V88.76C276.044 89.52 275.851 90.2467 275.464 90.94C275.077 91.62 274.457 92.1867 273.604 92.64C272.751 93.08 271.651 93.3 270.304 93.3ZM273.414 96.52C273.414 96.28 273.367 96.1067 273.274 96C273.18 95.9067 273.014 95.86 272.774 95.86H272.114V93.94H274.214C274.934 93.94 275.434 94.0867 275.714 94.38C275.98 94.6733 276.114 95.18 276.114 95.9V98.48H273.414V96.52Z" fill="black"/>
<rect x="29.5" y="153.5" width="326" height="43" rx="7.5" fill="white"/>
<rect x="29.5" y="153.5" width="326" height="43" rx="7.5" stroke="#D3D3D3"/>
<path d="M48.032 180.21C47.3693 180.21 46.786 180.093 46.282 179.86C45.778 179.627 45.386 179.3 45.106 178.88C44.8353 178.451 44.7 177.961 44.7 177.41V176.934C44.7 176.617 44.77 176.323 44.91 176.052C45.05 175.772 45.2413 175.469 45.484 175.142C45.6613 174.899 45.7873 174.703 45.862 174.554C45.946 174.405 45.988 174.265 45.988 174.134C45.988 173.957 45.9413 173.831 45.848 173.756C45.764 173.681 45.6193 173.644 45.414 173.644H44.63V172.51H46.1C46.5107 172.51 46.8327 172.631 47.066 172.874C47.3087 173.107 47.43 173.42 47.43 173.812C47.43 174.083 47.374 174.335 47.262 174.568C47.15 174.792 46.982 175.067 46.758 175.394C46.534 175.73 46.3707 176.001 46.268 176.206C46.1747 176.411 46.128 176.635 46.128 176.878V177.396C46.128 177.928 46.296 178.343 46.632 178.642C46.968 178.941 47.4347 179.09 48.032 179.09C48.6667 179.09 49.1613 178.917 49.516 178.572C49.8707 178.227 50.048 177.718 50.048 177.046C50.048 176.374 49.908 175.87 49.628 175.534C49.348 175.198 48.9373 175.03 48.396 175.03V174.26L49.894 172.3H51.434L49.852 174.386C50.4213 174.601 50.832 174.932 51.084 175.38C51.3453 175.819 51.476 176.374 51.476 177.046C51.476 177.69 51.3313 178.25 51.042 178.726C50.762 179.202 50.3607 179.571 49.838 179.832C49.3153 180.084 48.7133 180.21 48.032 180.21ZM45.2178 170.466H48.0318V168.94H49.0818V170.466H50.2158V168.94H51.2518V171.404H45.2178V170.466ZM49.9638 165.616H51.2518V167.478H49.9638V165.616ZM55.8578 180.21C55.2791 180.21 54.7191 180.14 54.1778 180C53.6364 179.869 53.1791 179.683 52.8058 179.44V175.716H55.9138V176.864H54.2338V178.726C54.6351 178.969 55.1764 179.09 55.8578 179.09C56.7538 179.09 57.4351 178.843 57.9018 178.348C58.3778 177.853 58.6158 177.135 58.6158 176.192C58.6158 175.249 58.3731 174.554 57.8878 174.106C57.4118 173.658 56.6278 173.434 55.5358 173.434C55.0411 173.434 54.5558 173.485 54.0798 173.588C53.6038 173.681 53.2024 173.835 52.8758 174.05V172.916C53.2398 172.711 53.6691 172.557 54.1638 172.454C54.6584 172.351 55.1904 172.3 55.7598 172.3C57.1598 172.3 58.2284 172.641 58.9658 173.322C59.7031 174.003 60.0718 174.96 60.0718 176.192C60.0718 177.433 59.7031 178.413 58.9658 179.132C58.2378 179.851 57.2018 180.21 55.8578 180.21ZM63.017 180C62.5597 180 62.2097 179.874 61.967 179.622C61.7337 179.361 61.617 178.997 61.617 178.53V172.51H63.045V178.138C63.045 178.39 63.0964 178.567 63.199 178.67C63.3017 178.763 63.479 178.81 63.731 178.81H64.235V180H63.017ZM69.0913 180.21C67.9713 180.21 67.0893 179.893 66.4453 179.258C65.8106 178.623 65.4933 177.69 65.4933 176.458C65.4933 175.609 65.6099 174.871 65.8433 174.246C66.0766 173.621 66.3939 173.14 66.7953 172.804C67.2059 172.468 67.6726 172.3 68.1953 172.3C68.9046 172.3 69.4039 172.585 69.6933 173.154C69.8519 172.865 70.0899 172.65 70.4073 172.51C70.7246 172.37 71.0793 172.3 71.4713 172.3C72.1153 172.3 72.5959 172.505 72.9133 172.916C73.2399 173.327 73.4033 173.877 73.4033 174.568V180H71.9753V174.666C71.9753 174.246 71.9099 173.938 71.7793 173.742C71.6486 173.537 71.4246 173.434 71.1073 173.434C70.5753 173.434 70.2439 173.723 70.1133 174.302H69.2733C69.2266 174.013 69.1333 173.798 68.9933 173.658C68.8626 173.509 68.6713 173.434 68.4193 173.434C67.9806 173.434 67.6213 173.695 67.3413 174.218C67.0706 174.741 66.9353 175.487 66.9353 176.458C66.9353 177.354 67.1313 178.017 67.5233 178.446C67.9153 178.875 68.5173 179.09 69.3293 179.09C69.6839 179.09 70.0106 179.043 70.3093 178.95V180.056C69.9826 180.159 69.5766 180.21 69.0913 180.21ZM69.3825 171.46C68.8879 171.46 68.4959 171.32 68.2065 171.04C67.9172 170.76 67.7725 170.396 67.7725 169.948C67.7725 169.379 67.9359 168.949 68.2625 168.66C68.5892 168.371 69.0372 168.226 69.6065 168.226H72.9245V169.038H69.7045C69.3872 169.038 69.1539 169.103 69.0045 169.234C68.8459 169.365 68.7665 169.57 68.7665 169.85C68.7665 170.102 68.8319 170.293 68.9625 170.424C69.0932 170.555 69.2752 170.62 69.5085 170.62C69.7699 170.62 69.9705 170.55 70.1105 170.41C70.2412 170.27 70.3065 170.083 70.3065 169.85H71.1185C71.1185 170.326 71.3799 170.564 71.9025 170.564H72.6865V171.404H71.9165C71.6085 171.404 71.3425 171.343 71.1185 171.222C70.8945 171.091 70.7545 170.933 70.6985 170.746C70.6239 170.933 70.4652 171.101 70.2225 171.25C69.9799 171.39 69.6999 171.46 69.3825 171.46ZM79.2945 180.21C78.7812 180.21 78.2912 180.107 77.8245 179.902C77.3672 179.697 76.9565 179.393 76.5925 178.992V180H75.2205V172.51H76.6485V177.802C77.1992 178.661 77.9552 179.09 78.9165 179.09C79.5232 179.09 79.9805 178.95 80.2885 178.67C80.6059 178.381 80.7645 177.956 80.7645 177.396V172.51H82.1925V177.452C82.1925 178.264 81.9359 178.927 81.4225 179.44C80.9092 179.953 80.1999 180.21 79.2945 180.21ZM84.0116 174.036C84.0116 173.541 84.1422 173.163 84.4036 172.902C84.6649 172.641 85.0382 172.51 85.5236 172.51H86.6296V173.714H86.1256C85.8736 173.714 85.6916 173.77 85.5796 173.882C85.4769 173.985 85.4256 174.167 85.4256 174.428V177.914L87.3016 174.862H87.9176L89.7936 177.914V172.51H91.2076V180H89.9196L87.6096 176.234L85.2996 180H84.0116V174.036ZM89.4653 183.794C88.8867 183.794 88.4387 183.673 88.1213 183.43C87.7947 183.187 87.6313 182.861 87.6313 182.45V182.072C87.6313 181.941 87.6127 181.853 87.5753 181.806C87.538 181.769 87.4587 181.75 87.3373 181.75H86.8613V180.798H88.0933C88.3453 180.798 88.518 180.854 88.6113 180.966C88.7047 181.078 88.7513 181.26 88.7513 181.512V182.31C88.7513 182.721 88.9753 182.926 89.4233 182.926C89.862 182.926 90.0813 182.721 90.0813 182.31V180.798H91.2013V182.408C91.2013 182.819 91.052 183.15 90.7533 183.402C90.4453 183.663 90.016 183.794 89.4653 183.794ZM88.1913 170.522C88.1913 170.41 88.1727 170.331 88.1353 170.284C88.0887 170.237 88.0093 170.214 87.8973 170.214H87.2673V169.206H88.3173C88.616 169.206 88.8353 169.281 88.9753 169.43C89.106 169.57 89.1713 169.747 89.1713 169.962V170.452H92.0413V171.404H88.1913V170.522ZM95.4573 180.21C94.6267 180.21 93.964 180.005 93.4693 179.594C92.984 179.174 92.7413 178.581 92.7413 177.816C92.7413 177.06 93.012 176.458 93.5533 176.01C94.104 175.562 94.846 175.338 95.7793 175.338C96.7033 175.338 97.534 175.511 98.2713 175.856V175.282C98.2713 174.638 98.094 174.171 97.7393 173.882C97.394 173.583 96.8153 173.434 96.0033 173.434C95.5553 173.434 95.1167 173.476 94.6873 173.56C94.258 173.644 93.8847 173.761 93.5673 173.91V172.79C93.8567 172.65 94.2487 172.533 94.7433 172.44C95.2473 172.347 95.7373 172.3 96.2133 172.3C97.0533 172.3 97.7533 172.454 98.3133 172.762L99.0273 171.95H100.609L99.1953 173.532C99.5313 174.008 99.6993 174.582 99.6993 175.254V180H98.2713V176.99C97.59 176.645 96.8107 176.472 95.9333 176.472C95.3267 176.472 94.8787 176.584 94.5893 176.808C94.3093 177.032 94.1693 177.368 94.1693 177.816C94.1693 178.665 94.7153 179.09 95.8073 179.09C96.1433 179.09 96.4373 179.043 96.6893 178.95V180.056C96.3533 180.159 95.9427 180.21 95.4573 180.21ZM98.1743 183.794C97.5956 183.794 97.1476 183.673 96.8303 183.43C96.5036 183.187 96.3403 182.861 96.3403 182.45V182.072C96.3403 181.941 96.3216 181.853 96.2843 181.806C96.247 181.769 96.1676 181.75 96.0463 181.75H95.5703V180.798H96.8023C97.0543 180.798 97.227 180.854 97.3203 180.966C97.4136 181.078 97.4603 181.26 97.4603 181.512V182.31C97.4603 182.721 97.6843 182.926 98.1323 182.926C98.571 182.926 98.7903 182.721 98.7903 182.31V180.798H99.9103V182.408C99.9103 182.819 99.761 183.15 99.4623 183.402C99.1543 183.663 98.725 183.794 98.1743 183.794ZM101.45 173.448H102.878L104.656 178.88C105.534 178.88 106.21 178.637 106.686 178.152C107.162 177.667 107.4 176.981 107.4 176.094C107.4 175.217 107.237 174.554 106.91 174.106C106.584 173.658 106.061 173.434 105.342 173.434C105.006 173.434 104.68 173.476 104.362 173.56V172.454C104.736 172.351 105.142 172.3 105.58 172.3C106.644 172.3 107.456 172.636 108.016 173.308C108.576 173.98 108.856 174.909 108.856 176.094C108.856 176.906 108.679 177.606 108.324 178.194C107.979 178.782 107.508 179.23 106.91 179.538C106.313 179.846 105.65 180 104.922 180H103.578L101.45 173.448ZM113.17 180.21C112.592 180.21 112.032 180.14 111.49 180C110.949 179.869 110.492 179.683 110.118 179.44V175.716H113.226V176.864H111.546V178.726C111.948 178.969 112.489 179.09 113.17 179.09C114.066 179.09 114.748 178.843 115.214 178.348C115.69 177.853 115.928 177.135 115.928 176.192C115.928 175.249 115.686 174.554 115.2 174.106C114.724 173.658 113.94 173.434 112.848 173.434C112.354 173.434 111.868 173.485 111.392 173.588C110.916 173.681 110.515 173.835 110.188 174.05V172.916C110.552 172.711 110.982 172.557 111.476 172.454C111.971 172.351 112.503 172.3 113.072 172.3C114.472 172.3 115.541 172.641 116.278 173.322C117.016 174.003 117.384 174.96 117.384 176.192C117.384 177.433 117.016 178.413 116.278 179.132C115.55 179.851 114.514 180.21 113.17 180.21ZM121.562 175.156C121.562 174.559 121.44 174.125 121.198 173.854C120.955 173.574 120.526 173.434 119.91 173.434C119.312 173.434 118.752 173.565 118.23 173.826V172.706C118.454 172.594 118.743 172.501 119.098 172.426C119.462 172.342 119.821 172.3 120.176 172.3C121.118 172.3 121.823 172.557 122.29 173.07C122.756 173.574 122.99 174.302 122.99 175.254V180H121.562V175.156ZM128.084 180.21C127.002 180.21 126.138 180.005 125.494 179.594C124.85 179.183 124.528 178.586 124.528 177.802C124.528 177.391 124.64 177.032 124.864 176.724C125.098 176.407 125.406 176.187 125.788 176.066C125.424 175.907 125.13 175.679 124.906 175.38C124.692 175.081 124.584 174.736 124.584 174.344C124.584 173.728 124.79 173.233 125.2 172.86C125.611 172.487 126.213 172.3 127.006 172.3C127.23 172.3 127.459 172.319 127.692 172.356C127.926 172.384 128.112 172.417 128.252 172.454V173.574C128.131 173.527 127.972 173.495 127.776 173.476C127.59 173.448 127.417 173.434 127.258 173.434C126.857 173.434 126.549 173.523 126.334 173.7C126.129 173.868 126.026 174.111 126.026 174.428C126.026 174.764 126.138 175.021 126.362 175.198C126.586 175.375 126.918 175.464 127.356 175.464H128.252V176.64H127.37C126.922 176.64 126.577 176.738 126.334 176.934C126.092 177.121 125.97 177.41 125.97 177.802C125.97 178.213 126.157 178.53 126.53 178.754C126.913 178.978 127.431 179.09 128.084 179.09C129.624 179.09 130.394 178.437 130.394 177.13V172.51H131.822V177.102C131.822 177.625 131.701 178.124 131.458 178.6C131.216 179.067 130.814 179.454 130.254 179.762C129.704 180.061 128.98 180.21 128.084 180.21ZM130.518 182.254C130.518 182.086 130.49 181.969 130.434 181.904C130.369 181.848 130.248 181.82 130.07 181.82H129.608V180.798H130.756C131.176 180.798 131.461 180.882 131.61 181.05C131.75 181.218 131.82 181.517 131.82 181.946V183.682H130.518V182.254Z" fill="#4E5256"/>
<rect x="27.5" y="434.5" width="326" height="43" rx="7.5" fill="white"/>
<rect x="27.5" y="434.5" width="326" height="43" rx="7.5" stroke="#D3D3D3"/>
<path d="M44.996 461C44.5387 461 44.1887 460.874 43.946 460.622C43.7127 460.361 43.596 459.997 43.596 459.53V454.154C43.596 453.473 43.47 452.941 43.218 452.558C42.966 452.175 42.56 451.867 42 451.634V450.472H46.41V451.676H43.904C44.2867 451.928 44.5667 452.264 44.744 452.684C44.9307 453.104 45.024 453.608 45.024 454.196V459.138C45.024 459.39 45.0753 459.567 45.178 459.67C45.2807 459.763 45.458 459.81 45.71 459.81H46.214V461H44.996ZM50.1071 461.21C49.5938 461.21 49.0711 461.149 48.5391 461.028C48.0071 460.916 47.5918 460.748 47.2931 460.524V459.376C47.6944 459.619 48.1331 459.805 48.6091 459.936C49.0944 460.057 49.5564 460.118 49.9951 460.118C50.6111 460.118 51.0544 460.048 51.3251 459.908C51.5958 459.759 51.7311 459.507 51.7311 459.152C51.7311 458.909 51.6658 458.713 51.5351 458.564C51.4044 458.415 51.2038 458.284 50.9331 458.172C50.6718 458.06 50.2564 457.92 49.6871 457.752C48.8658 457.5 48.2544 457.206 47.8531 456.87C47.4518 456.525 47.2511 456.049 47.2511 455.442C47.2511 454.751 47.5171 454.224 48.0491 453.86C48.5811 453.487 49.3091 453.3 50.2331 453.3C50.7091 453.3 51.1664 453.356 51.6051 453.468C52.0531 453.571 52.4218 453.711 52.7111 453.888V455.064C52.3938 454.868 52.0298 454.714 51.6191 454.602C51.2084 454.49 50.7884 454.434 50.3591 454.434C49.2391 454.434 48.6791 454.77 48.6791 455.442C48.6791 455.694 48.7538 455.895 48.9031 456.044C49.0618 456.193 49.2671 456.319 49.5191 456.422C49.7804 456.515 50.2144 456.651 50.8211 456.828C51.4184 457.005 51.8851 457.197 52.2211 457.402C52.5571 457.607 52.7951 457.85 52.9351 458.13C53.0751 458.41 53.1451 458.755 53.1451 459.166C53.1451 459.782 52.8931 460.277 52.3891 460.65C51.8851 461.023 51.1244 461.21 50.1071 461.21ZM54.6815 456.366C54.6815 455.395 54.9988 454.644 55.6335 454.112C56.2682 453.571 57.1408 453.3 58.2515 453.3C59.3528 453.3 60.2208 453.566 60.8555 454.098C61.4902 454.63 61.8075 455.386 61.8075 456.366V461H60.3795V456.324C60.3795 455.689 60.1928 455.218 59.8195 454.91C59.4462 454.593 58.9235 454.434 58.2515 454.434C57.5702 454.434 57.0428 454.593 56.6695 454.91C56.2962 455.218 56.1095 455.689 56.1095 456.324V457.752C56.2308 457.528 56.4222 457.351 56.6835 457.22C56.9448 457.08 57.2528 457.01 57.6075 457.01H58.7275V458.186H57.4955C57.1035 458.186 56.7722 458.326 56.5015 458.606C56.2402 458.877 56.1095 459.189 56.1095 459.544V461H54.6815V456.366ZM67.2209 461.21C66.4929 461.21 65.8582 461.079 65.3169 460.818C64.7756 460.557 64.3556 460.193 64.0569 459.726C63.7676 459.25 63.6229 458.709 63.6229 458.102V453.51H65.0509V458.074C65.0509 458.699 65.2329 459.194 65.5969 459.558C65.9702 459.913 66.5116 460.09 67.2209 460.09C67.9209 460.09 68.4529 459.913 68.8169 459.558C69.1902 459.194 69.3769 458.699 69.3769 458.074V451.004H70.8049V458.102C70.8049 458.709 70.6556 459.25 70.3569 459.726C70.0676 460.193 69.6522 460.557 69.1109 460.818C68.5696 461.079 67.9396 461.21 67.2209 461.21ZM75.195 461.21C74.6817 461.21 74.159 461.149 73.627 461.028C73.095 460.916 72.6797 460.748 72.381 460.524V459.376C72.7823 459.619 73.221 459.805 73.697 459.936C74.1823 460.057 74.6443 460.118 75.083 460.118C75.699 460.118 76.1423 460.048 76.413 459.908C76.6837 459.759 76.819 459.507 76.819 459.152C76.819 458.909 76.7537 458.713 76.623 458.564C76.4923 458.415 76.2917 458.284 76.021 458.172C75.7597 458.06 75.3443 457.92 74.775 457.752C73.9537 457.5 73.3423 457.206 72.941 456.87C72.5397 456.525 72.339 456.049 72.339 455.442C72.339 454.751 72.605 454.224 73.137 453.86C73.669 453.487 74.397 453.3 75.321 453.3C75.797 453.3 76.2543 453.356 76.693 453.468C77.141 453.571 77.5097 453.711 77.799 453.888V455.064C77.4817 454.868 77.1177 454.714 76.707 454.602C76.2963 454.49 75.8763 454.434 75.447 454.434C74.327 454.434 73.767 454.77 73.767 455.442C73.767 455.694 73.8417 455.895 73.991 456.044C74.1497 456.193 74.355 456.319 74.607 456.422C74.8683 456.515 75.3023 456.651 75.909 456.828C76.5063 457.005 76.973 457.197 77.309 457.402C77.645 457.607 77.883 457.85 78.023 458.13C78.163 458.41 78.233 458.755 78.233 459.166C78.233 459.782 77.981 460.277 77.477 460.65C76.973 461.023 76.2123 461.21 75.195 461.21ZM80.6094 456.45C80.1987 456.45 79.9094 456.357 79.7414 456.17C79.5734 455.983 79.4894 455.699 79.4894 455.316V454.518H80.7774V455.05C80.7774 455.199 80.81 455.307 80.8754 455.372C80.9407 455.428 81.0574 455.456 81.2254 455.456H82.8634V456.45H80.6094ZM80.6094 460.272C80.1987 460.272 79.9094 460.179 79.7414 459.992C79.5734 459.805 79.4894 459.521 79.4894 459.138V458.34H80.7774V458.872C80.7774 459.021 80.81 459.129 80.8754 459.194C80.9407 459.25 81.0574 459.278 81.2254 459.278H82.8634V460.272H80.6094ZM84.5021 456.884H85.9161L86.6441 459.88C87.5495 459.88 88.2728 459.637 88.8141 459.152C89.3648 458.657 89.6401 457.976 89.6401 457.108C89.6401 456.165 89.4161 455.484 88.9681 455.064C88.5201 454.644 87.7828 454.434 86.7561 454.434C86.2895 454.434 85.8135 454.481 85.3281 454.574C84.8521 454.658 84.4508 454.775 84.1241 454.924V453.804C84.4695 453.645 84.8895 453.524 85.3841 453.44C85.8881 453.347 86.4015 453.3 86.9241 453.3C88.2495 453.3 89.2715 453.617 89.9901 454.252C90.7181 454.887 91.0821 455.839 91.0821 457.108C91.0821 457.845 90.8955 458.513 90.5221 459.11C90.1488 459.698 89.6401 460.16 88.9961 460.496C88.3615 460.832 87.6615 461 86.8961 461H85.5101L84.5021 456.884ZM89.9049 452.53C89.4849 452.53 89.1256 452.381 88.8269 452.082C88.5189 451.783 88.3649 451.424 88.3649 451.004C88.3649 450.575 88.5189 450.211 88.8269 449.912C89.1256 449.604 89.4849 449.45 89.9049 449.45C90.3249 449.45 90.6889 449.604 90.9969 449.912C91.2956 450.211 91.4449 450.575 91.4449 451.004C91.4449 451.424 91.2956 451.783 90.9969 452.082C90.6889 452.381 90.3249 452.53 89.9049 452.53ZM89.9049 451.662C90.0729 451.662 90.2223 451.597 90.3529 451.466C90.4743 451.326 90.5349 451.172 90.5349 451.004C90.5349 450.836 90.4743 450.687 90.3529 450.556C90.2223 450.425 90.0729 450.36 89.9049 450.36C89.7369 450.36 89.5923 450.425 89.4709 450.556C89.3403 450.687 89.2749 450.836 89.2749 451.004C89.2749 451.172 89.3403 451.326 89.4709 451.466C89.5923 451.597 89.7369 451.662 89.9049 451.662ZM95.2529 456.156C95.2529 455.559 95.1316 455.125 94.8889 454.854C94.6463 454.574 94.2169 454.434 93.6009 454.434C93.0036 454.434 92.4436 454.565 91.9209 454.826V453.706C92.1449 453.594 92.4343 453.501 92.7889 453.426C93.1529 453.342 93.5123 453.3 93.8669 453.3C94.8096 453.3 95.5143 453.557 95.9809 454.07C96.4476 454.574 96.6809 455.302 96.6809 456.254V461H95.2529V456.156ZM101.818 461.21C100.698 461.21 99.8158 460.893 99.1718 460.258C98.5372 459.623 98.2198 458.69 98.2198 457.458C98.2198 456.609 98.3365 455.871 98.5698 455.246C98.8032 454.621 99.1205 454.14 99.5218 453.804C99.9325 453.468 100.399 453.3 100.922 453.3C101.631 453.3 102.131 453.585 102.42 454.154C102.579 453.865 102.817 453.65 103.134 453.51C103.451 453.37 103.806 453.3 104.198 453.3C104.842 453.3 105.323 453.505 105.64 453.916C105.967 454.327 106.13 454.877 106.13 455.568V461H104.702V455.666C104.702 455.246 104.637 454.938 104.506 454.742C104.375 454.537 104.151 454.434 103.834 454.434C103.302 454.434 102.971 454.723 102.84 455.302H102C101.953 455.013 101.86 454.798 101.72 454.658C101.589 454.509 101.398 454.434 101.146 454.434C100.707 454.434 100.348 454.695 100.068 455.218C99.7972 455.741 99.6618 456.487 99.6618 457.458C99.6618 458.354 99.8578 459.017 100.25 459.446C100.642 459.875 101.244 460.09 102.056 460.09C102.411 460.09 102.737 460.043 103.036 459.95V461.056C102.709 461.159 102.303 461.21 101.818 461.21ZM103.495 452.404C103.094 452.404 102.804 452.306 102.627 452.11C102.44 451.905 102.347 451.601 102.347 451.2V450.472H103.635V451.032C103.635 451.191 103.668 451.298 103.733 451.354C103.789 451.41 103.901 451.438 104.069 451.438H107.373V452.404H103.495ZM110.397 461.21C109.221 461.21 108.311 461 107.667 460.58V459.432C108.292 459.871 109.109 460.09 110.117 460.09C111.032 460.09 111.741 459.852 112.245 459.376C112.758 458.9 113.015 458.195 113.015 457.262C113.015 456.329 112.758 455.624 112.245 455.148C111.741 454.672 111.032 454.434 110.117 454.434C109.137 454.434 108.33 454.653 107.695 455.092V453.93C108.348 453.51 109.249 453.3 110.397 453.3C111.657 453.3 112.651 453.65 113.379 454.35C114.107 455.041 114.471 456.011 114.471 457.262C114.471 458.513 114.107 459.483 113.379 460.174C112.651 460.865 111.657 461.21 110.397 461.21ZM121.195 453.51H122.623V456.814L126.249 453.51H127.915L125.871 455.372C126.636 455.568 127.168 455.881 127.467 456.31C127.775 456.739 127.929 457.313 127.929 458.032V461H126.501V458.116C126.501 457.556 126.384 457.131 126.151 456.842C125.927 456.553 125.535 456.347 124.975 456.226L122.623 458.368V461H121.195V453.51ZM132.33 461.21C131.816 461.21 131.294 461.149 130.762 461.028C130.23 460.916 129.814 460.748 129.516 460.524V459.376C129.917 459.619 130.356 459.805 130.832 459.936C131.317 460.057 131.779 460.118 132.218 460.118C132.834 460.118 133.277 460.048 133.548 459.908C133.818 459.759 133.954 459.507 133.954 459.152C133.954 458.909 133.888 458.713 133.758 458.564C133.627 458.415 133.426 458.284 133.156 458.172C132.894 458.06 132.479 457.92 131.91 457.752C131.088 457.5 130.477 457.206 130.076 456.87C129.674 456.525 129.474 456.049 129.474 455.442C129.474 454.751 129.74 454.224 130.272 453.86C130.804 453.487 131.532 453.3 132.456 453.3C132.932 453.3 133.389 453.356 133.828 453.468C134.276 453.571 134.644 453.711 134.934 453.888V455.064C134.616 454.868 134.252 454.714 133.842 454.602C133.431 454.49 133.011 454.434 132.582 454.434C131.462 454.434 130.902 454.77 130.902 455.442C130.902 455.694 130.976 455.895 131.126 456.044C131.284 456.193 131.49 456.319 131.742 456.422C132.003 456.515 132.437 456.651 133.044 456.828C133.641 457.005 134.108 457.197 134.444 457.402C134.78 457.607 135.018 457.85 135.158 458.13C135.298 458.41 135.368 458.755 135.368 459.166C135.368 459.782 135.116 460.277 134.612 460.65C134.108 461.023 133.347 461.21 132.33 461.21ZM129.036 451.466H131.85V449.94H132.9V451.466H134.034V449.94H135.07V452.404H129.036V451.466ZM139.676 461.21C139.097 461.21 138.537 461.14 137.996 461C137.455 460.869 136.997 460.683 136.624 460.44V456.716H139.732V457.864H138.052V459.726C138.453 459.969 138.995 460.09 139.676 460.09C140.572 460.09 141.253 459.843 141.72 459.348C142.196 458.853 142.434 458.135 142.434 457.192C142.434 456.249 142.191 455.554 141.706 455.106C141.23 454.658 140.446 454.434 139.354 454.434C138.859 454.434 138.374 454.485 137.898 454.588C137.422 454.681 137.021 454.835 136.694 455.05V453.916C137.058 453.711 137.487 453.557 137.982 453.454C138.477 453.351 139.009 453.3 139.578 453.3C140.978 453.3 142.047 453.641 142.784 454.322C143.521 455.003 143.89 455.96 143.89 457.192C143.89 458.433 143.521 459.413 142.784 460.132C142.056 460.851 141.02 461.21 139.676 461.21ZM152.017 461C151.56 461 151.21 460.874 150.967 460.622C150.734 460.361 150.617 459.997 150.617 459.53V453.51H152.045V459.138C152.045 459.39 152.096 459.567 152.199 459.67C152.302 459.763 152.479 459.81 152.731 459.81H153.235V461H152.017ZM155.615 461C155.167 461 154.822 460.869 154.579 460.608C154.336 460.347 154.215 459.987 154.215 459.53V453.51H155.643V459.138C155.643 459.39 155.694 459.567 155.797 459.67C155.909 459.763 156.091 459.81 156.343 459.81H156.847V461H155.615ZM157.963 453.51H159.391L160.749 458.998L162.373 453.51H163.465L165.075 458.998L166.447 453.51H167.875L165.789 461H164.585L162.919 455.372L161.239 461H160.035L157.963 453.51ZM163.191 451.522C163.191 451.41 163.173 451.331 163.135 451.284C163.089 451.237 163.009 451.214 162.897 451.214H162.267V450.206H163.317C163.616 450.206 163.835 450.281 163.975 450.43C164.106 450.57 164.171 450.747 164.171 450.962V451.452H167.041V452.404H163.191V451.522ZM172.555 461.21C171.472 461.21 170.609 461.005 169.965 460.594C169.321 460.183 168.999 459.586 168.999 458.802C168.999 458.391 169.111 458.032 169.335 457.724C169.568 457.407 169.876 457.187 170.259 457.066C169.895 456.907 169.601 456.679 169.377 456.38C169.162 456.081 169.055 455.736 169.055 455.344C169.055 454.728 169.26 454.233 169.671 453.86C170.082 453.487 170.684 453.3 171.477 453.3C171.701 453.3 171.93 453.319 172.163 453.356C172.396 453.384 172.583 453.417 172.723 453.454V454.574C172.602 454.527 172.443 454.495 172.247 454.476C172.06 454.448 171.888 454.434 171.729 454.434C171.328 454.434 171.02 454.523 170.805 454.7C170.6 454.868 170.497 455.111 170.497 455.428C170.497 455.764 170.609 456.021 170.833 456.198C171.057 456.375 171.388 456.464 171.827 456.464H172.723V457.64H171.841C171.393 457.64 171.048 457.738 170.805 457.934C170.562 458.121 170.441 458.41 170.441 458.802C170.441 459.213 170.628 459.53 171.001 459.754C171.384 459.978 171.902 460.09 172.555 460.09C174.095 460.09 174.865 459.437 174.865 458.13V453.51H176.293V458.102C176.293 458.625 176.172 459.124 175.929 459.6C175.686 460.067 175.285 460.454 174.725 460.762C174.174 461.061 173.451 461.21 172.555 461.21ZM180.743 456.156C180.743 455.559 180.622 455.125 180.379 454.854C180.137 454.574 179.707 454.434 179.091 454.434C178.494 454.434 177.934 454.565 177.411 454.826V453.706C177.635 453.594 177.925 453.501 178.279 453.426C178.643 453.342 179.003 453.3 179.357 453.3C180.3 453.3 181.005 453.557 181.471 454.07C181.938 454.574 182.171 455.302 182.171 456.254V461H180.743V456.156ZM190.964 463.436C190.292 462.615 189.778 461.681 189.424 460.636C189.069 459.591 188.892 458.452 188.892 457.22C188.892 455.997 189.069 454.863 189.424 453.818C189.778 452.763 190.292 451.825 190.964 451.004H192.462C191.752 451.909 191.22 452.871 190.866 453.888C190.511 454.905 190.334 456.016 190.334 457.22C190.334 458.424 190.511 459.535 190.866 460.552C191.22 461.569 191.752 462.531 192.462 463.436H190.964ZM195.641 461C195.174 461 194.819 460.869 194.577 460.608C194.334 460.347 194.213 459.987 194.213 459.53V456.338L193.513 455.204C194.007 454.579 194.572 454.107 195.207 453.79C195.841 453.463 196.593 453.3 197.461 453.3C198.581 453.3 199.439 453.557 200.037 454.07C200.634 454.574 200.933 455.283 200.933 456.198V461H199.505V456.31C199.505 455.666 199.332 455.195 198.987 454.896C198.651 454.588 198.142 454.434 197.461 454.434C196.938 454.434 196.485 454.509 196.103 454.658C195.72 454.807 195.365 455.055 195.039 455.4L195.641 456.338V459.11C195.641 459.371 195.692 459.553 195.795 459.656C195.907 459.759 196.089 459.81 196.341 459.81H197.125V461H195.641ZM197.918 451.522C197.918 451.41 197.899 451.331 197.862 451.284C197.815 451.237 197.736 451.214 197.624 451.214H196.994V450.206H198.044C198.343 450.206 198.562 450.281 198.702 450.43C198.833 450.57 198.898 450.747 198.898 450.962V451.452H201.768V452.404H197.918V451.522ZM205.38 456.156C205.38 455.559 205.259 455.125 205.016 454.854C204.773 454.574 204.344 454.434 203.728 454.434C203.131 454.434 202.571 454.565 202.048 454.826V453.706C202.272 453.594 202.561 453.501 202.916 453.426C203.28 453.342 203.639 453.3 203.994 453.3C204.937 453.3 205.641 453.557 206.108 454.07C206.575 454.574 206.808 455.302 206.808 456.254V461H205.38V456.156ZM212.701 461.21C212.187 461.21 211.697 461.107 211.231 460.902C210.773 460.697 210.363 460.393 209.999 459.992V461H208.627V453.51H210.055V458.802C210.605 459.661 211.361 460.09 212.323 460.09C212.929 460.09 213.387 459.95 213.695 459.67C214.012 459.381 214.171 458.956 214.171 458.396V453.51H215.599V458.452C215.599 459.264 215.342 459.927 214.829 460.44C214.315 460.953 213.606 461.21 212.701 461.21ZM209.536 451.438H214.282V449.94H215.584V452.404H209.536V451.438ZM216.928 463.436C217.637 462.531 218.169 461.569 218.524 460.552C218.878 459.535 219.056 458.424 219.056 457.22C219.056 456.016 218.878 454.905 218.524 453.888C218.169 452.871 217.637 451.909 216.928 451.004H218.426C219.098 451.825 219.611 452.763 219.966 453.818C220.32 454.863 220.498 455.997 220.498 457.22C220.498 458.452 220.32 459.591 219.966 460.636C219.611 461.681 219.098 462.615 218.426 463.436H216.928Z" fill="#4E5256"/>
<rect x="28.5" y="223.5" width="326" height="43" rx="7.5" fill="white"/>
<rect x="28.5" y="223.5" width="326" height="43" rx="7.5" stroke="#D3D3D3"/>
<path d="M45.31 250C44.8527 250 44.5027 249.874 44.26 249.622C44.0267 249.361 43.91 248.997 43.91 248.53V242.51H45.338V248.138C45.338 248.39 45.3893 248.567 45.492 248.67C45.5947 248.763 45.772 248.81 46.024 248.81H46.528V250H45.31ZM47.6463 242.51H49.0743L50.4323 247.998L52.0563 242.51H53.1483L54.7583 247.998L56.1303 242.51H57.5583L55.4723 250H54.2683L52.6023 244.372L50.9223 250H49.7183L47.6463 242.51ZM58.9627 245.366C58.9627 244.395 59.2801 243.644 59.9147 243.112C60.5494 242.571 61.4221 242.3 62.5327 242.3C63.2514 242.3 63.8674 242.412 64.3807 242.636L64.9827 241.95H66.5647L65.3607 243.322C65.8461 243.854 66.0887 244.535 66.0887 245.366V250H64.6607V245.324C64.6607 244.689 64.4741 244.218 64.1007 243.91C63.7274 243.593 63.2047 243.434 62.5327 243.434C61.8514 243.434 61.3241 243.593 60.9507 243.91C60.5774 244.218 60.3907 244.689 60.3907 245.324V246.752C60.5121 246.528 60.7034 246.351 60.9647 246.22C61.2261 246.08 61.5341 246.01 61.8887 246.01H63.0087V247.186H61.7767C61.3847 247.186 61.0534 247.326 60.7827 247.606C60.5214 247.877 60.3907 248.189 60.3907 248.544V250H58.9627V245.366Z" fill="#4E5256"/>
<path d="M310 242L315.293 247.685C315.683 248.105 316.317 248.105 316.707 247.685L322 242" stroke="#131214" stroke-width="1.5" stroke-linecap="round"/>
<rect x="27.5" y="293.5" width="326" height="43" rx="7.5" fill="white"/>
<rect x="27.5" y="293.5" width="326" height="43" rx="7.5" stroke="#D3D3D3"/>
<path d="M45.36 320.21C44.184 320.21 43.274 320 42.63 319.58V318.432C43.2553 318.871 44.072 319.09 45.08 319.09C45.9947 319.09 46.704 318.852 47.208 318.376C47.7213 317.9 47.978 317.195 47.978 316.262C47.978 315.329 47.7213 314.624 47.208 314.148C46.704 313.672 45.9947 313.434 45.08 313.434C44.1 313.434 43.2927 313.653 42.658 314.092V312.93C43.3113 312.51 44.212 312.3 45.36 312.3C46.62 312.3 47.614 312.65 48.342 313.35C49.07 314.041 49.434 315.011 49.434 316.262C49.434 317.513 49.07 318.483 48.342 319.174C47.614 319.865 46.62 320.21 45.36 320.21ZM46.5244 311.404C46.1231 311.404 45.8337 311.306 45.6564 311.11C45.4697 310.905 45.3764 310.601 45.3764 310.2V309.472H46.6644V310.032C46.6644 310.191 46.6971 310.298 46.7624 310.354C46.8184 310.41 46.9304 310.438 47.0984 310.438H50.4024V311.404H46.5244ZM53.8744 320.21C52.9597 320.21 52.2457 319.953 51.7324 319.44C51.2284 318.927 50.9764 318.264 50.9764 317.452V312.51H52.4044V317.396C52.4044 317.956 52.5584 318.381 52.8664 318.67C53.1837 318.95 53.6457 319.09 54.2524 319.09C55.2137 319.09 55.9697 318.661 56.5204 317.802V312.51H57.9484V320H56.5624V318.992C55.8624 319.804 54.9664 320.21 53.8744 320.21ZM63.4774 310.004H64.9054L60.9154 320H59.4874L63.4774 310.004ZM67.8393 320C67.382 320 67.032 319.874 66.7893 319.622C66.556 319.361 66.4393 318.997 66.4393 318.53V312.51H67.8673V318.138C67.8673 318.39 67.9186 318.567 68.0213 318.67C68.124 318.763 68.3013 318.81 68.5533 318.81H69.0573V320H67.8393ZM73.9135 320.21C72.7935 320.21 71.9115 319.893 71.2675 319.258C70.6329 318.623 70.3155 317.69 70.3155 316.458C70.3155 315.599 70.4789 314.857 70.8055 314.232C71.1415 313.607 71.6175 313.131 72.2335 312.804C72.8495 312.468 73.5822 312.3 74.4315 312.3C75.7475 312.3 76.7089 312.613 77.3155 313.238C77.9222 313.854 78.2255 314.643 78.2255 315.604V320H76.7975V315.59C76.7975 314.153 76.0089 313.434 74.4315 313.434C73.6009 313.434 72.9475 313.695 72.4715 314.218C71.9955 314.741 71.7575 315.487 71.7575 316.458C71.7575 317.354 71.9582 318.017 72.3595 318.446C72.7609 318.875 73.3582 319.09 74.1515 319.09C74.5062 319.09 74.8329 319.043 75.1315 318.95V320.056C74.8049 320.159 74.3989 320.21 73.9135 320.21ZM72.1748 310.466H74.9888V308.94H76.0388V310.466H77.1728V308.94H78.2088V311.404H72.1748V310.466ZM82.8148 320.21C82.2361 320.21 81.6761 320.14 81.1348 320C80.5935 319.869 80.1361 319.683 79.7628 319.44V315.716H82.8708V316.864H81.1908V318.726C81.5921 318.969 82.1335 319.09 82.8148 319.09C83.7108 319.09 84.3921 318.843 84.8588 318.348C85.3348 317.853 85.5728 317.135 85.5728 316.192C85.5728 315.249 85.3301 314.554 84.8448 314.106C84.3688 313.658 83.5848 313.434 82.4928 313.434C81.9981 313.434 81.5128 313.485 81.0368 313.588C80.5608 313.681 80.1595 313.835 79.8328 314.05V312.916C80.1968 312.711 80.6261 312.557 81.1208 312.454C81.6155 312.351 82.1475 312.3 82.7168 312.3C84.1168 312.3 85.1855 312.641 85.9228 313.322C86.6601 314.003 87.0288 314.96 87.0288 316.192C87.0288 317.433 86.6601 318.413 85.9228 319.132C85.1948 319.851 84.1588 320.21 82.8148 320.21ZM91.4721 320.21C90.5574 320.21 89.8434 319.953 89.3301 319.44C88.8261 318.927 88.5741 318.264 88.5741 317.452V312.51H90.0021V317.396C90.0021 317.956 90.1561 318.381 90.4641 318.67C90.7814 318.95 91.2434 319.09 91.8501 319.09C92.8114 319.09 93.5674 318.661 94.1181 317.802V312.51H95.5461V320H94.1601V318.992C93.4601 319.804 92.5641 320.21 91.4721 320.21ZM101.075 310.004H102.503L98.5131 320H97.0851L101.075 310.004ZM107.635 320.21C106.907 320.21 106.272 320.079 105.731 319.818C105.19 319.557 104.77 319.193 104.471 318.726C104.182 318.25 104.037 317.709 104.037 317.102V312.51H105.465V317.074C105.465 317.699 105.647 318.194 106.011 318.558C106.384 318.913 106.926 319.09 107.635 319.09C108.335 319.09 108.867 318.913 109.231 318.558C109.604 318.194 109.791 317.699 109.791 317.074V310.004H111.219V317.102C111.219 317.709 111.07 318.25 110.771 318.726C110.482 319.193 110.066 319.557 109.525 319.818C108.984 320.079 108.354 320.21 107.635 320.21ZM103.625 310.438H107.545V308.94H108.777V311.404H103.625V310.438ZM114.433 320C113.976 320 113.626 319.874 113.383 319.622C113.15 319.361 113.033 318.997 113.033 318.53V312.51H114.461V318.138C114.461 318.39 114.512 318.567 114.615 318.67C114.718 318.763 114.895 318.81 115.147 318.81H115.651V320H114.433ZM117.609 315.338L116.909 314.204C117.404 313.579 117.969 313.107 118.603 312.79C119.238 312.463 119.989 312.3 120.857 312.3C121.977 312.3 122.836 312.557 123.433 313.07C124.031 313.574 124.329 314.283 124.329 315.198V320H122.901V315.31C122.901 314.666 122.729 314.195 122.383 313.896C122.047 313.588 121.539 313.434 120.857 313.434C120.344 313.434 119.891 313.513 119.499 313.672C119.107 313.821 118.753 314.064 118.435 314.4L119.037 315.338V320H117.609V315.338ZM118.262 310.438H124.31V311.404H118.262V310.438ZM129.462 320.21C128.342 320.21 127.46 319.893 126.816 319.258C126.182 318.623 125.864 317.69 125.864 316.458C125.864 315.599 126.028 314.857 126.354 314.232C126.69 313.607 127.166 313.131 127.782 312.804C128.398 312.468 129.131 312.3 129.98 312.3C131.296 312.3 132.258 312.613 132.864 313.238C133.471 313.854 133.774 314.643 133.774 315.604V320H132.346V315.59C132.346 314.153 131.558 313.434 129.98 313.434C129.15 313.434 128.496 313.695 128.02 314.218C127.544 314.741 127.306 315.487 127.306 316.458C127.306 317.354 127.507 318.017 127.908 318.446C128.31 318.875 128.907 319.09 129.7 319.09C130.055 319.09 130.382 319.043 130.68 318.95V320.056C130.354 320.159 129.948 320.21 129.462 320.21Z" fill="#4E5256"/>
<rect x="27.5" y="364.5" width="158" height="43" rx="7.5" fill="white"/>
<rect x="27.5" y="364.5" width="158" height="43" rx="7.5" stroke="#D3D3D3"/>
<path d="M45.346 391.21C44.5153 391.21 43.8527 391.005 43.358 390.594C42.8727 390.174 42.63 389.581 42.63 388.816C42.63 388.06 42.9007 387.458 43.442 387.01C43.9927 386.562 44.7347 386.338 45.668 386.338C46.592 386.338 47.4227 386.511 48.16 386.856V386.282C48.16 385.638 47.9827 385.171 47.628 384.882C47.2827 384.583 46.704 384.434 45.892 384.434C45.444 384.434 45.0053 384.476 44.576 384.56C44.1467 384.644 43.7733 384.761 43.456 384.91V383.79C43.7453 383.65 44.1373 383.533 44.632 383.44C45.136 383.347 45.626 383.3 46.102 383.3C46.942 383.3 47.642 383.454 48.202 383.762L48.916 382.95H50.498L49.084 384.532C49.42 385.008 49.588 385.582 49.588 386.254V391H48.16V387.99C47.4787 387.645 46.6993 387.472 45.822 387.472C45.2153 387.472 44.7673 387.584 44.478 387.808C44.198 388.032 44.058 388.368 44.058 388.816C44.058 389.665 44.604 390.09 45.696 390.09C46.032 390.09 46.326 390.043 46.578 389.95V391.056C46.242 391.159 45.8313 391.21 45.346 391.21ZM48.413 380.066H49.827V382.404H48.413V380.066ZM54.069 391.21C52.893 391.21 51.983 391 51.339 390.58V389.432C51.9643 389.871 52.781 390.09 53.789 390.09C54.7037 390.09 55.413 389.852 55.917 389.376C56.4303 388.9 56.687 388.195 56.687 387.262C56.687 386.329 56.4303 385.624 55.917 385.148C55.413 384.672 54.7037 384.434 53.789 384.434C52.809 384.434 52.0017 384.653 51.367 385.092V383.93C52.0203 383.51 52.921 383.3 54.069 383.3C55.329 383.3 56.323 383.65 57.051 384.35C57.779 385.041 58.143 386.011 58.143 387.262C58.143 388.513 57.779 389.483 57.051 390.174C56.323 390.865 55.329 391.21 54.069 391.21ZM62.5834 391.21C61.6687 391.21 60.9547 390.953 60.4414 390.44C59.9374 389.927 59.6854 389.264 59.6854 388.452V383.51H61.1134V388.396C61.1134 388.956 61.2674 389.381 61.5754 389.67C61.8927 389.95 62.3547 390.09 62.9614 390.09C63.9227 390.09 64.6787 389.661 65.2294 388.802V383.51H66.6574V391H65.2714V389.992C64.5714 390.804 63.6754 391.21 62.5834 391.21ZM70.9124 391.21C70.0817 391.21 69.4191 391.005 68.9244 390.594C68.4391 390.174 68.1964 389.581 68.1964 388.816C68.1964 388.06 68.4671 387.458 69.0084 387.01C69.5591 386.562 70.3011 386.338 71.2344 386.338C72.1584 386.338 72.9891 386.511 73.7264 386.856V386.282C73.7264 385.638 73.5491 385.171 73.1944 384.882C72.8491 384.583 72.2704 384.434 71.4584 384.434C71.0104 384.434 70.5717 384.476 70.1424 384.56C69.7131 384.644 69.3397 384.761 69.0224 384.91V383.79C69.3117 383.65 69.7037 383.533 70.1984 383.44C70.7024 383.347 71.1924 383.3 71.6684 383.3C72.5084 383.3 73.2084 383.454 73.7684 383.762L74.4824 382.95H76.0644L74.6504 384.532C74.9864 385.008 75.1544 385.582 75.1544 386.254V391H73.7264V387.99C73.0451 387.645 72.2657 387.472 71.3884 387.472C70.7817 387.472 70.3337 387.584 70.0444 387.808C69.7644 388.032 69.6244 388.368 69.6244 388.816C69.6244 389.665 70.1704 390.09 71.2624 390.09C71.5984 390.09 71.8924 390.043 72.1444 389.95V391.056C71.8084 391.159 71.3977 391.21 70.9124 391.21ZM73.6294 394.794C73.0507 394.794 72.6027 394.673 72.2854 394.43C71.9587 394.187 71.7954 393.861 71.7954 393.45V393.072C71.7954 392.941 71.7767 392.853 71.7394 392.806C71.7021 392.769 71.6227 392.75 71.5014 392.75H71.0254V391.798H72.2574C72.5094 391.798 72.6821 391.854 72.7754 391.966C72.8687 392.078 72.9154 392.26 72.9154 392.512V393.31C72.9154 393.721 73.1394 393.926 73.5874 393.926C74.0261 393.926 74.2454 393.721 74.2454 393.31V391.798H75.3654V393.408C75.3654 393.819 75.2161 394.15 74.9174 394.402C74.6094 394.663 74.1801 394.794 73.6294 394.794ZM76.9054 384.448H78.3334L80.1114 389.88C80.9887 389.88 81.6654 389.637 82.1414 389.152C82.6174 388.667 82.8554 387.981 82.8554 387.094C82.8554 386.217 82.6921 385.554 82.3654 385.106C82.0387 384.658 81.5161 384.434 80.7974 384.434C80.4614 384.434 80.1347 384.476 79.8174 384.56V383.454C80.1907 383.351 80.5967 383.3 81.0354 383.3C82.0994 383.3 82.9114 383.636 83.4714 384.308C84.0314 384.98 84.3114 385.909 84.3114 387.094C84.3114 387.906 84.1341 388.606 83.7794 389.194C83.4341 389.782 82.9627 390.23 82.3654 390.538C81.7681 390.846 81.1054 391 80.3774 391H79.0334L76.9054 384.448Z" fill="#4E5256"/>
<rect x="195.5" y="364.5" width="158" height="43" rx="7.5" fill="white"/>
<rect x="195.5" y="364.5" width="158" height="43" rx="7.5" stroke="#D3D3D3"/>
<path d="M213.808 391.21C212.893 391.21 212.179 390.953 211.666 390.44C211.162 389.927 210.91 389.264 210.91 388.452V383.51H212.338V388.396C212.338 388.956 212.492 389.381 212.8 389.67C213.117 389.95 213.579 390.09 214.186 390.09C215.147 390.09 215.903 389.661 216.454 388.802V383.51H217.882V391H216.496V389.992C215.796 390.804 214.9 391.21 213.808 391.21ZM216.985 382.53C216.565 382.53 216.206 382.381 215.907 382.082C215.599 381.783 215.445 381.424 215.445 381.004C215.445 380.575 215.599 380.211 215.907 379.912C216.206 379.604 216.565 379.45 216.985 379.45C217.405 379.45 217.769 379.604 218.077 379.912C218.376 380.211 218.525 380.575 218.525 381.004C218.525 381.424 218.376 381.783 218.077 382.082C217.769 382.381 217.405 382.53 216.985 382.53ZM216.985 381.662C217.153 381.662 217.302 381.597 217.433 381.466C217.554 381.326 217.615 381.172 217.615 381.004C217.615 380.836 217.554 380.687 217.433 380.556C217.302 380.425 217.153 380.36 216.985 380.36C216.817 380.36 216.672 380.425 216.551 380.556C216.42 380.687 216.355 380.836 216.355 381.004C216.355 381.172 216.42 381.326 216.551 381.466C216.672 381.597 216.817 381.662 216.985 381.662ZM215.543 377.68C215.543 377.568 215.524 377.493 215.487 377.456C215.45 377.409 215.37 377.386 215.249 377.386H214.661V376.434H215.669C216.21 376.434 216.481 376.672 216.481 377.148V377.596H218.847V378.478H215.543V377.68ZM222.333 386.156C222.333 385.559 222.212 385.125 221.969 384.854C221.726 384.574 221.297 384.434 220.681 384.434C220.084 384.434 219.524 384.565 219.001 384.826V383.706C219.225 383.594 219.514 383.501 219.869 383.426C220.233 383.342 220.592 383.3 220.947 383.3C221.89 383.3 222.594 383.557 223.061 384.07C223.528 384.574 223.761 385.302 223.761 386.254V391H222.333V386.156ZM225.58 383.51H227.008V386.814L230.634 383.51H232.3L230.256 385.372C231.021 385.568 231.553 385.881 231.852 386.31C232.16 386.739 232.314 387.313 232.314 388.032V391H230.886V388.116C230.886 387.556 230.769 387.131 230.536 386.842C230.312 386.553 229.92 386.347 229.36 386.226L227.008 388.368V391H225.58V383.51ZM237.037 391.21C236.122 391.21 235.408 390.953 234.895 390.44C234.391 389.927 234.139 389.264 234.139 388.452V383.51H235.567V388.396C235.567 388.956 235.721 389.381 236.029 389.67C236.346 389.95 236.808 390.09 237.415 390.09C238.376 390.09 239.132 389.661 239.683 388.802V383.51H241.111V391H239.725V389.992C239.025 390.804 238.129 391.21 237.037 391.21ZM238.478 382.404C238.076 382.404 237.787 382.306 237.61 382.11C237.423 381.905 237.33 381.601 237.33 381.2V380.472H238.618V381.032C238.618 381.191 238.65 381.298 238.716 381.354C238.772 381.41 238.884 381.438 239.052 381.438H242.356V382.404H238.478ZM243.35 386.338L242.65 385.204C243.144 384.579 243.709 384.107 244.344 383.79C244.978 383.463 245.73 383.3 246.598 383.3C247.718 383.3 248.576 383.557 249.174 384.07C249.771 384.574 250.07 385.283 250.07 386.198V391H248.642V386.31C248.642 385.666 248.469 385.195 248.124 384.896C247.788 384.588 247.279 384.434 246.598 384.434C246.084 384.434 245.632 384.513 245.24 384.672C244.848 384.821 244.493 385.064 244.176 385.4L244.778 386.338V391H243.35V386.338Z" fill="#4E5256"/>
<rect x="28.5" y="505.5" width="326" height="138" rx="7.5" fill="white"/>
<rect x="28.5" y="505.5" width="326" height="138" rx="7.5" stroke="#D3D3D3"/>
<path d="M43.91 524.51H45.282V525.518C45.646 525.107 46.0707 524.804 46.556 524.608C47.0507 524.403 47.55 524.3 48.054 524.3C48.9687 524.3 49.6687 524.552 50.154 525.056C50.6393 525.56 50.882 526.209 50.882 527.002V532H49.454V527.072C49.454 526.549 49.3093 526.148 49.02 525.868C48.7307 525.579 48.2827 525.434 47.676 525.434C46.6587 525.434 45.8793 525.859 45.338 526.708V532H43.91V524.51ZM44.819 522.438H49.565V520.94H50.867V523.404H44.819V522.438ZM49.579 517.616H50.867V519.478H49.579V517.616ZM55.473 532.21C54.8943 532.21 54.3343 532.14 53.793 532C53.2517 531.869 52.7943 531.683 52.421 531.44V527.716H55.529V528.864H53.849V530.726C54.2503 530.969 54.7917 531.09 55.473 531.09C56.369 531.09 57.0503 530.843 57.517 530.348C57.993 529.853 58.231 529.135 58.231 528.192C58.231 527.249 57.9883 526.554 57.503 526.106C57.027 525.658 56.243 525.434 55.151 525.434C54.6563 525.434 54.171 525.485 53.695 525.588C53.219 525.681 52.8177 525.835 52.491 526.05V524.916C52.855 524.711 53.2843 524.557 53.779 524.454C54.2737 524.351 54.8057 524.3 55.375 524.3C56.775 524.3 57.8437 524.641 58.581 525.322C59.3183 526.003 59.687 526.96 59.687 528.192C59.687 529.433 59.3183 530.413 58.581 531.132C57.853 531.851 56.817 532.21 55.473 532.21ZM64.5083 532.21C63.4256 532.21 62.5623 532.005 61.9183 531.594C61.2743 531.183 60.9523 530.586 60.9523 529.802C60.9523 529.391 61.0643 529.032 61.2883 528.724C61.5216 528.407 61.8296 528.187 62.2123 528.066C61.8483 527.907 61.5543 527.679 61.3303 527.38C61.1156 527.081 61.0083 526.736 61.0083 526.344C61.0083 525.728 61.2136 525.233 61.6243 524.86C62.0349 524.487 62.6369 524.3 63.4303 524.3C63.6543 524.3 63.8829 524.319 64.1163 524.356C64.3496 524.384 64.5363 524.417 64.6763 524.454V525.574C64.5549 525.527 64.3963 525.495 64.2003 525.476C64.0136 525.448 63.8409 525.434 63.6823 525.434C63.2809 525.434 62.9729 525.523 62.7583 525.7C62.5529 525.868 62.4503 526.111 62.4503 526.428C62.4503 526.764 62.5623 527.021 62.7863 527.198C63.0103 527.375 63.3416 527.464 63.7803 527.464H64.6763V528.64H63.7943C63.3463 528.64 63.0009 528.738 62.7583 528.934C62.5156 529.121 62.3943 529.41 62.3943 529.802C62.3943 530.213 62.5809 530.53 62.9543 530.754C63.3369 530.978 63.8549 531.09 64.5083 531.09C66.0483 531.09 66.8183 530.437 66.8183 529.13V524.51H68.2463V529.102C68.2463 529.625 68.1249 530.124 67.8823 530.6C67.6396 531.067 67.2383 531.454 66.6783 531.762C66.1276 532.061 65.4043 532.21 64.5083 532.21ZM66.5083 535.794C65.9296 535.794 65.4816 535.673 65.1643 535.43C64.8376 535.187 64.6743 534.861 64.6743 534.45V534.072C64.6743 533.941 64.6556 533.853 64.6183 533.806C64.581 533.769 64.5016 533.75 64.3803 533.75H63.9043V532.798H65.1363C65.3883 532.798 65.561 532.854 65.6543 532.966C65.7476 533.078 65.7943 533.26 65.7943 533.512V534.31C65.7943 534.721 66.0183 534.926 66.4663 534.926C66.905 534.926 67.1243 534.721 67.1243 534.31V532.798H68.2443V534.408C68.2443 534.819 68.095 535.15 67.7963 535.402C67.4883 535.663 67.059 535.794 66.5083 535.794ZM66.8583 521.066H68.2723V523.404H66.8583V521.066Z" fill="#4E5256"/>
<rect x="89" y="670.5" width="217" height="44" rx="22" fill="#16AD78"/>
<path d="M161.748 697.74C160.863 697.74 160.089 697.585 159.428 697.276C158.767 696.956 158.255 696.519 157.892 695.964C157.529 695.409 157.348 694.78 157.348 694.076V688.94H159.78V693.916C159.78 694.535 159.94 695.015 160.26 695.356C160.591 695.687 161.087 695.852 161.748 695.852C162.409 695.852 162.9 695.687 163.22 695.356C163.54 695.015 163.7 694.535 163.7 693.916V688.94H166.132V694.076C166.132 694.78 165.951 695.409 165.588 695.964C165.225 696.519 164.713 696.956 164.052 697.276C163.391 697.585 162.623 697.74 161.748 697.74ZM162.809 687.884C161.785 687.884 161.273 687.367 161.273 686.332V685.164H163.449V685.948C163.449 686.097 163.481 686.204 163.545 686.268C163.598 686.321 163.705 686.348 163.865 686.348H167.513V687.884H162.809ZM171.113 697.74C170.42 697.74 169.822 697.596 169.321 697.308C168.82 697.02 168.436 696.625 168.169 696.124C167.913 695.623 167.785 695.063 167.785 694.444V688.94H170.217V694.3C170.217 695.335 170.766 695.852 171.865 695.852C172.313 695.852 172.697 695.761 173.017 695.58C173.348 695.388 173.636 695.095 173.881 694.7V688.94H176.297V697.5H173.993V696.54C173.62 696.935 173.177 697.233 172.665 697.436C172.164 697.639 171.646 697.74 171.113 697.74ZM177.973 688.94H180.293V689.916C180.677 689.532 181.13 689.233 181.653 689.02C182.175 688.807 182.698 688.7 183.221 688.7C184.298 688.7 185.109 688.993 185.653 689.58C186.207 690.156 186.485 690.919 186.485 691.868V697.5H184.069V692.076C184.069 691.084 183.546 690.588 182.501 690.588C182.063 690.588 181.663 690.684 181.301 690.876C180.949 691.068 180.65 691.361 180.405 691.756V697.5H177.973V688.94ZM179.104 686.348H183.36C183.349 686.284 183.344 686.199 183.344 686.092C183.344 685.612 183.504 685.217 183.824 684.908C184.144 684.588 184.555 684.428 185.056 684.428C185.589 684.428 186.016 684.599 186.336 684.94C186.656 685.271 186.816 685.671 186.816 686.14C186.816 686.641 186.64 687.057 186.288 687.388C185.925 687.719 185.472 687.884 184.928 687.884H179.104V686.348ZM185.072 686.812C185.253 686.812 185.413 686.748 185.552 686.62C185.68 686.481 185.744 686.321 185.744 686.14C185.744 685.959 185.68 685.799 185.552 685.66C185.413 685.521 185.253 685.452 185.072 685.452C184.891 685.452 184.736 685.521 184.608 685.66C184.469 685.799 184.4 685.959 184.4 686.14C184.4 686.321 184.469 686.481 184.608 686.62C184.736 686.748 184.891 686.812 185.072 686.812ZM188.608 692.396L187.808 691.036C189.056 689.479 190.661 688.7 192.624 688.7C194 688.7 195.056 689.004 195.792 689.612C196.539 690.22 196.912 691.068 196.912 692.156V697.5H194.48V692.348C194.48 691.175 193.861 690.588 192.624 690.588C192.165 690.588 191.755 690.652 191.392 690.78C191.04 690.908 190.709 691.116 190.4 691.404L191.024 692.428V697.5H188.608V692.396ZM202.518 697.74C201.665 697.74 200.923 697.607 200.294 697.34C199.675 697.073 199.201 696.7 198.87 696.22C198.539 695.74 198.374 695.196 198.374 694.588V694.188C198.374 693.804 198.449 693.463 198.598 693.164C198.747 692.855 198.955 692.508 199.222 692.124C199.393 691.889 199.515 691.703 199.59 691.564C199.665 691.415 199.702 691.276 199.702 691.148C199.702 690.849 199.521 690.7 199.158 690.7H198.262V688.94H200.582C201.062 688.94 201.446 689.079 201.734 689.356C202.022 689.633 202.166 689.996 202.166 690.444C202.166 690.764 202.107 691.063 201.99 691.34C201.873 691.607 201.697 691.916 201.462 692.268C201.238 692.62 201.067 692.919 200.95 693.164C200.843 693.409 200.79 693.676 200.79 693.964V694.3C200.79 694.801 200.934 695.185 201.222 695.452C201.521 695.719 201.953 695.852 202.518 695.852C203.638 695.852 204.198 695.313 204.198 694.236V688.94H206.63V693.98C206.63 695.143 206.273 696.06 205.558 696.732C204.854 697.404 203.841 697.74 202.518 697.74ZM202.717 686.86C202.717 686.743 202.695 686.663 202.653 686.62C202.599 686.567 202.514 686.54 202.397 686.54H201.645V684.892H203.149C203.543 684.892 203.831 684.983 204.013 685.164C204.183 685.345 204.269 685.575 204.269 685.852V686.332H207.485V687.884H202.717V686.86ZM211.821 697.74C211.106 697.74 210.402 697.665 209.709 697.516C209.015 697.377 208.439 697.18 207.981 696.924V692.428H212.029V694.204H210.365V695.58C210.695 695.761 211.181 695.852 211.821 695.852C213.517 695.852 214.365 694.967 214.365 693.196C214.365 692.289 214.119 691.628 213.629 691.212C213.138 690.796 212.311 690.588 211.149 690.588C210.615 690.588 210.066 690.647 209.501 690.764C208.946 690.871 208.477 691.025 208.093 691.228V689.34C208.53 689.137 209.058 688.983 209.677 688.876C210.295 688.759 210.941 688.7 211.613 688.7C213.33 688.7 214.631 689.095 215.517 689.884C216.413 690.663 216.861 691.767 216.861 693.196C216.861 694.604 216.423 695.713 215.549 696.524C214.674 697.335 213.431 697.74 211.821 697.74ZM223.391 697.74C222.858 697.74 222.34 697.639 221.839 697.436C221.338 697.233 220.9 696.935 220.527 696.54V697.5H218.207V688.94H220.639V694.7C220.874 695.095 221.156 695.388 221.487 695.58C221.818 695.761 222.207 695.852 222.655 695.852C223.754 695.852 224.303 695.335 224.303 694.3V688.94H226.719V694.444C226.719 695.063 226.591 695.623 226.335 696.124C226.079 696.625 225.7 697.02 225.199 697.308C224.698 697.596 224.095 697.74 223.391 697.74ZM224.394 701.98C223.605 701.98 222.997 701.825 222.57 701.516C222.133 701.207 221.914 700.796 221.914 700.284V699.996C221.914 699.857 221.893 699.761 221.85 699.708C221.797 699.655 221.706 699.628 221.578 699.628H221.05V698.252H222.859C223.179 698.252 223.402 698.321 223.53 698.46C223.648 698.609 223.706 698.839 223.706 699.148V700.028C223.706 700.412 223.909 700.604 224.314 700.604C224.709 700.604 224.906 700.412 224.906 700.028V698.252H226.698V700.22C226.698 700.732 226.501 701.153 226.106 701.484C225.701 701.815 225.13 701.98 224.394 701.98ZM231.291 697.74C230.309 697.74 229.525 697.495 228.939 697.004C228.363 696.513 228.075 695.82 228.075 694.924C228.075 694.028 228.389 693.324 229.019 692.812C229.659 692.3 230.533 692.044 231.643 692.044C232.677 692.044 233.563 692.215 234.299 692.556V692.22C234.299 691.644 234.107 691.217 233.723 690.94C233.349 690.663 232.741 690.524 231.899 690.524C231.376 690.524 230.864 690.577 230.363 690.684C229.861 690.791 229.413 690.94 229.019 691.132V689.308C229.371 689.137 229.856 688.993 230.475 688.876C231.093 688.759 231.717 688.7 232.347 688.7C233.776 688.7 234.859 689.02 235.595 689.66C236.341 690.289 236.715 691.137 236.715 692.204V697.5H234.299V694.316C233.68 693.996 232.955 693.836 232.123 693.836C231.579 693.836 231.179 693.927 230.923 694.108C230.677 694.289 230.555 694.572 230.555 694.956C230.555 695.308 230.667 695.575 230.891 695.756C231.125 695.927 231.493 696.012 231.995 696.012C232.347 696.012 232.645 695.959 232.891 695.852V697.532C232.475 697.671 231.941 697.74 231.291 697.74Z" fill="white"/>
</svg>
