<svg width="390" height="849" viewBox="0 0 390 849" fill="none" xmlns="http://www.w3.org/2000/svg">
<rect y="5" width="390" height="844" rx="32" fill="#C5C5C5"/>
<rect x="33" y="249" width="330" height="67" rx="10" fill="#C5C5C5"/>
<rect x="33" y="324" width="330" height="40" rx="10" fill="#C5C5C5"/>
<rect x="33" y="372" width="330" height="40" rx="10" fill="#C5C5C5"/>
<rect x="33" y="420" width="330" height="40" rx="10" fill="#C5C5C5"/>
<path fill-rule="evenodd" clip-rule="evenodd" d="M121 838.5C121 837.119 122.119 836 123.5 836H266.5C267.881 836 269 837.119 269 838.5C269 839.881 267.881 841 266.5 841H123.5C122.119 841 121 839.881 121 838.5Z" fill="#090A0A"/>
<path d="M54.0688 36V26.1304H53.9194L50.9395 28.2305V26.2217L54.0688 24.022H56.2021V36H54.0688ZM63.4219 36.2988C62.4701 36.2988 61.6538 36.0443 60.9731 35.5352C60.298 35.026 59.7778 34.3011 59.4126 33.3604C59.0474 32.4196 58.8647 31.3045 58.8647 30.0151V29.9985C58.8647 28.7091 59.0474 27.5968 59.4126 26.6616C59.7778 25.7209 60.298 24.9959 60.9731 24.4868C61.6538 23.9777 62.4701 23.7231 63.4219 23.7231C64.3737 23.7231 65.1899 23.9777 65.8706 24.4868C66.5513 24.9959 67.0742 25.7209 67.4395 26.6616C67.8047 27.5968 67.9873 28.7091 67.9873 29.9985V30.0151C67.9873 31.3045 67.8047 32.4196 67.4395 33.3604C67.0742 34.3011 66.5513 35.026 65.8706 35.5352C65.1899 36.0443 64.3737 36.2988 63.4219 36.2988ZM63.4219 34.564C63.931 34.564 64.3654 34.3813 64.7251 34.0161C65.0848 33.6509 65.3587 33.1307 65.5469 32.4556C65.7406 31.7749 65.8374 30.9614 65.8374 30.0151V29.9985C65.8374 29.0522 65.7406 28.2415 65.5469 27.5664C65.3587 26.8857 65.0848 26.3656 64.7251 26.0059C64.3654 25.6406 63.931 25.458 63.4219 25.458C62.9128 25.458 62.4784 25.6406 62.1187 26.0059C61.7645 26.3656 61.4906 26.8857 61.2969 27.5664C61.1087 28.2415 61.0146 29.0522 61.0146 29.9985V30.0151C61.0146 30.9614 61.1087 31.7749 61.2969 32.4556C61.4906 33.1307 61.7645 33.6509 62.1187 34.0161C62.4784 34.3813 62.9128 34.564 63.4219 34.564ZM71.2974 34.3896C70.9211 34.3896 70.6056 34.2651 70.3511 34.0161C70.1021 33.7616 69.9775 33.4517 69.9775 33.0864C69.9775 32.7157 70.1021 32.4058 70.3511 32.1567C70.6056 31.9022 70.9211 31.7749 71.2974 31.7749C71.6792 31.7749 71.9946 31.9022 72.2437 32.1567C72.4927 32.4058 72.6172 32.7157 72.6172 33.0864C72.6172 33.4517 72.4927 33.7616 72.2437 34.0161C71.9946 34.2651 71.6792 34.3896 71.2974 34.3896ZM71.2974 28.2305C70.9211 28.2305 70.6056 28.106 70.3511 27.8569C70.1021 27.6024 69.9775 27.2925 69.9775 26.9272C69.9775 26.5565 70.1021 26.2466 70.3511 25.9976C70.6056 25.743 70.9211 25.6157 71.2974 25.6157C71.6792 25.6157 71.9946 25.743 72.2437 25.9976C72.4927 26.2466 72.6172 26.5565 72.6172 26.9272C72.6172 27.2925 72.4927 27.6024 72.2437 27.8569C71.9946 28.106 71.6792 28.2305 71.2974 28.2305ZM79.1562 36.2988C78.2044 36.2988 77.3882 36.0443 76.7075 35.5352C76.0324 35.026 75.5122 34.3011 75.147 33.3604C74.7817 32.4196 74.5991 31.3045 74.5991 30.0151V29.9985C74.5991 28.7091 74.7817 27.5968 75.147 26.6616C75.5122 25.7209 76.0324 24.9959 76.7075 24.4868C77.3882 23.9777 78.2044 23.7231 79.1562 23.7231C80.1081 23.7231 80.9243 23.9777 81.605 24.4868C82.2856 24.9959 82.8086 25.7209 83.1738 26.6616C83.5391 27.5968 83.7217 28.7091 83.7217 29.9985V30.0151C83.7217 31.3045 83.5391 32.4196 83.1738 33.3604C82.8086 34.3011 82.2856 35.026 81.605 35.5352C80.9243 36.0443 80.1081 36.2988 79.1562 36.2988ZM79.1562 34.564C79.6654 34.564 80.0998 34.3813 80.4595 34.0161C80.8192 33.6509 81.0931 33.1307 81.2812 32.4556C81.4749 31.7749 81.5718 30.9614 81.5718 30.0151V29.9985C81.5718 29.0522 81.4749 28.2415 81.2812 27.5664C81.0931 26.8857 80.8192 26.3656 80.4595 26.0059C80.0998 25.6406 79.6654 25.458 79.1562 25.458C78.6471 25.458 78.2127 25.6406 77.853 26.0059C77.4989 26.3656 77.2249 26.8857 77.0312 27.5664C76.8431 28.2415 76.749 29.0522 76.749 29.9985V30.0151C76.749 30.9614 76.8431 31.7749 77.0312 32.4556C77.2249 33.1307 77.4989 33.6509 77.853 34.0161C78.2127 34.3813 78.6471 34.564 79.1562 34.564ZM89.9619 36.2988C89.0101 36.2988 88.1938 36.0443 87.5132 35.5352C86.8381 35.026 86.3179 34.3011 85.9526 33.3604C85.5874 32.4196 85.4048 31.3045 85.4048 30.0151V29.9985C85.4048 28.7091 85.5874 27.5968 85.9526 26.6616C86.3179 25.7209 86.8381 24.9959 87.5132 24.4868C88.1938 23.9777 89.0101 23.7231 89.9619 23.7231C90.9137 23.7231 91.73 23.9777 92.4106 24.4868C93.0913 24.9959 93.6143 25.7209 93.9795 26.6616C94.3447 27.5968 94.5273 28.7091 94.5273 29.9985V30.0151C94.5273 31.3045 94.3447 32.4196 93.9795 33.3604C93.6143 34.3011 93.0913 35.026 92.4106 35.5352C91.73 36.0443 90.9137 36.2988 89.9619 36.2988ZM89.9619 34.564C90.471 34.564 90.9054 34.3813 91.2651 34.0161C91.6248 33.6509 91.8988 33.1307 92.0869 32.4556C92.2806 31.7749 92.3774 30.9614 92.3774 30.0151V29.9985C92.3774 29.0522 92.2806 28.2415 92.0869 27.5664C91.8988 26.8857 91.6248 26.3656 91.2651 26.0059C90.9054 25.6406 90.471 25.458 89.9619 25.458C89.4528 25.458 89.0184 25.6406 88.6587 26.0059C88.3045 26.3656 88.0306 26.8857 87.8369 27.5664C87.6488 28.2415 87.5547 29.0522 87.5547 29.9985V30.0151C87.5547 30.9614 87.6488 31.7749 87.8369 32.4556C88.0306 33.1307 88.3045 33.6509 88.6587 34.0161C89.0184 34.3813 89.4528 34.564 89.9619 34.564Z" fill="black"/>
<path d="M288.333 31C288.977 31 289.5 31.5037 289.5 32.125V34.375C289.5 34.9963 288.977 35.5 288.333 35.5H287.167C286.523 35.5 286 34.9963 286 34.375V32.125C286 31.5037 286.523 31 287.167 31H288.333ZM293.823 28.75C294.468 28.75 294.99 29.2537 294.99 29.875V34.375C294.99 34.9963 294.468 35.5 293.823 35.5H292.657C292.013 35.5 291.49 34.9963 291.49 34.375V29.875C291.49 29.2537 292.013 28.75 292.657 28.75H293.823ZM299.313 26.125C299.958 26.125 300.48 26.6287 300.48 27.25V34.375C300.48 34.9963 299.958 35.5 299.313 35.5H298.147C297.503 35.5 296.98 34.9963 296.98 34.375V27.25C296.981 26.6287 297.503 26.125 298.147 26.125H299.313ZM304.804 23.5C305.448 23.5 305.971 24.0037 305.971 24.625V34.375C305.971 34.9963 305.448 35.5 304.804 35.5H303.638C302.993 35.5 302.471 34.9963 302.471 34.375V24.625C302.471 24.0037 302.993 23.5 303.638 23.5H304.804Z" fill="black"/>
<path d="M318.512 32.8262C319.932 31.5964 322.011 31.5964 323.431 32.8262C323.502 32.8924 323.544 32.9855 323.546 33.084C323.548 33.1826 323.51 33.2777 323.441 33.3467L321.218 35.6446C321.153 35.7121 321.063 35.7501 320.971 35.7501C320.878 35.7499 320.79 35.7119 320.725 35.6446L318.501 33.3467C318.432 33.2776 318.394 33.1826 318.396 33.084C318.399 32.9855 318.44 32.8923 318.512 32.8262ZM315.545 29.7608C318.604 26.8467 323.341 26.8467 326.4 29.7608C326.469 29.829 326.509 29.9225 326.51 30.0206C326.511 30.1188 326.473 30.2135 326.405 30.2833L325.12 31.6133C324.988 31.7491 324.774 31.7524 324.638 31.6202C323.633 30.6886 322.326 30.1728 320.971 30.1729C319.617 30.1736 318.311 30.6895 317.308 31.6202C317.172 31.7524 316.958 31.7491 316.825 31.6133L315.54 30.2833C315.472 30.2136 315.435 30.1189 315.436 30.0206C315.437 29.9224 315.476 29.829 315.545 29.7608ZM312.578 26.7032C317.27 22.0989 324.671 22.099 329.363 26.7032C329.431 26.7716 329.47 26.8654 329.471 26.963C329.471 27.0605 329.433 27.1545 329.366 27.2237L328.08 28.5538C327.947 28.6901 327.732 28.691 327.598 28.5567C325.81 26.8164 323.437 25.8459 320.971 25.8458C318.504 25.8459 316.131 26.8163 314.344 28.5567C314.209 28.6913 313.994 28.6904 313.861 28.5538L312.574 27.2237C312.507 27.1545 312.47 27.0605 312.471 26.963C312.471 26.8654 312.51 26.7715 312.578 26.7032Z" fill="black"/>
<rect opacity="0.4" x="336.471" y="23.5" width="24" height="12" rx="3.5" stroke="black"/>
<path opacity="0.5" d="M361.971 27.5V31.5C362.777 31.1612 363.301 30.3731 363.301 29.5C363.301 28.6269 362.777 27.8388 361.971 27.5Z" fill="black"/>
<rect x="337.971" y="25" width="17" height="9" rx="2" fill="black"/>
<path d="M42.8095 99.5268C42.068 100.323 40.8068 100.323 40.0652 99.5268L28.2697 86.8632C27.5544 86.0952 27.5544 84.9048 28.2697 84.1368L40.0652 71.4732C40.8068 70.677 42.068 70.677 42.8095 71.4732C43.4802 72.1932 43.4802 73.3093 42.8095 74.0293L33.395 84.1368C32.6796 84.9048 32.6796 86.0952 33.395 86.8632L42.8095 96.9707C43.4802 97.6907 43.4802 98.8068 42.8095 99.5268Z" fill="#535353"/>
<path d="M168.22 93C167.487 93 166.92 92.7933 166.52 92.38C166.133 91.9533 165.94 91.3667 165.94 90.62V83.44C165.94 82.5333 165.767 81.8267 165.42 81.32C165.073 80.8 164.513 80.3933 163.74 80.1V77.96H170.88V80.3H167.66C168.54 80.98 168.98 82.0467 168.98 83.5V89.8C168.98 90.12 169.047 90.3467 169.18 90.48C169.313 90.6133 169.533 90.68 169.84 90.68H170.54V93H168.22ZM177.454 93.3C176.347 93.3 175.381 93.1067 174.554 92.72C173.727 92.32 173.087 91.7733 172.634 91.08C172.181 90.3867 171.954 89.6 171.954 88.72V82.3H174.994V88.52C174.994 89.2933 175.194 89.8933 175.594 90.32C176.007 90.7333 176.627 90.94 177.454 90.94C178.281 90.94 178.894 90.7333 179.294 90.32C179.694 89.8933 179.894 89.2933 179.894 88.52V78.72H182.934V88.72C182.934 89.6 182.707 90.3867 182.254 91.08C181.801 91.7733 181.161 92.32 180.334 92.72C179.507 93.1067 178.547 93.3 177.454 93.3ZM189.02 93.3C188.234 93.3 187.434 93.22 186.62 93.06C185.82 92.9133 185.187 92.6867 184.72 92.38V90.06C185.307 90.4067 185.96 90.6733 186.68 90.86C187.414 91.0467 188.074 91.14 188.66 91.14C189.367 91.14 189.88 91.0733 190.2 90.94C190.534 90.7933 190.7 90.54 190.7 90.18C190.7 89.86 190.54 89.6133 190.22 89.44C189.914 89.2667 189.334 89.0467 188.48 88.78L187.98 88.62C186.834 88.26 185.987 87.8267 185.44 87.32C184.894 86.8133 184.62 86.12 184.62 85.24C184.62 84.2133 185.034 83.42 185.86 82.86C186.687 82.2867 187.8 82 189.2 82C189.96 82 190.694 82.08 191.4 82.24C192.107 82.4 192.674 82.6067 193.1 82.86V85.24C192.674 84.9467 192.14 84.7133 191.5 84.54C190.874 84.3533 190.254 84.26 189.64 84.26C188.347 84.26 187.7 84.5867 187.7 85.24C187.7 85.56 187.854 85.8067 188.16 85.98C188.467 86.1533 189.014 86.36 189.8 86.6L190.52 86.82C191.36 87.0867 192.014 87.38 192.48 87.7C192.96 88.02 193.294 88.38 193.48 88.78C193.667 89.18 193.76 89.6667 193.76 90.24C193.76 91.16 193.36 91.9 192.56 92.46C191.774 93.02 190.594 93.3 189.02 93.3ZM198.35 93C197.617 93 197.05 92.7933 196.65 92.38C196.263 91.9533 196.07 91.3667 196.07 90.62V83.72C196.07 82.1467 196.53 81.0067 197.45 80.3H194.15V77.96H201.29V80.1C200.517 80.4067 199.957 80.84 199.61 81.4C199.263 81.96 199.09 82.7133 199.09 83.66V89.8C199.09 90.12 199.157 90.3467 199.29 90.48C199.423 90.6133 199.65 90.68 199.97 90.68H200.67V93H198.35ZM201.764 82.3H204.804L206.304 88.84L208.144 82.3H210.344L212.184 88.84L214.284 78.72H217.224L213.744 93H211.164L209.244 86.34L207.324 93H204.744L201.764 82.3ZM221.316 93.3C220.09 93.3 219.11 92.9933 218.376 92.38C217.656 91.7667 217.296 90.9 217.296 89.78C217.296 88.66 217.69 87.78 218.476 87.14C219.276 86.5 220.37 86.18 221.756 86.18C223.05 86.18 224.156 86.3933 225.076 86.82V86.4C225.076 85.68 224.836 85.1467 224.356 84.8C223.89 84.4533 223.13 84.28 222.076 84.28C221.423 84.28 220.783 84.3467 220.156 84.48C219.53 84.6133 218.97 84.8 218.476 85.04V82.76C218.916 82.5467 219.523 82.3667 220.296 82.22C221.07 82.0733 221.85 82 222.636 82C224.423 82 225.776 82.4 226.696 83.2C227.63 83.9867 228.096 85.0467 228.096 86.38V93H225.076V89.02C224.303 88.62 223.396 88.42 222.356 88.42C221.676 88.42 221.176 88.5333 220.856 88.76C220.55 88.9867 220.396 89.34 220.396 89.82C220.396 90.26 220.536 90.5933 220.816 90.82C221.11 91.0333 221.57 91.14 222.196 91.14C222.636 91.14 223.01 91.0733 223.316 90.94V93.04C222.796 93.2133 222.13 93.3 221.316 93.3ZM222.677 79.46C222.677 78.8733 222.837 78.4333 223.157 78.14C223.463 77.8467 223.957 77.7 224.637 77.7H229.137V79.6H225.937C225.737 79.6 225.597 79.6467 225.517 79.74C225.423 79.82 225.377 79.96 225.377 80.16V80.98H222.677V79.46Z" fill="black"/>
<path d="M179.257 195.288C182.055 193.148 185.182 191.461 188.638 190.227C192.094 188.992 195.715 188.375 199.501 188.375C203.286 188.375 206.907 188.992 210.363 190.227C213.819 191.461 216.946 193.148 219.744 195.288C221.665 193.038 223.16 190.487 224.229 187.635C225.299 184.782 225.834 181.737 225.834 178.5C225.834 171.204 223.269 164.991 218.14 159.861C213.01 154.732 206.797 152.167 199.501 152.167C192.204 152.167 185.991 154.732 180.862 159.861C175.732 164.991 173.167 171.204 173.167 178.5C173.167 181.737 173.702 184.782 174.772 187.635C175.842 190.487 177.337 193.038 179.257 195.288ZM199.501 181.792C196.264 181.792 193.535 180.681 191.313 178.459C189.091 176.237 187.98 173.508 187.98 170.271C187.98 167.034 189.091 164.305 191.313 162.083C193.535 159.861 196.264 158.75 199.501 158.75C202.737 158.75 205.467 159.861 207.689 162.083C209.911 164.305 211.021 167.034 211.021 170.271C211.021 173.508 209.911 176.237 207.689 178.459C205.467 180.681 202.737 181.792 199.501 181.792ZM199.501 211.417C194.947 211.417 190.668 210.553 186.663 208.825C182.658 207.097 179.175 204.751 176.212 201.789C173.25 198.826 170.904 195.343 169.176 191.338C167.448 187.333 166.584 183.054 166.584 178.5C166.584 173.947 167.448 169.668 169.176 165.663C170.904 161.658 173.25 158.174 176.212 155.212C179.175 152.249 182.658 149.904 186.663 148.176C190.668 146.448 194.947 145.583 199.501 145.583C204.054 145.583 208.333 146.448 212.338 148.176C216.343 149.904 219.827 152.249 222.789 155.212C225.752 158.174 228.097 161.658 229.825 165.663C231.553 169.668 232.417 173.947 232.417 178.5C232.417 183.054 231.553 187.333 229.825 191.338C228.097 195.343 225.752 198.826 222.789 201.789C219.827 204.751 216.343 207.097 212.338 208.825C208.333 210.553 204.054 211.417 199.501 211.417ZM199.501 204.833C202.408 204.833 205.151 204.408 207.73 203.558C210.308 202.708 212.667 201.487 214.807 199.896C212.667 198.305 210.308 197.084 207.73 196.234C205.151 195.384 202.408 194.958 199.501 194.958C196.593 194.958 193.85 195.384 191.271 196.234C188.693 197.084 186.334 198.305 184.194 199.896C186.334 201.487 188.693 202.708 191.271 203.558C193.85 204.408 196.593 204.833 199.501 204.833ZM199.501 175.208C200.927 175.208 202.107 174.742 203.039 173.81C203.972 172.877 204.438 171.697 204.438 170.271C204.438 168.845 203.972 167.665 203.039 166.732C202.107 165.8 200.927 165.333 199.501 165.333C198.074 165.333 196.895 165.8 195.962 166.732C195.029 167.665 194.563 168.845 194.563 170.271C194.563 171.697 195.029 172.877 195.962 173.81C196.895 174.742 198.074 175.208 199.501 175.208Z" fill="#4E5256"/>
<path d="M48.704 272.24C47.9147 272.24 47.2213 272.107 46.624 271.84C46.0267 271.563 45.5627 271.184 45.232 270.704C44.9013 270.213 44.736 269.659 44.736 269.04V268.64C44.736 268.267 44.816 267.92 44.976 267.6C45.136 267.28 45.3547 266.923 45.632 266.528C45.824 266.24 45.9573 266.032 46.032 265.904C46.1067 265.776 46.144 265.648 46.144 265.52C46.144 265.2 45.9467 265.04 45.552 265.04H44.64V263.44H46.624C47.104 263.44 47.4827 263.579 47.76 263.856C48.048 264.123 48.192 264.485 48.192 264.944C48.192 265.264 48.128 265.557 48 265.824C47.8827 266.091 47.7067 266.416 47.472 266.8C47.2373 267.184 47.0613 267.504 46.944 267.76C46.8267 268.005 46.768 268.272 46.768 268.56V268.96C46.768 269.493 46.9333 269.909 47.264 270.208C47.6053 270.507 48.0853 270.656 48.704 270.656C49.3547 270.656 49.8507 270.48 50.192 270.128C50.544 269.765 50.72 269.237 50.72 268.544C50.72 267.147 50.1493 266.448 49.008 266.448V265.376L50.64 263.2H52.816L51.04 265.568C51.648 265.856 52.0853 266.24 52.352 266.72C52.6187 267.2 52.752 267.808 52.752 268.544C52.752 269.259 52.5867 269.899 52.256 270.464C51.9253 271.019 51.4507 271.456 50.832 271.776C50.224 272.085 49.5147 272.24 48.704 272.24ZM45.3891 260.976H48.4931V259.248H49.9171V260.976H51.1331V259.248H52.5411V262.272H45.3891V260.976ZM50.7011 256.544H52.5251V258.736H50.7011V256.544ZM57.7571 272.24C57.0745 272.24 56.4025 272.165 55.7411 272.016C55.0798 271.867 54.5305 271.659 54.0931 271.392V266.912H57.9331V268.56H56.1251V270.336C56.5198 270.549 57.0638 270.656 57.7571 270.656C58.6958 270.656 59.4051 270.4 59.8851 269.888C60.3651 269.376 60.6051 268.629 60.6051 267.648C60.6051 266.976 60.4985 266.432 60.2851 266.016C60.0718 265.6 59.7198 265.291 59.2291 265.088C58.7385 264.885 58.0771 264.784 57.2451 264.784C56.7011 264.784 56.1465 264.843 55.5811 264.96C55.0265 265.067 54.5625 265.227 54.1891 265.44V263.856C54.6158 263.643 55.1225 263.483 55.7091 263.376C56.3065 263.259 56.9358 263.2 57.5971 263.2C59.2185 263.2 60.4718 263.589 61.3571 264.368C62.2425 265.136 62.6851 266.229 62.6851 267.648C62.6851 269.067 62.2585 270.187 61.4051 271.008C60.5625 271.829 59.3465 272.24 57.7571 272.24Z" fill="#4E5256"/>
<path d="M182.826 232C182.401 232 182.071 231.879 181.836 231.637C181.609 231.388 181.495 231.047 181.495 230.614V226.115H183.431V230.152C183.431 230.321 183.464 230.438 183.53 230.504C183.596 230.57 183.71 230.603 183.871 230.603H184.256V232H182.826ZM186.038 232C185.613 232 185.283 231.879 185.048 231.637C184.821 231.388 184.707 231.047 184.707 230.614V226.115H186.643V230.152C186.643 230.321 186.676 230.438 186.742 230.504C186.808 230.57 186.922 230.603 187.083 230.603H187.468V232H186.038ZM188.462 228.568L187.912 227.611C188.807 226.504 189.947 225.95 191.333 225.95C192.309 225.95 193.06 226.166 193.588 226.599C194.116 227.024 194.38 227.615 194.38 228.37V232H192.444V228.524C192.444 227.813 192.074 227.457 191.333 227.457C190.791 227.457 190.343 227.607 189.991 227.908L190.398 228.601V232H188.462V228.568ZM191.513 224.74C191.513 224.667 191.498 224.615 191.469 224.586C191.44 224.549 191.385 224.531 191.304 224.531H190.776V223.233H191.92C192.455 223.233 192.723 223.464 192.723 223.926V224.234H194.901V225.455H191.513V224.74ZM197.024 232C196.599 232 196.269 231.879 196.034 231.637C195.807 231.388 195.693 231.047 195.693 230.614V226.984C195.693 226.133 195.931 225.514 196.408 225.125H194.659V223.728H198.806V224.982C198.388 225.151 198.087 225.396 197.904 225.719C197.721 226.034 197.629 226.449 197.629 226.962V230.152C197.629 230.321 197.662 230.438 197.728 230.504C197.794 230.57 197.908 230.603 198.069 230.603H198.454V232H197.024ZM202.079 232.165C201.456 232.165 200.92 232.073 200.473 231.89C200.026 231.707 199.685 231.454 199.45 231.131C199.215 230.808 199.098 230.442 199.098 230.031V229.745C199.098 229.474 199.146 229.239 199.241 229.041C199.336 228.836 199.472 228.605 199.648 228.348C199.758 228.194 199.839 228.073 199.89 227.985C199.941 227.89 199.967 227.798 199.967 227.71C199.967 227.519 199.853 227.424 199.626 227.424H199.021V226.115H200.836C201.181 226.115 201.452 226.21 201.65 226.401C201.848 226.592 201.947 226.841 201.947 227.149C201.947 227.369 201.907 227.571 201.826 227.754C201.745 227.937 201.628 228.139 201.474 228.359C201.327 228.601 201.217 228.803 201.144 228.964C201.071 229.118 201.034 229.294 201.034 229.492V229.69C201.034 230.005 201.122 230.247 201.298 230.416C201.474 230.577 201.734 230.658 202.079 230.658C202.438 230.658 202.699 230.57 202.86 230.394C203.029 230.211 203.113 229.961 203.113 229.646V226.115H205.049V229.525C205.049 230.346 204.796 230.992 204.29 231.461C203.791 231.93 203.054 232.165 202.079 232.165ZM208.34 232.165C207.893 232.165 207.438 232.121 206.976 232.033C206.514 231.952 206.151 231.831 205.887 231.67V230.218C206.202 230.401 206.562 230.548 206.965 230.658C207.376 230.768 207.742 230.823 208.065 230.823C208.402 230.823 208.652 230.794 208.813 230.735C208.974 230.669 209.055 230.559 209.055 230.405C209.055 230.266 208.978 230.156 208.824 230.075C208.67 229.994 208.384 229.888 207.966 229.756L207.625 229.646C207.002 229.441 206.543 229.202 206.25 228.931C205.964 228.652 205.821 228.271 205.821 227.787C205.821 227.2 206.056 226.749 206.525 226.434C206.994 226.111 207.621 225.95 208.406 225.95C208.846 225.95 209.271 225.994 209.682 226.082C210.093 226.17 210.423 226.284 210.672 226.423V227.897C210.437 227.736 210.14 227.604 209.781 227.501C209.429 227.398 209.092 227.347 208.769 227.347C208.124 227.347 207.801 227.494 207.801 227.787C207.801 227.934 207.882 228.047 208.043 228.128C208.212 228.209 208.487 228.304 208.868 228.414L209.286 228.546C209.953 228.751 210.412 229.004 210.661 229.305C210.91 229.598 211.035 229.976 211.035 230.438C211.035 230.959 210.808 231.377 210.353 231.692C209.906 232.007 209.235 232.165 208.34 232.165ZM209.147 235.135C208.561 235.135 208.11 235.021 207.794 234.794C207.472 234.574 207.31 234.277 207.31 233.903V233.716C207.31 233.621 207.296 233.555 207.266 233.518C207.23 233.481 207.167 233.463 207.079 233.463H206.716V232.462H208.102C208.337 232.462 208.498 232.513 208.586 232.616C208.674 232.719 208.718 232.88 208.718 233.1V233.694C208.718 233.804 208.751 233.888 208.817 233.947C208.876 234.013 208.964 234.046 209.081 234.046C209.316 234.046 209.433 233.929 209.433 233.694V232.462H210.841V233.859C210.841 234.233 210.695 234.537 210.401 234.772C210.108 235.014 209.69 235.135 209.147 235.135ZM214.922 232.165C214.299 232.165 213.753 232.059 213.283 231.846C212.814 231.626 212.451 231.322 212.194 230.933C211.938 230.544 211.809 230.104 211.809 229.613V226.115H213.745V229.448C213.745 229.844 213.837 230.145 214.02 230.35C214.211 230.555 214.512 230.658 214.922 230.658C215.707 230.658 216.099 230.255 216.099 229.448V224.146H218.035V229.613C218.035 230.104 217.907 230.544 217.65 230.933C217.394 231.322 217.031 231.626 216.561 231.846C216.092 232.059 215.546 232.165 214.922 232.165Z" fill="#4E5256"/>
<path d="M181 233.1H218.53V233.65H181V233.1Z" fill="#4E5256"/>
<path d="M264.004 286C263.588 286 263.268 285.884 263.044 285.652C262.828 285.412 262.72 285.08 262.72 284.656V279.58H264.244V284.176C264.244 284.384 264.288 284.528 264.376 284.608C264.464 284.688 264.608 284.728 264.808 284.728H265.228V286H264.004ZM267.232 286C266.816 286 266.496 285.884 266.272 285.652C266.056 285.412 265.948 285.08 265.948 284.656V279.58H267.472V284.176C267.472 284.384 267.516 284.528 267.604 284.608C267.692 284.688 267.836 284.728 268.036 284.728H268.456V286H267.232ZM270.018 282.088L269.418 281.092C269.858 280.54 270.362 280.12 270.93 279.832C271.506 279.544 272.17 279.4 272.922 279.4C273.922 279.4 274.686 279.624 275.214 280.072C275.75 280.52 276.018 281.14 276.018 281.932V286H274.494V282.052C274.494 281.556 274.362 281.188 274.098 280.948C273.834 280.708 273.442 280.588 272.922 280.588C272.53 280.588 272.182 280.644 271.878 280.756C271.582 280.868 271.306 281.052 271.05 281.308L271.542 282.1V286H270.018V282.088ZM273.286 277.948C273.286 277.86 273.27 277.796 273.238 277.756C273.198 277.716 273.13 277.696 273.034 277.696H272.482V276.64H273.502C273.774 276.64 273.974 276.708 274.102 276.844C274.23 276.972 274.294 277.132 274.294 277.324V277.708H276.754V278.704H273.286V277.948ZM279.13 286C278.714 286 278.394 285.884 278.17 285.652C277.954 285.412 277.846 285.08 277.846 284.656V280.324C277.846 279.364 278.138 278.672 278.722 278.248H276.682V276.976H280.714V278.164C280.242 278.356 279.898 278.616 279.682 278.944C279.474 279.264 279.37 279.712 279.37 280.288V284.176C279.37 284.384 279.414 284.528 279.502 284.608C279.59 284.688 279.734 284.728 279.934 284.728H280.354V286H279.13ZM284.348 286.18C283.748 286.18 283.224 286.08 282.776 285.88C282.328 285.672 281.984 285.388 281.744 285.028C281.504 284.66 281.384 284.244 281.384 283.78V283.48C281.384 283.2 281.44 282.944 281.552 282.712C281.672 282.48 281.836 282.216 282.044 281.92C282.18 281.728 282.28 281.576 282.344 281.464C282.408 281.352 282.44 281.244 282.44 281.14C282.44 280.9 282.292 280.78 281.996 280.78H281.312V279.58H282.8C283.16 279.58 283.444 279.684 283.652 279.892C283.868 280.092 283.976 280.364 283.976 280.708C283.976 280.948 283.928 281.168 283.832 281.368C283.744 281.568 283.612 281.812 283.436 282.1C283.26 282.388 283.128 282.628 283.04 282.82C282.952 283.004 282.908 283.204 282.908 283.42V283.72C282.908 284.128 283.028 284.444 283.268 284.668C283.508 284.884 283.868 284.992 284.348 284.992C285.284 284.992 285.752 284.548 285.752 283.66V279.58H287.276V283.408C287.276 284.256 287.02 284.932 286.508 285.436C286.004 285.932 285.284 286.18 284.348 286.18ZM291.508 286.18C290.908 286.18 290.384 286.08 289.936 285.88C289.488 285.672 289.144 285.388 288.904 285.028C288.664 284.66 288.544 284.244 288.544 283.78V283.48C288.544 283.2 288.6 282.944 288.712 282.712C288.832 282.48 288.996 282.216 289.204 281.92C289.34 281.728 289.44 281.576 289.504 281.464C289.568 281.352 289.6 281.244 289.6 281.14C289.6 280.9 289.452 280.78 289.156 280.78H288.472V279.58H289.96C290.32 279.58 290.604 279.684 290.812 279.892C291.028 280.092 291.136 280.364 291.136 280.708C291.136 280.948 291.088 281.168 290.992 281.368C290.904 281.568 290.772 281.812 290.596 282.1C290.42 282.388 290.288 282.628 290.2 282.82C290.112 283.004 290.068 283.204 290.068 283.42V283.72C290.068 284.128 290.188 284.444 290.428 284.668C290.668 284.884 291.028 284.992 291.508 284.992C292.444 284.992 292.912 284.548 292.912 283.66V279.58H294.436V283.408C294.436 284.256 294.18 284.932 293.668 285.436C293.164 285.932 292.444 286.18 291.508 286.18ZM291.696 277.948C291.696 277.86 291.68 277.796 291.648 277.756C291.608 277.716 291.54 277.696 291.444 277.696H290.892V276.64H291.912C292.184 276.64 292.384 276.708 292.512 276.844C292.64 276.972 292.704 277.132 292.704 277.324V277.708H295.164V278.704H291.696V277.948ZM298.38 286.18C297.868 286.18 297.364 286.124 296.868 286.012C296.372 285.9 295.96 285.744 295.632 285.544V282.184H298.512V283.42H297.156V284.752C297.452 284.912 297.86 284.992 298.38 284.992C299.084 284.992 299.616 284.8 299.976 284.416C300.336 284.032 300.516 283.472 300.516 282.736C300.516 282.232 300.436 281.824 300.276 281.512C300.116 281.2 299.852 280.968 299.484 280.816C299.116 280.664 298.62 280.588 297.996 280.588C297.588 280.588 297.172 280.632 296.748 280.72C296.332 280.8 295.984 280.92 295.704 281.08V279.892C296.024 279.732 296.404 279.612 296.844 279.532C297.292 279.444 297.764 279.4 298.26 279.4C299.476 279.4 300.416 279.692 301.08 280.276C301.744 280.852 302.076 281.672 302.076 282.736C302.076 283.8 301.756 284.64 301.116 285.256C300.484 285.872 299.572 286.18 298.38 286.18ZM306.963 286.18C306.563 286.18 306.167 286.1 305.775 285.94C305.391 285.772 305.047 285.528 304.743 285.208V286H303.279V279.58H304.803V284.008C305.219 284.664 305.795 284.992 306.531 284.992C307.475 284.992 307.947 284.552 307.947 283.672V279.58H309.459V283.744C309.459 284.2 309.359 284.616 309.159 284.992C308.967 285.36 308.683 285.652 308.307 285.868C307.931 286.076 307.483 286.18 306.963 286.18ZM307.872 289.3C307.328 289.3 306.908 289.188 306.612 288.964C306.308 288.748 306.156 288.456 306.156 288.088V287.872C306.156 287.76 306.14 287.684 306.108 287.644C306.076 287.612 306.008 287.596 305.904 287.596H305.496V286.624H306.708C306.932 286.624 307.088 286.672 307.176 286.768C307.264 286.872 307.308 287.036 307.308 287.26V287.932C307.308 288.252 307.48 288.412 307.824 288.412C308.16 288.412 308.328 288.252 308.328 287.932V286.624H309.48V288.052C309.48 288.42 309.34 288.72 309.06 288.952C308.78 289.184 308.384 289.3 307.872 289.3ZM313.032 286.18C312.32 286.18 311.744 286 311.304 285.64C310.872 285.28 310.656 284.772 310.656 284.116C310.656 283.684 310.764 283.304 310.98 282.976C311.204 282.648 311.516 282.392 311.916 282.208C312.324 282.024 312.8 281.932 313.344 281.932C314.12 281.932 314.792 282.064 315.36 282.328V282.04C315.36 281.544 315.212 281.18 314.916 280.948C314.628 280.708 314.16 280.588 313.512 280.588C313.12 280.588 312.732 280.628 312.348 280.708C311.972 280.788 311.644 280.896 311.364 281.032V279.844C311.62 279.724 311.972 279.62 312.42 279.532C312.876 279.444 313.32 279.4 313.752 279.4C314.792 279.4 315.572 279.636 316.092 280.108C316.612 280.58 316.872 281.212 316.872 282.004V286H315.36V283.528C314.824 283.256 314.212 283.12 313.524 283.12C313.076 283.12 312.74 283.208 312.516 283.384C312.3 283.552 312.192 283.8 312.192 284.128C312.192 284.424 312.292 284.644 312.492 284.788C312.692 284.924 313.008 284.992 313.44 284.992C313.712 284.992 313.948 284.952 314.148 284.872V286.036C313.852 286.132 313.48 286.18 313.032 286.18ZM320.45 286.18C319.738 286.18 319.162 286 318.722 285.64C318.29 285.28 318.074 284.772 318.074 284.116C318.074 283.684 318.182 283.304 318.398 282.976C318.622 282.648 318.934 282.392 319.334 282.208C319.742 282.024 320.218 281.932 320.762 281.932C321.538 281.932 322.21 282.064 322.778 282.328V282.04C322.778 281.544 322.63 281.18 322.334 280.948C322.046 280.708 321.578 280.588 320.93 280.588C320.538 280.588 320.15 280.628 319.766 280.708C319.39 280.788 319.062 280.896 318.782 281.032V279.844C319.038 279.724 319.39 279.62 319.838 279.532C320.294 279.444 320.738 279.4 321.17 279.4C321.818 279.4 322.378 279.5 322.85 279.7L323.378 279.1H325.058L323.822 280.516C324.134 280.868 324.29 281.364 324.29 282.004V286H322.778V283.528C322.242 283.256 321.63 283.12 320.942 283.12C320.494 283.12 320.158 283.208 319.934 283.384C319.718 283.552 319.61 283.8 319.61 284.128C319.61 284.424 319.71 284.644 319.91 284.788C320.11 284.924 320.426 284.992 320.858 284.992C321.13 284.992 321.366 284.952 321.566 284.872V286.036C321.27 286.132 320.898 286.18 320.45 286.18ZM322.78 276.64H324.304V278.704H322.78V276.64ZM328.161 286.18C327.113 286.18 326.317 286.008 325.773 285.664V284.464C326.269 284.816 326.961 284.992 327.849 284.992C328.577 284.992 329.141 284.812 329.541 284.452C329.941 284.084 330.141 283.532 330.141 282.796C330.141 282.06 329.941 281.508 329.541 281.14C329.141 280.772 328.577 280.588 327.849 280.588C327.009 280.588 326.329 280.764 325.809 281.116V279.916C326.361 279.572 327.145 279.4 328.161 279.4C329.265 279.4 330.129 279.7 330.753 280.3C331.385 280.892 331.701 281.724 331.701 282.796C331.701 283.86 331.385 284.692 330.753 285.292C330.121 285.884 329.257 286.18 328.161 286.18ZM335.4 286.18C334.88 286.18 334.432 286.076 334.056 285.868C333.68 285.652 333.392 285.36 333.192 284.992C333 284.616 332.904 284.2 332.904 283.744V279.58H334.428V283.672C334.428 284.552 334.896 284.992 335.832 284.992C336.568 284.992 337.144 284.664 337.56 284.008V279.58H339.084V286H337.62V285.208C337.316 285.528 336.968 285.772 336.576 285.94C336.192 286.1 335.8 286.18 335.4 286.18ZM343.437 286.18C342.469 286.18 341.701 285.908 341.133 285.364C340.565 284.812 340.281 284.008 340.281 282.952C340.281 282.232 340.385 281.604 340.593 281.068C340.801 280.532 341.089 280.12 341.457 279.832C341.825 279.544 342.237 279.4 342.693 279.4C343.285 279.4 343.717 279.628 343.989 280.084C344.141 279.844 344.357 279.672 344.637 279.568C344.917 279.456 345.225 279.4 345.561 279.4C346.137 279.4 346.573 279.584 346.869 279.952C347.165 280.312 347.313 280.796 347.313 281.404V286H345.789V281.512C345.789 281.192 345.741 280.96 345.645 280.816C345.549 280.664 345.385 280.588 345.153 280.588C344.753 280.588 344.509 280.82 344.421 281.284H343.569C343.521 280.82 343.313 280.588 342.945 280.588C342.617 280.588 342.349 280.792 342.141 281.2C341.941 281.6 341.841 282.184 341.841 282.952C341.841 284.312 342.461 284.992 343.701 284.992C343.997 284.992 344.273 284.952 344.529 284.872V286.036C344.217 286.132 343.853 286.18 343.437 286.18ZM344.883 278.704C344.507 278.704 344.235 278.608 344.067 278.416C343.891 278.224 343.803 277.936 343.803 277.552V276.856H345.171V277.408C345.171 277.536 345.195 277.624 345.243 277.672C345.291 277.712 345.379 277.732 345.507 277.732H348.363V278.704H344.883ZM350.895 286.18C349.847 286.18 349.051 286.008 348.507 285.664V284.464C349.003 284.816 349.695 284.992 350.583 284.992C351.311 284.992 351.875 284.812 352.275 284.452C352.675 284.084 352.875 283.532 352.875 282.796C352.875 282.06 352.675 281.508 352.275 281.14C351.875 280.772 351.311 280.588 350.583 280.588C349.743 280.588 349.063 280.764 348.543 281.116V279.916C349.095 279.572 349.879 279.4 350.895 279.4C351.999 279.4 352.863 279.7 353.487 280.3C354.119 280.892 354.435 281.724 354.435 282.796C354.435 283.86 354.119 284.692 353.487 285.292C352.855 285.884 351.991 286.18 350.895 286.18Z" fill="#4E5256"/>
<path d="M262 287.2H354.915V287.8H262V287.2Z" fill="#4E5256"/>
<path d="M288.004 395C287.588 395 287.268 394.884 287.044 394.652C286.828 394.412 286.72 394.08 286.72 393.656V388.58H288.244V393.176C288.244 393.384 288.288 393.528 288.376 393.608C288.464 393.688 288.608 393.728 288.808 393.728H289.228V395H288.004ZM291.232 395C290.816 395 290.496 394.884 290.272 394.652C290.056 394.412 289.948 394.08 289.948 393.656V388.58H291.472V393.176C291.472 393.384 291.516 393.528 291.604 393.608C291.692 393.688 291.836 393.728 292.036 393.728H292.456V395H291.232ZM294.018 391.088L293.418 390.092C293.858 389.54 294.362 389.12 294.93 388.832C295.506 388.544 296.17 388.4 296.922 388.4C297.922 388.4 298.686 388.624 299.214 389.072C299.75 389.52 300.018 390.14 300.018 390.932V395H298.494V391.052C298.494 390.556 298.362 390.188 298.098 389.948C297.834 389.708 297.442 389.588 296.922 389.588C296.53 389.588 296.182 389.644 295.878 389.756C295.582 389.868 295.306 390.052 295.05 390.308L295.542 391.1V395H294.018V391.088ZM297.286 386.948C297.286 386.86 297.27 386.796 297.238 386.756C297.198 386.716 297.13 386.696 297.034 386.696H296.482V385.64H297.502C297.774 385.64 297.974 385.708 298.102 385.844C298.23 385.972 298.294 386.132 298.294 386.324V386.708H300.754V387.704H297.286V386.948ZM303.13 395C302.714 395 302.394 394.884 302.17 394.652C301.954 394.412 301.846 394.08 301.846 393.656V389.324C301.846 388.364 302.138 387.672 302.722 387.248H300.682V385.976H304.714V387.164C304.242 387.356 303.898 387.616 303.682 387.944C303.474 388.264 303.37 388.712 303.37 389.288V393.176C303.37 393.384 303.414 393.528 303.502 393.608C303.59 393.688 303.734 393.728 303.934 393.728H304.354V395H303.13ZM308.348 395.18C307.748 395.18 307.224 395.08 306.776 394.88C306.328 394.672 305.984 394.388 305.744 394.028C305.504 393.66 305.384 393.244 305.384 392.78V392.48C305.384 392.2 305.44 391.944 305.552 391.712C305.672 391.48 305.836 391.216 306.044 390.92C306.18 390.728 306.28 390.576 306.344 390.464C306.408 390.352 306.44 390.244 306.44 390.14C306.44 389.9 306.292 389.78 305.996 389.78H305.312V388.58H306.8C307.16 388.58 307.444 388.684 307.652 388.892C307.868 389.092 307.976 389.364 307.976 389.708C307.976 389.948 307.928 390.168 307.832 390.368C307.744 390.568 307.612 390.812 307.436 391.1C307.26 391.388 307.128 391.628 307.04 391.82C306.952 392.004 306.908 392.204 306.908 392.42V392.72C306.908 393.128 307.028 393.444 307.268 393.668C307.508 393.884 307.868 393.992 308.348 393.992C309.284 393.992 309.752 393.548 309.752 392.66V388.58H311.276V392.408C311.276 393.256 311.02 393.932 310.508 394.436C310.004 394.932 309.284 395.18 308.348 395.18ZM315.22 395.18C314.708 395.18 314.204 395.124 313.708 395.012C313.212 394.9 312.8 394.744 312.472 394.544V391.184H315.352V392.42H313.996V393.752C314.292 393.912 314.7 393.992 315.22 393.992C315.924 393.992 316.456 393.8 316.816 393.416C317.176 393.032 317.356 392.472 317.356 391.736C317.356 391.232 317.276 390.824 317.116 390.512C316.956 390.2 316.692 389.968 316.324 389.816C315.956 389.664 315.46 389.588 314.836 389.588C314.428 389.588 314.012 389.632 313.588 389.72C313.172 389.8 312.824 389.92 312.544 390.08V388.892C312.864 388.732 313.244 388.612 313.684 388.532C314.132 388.444 314.604 388.4 315.1 388.4C316.316 388.4 317.256 388.692 317.92 389.276C318.584 389.852 318.916 390.672 318.916 391.736C318.916 392.8 318.596 393.64 317.956 394.256C317.324 394.872 316.412 395.18 315.22 395.18ZM313.338 386.732H317.334V385.436H318.702V387.704H313.338V386.732ZM321.402 395C320.986 395 320.666 394.884 320.442 394.652C320.226 394.412 320.118 394.08 320.118 393.656V388.58H321.642V393.176C321.642 393.384 321.686 393.528 321.774 393.608C321.862 393.688 322.006 393.728 322.206 393.728H322.626V395H321.402ZM327.506 395.18C327.106 395.18 326.71 395.1 326.318 394.94C325.934 394.772 325.59 394.528 325.286 394.208V395H323.822V388.58H325.346V393.008C325.762 393.664 326.338 393.992 327.074 393.992C328.018 393.992 328.49 393.552 328.49 392.672V388.58H330.002V392.744C330.002 393.2 329.902 393.616 329.702 393.992C329.51 394.36 329.226 394.652 328.85 394.868C328.474 395.076 328.026 395.18 327.506 395.18ZM333.575 395.18C332.863 395.18 332.287 395 331.847 394.64C331.415 394.28 331.199 393.772 331.199 393.116C331.199 392.684 331.307 392.304 331.523 391.976C331.747 391.648 332.059 391.392 332.459 391.208C332.867 391.024 333.343 390.932 333.887 390.932C334.663 390.932 335.335 391.064 335.903 391.328V391.04C335.903 390.544 335.755 390.18 335.459 389.948C335.171 389.708 334.703 389.588 334.055 389.588C333.663 389.588 333.275 389.628 332.891 389.708C332.515 389.788 332.187 389.896 331.907 390.032V388.844C332.163 388.724 332.515 388.62 332.963 388.532C333.419 388.444 333.863 388.4 334.295 388.4C335.335 388.4 336.115 388.636 336.635 389.108C337.155 389.58 337.415 390.212 337.415 391.004V395H335.903V392.528C335.367 392.256 334.755 392.12 334.067 392.12C333.619 392.12 333.283 392.208 333.059 392.384C332.843 392.552 332.735 392.8 332.735 393.128C332.735 393.424 332.835 393.644 333.035 393.788C333.235 393.924 333.551 393.992 333.983 393.992C334.255 393.992 334.491 393.952 334.691 393.872V395.036C334.395 395.132 334.023 395.18 333.575 395.18Z" fill="#4E5256"/>
<path d="M286 396.2H338.135V396.8H286V396.2Z" fill="#4E5256"/>
<path d="M288.004 443C287.588 443 287.268 442.884 287.044 442.652C286.828 442.412 286.72 442.08 286.72 441.656V436.58H288.244V441.176C288.244 441.384 288.288 441.528 288.376 441.608C288.464 441.688 288.608 441.728 288.808 441.728H289.228V443H288.004ZM291.232 443C290.816 443 290.496 442.884 290.272 442.652C290.056 442.412 289.948 442.08 289.948 441.656V436.58H291.472V441.176C291.472 441.384 291.516 441.528 291.604 441.608C291.692 441.688 291.836 441.728 292.036 441.728H292.456V443H291.232ZM294.018 439.088L293.418 438.092C293.858 437.54 294.362 437.12 294.93 436.832C295.506 436.544 296.17 436.4 296.922 436.4C297.922 436.4 298.686 436.624 299.214 437.072C299.75 437.52 300.018 438.14 300.018 438.932V443H298.494V439.052C298.494 438.556 298.362 438.188 298.098 437.948C297.834 437.708 297.442 437.588 296.922 437.588C296.53 437.588 296.182 437.644 295.878 437.756C295.582 437.868 295.306 438.052 295.05 438.308L295.542 439.1V443H294.018V439.088ZM297.286 434.948C297.286 434.86 297.27 434.796 297.238 434.756C297.198 434.716 297.13 434.696 297.034 434.696H296.482V433.64H297.502C297.774 433.64 297.974 433.708 298.102 433.844C298.23 433.972 298.294 434.132 298.294 434.324V434.708H300.754V435.704H297.286V434.948ZM303.13 443C302.714 443 302.394 442.884 302.17 442.652C301.954 442.412 301.846 442.08 301.846 441.656V437.324C301.846 436.364 302.138 435.672 302.722 435.248H300.682V433.976H304.714V435.164C304.242 435.356 303.898 435.616 303.682 435.944C303.474 436.264 303.37 436.712 303.37 437.288V441.176C303.37 441.384 303.414 441.528 303.502 441.608C303.59 441.688 303.734 441.728 303.934 441.728H304.354V443H303.13ZM308.348 443.18C307.748 443.18 307.224 443.08 306.776 442.88C306.328 442.672 305.984 442.388 305.744 442.028C305.504 441.66 305.384 441.244 305.384 440.78V440.48C305.384 440.2 305.44 439.944 305.552 439.712C305.672 439.48 305.836 439.216 306.044 438.92C306.18 438.728 306.28 438.576 306.344 438.464C306.408 438.352 306.44 438.244 306.44 438.14C306.44 437.9 306.292 437.78 305.996 437.78H305.312V436.58H306.8C307.16 436.58 307.444 436.684 307.652 436.892C307.868 437.092 307.976 437.364 307.976 437.708C307.976 437.948 307.928 438.168 307.832 438.368C307.744 438.568 307.612 438.812 307.436 439.1C307.26 439.388 307.128 439.628 307.04 439.82C306.952 440.004 306.908 440.204 306.908 440.42V440.72C306.908 441.128 307.028 441.444 307.268 441.668C307.508 441.884 307.868 441.992 308.348 441.992C309.284 441.992 309.752 441.548 309.752 440.66V436.58H311.276V440.408C311.276 441.256 311.02 441.932 310.508 442.436C310.004 442.932 309.284 443.18 308.348 443.18ZM315.004 443.18C314.548 443.18 314.084 443.132 313.612 443.036C313.148 442.94 312.784 442.796 312.52 442.604V441.416C312.872 441.624 313.26 441.78 313.684 441.884C314.116 441.988 314.512 442.04 314.872 442.04C315.352 442.04 315.696 441.992 315.904 441.896C316.12 441.8 316.228 441.62 316.228 441.356C316.228 441.172 316.172 441.028 316.06 440.924C315.948 440.812 315.796 440.72 315.604 440.648C315.412 440.576 315.052 440.46 314.524 440.3C313.836 440.084 313.32 439.824 312.976 439.52C312.64 439.216 312.472 438.804 312.472 438.284C312.472 437.684 312.712 437.22 313.192 436.892C313.672 436.564 314.32 436.4 315.136 436.4C315.568 436.4 315.98 436.448 316.372 436.544C316.772 436.632 317.1 436.752 317.356 436.904V438.152C317.092 437.984 316.772 437.848 316.396 437.744C316.028 437.64 315.656 437.588 315.28 437.588C314.424 437.588 313.996 437.82 313.996 438.284C313.996 438.452 314.048 438.588 314.152 438.692C314.256 438.796 314.396 438.884 314.572 438.956C314.748 439.02 315.016 439.108 315.376 439.22L315.772 439.34C316.284 439.5 316.68 439.672 316.96 439.856C317.248 440.04 317.448 440.252 317.56 440.492C317.68 440.732 317.74 441.028 317.74 441.38C317.74 441.916 317.512 442.352 317.056 442.688C316.6 443.016 315.916 443.18 315.004 443.18ZM318.935 436.58H320.459V439.148L323.231 436.58H324.983L323.231 438.2C323.879 438.368 324.331 438.64 324.587 439.016C324.843 439.392 324.971 439.892 324.971 440.516V443H323.447V440.624C323.447 440.168 323.363 439.824 323.195 439.592C323.035 439.36 322.739 439.196 322.307 439.1L320.459 440.816V443H318.935V436.58ZM322.559 435.704C322.183 435.704 321.911 435.608 321.743 435.416C321.567 435.224 321.479 434.936 321.479 434.552V433.856H322.847V434.408C322.847 434.536 322.871 434.624 322.919 434.672C322.967 434.712 323.055 434.732 323.183 434.732H326.039V435.704H322.559ZM328.559 443.18C327.847 443.18 327.271 443 326.831 442.64C326.399 442.28 326.183 441.772 326.183 441.116C326.183 440.684 326.291 440.304 326.507 439.976C326.731 439.648 327.043 439.392 327.443 439.208C327.851 439.024 328.327 438.932 328.871 438.932C329.647 438.932 330.319 439.064 330.887 439.328V439.04C330.887 438.544 330.739 438.18 330.443 437.948C330.155 437.708 329.687 437.588 329.039 437.588C328.647 437.588 328.259 437.628 327.875 437.708C327.499 437.788 327.171 437.896 326.891 438.032V436.844C327.147 436.724 327.499 436.62 327.947 436.532C328.403 436.444 328.847 436.4 329.279 436.4C329.927 436.4 330.487 436.5 330.959 436.7L331.487 436.1H333.167L331.931 437.516C332.243 437.868 332.399 438.364 332.399 439.004V443H330.887V440.528C330.351 440.256 329.739 440.12 329.051 440.12C328.603 440.12 328.267 440.208 328.043 440.384C327.827 440.552 327.719 440.8 327.719 441.128C327.719 441.424 327.819 441.644 328.019 441.788C328.219 441.924 328.535 441.992 328.967 441.992C329.239 441.992 329.475 441.952 329.675 441.872V443.036C329.379 443.132 329.007 443.18 328.559 443.18ZM334.122 437.984C334.122 437.528 334.242 437.18 334.482 436.94C334.73 436.7 335.082 436.58 335.538 436.58H336.63V437.852H336.186C335.978 437.852 335.834 437.896 335.754 437.984C335.674 438.072 335.634 438.228 335.634 438.452V440.84L337.014 438.68H337.614L338.994 440.84V436.58H340.506V443H339.138L337.314 440.108L335.49 443H334.122V437.984ZM338.998 433.64H340.522V435.704H338.998V433.64ZM344.014 438.896C344.014 438.424 343.918 438.088 343.726 437.888C343.542 437.688 343.206 437.588 342.718 437.588C342.27 437.588 341.814 437.704 341.35 437.936V436.748C341.542 436.652 341.794 436.572 342.106 436.508C342.426 436.436 342.738 436.4 343.042 436.4C343.866 436.4 344.486 436.624 344.902 437.072C345.326 437.52 345.538 438.16 345.538 438.992V443H344.014V438.896ZM349.474 443.18C348.954 443.18 348.506 443.076 348.13 442.868C347.754 442.652 347.466 442.36 347.266 441.992C347.074 441.616 346.978 441.2 346.978 440.744V436.58H348.502V440.672C348.502 441.552 348.97 441.992 349.906 441.992C350.642 441.992 351.218 441.664 351.634 441.008V436.58H353.158V443H351.694V442.208C351.39 442.528 351.042 442.772 350.65 442.94C350.266 443.1 349.874 443.18 349.474 443.18Z" fill="#4E5256"/>
<path d="M286 444.2H353.878V444.8H286V444.2Z" fill="#4E5256"/>
<path d="M290.004 348C289.588 348 289.268 347.884 289.044 347.652C288.828 347.412 288.72 347.08 288.72 346.656V341.58H290.244V346.176C290.244 346.384 290.288 346.528 290.376 346.608C290.464 346.688 290.608 346.728 290.808 346.728H291.228V348H290.004ZM293.232 348C292.816 348 292.496 347.884 292.272 347.652C292.056 347.412 291.948 347.08 291.948 346.656V341.58H293.472V346.176C293.472 346.384 293.516 346.528 293.604 346.608C293.692 346.688 293.836 346.728 294.036 346.728H294.456V348H293.232ZM296.018 344.088L295.418 343.092C295.858 342.54 296.362 342.12 296.93 341.832C297.506 341.544 298.17 341.4 298.922 341.4C299.922 341.4 300.686 341.624 301.214 342.072C301.75 342.52 302.018 343.14 302.018 343.932V348H300.494V344.052C300.494 343.556 300.362 343.188 300.098 342.948C299.834 342.708 299.442 342.588 298.922 342.588C298.53 342.588 298.182 342.644 297.878 342.756C297.582 342.868 297.306 343.052 297.05 343.308L297.542 344.1V348H296.018V344.088ZM299.286 339.948C299.286 339.86 299.27 339.796 299.238 339.756C299.198 339.716 299.13 339.696 299.034 339.696H298.482V338.64H299.502C299.774 338.64 299.974 338.708 300.102 338.844C300.23 338.972 300.294 339.132 300.294 339.324V339.708H302.754V340.704H299.286V339.948ZM305.13 348C304.714 348 304.394 347.884 304.17 347.652C303.954 347.412 303.846 347.08 303.846 346.656V342.324C303.846 341.364 304.138 340.672 304.722 340.248H302.682V338.976H306.714V340.164C306.242 340.356 305.898 340.616 305.682 340.944C305.474 341.264 305.37 341.712 305.37 342.288V346.176C305.37 346.384 305.414 346.528 305.502 346.608C305.59 346.688 305.734 346.728 305.934 346.728H306.354V348H305.13ZM310.348 348.18C309.748 348.18 309.224 348.08 308.776 347.88C308.328 347.672 307.984 347.388 307.744 347.028C307.504 346.66 307.384 346.244 307.384 345.78V345.48C307.384 345.2 307.44 344.944 307.552 344.712C307.672 344.48 307.836 344.216 308.044 343.92C308.18 343.728 308.28 343.576 308.344 343.464C308.408 343.352 308.44 343.244 308.44 343.14C308.44 342.9 308.292 342.78 307.996 342.78H307.312V341.58H308.8C309.16 341.58 309.444 341.684 309.652 341.892C309.868 342.092 309.976 342.364 309.976 342.708C309.976 342.948 309.928 343.168 309.832 343.368C309.744 343.568 309.612 343.812 309.436 344.1C309.26 344.388 309.128 344.628 309.04 344.82C308.952 345.004 308.908 345.204 308.908 345.42V345.72C308.908 346.128 309.028 346.444 309.268 346.668C309.508 346.884 309.868 346.992 310.348 346.992C311.284 346.992 311.752 346.548 311.752 345.66V341.58H313.276V345.408C313.276 346.256 313.02 346.932 312.508 347.436C312.004 347.932 311.284 348.18 310.348 348.18ZM315.996 348C315.58 348 315.26 347.884 315.036 347.652C314.82 347.412 314.712 347.08 314.712 346.656V341.58H316.236V346.176C316.236 346.384 316.28 346.528 316.368 346.608C316.456 346.688 316.6 346.728 316.8 346.728H317.22V348H315.996ZM321.631 348.18C320.991 348.18 320.427 348.064 319.939 347.832C319.459 347.6 319.087 347.28 318.823 346.872C318.567 346.456 318.439 345.984 318.439 345.456V341.58H319.963V345.396C319.963 345.9 320.103 346.292 320.383 346.572C320.663 346.852 321.079 346.992 321.631 346.992C322.175 346.992 322.587 346.852 322.867 346.572C323.147 346.292 323.287 345.9 323.287 345.396V341.58H324.811V345.456C324.811 345.984 324.679 346.456 324.415 346.872C324.159 347.28 323.791 347.6 323.311 347.832C322.831 348.064 322.271 348.18 321.631 348.18ZM328.763 348.18C328.251 348.18 327.747 348.124 327.251 348.012C326.755 347.9 326.343 347.744 326.015 347.544V344.184H328.895V345.42H327.539V346.752C327.835 346.912 328.243 346.992 328.763 346.992C329.467 346.992 329.999 346.8 330.359 346.416C330.719 346.032 330.899 345.472 330.899 344.736C330.899 344.232 330.819 343.824 330.659 343.512C330.499 343.2 330.235 342.968 329.867 342.816C329.499 342.664 329.003 342.588 328.379 342.588C327.971 342.588 327.555 342.632 327.131 342.72C326.715 342.8 326.367 342.92 326.087 343.08V341.892C326.407 341.732 326.787 341.612 327.227 341.532C327.675 341.444 328.147 341.4 328.643 341.4C329.859 341.4 330.799 341.692 331.463 342.276C332.127 342.852 332.459 343.672 332.459 344.736C332.459 345.8 332.139 346.64 331.499 347.256C330.867 347.872 329.955 348.18 328.763 348.18ZM335.953 348.18C335.497 348.18 335.033 348.132 334.561 348.036C334.097 347.94 333.733 347.796 333.469 347.604V346.416C333.821 346.624 334.209 346.78 334.633 346.884C335.065 346.988 335.461 347.04 335.821 347.04C336.301 347.04 336.645 346.992 336.853 346.896C337.069 346.8 337.177 346.62 337.177 346.356C337.177 346.172 337.121 346.028 337.009 345.924C336.897 345.812 336.745 345.72 336.553 345.648C336.361 345.576 336.001 345.46 335.473 345.3C334.785 345.084 334.269 344.824 333.925 344.52C333.589 344.216 333.421 343.804 333.421 343.284C333.421 342.684 333.661 342.22 334.141 341.892C334.621 341.564 335.269 341.4 336.085 341.4C336.517 341.4 336.929 341.448 337.321 341.544C337.721 341.632 338.049 341.752 338.305 341.904V343.152C338.041 342.984 337.721 342.848 337.345 342.744C336.977 342.64 336.605 342.588 336.229 342.588C335.373 342.588 334.945 342.82 334.945 343.284C334.945 343.452 334.997 343.588 335.101 343.692C335.205 343.796 335.345 343.884 335.521 343.956C335.697 344.02 335.965 344.108 336.325 344.22L336.721 344.34C337.233 344.5 337.629 344.672 337.909 344.856C338.197 345.04 338.397 345.252 338.509 345.492C338.629 345.732 338.689 346.028 338.689 346.38C338.689 346.916 338.461 347.352 338.005 347.688C337.549 348.016 336.865 348.18 335.953 348.18ZM335.408 339.936C335.408 339.6 335.496 339.348 335.672 339.18C335.848 339.004 336.132 338.916 336.524 338.916H339.176V339.888H337.136C337 339.888 336.908 339.916 336.86 339.972C336.804 340.028 336.776 340.124 336.776 340.26V340.704H335.408V339.936Z" fill="#4E5256"/>
<path d="M288 349.2H339.164V349.8H288V349.2Z" fill="#4E5256"/>
<path d="M49.304 396.24C48.6213 396.24 47.9493 396.165 47.288 396.016C46.6267 395.867 46.0773 395.659 45.64 395.392V390.912H49.48V392.56H47.672V394.336C48.0667 394.549 48.6107 394.656 49.304 394.656C50.2427 394.656 50.952 394.4 51.432 393.888C51.912 393.376 52.152 392.629 52.152 391.648C52.152 390.976 52.0453 390.432 51.832 390.016C51.6187 389.6 51.2667 389.291 50.776 389.088C50.2853 388.885 49.624 388.784 48.792 388.784C48.248 388.784 47.6933 388.843 47.128 388.96C46.5733 389.067 46.1093 389.227 45.736 389.44V387.856C46.1627 387.643 46.6693 387.483 47.256 387.376C47.8533 387.259 48.4827 387.2 49.144 387.2C50.7653 387.2 52.0187 387.589 52.904 388.368C53.7893 389.136 54.232 390.229 54.232 391.648C54.232 393.067 53.8053 394.187 52.952 395.008C52.1093 395.829 50.8933 396.24 49.304 396.24ZM46.795 384.976H52.123V383.248H53.947V386.272H46.795V384.976ZM57.547 396C56.9923 396 56.5657 395.845 56.267 395.536C55.979 395.216 55.835 394.773 55.835 394.208V387.44H57.867V393.568C57.867 393.845 57.9257 394.037 58.043 394.144C58.1603 394.251 58.3523 394.304 58.619 394.304H59.179V396H57.547ZM65.6845 396.24C65.1512 396.24 64.6232 396.133 64.1005 395.92C63.5885 395.696 63.1298 395.371 62.7245 394.944V396H60.7725V387.44H62.8045V393.344C63.3592 394.219 64.1272 394.656 65.1085 394.656C66.3672 394.656 66.9965 394.069 66.9965 392.896V387.44H69.0125V392.992C69.0125 393.6 68.8792 394.155 68.6125 394.656C68.3565 395.147 67.9778 395.536 67.4765 395.824C66.9752 396.101 66.3778 396.24 65.6845 396.24ZM73.7768 396.24C72.8274 396.24 72.0594 396 71.4728 395.52C70.8968 395.04 70.6088 394.363 70.6088 393.488C70.6088 392.912 70.7528 392.405 71.0408 391.968C71.3394 391.531 71.7554 391.189 72.2888 390.944C72.8328 390.699 73.4674 390.576 74.1927 390.576C75.2274 390.576 76.1234 390.752 76.8808 391.104V390.72C76.8808 390.059 76.6834 389.573 76.2888 389.264C75.9048 388.944 75.2808 388.784 74.4168 388.784C73.8941 388.784 73.3768 388.837 72.8648 388.944C72.3634 389.051 71.9261 389.195 71.5528 389.376V387.792C71.8941 387.632 72.3634 387.493 72.9608 387.376C73.5688 387.259 74.1608 387.2 74.7368 387.2C76.1234 387.2 77.1634 387.515 77.8568 388.144C78.5501 388.773 78.8968 389.616 78.8968 390.672V396H76.8808V392.704C76.1661 392.341 75.3501 392.16 74.4328 392.16C73.8354 392.16 73.3874 392.277 73.0888 392.512C72.8008 392.736 72.6568 393.067 72.6568 393.504C72.6568 393.899 72.7901 394.192 73.0568 394.384C73.3234 394.565 73.7448 394.656 74.3208 394.656C74.6834 394.656 74.9981 394.603 75.2648 394.496V396.048C74.8701 396.176 74.3741 396.24 73.7768 396.24Z" fill="#4E5256"/>
<path d="M49.016 444.24C48.408 444.24 47.7893 444.176 47.16 444.048C46.5413 443.92 46.056 443.728 45.704 443.472V441.888C46.1733 442.165 46.6907 442.373 47.256 442.512C47.832 442.651 48.36 442.72 48.84 442.72C49.48 442.72 49.9387 442.656 50.216 442.528C50.504 442.4 50.648 442.16 50.648 441.808C50.648 441.563 50.5733 441.371 50.424 441.232C50.2747 441.083 50.072 440.96 49.816 440.864C49.56 440.768 49.08 440.613 48.376 440.4C47.4587 440.112 46.7707 439.765 46.312 439.36C45.864 438.955 45.64 438.405 45.64 437.712C45.64 436.912 45.96 436.293 46.6 435.856C47.24 435.419 48.104 435.2 49.192 435.2C49.768 435.2 50.3173 435.264 50.84 435.392C51.3733 435.509 51.8107 435.669 52.152 435.872V437.536C51.8 437.312 51.3733 437.131 50.872 436.992C50.3813 436.853 49.8853 436.784 49.384 436.784C48.2427 436.784 47.672 437.093 47.672 437.712C47.672 437.936 47.7413 438.117 47.88 438.256C48.0187 438.395 48.2053 438.512 48.44 438.608C48.6747 438.693 49.032 438.811 49.512 438.96L50.04 439.12C50.7227 439.333 51.2507 439.563 51.624 439.808C52.008 440.053 52.2747 440.336 52.424 440.656C52.584 440.976 52.664 441.371 52.664 441.84C52.664 442.555 52.36 443.136 51.752 443.584C51.144 444.021 50.232 444.24 49.016 444.24ZM54.2569 435.44H56.2889V438.864L59.9849 435.44H62.3209L59.9849 437.6C60.8489 437.824 61.4515 438.187 61.7929 438.688C62.1342 439.189 62.3049 439.856 62.3049 440.688V444H60.2729V440.832C60.2729 440.224 60.1609 439.765 59.9369 439.456C59.7235 439.147 59.3289 438.928 58.7529 438.8L56.2889 441.088V444H54.2569V435.44ZM59.0892 434.272C58.5879 434.272 58.2252 434.144 58.0012 433.888C57.7666 433.632 57.6492 433.248 57.6492 432.736V431.808H59.4732V432.544C59.4732 432.715 59.5052 432.832 59.5692 432.896C59.6332 432.949 59.7506 432.976 59.9212 432.976H63.7293V434.272H59.0892ZM67.0893 444.24C66.1399 444.24 65.3719 444 64.7853 443.52C64.2093 443.04 63.9213 442.363 63.9213 441.488C63.9213 440.912 64.0653 440.405 64.3533 439.968C64.6519 439.531 65.0679 439.189 65.6013 438.944C66.1453 438.699 66.7799 438.576 67.5052 438.576C68.5399 438.576 69.4359 438.752 70.1933 439.104V438.72C70.1933 438.059 69.9959 437.573 69.6013 437.264C69.2173 436.944 68.5933 436.784 67.7293 436.784C67.2066 436.784 66.6893 436.837 66.1773 436.944C65.6759 437.051 65.2386 437.195 64.8653 437.376V435.792C65.2066 435.632 65.6759 435.493 66.2733 435.376C66.8813 435.259 67.4733 435.2 68.0493 435.2C68.9133 435.2 69.6599 435.333 70.2893 435.6L70.9933 434.8H73.2333L71.5853 436.688C72.0013 437.157 72.2093 437.819 72.2093 438.672V444H70.1933V440.704C69.4786 440.341 68.6626 440.16 67.7453 440.16C67.1479 440.16 66.6999 440.277 66.4013 440.512C66.1133 440.736 65.9693 441.067 65.9693 441.504C65.9693 441.899 66.1026 442.192 66.3693 442.384C66.6359 442.565 67.0573 442.656 67.6333 442.656C67.9959 442.656 68.3106 442.603 68.5773 442.496V444.048C68.1826 444.176 67.6866 444.24 67.0893 444.24ZM74.5069 437.312C74.5069 436.704 74.6669 436.24 74.9869 435.92C75.3175 435.6 75.7869 435.44 76.3949 435.44H77.8509V437.136H77.2589C76.9815 437.136 76.7895 437.195 76.6829 437.312C76.5762 437.429 76.5229 437.637 76.5229 437.936V441.12L78.3629 438.24H79.1629L81.0029 441.12V435.44H83.0189V444H81.1949L78.7629 440.144L76.3309 444H74.5069V437.312ZM81.0084 431.52H83.0404V434.272H81.0084V431.52ZM87.6964 438.528C87.6964 437.899 87.5684 437.451 87.3124 437.184C87.067 436.917 86.619 436.784 85.9684 436.784C85.371 436.784 84.763 436.939 84.1444 437.248V435.664C84.4004 435.536 84.7364 435.429 85.1524 435.344C85.579 435.248 85.995 435.2 86.4004 435.2C87.499 435.2 88.3257 435.499 88.8804 436.096C89.4457 436.693 89.7284 437.547 89.7284 438.656V444H87.6964V438.528ZM94.9755 444.24C94.2822 444.24 93.6848 444.101 93.1835 443.824C92.6822 443.536 92.2982 443.147 92.0315 442.656C91.7755 442.155 91.6475 441.6 91.6475 440.992V435.44H93.6795V440.896C93.6795 442.069 94.3035 442.656 95.5515 442.656C96.5328 442.656 97.3008 442.219 97.8555 441.344V435.44H99.8875V444H97.9355V442.944C97.5302 443.371 97.0662 443.696 96.5435 443.92C96.0315 444.133 95.5088 444.24 94.9755 444.24Z" fill="#4E5256"/>
<path d="M46.672 303C46.1173 303 45.6907 302.845 45.392 302.536C45.104 302.216 44.96 301.773 44.96 301.208V294.44H46.992V300.568C46.992 300.845 47.0507 301.037 47.168 301.144C47.2853 301.251 47.4773 301.304 47.744 301.304H48.304V303H46.672ZM49.4175 294.44H51.4495L52.8255 300.184L54.4895 294.44H55.9935L57.6575 300.184L59.0335 294.44H61.0655L58.6815 303H56.9695L55.2415 297.112L53.5135 303H51.8015L49.4175 294.44ZM62.5069 297.816C62.5069 296.664 62.8855 295.773 63.6429 295.144C64.4109 294.515 65.4455 294.2 66.7469 294.2C67.4829 294.2 68.1229 294.301 68.6669 294.504L69.2909 293.8H71.5309L70.1229 295.416C70.6882 296.035 70.9709 296.835 70.9709 297.816V303H68.9389V297.736C68.9389 297.085 68.7469 296.6 68.3629 296.28C67.9895 295.949 67.4509 295.784 66.7469 295.784C66.0429 295.784 65.4989 295.944 65.1149 296.264C64.7309 296.584 64.5389 297.075 64.5389 297.736V299.144C64.6775 298.92 64.8802 298.739 65.1469 298.6C65.4242 298.461 65.7442 298.392 66.1069 298.392H67.4029V300.088H65.9629C65.5469 300.088 65.2055 300.227 64.9389 300.504C64.6722 300.771 64.5389 301.096 64.5389 301.48V303H62.5069V297.816Z" fill="#4E5256"/>
<path d="M46.672 347C46.1173 347 45.6907 346.845 45.392 346.536C45.104 346.216 44.96 345.773 44.96 345.208V338.44H46.992V344.568C46.992 344.845 47.0507 345.037 47.168 345.144C47.2853 345.251 47.4773 345.304 47.744 345.304H48.304V347H46.672ZM54.1855 347.24C53.3322 347.24 52.5802 347.085 51.9295 346.776C51.2895 346.467 50.7935 346.04 50.4415 345.496C50.1002 344.941 49.9295 344.312 49.9295 343.608V338.44H51.9615V343.528C51.9615 344.2 52.1482 344.723 52.5215 345.096C52.8948 345.469 53.4495 345.656 54.1855 345.656C54.9108 345.656 55.4602 345.469 55.8335 345.096C56.2068 344.723 56.3935 344.2 56.3935 343.528V338.44H58.4255V343.608C58.4255 344.312 58.2495 344.941 57.8975 345.496C57.5562 346.04 57.0655 346.467 56.4255 346.776C55.7855 347.085 55.0388 347.24 54.1855 347.24ZM63.6946 347.24C63.012 347.24 62.34 347.165 61.6786 347.016C61.0173 346.867 60.468 346.659 60.0306 346.392V341.912H63.8706V343.56H62.0626V345.336C62.4573 345.549 63.0013 345.656 63.6946 345.656C64.6333 345.656 65.3426 345.4 65.8226 344.888C66.3026 344.376 66.5426 343.629 66.5426 342.648C66.5426 341.976 66.436 341.432 66.2226 341.016C66.0093 340.6 65.6573 340.291 65.1666 340.088C64.676 339.885 64.0146 339.784 63.1826 339.784C62.6386 339.784 62.084 339.843 61.5186 339.96C60.964 340.067 60.5 340.227 60.1266 340.44V338.856C60.5533 338.643 61.06 338.483 61.6466 338.376C62.244 338.259 62.8733 338.2 63.5346 338.2C65.156 338.2 66.4093 338.589 67.2946 339.368C68.18 340.136 68.6226 341.229 68.6226 342.648C68.6226 344.067 68.196 345.187 67.3426 346.008C66.5 346.829 65.284 347.24 63.6946 347.24ZM73.2816 347.24C72.6736 347.24 72.055 347.176 71.4256 347.048C70.807 346.92 70.3216 346.728 69.9696 346.472V344.888C70.439 345.165 70.9563 345.373 71.5216 345.512C72.0976 345.651 72.6256 345.72 73.1056 345.72C73.7456 345.72 74.2043 345.656 74.4816 345.528C74.7696 345.4 74.9136 345.16 74.9136 344.808C74.9136 344.563 74.839 344.371 74.6896 344.232C74.5403 344.083 74.3376 343.96 74.0816 343.864C73.8256 343.768 73.3456 343.613 72.6416 343.4C71.7243 343.112 71.0363 342.765 70.5776 342.36C70.1296 341.955 69.9056 341.405 69.9056 340.712C69.9056 339.912 70.2256 339.293 70.8656 338.856C71.5056 338.419 72.3696 338.2 73.4576 338.2C74.0336 338.2 74.583 338.264 75.1056 338.392C75.639 338.509 76.0763 338.669 76.4176 338.872V340.536C76.0656 340.312 75.639 340.131 75.1376 339.992C74.647 339.853 74.151 339.784 73.6496 339.784C72.5083 339.784 71.9376 340.093 71.9376 340.712C71.9376 340.936 72.007 341.117 72.1456 341.256C72.2843 341.395 72.471 341.512 72.7056 341.608C72.9403 341.693 73.2976 341.811 73.7776 341.96L74.3056 342.12C74.9883 342.333 75.5163 342.563 75.8896 342.808C76.2736 343.053 76.5403 343.336 76.6896 343.656C76.8496 343.976 76.9296 344.371 76.9296 344.84C76.9296 345.555 76.6256 346.136 76.0176 346.584C75.4096 347.021 74.4976 347.24 73.2816 347.24ZM72.5545 336.248C72.5545 335.8 72.6718 335.464 72.9065 335.24C73.1412 335.005 73.5198 334.888 74.0425 334.888H77.5785V336.184H74.8585C74.6772 336.184 74.5545 336.221 74.4905 336.296C74.4158 336.371 74.3785 336.499 74.3785 336.68V337.272H72.5545V336.248ZM80.9865 347C80.4318 347 80.0052 346.845 79.7065 346.536C79.4185 346.216 79.2745 345.773 79.2745 345.208V339.384C79.2745 338.616 79.1305 338.019 78.8425 337.592C78.5652 337.155 78.1118 336.808 77.4825 336.552V334.968H82.8585V336.664H80.1385C80.9172 337.229 81.3065 338.152 81.3065 339.432V344.568C81.3065 344.845 81.3652 345.037 81.4825 345.144C81.5998 345.251 81.7918 345.304 82.0585 345.304H82.6185V347H80.9865ZM83.9756 338.44H85.9276V339.496C86.333 339.069 86.8023 338.749 87.3356 338.536C87.8796 338.312 88.4236 338.2 88.9676 338.2C90.0236 338.2 90.829 338.499 91.3836 339.096C91.9383 339.683 92.2156 340.44 92.2156 341.368V347H90.1836V341.464C90.1836 340.344 89.5863 339.784 88.3916 339.784C87.357 339.784 86.5623 340.221 86.0076 341.096V347H83.9756V338.44ZM97.1879 347.24C96.5799 347.24 95.9612 347.176 95.3319 347.048C94.7132 346.92 94.2279 346.728 93.8759 346.472V344.888C94.3452 345.165 94.8625 345.373 95.4279 345.512C96.0039 345.651 96.5319 345.72 97.0119 345.72C97.6519 345.72 98.1105 345.656 98.3879 345.528C98.6759 345.4 98.8199 345.16 98.8199 344.808C98.8199 344.563 98.7452 344.371 98.5959 344.232C98.4465 344.083 98.2439 343.96 97.9879 343.864C97.7319 343.768 97.2519 343.613 96.5479 343.4C95.6305 343.112 94.9425 342.765 94.4839 342.36C94.0359 341.955 93.8119 341.405 93.8119 340.712C93.8119 339.912 94.1319 339.293 94.7719 338.856C95.4119 338.419 96.2759 338.2 97.3639 338.2C97.9399 338.2 98.4892 338.264 99.0119 338.392C99.5452 338.509 99.9825 338.669 100.324 338.872V340.536C99.9719 340.312 99.5452 340.131 99.0439 339.992C98.5532 339.853 98.0572 339.784 97.5559 339.784C96.4145 339.784 95.8439 340.093 95.8439 340.712C95.8439 340.936 95.9132 341.117 96.0519 341.256C96.1905 341.395 96.3772 341.512 96.6119 341.608C96.8465 341.693 97.2039 341.811 97.6839 341.96L98.2119 342.12C98.8945 342.333 99.4225 342.563 99.7959 342.808C100.18 343.053 100.447 343.336 100.596 343.656C100.756 343.976 100.836 344.371 100.836 344.84C100.836 345.555 100.532 346.136 99.9239 346.584C99.3159 347.021 98.4039 347.24 97.1879 347.24Z" fill="#4E5256"/>
<rect x="68" y="446" width="261" height="172" rx="20" fill="white"/>
<path d="M127.49 480C126.91 480 126.46 479.835 126.14 479.505C125.83 479.165 125.675 478.7 125.675 478.11V471.975H128.315V477.48C128.315 477.71 128.36 477.87 128.45 477.96C128.54 478.05 128.695 478.095 128.915 478.095H129.44V480H127.49ZM133.046 480.225C132.146 480.225 131.431 480.005 130.901 479.565C130.381 479.115 130.121 478.465 130.121 477.615C130.121 476.745 130.416 476.07 131.006 475.59C131.606 475.1 132.421 474.855 133.451 474.855C133.891 474.855 134.326 474.895 134.756 474.975C135.196 475.055 135.576 475.165 135.896 475.305V475.05C135.896 474.59 135.731 474.25 135.401 474.03C135.071 473.8 134.526 473.685 133.766 473.685C133.276 473.685 132.786 473.74 132.296 473.85C131.806 473.95 131.376 474.085 131.006 474.255V472.335C131.346 472.165 131.811 472.025 132.401 471.915C132.991 471.805 133.606 471.75 134.246 471.75C135.716 471.75 136.796 472.045 137.486 472.635C138.186 473.225 138.536 474.035 138.536 475.065V480H135.896V477.12C135.376 476.85 134.786 476.715 134.126 476.715C133.676 476.715 133.346 476.79 133.136 476.94C132.936 477.08 132.836 477.305 132.836 477.615C132.836 478.185 133.221 478.47 133.991 478.47C134.291 478.47 134.556 478.42 134.786 478.32V480.015C134.366 480.155 133.786 480.225 133.046 480.225ZM131.349 469.425H134.019V467.85H135.834V469.425H136.704V467.85H138.519V471.075H131.349V469.425ZM143.334 480.225C142.644 480.225 141.954 480.155 141.264 480.015C140.584 479.885 140.024 479.71 139.584 479.49V475.26H143.574V477.03H142.134V477.96C142.264 478.02 142.439 478.07 142.659 478.11C142.879 478.15 143.104 478.17 143.334 478.17C144.034 478.17 144.559 477.985 144.909 477.615C145.269 477.235 145.449 476.68 145.449 475.95C145.449 475.19 145.239 474.645 144.819 474.315C144.409 473.975 143.699 473.805 142.689 473.805C142.169 473.805 141.629 473.855 141.069 473.955C140.519 474.055 140.064 474.195 139.704 474.375V472.335C140.114 472.155 140.639 472.015 141.279 471.915C141.919 471.805 142.569 471.75 143.229 471.75C144.819 471.75 146.039 472.115 146.889 472.845C147.739 473.575 148.164 474.61 148.164 475.95C148.164 476.83 147.974 477.59 147.594 478.23C147.224 478.87 146.674 479.365 145.944 479.715C145.224 480.055 144.354 480.225 143.334 480.225ZM149.59 475.32L148.84 474.015C150.06 472.505 151.615 471.75 153.505 471.75C154.835 471.75 155.86 472.045 156.58 472.635C157.3 473.215 157.66 474.02 157.66 475.05V480H155.02V475.26C155.02 474.29 154.515 473.805 153.505 473.805C152.765 473.805 152.155 474.01 151.675 474.42L152.23 475.365V480H149.59V475.32ZM162.15 480.225C161.54 480.225 160.92 480.165 160.29 480.045C159.66 479.935 159.165 479.77 158.805 479.55V477.57C159.235 477.82 159.725 478.02 160.275 478.17C160.835 478.32 161.335 478.395 161.775 478.395C162.235 478.395 162.575 478.355 162.795 478.275C163.015 478.185 163.125 478.035 163.125 477.825C163.125 477.635 163.02 477.485 162.81 477.375C162.6 477.265 162.21 477.12 161.64 476.94L161.175 476.79C160.325 476.51 159.7 476.185 159.3 475.815C158.91 475.435 158.715 474.915 158.715 474.255C158.715 473.455 159.035 472.84 159.675 472.41C160.315 471.97 161.17 471.75 162.24 471.75C162.84 471.75 163.42 471.81 163.98 471.93C164.54 472.05 164.99 472.205 165.33 472.395V474.405C165.01 474.185 164.605 474.005 164.115 473.865C163.635 473.725 163.175 473.655 162.735 473.655C161.855 473.655 161.415 473.855 161.415 474.255C161.415 474.455 161.525 474.61 161.745 474.72C161.975 474.83 162.35 474.96 162.87 475.11L163.44 475.29C164.35 475.57 164.975 475.915 165.315 476.325C165.655 476.725 165.825 477.24 165.825 477.87C165.825 478.58 165.515 479.15 164.895 479.58C164.285 480.01 163.37 480.225 162.15 480.225ZM163.251 484.275C162.451 484.275 161.836 484.12 161.406 483.81C160.966 483.51 160.746 483.105 160.746 482.595V482.34C160.746 482.21 160.726 482.12 160.686 482.07C160.636 482.02 160.551 481.995 160.431 481.995H159.936V480.63H161.826C162.146 480.63 162.366 480.7 162.486 480.84C162.606 480.98 162.666 481.2 162.666 481.5V482.31C162.666 482.46 162.711 482.575 162.801 482.655C162.881 482.745 163.001 482.79 163.161 482.79C163.481 482.79 163.641 482.63 163.641 482.31V480.63H165.561V482.535C165.561 483.045 165.361 483.46 164.961 483.78C164.561 484.11 163.991 484.275 163.251 484.275ZM171.126 480.225C170.276 480.225 169.531 480.08 168.891 479.79C168.251 479.49 167.756 479.075 167.406 478.545C167.056 478.015 166.881 477.415 166.881 476.745V471.975H169.521V476.52C169.521 477.06 169.646 477.47 169.896 477.75C170.156 478.03 170.566 478.17 171.126 478.17C172.196 478.17 172.731 477.62 172.731 476.52V469.29H175.371V476.745C175.371 477.415 175.196 478.015 174.846 478.545C174.496 479.075 174.001 479.49 173.361 479.79C172.721 480.08 171.976 480.225 171.126 480.225ZM176.725 471.975H179.23V472.815C179.57 472.475 179.975 472.215 180.445 472.035C180.925 471.845 181.405 471.75 181.885 471.75C182.905 471.75 183.67 472.02 184.18 472.56C184.7 473.1 184.96 473.82 184.96 474.72V480H182.32V475.02C182.32 474.21 181.905 473.805 181.075 473.805C180.715 473.805 180.385 473.885 180.085 474.045C179.795 474.195 179.555 474.43 179.365 474.75V480H176.725V471.975ZM177.77 469.425H182.555V467.85H184.94V471.075H177.77V469.425ZM182.54 465.225H184.925V467.4H182.54V465.225ZM186.305 475.215C186.305 474.075 186.69 473.215 187.46 472.635C188.23 472.045 189.265 471.75 190.565 471.75C191.875 471.75 192.91 472.045 193.67 472.635C194.44 473.215 194.825 474.075 194.825 475.215V480H192.185V475.26C192.185 474.29 191.645 473.805 190.565 473.805C189.485 473.805 188.945 474.29 188.945 475.26V476.22C189.075 476.08 189.245 475.97 189.455 475.89C189.665 475.8 189.89 475.755 190.13 475.755H191.24V477.66H190.025C189.705 477.66 189.445 477.755 189.245 477.945C189.045 478.125 188.945 478.38 188.945 478.71V480H186.305V475.215ZM192.473 482.79C192.473 482.6 192.438 482.465 192.368 482.385C192.298 482.315 192.168 482.28 191.978 482.28H191.513V480.63H193.253C193.823 480.63 194.228 480.76 194.468 481.02C194.708 481.28 194.828 481.695 194.828 482.265V484.185H192.473V482.79ZM204.683 480.225C203.713 480.225 202.968 479.935 202.448 479.355C201.938 478.765 201.683 478.005 201.683 477.075V475.26C201.683 474.76 201.568 474.395 201.338 474.165C201.118 473.925 200.778 473.805 200.318 473.805C199.988 473.805 199.688 473.855 199.418 473.955C199.148 474.045 198.888 474.2 198.638 474.42L199.193 475.365V477.48C199.193 477.7 199.243 477.86 199.343 477.96C199.453 478.05 199.623 478.095 199.853 478.095H200.558V480H198.383C197.803 480 197.353 479.835 197.033 479.505C196.713 479.165 196.553 478.7 196.553 478.11V475.32L195.803 474.015C197.023 472.505 198.528 471.75 200.318 471.75C201.598 471.75 202.578 472.045 203.258 472.635C203.938 473.225 204.278 474.03 204.278 475.05V476.91C204.278 477.32 204.388 477.635 204.608 477.855C204.838 478.065 205.148 478.17 205.538 478.17C206.158 478.17 206.658 477.855 207.038 477.225V471.975H209.678V480H207.218V479.175C206.888 479.515 206.503 479.775 206.063 479.955C205.633 480.135 205.173 480.225 204.683 480.225ZM214.826 480.225C213.486 480.225 212.466 479.89 211.766 479.22C211.076 478.54 210.731 477.52 210.731 476.16C210.731 475.25 210.871 474.465 211.151 473.805C211.431 473.135 211.816 472.625 212.306 472.275C212.806 471.925 213.361 471.75 213.971 471.75C214.341 471.75 214.666 471.82 214.946 471.96C215.226 472.09 215.451 472.265 215.621 472.485C215.981 471.995 216.606 471.75 217.496 471.75C218.306 471.75 218.946 471.99 219.416 472.47C219.886 472.94 220.121 473.555 220.121 474.315V480H217.481V474.615C217.481 474.345 217.436 474.145 217.346 474.015C217.256 473.875 217.106 473.805 216.896 473.805C216.516 473.805 216.276 474.05 216.176 474.54H215.111C215.041 474.05 214.831 473.805 214.481 473.805C214.171 473.805 213.921 474.005 213.731 474.405C213.541 474.805 213.446 475.39 213.446 476.16C213.446 476.85 213.596 477.36 213.896 477.69C214.196 478.01 214.676 478.17 215.336 478.17C215.676 478.17 216.011 478.11 216.341 477.99V480.015C215.891 480.155 215.386 480.225 214.826 480.225ZM216.211 470.1C216.211 470 216.191 469.93 216.151 469.89C216.111 469.84 216.036 469.815 215.926 469.815H215.206V468.045H216.766C217.496 468.045 217.861 468.36 217.861 468.99V469.41H220.831V471.075H216.211V470.1ZM224.926 480.225C224.236 480.225 223.546 480.155 222.856 480.015C222.176 479.885 221.616 479.71 221.176 479.49V475.26H225.166V477.03H223.726V477.96C223.856 478.02 224.031 478.07 224.251 478.11C224.471 478.15 224.696 478.17 224.926 478.17C225.626 478.17 226.151 477.985 226.501 477.615C226.861 477.235 227.041 476.68 227.041 475.95C227.041 475.19 226.831 474.645 226.411 474.315C226.001 473.975 225.291 473.805 224.281 473.805C223.761 473.805 223.221 473.855 222.661 473.955C222.111 474.055 221.656 474.195 221.296 474.375V472.335C221.706 472.155 222.231 472.015 222.871 471.915C223.511 471.805 224.161 471.75 224.821 471.75C226.411 471.75 227.631 472.115 228.481 472.845C229.331 473.575 229.756 474.61 229.756 475.95C229.756 476.83 229.566 477.59 229.186 478.23C228.816 478.87 228.266 479.365 227.536 479.715C226.816 480.055 225.946 480.225 224.926 480.225ZM230.507 472.98H233.132L234.782 478.08C235.412 478.08 235.902 477.875 236.252 477.465C236.602 477.045 236.777 476.455 236.777 475.695C236.777 474.435 236.292 473.805 235.322 473.805C234.992 473.805 234.692 473.855 234.422 473.955V471.975C234.612 471.905 234.842 471.85 235.112 471.81C235.392 471.77 235.662 471.75 235.922 471.75C237.132 471.75 238.027 472.09 238.607 472.77C239.197 473.45 239.492 474.425 239.492 475.695C239.492 476.595 239.292 477.37 238.892 478.02C238.492 478.67 237.957 479.165 237.287 479.505C236.617 479.835 235.877 480 235.067 480H232.772L230.507 472.98ZM240.923 475.32L240.173 474.015C241.393 472.505 242.948 471.75 244.838 471.75C246.168 471.75 247.193 472.045 247.913 472.635C248.633 473.215 248.993 474.02 248.993 475.05V480H246.353V475.26C246.353 474.29 245.848 473.805 244.838 473.805C244.098 473.805 243.488 474.01 243.008 474.42L243.563 475.365V480H240.923V475.32ZM252.598 475.14C252.598 474.69 252.493 474.355 252.283 474.135C252.083 473.915 251.733 473.805 251.233 473.805C250.743 473.805 250.248 473.93 249.748 474.18V472.2C249.978 472.08 250.298 471.975 250.708 471.885C251.128 471.795 251.528 471.75 251.908 471.75C252.988 471.75 253.813 472.035 254.383 472.605C254.953 473.165 255.238 473.98 255.238 475.05V480H252.598V475.14ZM259.723 480.225C259.113 480.225 258.493 480.165 257.863 480.045C257.233 479.935 256.738 479.77 256.378 479.55V477.57C256.808 477.82 257.298 478.02 257.848 478.17C258.408 478.32 258.908 478.395 259.348 478.395C259.808 478.395 260.148 478.355 260.368 478.275C260.588 478.185 260.698 478.035 260.698 477.825C260.698 477.635 260.593 477.485 260.383 477.375C260.173 477.265 259.783 477.12 259.213 476.94L258.748 476.79C257.898 476.51 257.273 476.185 256.873 475.815C256.483 475.435 256.288 474.915 256.288 474.255C256.288 473.455 256.608 472.84 257.248 472.41C257.888 471.97 258.743 471.75 259.813 471.75C260.413 471.75 260.993 471.81 261.553 471.93C262.113 472.05 262.563 472.205 262.903 472.395V474.405C262.583 474.185 262.178 474.005 261.688 473.865C261.208 473.725 260.748 473.655 260.308 473.655C259.428 473.655 258.988 473.855 258.988 474.255C258.988 474.455 259.098 474.61 259.318 474.72C259.548 474.83 259.923 474.96 260.443 475.11L261.013 475.29C261.923 475.57 262.548 475.915 262.888 476.325C263.228 476.725 263.398 477.24 263.398 477.87C263.398 478.58 263.088 479.15 262.468 479.58C261.858 480.01 260.943 480.225 259.723 480.225ZM265.774 476.235C265.774 475.215 266.179 474.42 266.989 473.85L267.379 473.58C267.749 473.34 268.004 473.145 268.144 472.995C268.294 472.835 268.369 472.64 268.369 472.41C268.369 471.83 267.884 471.54 266.914 471.54C266.464 471.54 265.999 471.6 265.519 471.72C265.039 471.84 264.584 472.01 264.154 472.23V469.92C265.074 469.5 266.104 469.29 267.244 469.29C268.474 469.29 269.449 469.55 270.169 470.07C270.889 470.58 271.249 471.29 271.249 472.2C271.249 472.71 271.134 473.125 270.904 473.445C270.674 473.755 270.284 474.105 269.734 474.495C269.364 474.765 269.094 474.975 268.924 475.125C268.754 475.265 268.624 475.425 268.534 475.605C268.454 475.785 268.414 476.005 268.414 476.265V476.55H265.774V476.235ZM267.079 480.225C266.679 480.225 266.344 480.095 266.074 479.835C265.814 479.565 265.684 479.235 265.684 478.845C265.684 478.445 265.814 478.115 266.074 477.855C266.344 477.595 266.679 477.465 267.079 477.465C267.469 477.465 267.799 477.6 268.069 477.87C268.349 478.13 268.489 478.455 268.489 478.845C268.489 479.235 268.349 479.565 268.069 479.835C267.799 480.095 267.469 480.225 267.079 480.225Z" fill="black"/>
<rect x="90" y="497" width="217" height="44" rx="22" fill="#16AD78"/>
<path d="M156.156 524C155.569 524 155.116 523.835 154.796 523.504C154.487 523.163 154.332 522.693 154.332 522.096V515.44H156.764V521.44C156.764 521.696 156.817 521.877 156.924 521.984C157.031 522.091 157.207 522.144 157.452 522.144H158.012V524H156.156ZM163.716 524.24C162.831 524.24 162.058 524.085 161.396 523.776C160.735 523.456 160.223 523.019 159.86 522.464C159.498 521.909 159.316 521.28 159.316 520.576V515.44H161.748V520.416C161.748 521.035 161.908 521.515 162.228 521.856C162.559 522.187 163.055 522.352 163.716 522.352C164.378 522.352 164.868 522.187 165.188 521.856C165.508 521.515 165.668 521.035 165.668 520.416V512.576H168.1V520.576C168.1 521.28 167.919 521.909 167.556 522.464C167.194 523.019 166.682 523.456 166.02 523.776C165.359 524.085 164.591 524.24 163.716 524.24ZM158.697 512.848H164.697V514.384H158.697V512.848ZM173.738 524.24C172.415 524.24 171.37 523.872 170.602 523.136C169.834 522.4 169.45 521.323 169.45 519.904C169.45 518.421 169.892 517.269 170.778 516.448C171.663 515.616 172.884 515.2 174.442 515.2C176.052 515.2 177.236 515.573 177.994 516.32C178.762 517.067 179.146 518.048 179.146 519.264V524H176.73V519.248C176.73 518.544 176.548 518.011 176.186 517.648C175.834 517.275 175.252 517.088 174.442 517.088C173.674 517.088 173.066 517.328 172.618 517.808C172.17 518.288 171.946 518.987 171.946 519.904C171.946 520.747 172.127 521.365 172.49 521.76C172.863 522.155 173.428 522.352 174.186 522.352C174.591 522.352 174.954 522.293 175.274 522.176V524.032C174.858 524.171 174.346 524.24 173.738 524.24ZM182.656 524C182.069 524 181.616 523.835 181.296 523.504C180.987 523.163 180.832 522.693 180.832 522.096V515.44H183.264V521.44C183.264 521.696 183.317 521.877 183.424 521.984C183.531 522.091 183.707 522.144 183.952 522.144H184.512V524H182.656ZM187.152 524C186.565 524 186.112 523.835 185.792 523.504C185.483 523.163 185.328 522.693 185.328 522.096V515.44H187.744V521.44C187.744 521.696 187.797 521.877 187.904 521.984C188.011 522.091 188.192 522.144 188.448 522.144H189.008V524H187.152ZM190.764 518.896L189.964 517.536C191.212 515.979 192.818 515.2 194.78 515.2C196.156 515.2 197.212 515.504 197.948 516.112C198.695 516.72 199.068 517.568 199.068 518.656V524H196.636V518.848C196.636 517.675 196.018 517.088 194.78 517.088C194.322 517.088 193.911 517.152 193.548 517.28C193.196 517.408 192.866 517.616 192.556 517.904L193.18 518.928V524H190.764V518.896ZM203.634 524.24C202.653 524.24 201.869 523.995 201.282 523.504C200.706 523.013 200.418 522.32 200.418 521.424C200.418 520.528 200.733 519.824 201.362 519.312C202.002 518.8 202.877 518.544 203.986 518.544C205.021 518.544 205.906 518.715 206.642 519.056V518.72C206.642 518.144 206.45 517.717 206.066 517.44C205.693 517.163 205.085 517.024 204.242 517.024C203.72 517.024 203.208 517.077 202.706 517.184C202.205 517.291 201.757 517.44 201.362 517.632V515.808C201.714 515.637 202.2 515.493 202.818 515.376C203.437 515.259 204.061 515.2 204.69 515.2C206.12 515.2 207.202 515.52 207.938 516.16C208.685 516.789 209.058 517.637 209.058 518.704V524H206.642V520.816C206.024 520.496 205.298 520.336 204.466 520.336C203.922 520.336 203.522 520.427 203.266 520.608C203.021 520.789 202.898 521.072 202.898 521.456C202.898 521.808 203.01 522.075 203.234 522.256C203.469 522.427 203.837 522.512 204.338 522.512C204.69 522.512 204.989 522.459 205.234 522.352V524.032C204.818 524.171 204.285 524.24 203.634 524.24ZM212.547 524C211.96 524 211.507 523.835 211.187 523.504C210.877 523.163 210.723 522.693 210.723 522.096V515.44H213.155V521.44C213.155 521.696 213.208 521.877 213.315 521.984C213.421 522.091 213.597 522.144 213.843 522.144H214.403V524H212.547ZM218.603 524.24C217.622 524.24 216.838 523.995 216.251 523.504C215.675 523.013 215.387 522.32 215.387 521.424C215.387 520.528 215.702 519.824 216.331 519.312C216.971 518.8 217.846 518.544 218.955 518.544C219.99 518.544 220.875 518.715 221.611 519.056V518.72C221.611 518.144 221.419 517.717 221.035 517.44C220.662 517.163 220.054 517.024 219.211 517.024C218.688 517.024 218.176 517.077 217.675 517.184C217.174 517.291 216.726 517.44 216.331 517.632V515.808C216.683 515.637 217.168 515.493 217.787 515.376C218.406 515.259 219.03 515.2 219.659 515.2C221.088 515.2 222.171 515.52 222.907 516.16C223.654 516.789 224.027 517.637 224.027 518.704V524H221.611V520.816C220.992 520.496 220.267 520.336 219.435 520.336C218.891 520.336 218.491 520.427 218.235 520.608C217.99 520.789 217.867 521.072 217.867 521.456C217.867 521.808 217.979 522.075 218.203 522.256C218.438 522.427 218.806 522.512 219.307 522.512C219.659 522.512 219.958 522.459 220.203 522.352V524.032C219.787 524.171 219.254 524.24 218.603 524.24ZM229.211 524.24C228.497 524.24 227.793 524.165 227.099 524.016C226.406 523.877 225.83 523.68 225.371 523.424V518.928H229.419V520.704H227.755V522.08C228.086 522.261 228.571 522.352 229.211 522.352C230.907 522.352 231.755 521.467 231.755 519.696C231.755 518.789 231.51 518.128 231.019 517.712C230.529 517.296 229.702 517.088 228.539 517.088C228.006 517.088 227.457 517.147 226.891 517.264C226.337 517.371 225.867 517.525 225.483 517.728V515.84C225.921 515.637 226.449 515.483 227.067 515.376C227.686 515.259 228.331 515.2 229.003 515.2C230.721 515.2 232.022 515.595 232.907 516.384C233.803 517.163 234.251 518.267 234.251 519.696C234.251 521.104 233.814 522.213 232.939 523.024C232.065 523.835 230.822 524.24 229.211 524.24ZM238.798 524.24C238.168 524.24 237.528 524.176 236.878 524.048C236.238 523.931 235.731 523.749 235.358 523.504V521.648C235.827 521.925 236.35 522.139 236.926 522.288C237.512 522.437 238.04 522.512 238.51 522.512C239.075 522.512 239.486 522.459 239.742 522.352C240.008 522.235 240.142 522.032 240.142 521.744C240.142 521.488 240.014 521.291 239.758 521.152C239.512 521.013 239.048 520.837 238.366 520.624L237.966 520.496C237.048 520.208 236.371 519.861 235.934 519.456C235.496 519.051 235.278 518.496 235.278 517.792C235.278 516.971 235.608 516.336 236.27 515.888C236.931 515.429 237.822 515.2 238.942 515.2C239.55 515.2 240.136 515.264 240.702 515.392C241.267 515.52 241.72 515.685 242.062 515.888V517.792C241.72 517.557 241.294 517.371 240.782 517.232C240.28 517.083 239.784 517.008 239.294 517.008C238.259 517.008 237.742 517.269 237.742 517.792C237.742 518.048 237.864 518.245 238.11 518.384C238.355 518.523 238.792 518.688 239.422 518.88L239.998 519.056C240.67 519.269 241.192 519.504 241.566 519.76C241.95 520.016 242.216 520.304 242.366 520.624C242.515 520.944 242.59 521.333 242.59 521.792C242.59 522.528 242.27 523.12 241.63 523.568C241 524.016 240.056 524.24 238.798 524.24ZM234.869 512.848H240.085V511.152H242.277V514.384H234.869V512.848ZM240.085 508.4H242.261V510.656H240.085V508.4Z" fill="white"/>
<rect x="90" y="554" width="217" height="44" rx="22" fill="#DBD7D7"/>
<path d="M179.912 581.24C178.579 581.24 177.512 581 176.712 580.52C175.912 580.029 175.512 579.331 175.512 578.424C175.512 578.008 175.624 577.635 175.848 577.304C176.083 576.963 176.392 576.717 176.776 576.568C176.424 576.387 176.136 576.125 175.912 575.784C175.699 575.443 175.592 575.069 175.592 574.664C175.592 573.917 175.853 573.32 176.376 572.872C176.909 572.424 177.677 572.2 178.68 572.2C178.989 572.2 179.293 572.221 179.592 572.264C179.901 572.307 180.136 572.355 180.296 572.408V574.232C180.147 574.168 179.965 574.115 179.752 574.072C179.549 574.029 179.363 574.008 179.192 574.008C178.445 574.008 178.072 574.285 178.072 574.84C178.072 575.128 178.163 575.347 178.344 575.496C178.536 575.635 178.829 575.704 179.224 575.704H180.296V577.416H179.224C178.413 577.416 178.008 577.736 178.008 578.376C178.008 578.717 178.168 578.984 178.488 579.176C178.819 579.357 179.293 579.448 179.912 579.448C180.659 579.448 181.203 579.299 181.544 579C181.896 578.691 182.072 578.232 182.072 577.624V572.424H184.504V577.608C184.504 578.216 184.349 578.797 184.04 579.352C183.731 579.896 183.235 580.349 182.552 580.712C181.869 581.064 180.989 581.24 179.912 581.24ZM186.624 575.896L185.824 574.536C187.072 572.979 188.677 572.2 190.64 572.2C192.016 572.2 193.072 572.504 193.808 573.112C194.554 573.72 194.928 574.568 194.928 575.656V581H192.496V575.848C192.496 574.675 191.877 574.088 190.64 574.088C190.181 574.088 189.77 574.152 189.408 574.28C189.056 574.408 188.725 574.616 188.416 574.904L189.04 575.928V581H186.624V575.896ZM198.422 581C197.835 581 197.382 580.835 197.062 580.504C196.752 580.163 196.598 579.693 196.598 579.096V572.44H199.03V578.44C199.03 578.696 199.083 578.877 199.19 578.984C199.296 579.091 199.472 579.144 199.718 579.144H200.278V581H198.422ZM204.478 581.24C203.497 581.24 202.713 580.995 202.126 580.504C201.55 580.013 201.262 579.32 201.262 578.424C201.262 577.528 201.577 576.824 202.206 576.312C202.846 575.8 203.721 575.544 204.83 575.544C205.865 575.544 206.75 575.715 207.486 576.056V575.72C207.486 575.144 207.294 574.717 206.91 574.44C206.537 574.163 205.929 574.024 205.086 574.024C204.563 574.024 204.051 574.077 203.55 574.184C203.049 574.291 202.601 574.44 202.206 574.632V572.808C202.558 572.637 203.043 572.493 203.662 572.376C204.281 572.259 204.905 572.2 205.534 572.2C206.963 572.2 208.046 572.52 208.782 573.16C209.529 573.789 209.902 574.637 209.902 575.704V581H207.486V577.816C206.867 577.496 206.142 577.336 205.31 577.336C204.766 577.336 204.366 577.427 204.11 577.608C203.865 577.789 203.742 578.072 203.742 578.456C203.742 578.808 203.854 579.075 204.078 579.256C204.313 579.427 204.681 579.512 205.182 579.512C205.534 579.512 205.833 579.459 206.078 579.352V581.032C205.662 581.171 205.129 581.24 204.478 581.24ZM202.478 569.848H209.886V571.384H202.478V569.848ZM212.014 575.896L211.214 574.536C212.462 572.979 214.068 572.2 216.03 572.2C217.406 572.2 218.462 572.504 219.198 573.112C219.945 573.72 220.318 574.568 220.318 575.656V581H217.886V575.848C217.886 574.675 217.268 574.088 216.03 574.088C215.572 574.088 215.161 574.152 214.798 574.28C214.446 574.408 214.116 574.616 213.806 574.904L214.43 575.928V581H212.014V575.896Z" fill="black"/>
</svg>
