<svg width="390" height="849" viewBox="0 0 390 849" fill="none" xmlns="http://www.w3.org/2000/svg">
<rect y="5" width="390" height="844" rx="32" fill="white"/>
<path fill-rule="evenodd" clip-rule="evenodd" d="M121 838.5C121 837.119 122.119 836 123.5 836H266.5C267.881 836 269 837.119 269 838.5C269 839.881 267.881 841 266.5 841H123.5C122.119 841 121 839.881 121 838.5Z" fill="#090A0A"/>
<path d="M54.0688 36V26.1304H53.9194L50.9395 28.2305V26.2217L54.0688 24.022H56.2021V36H54.0688ZM63.4219 36.2988C62.4701 36.2988 61.6538 36.0443 60.9731 35.5352C60.298 35.026 59.7778 34.3011 59.4126 33.3604C59.0474 32.4196 58.8647 31.3045 58.8647 30.0151V29.9985C58.8647 28.7091 59.0474 27.5968 59.4126 26.6616C59.7778 25.7209 60.298 24.9959 60.9731 24.4868C61.6538 23.9777 62.4701 23.7231 63.4219 23.7231C64.3737 23.7231 65.1899 23.9777 65.8706 24.4868C66.5513 24.9959 67.0742 25.7209 67.4395 26.6616C67.8047 27.5968 67.9873 28.7091 67.9873 29.9985V30.0151C67.9873 31.3045 67.8047 32.4196 67.4395 33.3604C67.0742 34.3011 66.5513 35.026 65.8706 35.5352C65.1899 36.0443 64.3737 36.2988 63.4219 36.2988ZM63.4219 34.564C63.931 34.564 64.3654 34.3813 64.7251 34.0161C65.0848 33.6509 65.3587 33.1307 65.5469 32.4556C65.7406 31.7749 65.8374 30.9614 65.8374 30.0151V29.9985C65.8374 29.0522 65.7406 28.2415 65.5469 27.5664C65.3587 26.8857 65.0848 26.3656 64.7251 26.0059C64.3654 25.6406 63.931 25.458 63.4219 25.458C62.9128 25.458 62.4784 25.6406 62.1187 26.0059C61.7645 26.3656 61.4906 26.8857 61.2969 27.5664C61.1087 28.2415 61.0146 29.0522 61.0146 29.9985V30.0151C61.0146 30.9614 61.1087 31.7749 61.2969 32.4556C61.4906 33.1307 61.7645 33.6509 62.1187 34.0161C62.4784 34.3813 62.9128 34.564 63.4219 34.564ZM71.2974 34.3896C70.9211 34.3896 70.6056 34.2651 70.3511 34.0161C70.1021 33.7616 69.9775 33.4517 69.9775 33.0864C69.9775 32.7157 70.1021 32.4058 70.3511 32.1567C70.6056 31.9022 70.9211 31.7749 71.2974 31.7749C71.6792 31.7749 71.9946 31.9022 72.2437 32.1567C72.4927 32.4058 72.6172 32.7157 72.6172 33.0864C72.6172 33.4517 72.4927 33.7616 72.2437 34.0161C71.9946 34.2651 71.6792 34.3896 71.2974 34.3896ZM71.2974 28.2305C70.9211 28.2305 70.6056 28.106 70.3511 27.8569C70.1021 27.6024 69.9775 27.2925 69.9775 26.9272C69.9775 26.5565 70.1021 26.2466 70.3511 25.9976C70.6056 25.743 70.9211 25.6157 71.2974 25.6157C71.6792 25.6157 71.9946 25.743 72.2437 25.9976C72.4927 26.2466 72.6172 26.5565 72.6172 26.9272C72.6172 27.2925 72.4927 27.6024 72.2437 27.8569C71.9946 28.106 71.6792 28.2305 71.2974 28.2305ZM79.1562 36.2988C78.2044 36.2988 77.3882 36.0443 76.7075 35.5352C76.0324 35.026 75.5122 34.3011 75.147 33.3604C74.7817 32.4196 74.5991 31.3045 74.5991 30.0151V29.9985C74.5991 28.7091 74.7817 27.5968 75.147 26.6616C75.5122 25.7209 76.0324 24.9959 76.7075 24.4868C77.3882 23.9777 78.2044 23.7231 79.1562 23.7231C80.1081 23.7231 80.9243 23.9777 81.605 24.4868C82.2856 24.9959 82.8086 25.7209 83.1738 26.6616C83.5391 27.5968 83.7217 28.7091 83.7217 29.9985V30.0151C83.7217 31.3045 83.5391 32.4196 83.1738 33.3604C82.8086 34.3011 82.2856 35.026 81.605 35.5352C80.9243 36.0443 80.1081 36.2988 79.1562 36.2988ZM79.1562 34.564C79.6654 34.564 80.0998 34.3813 80.4595 34.0161C80.8192 33.6509 81.0931 33.1307 81.2812 32.4556C81.4749 31.7749 81.5718 30.9614 81.5718 30.0151V29.9985C81.5718 29.0522 81.4749 28.2415 81.2812 27.5664C81.0931 26.8857 80.8192 26.3656 80.4595 26.0059C80.0998 25.6406 79.6654 25.458 79.1562 25.458C78.6471 25.458 78.2127 25.6406 77.853 26.0059C77.4989 26.3656 77.2249 26.8857 77.0312 27.5664C76.8431 28.2415 76.749 29.0522 76.749 29.9985V30.0151C76.749 30.9614 76.8431 31.7749 77.0312 32.4556C77.2249 33.1307 77.4989 33.6509 77.853 34.0161C78.2127 34.3813 78.6471 34.564 79.1562 34.564ZM89.9619 36.2988C89.0101 36.2988 88.1938 36.0443 87.5132 35.5352C86.8381 35.026 86.3179 34.3011 85.9526 33.3604C85.5874 32.4196 85.4048 31.3045 85.4048 30.0151V29.9985C85.4048 28.7091 85.5874 27.5968 85.9526 26.6616C86.3179 25.7209 86.8381 24.9959 87.5132 24.4868C88.1938 23.9777 89.0101 23.7231 89.9619 23.7231C90.9137 23.7231 91.73 23.9777 92.4106 24.4868C93.0913 24.9959 93.6143 25.7209 93.9795 26.6616C94.3447 27.5968 94.5273 28.7091 94.5273 29.9985V30.0151C94.5273 31.3045 94.3447 32.4196 93.9795 33.3604C93.6143 34.3011 93.0913 35.026 92.4106 35.5352C91.73 36.0443 90.9137 36.2988 89.9619 36.2988ZM89.9619 34.564C90.471 34.564 90.9054 34.3813 91.2651 34.0161C91.6248 33.6509 91.8988 33.1307 92.0869 32.4556C92.2806 31.7749 92.3774 30.9614 92.3774 30.0151V29.9985C92.3774 29.0522 92.2806 28.2415 92.0869 27.5664C91.8988 26.8857 91.6248 26.3656 91.2651 26.0059C90.9054 25.6406 90.471 25.458 89.9619 25.458C89.4528 25.458 89.0184 25.6406 88.6587 26.0059C88.3045 26.3656 88.0306 26.8857 87.8369 27.5664C87.6488 28.2415 87.5547 29.0522 87.5547 29.9985V30.0151C87.5547 30.9614 87.6488 31.7749 87.8369 32.4556C88.0306 33.1307 88.3045 33.6509 88.6587 34.0161C89.0184 34.3813 89.4528 34.564 89.9619 34.564Z" fill="black"/>
<path d="M288.333 31C288.977 31 289.5 31.5037 289.5 32.125V34.375C289.5 34.9963 288.977 35.5 288.333 35.5H287.167C286.523 35.5 286 34.9963 286 34.375V32.125C286 31.5037 286.523 31 287.167 31H288.333ZM293.823 28.75C294.468 28.75 294.99 29.2537 294.99 29.875V34.375C294.99 34.9963 294.468 35.5 293.823 35.5H292.657C292.013 35.5 291.49 34.9963 291.49 34.375V29.875C291.49 29.2537 292.013 28.75 292.657 28.75H293.823ZM299.313 26.125C299.958 26.125 300.48 26.6287 300.48 27.25V34.375C300.48 34.9963 299.958 35.5 299.313 35.5H298.147C297.503 35.5 296.98 34.9963 296.98 34.375V27.25C296.981 26.6287 297.503 26.125 298.147 26.125H299.313ZM304.804 23.5C305.448 23.5 305.971 24.0037 305.971 24.625V34.375C305.971 34.9963 305.448 35.5 304.804 35.5H303.638C302.993 35.5 302.471 34.9963 302.471 34.375V24.625C302.471 24.0037 302.993 23.5 303.638 23.5H304.804Z" fill="black"/>
<path fill-rule="evenodd" clip-rule="evenodd" d="M320.971 25.846C323.438 25.8461 325.81 26.8167 327.598 28.5571C327.732 28.6915 327.947 28.6898 328.08 28.5533L329.367 27.2234C329.434 27.1542 329.471 27.0604 329.471 26.9629C329.47 26.8653 329.432 26.772 329.364 26.7036C324.672 22.0988 317.27 22.0988 312.578 26.7036C312.51 26.772 312.471 26.8652 312.471 26.9628C312.47 27.0603 312.507 27.1541 312.575 27.2234L313.862 28.5533C313.994 28.69 314.209 28.6917 314.344 28.5571C316.132 26.8166 318.504 25.846 320.971 25.846ZM320.971 30.1727C322.326 30.1726 323.633 30.6884 324.638 31.62C324.774 31.7522 324.988 31.7493 325.12 31.6135L326.405 30.2836C326.473 30.2139 326.511 30.1192 326.51 30.0209C326.509 29.9226 326.469 29.8287 326.4 29.7604C323.341 26.8463 318.604 26.8463 315.545 29.7604C315.476 29.8287 315.436 29.9226 315.435 30.021C315.434 30.1193 315.472 30.214 315.54 30.2836L316.825 31.6135C316.957 31.7493 317.171 31.7522 317.307 31.62C318.311 30.689 319.617 30.1732 320.971 30.1727ZM323.546 33.084C323.548 33.1826 323.51 33.2777 323.441 33.3468L321.218 35.6445C321.153 35.712 321.064 35.75 320.971 35.75C320.878 35.75 320.79 35.712 320.724 35.6445L318.501 33.3468C318.432 33.2776 318.394 33.1825 318.396 33.0839C318.398 32.9853 318.44 32.8919 318.512 32.8258C319.931 31.596 322.011 31.596 323.431 32.8258C323.502 32.892 323.544 32.9854 323.546 33.084Z" fill="black"/>
<rect opacity="0.4" x="336.471" y="23.5" width="24" height="12" rx="3.5" stroke="black"/>
<path opacity="0.5" d="M361.971 27.5V31.5C362.777 31.1612 363.301 30.3731 363.301 29.5C363.301 28.6269 362.777 27.8388 361.971 27.5" fill="black"/>
<rect x="337.971" y="25" width="17" height="9" rx="2" fill="black"/>
<path d="M42.8095 99.5268C42.068 100.323 40.8068 100.323 40.0652 99.5268L28.2697 86.8632C27.5544 86.0952 27.5544 84.9048 28.2697 84.1368L40.0652 71.4732C40.8068 70.677 42.068 70.677 42.8095 71.4732C43.4802 72.1932 43.4802 73.3093 42.8095 74.0293L33.395 84.1368C32.6796 84.9048 32.6796 86.0952 33.395 86.8632L42.8095 96.9707C43.4802 97.6907 43.4802 98.8068 42.8095 99.5268Z" fill="#535353"/>
<path d="M131.04 93.3C130.253 93.3 129.453 93.22 128.64 93.06C127.84 92.9133 127.207 92.6867 126.74 92.38V90.06C127.327 90.4067 127.98 90.6733 128.7 90.86C129.433 91.0467 130.093 91.14 130.68 91.14C131.387 91.14 131.9 91.0733 132.22 90.94C132.553 90.7933 132.72 90.54 132.72 90.18C132.72 89.86 132.56 89.6133 132.24 89.44C131.933 89.2667 131.353 89.0467 130.5 88.78L130 88.62C128.853 88.26 128.007 87.8267 127.46 87.32C126.913 86.8133 126.64 86.12 126.64 85.24C126.64 84.2133 127.053 83.42 127.88 82.86C128.707 82.2867 129.82 82 131.22 82C131.98 82 132.713 82.08 133.42 82.24C134.127 82.4 134.693 82.6067 135.12 82.86V85.24C134.693 84.9467 134.16 84.7133 133.52 84.54C132.893 84.3533 132.273 84.26 131.66 84.26C130.367 84.26 129.72 84.5867 129.72 85.24C129.72 85.56 129.873 85.8067 130.18 85.98C130.487 86.1533 131.033 86.36 131.82 86.6L132.54 86.82C133.38 87.0867 134.033 87.38 134.5 87.7C134.98 88.02 135.313 88.38 135.5 88.78C135.687 89.18 135.78 89.6667 135.78 90.24C135.78 91.16 135.38 91.9 134.58 92.46C133.793 93.02 132.613 93.3 131.04 93.3ZM137.47 82.3H140.51V86.16L144.57 82.3H148.03L145.15 85.04C146.19 85.3333 146.916 85.7867 147.33 86.4C147.756 87.0133 147.97 87.8267 147.97 88.84V93H144.93V89.1C144.93 88.42 144.81 87.9133 144.57 87.58C144.343 87.2467 143.923 87.0067 143.31 86.86L140.51 89.48V93H137.47V82.3ZM143.847 80.98C142.567 80.98 141.927 80.3333 141.927 79.04V77.58H144.647V78.56C144.647 78.7467 144.687 78.88 144.767 78.96C144.834 79.0267 144.967 79.06 145.167 79.06H149.727V80.98H143.847ZM153.687 93.3C152.461 93.3 151.481 92.9933 150.747 92.38C150.027 91.7667 149.667 90.9 149.667 89.78C149.667 88.66 150.061 87.78 150.847 87.14C151.647 86.5 152.741 86.18 154.127 86.18C155.421 86.18 156.527 86.3933 157.447 86.82V86.4C157.447 85.68 157.207 85.1467 156.727 84.8C156.261 84.4533 155.501 84.28 154.447 84.28C153.794 84.28 153.154 84.3467 152.527 84.48C151.901 84.6133 151.341 84.8 150.847 85.04V82.76C151.287 82.5467 151.894 82.3667 152.667 82.22C153.441 82.0733 154.221 82 155.007 82C155.901 82 156.734 82.1333 157.507 82.4L158.287 81.5H161.587L159.607 83.8C160.181 84.4533 160.467 85.3133 160.467 86.38V93H157.447V89.02C156.674 88.62 155.767 88.42 154.727 88.42C154.047 88.42 153.547 88.5333 153.227 88.76C152.921 88.9867 152.767 89.34 152.767 89.82C152.767 90.26 152.907 90.5933 153.187 90.82C153.481 91.0333 153.941 91.14 154.567 91.14C155.007 91.14 155.381 91.0733 155.687 90.94V93.04C155.167 93.2133 154.501 93.3 153.687 93.3ZM162.821 84.76C162.821 83.9733 163.035 83.3667 163.461 82.94C163.888 82.5133 164.495 82.3 165.281 82.3H167.441V84.64H166.721C166.401 84.64 166.175 84.7067 166.041 84.84C165.908 84.9733 165.841 85.2133 165.841 85.56V89.04L167.861 85.96H168.921L170.941 89.04V82.3H173.941V93H171.221L168.381 88.68L165.541 93H162.821V84.76ZM170.924 77.42H173.964V80.98H170.924V77.42ZM179.264 86.34C179.264 85.6467 179.117 85.1467 178.824 84.84C178.531 84.52 178.017 84.36 177.284 84.36C176.577 84.36 175.864 84.54 175.144 84.9V82.6C175.464 82.44 175.891 82.3 176.424 82.18C176.971 82.06 177.497 82 178.004 82C179.404 82 180.471 82.3733 181.204 83.12C181.937 83.8667 182.304 84.9467 182.304 86.36V93H179.264V86.34ZM188.544 93.3C187.677 93.3 186.93 93.12 186.304 92.76C185.677 92.4 185.197 91.9067 184.864 91.28C184.544 90.6533 184.384 89.9533 184.384 89.18V82.3H187.424V89C187.424 90.2933 188.11 90.94 189.484 90.94C190.044 90.94 190.524 90.8267 190.924 90.6C191.337 90.36 191.697 89.9933 192.004 89.5V82.3H195.024V93H192.144V91.8C191.677 92.2933 191.124 92.6667 190.484 92.92C189.857 93.1733 189.21 93.3 188.544 93.3ZM202.038 93.3C200.971 93.3 200.045 93.1333 199.258 92.8C198.485 92.4667 197.891 92 197.478 91.4C197.065 90.8 196.858 90.12 196.858 89.36V88.86C196.858 88.38 196.951 87.9533 197.138 87.58C197.325 87.1933 197.585 86.76 197.918 86.28C198.131 85.9867 198.285 85.7533 198.378 85.58C198.471 85.3933 198.518 85.22 198.518 85.06C198.518 84.6867 198.291 84.5 197.838 84.5H196.718V82.3H199.618C200.218 82.3 200.698 82.4733 201.058 82.82C201.418 83.1667 201.598 83.62 201.598 84.18C201.598 84.58 201.525 84.9533 201.378 85.3C201.231 85.6333 201.011 86.02 200.718 86.46C200.438 86.9 200.225 87.2733 200.078 87.58C199.945 87.8867 199.878 88.22 199.878 88.58V89C199.878 89.6267 200.058 90.1067 200.418 90.44C200.791 90.7733 201.331 90.94 202.038 90.94C203.438 90.94 204.138 90.2667 204.138 88.92V82.3H207.178V88.6C207.178 90.0533 206.731 91.2 205.838 92.04C204.958 92.88 203.691 93.3 202.038 93.3ZM213.667 93.3C212.773 93.3 211.893 93.2067 211.027 93.02C210.16 92.8467 209.44 92.6 208.867 92.28V86.66H213.927V88.88H211.847V90.6C212.26 90.8267 212.867 90.94 213.667 90.94C215.787 90.94 216.847 89.8333 216.847 87.62C216.847 86.4867 216.54 85.66 215.927 85.14C215.313 84.62 214.28 84.36 212.827 84.36C212.16 84.36 211.473 84.4333 210.767 84.58C210.073 84.7133 209.487 84.9067 209.007 85.16V82.8C209.553 82.5467 210.213 82.3533 210.987 82.22C211.76 82.0733 212.567 82 213.407 82C215.553 82 217.18 82.4933 218.287 83.48C219.407 84.4533 219.967 85.8333 219.967 87.62C219.967 89.38 219.42 90.7667 218.327 91.78C217.233 92.7933 215.68 93.3 213.667 93.3ZM221.249 83.64H224.269L226.549 90.74C227.536 90.74 228.296 90.4467 228.829 89.86C229.363 89.26 229.629 88.4133 229.629 87.32C229.629 86.3333 229.443 85.5933 229.069 85.1C228.696 84.6067 228.123 84.36 227.349 84.36C226.923 84.36 226.496 84.4267 226.069 84.56V82.28C226.629 82.0933 227.263 82 227.969 82C229.556 82 230.743 82.4667 231.529 83.4C232.329 84.32 232.729 85.6267 232.729 87.32C232.729 88.5067 232.469 89.5267 231.949 90.38C231.429 91.2333 230.723 91.8867 229.829 92.34C228.949 92.78 227.983 93 226.929 93H224.249L221.249 83.64ZM234.423 86.58C234.423 85.1 234.916 83.9667 235.903 83.18C236.903 82.3933 238.243 82 239.923 82C241.603 82 242.936 82.3933 243.923 83.18C244.909 83.9667 245.403 85.1 245.403 86.58V93H242.363V86.56C242.363 85.8267 242.149 85.28 241.723 84.92C241.309 84.5467 240.709 84.36 239.923 84.36C239.123 84.36 238.509 84.5467 238.083 84.92C237.669 85.28 237.463 85.8267 237.463 86.56V88.08C237.623 87.84 237.856 87.6533 238.163 87.52C238.483 87.3733 238.836 87.3 239.223 87.3H240.783V89.62H239.063C238.596 89.62 238.209 89.7667 237.903 90.06C237.609 90.3533 237.463 90.7333 237.463 91.2V93H234.423V86.58ZM242.769 96.52C242.769 96.28 242.723 96.1067 242.629 96C242.536 95.9067 242.369 95.86 242.129 95.86H241.469V93.94H243.569C244.289 93.94 244.789 94.0867 245.069 94.38C245.336 94.6733 245.469 95.18 245.469 95.9V98.48H242.769V96.52ZM258.969 93.3C257.703 93.3 256.723 92.9133 256.029 92.14C255.336 91.3667 254.989 90.38 254.989 89.18V86.56C254.989 85.8133 254.816 85.26 254.469 84.9C254.123 84.54 253.589 84.36 252.869 84.36C252.336 84.36 251.863 84.44 251.449 84.6C251.049 84.76 250.663 85.02 250.289 85.38L251.069 86.66V89.8C251.069 90.12 251.143 90.3467 251.289 90.48C251.436 90.6133 251.676 90.68 252.009 90.68H253.029V93H250.349C249.616 93 249.049 92.7933 248.649 92.38C248.249 91.9533 248.049 91.3667 248.049 90.62V86.62L247.049 84.92C247.809 83.9733 248.663 83.2533 249.609 82.76C250.556 82.2533 251.643 82 252.869 82C254.523 82 255.789 82.3867 256.669 83.16C257.549 83.92 257.989 84.9733 257.989 86.32V89C257.989 90.2933 258.629 90.94 259.909 90.94C260.416 90.94 260.869 90.82 261.269 90.58C261.669 90.3267 261.996 89.9667 262.249 89.5V82.3H265.269V93H262.409V91.82C261.969 92.3133 261.456 92.6867 260.869 92.94C260.283 93.18 259.649 93.3 258.969 93.3Z" fill="black"/>
<rect x="31.5" y="155.5" width="326" height="43" rx="7.5" fill="white"/>
<rect x="31.5" y="155.5" width="326" height="43" rx="7.5" stroke="#D3D3D3"/>
<path d="M49.486 182.21C48.9727 182.21 48.45 182.149 47.918 182.028C47.386 181.916 46.9707 181.748 46.672 181.524V180.376C47.0733 180.619 47.512 180.805 47.988 180.936C48.4733 181.057 48.9353 181.118 49.374 181.118C49.99 181.118 50.4333 181.048 50.704 180.908C50.9747 180.759 51.11 180.507 51.11 180.152C51.11 179.909 51.0447 179.713 50.914 179.564C50.7833 179.415 50.5827 179.284 50.312 179.172C50.0507 179.06 49.6353 178.92 49.066 178.752C48.2447 178.5 47.6333 178.206 47.232 177.87C46.8307 177.525 46.63 177.049 46.63 176.442C46.63 175.751 46.896 175.224 47.428 174.86C47.96 174.487 48.688 174.3 49.612 174.3C50.088 174.3 50.5453 174.356 50.984 174.468C51.432 174.571 51.8007 174.711 52.09 174.888V176.064C51.7727 175.868 51.4087 175.714 50.998 175.602C50.5873 175.49 50.1673 175.434 49.738 175.434C48.618 175.434 48.058 175.77 48.058 176.442C48.058 176.694 48.1327 176.895 48.282 177.044C48.4407 177.193 48.646 177.319 48.898 177.422C49.1593 177.515 49.5933 177.651 50.2 177.828C50.7973 178.005 51.264 178.197 51.6 178.402C51.936 178.607 52.174 178.85 52.314 179.13C52.454 179.41 52.524 179.755 52.524 180.166C52.524 180.782 52.272 181.277 51.768 181.65C51.264 182.023 50.5033 182.21 49.486 182.21ZM54.0604 174.51H55.4884V177.814L59.1144 174.51H60.7804L58.7364 176.372C59.5017 176.568 60.0337 176.881 60.3324 177.31C60.6404 177.739 60.7944 178.313 60.7944 179.032V182H59.3664V179.116C59.3664 178.556 59.2497 178.131 59.0164 177.842C58.7924 177.553 58.4004 177.347 57.8404 177.226L55.4884 179.368V182H54.0604V174.51ZM58.167 173.404C57.7657 173.404 57.4763 173.306 57.299 173.11C57.1123 172.905 57.019 172.601 57.019 172.2V171.472H58.307V172.032C58.307 172.191 58.3397 172.298 58.405 172.354C58.461 172.41 58.573 172.438 58.741 172.438H62.045V173.404H58.167ZM65.055 182.21C64.2243 182.21 63.5617 182.005 63.067 181.594C62.5817 181.174 62.339 180.581 62.339 179.816C62.339 179.06 62.6097 178.458 63.151 178.01C63.7017 177.562 64.4437 177.338 65.377 177.338C66.301 177.338 67.1317 177.511 67.869 177.856V177.282C67.869 176.638 67.6917 176.171 67.337 175.882C66.9917 175.583 66.413 175.434 65.601 175.434C65.153 175.434 64.7143 175.476 64.285 175.56C63.8557 175.644 63.4823 175.761 63.165 175.91V174.79C63.4543 174.65 63.8463 174.533 64.341 174.44C64.845 174.347 65.335 174.3 65.811 174.3C66.651 174.3 67.351 174.454 67.911 174.762L68.625 173.95H70.207L68.793 175.532C69.129 176.008 69.297 176.582 69.297 177.254V182H67.869V178.99C67.1877 178.645 66.4083 178.472 65.531 178.472C64.9243 178.472 64.4763 178.584 64.187 178.808C63.907 179.032 63.767 179.368 63.767 179.816C63.767 180.665 64.313 181.09 65.405 181.09C65.741 181.09 66.035 181.043 66.287 180.95V182.056C65.951 182.159 65.5403 182.21 65.055 182.21ZM71.328 176.036C71.328 175.541 71.4586 175.163 71.72 174.902C71.9813 174.641 72.3546 174.51 72.84 174.51H73.946V175.714H73.442C73.19 175.714 73.008 175.77 72.896 175.882C72.7933 175.985 72.742 176.167 72.742 176.428V179.914L74.618 176.862H75.234L77.11 179.914V174.51H78.524V182H77.236L74.926 178.234L72.616 182H71.328V176.036ZM77.1317 171.066H78.5457V173.404H77.1317V171.066ZM82.9697 177.156C82.9697 176.559 82.8484 176.125 82.6057 175.854C82.3631 175.574 81.9337 175.434 81.3177 175.434C80.7204 175.434 80.1604 175.565 79.6377 175.826V174.706C79.8617 174.594 80.1511 174.501 80.5057 174.426C80.8697 174.342 81.2291 174.3 81.5837 174.3C82.5264 174.3 83.2311 174.557 83.6977 175.07C84.1644 175.574 84.3977 176.302 84.3977 177.254V182H82.9697V177.156ZM89.1146 182.21C88.2 182.21 87.486 181.953 86.9726 181.44C86.4686 180.927 86.2166 180.264 86.2166 179.452V174.51H87.6446V179.396C87.6446 179.956 87.7986 180.381 88.1066 180.67C88.424 180.95 88.886 181.09 89.4926 181.09C90.454 181.09 91.21 180.661 91.7606 179.802V174.51H93.1886V182H91.8026V180.992C91.1026 181.804 90.2066 182.21 89.1146 182.21Z" fill="#4E5256"/>
<rect x="89" y="228" width="217" height="44" rx="22" fill="#16AD78"/>
<path d="M163.912 255.24C162.579 255.24 161.512 255 160.712 254.52C159.912 254.029 159.512 253.331 159.512 252.424C159.512 252.008 159.624 251.635 159.848 251.304C160.083 250.963 160.392 250.717 160.776 250.568C160.424 250.387 160.136 250.125 159.912 249.784C159.699 249.443 159.592 249.069 159.592 248.664C159.592 247.917 159.853 247.32 160.376 246.872C160.909 246.424 161.677 246.2 162.68 246.2C162.989 246.2 163.293 246.221 163.592 246.264C163.901 246.307 164.136 246.355 164.296 246.408V248.232C164.147 248.168 163.965 248.115 163.752 248.072C163.549 248.029 163.363 248.008 163.192 248.008C162.445 248.008 162.072 248.285 162.072 248.84C162.072 249.128 162.163 249.347 162.344 249.496C162.536 249.635 162.829 249.704 163.224 249.704H164.296V251.416H163.224C162.413 251.416 162.008 251.736 162.008 252.376C162.008 252.717 162.168 252.984 162.488 253.176C162.819 253.357 163.293 253.448 163.912 253.448C164.659 253.448 165.203 253.299 165.544 253C165.896 252.691 166.072 252.232 166.072 251.624V246.424H168.504V251.608C168.504 252.216 168.349 252.797 168.04 253.352C167.731 253.896 167.235 254.349 166.552 254.712C165.869 255.064 164.989 255.24 163.912 255.24ZM161.12 243.848H164.096V242.152H165.776V243.848H166.848V242.152H168.512V245.384H161.12V243.848ZM173.504 255.24C172.81 255.24 172.213 255.096 171.712 254.808C171.21 254.52 170.826 254.125 170.56 253.624C170.304 253.123 170.176 252.563 170.176 251.944V246.44H172.608V251.8C172.608 252.835 173.157 253.352 174.256 253.352C174.704 253.352 175.088 253.261 175.408 253.08C175.738 252.888 176.026 252.595 176.272 252.2V246.44H178.688V255H176.384V254.04C176.01 254.435 175.568 254.733 175.056 254.936C174.554 255.139 174.037 255.24 173.504 255.24ZM184.443 255.24C183.11 255.24 182.043 255 181.243 254.52C180.443 254.029 180.043 253.331 180.043 252.424C180.043 252.008 180.155 251.635 180.379 251.304C180.614 250.963 180.923 250.717 181.307 250.568C180.955 250.387 180.667 250.125 180.443 249.784C180.23 249.443 180.123 249.069 180.123 248.664C180.123 247.917 180.385 247.32 180.907 246.872C181.441 246.424 182.209 246.2 183.211 246.2C183.521 246.2 183.825 246.221 184.123 246.264C184.433 246.307 184.667 246.355 184.827 246.408V248.232C184.678 248.168 184.497 248.115 184.283 248.072C184.081 248.029 183.894 248.008 183.723 248.008C182.977 248.008 182.603 248.285 182.603 248.84C182.603 249.128 182.694 249.347 182.875 249.496C183.067 249.635 183.361 249.704 183.755 249.704H184.827V251.416H183.755C182.945 251.416 182.539 251.736 182.539 252.376C182.539 252.717 182.699 252.984 183.019 253.176C183.35 253.357 183.825 253.448 184.443 253.448C185.19 253.448 185.734 253.299 186.075 253C186.427 252.691 186.603 252.232 186.603 251.624V246.424H189.035V251.608C189.035 252.216 188.881 252.797 188.571 253.352C188.262 253.896 187.766 254.349 187.083 254.712C186.401 255.064 185.521 255.24 184.443 255.24ZM185.731 245.384C184.707 245.384 184.195 244.867 184.195 243.832V242.664H186.371V243.448C186.371 243.597 186.403 243.704 186.467 243.768C186.52 243.821 186.627 243.848 186.787 243.848H190.435V245.384H185.731ZM194.035 255.24C193.342 255.24 192.744 255.096 192.243 254.808C191.742 254.52 191.358 254.125 191.091 253.624C190.835 253.123 190.707 252.563 190.707 251.944V246.44H193.139V251.8C193.139 252.835 193.688 253.352 194.787 253.352C195.235 253.352 195.619 253.261 195.939 253.08C196.27 252.888 196.558 252.595 196.803 252.2V246.44H199.219V255H196.915V254.04C196.542 254.435 196.099 254.733 195.587 254.936C195.086 255.139 194.568 255.24 194.035 255.24ZM204.415 255.24C203.7 255.24 202.996 255.165 202.303 255.016C201.609 254.877 201.033 254.68 200.575 254.424V249.928H204.623V251.704H202.959V253.08C203.289 253.261 203.775 253.352 204.415 253.352C206.111 253.352 206.959 252.467 206.959 250.696C206.959 249.789 206.713 249.128 206.223 248.712C205.732 248.296 204.905 248.088 203.743 248.088C203.209 248.088 202.66 248.147 202.095 248.264C201.54 248.371 201.071 248.525 200.687 248.728V246.84C201.124 246.637 201.652 246.483 202.271 246.376C202.889 246.259 203.535 246.2 204.207 246.2C205.924 246.2 207.225 246.595 208.111 247.384C209.007 248.163 209.455 249.267 209.455 250.696C209.455 252.104 209.017 253.213 208.142 254.024C207.268 254.835 206.025 255.24 204.415 255.24ZM201.729 243.848H206.945V242.152H209.137V245.384H201.729V243.848ZM212.625 255C212.038 255 211.585 254.835 211.265 254.504C210.955 254.163 210.801 253.693 210.801 253.096V246.44H213.233V252.44C213.233 252.696 213.286 252.877 213.393 252.984C213.499 253.091 213.675 253.144 213.921 253.144H214.481V255H212.625ZM220.969 255.24C220.436 255.24 219.918 255.139 219.417 254.936C218.916 254.733 218.478 254.435 218.105 254.04V255H215.785V246.44H218.217V252.2C218.452 252.595 218.734 252.888 219.065 253.08C219.396 253.261 219.785 253.352 220.233 253.352C221.332 253.352 221.881 252.835 221.881 251.8V246.44H224.297V251.944C224.297 252.563 224.169 253.123 223.913 253.624C223.657 254.125 223.278 254.52 222.777 254.808C222.276 255.096 221.673 255.24 220.969 255.24ZM228.869 255.24C227.887 255.24 227.103 254.995 226.517 254.504C225.941 254.013 225.653 253.32 225.653 252.424C225.653 251.528 225.967 250.824 226.597 250.312C227.237 249.8 228.111 249.544 229.221 249.544C230.255 249.544 231.141 249.715 231.877 250.056V249.72C231.877 249.144 231.685 248.717 231.301 248.44C230.927 248.163 230.319 248.024 229.477 248.024C228.954 248.024 228.442 248.077 227.941 248.184C227.439 248.291 226.991 248.44 226.597 248.632V246.808C226.949 246.637 227.434 246.493 228.053 246.376C228.671 246.259 229.295 246.2 229.925 246.2C231.354 246.2 232.437 246.52 233.173 247.16C233.919 247.789 234.293 248.637 234.293 249.704V255H231.877V251.816C231.258 251.496 230.533 251.336 229.701 251.336C229.157 251.336 228.757 251.427 228.501 251.608C228.255 251.789 228.133 252.072 228.133 252.456C228.133 252.808 228.245 253.075 228.469 253.256C228.703 253.427 229.071 253.512 229.573 253.512C229.925 253.512 230.223 253.459 230.469 253.352V255.032C230.053 255.171 229.519 255.24 228.869 255.24Z" fill="white"/>
</svg>
