<svg width="390" height="849" viewBox="0 0 390 849" fill="none" xmlns="http://www.w3.org/2000/svg">
<rect y="5" width="390" height="844" rx="32" fill="white"/>
<path fill-rule="evenodd" clip-rule="evenodd" d="M121 838.5C121 837.119 122.119 836 123.5 836H266.5C267.881 836 269 837.119 269 838.5C269 839.881 267.881 841 266.5 841H123.5C122.119 841 121 839.881 121 838.5Z" fill="#090A0A"/>
<g clip-path="url(#clip0_55_1022)">
<path d="M54.0688 36V26.1304H53.9194L50.9395 28.2305V26.2217L54.0688 24.022H56.2021V36H54.0688ZM63.4219 36.2988C62.4701 36.2988 61.6538 36.0443 60.9731 35.5352C60.298 35.026 59.7778 34.3011 59.4126 33.3604C59.0474 32.4196 58.8647 31.3045 58.8647 30.0151V29.9985C58.8647 28.7091 59.0474 27.5968 59.4126 26.6616C59.7778 25.7209 60.298 24.9959 60.9731 24.4868C61.6538 23.9777 62.4701 23.7231 63.4219 23.7231C64.3737 23.7231 65.1899 23.9777 65.8706 24.4868C66.5513 24.9959 67.0742 25.7209 67.4395 26.6616C67.8047 27.5968 67.9873 28.7091 67.9873 29.9985V30.0151C67.9873 31.3045 67.8047 32.4196 67.4395 33.3604C67.0742 34.3011 66.5513 35.026 65.8706 35.5352C65.1899 36.0443 64.3737 36.2988 63.4219 36.2988ZM63.4219 34.564C63.931 34.564 64.3654 34.3813 64.7251 34.0161C65.0848 33.6509 65.3587 33.1307 65.5469 32.4556C65.7406 31.7749 65.8374 30.9614 65.8374 30.0151V29.9985C65.8374 29.0522 65.7406 28.2415 65.5469 27.5664C65.3587 26.8857 65.0848 26.3656 64.7251 26.0059C64.3654 25.6406 63.931 25.458 63.4219 25.458C62.9128 25.458 62.4784 25.6406 62.1187 26.0059C61.7645 26.3656 61.4906 26.8857 61.2969 27.5664C61.1087 28.2415 61.0146 29.0522 61.0146 29.9985V30.0151C61.0146 30.9614 61.1087 31.7749 61.2969 32.4556C61.4906 33.1307 61.7645 33.6509 62.1187 34.0161C62.4784 34.3813 62.9128 34.564 63.4219 34.564ZM71.2974 34.3896C70.9211 34.3896 70.6056 34.2651 70.3511 34.0161C70.1021 33.7616 69.9775 33.4517 69.9775 33.0864C69.9775 32.7157 70.1021 32.4058 70.3511 32.1567C70.6056 31.9022 70.9211 31.7749 71.2974 31.7749C71.6792 31.7749 71.9946 31.9022 72.2437 32.1567C72.4927 32.4058 72.6172 32.7157 72.6172 33.0864C72.6172 33.4517 72.4927 33.7616 72.2437 34.0161C71.9946 34.2651 71.6792 34.3896 71.2974 34.3896ZM71.2974 28.2305C70.9211 28.2305 70.6056 28.106 70.3511 27.8569C70.1021 27.6024 69.9775 27.2925 69.9775 26.9272C69.9775 26.5565 70.1021 26.2466 70.3511 25.9976C70.6056 25.743 70.9211 25.6157 71.2974 25.6157C71.6792 25.6157 71.9946 25.743 72.2437 25.9976C72.4927 26.2466 72.6172 26.5565 72.6172 26.9272C72.6172 27.2925 72.4927 27.6024 72.2437 27.8569C71.9946 28.106 71.6792 28.2305 71.2974 28.2305ZM79.1562 36.2988C78.2044 36.2988 77.3882 36.0443 76.7075 35.5352C76.0324 35.026 75.5122 34.3011 75.147 33.3604C74.7817 32.4196 74.5991 31.3045 74.5991 30.0151V29.9985C74.5991 28.7091 74.7817 27.5968 75.147 26.6616C75.5122 25.7209 76.0324 24.9959 76.7075 24.4868C77.3882 23.9777 78.2044 23.7231 79.1562 23.7231C80.1081 23.7231 80.9243 23.9777 81.605 24.4868C82.2856 24.9959 82.8086 25.7209 83.1738 26.6616C83.5391 27.5968 83.7217 28.7091 83.7217 29.9985V30.0151C83.7217 31.3045 83.5391 32.4196 83.1738 33.3604C82.8086 34.3011 82.2856 35.026 81.605 35.5352C80.9243 36.0443 80.1081 36.2988 79.1562 36.2988ZM79.1562 34.564C79.6654 34.564 80.0998 34.3813 80.4595 34.0161C80.8192 33.6509 81.0931 33.1307 81.2812 32.4556C81.4749 31.7749 81.5718 30.9614 81.5718 30.0151V29.9985C81.5718 29.0522 81.4749 28.2415 81.2812 27.5664C81.0931 26.8857 80.8192 26.3656 80.4595 26.0059C80.0998 25.6406 79.6654 25.458 79.1562 25.458C78.6471 25.458 78.2127 25.6406 77.853 26.0059C77.4989 26.3656 77.2249 26.8857 77.0312 27.5664C76.8431 28.2415 76.749 29.0522 76.749 29.9985V30.0151C76.749 30.9614 76.8431 31.7749 77.0312 32.4556C77.2249 33.1307 77.4989 33.6509 77.853 34.0161C78.2127 34.3813 78.6471 34.564 79.1562 34.564ZM89.9619 36.2988C89.0101 36.2988 88.1938 36.0443 87.5132 35.5352C86.8381 35.026 86.3179 34.3011 85.9526 33.3604C85.5874 32.4196 85.4048 31.3045 85.4048 30.0151V29.9985C85.4048 28.7091 85.5874 27.5968 85.9526 26.6616C86.3179 25.7209 86.8381 24.9959 87.5132 24.4868C88.1938 23.9777 89.0101 23.7231 89.9619 23.7231C90.9137 23.7231 91.73 23.9777 92.4106 24.4868C93.0913 24.9959 93.6143 25.7209 93.9795 26.6616C94.3447 27.5968 94.5273 28.7091 94.5273 29.9985V30.0151C94.5273 31.3045 94.3447 32.4196 93.9795 33.3604C93.6143 34.3011 93.0913 35.026 92.4106 35.5352C91.73 36.0443 90.9137 36.2988 89.9619 36.2988ZM89.9619 34.564C90.471 34.564 90.9054 34.3813 91.2651 34.0161C91.6248 33.6509 91.8988 33.1307 92.0869 32.4556C92.2806 31.7749 92.3774 30.9614 92.3774 30.0151V29.9985C92.3774 29.0522 92.2806 28.2415 92.0869 27.5664C91.8988 26.8857 91.6248 26.3656 91.2651 26.0059C90.9054 25.6406 90.471 25.458 89.9619 25.458C89.4528 25.458 89.0184 25.6406 88.6587 26.0059C88.3045 26.3656 88.0306 26.8857 87.8369 27.5664C87.6488 28.2415 87.5547 29.0522 87.5547 29.9985V30.0151C87.5547 30.9614 87.6488 31.7749 87.8369 32.4556C88.0306 33.1307 88.3045 33.6509 88.6587 34.0161C89.0184 34.3813 89.4528 34.564 89.9619 34.564Z" fill="black"/>
<path d="M288.333 31C288.977 31 289.5 31.5037 289.5 32.125V34.375C289.5 34.9963 288.977 35.5 288.333 35.5H287.167C286.523 35.5 286 34.9963 286 34.375V32.125C286 31.5037 286.523 31 287.167 31H288.333ZM293.823 28.75C294.468 28.75 294.99 29.2537 294.99 29.875V34.375C294.99 34.9963 294.468 35.5 293.823 35.5H292.657C292.013 35.5 291.49 34.9963 291.49 34.375V29.875C291.49 29.2537 292.013 28.75 292.657 28.75H293.823ZM299.313 26.125C299.958 26.125 300.48 26.6287 300.48 27.25V34.375C300.48 34.9963 299.958 35.5 299.313 35.5H298.147C297.503 35.5 296.98 34.9963 296.98 34.375V27.25C296.981 26.6287 297.503 26.125 298.147 26.125H299.313ZM304.804 23.5C305.448 23.5 305.971 24.0037 305.971 24.625V34.375C305.971 34.9963 305.448 35.5 304.804 35.5H303.638C302.993 35.5 302.471 34.9963 302.471 34.375V24.625C302.471 24.0037 302.993 23.5 303.638 23.5H304.804Z" fill="black"/>
<path d="M318.512 32.8262C319.932 31.5964 322.011 31.5964 323.431 32.8262C323.502 32.8924 323.544 32.9855 323.546 33.084C323.548 33.1826 323.51 33.2777 323.441 33.3467L321.218 35.6446C321.153 35.7121 321.063 35.7501 320.971 35.7501C320.878 35.7499 320.79 35.7119 320.725 35.6446L318.501 33.3467C318.432 33.2776 318.394 33.1826 318.396 33.084C318.399 32.9855 318.44 32.8923 318.512 32.8262ZM315.545 29.7608C318.604 26.8467 323.341 26.8467 326.4 29.7608C326.469 29.829 326.509 29.9225 326.51 30.0206C326.511 30.1188 326.473 30.2135 326.405 30.2833L325.12 31.6133C324.988 31.7491 324.774 31.7524 324.638 31.6202C323.633 30.6886 322.326 30.1728 320.971 30.1729C319.617 30.1736 318.311 30.6895 317.308 31.6202C317.172 31.7524 316.958 31.7491 316.825 31.6133L315.54 30.2833C315.472 30.2136 315.435 30.1189 315.436 30.0206C315.437 29.9224 315.476 29.829 315.545 29.7608ZM312.578 26.7032C317.27 22.0989 324.671 22.099 329.363 26.7032C329.431 26.7716 329.47 26.8654 329.471 26.963C329.471 27.0605 329.433 27.1545 329.366 27.2237L328.08 28.5538C327.947 28.6901 327.732 28.691 327.598 28.5567C325.81 26.8164 323.437 25.8459 320.971 25.8458C318.504 25.8459 316.131 26.8163 314.344 28.5567C314.209 28.6913 313.994 28.6904 313.861 28.5538L312.574 27.2237C312.507 27.1545 312.47 27.0605 312.471 26.963C312.471 26.8654 312.51 26.7715 312.578 26.7032Z" fill="black"/>
<rect opacity="0.4" x="336.471" y="23.5" width="24" height="12" rx="3.5" stroke="black"/>
<path opacity="0.5" d="M361.971 27.5V31.5C362.777 31.1612 363.301 30.3731 363.301 29.5C363.301 28.6269 362.777 27.8388 361.971 27.5Z" fill="black"/>
<rect x="337.971" y="25" width="17" height="9" rx="2" fill="black"/>
</g>
<path d="M91.2 284.375C89.8167 284.375 88.6083 284.133 87.575 283.65C86.5417 283.15 85.7417 282.467 85.175 281.6C84.6083 280.733 84.325 279.75 84.325 278.65V270.625H88.125V278.4C88.125 279.367 88.375 280.117 88.875 280.65C89.3917 281.167 90.1667 281.425 91.2 281.425C92.2333 281.425 93 281.167 93.5 280.65C94 280.117 94.25 279.367 94.25 278.4V270.625H98.05V278.65C98.05 279.75 97.7667 280.733 97.2 281.6C96.6333 282.467 95.8333 283.15 94.8 283.65C93.7667 284.133 92.5667 284.375 91.2 284.375ZM92.858 268.975C91.258 268.975 90.458 268.167 90.458 266.55V264.725H93.858V265.95C93.858 266.183 93.908 266.35 94.008 266.45C94.0913 266.533 94.258 266.575 94.508 266.575H100.208V268.975H92.858ZM105.833 284.375C104.75 284.375 103.816 284.15 103.033 283.7C102.25 283.25 101.65 282.633 101.233 281.85C100.833 281.067 100.633 280.192 100.633 279.225V270.625H104.433V279C104.433 280.617 105.291 281.425 107.008 281.425C107.708 281.425 108.308 281.283 108.808 281C109.325 280.7 109.775 280.242 110.158 279.625V270.625H113.933V284H110.333V282.5C109.75 283.117 109.058 283.583 108.258 283.9C107.475 284.217 106.666 284.375 105.833 284.375ZM116.551 270.625H120.176V272.15C120.776 271.55 121.484 271.083 122.301 270.75C123.118 270.417 123.934 270.25 124.751 270.25C126.434 270.25 127.701 270.708 128.551 271.625C129.418 272.525 129.851 273.717 129.851 275.2V284H126.076V275.525C126.076 273.975 125.259 273.2 123.626 273.2C122.943 273.2 122.318 273.35 121.751 273.65C121.201 273.95 120.734 274.408 120.351 275.025V284H116.551V270.625ZM118.319 266.575H124.969C124.952 266.475 124.944 266.342 124.944 266.175C124.944 265.425 125.194 264.808 125.694 264.325C126.194 263.825 126.836 263.575 127.619 263.575C128.452 263.575 129.119 263.842 129.619 264.375C130.119 264.892 130.369 265.517 130.369 266.25C130.369 267.033 130.094 267.683 129.544 268.2C128.977 268.717 128.269 268.975 127.419 268.975H118.319V266.575ZM127.644 267.3C127.927 267.3 128.177 267.2 128.394 267C128.594 266.783 128.694 266.533 128.694 266.25C128.694 265.967 128.594 265.717 128.394 265.5C128.177 265.283 127.927 265.175 127.644 265.175C127.361 265.175 127.119 265.283 126.919 265.5C126.702 265.717 126.594 265.967 126.594 266.25C126.594 266.533 126.702 266.783 126.919 267C127.119 267.2 127.361 267.3 127.644 267.3ZM133.169 276.025L131.919 273.9C133.869 271.467 136.377 270.25 139.444 270.25C141.594 270.25 143.244 270.725 144.394 271.675C145.561 272.625 146.144 273.95 146.144 275.65V284H142.344V275.95C142.344 274.117 141.377 273.2 139.444 273.2C138.727 273.2 138.086 273.3 137.519 273.5C136.969 273.7 136.452 274.025 135.969 274.475L136.944 276.075V284H133.169V276.025ZM154.903 284.375C153.57 284.375 152.411 284.167 151.428 283.75C150.461 283.333 149.72 282.75 149.203 282C148.686 281.25 148.428 280.4 148.428 279.45V278.825C148.428 278.225 148.545 277.692 148.778 277.225C149.011 276.742 149.336 276.2 149.753 275.6C150.02 275.233 150.211 274.942 150.328 274.725C150.445 274.492 150.503 274.275 150.503 274.075C150.503 273.608 150.22 273.375 149.653 273.375H148.253V270.625H151.878C152.628 270.625 153.228 270.842 153.678 271.275C154.128 271.708 154.353 272.275 154.353 272.975C154.353 273.475 154.261 273.942 154.078 274.375C153.895 274.792 153.62 275.275 153.253 275.825C152.903 276.375 152.636 276.842 152.453 277.225C152.286 277.608 152.203 278.025 152.203 278.475V279C152.203 279.783 152.428 280.383 152.878 280.8C153.345 281.217 154.02 281.425 154.903 281.425C156.653 281.425 157.528 280.583 157.528 278.9V270.625H161.328V278.5C161.328 280.317 160.77 281.75 159.653 282.8C158.553 283.85 156.97 284.375 154.903 284.375ZM155.214 267.375C155.214 267.192 155.18 267.067 155.114 267C155.03 266.917 154.897 266.875 154.714 266.875H153.539V264.3H155.889C156.505 264.3 156.955 264.442 157.239 264.725C157.505 265.008 157.639 265.367 157.639 265.8V266.55H162.664V268.975H155.214V267.375ZM169.439 284.375C168.322 284.375 167.222 284.258 166.139 284.025C165.055 283.808 164.155 283.5 163.439 283.1V276.075H169.764V278.85H167.164V281C167.68 281.283 168.439 281.425 169.439 281.425C172.089 281.425 173.414 280.042 173.414 277.275C173.414 275.858 173.03 274.825 172.264 274.175C171.497 273.525 170.205 273.2 168.389 273.2C167.555 273.2 166.697 273.292 165.814 273.475C164.947 273.642 164.214 273.883 163.614 274.2V271.25C164.297 270.933 165.122 270.692 166.089 270.525C167.055 270.342 168.064 270.25 169.114 270.25C171.797 270.25 173.83 270.867 175.214 272.1C176.614 273.317 177.314 275.042 177.314 277.275C177.314 279.475 176.63 281.208 175.264 282.475C173.897 283.742 171.955 284.375 169.439 284.375ZM187.517 284.375C186.684 284.375 185.876 284.217 185.092 283.9C184.309 283.583 183.626 283.117 183.042 282.5V284H179.417V270.625H183.217V279.625C183.584 280.242 184.026 280.7 184.542 281C185.059 281.283 185.667 281.425 186.367 281.425C188.084 281.425 188.942 280.617 188.942 279V270.625H192.717V279.225C192.717 280.192 192.517 281.067 192.117 281.85C191.717 282.633 191.126 283.25 190.342 283.7C189.559 284.15 188.617 284.375 187.517 284.375ZM189.085 291C187.852 291 186.902 290.758 186.235 290.275C185.552 289.792 185.21 289.15 185.21 288.35V287.9C185.21 287.683 185.177 287.533 185.11 287.45C185.027 287.367 184.885 287.325 184.685 287.325H183.86V285.175H186.685C187.185 285.175 187.535 285.283 187.735 285.5C187.918 285.733 188.01 286.092 188.01 286.575V287.95C188.01 288.55 188.327 288.85 188.96 288.85C189.577 288.85 189.885 288.55 189.885 287.95V285.175H192.685V288.25C192.685 289.05 192.377 289.708 191.76 290.225C191.127 290.742 190.235 291 189.085 291ZM199.86 284.375C198.327 284.375 197.102 283.992 196.185 283.225C195.285 282.458 194.835 281.375 194.835 279.975C194.835 278.575 195.327 277.475 196.31 276.675C197.31 275.875 198.677 275.475 200.41 275.475C202.027 275.475 203.41 275.742 204.56 276.275V275.75C204.56 274.85 204.26 274.183 203.66 273.75C203.077 273.317 202.127 273.1 200.81 273.1C199.993 273.1 199.193 273.183 198.41 273.35C197.627 273.517 196.927 273.75 196.31 274.05V271.2C196.86 270.933 197.618 270.708 198.585 270.525C199.552 270.342 200.527 270.25 201.51 270.25C203.743 270.25 205.435 270.75 206.585 271.75C207.752 272.733 208.335 274.058 208.335 275.725V284H204.56V279.025C203.593 278.525 202.46 278.275 201.16 278.275C200.31 278.275 199.685 278.417 199.285 278.7C198.902 278.983 198.71 279.425 198.71 280.025C198.71 280.575 198.885 280.992 199.235 281.275C199.602 281.542 200.177 281.675 200.96 281.675C201.51 281.675 201.977 281.592 202.36 281.425V284.05C201.71 284.267 200.877 284.375 199.86 284.375ZM210.936 273.7C210.936 272.717 211.202 271.958 211.736 271.425C212.269 270.892 213.027 270.625 214.011 270.625H216.711V273.55H215.811C215.411 273.55 215.127 273.633 214.961 273.8C214.794 273.967 214.711 274.267 214.711 274.7V279.05L217.236 275.2H218.561L221.086 279.05V270.625H224.836V284H221.436L217.886 278.6L214.336 284H210.936V273.7ZM221.214 291C219.981 291 219.031 290.758 218.364 290.275C217.681 289.792 217.339 289.15 217.339 288.35V287.9C217.339 287.683 217.306 287.533 217.239 287.45C217.156 287.367 217.014 287.325 216.814 287.325H215.989V285.175H218.814C219.314 285.175 219.664 285.283 219.864 285.5C220.047 285.733 220.139 286.092 220.139 286.575V287.95C220.139 288.55 220.456 288.85 221.089 288.85C221.706 288.85 222.014 288.55 222.014 287.95V285.175H224.814V288.25C224.814 289.05 224.506 289.708 223.889 290.225C223.256 290.742 222.364 291 221.214 291ZM218.739 267.375C218.739 267.192 218.706 267.067 218.639 267C218.556 266.917 218.422 266.875 218.239 266.875H217.064V264.3H219.414C220.031 264.3 220.481 264.442 220.764 264.725C221.031 265.008 221.164 265.367 221.164 265.8V266.55H226.189V268.975H218.739V267.375ZM231.989 284.375C230.456 284.375 229.231 283.992 228.314 283.225C227.414 282.458 226.964 281.375 226.964 279.975C226.964 278.575 227.456 277.475 228.439 276.675C229.439 275.875 230.806 275.475 232.539 275.475C234.156 275.475 235.539 275.742 236.689 276.275V275.75C236.689 274.85 236.389 274.183 235.789 273.75C235.206 273.317 234.256 273.1 232.939 273.1C232.122 273.1 231.322 273.183 230.539 273.35C229.756 273.517 229.056 273.75 228.439 274.05V271.2C228.989 270.933 229.747 270.708 230.714 270.525C231.681 270.342 232.656 270.25 233.639 270.25C234.756 270.25 235.797 270.417 236.764 270.75L237.739 269.625H241.864L239.389 272.5C240.106 273.317 240.464 274.392 240.464 275.725V284H236.689V279.025C235.722 278.525 234.589 278.275 233.289 278.275C232.439 278.275 231.814 278.417 231.414 278.7C231.031 278.983 230.839 279.425 230.839 280.025C230.839 280.575 231.014 280.992 231.364 281.275C231.731 281.542 232.306 281.675 233.089 281.675C233.639 281.675 234.106 281.592 234.489 281.425V284.05C233.839 284.267 233.006 284.375 231.989 284.375ZM237.156 291C235.923 291 234.973 290.758 234.306 290.275C233.623 289.792 233.281 289.15 233.281 288.35V287.9C233.281 287.683 233.248 287.533 233.181 287.45C233.098 287.367 232.956 287.325 232.756 287.325H231.931V285.175H234.756C235.256 285.175 235.606 285.283 235.806 285.5C235.99 285.733 236.081 286.092 236.081 286.575V287.95C236.081 288.55 236.398 288.85 237.031 288.85C237.648 288.85 237.956 288.55 237.956 287.95V285.175H240.756V288.25C240.756 289.05 240.448 289.708 239.831 290.225C239.198 290.742 238.306 291 237.156 291ZM242.906 272.3H246.681L249.531 281.175C250.765 281.175 251.715 280.808 252.381 280.075C253.048 279.325 253.381 278.267 253.381 276.9C253.381 275.667 253.148 274.742 252.681 274.125C252.215 273.508 251.498 273.2 250.531 273.2C249.998 273.2 249.465 273.283 248.931 273.45V270.6C249.631 270.367 250.423 270.25 251.306 270.25C253.29 270.25 254.773 270.833 255.756 272C256.756 273.15 257.256 274.783 257.256 276.9C257.256 278.383 256.931 279.658 256.281 280.725C255.631 281.792 254.748 282.608 253.631 283.175C252.531 283.725 251.323 284 250.006 284H246.656L242.906 272.3ZM264.873 284.375C263.757 284.375 262.657 284.258 261.573 284.025C260.49 283.808 259.59 283.5 258.873 283.1V276.075H265.198V278.85H262.598V281C263.115 281.283 263.873 281.425 264.873 281.425C267.523 281.425 268.848 280.042 268.848 277.275C268.848 275.858 268.465 274.825 267.698 274.175C266.932 273.525 265.64 273.2 263.823 273.2C262.99 273.2 262.132 273.292 261.248 273.475C260.382 273.642 259.648 273.883 259.048 274.2V271.25C259.732 270.933 260.557 270.692 261.523 270.525C262.49 270.342 263.498 270.25 264.548 270.25C267.232 270.25 269.265 270.867 270.648 272.1C272.048 273.317 272.748 275.042 272.748 277.275C272.748 279.475 272.065 281.208 270.698 282.475C269.332 283.742 267.39 284.375 264.873 284.375ZM278.877 275.675C278.877 274.808 278.693 274.183 278.327 273.8C277.96 273.4 277.318 273.2 276.402 273.2C275.518 273.2 274.627 273.425 273.727 273.875V271C274.127 270.8 274.66 270.625 275.327 270.475C276.01 270.325 276.668 270.25 277.302 270.25C279.052 270.25 280.385 270.717 281.302 271.65C282.218 272.583 282.677 273.933 282.677 275.7V284H278.877V275.675ZM291.652 284.375C289.568 284.375 287.902 284 286.652 283.25C285.402 282.483 284.777 281.392 284.777 279.975C284.777 279.325 284.952 278.742 285.302 278.225C285.668 277.692 286.152 277.308 286.752 277.075C286.202 276.792 285.752 276.383 285.402 275.85C285.068 275.317 284.902 274.733 284.902 274.1C284.902 272.933 285.31 272 286.127 271.3C286.96 270.6 288.16 270.25 289.727 270.25C290.21 270.25 290.685 270.283 291.152 270.35C291.635 270.417 292.002 270.492 292.252 270.575V273.425C292.018 273.325 291.735 273.242 291.402 273.175C291.085 273.108 290.793 273.075 290.527 273.075C289.36 273.075 288.777 273.508 288.777 274.375C288.777 274.825 288.918 275.167 289.202 275.4C289.502 275.617 289.96 275.725 290.577 275.725H292.252V278.4H290.577C289.31 278.4 288.677 278.9 288.677 279.9C288.677 280.433 288.927 280.85 289.427 281.15C289.943 281.433 290.685 281.575 291.652 281.575C292.818 281.575 293.668 281.342 294.202 280.875C294.752 280.392 295.027 279.675 295.027 278.725V270.6H298.827V278.7C298.827 279.65 298.585 280.558 298.102 281.425C297.618 282.275 296.843 282.983 295.777 283.55C294.71 284.1 293.335 284.375 291.652 284.375ZM295.539 288.4C295.539 288.1 295.48 287.883 295.364 287.75C295.247 287.633 295.039 287.575 294.739 287.575H293.914V285.175H296.539C297.439 285.175 298.064 285.358 298.414 285.725C298.747 286.092 298.914 286.725 298.914 287.625V290.85H295.539V288.4Z" fill="#3CB364"/>
<path d="M56.3 331.5C55.6467 331.5 55.1467 331.32 54.8 330.96C54.4667 330.587 54.3 330.067 54.3 329.4V320.8H56.34V328.84C56.34 329.2 56.4133 329.453 56.56 329.6C56.7067 329.733 56.96 329.8 57.32 329.8H58.04V331.5H56.3ZM61.44 331.5C60.8 331.5 60.3067 331.313 59.96 330.94C59.6133 330.567 59.44 330.053 59.44 329.4V320.8H61.48V328.84C61.48 329.2 61.5533 329.453 61.7 329.6C61.86 329.733 62.12 329.8 62.48 329.8H63.2V331.5H61.44ZM68.8738 331.8C67.6871 331.8 66.7404 331.507 66.0338 330.92C65.3404 330.32 64.9938 329.473 64.9938 328.38C64.9938 327.3 65.3804 326.44 66.1538 325.8C66.9404 325.16 68.0004 324.84 69.3338 324.84C70.6538 324.84 71.8404 325.087 72.8938 325.58V324.76C72.8938 323.84 72.6404 323.173 72.1338 322.76C71.6404 322.333 70.8138 322.12 69.6538 322.12C69.0138 322.12 68.3871 322.18 67.7738 322.3C67.1604 322.42 66.6271 322.587 66.1738 322.8V321.2C66.5871 321 67.1471 320.833 67.8538 320.7C68.5738 320.567 69.2738 320.5 69.9538 320.5C71.6204 320.5 72.8671 320.88 73.6938 321.64C74.5204 322.4 74.9338 323.427 74.9338 324.72V331.5H72.8938V327.2C71.9204 326.707 70.8071 326.46 69.5538 326.46C68.6871 326.46 68.0471 326.62 67.6338 326.94C67.2338 327.26 67.0337 327.74 67.0337 328.38C67.0337 329.593 67.8137 330.2 69.3737 330.2C69.8538 330.2 70.2738 330.133 70.6338 330V331.58C70.1538 331.727 69.5671 331.8 68.8738 331.8ZM78.7422 325C78.1555 325 77.7422 324.867 77.5022 324.6C77.2622 324.333 77.1422 323.927 77.1422 323.38V322.24H78.9822V323C78.9822 323.213 79.0289 323.367 79.1222 323.46C79.2155 323.54 79.3822 323.58 79.6222 323.58H81.9622V325H78.7422ZM78.7422 330.46C78.1555 330.46 77.7422 330.327 77.5022 330.06C77.2622 329.793 77.1422 329.387 77.1422 328.84V327.7H78.9822V328.46C78.9822 328.673 79.0289 328.827 79.1222 328.92C79.2155 329 79.3822 329.04 79.6222 329.04H81.9622V330.46H78.7422ZM86.1633 331.5C85.5099 331.5 85.0099 331.32 84.6633 330.96C84.3299 330.587 84.1633 330.067 84.1633 329.4V320.8H86.2033V328.84C86.2033 329.2 86.2766 329.453 86.4233 329.6C86.5699 329.733 86.8233 329.8 87.1833 329.8H87.9033V331.5H86.1633ZM94.5608 331.8C93.6141 331.8 92.7808 331.633 92.0608 331.3C91.3408 330.967 90.7808 330.5 90.3808 329.9C89.9941 329.287 89.8008 328.587 89.8008 327.8V327.12C89.8008 326.667 89.9008 326.247 90.1008 325.86C90.3008 325.46 90.5741 325.027 90.9208 324.56C91.1741 324.213 91.3541 323.933 91.4608 323.72C91.5808 323.507 91.6408 323.307 91.6408 323.12C91.6408 322.867 91.5741 322.687 91.4408 322.58C91.3208 322.473 91.1141 322.42 90.8208 322.42H89.7008V320.8H91.8008C92.3874 320.8 92.8474 320.973 93.1808 321.32C93.5274 321.653 93.7008 322.1 93.7008 322.66C93.7008 323.047 93.6208 323.407 93.4608 323.74C93.3008 324.06 93.0608 324.453 92.7408 324.92C92.4208 325.4 92.1874 325.787 92.0408 326.08C91.9074 326.373 91.8408 326.693 91.8408 327.04V327.78C91.8408 328.54 92.0808 329.133 92.5608 329.56C93.0408 329.987 93.7074 330.2 94.5608 330.2C95.4674 330.2 96.1741 329.953 96.6808 329.46C97.1874 328.967 97.4408 328.24 97.4408 327.28C97.4408 326.32 97.2408 325.6 96.8408 325.12C96.4408 324.64 95.8541 324.4 95.0808 324.4V323.3L97.2208 320.5H99.4208L97.1608 323.48C97.9741 323.787 98.5608 324.26 98.9208 324.9C99.2941 325.527 99.4808 326.32 99.4808 327.28C99.4808 328.2 99.2741 329 98.8608 329.68C98.4608 330.36 97.8874 330.887 97.1408 331.26C96.3941 331.62 95.5341 331.8 94.5608 331.8ZM90.5405 317.88H94.5605V315.7H96.0605V317.88H97.6805V315.7H99.1605V319.22H90.5405V317.88ZM97.3205 311.38H99.1605V314.04H97.3205V311.38ZM105.74 331.8C104.914 331.8 104.114 331.7 103.34 331.5C102.567 331.313 101.914 331.047 101.38 330.7V325.38H105.82V327.02H103.42V329.68C103.994 330.027 104.767 330.2 105.74 330.2C107.02 330.2 107.994 329.847 108.66 329.14C109.34 328.433 109.68 327.407 109.68 326.06C109.68 324.713 109.334 323.72 108.64 323.08C107.96 322.44 106.84 322.12 105.28 322.12C104.574 322.12 103.88 322.193 103.2 322.34C102.52 322.473 101.947 322.693 101.48 323V321.38C102 321.087 102.614 320.867 103.32 320.72C104.027 320.573 104.787 320.5 105.6 320.5C107.6 320.5 109.127 320.987 110.18 321.96C111.234 322.933 111.76 324.3 111.76 326.06C111.76 327.833 111.234 329.233 110.18 330.26C109.14 331.287 107.66 331.8 105.74 331.8ZM119.788 331.8C119.055 331.8 118.355 331.653 117.688 331.36C117.035 331.067 116.448 330.633 115.928 330.06V331.5H113.968V320.8H116.008V328.36C116.795 329.587 117.875 330.2 119.248 330.2C120.115 330.2 120.768 330 121.208 329.6C121.661 329.187 121.888 328.58 121.888 327.78V320.8H123.928V327.86C123.928 329.02 123.561 329.967 122.828 330.7C122.095 331.433 121.081 331.8 119.788 331.8ZM131.267 331.8C129.667 331.8 128.407 331.347 127.487 330.44C126.58 329.533 126.127 328.2 126.127 326.44C126.127 325.227 126.293 324.173 126.627 323.28C126.96 322.387 127.413 321.7 127.987 321.22C128.573 320.74 129.24 320.5 129.987 320.5C131 320.5 131.713 320.907 132.127 321.72C132.353 321.307 132.693 321 133.147 320.8C133.6 320.6 134.107 320.5 134.667 320.5C135.587 320.5 136.273 320.793 136.727 321.38C137.193 321.967 137.427 322.753 137.427 323.74V331.5H135.387V323.88C135.387 323.28 135.293 322.84 135.107 322.56C134.92 322.267 134.6 322.12 134.147 322.12C133.387 322.12 132.913 322.533 132.727 323.36H131.527C131.46 322.947 131.327 322.64 131.127 322.44C130.94 322.227 130.667 322.12 130.307 322.12C129.68 322.12 129.167 322.493 128.767 323.24C128.38 323.987 128.187 325.053 128.187 326.44C128.187 327.72 128.467 328.667 129.027 329.28C129.587 329.893 130.447 330.2 131.607 330.2C132.113 330.2 132.58 330.133 133.007 330V331.58C132.54 331.727 131.96 331.8 131.267 331.8ZM135.443 315.88H137.463V319.22H135.443V315.88ZM143.983 331.8C143.156 331.8 142.356 331.7 141.583 331.5C140.809 331.313 140.156 331.047 139.623 330.7V325.38H144.063V327.02H141.663V329.68C142.236 330.027 143.009 330.2 143.983 330.2C145.263 330.2 146.236 329.847 146.903 329.14C147.583 328.433 147.923 327.407 147.923 326.06C147.923 324.713 147.576 323.72 146.883 323.08C146.203 322.44 145.083 322.12 143.523 322.12C142.816 322.12 142.123 322.193 141.443 322.34C140.763 322.473 140.189 322.693 139.723 323V321.38C140.243 321.087 140.856 320.867 141.563 320.72C142.269 320.573 143.029 320.5 143.843 320.5C145.843 320.5 147.369 320.987 148.423 321.96C149.476 322.933 150.003 324.3 150.003 326.06C150.003 327.833 149.476 329.233 148.423 330.26C147.383 331.287 145.903 331.8 143.983 331.8ZM156.17 331.8C155.343 331.8 154.543 331.7 153.77 331.5C152.997 331.313 152.343 331.047 151.81 330.7V325.38H156.25V327.02H153.85V329.68C154.423 330.027 155.197 330.2 156.17 330.2C157.45 330.2 158.423 329.847 159.09 329.14C159.77 328.433 160.11 327.407 160.11 326.06C160.11 324.713 159.763 323.72 159.07 323.08C158.39 322.44 157.27 322.12 155.71 322.12C155.003 322.12 154.31 322.193 153.63 322.34C152.95 322.473 152.377 322.693 151.91 323V321.38C152.43 321.087 153.043 320.867 153.75 320.72C154.457 320.573 155.217 320.5 156.03 320.5C158.03 320.5 159.557 320.987 160.61 321.96C161.663 322.933 162.19 324.3 162.19 326.06C162.19 327.833 161.663 329.233 160.61 330.26C159.57 331.287 158.09 331.8 156.17 331.8ZM159.938 334.72C159.938 334.48 159.898 334.313 159.818 334.22C159.724 334.14 159.551 334.1 159.298 334.1H158.638V332.64H160.278C160.878 332.64 161.284 332.76 161.498 333C161.698 333.24 161.798 333.667 161.798 334.28V336.76H159.938V334.72ZM169.538 331.8C168.498 331.8 167.591 331.613 166.818 331.24C166.044 330.867 165.444 330.347 165.018 329.68C164.604 329 164.398 328.227 164.398 327.36V320.8H166.438V327.32C166.438 328.213 166.698 328.92 167.218 329.44C167.751 329.947 168.524 330.2 169.538 330.2C170.538 330.2 171.298 329.947 171.818 329.44C172.351 328.92 172.618 328.213 172.618 327.32V317.22H174.658V327.36C174.658 328.227 174.444 329 174.018 329.68C173.604 330.347 173.011 330.867 172.238 331.24C171.464 331.613 170.564 331.8 169.538 331.8ZM177.849 324.84L176.849 323.22C177.556 322.327 178.363 321.653 179.269 321.2C180.176 320.733 181.249 320.5 182.489 320.5C184.089 320.5 185.316 320.867 186.169 321.6C187.023 322.32 187.449 323.333 187.449 324.64V331.5H185.409V324.8C185.409 323.88 185.163 323.207 184.669 322.78C184.189 322.34 183.463 322.12 182.489 322.12C181.756 322.12 181.109 322.233 180.549 322.46C179.989 322.673 179.483 323.02 179.029 323.5L179.889 324.84V331.5H177.849V324.84ZM193.722 331.8C192.989 331.8 192.242 331.713 191.482 331.54C190.722 331.38 190.129 331.14 189.702 330.82V329.18C190.276 329.527 190.902 329.793 191.582 329.98C192.276 330.153 192.936 330.24 193.562 330.24C194.442 330.24 195.076 330.14 195.462 329.94C195.849 329.727 196.042 329.367 196.042 328.86C196.042 328.513 195.949 328.233 195.762 328.02C195.576 327.807 195.289 327.62 194.902 327.46C194.529 327.3 193.936 327.1 193.122 326.86C191.949 326.5 191.076 326.08 190.502 325.6C189.929 325.107 189.642 324.427 189.642 323.56C189.642 322.573 190.022 321.82 190.782 321.3C191.542 320.767 192.582 320.5 193.902 320.5C194.582 320.5 195.236 320.58 195.862 320.74C196.502 320.887 197.029 321.087 197.442 321.34V323.02C196.989 322.74 196.469 322.52 195.882 322.36C195.296 322.2 194.696 322.12 194.082 322.12C192.482 322.12 191.682 322.6 191.682 323.56C191.682 323.92 191.789 324.207 192.002 324.42C192.229 324.633 192.522 324.813 192.882 324.96C193.256 325.093 193.876 325.287 194.742 325.54C195.596 325.793 196.262 326.067 196.742 326.36C197.222 326.653 197.562 327 197.762 327.4C197.962 327.8 198.062 328.293 198.062 328.88C198.062 329.76 197.702 330.467 196.982 331C196.262 331.533 195.176 331.8 193.722 331.8ZM211.957 331.8C210.717 331.8 209.75 331.44 209.057 330.72C208.364 329.987 208.017 329.033 208.017 327.86V324.8C208.017 323.88 207.79 323.207 207.337 322.78C206.897 322.34 206.217 322.12 205.297 322.12C204.604 322.12 203.997 322.227 203.477 322.44C202.97 322.653 202.49 323.007 202.037 323.5L202.897 324.84V328.24C202.897 328.853 202.957 329.267 203.077 329.48C203.197 329.693 203.47 329.8 203.897 329.8H205.017V331.5H202.897C202.23 331.5 201.724 331.313 201.377 330.94C201.03 330.567 200.857 330.053 200.857 329.4V324.84L199.857 323.22C200.564 322.327 201.35 321.653 202.217 321.2C203.084 320.733 204.11 320.5 205.297 320.5C206.844 320.5 208.017 320.867 208.817 321.6C209.63 322.32 210.037 323.333 210.037 324.64V327.78C210.037 329.393 210.857 330.2 212.497 330.2C213.137 330.2 213.717 330.047 214.237 329.74C214.757 329.433 215.19 328.973 215.537 328.36V320.8H217.577V331.5H215.617V330.1C214.724 331.233 213.504 331.8 211.957 331.8ZM212.799 318.08C212.799 317.04 213.366 316.52 214.499 316.52H218.919V317.86H215.299C215.059 317.86 214.892 317.907 214.799 318C214.706 318.093 214.659 318.26 214.659 318.5V319.22H212.799V318.08ZM222.179 331.5C221.526 331.5 221.026 331.32 220.679 330.96C220.346 330.587 220.179 330.067 220.179 329.4V320.8H222.219V328.84C222.219 329.2 222.292 329.453 222.439 329.6C222.586 329.733 222.839 329.8 223.199 329.8H223.919V331.5H222.179ZM229.796 331.8C229.063 331.8 228.316 331.713 227.556 331.54C226.796 331.38 226.203 331.14 225.776 330.82V329.18C226.35 329.527 226.976 329.793 227.656 329.98C228.35 330.153 229.01 330.24 229.636 330.24C230.516 330.24 231.15 330.14 231.536 329.94C231.923 329.727 232.116 329.367 232.116 328.86C232.116 328.513 232.023 328.233 231.836 328.02C231.65 327.807 231.363 327.62 230.976 327.46C230.603 327.3 230.01 327.1 229.196 326.86C228.023 326.5 227.15 326.08 226.576 325.6C226.003 325.107 225.716 324.427 225.716 323.56C225.716 322.573 226.096 321.82 226.856 321.3C227.616 320.767 228.656 320.5 229.976 320.5C230.656 320.5 231.31 320.58 231.936 320.74C232.576 320.887 233.103 321.087 233.516 321.34V323.02C233.063 322.74 232.543 322.52 231.956 322.36C231.37 322.2 230.77 322.12 230.156 322.12C228.556 322.12 227.756 322.6 227.756 323.56C227.756 323.92 227.863 324.207 228.076 324.42C228.303 324.633 228.596 324.813 228.956 324.96C229.33 325.093 229.95 325.287 230.816 325.54C231.67 325.793 232.336 326.067 232.816 326.36C233.296 326.653 233.636 327 233.836 327.4C234.036 327.8 234.136 328.293 234.136 328.88C234.136 329.76 233.776 330.467 233.056 331C232.336 331.533 231.25 331.8 229.796 331.8ZM225.071 317.84H231.851V315.7H233.711V319.22H225.071V317.84ZM241.011 331.8C239.465 331.8 238.231 331.507 237.311 330.92C236.391 330.333 235.931 329.48 235.931 328.36C235.931 327.773 236.091 327.26 236.411 326.82C236.745 326.367 237.185 326.053 237.731 325.88C237.211 325.653 236.791 325.327 236.471 324.9C236.165 324.473 236.011 323.98 236.011 323.42C236.011 322.54 236.305 321.833 236.891 321.3C237.478 320.767 238.338 320.5 239.471 320.5C239.791 320.5 240.118 320.527 240.451 320.58C240.785 320.62 241.051 320.667 241.251 320.72V322.32C241.078 322.253 240.851 322.207 240.571 322.18C240.305 322.14 240.058 322.12 239.831 322.12C239.258 322.12 238.818 322.247 238.511 322.5C238.218 322.74 238.071 323.087 238.071 323.54C238.071 324.02 238.231 324.387 238.551 324.64C238.871 324.893 239.345 325.02 239.971 325.02H241.251V326.7H239.991C239.351 326.7 238.858 326.84 238.511 327.12C238.165 327.387 237.991 327.8 237.991 328.36C237.991 328.947 238.258 329.4 238.791 329.72C239.338 330.04 240.078 330.2 241.011 330.2C243.211 330.2 244.311 329.267 244.311 327.4V320.8H246.351V327.36C246.351 328.107 246.178 328.82 245.831 329.5C245.485 330.167 244.911 330.72 244.111 331.16C243.325 331.587 242.291 331.8 241.011 331.8ZM254.088 331.8C253.048 331.8 252.142 331.613 251.368 331.24C250.595 330.867 249.995 330.347 249.568 329.68C249.155 329 248.948 328.227 248.948 327.36V320.8H250.988V327.32C250.988 328.213 251.248 328.92 251.768 329.44C252.302 329.947 253.075 330.2 254.088 330.2C255.088 330.2 255.848 329.947 256.368 329.44C256.902 328.92 257.168 328.213 257.168 327.32V320.8H259.208V327.36C259.208 328.227 258.995 329 258.568 329.68C258.155 330.347 257.562 330.867 256.788 331.24C256.015 331.613 255.115 331.8 254.088 331.8ZM265.48 331.8C264.747 331.8 264 331.713 263.24 331.54C262.48 331.38 261.887 331.14 261.46 330.82V329.18C262.033 329.527 262.66 329.793 263.34 329.98C264.033 330.153 264.693 330.24 265.32 330.24C266.2 330.24 266.833 330.14 267.22 329.94C267.607 329.727 267.8 329.367 267.8 328.86C267.8 328.513 267.707 328.233 267.52 328.02C267.333 327.807 267.047 327.62 266.66 327.46C266.287 327.3 265.693 327.1 264.88 326.86C263.707 326.5 262.833 326.08 262.26 325.6C261.687 325.107 261.4 324.427 261.4 323.56C261.4 322.573 261.78 321.82 262.54 321.3C263.3 320.767 264.34 320.5 265.66 320.5C266.34 320.5 266.993 320.58 267.62 320.74C268.26 320.887 268.787 321.087 269.2 321.34V323.02C268.747 322.74 268.227 322.52 267.64 322.36C267.053 322.2 266.453 322.12 265.84 322.12C264.24 322.12 263.44 322.6 263.44 323.56C263.44 323.92 263.547 324.207 263.76 324.42C263.987 324.633 264.28 324.813 264.64 324.96C265.013 325.093 265.633 325.287 266.5 325.54C267.353 325.793 268.02 326.067 268.5 326.36C268.98 326.653 269.32 327 269.52 327.4C269.72 327.8 269.82 328.293 269.82 328.88C269.82 329.76 269.46 330.467 268.74 331C268.02 331.533 266.933 331.8 265.48 331.8ZM265.115 317.96C265.115 317.8 265.088 317.687 265.035 317.62C264.968 317.553 264.855 317.52 264.695 317.52H263.795V316.08H265.295C265.722 316.08 266.035 316.187 266.235 316.4C266.422 316.6 266.515 316.853 266.515 317.16V317.86H270.615V319.22H265.115V317.96ZM275.975 331.8C275.148 331.8 274.348 331.7 273.575 331.5C272.802 331.313 272.148 331.047 271.615 330.7V325.38H276.055V327.02H273.655V329.68C274.228 330.027 275.002 330.2 275.975 330.2C277.255 330.2 278.228 329.847 278.895 329.14C279.575 328.433 279.915 327.407 279.915 326.06C279.915 324.713 279.568 323.72 278.875 323.08C278.195 322.44 277.075 322.12 275.515 322.12C274.808 322.12 274.115 322.193 273.435 322.34C272.755 322.473 272.182 322.693 271.715 323V321.38C272.235 321.087 272.848 320.867 273.555 320.72C274.262 320.573 275.022 320.5 275.835 320.5C277.835 320.5 279.362 320.987 280.415 321.96C281.468 322.933 281.995 324.3 281.995 326.06C281.995 327.833 281.468 329.233 280.415 330.26C279.375 331.287 277.895 331.8 275.975 331.8ZM288.882 331.8C287.336 331.8 286.102 331.507 285.182 330.92C284.262 330.333 283.802 329.48 283.802 328.36C283.802 327.773 283.962 327.26 284.282 326.82C284.616 326.367 285.056 326.053 285.602 325.88C285.082 325.653 284.662 325.327 284.342 324.9C284.036 324.473 283.882 323.98 283.882 323.42C283.882 322.54 284.176 321.833 284.762 321.3C285.349 320.767 286.209 320.5 287.342 320.5C287.662 320.5 287.989 320.527 288.322 320.58C288.656 320.62 288.922 320.667 289.122 320.72V322.32C288.949 322.253 288.722 322.207 288.442 322.18C288.176 322.14 287.929 322.12 287.702 322.12C287.129 322.12 286.689 322.247 286.382 322.5C286.089 322.74 285.942 323.087 285.942 323.54C285.942 324.02 286.102 324.387 286.422 324.64C286.742 324.893 287.216 325.02 287.842 325.02H289.122V326.7H287.862C287.222 326.7 286.729 326.84 286.382 327.12C286.036 327.387 285.862 327.8 285.862 328.36C285.862 328.947 286.129 329.4 286.662 329.72C287.209 330.04 287.949 330.2 288.882 330.2C291.082 330.2 292.182 329.267 292.182 327.4V320.8H294.222V327.36C294.222 328.107 294.049 328.82 293.702 329.5C293.356 330.167 292.782 330.72 291.982 331.16C291.196 331.587 290.162 331.8 288.882 331.8ZM298.82 331.5C298.166 331.5 297.666 331.32 297.32 330.96C296.986 330.587 296.82 330.067 296.82 329.4V320.8H298.86V328.84C298.86 329.2 298.933 329.453 299.08 329.6C299.226 329.733 299.48 329.8 299.84 329.8H300.56V331.5H298.82ZM303.96 331.5C303.32 331.5 302.826 331.313 302.48 330.94C302.133 330.567 301.96 330.053 301.96 329.4V320.8H304V328.84C304 329.2 304.073 329.453 304.22 329.6C304.38 329.733 304.64 329.8 305 329.8H305.72V331.5H303.96ZM311.393 331.8C310.207 331.8 309.26 331.507 308.553 330.92C307.86 330.32 307.513 329.473 307.513 328.38C307.513 327.3 307.9 326.44 308.673 325.8C309.46 325.16 310.52 324.84 311.853 324.84C313.173 324.84 314.36 325.087 315.413 325.58V324.76C315.413 323.84 315.16 323.173 314.653 322.76C314.16 322.333 313.333 322.12 312.173 322.12C311.533 322.12 310.907 322.18 310.293 322.3C309.68 322.42 309.147 322.587 308.693 322.8V321.2C309.107 321 309.667 320.833 310.373 320.7C311.093 320.567 311.793 320.5 312.473 320.5C314.14 320.5 315.387 320.88 316.213 321.64C317.04 322.4 317.453 323.427 317.453 324.72V331.5H315.413V327.2C314.44 326.707 313.327 326.46 312.073 326.46C311.207 326.46 310.567 326.62 310.153 326.94C309.753 327.26 309.553 327.74 309.553 328.38C309.553 329.593 310.333 330.2 311.893 330.2C312.373 330.2 312.793 330.133 313.153 330V331.58C312.673 331.727 312.087 331.8 311.393 331.8ZM313.162 317.96C313.162 317.8 313.135 317.687 313.082 317.62C313.015 317.553 312.902 317.52 312.742 317.52H311.842V316.08H313.342C313.768 316.08 314.082 316.187 314.282 316.4C314.468 316.6 314.562 316.853 314.562 317.16V317.86H318.662V319.22H313.162V317.96ZM323.562 331.8C321.882 331.8 320.582 331.5 319.662 330.9V329.26C320.555 329.887 321.722 330.2 323.162 330.2C324.468 330.2 325.482 329.86 326.202 329.18C326.935 328.5 327.302 327.493 327.302 326.16C327.302 324.827 326.935 323.82 326.202 323.14C325.482 322.46 324.468 322.12 323.162 322.12C321.762 322.12 320.608 322.433 319.702 323.06V321.4C320.635 320.8 321.922 320.5 323.562 320.5C325.362 320.5 326.782 321 327.822 322C328.862 322.987 329.382 324.373 329.382 326.16C329.382 327.947 328.862 329.333 327.822 330.32C326.782 331.307 325.362 331.8 323.562 331.8Z" fill="#4E5256"/>
<path d="M86.98 379.8C86.2467 379.8 85.5 379.713 84.74 379.54C83.98 379.38 83.3867 379.14 82.96 378.82V377.18C83.5333 377.527 84.16 377.793 84.84 377.98C85.5333 378.153 86.1933 378.24 86.82 378.24C87.7 378.24 88.3333 378.14 88.72 377.94C89.1067 377.727 89.3 377.367 89.3 376.86C89.3 376.513 89.2067 376.233 89.02 376.02C88.8333 375.807 88.5467 375.62 88.16 375.46C87.7867 375.3 87.1933 375.1 86.38 374.86C85.2067 374.5 84.3333 374.08 83.76 373.6C83.1867 373.107 82.9 372.427 82.9 371.56C82.9 370.573 83.28 369.82 84.04 369.3C84.8 368.767 85.84 368.5 87.16 368.5C87.84 368.5 88.4933 368.58 89.12 368.74C89.76 368.887 90.2867 369.087 90.7 369.34V371.02C90.2467 370.74 89.7267 370.52 89.14 370.36C88.5533 370.2 87.9533 370.12 87.34 370.12C85.74 370.12 84.94 370.6 84.94 371.56C84.94 371.92 85.0467 372.207 85.26 372.42C85.4867 372.633 85.78 372.813 86.14 372.96C86.5133 373.093 87.1333 373.287 88 373.54C88.8533 373.793 89.52 374.067 90 374.36C90.48 374.653 90.82 375 91.02 375.4C91.22 375.8 91.32 376.293 91.32 376.88C91.32 377.76 90.96 378.467 90.24 379C89.52 379.533 88.4333 379.8 86.98 379.8ZM97.4748 379.8C96.6482 379.8 95.8482 379.7 95.0748 379.5C94.3015 379.313 93.6482 379.047 93.1148 378.7V373.38H97.5548V375.02H95.1548V377.68C95.7282 378.027 96.5015 378.2 97.4748 378.2C98.7548 378.2 99.7282 377.847 100.395 377.14C101.075 376.433 101.415 375.407 101.415 374.06C101.415 372.713 101.068 371.72 100.375 371.08C99.6948 370.44 98.5748 370.12 97.0148 370.12C96.3082 370.12 95.6148 370.193 94.9348 370.34C94.2548 370.473 93.6815 370.693 93.2148 371V369.38C93.7348 369.087 94.3482 368.867 95.0548 368.72C95.7615 368.573 96.5215 368.5 97.3348 368.5C99.3348 368.5 100.862 368.987 101.915 369.96C102.968 370.933 103.495 372.3 103.495 374.06C103.495 375.833 102.968 377.233 101.915 378.26C100.875 379.287 99.3948 379.8 97.4748 379.8ZM109.182 379.8C107.996 379.8 107.049 379.507 106.342 378.92C105.649 378.32 105.302 377.473 105.302 376.38C105.302 375.3 105.689 374.44 106.462 373.8C107.249 373.16 108.309 372.84 109.642 372.84C110.962 372.84 112.149 373.087 113.202 373.58V372.76C113.202 371.84 112.949 371.173 112.442 370.76C111.949 370.333 111.122 370.12 109.962 370.12C109.322 370.12 108.696 370.18 108.082 370.3C107.469 370.42 106.936 370.587 106.482 370.8V369.2C106.896 369 107.456 368.833 108.162 368.7C108.882 368.567 109.582 368.5 110.262 368.5C111.462 368.5 112.462 368.72 113.262 369.16L114.282 368H116.542L114.522 370.26C115.002 370.94 115.242 371.76 115.242 372.72V379.5H113.202V375.2C112.229 374.707 111.116 374.46 109.862 374.46C108.996 374.46 108.356 374.62 107.942 374.94C107.542 375.26 107.342 375.74 107.342 376.38C107.342 377.593 108.122 378.2 109.682 378.2C110.162 378.2 110.582 378.133 110.942 378V379.58C110.462 379.727 109.876 379.8 109.182 379.8ZM111.784 367.22C111.21 367.22 110.797 367.08 110.544 366.8C110.277 366.507 110.144 366.073 110.144 365.5V364.46H111.984V365.26C111.984 365.487 112.03 365.64 112.124 365.72C112.204 365.8 112.364 365.84 112.604 365.84H117.324V367.22H111.784ZM118.744 372.84L117.744 371.22C118.45 370.327 119.257 369.653 120.164 369.2C121.07 368.733 122.144 368.5 123.384 368.5C124.984 368.5 126.21 368.867 127.064 369.6C127.917 370.32 128.344 371.333 128.344 372.64V379.5H126.304V372.8C126.304 371.88 126.057 371.207 125.564 370.78C125.084 370.34 124.357 370.12 123.384 370.12C122.65 370.12 122.004 370.233 121.444 370.46C120.884 370.673 120.377 371.02 119.924 371.5L120.784 372.84V379.5H118.744V372.84ZM130.937 372.88C130.937 371.493 131.39 370.42 132.297 369.66C133.203 368.887 134.45 368.5 136.037 368.5C137.61 368.5 138.85 368.88 139.757 369.64C140.663 370.4 141.117 371.48 141.117 372.88V379.5H139.077V372.82C139.077 371.913 138.81 371.24 138.277 370.8C137.743 370.347 136.997 370.12 136.037 370.12C135.063 370.12 134.31 370.347 133.777 370.8C133.243 371.24 132.977 371.913 132.977 372.82V374.86C133.15 374.54 133.423 374.287 133.797 374.1C134.17 373.9 134.61 373.8 135.117 373.8H136.717V375.48H134.957C134.397 375.48 133.923 375.68 133.537 376.08C133.163 376.467 132.977 376.913 132.977 377.42V379.5H130.937V372.88ZM147.39 379.8C146.657 379.8 145.91 379.713 145.15 379.54C144.39 379.38 143.797 379.14 143.37 378.82V377.18C143.943 377.527 144.57 377.793 145.25 377.98C145.943 378.153 146.603 378.24 147.23 378.24C148.11 378.24 148.743 378.14 149.13 377.94C149.517 377.727 149.71 377.367 149.71 376.86C149.71 376.513 149.617 376.233 149.43 376.02C149.243 375.807 148.957 375.62 148.57 375.46C148.197 375.3 147.603 375.1 146.79 374.86C145.617 374.5 144.743 374.08 144.17 373.6C143.597 373.107 143.31 372.427 143.31 371.56C143.31 370.573 143.69 369.82 144.45 369.3C145.21 368.767 146.25 368.5 147.57 368.5C148.25 368.5 148.903 368.58 149.53 368.74C150.17 368.887 150.697 369.087 151.11 369.34V371.02C150.657 370.74 150.137 370.52 149.55 370.36C148.963 370.2 148.363 370.12 147.75 370.12C146.15 370.12 145.35 370.6 145.35 371.56C145.35 371.92 145.457 372.207 145.67 372.42C145.897 372.633 146.19 372.813 146.55 372.96C146.923 373.093 147.543 373.287 148.41 373.54C149.263 373.793 149.93 374.067 150.41 374.36C150.89 374.653 151.23 375 151.43 375.4C151.63 375.8 151.73 376.293 151.73 376.88C151.73 377.76 151.37 378.467 150.65 379C149.93 379.533 148.843 379.8 147.39 379.8ZM148.845 384.92C148.018 384.92 147.378 384.747 146.925 384.4C146.458 384.053 146.225 383.587 146.225 383V382.46C146.225 382.273 146.198 382.147 146.145 382.08C146.092 382.027 145.978 382 145.805 382H145.125V380.64H146.885C147.245 380.64 147.492 380.72 147.625 380.88C147.758 381.04 147.825 381.3 147.825 381.66V382.8C147.825 383.387 148.145 383.68 148.785 383.68C149.412 383.68 149.725 383.387 149.725 382.8V380.64H151.325V382.94C151.325 383.527 151.112 384 150.685 384.36C150.245 384.733 149.632 384.92 148.845 384.92ZM149.345 363.88H151.365V367.22H149.345V363.88ZM154.525 372.84L153.525 371.22C154.232 370.327 155.038 369.653 155.945 369.2C156.852 368.733 157.925 368.5 159.165 368.5C160.765 368.5 161.992 368.867 162.845 369.6C163.698 370.32 164.125 371.333 164.125 372.64V379.5H162.085V372.8C162.085 371.88 161.838 371.207 161.345 370.78C160.865 370.34 160.138 370.12 159.165 370.12C158.432 370.12 157.785 370.233 157.225 370.46C156.665 370.673 156.158 371.02 155.705 371.5L156.565 372.84V379.5H154.525V372.84ZM162.838 367.4C162.238 367.4 161.725 367.187 161.298 366.76C160.858 366.333 160.638 365.82 160.638 365.22C160.638 364.607 160.858 364.087 161.298 363.66C161.725 363.22 162.238 363 162.838 363C163.438 363 163.958 363.22 164.398 363.66C164.825 364.087 165.038 364.607 165.038 365.22C165.038 365.82 164.825 366.333 164.398 366.76C163.958 367.187 163.438 367.4 162.838 367.4ZM162.838 366.16C163.078 366.16 163.291 366.067 163.478 365.88C163.651 365.68 163.738 365.46 163.738 365.22C163.738 364.98 163.651 364.767 163.478 364.58C163.291 364.393 163.078 364.3 162.838 364.3C162.598 364.3 162.391 364.393 162.218 364.58C162.031 364.767 161.938 364.98 161.938 365.22C161.938 365.46 162.031 365.68 162.218 365.88C162.391 366.067 162.598 366.16 162.838 366.16ZM170.478 372.58C170.478 371.727 170.305 371.107 169.958 370.72C169.611 370.32 168.998 370.12 168.118 370.12C167.265 370.12 166.465 370.307 165.718 370.68V369.08C166.038 368.92 166.451 368.787 166.958 368.68C167.478 368.56 167.991 368.5 168.498 368.5C169.845 368.5 170.851 368.867 171.518 369.6C172.185 370.32 172.518 371.36 172.518 372.72V379.5H170.478V372.58ZM178.596 379.8C177.41 379.8 176.463 379.507 175.756 378.92C175.063 378.32 174.716 377.473 174.716 376.38C174.716 375.3 175.103 374.44 175.876 373.8C176.663 373.16 177.723 372.84 179.056 372.84C180.376 372.84 181.563 373.087 182.616 373.58V372.76C182.616 371.84 182.363 371.173 181.856 370.76C181.363 370.333 180.536 370.12 179.376 370.12C178.736 370.12 178.11 370.18 177.496 370.3C176.883 370.42 176.35 370.587 175.896 370.8V369.2C176.31 369 176.87 368.833 177.576 368.7C178.296 368.567 178.996 368.5 179.676 368.5C181.343 368.5 182.59 368.88 183.416 369.64C184.243 370.4 184.656 371.427 184.656 372.72V379.5H182.616V375.2C181.643 374.707 180.53 374.46 179.276 374.46C178.41 374.46 177.77 374.62 177.356 374.94C176.956 375.26 176.756 375.74 176.756 376.38C176.756 377.593 177.536 378.2 179.096 378.2C179.576 378.2 179.996 378.133 180.356 378V379.58C179.876 379.727 179.29 379.8 178.596 379.8ZM180.905 367.22C180.332 367.22 179.918 367.08 179.665 366.8C179.398 366.507 179.265 366.073 179.265 365.5V364.46H181.105V365.26C181.105 365.487 181.152 365.64 181.245 365.72C181.325 365.8 181.485 365.84 181.725 365.84H186.445V367.22H180.905ZM186.865 370.14H188.905L191.445 377.9C192.698 377.9 193.665 377.553 194.345 376.86C195.025 376.167 195.365 375.187 195.365 373.92C195.365 372.667 195.132 371.72 194.665 371.08C194.198 370.44 193.452 370.12 192.425 370.12C191.945 370.12 191.478 370.18 191.025 370.3V368.72C191.558 368.573 192.138 368.5 192.765 368.5C194.285 368.5 195.445 368.98 196.245 369.94C197.045 370.9 197.445 372.227 197.445 373.92C197.445 375.08 197.192 376.08 196.685 376.92C196.192 377.76 195.518 378.4 194.665 378.84C193.812 379.28 192.865 379.5 191.825 379.5H189.905L186.865 370.14ZM201.648 379.5C200.994 379.5 200.494 379.32 200.148 378.96C199.814 378.587 199.648 378.067 199.648 377.4V368.8H201.688V376.84C201.688 377.2 201.761 377.453 201.908 377.6C202.054 377.733 202.308 377.8 202.668 377.8H203.388V379.5H201.648ZM209.985 379.8C209.025 379.8 208.192 379.633 207.485 379.3C206.778 378.967 206.232 378.5 205.845 377.9C205.472 377.287 205.285 376.587 205.285 375.8V375.12C205.285 374.667 205.378 374.253 205.565 373.88C205.752 373.507 206.025 373.073 206.385 372.58C206.638 372.247 206.825 371.973 206.945 371.76C207.065 371.533 207.125 371.32 207.125 371.12C207.125 370.867 207.058 370.687 206.925 370.58C206.805 370.473 206.598 370.42 206.305 370.42H205.185V368.8H207.285C207.872 368.8 208.332 368.973 208.665 369.32C209.012 369.653 209.185 370.1 209.185 370.66C209.185 371.047 209.105 371.407 208.945 371.74C208.785 372.06 208.545 372.453 208.225 372.92C207.905 373.4 207.672 373.787 207.525 374.08C207.392 374.373 207.325 374.693 207.325 375.04V375.78C207.325 376.553 207.545 377.153 207.985 377.58C208.438 377.993 209.105 378.2 209.985 378.2C210.865 378.2 211.518 377.987 211.945 377.56C212.372 377.12 212.585 376.507 212.585 375.72V368.8H214.625V375.38C214.625 376.753 214.218 377.833 213.405 378.62C212.592 379.407 211.452 379.8 209.985 379.8ZM210.326 365.96C210.326 365.8 210.299 365.687 210.246 365.62C210.179 365.553 210.066 365.52 209.906 365.52H209.006V364.08H210.506C210.932 364.08 211.246 364.187 211.446 364.4C211.632 364.6 211.726 364.853 211.726 365.16V365.86H215.826V367.22H210.326V365.96ZM220.986 372.58C220.986 371.727 220.812 371.107 220.466 370.72C220.119 370.32 219.506 370.12 218.626 370.12C217.772 370.12 216.972 370.307 216.226 370.68V369.08C216.546 368.92 216.959 368.787 217.466 368.68C217.986 368.56 218.499 368.5 219.006 368.5C220.352 368.5 221.359 368.867 222.026 369.6C222.692 370.32 223.026 371.36 223.026 372.72V379.5H220.986V372.58ZM225.624 368.8H227.664V373.52L232.844 368.8H235.224L232.304 371.46C233.398 371.74 234.158 372.187 234.584 372.8C235.024 373.413 235.244 374.233 235.244 375.26V379.5H233.204V375.38C233.204 374.58 233.038 373.973 232.704 373.56C232.384 373.147 231.824 372.853 231.024 372.68L227.664 375.74V379.5H225.624V368.8ZM241.991 379.8C240.684 379.8 239.664 379.433 238.931 378.7C238.211 377.967 237.851 377.02 237.851 375.86V368.8H239.891V375.78C239.891 376.58 240.111 377.187 240.551 377.6C241.004 378 241.664 378.2 242.531 378.2C243.904 378.2 244.984 377.587 245.771 376.36V368.8H247.811V379.5H245.831V378.06C244.831 379.22 243.551 379.8 241.991 379.8ZM243.509 365.96C243.509 365.8 243.483 365.687 243.429 365.62C243.363 365.553 243.249 365.52 243.089 365.52H242.189V364.08H243.689C244.116 364.08 244.429 364.187 244.629 364.4C244.816 364.6 244.909 364.853 244.909 365.16V365.86H249.009V367.22H243.509V365.96ZM254.169 372.58C254.169 371.727 253.996 371.107 253.649 370.72C253.303 370.32 252.689 370.12 251.809 370.12C250.956 370.12 250.156 370.307 249.409 370.68V369.08C249.729 368.92 250.143 368.787 250.649 368.68C251.169 368.56 251.683 368.5 252.189 368.5C253.536 368.5 254.543 368.867 255.209 369.6C255.876 370.32 256.209 371.36 256.209 372.72V379.5H254.169V372.58ZM260.808 379.5C260.154 379.5 259.654 379.32 259.308 378.96C258.974 378.587 258.808 378.067 258.808 377.4V368.8H260.848V376.84C260.848 377.2 260.921 377.453 261.068 377.6C261.214 377.733 261.468 377.8 261.828 377.8H262.548V379.5H260.808ZM268.425 379.8C267.692 379.8 266.945 379.713 266.185 379.54C265.425 379.38 264.832 379.14 264.405 378.82V377.18C264.979 377.527 265.605 377.793 266.285 377.98C266.979 378.153 267.639 378.24 268.265 378.24C269.145 378.24 269.779 378.14 270.165 377.94C270.552 377.727 270.745 377.367 270.745 376.86C270.745 376.513 270.652 376.233 270.465 376.02C270.279 375.807 269.992 375.62 269.605 375.46C269.232 375.3 268.639 375.1 267.825 374.86C266.652 374.5 265.779 374.08 265.205 373.6C264.632 373.107 264.345 372.427 264.345 371.56C264.345 370.573 264.725 369.82 265.485 369.3C266.245 368.767 267.285 368.5 268.605 368.5C269.285 368.5 269.939 368.58 270.565 368.74C271.205 368.887 271.732 369.087 272.145 369.34V371.02C271.692 370.74 271.172 370.52 270.585 370.36C269.999 370.2 269.399 370.12 268.785 370.12C267.185 370.12 266.385 370.6 266.385 371.56C266.385 371.92 266.492 372.207 266.705 372.42C266.932 372.633 267.225 372.813 267.585 372.96C267.959 373.093 268.579 373.287 269.445 373.54C270.299 373.793 270.965 374.067 271.445 374.36C271.925 374.653 272.265 375 272.465 375.4C272.665 375.8 272.765 376.293 272.765 376.88C272.765 377.76 272.405 378.467 271.685 379C270.965 379.533 269.879 379.8 268.425 379.8ZM263.7 365.84H272.34V367.22H263.7V365.84ZM270.5 361.38H272.34V364.04H270.5V361.38ZM280.78 379.8C280.047 379.8 279.347 379.653 278.68 379.36C278.027 379.067 277.44 378.633 276.92 378.06V379.5H274.96V368.8H277V376.36C277.787 377.587 278.867 378.2 280.24 378.2C281.107 378.2 281.76 378 282.2 377.6C282.653 377.187 282.88 376.58 282.88 375.78V368.8H284.92V375.86C284.92 377.02 284.553 377.967 283.82 378.7C283.087 379.433 282.073 379.8 280.78 379.8ZM292.259 379.8C290.659 379.8 289.399 379.347 288.479 378.44C287.572 377.533 287.119 376.2 287.119 374.44C287.119 373.227 287.285 372.173 287.619 371.28C287.952 370.387 288.405 369.7 288.979 369.22C289.565 368.74 290.232 368.5 290.979 368.5C291.992 368.5 292.705 368.907 293.119 369.72C293.345 369.307 293.685 369 294.139 368.8C294.592 368.6 295.099 368.5 295.659 368.5C296.579 368.5 297.265 368.793 297.719 369.38C298.185 369.967 298.419 370.753 298.419 371.74V379.5H296.379V371.88C296.379 371.28 296.285 370.84 296.099 370.56C295.912 370.267 295.592 370.12 295.139 370.12C294.379 370.12 293.905 370.533 293.719 371.36H292.519C292.452 370.947 292.319 370.64 292.119 370.44C291.932 370.227 291.659 370.12 291.299 370.12C290.672 370.12 290.159 370.493 289.759 371.24C289.372 371.987 289.179 373.053 289.179 374.44C289.179 375.72 289.459 376.667 290.019 377.28C290.579 377.893 291.439 378.2 292.599 378.2C293.105 378.2 293.572 378.133 293.999 378V379.58C293.532 379.727 292.952 379.8 292.259 379.8ZM294.115 365.96C294.115 365.8 294.088 365.687 294.035 365.62C293.968 365.553 293.855 365.52 293.695 365.52H292.795V364.08H294.295C294.722 364.08 295.035 364.187 295.235 364.4C295.422 364.6 295.515 364.853 295.515 365.16V365.86H299.615V367.22H294.115V365.96ZM305.155 379.8C303.848 379.8 302.828 379.433 302.095 378.7C301.375 377.967 301.015 377.02 301.015 375.86V368.8H303.055V375.78C303.055 376.58 303.275 377.187 303.715 377.6C304.168 378 304.828 378.2 305.695 378.2C307.068 378.2 308.148 377.587 308.935 376.36V368.8H310.975V379.5H308.995V378.06C307.995 379.22 306.715 379.8 305.155 379.8ZM313.393 365.52H315.353V375.5H313.393V365.52ZM314.353 379.8C314.02 379.8 313.74 379.687 313.513 379.46C313.287 379.233 313.173 378.953 313.173 378.62C313.173 378.287 313.287 378.007 313.513 377.78C313.74 377.553 314.02 377.44 314.353 377.44C314.687 377.44 314.967 377.553 315.193 377.78C315.433 378.007 315.553 378.287 315.553 378.62C315.553 378.953 315.433 379.233 315.193 379.46C314.967 379.687 314.687 379.8 314.353 379.8ZM317.573 365.52H319.533V375.5H317.573V365.52ZM318.533 379.8C318.2 379.8 317.92 379.687 317.693 379.46C317.466 379.233 317.353 378.953 317.353 378.62C317.353 378.287 317.466 378.007 317.693 377.78C317.92 377.553 318.2 377.44 318.533 377.44C318.866 377.44 319.146 377.553 319.373 377.78C319.613 378.007 319.733 378.287 319.733 378.62C319.733 378.953 319.613 379.233 319.373 379.46C319.146 379.687 318.866 379.8 318.533 379.8Z" fill="#4E5256"/>
<path fill-rule="evenodd" clip-rule="evenodd" d="M170 231.412V238H209.333V231.412H170ZM170 205.059V211.647H193.764C193.054 210.659 192.453 209.616 191.961 208.518C191.469 207.42 191.032 206.267 190.65 205.059H170ZM170 218.235V224.824H209.333V221.282C207.749 221.063 206.247 220.692 204.826 220.171C203.406 219.649 202.068 219.004 200.811 218.235H170Z" fill="#BABABA"/>
<path fill-rule="evenodd" clip-rule="evenodd" d="M212.611 214.941C208.077 214.941 204.212 213.335 201.016 210.124C197.82 206.912 196.222 203.027 196.222 198.471C196.222 193.914 197.82 190.029 201.016 186.818C204.212 183.606 208.077 182 212.611 182C217.145 182 221.01 183.606 224.206 186.818C227.402 190.029 229 193.914 229 198.471C229 203.027 227.402 206.912 224.206 210.124C221.01 213.335 217.145 214.941 212.611 214.941ZM221.871 194.188L210.317 205.882L203.351 198.882L205.646 196.494L210.317 201.188L219.576 191.882L221.871 194.188Z" fill="#BABABA"/>
<path fill-rule="evenodd" clip-rule="evenodd" d="M212.611 214.941C208.077 214.941 204.212 213.335 201.016 210.124C197.82 206.912 196.222 203.027 196.222 198.471C196.222 193.914 197.82 190.029 201.016 186.818C204.212 183.606 208.077 182 212.611 182C217.145 182 221.01 183.606 224.206 186.818C227.402 190.029 229 193.914 229 198.471C229 203.027 227.402 206.912 224.206 210.124C221.01 213.335 217.145 214.941 212.611 214.941ZM221.871 194.188L210.317 205.882L203.351 198.882L205.646 196.494L210.317 201.188L219.576 191.882L221.871 194.188Z" fill="#3CB364"/>
<defs>
<clipPath id="clip0_55_1022">
<rect width="375" height="47" fill="white" transform="translate(7)"/>
</clipPath>
</defs>
</svg>
