<svg width="390" height="849" viewBox="0 0 390 849" fill="none" xmlns="http://www.w3.org/2000/svg">
<rect y="5" width="390" height="844" rx="32" fill="white"/>
<path fill-rule="evenodd" clip-rule="evenodd" d="M121 838.5C121 837.119 122.119 836 123.5 836H266.5C267.881 836 269 837.119 269 838.5C269 839.881 267.881 841 266.5 841H123.5C122.119 841 121 839.881 121 838.5Z" fill="#090A0A"/>
<path d="M54.0688 36V26.1304H53.9194L50.9395 28.2305V26.2217L54.0688 24.022H56.2021V36H54.0688ZM63.4219 36.2988C62.4701 36.2988 61.6538 36.0443 60.9731 35.5352C60.298 35.026 59.7778 34.3011 59.4126 33.3604C59.0474 32.4196 58.8647 31.3045 58.8647 30.0151V29.9985C58.8647 28.7091 59.0474 27.5968 59.4126 26.6616C59.7778 25.7209 60.298 24.9959 60.9731 24.4868C61.6538 23.9777 62.4701 23.7231 63.4219 23.7231C64.3737 23.7231 65.1899 23.9777 65.8706 24.4868C66.5513 24.9959 67.0742 25.7209 67.4395 26.6616C67.8047 27.5968 67.9873 28.7091 67.9873 29.9985V30.0151C67.9873 31.3045 67.8047 32.4196 67.4395 33.3604C67.0742 34.3011 66.5513 35.026 65.8706 35.5352C65.1899 36.0443 64.3737 36.2988 63.4219 36.2988ZM63.4219 34.564C63.931 34.564 64.3654 34.3813 64.7251 34.0161C65.0848 33.6509 65.3587 33.1307 65.5469 32.4556C65.7406 31.7749 65.8374 30.9614 65.8374 30.0151V29.9985C65.8374 29.0522 65.7406 28.2415 65.5469 27.5664C65.3587 26.8857 65.0848 26.3656 64.7251 26.0059C64.3654 25.6406 63.931 25.458 63.4219 25.458C62.9128 25.458 62.4784 25.6406 62.1187 26.0059C61.7645 26.3656 61.4906 26.8857 61.2969 27.5664C61.1087 28.2415 61.0146 29.0522 61.0146 29.9985V30.0151C61.0146 30.9614 61.1087 31.7749 61.2969 32.4556C61.4906 33.1307 61.7645 33.6509 62.1187 34.0161C62.4784 34.3813 62.9128 34.564 63.4219 34.564ZM71.2974 34.3896C70.9211 34.3896 70.6056 34.2651 70.3511 34.0161C70.1021 33.7616 69.9775 33.4517 69.9775 33.0864C69.9775 32.7157 70.1021 32.4058 70.3511 32.1567C70.6056 31.9022 70.9211 31.7749 71.2974 31.7749C71.6792 31.7749 71.9946 31.9022 72.2437 32.1567C72.4927 32.4058 72.6172 32.7157 72.6172 33.0864C72.6172 33.4517 72.4927 33.7616 72.2437 34.0161C71.9946 34.2651 71.6792 34.3896 71.2974 34.3896ZM71.2974 28.2305C70.9211 28.2305 70.6056 28.106 70.3511 27.8569C70.1021 27.6024 69.9775 27.2925 69.9775 26.9272C69.9775 26.5565 70.1021 26.2466 70.3511 25.9976C70.6056 25.743 70.9211 25.6157 71.2974 25.6157C71.6792 25.6157 71.9946 25.743 72.2437 25.9976C72.4927 26.2466 72.6172 26.5565 72.6172 26.9272C72.6172 27.2925 72.4927 27.6024 72.2437 27.8569C71.9946 28.106 71.6792 28.2305 71.2974 28.2305ZM79.1562 36.2988C78.2044 36.2988 77.3882 36.0443 76.7075 35.5352C76.0324 35.026 75.5122 34.3011 75.147 33.3604C74.7817 32.4196 74.5991 31.3045 74.5991 30.0151V29.9985C74.5991 28.7091 74.7817 27.5968 75.147 26.6616C75.5122 25.7209 76.0324 24.9959 76.7075 24.4868C77.3882 23.9777 78.2044 23.7231 79.1562 23.7231C80.1081 23.7231 80.9243 23.9777 81.605 24.4868C82.2856 24.9959 82.8086 25.7209 83.1738 26.6616C83.5391 27.5968 83.7217 28.7091 83.7217 29.9985V30.0151C83.7217 31.3045 83.5391 32.4196 83.1738 33.3604C82.8086 34.3011 82.2856 35.026 81.605 35.5352C80.9243 36.0443 80.1081 36.2988 79.1562 36.2988ZM79.1562 34.564C79.6654 34.564 80.0998 34.3813 80.4595 34.0161C80.8192 33.6509 81.0931 33.1307 81.2812 32.4556C81.4749 31.7749 81.5718 30.9614 81.5718 30.0151V29.9985C81.5718 29.0522 81.4749 28.2415 81.2812 27.5664C81.0931 26.8857 80.8192 26.3656 80.4595 26.0059C80.0998 25.6406 79.6654 25.458 79.1562 25.458C78.6471 25.458 78.2127 25.6406 77.853 26.0059C77.4989 26.3656 77.2249 26.8857 77.0312 27.5664C76.8431 28.2415 76.749 29.0522 76.749 29.9985V30.0151C76.749 30.9614 76.8431 31.7749 77.0312 32.4556C77.2249 33.1307 77.4989 33.6509 77.853 34.0161C78.2127 34.3813 78.6471 34.564 79.1562 34.564ZM89.9619 36.2988C89.0101 36.2988 88.1938 36.0443 87.5132 35.5352C86.8381 35.026 86.3179 34.3011 85.9526 33.3604C85.5874 32.4196 85.4048 31.3045 85.4048 30.0151V29.9985C85.4048 28.7091 85.5874 27.5968 85.9526 26.6616C86.3179 25.7209 86.8381 24.9959 87.5132 24.4868C88.1938 23.9777 89.0101 23.7231 89.9619 23.7231C90.9137 23.7231 91.73 23.9777 92.4106 24.4868C93.0913 24.9959 93.6143 25.7209 93.9795 26.6616C94.3447 27.5968 94.5273 28.7091 94.5273 29.9985V30.0151C94.5273 31.3045 94.3447 32.4196 93.9795 33.3604C93.6143 34.3011 93.0913 35.026 92.4106 35.5352C91.73 36.0443 90.9137 36.2988 89.9619 36.2988ZM89.9619 34.564C90.471 34.564 90.9054 34.3813 91.2651 34.0161C91.6248 33.6509 91.8988 33.1307 92.0869 32.4556C92.2806 31.7749 92.3774 30.9614 92.3774 30.0151V29.9985C92.3774 29.0522 92.2806 28.2415 92.0869 27.5664C91.8988 26.8857 91.6248 26.3656 91.2651 26.0059C90.9054 25.6406 90.471 25.458 89.9619 25.458C89.4528 25.458 89.0184 25.6406 88.6587 26.0059C88.3045 26.3656 88.0306 26.8857 87.8369 27.5664C87.6488 28.2415 87.5547 29.0522 87.5547 29.9985V30.0151C87.5547 30.9614 87.6488 31.7749 87.8369 32.4556C88.0306 33.1307 88.3045 33.6509 88.6587 34.0161C89.0184 34.3813 89.4528 34.564 89.9619 34.564Z" fill="black"/>
<path d="M288.333 31C288.977 31 289.5 31.5037 289.5 32.125V34.375C289.5 34.9963 288.977 35.5 288.333 35.5H287.167C286.523 35.5 286 34.9963 286 34.375V32.125C286 31.5037 286.523 31 287.167 31H288.333ZM293.823 28.75C294.468 28.75 294.99 29.2537 294.99 29.875V34.375C294.99 34.9963 294.468 35.5 293.823 35.5H292.657C292.013 35.5 291.49 34.9963 291.49 34.375V29.875C291.49 29.2537 292.013 28.75 292.657 28.75H293.823ZM299.313 26.125C299.958 26.125 300.48 26.6287 300.48 27.25V34.375C300.48 34.9963 299.958 35.5 299.313 35.5H298.147C297.503 35.5 296.98 34.9963 296.98 34.375V27.25C296.981 26.6287 297.503 26.125 298.147 26.125H299.313ZM304.804 23.5C305.448 23.5 305.971 24.0037 305.971 24.625V34.375C305.971 34.9963 305.448 35.5 304.804 35.5H303.638C302.993 35.5 302.471 34.9963 302.471 34.375V24.625C302.471 24.0037 302.993 23.5 303.638 23.5H304.804Z" fill="black"/>
<path d="M318.512 32.8262C319.932 31.5964 322.011 31.5964 323.431 32.8262C323.502 32.8924 323.544 32.9855 323.546 33.084C323.548 33.1826 323.51 33.2777 323.441 33.3467L321.218 35.6446C321.153 35.7121 321.063 35.7501 320.971 35.7501C320.878 35.7499 320.79 35.7119 320.725 35.6446L318.501 33.3467C318.432 33.2776 318.394 33.1826 318.396 33.084C318.399 32.9855 318.44 32.8923 318.512 32.8262ZM315.545 29.7608C318.604 26.8467 323.341 26.8467 326.4 29.7608C326.469 29.829 326.509 29.9225 326.51 30.0206C326.511 30.1188 326.473 30.2135 326.405 30.2833L325.12 31.6133C324.988 31.7491 324.774 31.7524 324.638 31.6202C323.633 30.6886 322.326 30.1728 320.971 30.1729C319.617 30.1736 318.311 30.6895 317.308 31.6202C317.172 31.7524 316.958 31.7491 316.825 31.6133L315.54 30.2833C315.472 30.2136 315.435 30.1189 315.436 30.0206C315.437 29.9224 315.476 29.829 315.545 29.7608ZM312.578 26.7032C317.27 22.0989 324.671 22.099 329.363 26.7032C329.431 26.7716 329.47 26.8654 329.471 26.963C329.471 27.0605 329.433 27.1545 329.366 27.2237L328.08 28.5538C327.947 28.6901 327.732 28.691 327.598 28.5567C325.81 26.8164 323.437 25.8459 320.971 25.8458C318.504 25.8459 316.131 26.8163 314.344 28.5567C314.209 28.6913 313.994 28.6904 313.861 28.5538L312.574 27.2237C312.507 27.1545 312.47 27.0605 312.471 26.963C312.471 26.8654 312.51 26.7715 312.578 26.7032Z" fill="black"/>
<rect opacity="0.4" x="336.471" y="23.5" width="24" height="12" rx="3.5" stroke="black"/>
<path opacity="0.5" d="M361.971 27.5V31.5C362.777 31.1612 363.301 30.3731 363.301 29.5C363.301 28.6269 362.777 27.8388 361.971 27.5Z" fill="black"/>
<rect x="337.971" y="25" width="17" height="9" rx="2" fill="black"/>
<path d="M123.32 93C122.587 93 122.02 92.7933 121.62 92.38C121.233 91.9533 121.04 91.3667 121.04 90.62V82.3H124.08V89.8C124.08 90.12 124.147 90.3467 124.28 90.48C124.413 90.6133 124.633 90.68 124.94 90.68H125.64V93H123.32ZM132.19 93.3C131.137 93.3 130.217 93.1333 129.43 92.8C128.644 92.4667 128.044 92 127.63 91.4C127.217 90.8 127.01 90.12 127.01 89.36V88.86C127.01 88.38 127.104 87.9467 127.29 87.56C127.477 87.1733 127.737 86.74 128.07 86.26C128.284 85.9667 128.437 85.7333 128.53 85.56C128.624 85.3733 128.67 85.2067 128.67 85.06C128.67 84.6867 128.444 84.5 127.99 84.5H126.87V82.3H129.77C130.37 82.3 130.85 82.4733 131.21 82.82C131.57 83.1667 131.75 83.62 131.75 84.18C131.75 84.58 131.677 84.9533 131.53 85.3C131.384 85.6333 131.164 86.02 130.87 86.46C130.59 86.9 130.377 87.2733 130.23 87.58C130.097 87.8867 130.03 88.22 130.03 88.58V89C130.03 89.6267 130.217 90.1067 130.59 90.44C130.964 90.7733 131.497 90.94 132.19 90.94C132.924 90.94 133.477 90.74 133.85 90.34C134.237 89.9267 134.43 89.3333 134.43 88.56C134.43 86.9333 133.797 86.12 132.53 86.12V84.66L134.47 82H137.69L135.51 84.98C136.217 85.34 136.717 85.8133 137.01 86.4C137.317 86.9733 137.47 87.7067 137.47 88.6C137.47 89.52 137.257 90.3333 136.83 91.04C136.417 91.7467 135.81 92.3 135.01 92.7C134.21 93.1 133.27 93.3 132.19 93.3ZM128.039 79.06H137.299V80.98H128.039V79.06ZM152.299 94.96C151.539 94.96 150.793 94.8867 150.059 94.74C149.326 94.6067 148.726 94.42 148.259 94.18V91.84C149.486 92.48 150.833 92.8 152.299 92.8C153.126 92.8 153.793 92.7 154.299 92.5C154.806 92.3 155.059 92 155.059 91.6C155.059 91.4133 155.013 91.2333 154.919 91.06C154.106 91.4333 153.179 91.62 152.139 91.62C151.046 91.62 150.099 91.4333 149.299 91.06C148.513 90.6867 147.913 90.16 147.499 89.48C147.099 88.8 146.899 88.0133 146.899 87.12V86.56C146.899 85.8133 146.726 85.26 146.379 84.9C146.033 84.54 145.499 84.36 144.779 84.36C144.246 84.36 143.773 84.44 143.359 84.6C142.959 84.76 142.573 85.02 142.199 85.38L142.979 86.66V89.8C142.979 90.12 143.053 90.3467 143.199 90.48C143.346 90.6133 143.586 90.68 143.919 90.68H144.939V93H142.259C141.526 93 140.959 92.7933 140.559 92.38C140.159 91.9533 139.959 91.3667 139.959 90.62V86.62L138.959 84.92C139.719 83.9733 140.573 83.2533 141.519 82.76C142.466 82.2533 143.553 82 144.779 82C146.433 82 147.699 82.3867 148.579 83.16C149.459 83.92 149.899 84.9733 149.899 86.32V86.84C149.899 87.6267 150.073 88.2267 150.419 88.64C150.766 89.0533 151.339 89.26 152.139 89.26C153.633 89.26 154.379 88.4533 154.379 86.84V82.3H157.419V87.12C157.419 88.0267 157.193 88.8333 156.739 89.54C157.073 89.8467 157.313 90.1733 157.459 90.52C157.619 90.8667 157.699 91.2533 157.699 91.68C157.699 92.72 157.193 93.5267 156.179 94.1C155.166 94.6733 153.873 94.96 152.299 94.96ZM163.156 93.3C161.929 93.3 160.949 92.9933 160.216 92.38C159.496 91.7667 159.136 90.9 159.136 89.78C159.136 88.66 159.529 87.78 160.316 87.14C161.116 86.5 162.209 86.18 163.596 86.18C164.889 86.18 165.996 86.3933 166.916 86.82V86.4C166.916 85.68 166.676 85.1467 166.196 84.8C165.729 84.4533 164.969 84.28 163.916 84.28C163.263 84.28 162.623 84.3467 161.996 84.48C161.369 84.6133 160.809 84.8 160.316 85.04V82.76C160.756 82.5467 161.363 82.3667 162.136 82.22C162.909 82.0733 163.689 82 164.476 82C165.369 82 166.203 82.1333 166.976 82.4L167.756 81.5H171.056L169.076 83.8C169.649 84.4533 169.936 85.3133 169.936 86.38V93H166.916V89.02C166.143 88.62 165.236 88.42 164.196 88.42C163.516 88.42 163.016 88.5333 162.696 88.76C162.389 88.9867 162.236 89.34 162.236 89.82C162.236 90.26 162.376 90.5933 162.656 90.82C162.949 91.0333 163.409 91.14 164.036 91.14C164.476 91.14 164.849 91.0733 165.156 90.94V93.04C164.636 93.2133 163.969 93.3 163.156 93.3ZM178.77 93.3C178.103 93.3 177.457 93.1733 176.83 92.92C176.203 92.6667 175.657 92.2933 175.19 91.8V93H172.29V82.3H175.33V89.5C175.623 89.9933 175.977 90.36 176.39 90.6C176.803 90.8267 177.29 90.94 177.85 90.94C179.223 90.94 179.91 90.2933 179.91 89V82.3H182.93V89.18C182.93 89.9533 182.77 90.6533 182.45 91.28C182.13 91.9067 181.657 92.4 181.03 92.76C180.403 93.12 179.65 93.3 178.77 93.3ZM188.244 86.34C188.244 85.6467 188.098 85.1467 187.804 84.84C187.511 84.52 186.998 84.36 186.264 84.36C185.558 84.36 184.844 84.54 184.124 84.9V82.6C184.444 82.44 184.871 82.3 185.404 82.18C185.951 82.06 186.478 82 186.984 82C188.384 82 189.451 82.3733 190.184 83.12C190.918 83.8667 191.284 84.9467 191.284 86.36V93H188.244V86.34ZM198.284 93.3C197.231 93.3 196.311 93.1333 195.524 92.8C194.738 92.4667 194.138 92 193.724 91.4C193.311 90.8 193.104 90.12 193.104 89.36V88.86C193.104 88.38 193.198 87.9467 193.384 87.56C193.571 87.1733 193.831 86.74 194.164 86.26C194.378 85.9667 194.531 85.7333 194.624 85.56C194.718 85.3733 194.764 85.2067 194.764 85.06C194.764 84.6867 194.538 84.5 194.084 84.5H192.964V82.3H195.864C196.464 82.3 196.944 82.4733 197.304 82.82C197.664 83.1667 197.844 83.62 197.844 84.18C197.844 84.58 197.771 84.9533 197.624 85.3C197.478 85.6333 197.258 86.02 196.964 86.46C196.684 86.9 196.471 87.2733 196.324 87.58C196.191 87.8867 196.124 88.22 196.124 88.58V89C196.124 89.6267 196.311 90.1067 196.684 90.44C197.058 90.7733 197.591 90.94 198.284 90.94C199.018 90.94 199.571 90.74 199.944 90.34C200.331 89.9267 200.524 89.3333 200.524 88.56C200.524 86.9333 199.891 86.12 198.624 86.12V84.66L200.564 82H203.784L201.604 84.98C202.311 85.34 202.811 85.8133 203.104 86.4C203.411 86.9733 203.564 87.7067 203.564 88.6C203.564 89.52 203.351 90.3333 202.924 91.04C202.511 91.7467 201.904 92.3 201.104 92.7C200.304 93.1 199.364 93.3 198.284 93.3ZM194.133 79.06H203.393V80.98H194.133V79.06ZM206.053 86.62L205.053 84.92C206.613 82.9733 208.62 82 211.073 82C212.793 82 214.113 82.38 215.033 83.14C215.966 83.9 216.433 84.96 216.433 86.32V93H213.393V86.56C213.393 85.0933 212.62 84.36 211.073 84.36C210.5 84.36 209.986 84.44 209.533 84.6C209.093 84.76 208.68 85.02 208.293 85.38L209.073 86.66V93H206.053V86.62ZM218.52 84.76C218.52 83.9733 218.734 83.3667 219.16 82.94C219.587 82.5133 220.194 82.3 220.98 82.3H223.14V84.64H222.42C222.1 84.64 221.874 84.7067 221.74 84.84C221.607 84.9733 221.54 85.2133 221.54 85.56V89.04L223.56 85.96H224.62L226.64 89.04V82.3H229.64V93H226.92L224.08 88.68L221.24 93H218.52V84.76ZM226.743 98.6C225.756 98.6 224.996 98.4067 224.463 98.02C223.916 97.6333 223.643 97.12 223.643 96.48V96.12C223.643 95.9467 223.616 95.8267 223.563 95.76C223.496 95.6933 223.383 95.66 223.223 95.66H222.563V93.94H224.823C225.223 93.94 225.503 94.0267 225.663 94.2C225.81 94.3867 225.883 94.6733 225.883 95.06V96.16C225.883 96.64 226.136 96.88 226.643 96.88C227.136 96.88 227.383 96.64 227.383 96.16V93.94H229.623V96.4C229.623 97.04 229.376 97.5667 228.883 97.98C228.376 98.3933 227.663 98.6 226.743 98.6ZM224.763 79.7C224.763 79.5533 224.736 79.4533 224.683 79.4C224.616 79.3333 224.51 79.3 224.363 79.3H223.423V77.24H225.303C225.796 77.24 226.156 77.3533 226.383 77.58C226.596 77.8067 226.703 78.0933 226.703 78.44V79.04H230.723V80.98H224.763V79.7ZM236.703 93.3C235.05 93.3 233.743 92.84 232.783 91.92C231.823 91 231.343 89.6533 231.343 87.88C231.343 86.0267 231.896 84.5867 233.003 83.56C234.11 82.52 235.636 82 237.583 82C239.596 82 241.076 82.4667 242.023 83.4C242.983 84.3333 243.463 85.56 243.463 87.08V93H240.443V87.06C240.443 86.18 240.216 85.5133 239.763 85.06C239.323 84.5933 238.596 84.36 237.583 84.36C236.623 84.36 235.863 84.66 235.303 85.26C234.743 85.86 234.463 86.7333 234.463 87.88C234.463 88.9333 234.69 89.7067 235.143 90.2C235.61 90.6933 236.316 90.94 237.263 90.94C237.77 90.94 238.223 90.8667 238.623 90.72V93.04C238.103 93.2133 237.463 93.3 236.703 93.3ZM240.571 98.6C239.585 98.6 238.825 98.4067 238.291 98.02C237.745 97.6333 237.471 97.12 237.471 96.48V96.12C237.471 95.9467 237.445 95.8267 237.391 95.76C237.325 95.6933 237.211 95.66 237.051 95.66H236.391V93.94H238.651C239.051 93.94 239.331 94.0267 239.491 94.2C239.638 94.3867 239.711 94.6733 239.711 95.06V96.16C239.711 96.64 239.965 96.88 240.471 96.88C240.965 96.88 241.211 96.64 241.211 96.16V93.94H243.451V96.4C243.451 97.04 243.205 97.5667 242.711 97.98C242.205 98.3933 241.491 98.6 240.571 98.6ZM247.851 93C247.118 93 246.551 92.7933 246.151 92.38C245.765 91.9533 245.571 91.3667 245.571 90.62V82.3H248.611V89.8C248.611 90.12 248.678 90.3467 248.811 90.48C248.945 90.6133 249.165 90.68 249.471 90.68H250.171V93H247.851ZM253.471 93C252.738 93 252.171 92.7933 251.771 92.38C251.385 91.9533 251.191 91.3667 251.191 90.62V82.3H254.211V89.8C254.211 90.12 254.278 90.3467 254.411 90.48C254.545 90.6133 254.771 90.68 255.091 90.68H255.791V93H253.471ZM261.047 93.3C259.82 93.3 258.84 92.9933 258.107 92.38C257.387 91.7667 257.027 90.9 257.027 89.78C257.027 88.66 257.42 87.78 258.207 87.14C259.007 86.5 260.1 86.18 261.487 86.18C262.78 86.18 263.887 86.3933 264.807 86.82V86.4C264.807 85.68 264.567 85.1467 264.087 84.8C263.62 84.4533 262.86 84.28 261.807 84.28C261.153 84.28 260.513 84.3467 259.887 84.48C259.26 84.6133 258.7 84.8 258.207 85.04V82.76C258.647 82.5467 259.253 82.3667 260.027 82.22C260.8 82.0733 261.58 82 262.367 82C264.153 82 265.507 82.4 266.427 83.2C267.36 83.9867 267.827 85.0467 267.827 86.38V93H264.807V89.02C264.033 88.62 263.127 88.42 262.087 88.42C261.407 88.42 260.907 88.5333 260.587 88.76C260.28 88.9867 260.127 89.34 260.127 89.82C260.127 90.26 260.267 90.5933 260.547 90.82C260.84 91.0333 261.3 91.14 261.927 91.14C262.367 91.14 262.74 91.0733 263.047 90.94V93.04C262.527 93.2133 261.86 93.3 261.047 93.3Z" fill="black"/>
<path d="M35.4 142.24L34.7 141.134C35.1667 140.537 35.708 140.084 36.324 139.776C36.94 139.459 37.6727 139.3 38.522 139.3C39.6047 139.3 40.4307 139.547 41 140.042C41.5693 140.537 41.854 141.232 41.854 142.128V147H40.776V142.226C40.776 141.526 40.5847 141.008 40.202 140.672C39.8287 140.336 39.2687 140.168 38.522 140.168C37.9433 140.168 37.4393 140.257 37.01 140.434C36.5807 140.602 36.198 140.877 35.862 141.26L36.478 142.226V147H35.4V142.24ZM46.29 147.21C45.8047 147.21 45.3007 147.145 44.778 147.014C44.2647 146.893 43.8587 146.72 43.56 146.496V145.586C43.952 145.838 44.3814 146.029 44.848 146.16C45.3147 146.281 45.772 146.342 46.22 146.342C46.892 146.342 47.3727 146.258 47.662 146.09C47.9607 145.913 48.11 145.619 48.11 145.208C48.11 144.937 48.0447 144.718 47.914 144.55C47.7927 144.373 47.5874 144.219 47.298 144.088C47.0087 143.957 46.5794 143.808 46.01 143.64C45.1607 143.388 44.5354 143.103 44.134 142.786C43.7327 142.459 43.532 141.988 43.532 141.372C43.532 140.7 43.784 140.187 44.288 139.832C44.8014 139.477 45.5014 139.3 46.388 139.3C46.8454 139.3 47.284 139.356 47.704 139.468C48.124 139.571 48.474 139.711 48.754 139.888V140.784C48.082 140.373 47.3214 140.168 46.472 140.168C45.2307 140.168 44.61 140.569 44.61 141.372C44.61 141.661 44.6847 141.89 44.834 142.058C44.9834 142.226 45.2027 142.371 45.492 142.492C45.7814 142.604 46.2247 142.744 46.822 142.912C47.4194 143.08 47.886 143.267 48.222 143.472C48.5674 143.668 48.8147 143.906 48.964 144.186C49.1134 144.457 49.188 144.802 49.188 145.222C49.188 145.819 48.95 146.3 48.474 146.664C48.0074 147.028 47.2794 147.21 46.29 147.21ZM47.9127 149.198C47.9127 149.021 47.8801 148.904 47.8147 148.848C47.7494 148.801 47.6187 148.778 47.4227 148.778H46.9887V147.868H47.9827C48.3467 147.868 48.5941 147.947 48.7247 148.106C48.8461 148.265 48.9067 148.545 48.9067 148.946V150.598H47.9127V149.198ZM59.1267 147.21C58.2494 147.21 57.5727 146.967 57.0967 146.482C56.6207 145.997 56.3827 145.348 56.3827 144.536V142.226C56.3827 141.517 56.2054 140.999 55.8507 140.672C55.5054 140.336 54.9781 140.168 54.2687 140.168C53.7274 140.168 53.2607 140.252 52.8687 140.42C52.4767 140.588 52.1034 140.868 51.7487 141.26L52.3647 142.226V145.362C52.3647 145.633 52.4161 145.824 52.5187 145.936C52.6307 146.039 52.8174 146.09 53.0787 146.09H53.8907V147H52.6307C52.1921 147 51.8561 146.879 51.6227 146.636C51.3987 146.393 51.2867 146.057 51.2867 145.628V142.24L50.5867 141.134C51.0627 140.527 51.5901 140.07 52.1687 139.762C52.7567 139.454 53.4567 139.3 54.2687 139.3C55.3141 139.3 56.1027 139.547 56.6347 140.042C57.1761 140.537 57.4467 141.232 57.4467 142.128V144.494C57.4467 145.726 58.0907 146.342 59.3787 146.342C60.3401 146.342 61.1287 145.866 61.7447 144.914V139.51H62.8227V147H61.7867V145.922C61.1241 146.781 60.2374 147.21 59.1267 147.21ZM67.6547 142.1C67.6547 141.437 67.5194 140.952 67.2487 140.644C66.978 140.327 66.516 140.168 65.8627 140.168C65.2 140.168 64.6074 140.299 64.0847 140.56V139.692C64.3087 139.58 64.5934 139.487 64.9387 139.412C65.2934 139.337 65.648 139.3 66.0027 139.3C66.9267 139.3 67.6127 139.547 68.0607 140.042C68.5087 140.537 68.7327 141.246 68.7327 142.17V147H67.6547V142.1ZM71.1109 142.24L70.4109 141.134C70.8776 140.537 71.4189 140.084 72.0349 139.776C72.6509 139.459 73.3836 139.3 74.2329 139.3C75.3156 139.3 76.1416 139.547 76.7109 140.042C77.2803 140.537 77.5649 141.232 77.5649 142.128V147H76.4869V142.226C76.4869 141.526 76.2956 141.008 75.9129 140.672C75.5396 140.336 74.9796 140.168 74.2329 140.168C73.6543 140.168 73.1503 140.257 72.7209 140.434C72.2916 140.602 71.9089 140.877 71.5729 141.26L72.1889 142.226V147H71.1109V142.24ZM82.001 147.21C81.5156 147.21 81.0116 147.145 80.489 147.014C79.9756 146.893 79.5696 146.72 79.271 146.496V145.586C79.663 145.838 80.0923 146.029 80.559 146.16C81.0256 146.281 81.483 146.342 81.931 146.342C82.603 146.342 83.0836 146.258 83.373 146.09C83.6716 145.913 83.821 145.619 83.821 145.208C83.821 144.937 83.7556 144.718 83.625 144.55C83.5036 144.373 83.2983 144.219 83.009 144.088C82.7196 143.957 82.2903 143.808 81.721 143.64C80.8716 143.388 80.2463 143.103 79.845 142.786C79.4436 142.459 79.243 141.988 79.243 141.372C79.243 140.7 79.495 140.187 79.999 139.832C80.5123 139.477 81.2123 139.3 82.099 139.3C82.5563 139.3 82.995 139.356 83.415 139.468C83.835 139.571 84.185 139.711 84.465 139.888V140.784C83.793 140.373 83.0323 140.168 82.183 140.168C80.9416 140.168 80.321 140.569 80.321 141.372C80.321 141.661 80.3956 141.89 80.545 142.058C80.6943 142.226 80.9136 142.371 81.203 142.492C81.4923 142.604 81.9356 142.744 82.533 142.912C83.1303 143.08 83.597 143.267 83.933 143.472C84.2783 143.668 84.5256 143.906 84.675 144.186C84.8243 144.457 84.899 144.802 84.899 145.222C84.899 145.819 84.661 146.3 84.185 146.664C83.7183 147.028 82.9903 147.21 82.001 147.21ZM89.2097 147.21C88.659 147.21 88.127 147.14 87.6137 147C87.1003 146.86 86.6617 146.659 86.2977 146.398V142.87H89.1537V143.738H87.3757V145.894C87.833 146.193 88.4443 146.342 89.2097 146.342C90.1617 146.342 90.9037 146.062 91.4357 145.502C91.9677 144.942 92.2337 144.149 92.2337 143.122C92.2337 142.086 91.9817 141.335 91.4777 140.868C90.983 140.401 90.1617 140.168 89.0137 140.168C88.5097 140.168 88.0197 140.224 87.5437 140.336C87.077 140.439 86.6803 140.607 86.3537 140.84V139.944C87.063 139.515 87.9917 139.3 89.1397 139.3C90.5023 139.3 91.5383 139.627 92.2477 140.28C92.957 140.924 93.3117 141.871 93.3117 143.122C93.3117 143.943 93.1483 144.662 92.8217 145.278C92.495 145.894 92.0237 146.37 91.4077 146.706C90.7917 147.042 90.059 147.21 89.2097 147.21ZM95.4059 142.24L94.7059 141.134C95.1725 140.537 95.7139 140.084 96.3299 139.776C96.9459 139.459 97.6785 139.3 98.5279 139.3C99.6105 139.3 100.437 139.547 101.006 140.042C101.575 140.537 101.86 141.232 101.86 142.128V147H100.782V142.226C100.782 141.526 100.591 141.008 100.208 140.672C99.8345 140.336 99.2745 140.168 98.5279 140.168C97.9492 140.168 97.4452 140.257 97.0159 140.434C96.5865 140.602 96.2039 140.877 95.8679 141.26L96.4839 142.226V147H95.4059V142.24ZM106.45 147.21C105.899 147.21 105.367 147.14 104.854 147C104.341 146.86 103.902 146.659 103.538 146.398V142.87H106.394V143.738H104.616V145.894C105.073 146.193 105.685 146.342 106.45 146.342C107.402 146.342 108.144 146.062 108.676 145.502C109.208 144.942 109.474 144.149 109.474 143.122C109.474 142.086 109.222 141.335 108.718 140.868C108.223 140.401 107.402 140.168 106.254 140.168C105.75 140.168 105.26 140.224 104.784 140.336C104.317 140.439 103.921 140.607 103.594 140.84V139.944C104.303 139.515 105.232 139.3 106.38 139.3C107.743 139.3 108.779 139.627 109.488 140.28C110.197 140.924 110.552 141.871 110.552 143.122C110.552 143.943 110.389 144.662 110.062 145.278C109.735 145.894 109.264 146.37 108.648 146.706C108.032 147.042 107.299 147.21 106.45 147.21ZM104.428 137.508H109.272V136.024H110.266V138.306H104.428V137.508ZM113.528 147C113.108 147 112.786 146.879 112.562 146.636C112.338 146.393 112.226 146.057 112.226 145.628V139.51H113.304V145.39C113.304 145.661 113.36 145.847 113.472 145.95C113.584 146.043 113.771 146.09 114.032 146.09H114.55V147H113.528ZM120.082 147.21C118.943 147.21 118.01 146.771 117.282 145.894V147H116.232V139.51H117.31V144.914C117.926 145.866 118.766 146.342 119.83 146.342C120.511 146.342 121.025 146.188 121.37 145.88C121.715 145.563 121.888 145.101 121.888 144.494V139.51H122.966V144.536C122.966 145.348 122.714 145.997 122.21 146.482C121.706 146.967 120.997 147.21 120.082 147.21ZM127.307 147.21C126.486 147.21 125.837 147.009 125.361 146.608C124.885 146.197 124.647 145.609 124.647 144.844C124.647 144.097 124.913 143.509 125.445 143.08C125.977 142.641 126.691 142.422 127.587 142.422C128.558 142.422 129.44 142.609 130.233 142.982V142.17C130.233 141.479 130.047 140.975 129.673 140.658C129.3 140.331 128.693 140.168 127.853 140.168C127.415 140.168 126.985 140.21 126.565 140.294C126.145 140.369 125.781 140.476 125.473 140.616V139.748C125.753 139.617 126.131 139.51 126.607 139.426C127.083 139.342 127.545 139.3 127.993 139.3C129.113 139.3 129.944 139.557 130.485 140.07C131.036 140.574 131.311 141.269 131.311 142.156V147H130.233V143.85C129.496 143.477 128.647 143.29 127.685 143.29C127.013 143.29 126.519 143.421 126.201 143.682C125.884 143.934 125.725 144.321 125.725 144.844C125.725 145.357 125.87 145.735 126.159 145.978C126.449 146.221 126.911 146.342 127.545 146.342C127.872 146.342 128.18 146.3 128.469 146.216V147.07C128.143 147.163 127.755 147.21 127.307 147.21ZM135.647 147.21C134.826 147.21 134.177 147.009 133.701 146.608C133.225 146.197 132.987 145.609 132.987 144.844C132.987 144.097 133.253 143.509 133.785 143.08C134.317 142.641 135.031 142.422 135.927 142.422C136.898 142.422 137.78 142.609 138.573 142.982V142.17C138.573 141.479 138.386 140.975 138.013 140.658C137.64 140.331 137.033 140.168 136.193 140.168C135.754 140.168 135.325 140.21 134.905 140.294C134.485 140.369 134.121 140.476 133.813 140.616V139.748C134.093 139.617 134.471 139.51 134.947 139.426C135.423 139.342 135.885 139.3 136.333 139.3C137.276 139.3 138.018 139.487 138.559 139.86L139.371 138.95H140.575L139.203 140.49C139.502 140.938 139.651 141.493 139.651 142.156V147H138.573V143.85C137.836 143.477 136.986 143.29 136.025 143.29C134.718 143.29 134.065 143.808 134.065 144.844C134.065 145.357 134.21 145.735 134.499 145.978C134.788 146.221 135.25 146.342 135.885 146.342C136.212 146.342 136.52 146.3 136.809 146.216V147.07C136.482 147.163 136.095 147.21 135.647 147.21ZM145.689 147.21C144.551 147.21 143.617 146.771 142.889 145.894V147H141.839V139.51H142.917V144.914C143.533 145.866 144.373 146.342 145.437 146.342C146.119 146.342 146.632 146.188 146.977 145.88C147.323 145.563 147.495 145.101 147.495 144.494V139.51H148.573V144.536C148.573 145.348 148.321 145.997 147.817 146.482C147.313 146.967 146.604 147.21 145.689 147.21ZM153.405 142.1C153.405 141.437 153.269 140.952 152.999 140.644C152.728 140.327 152.266 140.168 151.613 140.168C150.95 140.168 150.357 140.299 149.835 140.56V139.692C150.059 139.58 150.343 139.487 150.689 139.412C151.043 139.337 151.398 139.3 151.753 139.3C152.677 139.3 153.363 139.547 153.811 140.042C154.259 140.537 154.483 141.246 154.483 142.17V147H153.405V142.1ZM159.423 147.21C158.798 147.21 158.242 147.093 157.757 146.86C157.272 146.627 156.894 146.3 156.623 145.88C156.362 145.46 156.231 144.97 156.231 144.41V143.808C156.231 143.509 156.296 143.229 156.427 142.968C156.567 142.707 156.763 142.399 157.015 142.044C157.202 141.792 157.342 141.587 157.435 141.428C157.528 141.26 157.575 141.097 157.575 140.938C157.575 140.723 157.528 140.579 157.435 140.504C157.342 140.42 157.174 140.378 156.931 140.378H156.161V139.51H157.379C157.771 139.51 158.079 139.627 158.303 139.86C158.536 140.093 158.653 140.406 158.653 140.798C158.653 141.05 158.597 141.288 158.485 141.512C158.373 141.727 158.2 141.997 157.967 142.324C157.743 142.623 157.575 142.879 157.463 143.094C157.36 143.299 157.309 143.519 157.309 143.752V144.452C157.309 145.049 157.496 145.516 157.869 145.852C158.242 146.179 158.76 146.342 159.423 146.342C160.114 146.342 160.664 146.155 161.075 145.782C161.486 145.409 161.691 144.849 161.691 144.102C161.691 143.393 161.537 142.851 161.229 142.478C160.921 142.105 160.473 141.918 159.885 141.918V141.302L161.439 139.3H162.629L161.005 141.386C162.181 141.741 162.769 142.646 162.769 144.102C162.769 145.082 162.461 145.847 161.845 146.398C161.229 146.939 160.422 147.21 159.423 147.21ZM156.777 137.508H162.615V138.306H156.777V137.508ZM165.009 142.24L164.309 141.134C164.776 140.537 165.317 140.084 165.933 139.776C166.549 139.459 167.282 139.3 168.131 139.3C169.214 139.3 170.04 139.547 170.609 140.042C171.179 140.537 171.463 141.232 171.463 142.128V147H170.385V142.226C170.385 141.526 170.194 141.008 169.811 140.672C169.438 140.336 168.878 140.168 168.131 140.168C167.553 140.168 167.049 140.257 166.619 140.434C166.19 140.602 165.807 140.877 165.471 141.26L166.087 142.226V147H165.009V142.24ZM173.421 140.924C173.421 140.467 173.538 140.117 173.771 139.874C174.005 139.631 174.345 139.51 174.793 139.51H175.745V140.42H175.241C174.971 140.42 174.779 140.476 174.667 140.588C174.555 140.7 174.499 140.887 174.499 141.148V145.334L176.641 141.75H177.159L179.301 145.334V139.51H180.379V147H179.385L176.907 142.842L174.415 147H173.421V140.924ZM178.737 150.724C178.205 150.724 177.795 150.607 177.505 150.374C177.216 150.141 177.071 149.833 177.071 149.45V148.96C177.071 148.829 177.053 148.741 177.015 148.694C176.978 148.657 176.899 148.638 176.777 148.638H176.287V147.868H177.351C177.585 147.868 177.748 147.919 177.841 148.022C177.925 148.134 177.967 148.307 177.967 148.54V149.352C177.967 149.809 178.215 150.038 178.709 150.038C179.195 150.038 179.437 149.809 179.437 149.352V147.868H180.333V149.422C180.333 149.814 180.193 150.127 179.913 150.36C179.633 150.603 179.241 150.724 178.737 150.724ZM177.561 137.438C177.561 137.317 177.543 137.233 177.505 137.186C177.459 137.139 177.375 137.116 177.253 137.116H176.637V136.332H177.547C177.827 136.332 178.033 136.402 178.163 136.542C178.285 136.673 178.345 136.841 178.345 137.046V137.564H181.215V138.306H177.561V137.438ZM185.583 147.21C184.883 147.21 184.267 147.065 183.735 146.776C183.203 146.477 182.788 146.043 182.489 145.474C182.2 144.905 182.055 144.209 182.055 143.388C182.055 142.1 182.405 141.097 183.105 140.378C183.815 139.659 184.795 139.3 186.045 139.3C187.324 139.3 188.248 139.603 188.817 140.21C189.396 140.807 189.685 141.563 189.685 142.478V147H188.607V142.464C188.607 140.933 187.753 140.168 186.045 140.168C185.131 140.168 184.417 140.443 183.903 140.994C183.39 141.535 183.133 142.333 183.133 143.388C183.133 144.349 183.367 145.082 183.833 145.586C184.3 146.09 184.935 146.342 185.737 146.342C186.083 146.342 186.414 146.3 186.731 146.216V147.07C186.423 147.163 186.041 147.21 185.583 147.21ZM188.048 150.724C187.516 150.724 187.105 150.607 186.816 150.374C186.527 150.141 186.382 149.833 186.382 149.45V148.96C186.382 148.829 186.363 148.741 186.326 148.694C186.289 148.657 186.209 148.638 186.088 148.638H185.598V147.868H186.662C186.895 147.868 187.059 147.919 187.152 148.022C187.236 148.134 187.278 148.307 187.278 148.54V149.352C187.278 149.809 187.525 150.038 188.02 150.038C188.505 150.038 188.748 149.809 188.748 149.352V147.868H189.644V149.422C189.644 149.814 189.504 150.127 189.224 150.36C188.944 150.603 188.552 150.724 188.048 150.724ZM192.948 147C192.528 147 192.206 146.879 191.982 146.636C191.758 146.393 191.646 146.057 191.646 145.628V139.51H192.724V145.39C192.724 145.661 192.78 145.847 192.892 145.95C193.004 146.043 193.191 146.09 193.452 146.09H193.97V147H192.948ZM196.392 147C195.972 147 195.65 146.879 195.426 146.636C195.202 146.393 195.09 146.057 195.09 145.628V139.51H196.168V145.39C196.168 145.661 196.224 145.847 196.336 145.95C196.448 146.043 196.635 146.09 196.896 146.09H197.414V147H196.392ZM201.477 147.21C200.656 147.21 200.007 147.009 199.531 146.608C199.055 146.197 198.817 145.609 198.817 144.844C198.817 144.097 199.083 143.509 199.615 143.08C200.147 142.641 200.861 142.422 201.757 142.422C202.728 142.422 203.61 142.609 204.403 142.982V142.17C204.403 141.479 204.217 140.975 203.843 140.658C203.47 140.331 202.863 140.168 202.023 140.168C201.585 140.168 201.155 140.21 200.735 140.294C200.315 140.369 199.951 140.476 199.643 140.616V139.748C199.923 139.617 200.301 139.51 200.777 139.426C201.253 139.342 201.715 139.3 202.163 139.3C203.283 139.3 204.114 139.557 204.655 140.07C205.206 140.574 205.481 141.269 205.481 142.156V147H204.403V143.85C203.666 143.477 202.817 143.29 201.855 143.29C201.183 143.29 200.689 143.421 200.371 143.682C200.054 143.934 199.895 144.321 199.895 144.844C199.895 145.357 200.04 145.735 200.329 145.978C200.619 146.221 201.081 146.342 201.715 146.342C202.042 146.342 202.35 146.3 202.639 146.216V147.07C202.313 147.163 201.925 147.21 201.477 147.21ZM207.437 139.51H208.487V140.602C208.851 140.163 209.29 139.837 209.803 139.622C210.316 139.407 210.839 139.3 211.371 139.3C212.267 139.3 212.958 139.543 213.443 140.028C213.928 140.513 214.171 141.143 214.171 141.918V147H213.093V141.974C213.093 141.405 212.93 140.961 212.603 140.644C212.276 140.327 211.782 140.168 211.119 140.168C209.99 140.168 209.122 140.635 208.515 141.568V147H207.437V139.51ZM213.108 136.052H214.158V138.306H213.108V136.052ZM219.002 142.1C219.002 141.437 218.867 140.952 218.596 140.644C218.326 140.327 217.864 140.168 217.21 140.168C216.548 140.168 215.955 140.299 215.432 140.56V139.692C215.656 139.58 215.941 139.487 216.286 139.412C216.641 139.337 216.996 139.3 217.35 139.3C218.274 139.3 218.96 139.547 219.408 140.042C219.856 140.537 220.08 141.246 220.08 142.17V147H219.002V142.1ZM224.923 147.21C224.008 147.21 223.299 146.967 222.795 146.482C222.291 145.997 222.039 145.348 222.039 144.536V139.51H223.117V144.494C223.117 145.101 223.289 145.563 223.635 145.88C223.98 146.188 224.493 146.342 225.175 146.342C226.239 146.342 227.079 145.866 227.695 144.914V139.51H228.773V147H227.723V145.894C227.377 146.342 226.976 146.673 226.519 146.888C226.061 147.103 225.529 147.21 224.923 147.21ZM233.366 147.21C232.815 147.21 232.283 147.14 231.77 147C231.257 146.86 230.818 146.659 230.454 146.398V142.87H233.31V143.738H231.532V145.894C231.989 146.193 232.601 146.342 233.366 146.342C234.318 146.342 235.06 146.062 235.592 145.502C236.124 144.942 236.39 144.149 236.39 143.122C236.39 142.086 236.138 141.335 235.634 140.868C235.139 140.401 234.318 140.168 233.17 140.168C232.666 140.168 232.176 140.224 231.7 140.336C231.233 140.439 230.837 140.607 230.51 140.84V139.944C231.219 139.515 232.148 139.3 233.296 139.3C234.659 139.3 235.695 139.627 236.404 140.28C237.113 140.924 237.468 141.871 237.468 143.122C237.468 143.943 237.305 144.662 236.978 145.278C236.651 145.894 236.18 146.37 235.564 146.706C234.948 147.042 234.215 147.21 233.366 147.21ZM231.358 137.578H234.27V136.024H235.138V137.578H236.328V136.024H237.182V138.306H231.358V137.578ZM236.16 132.742H237.126V134.548H236.16V132.742ZM242.026 147.21C241.111 147.21 240.402 146.967 239.898 146.482C239.394 145.997 239.142 145.348 239.142 144.536V139.51H240.22V144.494C240.22 145.101 240.393 145.563 240.738 145.88C241.083 146.188 241.597 146.342 242.278 146.342C243.342 146.342 244.182 145.866 244.798 144.914V139.51H245.876V147H244.826V145.894C244.481 146.342 244.079 146.673 243.622 146.888C243.165 147.103 242.633 147.21 242.026 147.21ZM247.837 139.51H248.887V140.602C249.251 140.163 249.69 139.837 250.203 139.622C250.717 139.407 251.239 139.3 251.771 139.3C252.667 139.3 253.358 139.543 253.843 140.028C254.329 140.513 254.571 141.143 254.571 141.918V147H253.493V141.974C253.493 141.405 253.33 140.961 253.003 140.644C252.677 140.327 252.182 140.168 251.519 140.168C250.39 140.168 249.522 140.635 248.915 141.568V147H247.837V139.51ZM248.735 137.508H253.579V136.024H254.573V138.306H248.735V137.508ZM253.551 132.742H254.517V134.548H253.551V132.742ZM258.913 147.21C258.091 147.21 257.443 147.009 256.967 146.608C256.491 146.197 256.253 145.609 256.253 144.844C256.253 144.097 256.519 143.509 257.051 143.08C257.583 142.641 258.297 142.422 259.193 142.422C260.163 142.422 261.045 142.609 261.839 142.982V142.17C261.839 141.479 261.652 140.975 261.279 140.658C260.905 140.331 260.299 140.168 259.459 140.168C259.02 140.168 258.591 140.21 258.171 140.294C257.751 140.369 257.387 140.476 257.079 140.616V139.748C257.359 139.617 257.737 139.51 258.213 139.426C258.689 139.342 259.151 139.3 259.599 139.3C260.719 139.3 261.549 139.557 262.091 140.07C262.641 140.574 262.917 141.269 262.917 142.156V147H261.839V143.85C261.101 143.477 260.252 143.29 259.291 143.29C258.619 143.29 258.124 143.421 257.807 143.682C257.489 143.934 257.331 144.321 257.331 144.844C257.331 145.357 257.475 145.735 257.765 145.978C258.054 146.221 258.516 146.342 259.151 146.342C259.477 146.342 259.785 146.3 260.075 146.216V147.07C259.748 147.163 259.361 147.21 258.913 147.21ZM264.593 140.448H265.685L267.603 146.146C268.583 146.146 269.334 145.885 269.857 145.362C270.379 144.83 270.641 144.083 270.641 143.122C270.641 142.161 270.459 141.428 270.095 140.924C269.731 140.42 269.147 140.168 268.345 140.168C267.999 140.168 267.668 140.21 267.351 140.294V139.44C267.659 139.347 268.041 139.3 268.499 139.3C269.544 139.3 270.342 139.641 270.893 140.322C271.443 141.003 271.719 141.937 271.719 143.122C271.719 143.925 271.546 144.62 271.201 145.208C270.865 145.796 270.403 146.244 269.815 146.552C269.236 146.851 268.583 147 267.855 147H266.791L264.593 140.448ZM273.404 139.51H274.454V140.602C274.818 140.163 275.256 139.837 275.77 139.622C276.283 139.407 276.806 139.3 277.338 139.3C278.234 139.3 278.924 139.543 279.41 140.028C279.895 140.513 280.138 141.143 280.138 141.918V147H279.06V141.974C279.06 141.405 278.896 140.961 278.57 140.644C278.243 140.327 277.748 140.168 277.086 140.168C275.956 140.168 275.088 140.635 274.482 141.568V147H273.404V139.51ZM282.841 142.366C282.477 142.366 282.216 142.282 282.057 142.114C281.898 141.946 281.819 141.694 281.819 141.358V140.658H282.813V141.134C282.813 141.293 282.846 141.405 282.911 141.47C282.986 141.535 283.112 141.568 283.289 141.568H284.913V142.366H282.841ZM282.841 146.216C282.477 146.216 282.216 146.132 282.057 145.964C281.898 145.796 281.819 145.544 281.819 145.208V144.508H282.813V144.984C282.813 145.143 282.846 145.255 282.911 145.32C282.986 145.385 283.112 145.418 283.289 145.418H284.913V146.216H282.841ZM287.899 147C287.479 147 287.157 146.879 286.933 146.636C286.709 146.393 286.597 146.057 286.597 145.628V139.51H287.675V145.39C287.675 145.661 287.731 145.847 287.843 145.95C287.955 146.043 288.142 146.09 288.403 146.09H288.921V147H287.899ZM294.075 147.21C293.375 147.21 292.759 147.084 292.227 146.832C291.704 146.58 291.303 146.225 291.023 145.768C290.743 145.301 290.603 144.769 290.603 144.172V139.51H291.681V144.186C291.681 144.849 291.886 145.376 292.297 145.768C292.717 146.151 293.31 146.342 294.075 146.342C294.84 146.342 295.428 146.151 295.839 145.768C296.259 145.376 296.469 144.849 296.469 144.186V139.51H297.547V144.172C297.547 144.769 297.407 145.301 297.127 145.768C296.847 146.225 296.441 146.58 295.909 146.832C295.386 147.084 294.775 147.21 294.075 147.21ZM291.705 137.508H296.549V136.024H297.543V138.306H291.705V137.508ZM302.667 147.21C301.613 147.21 300.773 147.014 300.147 146.622C299.531 146.221 299.223 145.633 299.223 144.858C299.223 144.419 299.34 144.041 299.573 143.724C299.807 143.397 300.129 143.173 300.539 143.052C300.147 142.903 299.835 142.679 299.601 142.38C299.377 142.072 299.265 141.713 299.265 141.302C299.265 140.705 299.461 140.224 299.853 139.86C300.245 139.487 300.815 139.3 301.561 139.3C301.767 139.3 301.977 139.314 302.191 139.342C302.415 139.37 302.593 139.403 302.723 139.44V140.294C302.602 140.257 302.443 140.229 302.247 140.21C302.061 140.182 301.888 140.168 301.729 140.168C301.281 140.168 300.936 140.275 300.693 140.49C300.46 140.695 300.343 140.985 300.343 141.358C300.343 141.741 300.474 142.044 300.735 142.268C301.006 142.483 301.389 142.59 301.883 142.59H302.723V143.486H301.897C301.393 143.486 301.001 143.603 300.721 143.836C300.441 144.06 300.301 144.401 300.301 144.858C300.301 145.334 300.511 145.703 300.931 145.964C301.361 146.216 301.939 146.342 302.667 146.342C303.517 146.342 304.142 146.155 304.543 145.782C304.954 145.399 305.159 144.867 305.159 144.186V139.51H306.237V144.158C306.237 144.681 306.125 145.171 305.901 145.628C305.677 146.085 305.299 146.463 304.767 146.762C304.235 147.061 303.535 147.21 302.667 147.21ZM311.096 147.21C310.182 147.21 309.472 146.967 308.968 146.482C308.464 145.997 308.212 145.348 308.212 144.536V139.51H309.29V144.494C309.29 145.101 309.463 145.563 309.808 145.88C310.154 146.188 310.667 146.342 311.348 146.342C312.412 146.342 313.252 145.866 313.868 144.914V139.51H314.946V147H313.896V145.894C313.551 146.342 313.15 146.673 312.692 146.888C312.235 147.103 311.703 147.21 311.096 147.21Z" fill="black"/>
<rect x="31.5" y="187.5" width="326" height="43" rx="7.5" fill="white"/>
<rect x="31.5" y="187.5" width="326" height="43" rx="7.5" stroke="#D3D3D3"/>
<path d="M49.682 214.21C49.1033 214.21 48.5433 214.14 48.002 214C47.4607 213.869 47.0033 213.683 46.63 213.44V209.716H49.738V210.864H48.058V212.726C48.4593 212.969 49.0007 213.09 49.682 213.09C50.578 213.09 51.2593 212.843 51.726 212.348C52.202 211.853 52.44 211.135 52.44 210.192C52.44 209.249 52.1973 208.554 51.712 208.106C51.236 207.658 50.452 207.434 49.36 207.434C48.8653 207.434 48.38 207.485 47.904 207.588C47.428 207.681 47.0267 207.835 46.7 208.05V206.916C47.064 206.711 47.4933 206.557 47.988 206.454C48.4827 206.351 49.0147 206.3 49.584 206.3C50.984 206.3 52.0527 206.641 52.79 207.322C53.5273 208.003 53.896 208.96 53.896 210.192C53.896 211.433 53.5273 212.413 52.79 213.132C52.062 213.851 51.026 214.21 49.682 214.21ZM47.5592 204.438H52.3052V202.94H53.6073V205.404H47.5592V204.438ZM56.8413 214C56.3839 214 56.0339 213.874 55.7913 213.622C55.5579 213.361 55.4413 212.997 55.4413 212.53V206.51H56.8693V212.138C56.8693 212.39 56.9206 212.567 57.0233 212.67C57.1259 212.763 57.3033 212.81 57.5553 212.81H58.0593V214H56.8413ZM63.6715 214.21C63.1582 214.21 62.6682 214.107 62.2015 213.902C61.7442 213.697 61.3335 213.393 60.9695 212.992V214H59.5975V206.51H61.0255V211.802C61.5762 212.661 62.3322 213.09 63.2935 213.09C63.9002 213.09 64.3575 212.95 64.6655 212.67C64.9828 212.381 65.1415 211.956 65.1415 211.396V206.51H66.5695V211.452C66.5695 212.264 66.3128 212.927 65.7995 213.44C65.2862 213.953 64.5768 214.21 63.6715 214.21ZM70.8245 214.21C69.9938 214.21 69.3312 214.005 68.8365 213.594C68.3512 213.174 68.1085 212.581 68.1085 211.816C68.1085 211.06 68.3792 210.458 68.9205 210.01C69.4712 209.562 70.2132 209.338 71.1465 209.338C72.0705 209.338 72.9012 209.511 73.6385 209.856V209.282C73.6385 208.638 73.4612 208.171 73.1065 207.882C72.7612 207.583 72.1825 207.434 71.3705 207.434C70.9225 207.434 70.4838 207.476 70.0545 207.56C69.6252 207.644 69.2518 207.761 68.9345 207.91V206.79C69.2238 206.65 69.6158 206.533 70.1105 206.44C70.6145 206.347 71.1045 206.3 71.5805 206.3C72.7472 206.3 73.6198 206.566 74.1985 207.098C74.7772 207.63 75.0665 208.349 75.0665 209.254V214H73.6385V210.99C72.9572 210.645 72.1778 210.472 71.3005 210.472C70.6938 210.472 70.2458 210.584 69.9565 210.808C69.6765 211.032 69.5365 211.368 69.5365 211.816C69.5365 212.665 70.0825 213.09 71.1745 213.09C71.5105 213.09 71.8045 213.043 72.0565 212.95V214.056C71.7205 214.159 71.3098 214.21 70.8245 214.21Z" fill="#4E5256"/>
<path d="M42.8095 99.5268C42.068 100.323 40.8068 100.323 40.0652 99.5268L28.2697 86.8632C27.5544 86.0952 27.5544 84.9048 28.2697 84.1368L40.0652 71.4732C40.8068 70.677 42.068 70.677 42.8095 71.4732C43.4802 72.1932 43.4802 73.3093 42.8095 74.0293L33.395 84.1368C32.6796 84.9048 32.6796 86.0952 33.395 86.8632L42.8095 96.9707C43.4802 97.6907 43.4802 98.8068 42.8095 99.5268Z" fill="#535353"/>
<rect x="86" y="262" width="217" height="44" rx="22" fill="#16AD78"/>
<path d="M178.412 289.24C177.079 289.24 176.012 289 175.212 288.52C174.412 288.029 174.012 287.331 174.012 286.424C174.012 286.008 174.124 285.635 174.348 285.304C174.583 284.963 174.892 284.717 175.276 284.568C174.924 284.387 174.636 284.125 174.412 283.784C174.199 283.443 174.092 283.069 174.092 282.664C174.092 281.917 174.353 281.32 174.876 280.872C175.409 280.424 176.177 280.2 177.18 280.2C177.489 280.2 177.793 280.221 178.092 280.264C178.401 280.307 178.636 280.355 178.796 280.408V282.232C178.647 282.168 178.465 282.115 178.252 282.072C178.049 282.029 177.863 282.008 177.692 282.008C176.945 282.008 176.572 282.285 176.572 282.84C176.572 283.128 176.663 283.347 176.844 283.496C177.036 283.635 177.329 283.704 177.724 283.704H178.796V285.416H177.724C176.913 285.416 176.508 285.736 176.508 286.376C176.508 286.717 176.668 286.984 176.988 287.176C177.319 287.357 177.793 287.448 178.412 287.448C179.159 287.448 179.703 287.299 180.044 287C180.396 286.691 180.572 286.232 180.572 285.624V280.424H183.004V285.608C183.004 286.216 182.849 286.797 182.54 287.352C182.231 287.896 181.735 288.349 181.052 288.712C180.369 289.064 179.489 289.24 178.412 289.24ZM175.62 277.848H178.596V276.152H180.276V277.848H181.348V276.152H183.012V279.384H175.62V277.848ZM188.004 289.24C187.31 289.24 186.713 289.096 186.212 288.808C185.71 288.52 185.326 288.125 185.06 287.624C184.804 287.123 184.676 286.563 184.676 285.944V280.44H187.108V285.8C187.108 286.835 187.657 287.352 188.756 287.352C189.204 287.352 189.588 287.261 189.908 287.08C190.238 286.888 190.526 286.595 190.772 286.2V280.44H193.188V289H190.884V288.04C190.51 288.435 190.068 288.733 189.556 288.936C189.054 289.139 188.537 289.24 188.004 289.24ZM198.943 289.24C197.61 289.24 196.543 289 195.743 288.52C194.943 288.029 194.543 287.331 194.543 286.424C194.543 286.008 194.655 285.635 194.879 285.304C195.114 284.963 195.423 284.717 195.807 284.568C195.455 284.387 195.167 284.125 194.943 283.784C194.73 283.443 194.623 283.069 194.623 282.664C194.623 281.917 194.885 281.32 195.407 280.872C195.941 280.424 196.709 280.2 197.711 280.2C198.021 280.2 198.325 280.221 198.623 280.264C198.933 280.307 199.167 280.355 199.327 280.408V282.232C199.178 282.168 198.997 282.115 198.783 282.072C198.581 282.029 198.394 282.008 198.223 282.008C197.477 282.008 197.103 282.285 197.103 282.84C197.103 283.128 197.194 283.347 197.375 283.496C197.567 283.635 197.861 283.704 198.255 283.704H199.327V285.416H198.255C197.445 285.416 197.039 285.736 197.039 286.376C197.039 286.717 197.199 286.984 197.519 287.176C197.85 287.357 198.325 287.448 198.943 287.448C199.69 287.448 200.234 287.299 200.575 287C200.927 286.691 201.103 286.232 201.103 285.624V280.424H203.535V285.608C203.535 286.216 203.381 286.797 203.071 287.352C202.762 287.896 202.266 288.349 201.583 288.712C200.901 289.064 200.021 289.24 198.943 289.24ZM200.231 279.384C199.207 279.384 198.695 278.867 198.695 277.832V276.664H200.871V277.448C200.871 277.597 200.903 277.704 200.967 277.768C201.02 277.821 201.127 277.848 201.287 277.848H204.935V279.384H200.231ZM208.535 289.24C207.842 289.24 207.244 289.096 206.743 288.808C206.242 288.52 205.858 288.125 205.591 287.624C205.335 287.123 205.207 286.563 205.207 285.944V280.44H207.639V285.8C207.639 286.835 208.188 287.352 209.287 287.352C209.735 287.352 210.119 287.261 210.439 287.08C210.77 286.888 211.058 286.595 211.303 286.2V280.44H213.719V289H211.415V288.04C211.042 288.435 210.599 288.733 210.087 288.936C209.586 289.139 209.068 289.24 208.535 289.24Z" fill="white"/>
</svg>
