<svg width="390" height="849" viewBox="0 0 390 849" fill="none" xmlns="http://www.w3.org/2000/svg">
<rect y="5" width="390" height="844" rx="32" fill="#C5C5C5"/>
<path d="M54.0688 36V26.1304H53.9194L50.9395 28.2305V26.2217L54.0688 24.022H56.2021V36H54.0688ZM63.4219 36.2988C62.4701 36.2988 61.6538 36.0443 60.9731 35.5352C60.298 35.026 59.7778 34.3011 59.4126 33.3604C59.0474 32.4196 58.8647 31.3045 58.8647 30.0151V29.9985C58.8647 28.7091 59.0474 27.5968 59.4126 26.6616C59.7778 25.7209 60.298 24.9959 60.9731 24.4868C61.6538 23.9777 62.4701 23.7231 63.4219 23.7231C64.3737 23.7231 65.1899 23.9777 65.8706 24.4868C66.5513 24.9959 67.0742 25.7209 67.4395 26.6616C67.8047 27.5968 67.9873 28.7091 67.9873 29.9985V30.0151C67.9873 31.3045 67.8047 32.4196 67.4395 33.3604C67.0742 34.3011 66.5513 35.026 65.8706 35.5352C65.1899 36.0443 64.3737 36.2988 63.4219 36.2988ZM63.4219 34.564C63.931 34.564 64.3654 34.3813 64.7251 34.0161C65.0848 33.6509 65.3587 33.1307 65.5469 32.4556C65.7406 31.7749 65.8374 30.9614 65.8374 30.0151V29.9985C65.8374 29.0522 65.7406 28.2415 65.5469 27.5664C65.3587 26.8857 65.0848 26.3656 64.7251 26.0059C64.3654 25.6406 63.931 25.458 63.4219 25.458C62.9128 25.458 62.4784 25.6406 62.1187 26.0059C61.7645 26.3656 61.4906 26.8857 61.2969 27.5664C61.1087 28.2415 61.0146 29.0522 61.0146 29.9985V30.0151C61.0146 30.9614 61.1087 31.7749 61.2969 32.4556C61.4906 33.1307 61.7645 33.6509 62.1187 34.0161C62.4784 34.3813 62.9128 34.564 63.4219 34.564ZM71.2974 34.3896C70.9211 34.3896 70.6056 34.2651 70.3511 34.0161C70.1021 33.7616 69.9775 33.4517 69.9775 33.0864C69.9775 32.7157 70.1021 32.4058 70.3511 32.1567C70.6056 31.9022 70.9211 31.7749 71.2974 31.7749C71.6792 31.7749 71.9946 31.9022 72.2437 32.1567C72.4927 32.4058 72.6172 32.7157 72.6172 33.0864C72.6172 33.4517 72.4927 33.7616 72.2437 34.0161C71.9946 34.2651 71.6792 34.3896 71.2974 34.3896ZM71.2974 28.2305C70.9211 28.2305 70.6056 28.106 70.3511 27.8569C70.1021 27.6024 69.9775 27.2925 69.9775 26.9272C69.9775 26.5565 70.1021 26.2466 70.3511 25.9976C70.6056 25.743 70.9211 25.6157 71.2974 25.6157C71.6792 25.6157 71.9946 25.743 72.2437 25.9976C72.4927 26.2466 72.6172 26.5565 72.6172 26.9272C72.6172 27.2925 72.4927 27.6024 72.2437 27.8569C71.9946 28.106 71.6792 28.2305 71.2974 28.2305ZM79.1562 36.2988C78.2044 36.2988 77.3882 36.0443 76.7075 35.5352C76.0324 35.026 75.5122 34.3011 75.147 33.3604C74.7817 32.4196 74.5991 31.3045 74.5991 30.0151V29.9985C74.5991 28.7091 74.7817 27.5968 75.147 26.6616C75.5122 25.7209 76.0324 24.9959 76.7075 24.4868C77.3882 23.9777 78.2044 23.7231 79.1562 23.7231C80.1081 23.7231 80.9243 23.9777 81.605 24.4868C82.2856 24.9959 82.8086 25.7209 83.1738 26.6616C83.5391 27.5968 83.7217 28.7091 83.7217 29.9985V30.0151C83.7217 31.3045 83.5391 32.4196 83.1738 33.3604C82.8086 34.3011 82.2856 35.026 81.605 35.5352C80.9243 36.0443 80.1081 36.2988 79.1562 36.2988ZM79.1562 34.564C79.6654 34.564 80.0998 34.3813 80.4595 34.0161C80.8192 33.6509 81.0931 33.1307 81.2812 32.4556C81.4749 31.7749 81.5718 30.9614 81.5718 30.0151V29.9985C81.5718 29.0522 81.4749 28.2415 81.2812 27.5664C81.0931 26.8857 80.8192 26.3656 80.4595 26.0059C80.0998 25.6406 79.6654 25.458 79.1562 25.458C78.6471 25.458 78.2127 25.6406 77.853 26.0059C77.4989 26.3656 77.2249 26.8857 77.0312 27.5664C76.8431 28.2415 76.749 29.0522 76.749 29.9985V30.0151C76.749 30.9614 76.8431 31.7749 77.0312 32.4556C77.2249 33.1307 77.4989 33.6509 77.853 34.0161C78.2127 34.3813 78.6471 34.564 79.1562 34.564ZM89.9619 36.2988C89.0101 36.2988 88.1938 36.0443 87.5132 35.5352C86.8381 35.026 86.3179 34.3011 85.9526 33.3604C85.5874 32.4196 85.4048 31.3045 85.4048 30.0151V29.9985C85.4048 28.7091 85.5874 27.5968 85.9526 26.6616C86.3179 25.7209 86.8381 24.9959 87.5132 24.4868C88.1938 23.9777 89.0101 23.7231 89.9619 23.7231C90.9137 23.7231 91.73 23.9777 92.4106 24.4868C93.0913 24.9959 93.6143 25.7209 93.9795 26.6616C94.3447 27.5968 94.5273 28.7091 94.5273 29.9985V30.0151C94.5273 31.3045 94.3447 32.4196 93.9795 33.3604C93.6143 34.3011 93.0913 35.026 92.4106 35.5352C91.73 36.0443 90.9137 36.2988 89.9619 36.2988ZM89.9619 34.564C90.471 34.564 90.9054 34.3813 91.2651 34.0161C91.6248 33.6509 91.8988 33.1307 92.0869 32.4556C92.2806 31.7749 92.3774 30.9614 92.3774 30.0151V29.9985C92.3774 29.0522 92.2806 28.2415 92.0869 27.5664C91.8988 26.8857 91.6248 26.3656 91.2651 26.0059C90.9054 25.6406 90.471 25.458 89.9619 25.458C89.4528 25.458 89.0184 25.6406 88.6587 26.0059C88.3045 26.3656 88.0306 26.8857 87.8369 27.5664C87.6488 28.2415 87.5547 29.0522 87.5547 29.9985V30.0151C87.5547 30.9614 87.6488 31.7749 87.8369 32.4556C88.0306 33.1307 88.3045 33.6509 88.6587 34.0161C89.0184 34.3813 89.4528 34.564 89.9619 34.564Z" fill="black"/>
<path d="M288.333 31C288.977 31 289.5 31.5037 289.5 32.125V34.375C289.5 34.9963 288.977 35.5 288.333 35.5H287.167C286.523 35.5 286 34.9963 286 34.375V32.125C286 31.5037 286.523 31 287.167 31H288.333ZM293.823 28.75C294.468 28.75 294.99 29.2537 294.99 29.875V34.375C294.99 34.9963 294.468 35.5 293.823 35.5H292.657C292.013 35.5 291.49 34.9963 291.49 34.375V29.875C291.49 29.2537 292.013 28.75 292.657 28.75H293.823ZM299.313 26.125C299.958 26.125 300.48 26.6287 300.48 27.25V34.375C300.48 34.9963 299.958 35.5 299.313 35.5H298.147C297.503 35.5 296.98 34.9963 296.98 34.375V27.25C296.981 26.6287 297.503 26.125 298.147 26.125H299.313ZM304.804 23.5C305.448 23.5 305.971 24.0037 305.971 24.625V34.375C305.971 34.9963 305.448 35.5 304.804 35.5H303.638C302.993 35.5 302.471 34.9963 302.471 34.375V24.625C302.471 24.0037 302.993 23.5 303.638 23.5H304.804Z" fill="black"/>
<path d="M318.512 32.8262C319.932 31.5964 322.011 31.5964 323.431 32.8262C323.502 32.8924 323.544 32.9855 323.546 33.084C323.548 33.1826 323.51 33.2777 323.441 33.3467L321.218 35.6446C321.153 35.7121 321.063 35.7501 320.971 35.7501C320.878 35.7499 320.79 35.7119 320.725 35.6446L318.501 33.3467C318.432 33.2776 318.394 33.1826 318.396 33.084C318.399 32.9855 318.44 32.8923 318.512 32.8262ZM315.545 29.7608C318.604 26.8467 323.341 26.8467 326.4 29.7608C326.469 29.829 326.509 29.9225 326.51 30.0206C326.511 30.1188 326.473 30.2135 326.405 30.2833L325.12 31.6133C324.988 31.7491 324.774 31.7524 324.638 31.6202C323.633 30.6886 322.326 30.1728 320.971 30.1729C319.617 30.1736 318.311 30.6895 317.308 31.6202C317.172 31.7524 316.958 31.7491 316.825 31.6133L315.54 30.2833C315.472 30.2136 315.435 30.1189 315.436 30.0206C315.437 29.9224 315.476 29.829 315.545 29.7608ZM312.578 26.7032C317.27 22.0989 324.671 22.099 329.363 26.7032C329.431 26.7716 329.47 26.8654 329.471 26.963C329.471 27.0605 329.433 27.1545 329.366 27.2237L328.08 28.5538C327.947 28.6901 327.732 28.691 327.598 28.5567C325.81 26.8164 323.437 25.8459 320.971 25.8458C318.504 25.8459 316.131 26.8163 314.344 28.5567C314.209 28.6913 313.994 28.6904 313.861 28.5538L312.574 27.2237C312.507 27.1545 312.47 27.0605 312.471 26.963C312.471 26.8654 312.51 26.7715 312.578 26.7032Z" fill="black"/>
<rect opacity="0.4" x="336.471" y="23.5" width="24" height="12" rx="3.5" stroke="black"/>
<path opacity="0.5" d="M361.971 27.5V31.5C362.777 31.1612 363.301 30.3731 363.301 29.5C363.301 28.6269 362.777 27.8388 361.971 27.5Z" fill="black"/>
<rect x="337.971" y="25" width="17" height="9" rx="2" fill="black"/>
<path d="M0 759H390V817C390 834.673 375.673 849 358 849H32C14.3269 849 0 834.673 0 817V759Z" fill="#C5C5C5"/>
<line y1="758.75" x2="390" y2="758.75" stroke="#5F6368" stroke-opacity="0.4" stroke-width="0.5"/>
<path d="M281 759H369C369 761.209 367.209 763 365 763H285C282.791 763 281 761.209 281 759Z" fill="#2976C3"/>
<path fill-rule="evenodd" clip-rule="evenodd" d="M121 838.5C121 837.119 122.119 836 123.5 836H266.5C267.881 836 269 837.119 269 838.5C269 839.881 267.881 841 266.5 841H123.5C122.119 841 121 839.881 121 838.5Z" fill="#090A0A"/>
<path d="M55.5 789.75H59.25V782.25H66.75V789.75H70.5V778.5L63 772.875L55.5 778.5V789.75ZM53 792.25V777.25L58 773.5L63 769.75L73 777.25V792.25H64.25V784.75H61.75V792.25H53Z" fill="#4E5256"/>
<path d="M41.845 803.045H43.171V806.113L46.538 803.045H48.085L46.187 804.774C46.8977 804.956 47.3917 805.246 47.669 805.645C47.955 806.044 48.098 806.577 48.098 807.244V810H46.772V807.322C46.772 806.802 46.6637 806.408 46.447 806.139C46.239 805.87 45.875 805.68 45.355 805.567L43.171 807.556V810H41.845V803.045ZM52.4833 810.195C51.6339 810.195 50.9709 809.957 50.4943 809.48C50.0263 809.003 49.7923 808.388 49.7923 807.634V803.045H51.1183V807.582C51.1183 808.102 51.2613 808.496 51.5473 808.765C51.8419 809.025 52.2709 809.155 52.8343 809.155C53.7269 809.155 54.4289 808.756 54.9403 807.959V803.045H56.2663V810H54.9793V809.064C54.3293 809.818 53.4973 810.195 52.4833 810.195ZM53.4704 801.199C53.4704 801.095 53.453 801.021 53.4184 800.978C53.375 800.935 53.3014 800.913 53.1974 800.913H52.6124V799.977H53.5874C53.8647 799.977 54.0684 800.046 54.1984 800.185C54.3197 800.315 54.3804 800.48 54.3804 800.679V801.134H57.0454V802.018H53.4704V801.199ZM60.3994 805.502C60.3994 804.947 60.2867 804.544 60.0614 804.293C59.836 804.033 59.4374 803.903 58.8654 803.903C58.3107 803.903 57.7907 804.024 57.3054 804.267V803.227C57.5134 803.123 57.782 803.036 58.1114 802.967C58.4494 802.889 58.783 802.85 59.1124 802.85C59.9877 802.85 60.642 803.088 61.0754 803.565C61.5087 804.033 61.7254 804.709 61.7254 805.593V810H60.3994V805.502ZM63.4143 803.045H64.7403V806.113L68.1073 803.045H69.6543L67.7563 804.774C68.467 804.956 68.961 805.246 69.2383 805.645C69.5243 806.044 69.6673 806.577 69.6673 807.244V810H68.3413V807.322C68.3413 806.802 68.233 806.408 68.0163 806.139C67.8083 805.87 67.4443 805.68 66.9243 805.567L64.7403 807.556V810H63.4143V803.045ZM73.6236 810.195C72.8523 810.195 72.2369 810.004 71.7776 809.623C71.3269 809.233 71.1016 808.683 71.1016 807.972C71.1016 807.27 71.3529 806.711 71.8556 806.295C72.3669 805.879 73.0559 805.671 73.9226 805.671C74.7806 805.671 75.5519 805.831 76.2366 806.152V805.619C76.2366 805.021 76.0719 804.588 75.7426 804.319C75.4219 804.042 74.8846 803.903 74.1306 803.903C73.7146 803.903 73.3073 803.942 72.9086 804.02C72.5099 804.098 72.1633 804.206 71.8686 804.345V803.305C72.1373 803.175 72.5013 803.067 72.9606 802.98C73.4286 802.893 73.8836 802.85 74.3256 802.85C75.4089 802.85 76.2193 803.097 76.7566 803.591C77.2939 804.085 77.5626 804.752 77.5626 805.593V810H76.2366V807.205C75.6039 806.884 74.8803 806.724 74.0656 806.724C73.5023 806.724 73.0863 806.828 72.8176 807.036C72.5576 807.244 72.4276 807.556 72.4276 807.972C72.4276 808.761 72.9346 809.155 73.9486 809.155C74.2606 809.155 74.5336 809.112 74.7676 809.025V810.052C74.4556 810.147 74.0743 810.195 73.6236 810.195ZM75.1241 802.018C74.7514 802.018 74.4828 801.927 74.3181 801.745C74.1448 801.554 74.0581 801.273 74.0581 800.9V800.224H75.2541V800.744C75.2541 800.891 75.2844 800.991 75.3451 801.043C75.3971 801.095 75.5011 801.121 75.6571 801.121H78.7251V802.018H75.1241ZM79.6481 805.671L78.9981 804.618C79.4574 804.037 79.9818 803.6 80.5711 803.305C81.1604 803.002 81.8581 802.85 82.6641 802.85C83.7041 802.85 84.5014 803.088 85.0561 803.565C85.6108 804.033 85.8881 804.692 85.8881 805.541V810H84.5621V805.645C84.5621 805.047 84.4018 804.609 84.0811 804.332C83.7691 804.046 83.2968 803.903 82.6641 803.903C82.1874 803.903 81.7671 803.977 81.4031 804.124C81.0391 804.263 80.7098 804.488 80.4151 804.8L80.9741 805.671V810H79.6481V805.671Z" fill="#4E5256"/>
<path d="M197 792C194.189 792 191.739 791.068 189.651 789.204C187.563 787.34 186.367 785.013 186.061 782.222H188.567C188.852 784.341 189.794 786.093 191.393 787.478C192.992 788.863 194.861 789.556 197 789.556C199.383 789.556 201.405 788.725 203.065 787.065C204.725 785.405 205.556 783.383 205.556 781C205.556 778.617 204.725 776.595 203.065 774.935C201.405 773.275 199.383 772.444 197 772.444C195.594 772.444 194.281 772.77 193.058 773.422C191.836 774.074 190.807 774.97 189.972 776.111H193.333V778.556H186V771.222H188.444V774.094C189.483 772.791 190.751 771.782 192.249 771.069C193.746 770.356 195.33 770 197 770C198.528 770 199.959 770.29 201.293 770.871C202.627 771.451 203.788 772.236 204.776 773.224C205.764 774.212 206.549 775.373 207.129 776.707C207.71 778.041 208 779.472 208 781C208 782.528 207.71 783.959 207.129 785.293C206.549 786.627 205.764 787.788 204.776 788.776C203.788 789.764 202.627 790.549 201.293 791.129C199.959 791.71 198.528 792 197 792ZM200.422 786.133L195.778 781.489V774.889H198.222V780.511L202.133 784.422L200.422 786.133Z" fill="#4E5256"/>
<path d="M156.186 810.195C155.51 810.195 154.921 810.074 154.418 809.831C153.915 809.588 153.525 809.25 153.248 808.817C152.979 808.375 152.845 807.872 152.845 807.309V803.045H154.171V807.283C154.171 807.864 154.34 808.323 154.678 808.661C155.025 808.99 155.527 809.155 156.186 809.155C156.836 809.155 157.33 808.99 157.668 808.661C158.015 808.323 158.188 807.864 158.188 807.283V800.718H159.514V807.309C159.514 807.872 159.375 808.375 159.098 808.817C158.829 809.25 158.444 809.588 157.941 809.831C157.438 810.074 156.853 810.195 156.186 810.195ZM163.591 810.195C163.114 810.195 162.629 810.139 162.135 810.026C161.641 809.922 161.255 809.766 160.978 809.558V808.492C161.35 808.717 161.758 808.891 162.2 809.012C162.65 809.125 163.079 809.181 163.487 809.181C164.059 809.181 164.47 809.116 164.722 808.986C164.973 808.847 165.099 808.613 165.099 808.284C165.099 808.059 165.038 807.877 164.917 807.738C164.795 807.599 164.609 807.478 164.358 807.374C164.115 807.27 163.729 807.14 163.201 806.984C162.438 806.75 161.87 806.477 161.498 806.165C161.125 805.844 160.939 805.402 160.939 804.839C160.939 804.198 161.186 803.708 161.68 803.37C162.174 803.023 162.85 802.85 163.708 802.85C164.15 802.85 164.574 802.902 164.982 803.006C165.398 803.101 165.74 803.231 166.009 803.396V804.488C165.714 804.306 165.376 804.163 164.995 804.059C164.613 803.955 164.223 803.903 163.825 803.903C162.785 803.903 162.265 804.215 162.265 804.839C162.265 805.073 162.334 805.259 162.473 805.398C162.62 805.537 162.811 805.654 163.045 805.749C163.287 805.836 163.69 805.961 164.254 806.126C164.808 806.291 165.242 806.468 165.554 806.659C165.866 806.85 166.087 807.075 166.217 807.335C166.347 807.595 166.412 807.916 166.412 808.297C166.412 808.869 166.178 809.328 165.71 809.675C165.242 810.022 164.535 810.195 163.591 810.195ZM168.618 805.775C168.237 805.775 167.968 805.688 167.812 805.515C167.656 805.342 167.578 805.077 167.578 804.722V803.981H168.774V804.475C168.774 804.614 168.804 804.713 168.865 804.774C168.926 804.826 169.034 804.852 169.19 804.852H170.711V805.775H168.618ZM168.618 809.324C168.237 809.324 167.968 809.237 167.812 809.064C167.656 808.891 167.578 808.626 167.578 808.271V807.53H168.774V808.024C168.774 808.163 168.804 808.262 168.865 808.323C168.926 808.375 169.034 808.401 169.19 808.401H170.711V809.324H168.618ZM174.417 810.195C173.325 810.195 172.48 810 171.882 809.61V808.544C172.463 808.951 173.221 809.155 174.157 809.155C175.006 809.155 175.665 808.934 176.133 808.492C176.61 808.05 176.848 807.396 176.848 806.529C176.848 805.662 176.61 805.008 176.133 804.566C175.665 804.124 175.006 803.903 174.157 803.903C173.247 803.903 172.497 804.107 171.908 804.514V803.435C172.515 803.045 173.351 802.85 174.417 802.85C175.587 802.85 176.51 803.175 177.186 803.825C177.862 804.466 178.2 805.368 178.2 806.529C178.2 807.69 177.862 808.592 177.186 809.233C176.51 809.874 175.587 810.195 174.417 810.195ZM175.498 802.018C175.125 802.018 174.857 801.927 174.692 801.745C174.519 801.554 174.432 801.273 174.432 800.9V800.224H175.628V800.744C175.628 800.891 175.658 800.991 175.719 801.043C175.771 801.095 175.875 801.121 176.031 801.121H179.099V802.018H175.498ZM182.713 810.195C181.673 810.195 180.854 809.9 180.256 809.311C179.667 808.722 179.372 807.855 179.372 806.711C179.372 805.922 179.48 805.238 179.697 804.657C179.914 804.076 180.208 803.63 180.581 803.318C180.962 803.006 181.396 802.85 181.881 802.85C182.54 802.85 183.003 803.114 183.272 803.643C183.419 803.374 183.64 803.175 183.935 803.045C184.23 802.915 184.559 802.85 184.923 802.85C185.521 802.85 185.967 803.041 186.262 803.422C186.565 803.803 186.717 804.315 186.717 804.956V810H185.391V805.047C185.391 804.657 185.33 804.371 185.209 804.189C185.088 803.998 184.88 803.903 184.585 803.903C184.091 803.903 183.783 804.172 183.662 804.709H182.882C182.839 804.44 182.752 804.241 182.622 804.111C182.501 803.972 182.323 803.903 182.089 803.903C181.682 803.903 181.348 804.146 181.088 804.631C180.837 805.116 180.711 805.81 180.711 806.711C180.711 807.543 180.893 808.158 181.257 808.557C181.621 808.956 182.18 809.155 182.934 809.155C183.263 809.155 183.567 809.112 183.844 809.025V810.052C183.541 810.147 183.164 810.195 182.713 810.195ZM181.086 801.121H186.702V802.018H181.086V801.121ZM188.795 805.671L188.145 804.618C188.604 804.037 189.128 803.6 189.718 803.305C190.307 803.002 191.005 802.85 191.811 802.85C192.851 802.85 193.648 803.088 194.203 803.565C194.757 804.033 195.035 804.692 195.035 805.541V810H193.709V805.645C193.709 805.047 193.548 804.609 193.228 804.332C192.916 804.046 192.443 803.903 191.811 803.903C191.334 803.903 190.914 803.977 190.55 804.124C190.186 804.263 189.856 804.488 189.562 804.8L190.121 805.671V810H188.795V805.671ZM199.164 805.502C199.164 804.947 199.051 804.544 198.826 804.293C198.601 804.033 198.202 803.903 197.63 803.903C197.075 803.903 196.555 804.024 196.07 804.267V803.227C196.278 803.123 196.547 803.036 196.876 802.967C197.214 802.889 197.548 802.85 197.877 802.85C198.752 802.85 199.407 803.088 199.84 803.565C200.273 804.033 200.49 804.709 200.49 805.593V810H199.164V805.502ZM204.571 810.195C204.094 810.195 203.609 810.139 203.115 810.026C202.621 809.922 202.235 809.766 201.958 809.558V808.492C202.331 808.717 202.738 808.891 203.18 809.012C203.631 809.125 204.06 809.181 204.467 809.181C205.039 809.181 205.451 809.116 205.702 808.986C205.953 808.847 206.079 808.613 206.079 808.284C206.079 808.059 206.018 807.877 205.897 807.738C205.776 807.599 205.589 807.478 205.338 807.374C205.095 807.27 204.71 807.14 204.181 806.984C203.418 806.75 202.851 806.477 202.478 806.165C202.105 805.844 201.919 805.402 201.919 804.839C201.919 804.198 202.166 803.708 202.66 803.37C203.154 803.023 203.83 802.85 204.688 802.85C205.13 802.85 205.555 802.902 205.962 803.006C206.378 803.101 206.72 803.231 206.989 803.396V804.488C206.694 804.306 206.356 804.163 205.975 804.059C205.594 803.955 205.204 803.903 204.805 803.903C203.765 803.903 203.245 804.215 203.245 804.839C203.245 805.073 203.314 805.259 203.453 805.398C203.6 805.537 203.791 805.654 204.025 805.749C204.268 805.836 204.671 805.961 205.234 806.126C205.789 806.291 206.222 806.468 206.534 806.659C206.846 806.85 207.067 807.075 207.197 807.335C207.327 807.595 207.392 807.916 207.392 808.297C207.392 808.869 207.158 809.328 206.69 809.675C206.222 810.022 205.516 810.195 204.571 810.195ZM208.819 803.045H210.145V806.113L213.512 803.045H215.059L213.161 804.774C213.871 804.956 214.365 805.246 214.643 805.645C214.929 806.044 215.072 806.577 215.072 807.244V810H213.746V807.322C213.746 806.802 213.637 806.408 213.421 806.139C213.213 805.87 212.849 805.68 212.329 805.567L210.145 807.556V810H208.819V803.045ZM217.156 805.671L216.506 804.618C216.965 804.037 217.49 803.6 218.079 803.305C218.668 803.002 219.366 802.85 220.172 802.85C221.212 802.85 222.009 803.088 222.564 803.565C223.119 804.033 223.396 804.692 223.396 805.541V810H222.07V805.645C222.07 805.047 221.91 804.609 221.589 804.332C221.277 804.046 220.805 803.903 220.172 803.903C219.695 803.903 219.275 803.977 218.911 804.124C218.547 804.263 218.218 804.488 217.923 804.8L218.482 805.671V810H217.156V805.671ZM227.343 810.195C226.572 810.195 225.957 810.004 225.497 809.623C225.047 809.233 224.821 808.683 224.821 807.972C224.821 807.27 225.073 806.711 225.575 806.295C226.087 805.879 226.776 805.671 227.642 805.671C228.5 805.671 229.272 805.831 229.956 806.152V805.619C229.956 805.021 229.792 804.588 229.462 804.319C229.142 804.042 228.604 803.903 227.85 803.903C227.434 803.903 227.027 803.942 226.628 804.02C226.23 804.098 225.883 804.206 225.588 804.345V803.305C225.857 803.175 226.221 803.067 226.68 802.98C227.148 802.893 227.603 802.85 228.045 802.85C229.129 802.85 229.939 803.097 230.476 803.591C231.014 804.085 231.282 804.752 231.282 805.593V810H229.956V807.205C229.324 806.884 228.6 806.724 227.785 806.724C227.222 806.724 226.806 806.828 226.537 807.036C226.277 807.244 226.147 807.556 226.147 807.972C226.147 808.761 226.654 809.155 227.668 809.155C227.98 809.155 228.253 809.112 228.487 809.025V810.052C228.175 810.147 227.794 810.195 227.343 810.195ZM228.493 801.199C228.493 801.095 228.475 801.021 228.441 800.978C228.397 800.935 228.324 800.913 228.22 800.913H227.635V799.977H228.61C228.887 799.977 229.091 800.046 229.221 800.185C229.342 800.315 229.403 800.48 229.403 800.679V801.134H232.068V802.018H228.493V801.199ZM236.761 810.195C236.284 810.195 235.829 810.1 235.396 809.909C234.971 809.718 234.59 809.437 234.252 809.064V810H232.978V803.045H234.304V807.959C234.815 808.756 235.517 809.155 236.41 809.155C236.973 809.155 237.398 809.025 237.684 808.765C237.978 808.496 238.126 808.102 238.126 807.582V803.045H239.452V807.634C239.452 808.388 239.213 809.003 238.737 809.48C238.26 809.957 237.601 810.195 236.761 810.195Z" fill="#4E5256"/>
<path d="M316.419 810.195C315.882 810.195 315.362 810.13 314.859 810C314.356 809.879 313.932 809.705 313.585 809.48V806.022H316.471V807.088H314.911V808.817C315.284 809.042 315.786 809.155 316.419 809.155C317.251 809.155 317.884 808.925 318.317 808.466C318.759 808.007 318.98 807.339 318.98 806.464C318.98 805.589 318.755 804.943 318.304 804.527C317.862 804.111 317.134 803.903 316.12 803.903C315.661 803.903 315.21 803.951 314.768 804.046C314.326 804.133 313.953 804.276 313.65 804.475V803.422C313.988 803.231 314.387 803.088 314.846 802.993C315.305 802.898 315.799 802.85 316.328 802.85C317.628 802.85 318.62 803.166 319.305 803.799C319.99 804.432 320.332 805.32 320.332 806.464C320.332 807.617 319.99 808.527 319.305 809.194C318.629 809.861 317.667 810.195 316.419 810.195ZM314.461 801.147H317.074V799.73H318.049V801.147H319.102V799.73H320.064V802.018H314.461V801.147ZM318.868 797.572H320.064V799.301H318.868V797.572ZM324.458 810.195C323.609 810.195 322.946 809.957 322.469 809.48C322.001 809.003 321.767 808.388 321.767 807.634V803.045H323.093V807.582C323.093 808.102 323.236 808.496 323.522 808.765C323.817 809.025 324.246 809.155 324.809 809.155C325.702 809.155 326.404 808.756 326.915 807.959V803.045H328.241V810H326.954V809.064C326.304 809.818 325.472 810.195 324.458 810.195ZM334.688 804.956C334.688 804.583 334.632 804.315 334.519 804.15C334.406 803.985 334.207 803.903 333.921 803.903C333.67 803.903 333.479 803.972 333.349 804.111C333.219 804.241 333.132 804.44 333.089 804.709H332.296C332.253 804.423 332.183 804.219 332.088 804.098C332.001 803.968 331.841 803.903 331.607 803.903C331.338 803.903 331.126 804.02 330.97 804.254C330.823 804.479 330.749 804.822 330.749 805.281C330.749 806.078 331.161 806.477 331.984 806.477C332.331 806.477 332.634 806.434 332.894 806.347V807.374C332.547 807.469 332.17 807.517 331.763 807.517C331.078 807.517 330.515 807.335 330.073 806.971C329.631 806.607 329.41 806.044 329.41 805.281C329.41 804.553 329.575 803.968 329.904 803.526C330.233 803.075 330.723 802.85 331.373 802.85C332.006 802.85 332.452 803.114 332.712 803.643C332.972 803.114 333.444 802.85 334.129 802.85C334.814 802.85 335.299 803.045 335.585 803.435C335.871 803.825 336.014 804.371 336.014 805.073V810H334.688V804.956Z" fill="#2976C3"/>
<path d="M309 792V789H337V792H309ZM309 784.5V781.5H337V784.5H309ZM309 777V774H337V777H309Z" fill="#2976C3"/>
<line x1="38" y1="140.5" x2="350" y2="140.5" stroke="black"/>
<line x1="38" y1="211.5" x2="350" y2="211.5" stroke="black"/>
<line x1="38" y1="282.5" x2="350" y2="282.5" stroke="black"/>
<path d="M39.216 117V113.96C39.216 113.288 39.3653 112.803 39.664 112.504C39.9627 112.195 40.3413 111.981 40.8 111.864L40.816 111.816L39.056 111.144V110.616C39.056 110.179 39.2 109.768 39.488 109.384C39.776 108.989 40.1867 108.675 40.72 108.44C41.264 108.195 41.9093 108.072 42.656 108.072C43.3067 108.072 43.9093 108.179 44.464 108.392C45.0187 108.595 45.4613 108.92 45.792 109.368C46.1333 109.805 46.304 110.381 46.304 111.096V117H44.88V111.24C44.88 110.525 44.6613 110.019 44.224 109.72C43.7973 109.411 43.2693 109.256 42.64 109.256C41.9893 109.256 41.472 109.395 41.088 109.672C40.704 109.939 40.512 110.28 40.512 110.696L42.24 111.56L42.112 112.328C41.7173 112.328 41.3707 112.461 41.072 112.728C40.784 112.984 40.64 113.395 40.64 113.96V117H39.216ZM51.3698 117V110.776C51.3698 110.253 51.2471 109.869 51.0018 109.624C50.7671 109.379 50.3671 109.256 49.8018 109.256C49.4178 109.256 49.0551 109.309 48.7138 109.416C48.3831 109.512 48.0631 109.651 47.7538 109.832V108.552C47.9671 108.445 48.2711 108.339 48.6658 108.232C49.0604 108.125 49.5298 108.072 50.0738 108.072C50.6284 108.072 51.1084 108.152 51.5138 108.312C51.9191 108.472 52.2338 108.739 52.4578 109.112C52.6818 109.475 52.7938 109.96 52.7938 110.568V117H51.3698ZM57.8538 117.16C57.2244 117.16 56.6378 117.101 56.0938 116.984C55.5604 116.856 55.1071 116.707 54.7338 116.536L55.1497 115.384C55.3738 115.469 55.6298 115.56 55.9178 115.656C56.2058 115.752 56.5151 115.832 56.8458 115.896C57.1871 115.949 57.5338 115.976 57.8858 115.976C58.4511 115.976 58.9204 115.869 59.2938 115.656C59.6671 115.443 59.8538 115.133 59.8538 114.728C59.8538 114.483 59.7844 114.275 59.6458 114.104C59.5178 113.923 59.3151 113.757 59.0378 113.608C58.7604 113.459 58.4031 113.315 57.9658 113.176C57.2938 112.963 56.7231 112.739 56.2538 112.504C55.7951 112.259 55.4431 111.971 55.1978 111.64C54.9631 111.299 54.8458 110.877 54.8458 110.376C54.8458 109.928 54.9631 109.533 55.1978 109.192C55.4431 108.84 55.8164 108.568 56.3178 108.376C56.8298 108.173 57.4804 108.072 58.2698 108.072C58.7818 108.072 59.2618 108.12 59.7098 108.216C60.1684 108.301 60.5258 108.424 60.7818 108.584V109.784C60.6004 109.699 60.3711 109.613 60.0938 109.528C59.8271 109.443 59.5338 109.373 59.2138 109.32C58.8938 109.267 58.5631 109.24 58.2218 109.24C57.5071 109.24 57.0004 109.352 56.7018 109.576C56.4138 109.789 56.2698 110.035 56.2698 110.312C56.2698 110.547 56.3338 110.744 56.4618 110.904C56.6004 111.064 56.8298 111.219 57.1498 111.368C57.4804 111.517 57.9231 111.688 58.4778 111.88C58.9898 112.051 59.4591 112.248 59.8858 112.472C60.3124 112.696 60.6484 112.979 60.8938 113.32C61.1498 113.651 61.2778 114.077 61.2778 114.6C61.2778 115.048 61.1658 115.469 60.9418 115.864C60.7284 116.248 60.3711 116.563 59.8698 116.808C59.3684 117.043 58.6964 117.16 57.8538 117.16ZM66.3063 117.16C65.4103 117.16 64.7169 116.957 64.2263 116.552C63.7356 116.136 63.3943 115.576 63.2023 114.872C63.0103 114.157 62.9143 113.347 62.9143 112.44C62.9143 111.395 63.0103 110.552 63.2023 109.912C63.4049 109.272 63.6983 108.808 64.0823 108.52C64.4663 108.221 64.9356 108.072 65.4903 108.072C65.8636 108.072 66.1783 108.136 66.4343 108.264C66.7009 108.392 66.8876 108.605 66.9943 108.904H67.0583C67.1649 108.595 67.3569 108.381 67.6343 108.264C67.9116 108.136 68.2369 108.072 68.6103 108.072C69.3036 108.072 69.8369 108.259 70.2103 108.632C70.5943 108.995 70.7863 109.555 70.7863 110.312V117H69.3623V110.328C69.3623 109.912 69.2716 109.629 69.0903 109.48C68.9089 109.331 68.6796 109.256 68.4023 109.256C68.0929 109.256 67.8636 109.331 67.7143 109.48C67.5756 109.629 67.4903 109.875 67.4583 110.216H66.5623C66.5196 109.843 66.4076 109.592 66.2263 109.464C66.0449 109.325 65.8423 109.256 65.6183 109.256C65.1916 109.256 64.8716 109.507 64.6583 110.008C64.4449 110.499 64.3383 111.315 64.3383 112.456C64.3383 113.192 64.3916 113.821 64.4983 114.344C64.6156 114.867 64.8289 115.272 65.1383 115.56C65.4476 115.837 65.8956 115.976 66.4823 115.976C66.6956 115.976 66.8716 115.965 67.0103 115.944C67.1489 115.923 67.2823 115.896 67.4103 115.864L67.5543 116.952C67.3943 117.027 67.2023 117.08 66.9783 117.112C66.7543 117.144 66.5303 117.16 66.3063 117.16ZM68.5596 106.84C68.1116 106.84 67.7543 106.776 67.4876 106.648C67.221 106.52 67.029 106.355 66.9116 106.152C66.7836 105.949 66.7196 105.736 66.7196 105.512C66.7196 105.352 66.7463 105.181 66.7996 105C66.8423 104.808 66.901 104.653 66.9756 104.536L68.1756 104.744C68.1543 104.787 68.133 104.861 68.1116 104.968C68.0903 105.064 68.0796 105.155 68.0796 105.24C68.0796 105.379 68.1223 105.501 68.2076 105.608C68.293 105.704 68.437 105.752 68.6396 105.752H72.6876V106.84H68.5596ZM68.372 104.464V103.904C68.5107 103.872 68.66 103.824 68.82 103.76C68.98 103.696 69.1187 103.616 69.236 103.52C69.3533 103.413 69.412 103.28 69.412 103.12C69.412 103.003 69.38 102.912 69.316 102.848C69.252 102.784 69.1613 102.752 69.044 102.752C68.9587 102.752 68.8733 102.768 68.788 102.8C68.692 102.821 68.6013 102.859 68.516 102.912L68.228 102.176C68.42 102.048 68.6387 101.963 68.884 101.92C69.1187 101.877 69.3053 101.856 69.444 101.856C69.7213 101.856 69.972 101.931 70.196 102.08C70.42 102.219 70.532 102.459 70.532 102.8C70.532 102.939 70.5053 103.099 70.452 103.28C70.388 103.451 70.26 103.589 70.068 103.696L69.972 103.392H72.404V104.464H68.372ZM74.8141 117L72.0781 108.232H73.5181L75.8861 115.768H76.0781C76.3341 115.768 76.5848 115.709 76.8301 115.592C77.0755 115.464 77.2835 115.304 77.4541 115.112C77.7741 114.76 78.0088 114.317 78.1581 113.784C78.3075 113.24 78.3821 112.707 78.3821 112.184C78.3821 111.299 78.1795 110.605 77.7741 110.104C77.3795 109.592 76.8301 109.336 76.1261 109.336C75.9875 109.336 75.8488 109.347 75.7101 109.368C75.5821 109.389 75.4755 109.416 75.3901 109.448L75.0381 108.312C75.2621 108.248 75.4701 108.205 75.6621 108.184C75.8648 108.163 76.0461 108.152 76.2061 108.152C76.7395 108.152 77.2141 108.232 77.6301 108.392C78.0568 108.541 78.4195 108.765 78.7181 109.064C79.0915 109.427 79.3635 109.88 79.5341 110.424C79.7155 110.968 79.8061 111.571 79.8061 112.232C79.8061 113.064 79.6781 113.805 79.4221 114.456C79.1661 115.096 78.8461 115.608 78.4621 115.992C78.1528 116.301 77.7741 116.547 77.3261 116.728C76.8781 116.909 76.3075 117 75.6141 117H74.8141ZM81.9679 117V111.4C81.9679 110.323 82.2559 109.501 82.8319 108.936C83.4079 108.36 84.3252 108.072 85.5839 108.072C86.8532 108.072 87.7705 108.36 88.3359 108.936C88.9119 109.501 89.1999 110.323 89.1999 111.4V117H87.7759V111.4C87.7759 110.685 87.5892 110.152 87.2159 109.8C86.8425 109.437 86.2932 109.256 85.5679 109.256C84.8532 109.256 84.3092 109.437 83.9359 109.8C83.5732 110.152 83.3919 110.685 83.3919 111.4V113.176L83.4399 113.192C83.6745 112.776 83.9625 112.504 84.3039 112.376C84.6452 112.237 85.1252 112.168 85.7439 112.168H86.2719V113.336H85.7439C85.0932 113.336 84.5972 113.427 84.2559 113.608C83.9252 113.789 83.6959 114.029 83.5679 114.328C83.4505 114.616 83.3919 114.941 83.3919 115.304V117H81.9679ZM87.6051 106.84V103.464H89.0131V106.84H87.6051ZM94.276 117V110.776C94.276 110.253 94.1533 109.869 93.908 109.624C93.6733 109.379 93.2733 109.256 92.708 109.256C92.324 109.256 91.9613 109.309 91.62 109.416C91.2893 109.512 90.9693 109.651 90.66 109.832V108.552C90.8733 108.445 91.1773 108.339 91.572 108.232C91.9667 108.125 92.436 108.072 92.98 108.072C93.5347 108.072 94.0147 108.152 94.42 108.312C94.8253 108.472 95.14 108.739 95.364 109.112C95.588 109.475 95.7 109.96 95.7 110.568V117H94.276ZM105.023 117L101.841 105.364H103.273L105.705 114.841H105.818L108.295 105.364H109.886L112.364 114.841H112.477L114.909 105.364H116.341L113.159 117H111.705L109.136 107.727H109.045L106.477 117H105.023ZM117.915 117V108.273H119.256V117H117.915ZM118.597 106.818C118.335 106.818 118.11 106.729 117.92 106.551C117.735 106.373 117.642 106.159 117.642 105.909C117.642 105.659 117.735 105.445 117.92 105.267C118.11 105.089 118.335 105 118.597 105C118.858 105 119.081 105.089 119.267 105.267C119.456 105.445 119.551 105.659 119.551 105.909C119.551 106.159 119.456 106.373 119.267 106.551C119.081 106.729 118.858 106.818 118.597 106.818ZM121.893 117V105.364H128.871V106.614H123.303V110.545H128.348V111.795H123.303V117H121.893ZM131.102 117V108.273H132.443V117H131.102ZM131.784 106.818C131.523 106.818 131.297 106.729 131.108 106.551C130.922 106.373 130.83 106.159 130.83 105.909C130.83 105.659 130.922 105.445 131.108 105.267C131.297 105.089 131.523 105 131.784 105C132.045 105 132.269 105.089 132.455 105.267C132.644 105.445 132.739 105.659 132.739 105.909C132.739 106.159 132.644 106.373 132.455 106.551C132.269 106.729 132.045 106.818 131.784 106.818Z" fill="black"/>
<path d="M41.28 190.16C40.992 190.16 40.7147 190.112 40.448 190.016C40.1813 189.92 39.9627 189.749 39.792 189.504C39.6213 189.259 39.536 188.917 39.536 188.48V181.232H40.96V188.304C40.96 188.549 41.0133 188.725 41.12 188.832C41.2267 188.939 41.3973 188.992 41.632 188.992C41.728 188.992 41.8293 188.981 41.936 188.96C42.0427 188.939 42.144 188.912 42.24 188.88L42.432 189.92C42.2293 190.016 42.032 190.08 41.84 190.112C41.648 190.144 41.4613 190.16 41.28 190.16ZM46.9313 190.16C45.9179 190.16 45.1339 189.92 44.5793 189.44C44.0353 188.949 43.7633 188.219 43.7633 187.248V186.272C43.7633 185.739 43.8379 185.317 43.9873 185.008C44.1366 184.699 44.2966 184.432 44.4673 184.208C44.6486 183.963 44.8033 183.749 44.9313 183.568C45.0699 183.387 45.1393 183.168 45.1393 182.912C45.1393 182.688 45.0806 182.528 44.9633 182.432C44.8566 182.336 44.7179 182.288 44.5473 182.288C44.4193 182.288 44.2806 182.309 44.1313 182.352C43.9926 182.395 43.8539 182.448 43.7153 182.512L43.3953 181.488C43.5873 181.36 43.8219 181.269 44.0993 181.216C44.3873 181.163 44.6379 181.136 44.8513 181.136C45.2459 181.136 45.5606 181.205 45.7953 181.344C46.0406 181.483 46.2166 181.675 46.3233 181.92C46.4299 182.155 46.4833 182.432 46.4833 182.752C46.4833 183.147 46.4139 183.472 46.2753 183.728C46.1473 183.984 45.9926 184.235 45.8113 184.48C45.6299 184.747 45.4806 185.003 45.3633 185.248C45.2459 185.493 45.1873 185.813 45.1873 186.208V187.152C45.1873 187.643 45.2673 188.021 45.4273 188.288C45.5873 188.555 45.8006 188.741 46.0673 188.848C46.3339 188.944 46.6219 188.992 46.9313 188.992C47.4646 188.992 47.8699 188.869 48.1473 188.624C48.4246 188.368 48.5633 187.979 48.5633 187.456V185.216C48.5633 184.821 48.4726 184.523 48.2913 184.32C48.1099 184.107 47.8166 184 47.4113 184H47.3473V183.088H47.4273C47.8646 183.088 48.1739 182.987 48.3553 182.784C48.5366 182.581 48.6433 182.336 48.6753 182.048C48.7179 181.749 48.7393 181.477 48.7393 181.232H50.1633C50.1633 181.797 50.0939 182.277 49.9553 182.672C49.8166 183.067 49.5019 183.355 49.0113 183.536V183.6C49.3099 183.675 49.5233 183.803 49.6513 183.984C49.7899 184.155 49.8806 184.352 49.9233 184.576C49.9659 184.789 49.9873 184.997 49.9873 185.2V187.536C49.9873 188.357 49.7313 189.003 49.2193 189.472C48.7073 189.931 47.9446 190.16 46.9313 190.16ZM43.3698 179.84V179.216L44.5377 178.704H50.1697V179.84H43.3698ZM60.8961 192.784C60.4588 192.784 60.0161 192.736 59.5681 192.64C59.1308 192.555 58.7148 192.421 58.3201 192.24V190.864C58.6615 191.088 59.0615 191.253 59.5201 191.36C59.9895 191.477 60.4375 191.536 60.8641 191.536C61.2908 191.536 61.6695 191.467 62.0001 191.328C62.3308 191.2 62.5921 190.971 62.7841 190.64C62.9761 190.309 63.0721 189.84 63.0721 189.232V188.816H63.0081C62.7948 189.147 62.4801 189.424 62.0641 189.648C61.6481 189.872 61.1415 189.984 60.5441 189.984C60.0428 189.984 59.5841 189.888 59.1681 189.696C58.7628 189.504 58.4428 189.195 58.2081 188.768C57.9735 188.341 57.8561 187.781 57.8561 187.088V184.224C57.8561 183.712 57.7601 183.312 57.5681 183.024C57.3761 182.736 57.1201 182.539 56.8001 182.432C56.4908 182.315 56.1601 182.256 55.8081 182.256C55.2428 182.256 54.7735 182.379 54.4001 182.624C54.0375 182.869 53.8508 183.227 53.8401 183.696L55.6641 184.56L55.5361 185.328C55.1415 185.328 54.8001 185.451 54.5121 185.696C54.2348 185.941 54.0961 186.347 54.0961 186.912V188.32C54.0961 188.555 54.1495 188.725 54.2561 188.832C54.3628 188.939 54.5281 188.992 54.7521 188.992C54.8695 188.992 54.9761 188.987 55.0721 188.976C55.1788 188.955 55.2748 188.928 55.3601 188.896L55.5681 189.92C55.3655 190.016 55.1681 190.08 54.9761 190.112C54.7948 190.144 54.6135 190.16 54.4321 190.16C54.1335 190.16 53.8455 190.112 53.5681 190.016C53.3015 189.92 53.0828 189.749 52.9121 189.504C52.7521 189.259 52.6721 188.917 52.6721 188.48V186.928C52.6721 186.267 52.8108 185.787 53.0881 185.488C53.3761 185.189 53.7495 184.981 54.2081 184.864L54.2241 184.816L52.3841 184.144V183.616C52.3841 183.147 52.5228 182.72 52.8001 182.336C53.0881 181.952 53.4881 181.648 54.0001 181.424C54.5228 181.189 55.1308 181.072 55.8241 181.072C56.4108 181.072 56.9655 181.168 57.4881 181.36C58.0215 181.552 58.4535 181.872 58.7841 182.32C59.1148 182.757 59.2801 183.344 59.2801 184.08V186.976C59.2801 187.605 59.4241 188.064 59.7121 188.352C60.0108 188.64 60.4001 188.784 60.8801 188.784C61.3175 188.784 61.6961 188.677 62.0161 188.464C62.3468 188.251 62.5975 187.952 62.7681 187.568C62.9495 187.173 63.0401 186.715 63.0401 186.192V181.232H64.4641V189.2C64.4641 190 64.3255 190.661 64.0481 191.184C63.7815 191.717 63.3815 192.117 62.8481 192.384C62.3148 192.651 61.6641 192.784 60.8961 192.784ZM72.307 190V184.16C72.307 183.467 72.147 182.976 71.827 182.688C71.5177 182.389 70.995 182.24 70.259 182.24C69.7257 182.24 69.2137 182.315 68.723 182.464C68.243 182.603 67.7843 182.8 67.347 183.056V181.728C67.6563 181.568 68.0723 181.419 68.595 181.28C69.1283 181.141 69.7257 181.072 70.387 181.072C70.9523 181.072 71.4323 181.136 71.827 181.264C72.2323 181.392 72.531 181.627 72.723 181.968C73.0963 182.139 73.3523 182.405 73.491 182.768C73.6403 183.131 73.715 183.568 73.715 184.08V190H72.307ZM69.555 190.16C68.6163 190.16 67.8963 189.947 67.395 189.52C66.9043 189.083 66.659 188.459 66.659 187.648C66.659 186.763 66.979 186.08 67.619 185.6C68.2697 185.12 69.3203 184.837 70.771 184.752L72.595 184.64V185.824L70.963 185.936C69.875 186.011 69.123 186.181 68.707 186.448C68.3017 186.715 68.099 187.104 68.099 187.616C68.099 188.096 68.2483 188.448 68.547 188.672C68.8563 188.896 69.283 189.008 69.827 189.008C70.0083 189.008 70.1737 188.997 70.323 188.976C70.4723 188.944 70.6163 188.907 70.755 188.864L70.979 189.936C70.7763 190.011 70.5523 190.064 70.307 190.096C70.0723 190.139 69.8217 190.16 69.555 190.16ZM72.675 182.464L71.875 181.712C72.1523 181.669 72.4137 181.563 72.659 181.392C72.9043 181.221 73.027 180.976 73.027 180.656H74.419C74.419 180.987 74.339 181.28 74.179 181.536C74.0297 181.781 73.8217 181.984 73.555 182.144C73.2883 182.293 72.995 182.4 72.675 182.464ZM80.5513 190.16C79.8686 190.16 79.2766 190.027 78.7753 189.76C78.2846 189.483 77.9486 189.099 77.7673 188.608H77.7033L77.6233 190H76.4553V181.232H77.8793V186.304C77.8793 186.837 77.9699 187.307 78.1513 187.712C78.3433 188.107 78.6153 188.416 78.9673 188.64C79.3299 188.853 79.7619 188.96 80.2633 188.96C80.8926 188.96 81.3619 188.795 81.6713 188.464C81.9806 188.133 82.1353 187.648 82.1353 187.008V181.232H83.5593V187.104C83.5593 187.808 83.4366 188.384 83.1913 188.832C82.9566 189.28 82.6153 189.616 82.1673 189.84C81.7193 190.053 81.1806 190.16 80.5513 190.16ZM88.6354 190V183.776C88.6354 183.253 88.5127 182.869 88.2674 182.624C88.0327 182.379 87.6327 182.256 87.0674 182.256C86.6834 182.256 86.3207 182.309 85.9794 182.416C85.6487 182.512 85.3287 182.651 85.0194 182.832V181.552C85.2327 181.445 85.5367 181.339 85.9314 181.232C86.326 181.125 86.7954 181.072 87.3394 181.072C87.894 181.072 88.374 181.152 88.7794 181.312C89.1847 181.472 89.4994 181.739 89.7234 182.112C89.9474 182.475 90.0594 182.96 90.0594 183.568V190H88.6354ZM95.7594 190.16C94.746 190.16 93.962 189.92 93.4074 189.44C92.8634 188.949 92.5914 188.219 92.5914 187.248V186.272C92.5914 185.739 92.666 185.317 92.8154 185.008C92.9647 184.699 93.1247 184.432 93.2954 184.208C93.4767 183.963 93.6314 183.749 93.7594 183.568C93.898 183.387 93.9674 183.168 93.9674 182.912C93.9674 182.688 93.9087 182.528 93.7914 182.432C93.6847 182.336 93.546 182.288 93.3754 182.288C93.2474 182.288 93.1087 182.309 92.9594 182.352C92.8207 182.395 92.682 182.448 92.5434 182.512L92.2234 181.488C92.4154 181.36 92.65 181.269 92.9274 181.216C93.2154 181.163 93.466 181.136 93.6794 181.136C94.074 181.136 94.3887 181.205 94.6234 181.344C94.8687 181.483 95.0447 181.675 95.1514 181.92C95.258 182.155 95.3114 182.432 95.3114 182.752C95.3114 183.147 95.242 183.472 95.1034 183.728C94.9754 183.984 94.8207 184.235 94.6394 184.48C94.458 184.747 94.3087 185.003 94.1914 185.248C94.074 185.493 94.0154 185.813 94.0154 186.208V187.152C94.0154 187.643 94.0954 188.021 94.2554 188.288C94.4154 188.555 94.6287 188.741 94.8954 188.848C95.162 188.944 95.45 188.992 95.7594 188.992C96.2927 188.992 96.698 188.869 96.9754 188.624C97.2527 188.368 97.3914 187.979 97.3914 187.456V185.216C97.3914 184.821 97.3007 184.523 97.1194 184.32C96.938 184.107 96.6447 184 96.2394 184H96.1754V183.088H96.2554C96.6927 183.088 97.002 182.987 97.1834 182.784C97.3647 182.581 97.4714 182.336 97.5034 182.048C97.546 181.749 97.5674 181.477 97.5674 181.232H98.9914C98.9914 181.797 98.922 182.277 98.7834 182.672C98.6447 183.067 98.33 183.355 97.8394 183.536V183.6C98.138 183.675 98.3514 183.803 98.4794 183.984C98.618 184.155 98.7087 184.352 98.7514 184.576C98.794 184.789 98.8154 184.997 98.8154 185.2V187.536C98.8154 188.357 98.5594 189.003 98.0474 189.472C97.5354 189.931 96.7727 190.16 95.7594 190.16ZM92.1979 179.84V179.216L93.3659 178.704H98.9979V179.84H92.1979ZM101.372 190V186.96C101.372 186.288 101.522 185.803 101.82 185.504C102.119 185.195 102.498 184.981 102.956 184.864L102.972 184.816L101.212 184.144V183.616C101.212 183.179 101.356 182.768 101.644 182.384C101.932 181.989 102.343 181.675 102.876 181.44C103.42 181.195 104.066 181.072 104.812 181.072C105.463 181.072 106.066 181.179 106.62 181.392C107.175 181.595 107.618 181.92 107.948 182.368C108.29 182.805 108.46 183.381 108.46 184.096V190H107.036V184.24C107.036 183.525 106.818 183.019 106.38 182.72C105.954 182.411 105.426 182.256 104.796 182.256C104.146 182.256 103.628 182.395 103.244 182.672C102.86 182.939 102.668 183.28 102.668 183.696L104.396 184.56L104.268 185.328C103.874 185.328 103.527 185.461 103.228 185.728C102.94 185.984 102.796 186.395 102.796 186.96V190H101.372ZM111.126 190V182.784C111.126 182.325 111.217 181.973 111.398 181.728C111.579 181.483 111.814 181.312 112.102 181.216C112.39 181.12 112.699 181.072 113.03 181.072C113.147 181.072 113.297 181.088 113.478 181.12C113.67 181.152 113.835 181.2 113.974 181.264L113.798 182.336C113.691 182.304 113.585 182.283 113.478 182.272C113.371 182.251 113.286 182.24 113.222 182.24C112.955 182.24 112.769 182.304 112.662 182.432C112.566 182.56 112.518 182.741 112.518 182.976V185.456C112.518 185.787 112.513 186.133 112.502 186.496C112.502 186.848 112.486 187.275 112.454 187.776H112.518C112.731 187.307 112.929 186.917 113.11 186.608C113.291 186.288 113.462 185.989 113.622 185.712L114.47 184.272H115.366L116.214 185.712C116.385 186 116.534 186.256 116.662 186.48C116.79 186.704 116.907 186.923 117.014 187.136C117.121 187.339 117.222 187.552 117.318 187.776H117.382C117.35 187.275 117.329 186.848 117.318 186.496C117.318 186.133 117.318 185.787 117.318 185.456V181.232H118.71V190H117.446L114.966 185.808H114.902L112.39 190H111.126ZM116.637 194.24C115.954 194.24 115.437 194.101 115.085 193.824C114.722 193.557 114.541 193.173 114.541 192.672V192.4C114.541 192.219 114.498 192.107 114.413 192.064C114.317 192.032 114.189 192.037 114.029 192.08L113.933 191.12C114.082 191.077 114.231 191.051 114.381 191.04C114.519 191.029 114.626 191.024 114.701 191.024C115.085 191.024 115.362 191.109 115.533 191.28C115.693 191.451 115.773 191.691 115.773 192V192.544C115.773 192.747 115.837 192.917 115.965 193.056C116.093 193.195 116.311 193.264 116.621 193.264C116.941 193.264 117.165 193.195 117.293 193.056C117.41 192.917 117.469 192.747 117.469 192.544V191.072H118.717V192.624C118.717 193.147 118.541 193.547 118.189 193.824C117.837 194.101 117.319 194.24 116.637 194.24ZM114.253 179.84V179.136C114.466 179.093 114.685 179.035 114.909 178.96C115.133 178.875 115.319 178.768 115.469 178.64C115.618 178.501 115.693 178.336 115.693 178.144C115.693 178.016 115.655 177.909 115.581 177.824C115.495 177.728 115.367 177.68 115.197 177.68C115.09 177.68 114.983 177.701 114.877 177.744C114.759 177.787 114.658 177.824 114.573 177.856L114.253 176.976C114.466 176.805 114.706 176.693 114.973 176.64C115.229 176.587 115.437 176.56 115.597 176.56C116.023 176.56 116.359 176.677 116.605 176.912C116.839 177.147 116.957 177.445 116.957 177.808C116.957 178.107 116.882 178.368 116.733 178.592C116.573 178.805 116.391 178.976 116.189 179.104L116.029 178.72H119.213V179.84H114.253ZM124.413 190.16C123.56 190.16 122.888 189.963 122.397 189.568C121.917 189.163 121.576 188.619 121.373 187.936C121.181 187.253 121.085 186.501 121.085 185.68C121.085 184.773 121.176 184.027 121.357 183.44C121.549 182.843 121.816 182.373 122.157 182.032C122.509 181.68 122.925 181.435 123.405 181.296C123.896 181.147 124.434 181.072 125.021 181.072C125.874 181.072 126.568 181.2 127.101 181.456C127.645 181.701 128.045 182.053 128.301 182.512C128.557 182.971 128.685 183.52 128.685 184.16V190H127.277V184.288C127.277 183.627 127.112 183.125 126.781 182.784C126.45 182.432 125.88 182.256 125.069 182.256C124.578 182.256 124.136 182.347 123.741 182.528C123.357 182.709 123.053 183.045 122.829 183.536C122.616 184.027 122.509 184.747 122.509 185.696C122.509 186.315 122.568 186.875 122.685 187.376C122.813 187.867 123.032 188.256 123.341 188.544C123.65 188.832 124.082 188.976 124.637 188.976C124.797 188.976 124.946 188.965 125.085 188.944C125.224 188.923 125.357 188.891 125.485 188.848L125.629 189.952C125.458 190.027 125.261 190.08 125.037 190.112C124.824 190.144 124.616 190.16 124.413 190.16ZM126.605 194.24C125.923 194.24 125.405 194.101 125.053 193.824C124.691 193.557 124.509 193.173 124.509 192.672V192.4C124.509 192.219 124.467 192.107 124.381 192.064C124.285 192.032 124.157 192.037 123.997 192.08L123.901 191.12C124.051 191.077 124.2 191.051 124.349 191.04C124.488 191.029 124.595 191.024 124.669 191.024C125.053 191.024 125.331 191.109 125.501 191.28C125.661 191.451 125.741 191.691 125.741 192V192.544C125.741 192.747 125.805 192.917 125.933 193.056C126.061 193.195 126.28 193.264 126.589 193.264C126.909 193.264 127.133 193.195 127.261 193.056C127.379 192.917 127.437 192.747 127.437 192.544V191.072H128.685V192.624C128.685 193.147 128.509 193.547 128.157 193.824C127.805 194.101 127.288 194.24 126.605 194.24ZM133.264 190.16C132.976 190.16 132.699 190.112 132.432 190.016C132.166 189.92 131.947 189.749 131.776 189.504C131.606 189.259 131.52 188.917 131.52 188.48V181.232H132.944V188.304C132.944 188.549 132.998 188.725 133.104 188.832C133.211 188.939 133.382 188.992 133.616 188.992C133.712 188.992 133.814 188.981 133.92 188.96C134.027 188.939 134.128 188.912 134.224 188.88L134.416 189.92C134.214 190.016 134.016 190.08 133.824 190.112C133.632 190.144 133.446 190.16 133.264 190.16ZM137.632 190.16C137.344 190.16 137.067 190.112 136.8 190.016C136.534 189.92 136.315 189.749 136.144 189.504C135.974 189.259 135.888 188.917 135.888 188.48V181.232H137.312V188.304C137.312 188.549 137.366 188.725 137.472 188.832C137.579 188.939 137.75 188.992 137.984 188.992C138.08 188.992 138.182 188.981 138.288 188.96C138.395 188.939 138.496 188.912 138.592 188.88L138.784 189.92C138.582 190.016 138.384 190.08 138.192 190.112C138 190.144 137.814 190.16 137.632 190.16ZM145.354 190V184.16C145.354 183.467 145.194 182.976 144.874 182.688C144.565 182.389 144.042 182.24 143.306 182.24C142.773 182.24 142.261 182.315 141.77 182.464C141.29 182.603 140.831 182.8 140.394 183.056V181.728C140.703 181.568 141.119 181.419 141.642 181.28C142.175 181.141 142.773 181.072 143.434 181.072C143.999 181.072 144.49 181.136 144.906 181.264C145.322 181.381 145.663 181.563 145.93 181.808C146.207 182.053 146.415 182.368 146.554 182.752C146.693 183.125 146.762 183.568 146.762 184.08V190H145.354ZM142.602 190.16C141.663 190.16 140.943 189.947 140.442 189.52C139.951 189.083 139.706 188.459 139.706 187.648C139.706 186.763 140.026 186.08 140.666 185.6C141.317 185.12 142.367 184.837 143.818 184.752L145.642 184.64V185.824L144.01 185.936C142.922 186.011 142.17 186.181 141.754 186.448C141.349 186.715 141.146 187.104 141.146 187.616C141.146 188.096 141.295 188.448 141.594 188.672C141.903 188.896 142.33 189.008 142.874 189.008C143.055 189.008 143.221 188.997 143.37 188.976C143.519 188.944 143.663 188.907 143.802 188.864L144.026 189.936C143.823 190.011 143.599 190.064 143.354 190.096C143.119 190.139 142.869 190.16 142.602 190.16ZM149.359 190V184.4C149.359 183.323 149.647 182.501 150.223 181.936C150.799 181.36 151.716 181.072 152.975 181.072C154.244 181.072 155.161 181.36 155.727 181.936C156.303 182.501 156.591 183.323 156.591 184.4V190H155.167V184.4C155.167 183.685 154.98 183.152 154.607 182.8C154.233 182.437 153.684 182.256 152.959 182.256C152.244 182.256 151.7 182.437 151.327 182.8C150.964 183.152 150.783 183.685 150.783 184.4V186.176L150.831 186.192C151.065 185.776 151.353 185.504 151.695 185.376C152.036 185.237 152.516 185.168 153.135 185.168H153.663V186.336H153.135C152.484 186.336 151.988 186.427 151.647 186.608C151.316 186.789 151.087 187.029 150.959 187.328C150.841 187.616 150.783 187.941 150.783 188.304V190H149.359ZM162.211 190.16C161.581 190.16 161.037 190.053 160.579 189.84C160.131 189.616 159.784 189.28 159.539 188.832C159.304 188.384 159.187 187.803 159.187 187.088V181.232H160.611V187.008C160.611 187.648 160.771 188.133 161.091 188.464C161.421 188.795 161.896 188.96 162.515 188.96C163.261 188.96 163.837 188.72 164.243 188.24C164.659 187.76 164.867 187.115 164.867 186.304V181.232H166.291V190H165.107L165.043 188.704H164.963C164.771 189.131 164.435 189.483 163.955 189.76C163.485 190.027 162.904 190.16 162.211 190.16ZM172.103 190.16C170.951 190.16 170.087 189.861 169.511 189.264C168.946 188.656 168.663 187.707 168.663 186.416C168.663 186.203 168.668 185.973 168.679 185.728C168.7 185.472 168.722 185.221 168.743 184.976H172.103V186.096H170.087V186.416C170.087 187.088 170.162 187.616 170.311 188C170.46 188.373 170.679 188.635 170.967 188.784C171.266 188.933 171.634 189.008 172.071 189.008C172.551 189.008 172.967 188.917 173.319 188.736C173.671 188.555 173.943 188.224 174.135 187.744C174.327 187.264 174.423 186.576 174.423 185.68C174.423 184.891 174.338 184.245 174.167 183.744C173.996 183.243 173.714 182.869 173.319 182.624C172.935 182.379 172.412 182.256 171.751 182.256C171.41 182.256 171.079 182.288 170.759 182.352C170.439 182.405 170.13 182.491 169.831 182.608C169.532 182.715 169.239 182.853 168.951 183.024V181.696C169.164 181.579 169.426 181.477 169.735 181.392C170.044 181.296 170.386 181.221 170.759 181.168C171.132 181.104 171.522 181.072 171.927 181.072C172.866 181.072 173.623 181.264 174.199 181.648C174.786 182.021 175.212 182.555 175.479 183.248C175.746 183.931 175.879 184.741 175.879 185.68C175.879 186.619 175.756 187.424 175.511 188.096C175.266 188.768 174.866 189.28 174.311 189.632C173.767 189.984 173.031 190.16 172.103 190.16ZM168.51 179.84V179.216L169.678 178.704H175.31V179.84H168.51ZM171.806 179.216V177.408H172.99V179.216H171.806ZM174.142 179.216V177.408H175.31V179.216H174.142ZM172.919 176.464V173.856H174.279V176.464H172.919ZM181.211 190.16C180.581 190.16 180.037 190.053 179.579 189.84C179.131 189.616 178.784 189.28 178.539 188.832C178.304 188.384 178.187 187.803 178.187 187.088V181.232H179.611V187.008C179.611 187.648 179.771 188.133 180.091 188.464C180.421 188.795 180.896 188.96 181.515 188.96C182.261 188.96 182.837 188.72 183.243 188.24C183.659 187.76 183.867 187.115 183.867 186.304V181.232H185.291V190H184.107L184.043 188.704H183.963C183.771 189.131 183.435 189.483 182.955 189.76C182.485 190.027 181.904 190.16 181.211 190.16Z" fill="black"/>
<path d="M42.4 268.16C41.248 268.16 40.384 267.861 39.808 267.264C39.2427 266.656 38.96 265.707 38.96 264.416C38.96 264.203 38.9653 263.973 38.976 263.728C38.9973 263.472 39.0187 263.221 39.04 262.976H42.4V264.096H40.384V264.416C40.384 265.088 40.4587 265.616 40.608 266C40.7573 266.373 40.976 266.635 41.264 266.784C41.5627 266.933 41.9307 267.008 42.368 267.008C42.848 267.008 43.264 266.917 43.616 266.736C43.968 266.555 44.24 266.224 44.432 265.744C44.624 265.264 44.72 264.576 44.72 263.68C44.72 262.891 44.6347 262.245 44.464 261.744C44.2933 261.243 44.0107 260.869 43.616 260.624C43.232 260.379 42.7093 260.256 42.048 260.256C41.7067 260.256 41.376 260.288 41.056 260.352C40.736 260.405 40.4267 260.491 40.128 260.608C39.8293 260.715 39.536 260.853 39.248 261.024V259.696C39.4613 259.579 39.7227 259.477 40.032 259.392C40.3413 259.296 40.6827 259.221 41.056 259.168C41.4293 259.104 41.8187 259.072 42.224 259.072C43.1627 259.072 43.92 259.264 44.496 259.648C45.0827 260.021 45.5093 260.555 45.776 261.248C46.0427 261.931 46.176 262.741 46.176 263.68C46.176 264.619 46.0533 265.424 45.808 266.096C45.5627 266.768 45.1627 267.28 44.608 267.632C44.064 267.984 43.328 268.16 42.4 268.16ZM51.5875 268.16C50.4355 268.16 49.5715 267.861 48.9955 267.264C48.4302 266.656 48.1475 265.707 48.1475 264.416C48.1475 264.203 48.1528 263.973 48.1635 263.728C48.1848 263.472 48.2062 263.221 48.2275 262.976H51.5875V264.096H49.5715V264.416C49.5715 265.088 49.6462 265.616 49.7955 266C49.9448 266.373 50.1635 266.635 50.4515 266.784C50.7502 266.933 51.1182 267.008 51.5555 267.008C52.0355 267.008 52.4515 266.917 52.8035 266.736C53.1555 266.555 53.4275 266.224 53.6195 265.744C53.8115 265.264 53.9075 264.576 53.9075 263.68C53.9075 262.891 53.8222 262.245 53.6515 261.744C53.4808 261.243 53.1982 260.869 52.8035 260.624C52.4195 260.379 51.8968 260.256 51.2355 260.256C50.8942 260.256 50.5635 260.288 50.2435 260.352C49.9235 260.405 49.6142 260.491 49.3155 260.608C49.0168 260.715 48.7235 260.853 48.4355 261.024V259.696C48.6488 259.579 48.9102 259.477 49.2195 259.392C49.5288 259.296 49.8702 259.221 50.2435 259.168C50.6168 259.104 51.0062 259.072 51.4115 259.072C52.3502 259.072 53.1075 259.264 53.6835 259.648C54.2702 260.021 54.6968 260.555 54.9635 261.248C55.2302 261.931 55.3635 262.741 55.3635 263.68C55.3635 264.619 55.2408 265.424 54.9955 266.096C54.7502 266.768 54.3502 267.28 53.7955 267.632C53.2515 267.984 52.5155 268.16 51.5875 268.16ZM57.591 268V264.96C57.591 264.288 57.7403 263.803 58.039 263.504C58.3377 263.195 58.7163 262.981 59.175 262.864L59.191 262.816L57.431 262.144V261.616C57.431 261.179 57.575 260.768 57.863 260.384C58.151 259.989 58.5617 259.675 59.095 259.44C59.639 259.195 60.2843 259.072 61.031 259.072C61.6817 259.072 62.2843 259.179 62.839 259.392C63.3937 259.595 63.8363 259.92 64.167 260.368C64.5083 260.805 64.679 261.381 64.679 262.096V268H63.255V262.24C63.255 261.525 63.0363 261.019 62.599 260.72C62.1723 260.411 61.6443 260.256 61.015 260.256C60.3643 260.256 59.847 260.395 59.463 260.672C59.079 260.939 58.887 261.28 58.887 261.696L60.615 262.56L60.487 263.328C60.0923 263.328 59.7457 263.461 59.447 263.728C59.159 263.984 59.015 264.395 59.015 264.96V268H57.591ZM68.3207 268V264.096H67.1048V262.976H69.6808V266.848H69.8888C70.3688 266.848 70.7688 266.741 71.0888 266.528C71.4088 266.315 71.6488 265.968 71.8088 265.488C71.9688 265.008 72.0488 264.373 72.0488 263.584C72.0488 262.795 71.9581 262.155 71.7768 261.664C71.6061 261.173 71.3234 260.816 70.9288 260.592C70.5448 260.368 70.0221 260.256 69.3608 260.256C68.8594 260.256 68.3741 260.325 67.9048 260.464C67.4461 260.592 67.0034 260.795 66.5768 261.072V259.744C66.8968 259.552 67.3181 259.392 67.8408 259.264C68.3634 259.136 68.9288 259.072 69.5368 259.072C70.5074 259.072 71.2808 259.253 71.8568 259.616C72.4434 259.968 72.8648 260.48 73.1208 261.152C73.3768 261.824 73.5048 262.64 73.5048 263.6C73.5048 264.528 73.3768 265.323 73.1208 265.984C72.8754 266.635 72.4701 267.136 71.9048 267.488C71.3501 267.829 70.6034 268 69.6648 268H68.3207ZM78.2604 268V261.776C78.2604 261.253 78.1377 260.869 77.8924 260.624C77.6577 260.379 77.2577 260.256 76.6924 260.256C76.3084 260.256 75.9457 260.309 75.6044 260.416C75.2737 260.512 74.9537 260.651 74.6444 260.832V259.552C74.8577 259.445 75.1617 259.339 75.5564 259.232C75.951 259.125 76.4204 259.072 76.9644 259.072C77.519 259.072 77.999 259.152 78.4044 259.312C78.8097 259.472 79.1244 259.739 79.3484 260.112C79.5724 260.475 79.6844 260.96 79.6844 261.568V268H78.2604ZM82.2004 268V264.96C82.2004 264.288 82.3497 263.803 82.6484 263.504C82.947 263.195 83.3257 262.981 83.7844 262.864L83.8004 262.816L82.0404 262.144V261.616C82.0404 261.179 82.1844 260.768 82.4724 260.384C82.7604 259.989 83.171 259.675 83.7044 259.44C84.2484 259.195 84.8937 259.072 85.6404 259.072C86.291 259.072 86.8937 259.179 87.4484 259.392C88.003 259.595 88.4457 259.92 88.7764 260.368C89.1177 260.805 89.2884 261.381 89.2884 262.096V268H87.8644V262.24C87.8644 261.525 87.6457 261.019 87.2084 260.72C86.7817 260.411 86.2537 260.256 85.6244 260.256C84.9737 260.256 84.4564 260.395 84.0724 260.672C83.6884 260.939 83.4964 261.28 83.4964 261.696L85.2244 262.56L85.0964 263.328C84.7017 263.328 84.355 263.461 84.0564 263.728C83.7684 263.984 83.6244 264.395 83.6244 264.96V268H82.2004ZM94.3381 268.16C93.7088 268.16 93.1221 268.101 92.5781 267.984C92.0448 267.856 91.5915 267.707 91.2181 267.536L91.6341 266.384C91.8581 266.469 92.1141 266.56 92.4021 266.656C92.6901 266.752 92.9995 266.832 93.3301 266.896C93.6715 266.949 94.0181 266.976 94.3701 266.976C94.9355 266.976 95.4048 266.869 95.7781 266.656C96.1515 266.443 96.3381 266.133 96.3381 265.728C96.3381 265.483 96.2688 265.275 96.1301 265.104C96.0021 264.923 95.7995 264.757 95.5221 264.608C95.2448 264.459 94.8875 264.315 94.4501 264.176C93.7781 263.963 93.2075 263.739 92.7381 263.504C92.2795 263.259 91.9275 262.971 91.6821 262.64C91.4475 262.299 91.3301 261.877 91.3301 261.376C91.3301 260.928 91.4475 260.533 91.6821 260.192C91.9275 259.84 92.3008 259.568 92.8021 259.376C93.3141 259.173 93.9648 259.072 94.7541 259.072C95.2661 259.072 95.7461 259.12 96.1941 259.216C96.6528 259.301 97.0101 259.424 97.2661 259.584V260.784C97.0848 260.699 96.8555 260.613 96.5781 260.528C96.3115 260.443 96.0181 260.373 95.6981 260.32C95.3781 260.267 95.0475 260.24 94.7061 260.24C93.9915 260.24 93.4848 260.352 93.1861 260.576C92.8981 260.789 92.7541 261.035 92.7541 261.312C92.7541 261.547 92.8181 261.744 92.9461 261.904C93.0848 262.064 93.3141 262.219 93.6341 262.368C93.9648 262.517 94.4075 262.688 94.9621 262.88C95.4741 263.051 95.9435 263.248 96.3701 263.472C96.7968 263.696 97.1328 263.979 97.3781 264.32C97.6341 264.651 97.7621 265.077 97.7621 265.6C97.7621 266.048 97.6501 266.469 97.4261 266.864C97.2128 267.248 96.8555 267.563 96.3541 267.808C95.8528 268.043 95.1808 268.16 94.3381 268.16ZM100.839 262.496C100.401 262.496 100.044 262.432 99.7666 262.304C99.5 262.165 99.308 261.995 99.1906 261.792C99.0733 261.579 99.0146 261.355 99.0146 261.12C99.0146 260.96 99.036 260.795 99.0786 260.624C99.132 260.453 99.196 260.309 99.2706 260.192L100.471 260.384C100.449 260.437 100.423 260.512 100.391 260.608C100.369 260.704 100.359 260.8 100.359 260.896C100.359 261.035 100.396 261.152 100.471 261.248C100.545 261.333 100.684 261.376 100.887 261.376H103.175V262.496H100.839ZM100.839 266.976C100.401 266.976 100.044 266.912 99.7666 266.784C99.5 266.645 99.308 266.475 99.1906 266.272C99.0733 266.059 99.0146 265.835 99.0146 265.6C99.0146 265.44 99.036 265.275 99.0786 265.104C99.132 264.933 99.196 264.789 99.2706 264.672L100.471 264.864C100.449 264.917 100.423 264.992 100.391 265.088C100.369 265.184 100.359 265.28 100.359 265.376C100.359 265.515 100.396 265.632 100.471 265.728C100.545 265.813 100.684 265.856 100.887 265.856H103.175V266.976H100.839ZM108.613 268.16C107.354 268.16 106.453 267.872 105.909 267.296C105.365 266.72 105.093 265.899 105.093 264.832V259.232H106.517V264.848C106.517 265.563 106.688 266.096 107.029 266.448C107.37 266.8 107.898 266.976 108.613 266.976C109.338 266.976 109.872 266.8 110.213 266.448C110.565 266.096 110.741 265.563 110.741 264.848V259.232H112.165V264.832C112.165 265.899 111.888 266.72 111.333 267.296C110.789 267.872 109.882 268.16 108.613 268.16ZM118.269 268.16C117.01 268.16 116.109 267.872 115.565 267.296C115.021 266.72 114.749 265.899 114.749 264.832V259.232H116.173V264.848C116.173 265.563 116.344 266.096 116.685 266.448C117.026 266.8 117.554 266.976 118.269 266.976C118.994 266.976 119.528 266.8 119.869 266.448C120.221 266.096 120.397 265.563 120.397 264.848V259.232H121.821V264.832C121.821 265.899 121.544 266.72 120.989 267.296C120.445 267.872 119.538 268.16 118.269 268.16Z" fill="black"/>
<rect x="68" y="294" width="261" height="172" rx="20" fill="white"/>
<path d="M93.975 328C93.485 328 93.11 327.865 92.85 327.595C92.6 327.315 92.475 326.925 92.475 326.425V319.975H94.005V326.005C94.005 326.275 94.06 326.465 94.17 326.575C94.28 326.675 94.47 326.725 94.74 326.725H95.28V328H93.975ZM97.83 328C97.35 328 96.98 327.86 96.72 327.58C96.46 327.3 96.33 326.915 96.33 326.425V319.975H97.86V326.005C97.86 326.275 97.915 326.465 98.025 326.575C98.145 326.675 98.34 326.725 98.61 326.725H99.15V328H97.83ZM103.9 328.225C102.92 328.225 102.155 327.95 101.605 327.4C101.065 326.85 100.795 326.14 100.795 325.27V319.975H102.325V325.21C102.325 325.81 102.49 326.265 102.82 326.575C103.16 326.875 103.655 327.025 104.305 327.025C105.335 327.025 106.145 326.565 106.735 325.645V319.975H108.265V328H106.78V326.92C106.03 327.79 105.07 328.225 103.9 328.225ZM106.779 316.285H108.294V318.79H106.779V316.285ZM111.774 328C111.284 328 110.909 327.865 110.649 327.595C110.399 327.315 110.274 326.925 110.274 326.425V322.36C110.274 321.85 110.364 321.425 110.544 321.085C110.724 320.735 110.984 320.36 111.324 319.96C111.554 319.7 111.719 319.48 111.819 319.3C111.929 319.12 111.984 318.93 111.984 318.73C111.984 318.4 111.894 318.16 111.714 318.01C111.544 317.86 111.244 317.785 110.814 317.785C110.204 317.785 109.654 317.955 109.164 318.295V317.095C109.454 316.925 109.779 316.795 110.139 316.705C110.509 316.615 110.889 316.57 111.279 316.57C112.039 316.57 112.604 316.755 112.974 317.125C113.354 317.495 113.544 317.975 113.544 318.565C113.544 318.885 113.474 319.17 113.334 319.42C113.204 319.66 113.004 319.94 112.734 320.26C112.424 320.63 112.189 320.96 112.029 321.25C111.879 321.54 111.804 321.895 111.804 322.315V326.005C111.804 326.275 111.859 326.465 111.969 326.575C112.079 326.675 112.269 326.725 112.539 326.725H113.079V328H111.774ZM114.846 323.59H116.361L117.141 326.8C118.111 326.8 118.886 326.54 119.466 326.02C120.056 325.49 120.351 324.76 120.351 323.83C120.351 322.82 120.111 322.09 119.631 321.64C119.151 321.19 118.361 320.965 117.261 320.965C116.761 320.965 116.251 321.015 115.731 321.115C115.221 321.205 114.791 321.33 114.441 321.49V320.29C114.811 320.12 115.261 319.99 115.791 319.9C116.331 319.8 116.881 319.75 117.441 319.75C118.861 319.75 119.956 320.09 120.726 320.77C121.506 321.45 121.896 322.47 121.896 323.83C121.896 324.62 121.696 325.335 121.296 325.975C120.896 326.605 120.351 327.1 119.661 327.46C118.981 327.82 118.231 328 117.411 328H115.926L114.846 323.59ZM125.554 327.985C125.064 327.985 124.689 327.85 124.429 327.58C124.179 327.3 124.054 326.91 124.054 326.41V320.725C124.054 320.055 124.149 319.505 124.339 319.075C124.529 318.645 124.849 318.29 125.299 318.01H122.569V316.72H127.294V317.95C126.694 318.21 126.259 318.545 125.989 318.955C125.719 319.365 125.584 319.935 125.584 320.665V325.975C125.584 326.245 125.639 326.435 125.749 326.545C125.859 326.645 126.049 326.695 126.319 326.695H126.859V327.985H125.554ZM128.496 319.975H130.026V323.515L133.911 319.975H135.696L133.506 321.97C134.326 322.18 134.896 322.515 135.216 322.975C135.546 323.435 135.711 324.05 135.711 324.82V328H134.181V324.91C134.181 324.31 134.056 323.855 133.806 323.545C133.566 323.235 133.146 323.015 132.546 322.885L130.026 325.18V328H128.496V319.975ZM142.03 328.225C141.48 328.225 140.955 328.115 140.455 327.895C139.965 327.675 139.525 327.35 139.135 326.92V328H137.665V319.975H139.195V325.645C139.785 326.565 140.595 327.025 141.625 327.025C142.275 327.025 142.765 326.875 143.095 326.575C143.435 326.265 143.605 325.81 143.605 325.21V319.975H145.135V325.27C145.135 326.14 144.86 326.85 144.31 327.4C143.76 327.95 143 328.225 142.03 328.225ZM149.709 328.225C148.449 328.225 147.474 328 146.784 327.55V326.32C147.454 326.79 148.329 327.025 149.409 327.025C150.389 327.025 151.149 326.77 151.689 326.26C152.239 325.75 152.514 324.995 152.514 323.995C152.514 322.995 152.239 322.24 151.689 321.73C151.149 321.22 150.389 320.965 149.409 320.965C148.359 320.965 147.494 321.2 146.814 321.67V320.425C147.514 319.975 148.479 319.75 149.709 319.75C151.059 319.75 152.124 320.125 152.904 320.875C153.684 321.615 154.074 322.655 154.074 323.995C154.074 325.335 153.684 326.375 152.904 327.115C152.124 327.855 151.059 328.225 149.709 328.225ZM152.292 316.285H153.807V318.79H152.292V316.285ZM158.547 322.81C158.547 322.17 158.417 321.705 158.157 321.415C157.897 321.115 157.437 320.965 156.777 320.965C156.137 320.965 155.537 321.105 154.977 321.385V320.185C155.217 320.065 155.527 319.965 155.907 319.885C156.297 319.795 156.682 319.75 157.062 319.75C158.072 319.75 158.827 320.025 159.327 320.575C159.827 321.115 160.077 321.895 160.077 322.915V328H158.547V322.81ZM165.581 328.225C164.381 328.225 163.436 327.885 162.746 327.205C162.066 326.525 161.726 325.525 161.726 324.205C161.726 323.295 161.851 322.505 162.101 321.835C162.351 321.165 162.691 320.65 163.121 320.29C163.561 319.93 164.061 319.75 164.621 319.75C165.381 319.75 165.916 320.055 166.226 320.665C166.396 320.355 166.651 320.125 166.991 319.975C167.331 319.825 167.711 319.75 168.131 319.75C168.821 319.75 169.336 319.97 169.676 320.41C170.026 320.85 170.201 321.44 170.201 322.18V328H168.671V322.285C168.671 321.835 168.601 321.505 168.461 321.295C168.321 321.075 168.081 320.965 167.741 320.965C167.171 320.965 166.816 321.275 166.676 321.895H165.776C165.726 321.585 165.626 321.355 165.476 321.205C165.336 321.045 165.131 320.965 164.861 320.965C164.391 320.965 164.006 321.245 163.706 321.805C163.416 322.365 163.271 323.165 163.271 324.205C163.271 325.165 163.481 325.875 163.901 326.335C164.321 326.795 164.966 327.025 165.836 327.025C166.216 327.025 166.566 326.975 166.886 326.875V328.06C166.536 328.17 166.101 328.225 165.581 328.225ZM166.973 317.845C166.973 317.725 166.953 317.64 166.913 317.59C166.863 317.54 166.778 317.515 166.658 317.515H165.983V316.435H167.108C167.428 316.435 167.663 316.515 167.813 316.675C167.953 316.825 168.023 317.015 168.023 317.245V317.77H171.098V318.79H166.973V317.845ZM175.118 328.225C174.498 328.225 173.898 328.15 173.318 328C172.738 327.86 172.248 327.66 171.848 327.4V323.41H175.178V324.64H173.378V326.635C173.808 326.895 174.388 327.025 175.118 327.025C176.078 327.025 176.808 326.76 177.308 326.23C177.818 325.7 178.073 324.93 178.073 323.92C178.073 322.91 177.813 322.165 177.293 321.685C176.783 321.205 175.943 320.965 174.773 320.965C174.243 320.965 173.723 321.02 173.213 321.13C172.703 321.23 172.273 321.395 171.923 321.625V320.41C172.313 320.19 172.773 320.025 173.303 319.915C173.833 319.805 174.403 319.75 175.013 319.75C176.513 319.75 177.658 320.115 178.448 320.845C179.238 321.575 179.633 322.6 179.633 323.92C179.633 325.25 179.238 326.3 178.448 327.07C177.668 327.84 176.558 328.225 175.118 328.225ZM180.988 320.98H182.518L184.423 326.8C185.363 326.8 186.088 326.54 186.598 326.02C187.108 325.5 187.363 324.765 187.363 323.815C187.363 322.875 187.188 322.165 186.838 321.685C186.488 321.205 185.928 320.965 185.158 320.965C184.798 320.965 184.448 321.01 184.108 321.1V319.915C184.508 319.805 184.943 319.75 185.413 319.75C186.553 319.75 187.423 320.11 188.023 320.83C188.623 321.55 188.923 322.545 188.923 323.815C188.923 324.685 188.733 325.435 188.353 326.065C187.983 326.695 187.478 327.175 186.838 327.505C186.198 327.835 185.488 328 184.708 328H183.268L180.988 320.98ZM191.026 323.005L190.276 321.79C190.806 321.12 191.411 320.615 192.091 320.275C192.771 319.925 193.576 319.75 194.506 319.75C195.706 319.75 196.626 320.025 197.266 320.575C197.906 321.115 198.226 321.875 198.226 322.855V328H196.696V322.975C196.696 322.285 196.511 321.78 196.141 321.46C195.781 321.13 195.236 320.965 194.506 320.965C193.956 320.965 193.471 321.05 193.051 321.22C192.631 321.38 192.251 321.64 191.911 322L192.556 323.005V328H191.026V323.005ZM202.99 322.81C202.99 322.17 202.86 321.705 202.6 321.415C202.34 321.115 201.88 320.965 201.22 320.965C200.58 320.965 199.98 321.105 199.42 321.385V320.185C199.66 320.065 199.97 319.965 200.35 319.885C200.74 319.795 201.125 319.75 201.505 319.75C202.515 319.75 203.27 320.025 203.77 320.575C204.27 321.115 204.52 321.895 204.52 322.915V328H202.99V322.81ZM209.229 328.225C208.679 328.225 208.119 328.16 207.549 328.03C206.979 327.91 206.534 327.73 206.214 327.49V326.26C206.644 326.52 207.114 326.72 207.624 326.86C208.144 326.99 208.639 327.055 209.109 327.055C209.769 327.055 210.244 326.98 210.534 326.83C210.824 326.67 210.969 326.4 210.969 326.02C210.969 325.76 210.899 325.55 210.759 325.39C210.619 325.23 210.404 325.09 210.114 324.97C209.834 324.85 209.389 324.7 208.779 324.52C207.899 324.25 207.244 323.935 206.814 323.575C206.384 323.205 206.169 322.695 206.169 322.045C206.169 321.305 206.454 320.74 207.024 320.35C207.594 319.95 208.374 319.75 209.364 319.75C209.874 319.75 210.364 319.81 210.834 319.93C211.314 320.04 211.709 320.19 212.019 320.38V321.64C211.679 321.43 211.289 321.265 210.849 321.145C210.409 321.025 209.959 320.965 209.499 320.965C208.299 320.965 207.699 321.325 207.699 322.045C207.699 322.315 207.779 322.53 207.939 322.69C208.109 322.85 208.329 322.985 208.599 323.095C208.879 323.195 209.344 323.34 209.994 323.53C210.634 323.72 211.134 323.925 211.494 324.145C211.854 324.365 212.109 324.625 212.259 324.925C212.409 325.225 212.484 325.595 212.484 326.035C212.484 326.695 212.214 327.225 211.674 327.625C211.134 328.025 210.319 328.225 209.229 328.225ZM217.1 328.225C216.48 328.225 215.88 328.15 215.3 328C214.72 327.86 214.23 327.66 213.83 327.4V323.41H217.16V324.64H215.36V326.635C215.79 326.895 216.37 327.025 217.1 327.025C218.06 327.025 218.79 326.76 219.29 326.23C219.8 325.7 220.055 324.93 220.055 323.92C220.055 322.91 219.795 322.165 219.275 321.685C218.765 321.205 217.925 320.965 216.755 320.965C216.225 320.965 215.705 321.02 215.195 321.13C214.685 321.23 214.255 321.395 213.905 321.625V320.41C214.295 320.19 214.755 320.025 215.285 319.915C215.815 319.805 216.385 319.75 216.995 319.75C218.495 319.75 219.64 320.115 220.43 320.845C221.22 321.575 221.615 322.6 221.615 323.92C221.615 325.25 221.22 326.3 220.43 327.07C219.65 327.84 218.54 328.225 217.1 328.225ZM226.241 328.225C225.621 328.225 225.021 328.15 224.441 328C223.861 327.86 223.371 327.66 222.971 327.4V323.41H226.301V324.64H224.501V326.635C224.931 326.895 225.511 327.025 226.241 327.025C227.201 327.025 227.931 326.76 228.431 326.23C228.941 325.7 229.196 324.93 229.196 323.92C229.196 322.91 228.936 322.165 228.416 321.685C227.906 321.205 227.066 320.965 225.896 320.965C225.366 320.965 224.846 321.02 224.336 321.13C223.826 321.23 223.396 321.395 223.046 321.625V320.41C223.436 320.19 223.896 320.025 224.426 319.915C224.956 319.805 225.526 319.75 226.136 319.75C227.636 319.75 228.781 320.115 229.571 320.845C230.361 321.575 230.756 322.6 230.756 323.92C230.756 325.25 230.361 326.3 229.571 327.07C228.791 327.84 227.681 328.225 226.241 328.225ZM232.862 323.005L232.112 321.79C232.642 321.12 233.247 320.615 233.927 320.275C234.607 319.925 235.412 319.75 236.342 319.75C237.542 319.75 238.462 320.025 239.102 320.575C239.742 321.115 240.062 321.875 240.062 322.855V328H238.532V322.975C238.532 322.285 238.347 321.78 237.977 321.46C237.617 321.13 237.072 320.965 236.342 320.965C235.792 320.965 235.307 321.05 234.887 321.22C234.467 321.38 234.087 321.64 233.747 322L234.392 323.005V328H232.862V323.005ZM242.111 323.59H243.626L244.406 326.8C245.376 326.8 246.151 326.54 246.731 326.02C247.321 325.49 247.616 324.76 247.616 323.83C247.616 322.82 247.376 322.09 246.896 321.64C246.416 321.19 245.626 320.965 244.526 320.965C244.026 320.965 243.516 321.015 242.996 321.115C242.486 321.205 242.056 321.33 241.706 321.49V320.29C242.076 320.12 242.526 319.99 243.056 319.9C243.596 319.8 244.146 319.75 244.706 319.75C246.126 319.75 247.221 320.09 247.991 320.77C248.771 321.45 249.161 322.47 249.161 323.83C249.161 324.62 248.961 325.335 248.561 325.975C248.161 326.605 247.616 327.1 246.926 327.46C246.246 327.82 245.496 328 244.676 328H243.191L242.111 323.59ZM253.63 322.81C253.63 322.17 253.5 321.705 253.24 321.415C252.98 321.115 252.52 320.965 251.86 320.965C251.22 320.965 250.62 321.105 250.06 321.385V320.185C250.3 320.065 250.61 319.965 250.99 319.885C251.38 319.795 251.765 319.75 252.145 319.75C253.155 319.75 253.91 320.025 254.41 320.575C254.91 321.115 255.16 321.895 255.16 322.915V328H253.63V322.81ZM257.559 323.005L256.809 321.79C257.339 321.12 257.944 320.615 258.624 320.275C259.304 319.925 260.109 319.75 261.039 319.75C262.239 319.75 263.159 320.025 263.799 320.575C264.439 321.115 264.759 321.875 264.759 322.855V328H263.229V322.975C263.229 322.285 263.044 321.78 262.674 321.46C262.314 321.13 261.769 320.965 261.039 320.965C260.489 320.965 260.004 321.05 259.584 321.22C259.164 321.38 258.784 321.64 258.444 322L259.089 323.005V328H257.559V323.005ZM269.464 328.225C268.914 328.225 268.354 328.16 267.784 328.03C267.214 327.91 266.769 327.73 266.449 327.49V326.26C266.879 326.52 267.349 326.72 267.859 326.86C268.379 326.99 268.874 327.055 269.344 327.055C270.004 327.055 270.479 326.98 270.769 326.83C271.059 326.67 271.204 326.4 271.204 326.02C271.204 325.76 271.134 325.55 270.994 325.39C270.854 325.23 270.639 325.09 270.349 324.97C270.069 324.85 269.624 324.7 269.014 324.52C268.134 324.25 267.479 323.935 267.049 323.575C266.619 323.205 266.404 322.695 266.404 322.045C266.404 321.305 266.689 320.74 267.259 320.35C267.829 319.95 268.609 319.75 269.599 319.75C270.109 319.75 270.599 319.81 271.069 319.93C271.549 320.04 271.944 320.19 272.254 320.38V321.64C271.914 321.43 271.524 321.265 271.084 321.145C270.644 321.025 270.194 320.965 269.734 320.965C268.534 320.965 267.934 321.325 267.934 322.045C267.934 322.315 268.014 322.53 268.174 322.69C268.344 322.85 268.564 322.985 268.834 323.095C269.114 323.195 269.579 323.34 270.229 323.53C270.869 323.72 271.369 323.925 271.729 324.145C272.089 324.365 272.344 324.625 272.494 324.925C272.644 325.225 272.719 325.595 272.719 326.035C272.719 326.695 272.449 327.225 271.909 327.625C271.369 328.025 270.554 328.225 269.464 328.225ZM275.265 323.125C274.825 323.125 274.515 323.025 274.335 322.825C274.155 322.625 274.065 322.32 274.065 321.91V321.055H275.445V321.625C275.445 321.785 275.48 321.9 275.55 321.97C275.62 322.03 275.745 322.06 275.925 322.06H277.68V323.125H275.265ZM275.265 327.22C274.825 327.22 274.515 327.12 274.335 326.92C274.155 326.72 274.065 326.415 274.065 326.005V325.15H275.445V325.72C275.445 325.88 275.48 325.995 275.55 326.065C275.62 326.125 275.745 326.155 275.925 326.155H277.68V327.22H275.265ZM283.185 328.225C282.405 328.225 281.725 328.085 281.145 327.805C280.565 327.525 280.115 327.135 279.795 326.635C279.485 326.125 279.33 325.545 279.33 324.895V319.975H280.86V324.865C280.86 325.535 281.055 326.065 281.445 326.455C281.845 326.835 282.425 327.025 283.185 327.025C283.935 327.025 284.505 326.835 284.895 326.455C285.295 326.065 285.495 325.535 285.495 324.865V319.975H287.025V324.895C287.025 325.545 286.865 326.125 286.545 326.635C286.235 327.135 285.79 327.525 285.21 327.805C284.63 328.085 283.955 328.225 283.185 328.225ZM292.824 328.225C292.044 328.225 291.364 328.085 290.784 327.805C290.204 327.525 289.754 327.135 289.434 326.635C289.124 326.125 288.969 325.545 288.969 324.895V319.975H290.499V324.865C290.499 325.535 290.694 326.065 291.084 326.455C291.484 326.835 292.064 327.025 292.824 327.025C293.574 327.025 294.144 326.835 294.534 326.455C294.934 326.065 295.134 325.535 295.134 324.865V319.975H296.664V324.895C296.664 325.545 296.504 326.125 296.184 326.635C295.874 327.135 295.429 327.525 294.849 327.805C294.269 328.085 293.594 328.225 292.824 328.225ZM300.123 324.7C300.123 324.09 300.238 323.58 300.468 323.17C300.698 322.76 301.088 322.365 301.638 321.985C302.038 321.705 302.338 321.485 302.538 321.325C302.738 321.155 302.893 320.97 303.003 320.77C303.123 320.56 303.183 320.315 303.183 320.035C303.183 319.585 303.003 319.23 302.643 318.97C302.283 318.71 301.763 318.58 301.083 318.58C300.083 318.58 299.158 318.78 298.308 319.18V317.86C298.708 317.69 299.143 317.555 299.613 317.455C300.093 317.345 300.583 317.29 301.083 317.29C302.183 317.29 303.058 317.535 303.708 318.025C304.358 318.515 304.683 319.185 304.683 320.035C304.683 320.555 304.548 321 304.278 321.37C304.008 321.74 303.583 322.135 303.003 322.555C302.583 322.855 302.283 323.095 302.103 323.275C301.923 323.445 301.793 323.64 301.713 323.86C301.633 324.07 301.593 324.355 301.593 324.715V325.015H300.123V324.7ZM300.843 328.225C300.593 328.225 300.383 328.14 300.213 327.97C300.043 327.8 299.958 327.59 299.958 327.34C299.958 327.09 300.043 326.88 300.213 326.71C300.383 326.54 300.593 326.455 300.843 326.455C301.093 326.455 301.303 326.54 301.473 326.71C301.653 326.88 301.743 327.09 301.743 327.34C301.743 327.59 301.653 327.8 301.473 327.97C301.303 328.14 301.093 328.225 300.843 328.225Z" fill="black"/>
<rect x="90" y="345" width="217" height="44" rx="22" fill="#FF494C"/>
<path d="M193.56 372C192.973 372 192.52 371.835 192.2 371.504C191.891 371.163 191.736 370.693 191.736 370.096V366.24C191.736 365.739 191.832 365.307 192.024 364.944C192.216 364.581 192.483 364.197 192.824 363.792C193.048 363.536 193.213 363.317 193.32 363.136C193.437 362.955 193.496 362.768 193.496 362.576C193.496 362.267 193.416 362.043 193.256 361.904C193.096 361.765 192.824 361.696 192.44 361.696C191.821 361.696 191.245 361.893 190.712 362.288V360.432C191.043 360.229 191.432 360.075 191.88 359.968C192.328 359.861 192.787 359.808 193.256 359.808C194.173 359.808 194.856 360.021 195.304 360.448C195.763 360.864 195.992 361.408 195.992 362.08C195.992 362.475 195.917 362.821 195.768 363.12C195.619 363.408 195.389 363.76 195.08 364.176C194.781 364.56 194.552 364.907 194.392 365.216C194.243 365.515 194.168 365.856 194.168 366.24V369.44C194.168 369.696 194.221 369.877 194.328 369.984C194.435 370.091 194.611 370.144 194.856 370.144H195.416V372H193.56ZM200.799 372.24C199.957 372.24 199.221 372.107 198.591 371.84C197.962 371.573 197.482 371.2 197.151 370.72C196.821 370.24 196.655 369.696 196.655 369.088V368.688C196.655 368.304 196.73 367.957 196.879 367.648C197.029 367.339 197.237 366.992 197.503 366.608C197.674 366.373 197.797 366.187 197.871 366.048C197.946 365.899 197.983 365.765 197.983 365.648C197.983 365.349 197.802 365.2 197.439 365.2H196.543V363.44H198.863C199.343 363.44 199.727 363.579 200.015 363.856C200.303 364.133 200.447 364.496 200.447 364.944C200.447 365.264 200.389 365.563 200.271 365.84C200.154 366.107 199.978 366.416 199.743 366.768C199.519 367.12 199.349 367.419 199.231 367.664C199.125 367.909 199.071 368.176 199.071 368.464V368.8C199.071 369.301 199.221 369.685 199.519 369.952C199.818 370.219 200.245 370.352 200.799 370.352C201.386 370.352 201.829 370.192 202.127 369.872C202.437 369.541 202.591 369.067 202.591 368.448C202.591 367.147 202.085 366.496 201.071 366.496V365.328L202.623 363.2H205.199L203.455 365.584C204.021 365.872 204.421 366.251 204.655 366.72C204.901 367.179 205.023 367.765 205.023 368.48C205.023 369.216 204.853 369.867 204.511 370.432C204.181 370.997 203.695 371.44 203.055 371.76C202.415 372.08 201.663 372.24 200.799 372.24ZM202.47 359.536H204.902V362.384H202.47V359.536Z" fill="white"/>
<rect x="90" y="404" width="217" height="44" rx="22" fill="#EFEFEF"/>
<path d="M179.912 431.24C178.579 431.24 177.512 431 176.712 430.52C175.912 430.029 175.512 429.331 175.512 428.424C175.512 428.008 175.624 427.635 175.848 427.304C176.083 426.963 176.392 426.717 176.776 426.568C176.424 426.387 176.136 426.125 175.912 425.784C175.699 425.443 175.592 425.069 175.592 424.664C175.592 423.917 175.853 423.32 176.376 422.872C176.909 422.424 177.677 422.2 178.68 422.2C178.989 422.2 179.293 422.221 179.592 422.264C179.901 422.307 180.136 422.355 180.296 422.408V424.232C180.147 424.168 179.965 424.115 179.752 424.072C179.549 424.029 179.363 424.008 179.192 424.008C178.445 424.008 178.072 424.285 178.072 424.84C178.072 425.128 178.163 425.347 178.344 425.496C178.536 425.635 178.829 425.704 179.224 425.704H180.296V427.416H179.224C178.413 427.416 178.008 427.736 178.008 428.376C178.008 428.717 178.168 428.984 178.488 429.176C178.819 429.357 179.293 429.448 179.912 429.448C180.659 429.448 181.203 429.299 181.544 429C181.896 428.691 182.072 428.232 182.072 427.624V422.424H184.504V427.608C184.504 428.216 184.349 428.797 184.04 429.352C183.731 429.896 183.235 430.349 182.552 430.712C181.869 431.064 180.989 431.24 179.912 431.24ZM186.624 425.896L185.824 424.536C187.072 422.979 188.677 422.2 190.64 422.2C192.016 422.2 193.072 422.504 193.808 423.112C194.554 423.72 194.928 424.568 194.928 425.656V431H192.496V425.848C192.496 424.675 191.877 424.088 190.64 424.088C190.181 424.088 189.77 424.152 189.408 424.28C189.056 424.408 188.725 424.616 188.416 424.904L189.04 425.928V431H186.624V425.896ZM198.422 431C197.835 431 197.382 430.835 197.062 430.504C196.752 430.163 196.598 429.693 196.598 429.096V422.44H199.03V428.44C199.03 428.696 199.083 428.877 199.19 428.984C199.296 429.091 199.472 429.144 199.718 429.144H200.278V431H198.422ZM204.478 431.24C203.497 431.24 202.713 430.995 202.126 430.504C201.55 430.013 201.262 429.32 201.262 428.424C201.262 427.528 201.577 426.824 202.206 426.312C202.846 425.8 203.721 425.544 204.83 425.544C205.865 425.544 206.75 425.715 207.486 426.056V425.72C207.486 425.144 207.294 424.717 206.91 424.44C206.537 424.163 205.929 424.024 205.086 424.024C204.563 424.024 204.051 424.077 203.55 424.184C203.049 424.291 202.601 424.44 202.206 424.632V422.808C202.558 422.637 203.043 422.493 203.662 422.376C204.281 422.259 204.905 422.2 205.534 422.2C206.963 422.2 208.046 422.52 208.782 423.16C209.529 423.789 209.902 424.637 209.902 425.704V431H207.486V427.816C206.867 427.496 206.142 427.336 205.31 427.336C204.766 427.336 204.366 427.427 204.11 427.608C203.865 427.789 203.742 428.072 203.742 428.456C203.742 428.808 203.854 429.075 204.078 429.256C204.313 429.427 204.681 429.512 205.182 429.512C205.534 429.512 205.833 429.459 206.078 429.352V431.032C205.662 431.171 205.129 431.24 204.478 431.24ZM202.478 419.848H209.886V421.384H202.478V419.848ZM212.014 425.896L211.214 424.536C212.462 422.979 214.068 422.2 216.03 422.2C217.406 422.2 218.462 422.504 219.198 423.112C219.945 423.72 220.318 424.568 220.318 425.656V431H217.886V425.848C217.886 424.675 217.268 424.088 216.03 424.088C215.572 424.088 215.161 424.152 214.798 424.28C214.446 424.408 214.116 424.616 213.806 424.904L214.43 425.928V431H212.014V425.896Z" fill="black"/>
</svg>
