<svg width="390" height="849" viewBox="0 0 390 849" fill="none" xmlns="http://www.w3.org/2000/svg">
<rect y="5" width="390" height="844" rx="32" fill="white"/>
<path d="M54.0688 36V26.1304H53.9194L50.9395 28.2305V26.2217L54.0688 24.022H56.2021V36H54.0688ZM63.4219 36.2988C62.4701 36.2988 61.6538 36.0443 60.9731 35.5352C60.298 35.026 59.7778 34.3011 59.4126 33.3604C59.0474 32.4196 58.8647 31.3045 58.8647 30.0151V29.9985C58.8647 28.7091 59.0474 27.5968 59.4126 26.6616C59.7778 25.7209 60.298 24.9959 60.9731 24.4868C61.6538 23.9777 62.4701 23.7231 63.4219 23.7231C64.3737 23.7231 65.1899 23.9777 65.8706 24.4868C66.5513 24.9959 67.0742 25.7209 67.4395 26.6616C67.8047 27.5968 67.9873 28.7091 67.9873 29.9985V30.0151C67.9873 31.3045 67.8047 32.4196 67.4395 33.3604C67.0742 34.3011 66.5513 35.026 65.8706 35.5352C65.1899 36.0443 64.3737 36.2988 63.4219 36.2988ZM63.4219 34.564C63.931 34.564 64.3654 34.3813 64.7251 34.0161C65.0848 33.6509 65.3587 33.1307 65.5469 32.4556C65.7406 31.7749 65.8374 30.9614 65.8374 30.0151V29.9985C65.8374 29.0522 65.7406 28.2415 65.5469 27.5664C65.3587 26.8857 65.0848 26.3656 64.7251 26.0059C64.3654 25.6406 63.931 25.458 63.4219 25.458C62.9128 25.458 62.4784 25.6406 62.1187 26.0059C61.7645 26.3656 61.4906 26.8857 61.2969 27.5664C61.1087 28.2415 61.0146 29.0522 61.0146 29.9985V30.0151C61.0146 30.9614 61.1087 31.7749 61.2969 32.4556C61.4906 33.1307 61.7645 33.6509 62.1187 34.0161C62.4784 34.3813 62.9128 34.564 63.4219 34.564ZM71.2974 34.3896C70.9211 34.3896 70.6056 34.2651 70.3511 34.0161C70.1021 33.7616 69.9775 33.4517 69.9775 33.0864C69.9775 32.7157 70.1021 32.4058 70.3511 32.1567C70.6056 31.9022 70.9211 31.7749 71.2974 31.7749C71.6792 31.7749 71.9946 31.9022 72.2437 32.1567C72.4927 32.4058 72.6172 32.7157 72.6172 33.0864C72.6172 33.4517 72.4927 33.7616 72.2437 34.0161C71.9946 34.2651 71.6792 34.3896 71.2974 34.3896ZM71.2974 28.2305C70.9211 28.2305 70.6056 28.106 70.3511 27.8569C70.1021 27.6024 69.9775 27.2925 69.9775 26.9272C69.9775 26.5565 70.1021 26.2466 70.3511 25.9976C70.6056 25.743 70.9211 25.6157 71.2974 25.6157C71.6792 25.6157 71.9946 25.743 72.2437 25.9976C72.4927 26.2466 72.6172 26.5565 72.6172 26.9272C72.6172 27.2925 72.4927 27.6024 72.2437 27.8569C71.9946 28.106 71.6792 28.2305 71.2974 28.2305ZM79.1562 36.2988C78.2044 36.2988 77.3882 36.0443 76.7075 35.5352C76.0324 35.026 75.5122 34.3011 75.147 33.3604C74.7817 32.4196 74.5991 31.3045 74.5991 30.0151V29.9985C74.5991 28.7091 74.7817 27.5968 75.147 26.6616C75.5122 25.7209 76.0324 24.9959 76.7075 24.4868C77.3882 23.9777 78.2044 23.7231 79.1562 23.7231C80.1081 23.7231 80.9243 23.9777 81.605 24.4868C82.2856 24.9959 82.8086 25.7209 83.1738 26.6616C83.5391 27.5968 83.7217 28.7091 83.7217 29.9985V30.0151C83.7217 31.3045 83.5391 32.4196 83.1738 33.3604C82.8086 34.3011 82.2856 35.026 81.605 35.5352C80.9243 36.0443 80.1081 36.2988 79.1562 36.2988ZM79.1562 34.564C79.6654 34.564 80.0998 34.3813 80.4595 34.0161C80.8192 33.6509 81.0931 33.1307 81.2812 32.4556C81.4749 31.7749 81.5718 30.9614 81.5718 30.0151V29.9985C81.5718 29.0522 81.4749 28.2415 81.2812 27.5664C81.0931 26.8857 80.8192 26.3656 80.4595 26.0059C80.0998 25.6406 79.6654 25.458 79.1562 25.458C78.6471 25.458 78.2127 25.6406 77.853 26.0059C77.4989 26.3656 77.2249 26.8857 77.0312 27.5664C76.8431 28.2415 76.749 29.0522 76.749 29.9985V30.0151C76.749 30.9614 76.8431 31.7749 77.0312 32.4556C77.2249 33.1307 77.4989 33.6509 77.853 34.0161C78.2127 34.3813 78.6471 34.564 79.1562 34.564ZM89.9619 36.2988C89.0101 36.2988 88.1938 36.0443 87.5132 35.5352C86.8381 35.026 86.3179 34.3011 85.9526 33.3604C85.5874 32.4196 85.4048 31.3045 85.4048 30.0151V29.9985C85.4048 28.7091 85.5874 27.5968 85.9526 26.6616C86.3179 25.7209 86.8381 24.9959 87.5132 24.4868C88.1938 23.9777 89.0101 23.7231 89.9619 23.7231C90.9137 23.7231 91.73 23.9777 92.4106 24.4868C93.0913 24.9959 93.6143 25.7209 93.9795 26.6616C94.3447 27.5968 94.5273 28.7091 94.5273 29.9985V30.0151C94.5273 31.3045 94.3447 32.4196 93.9795 33.3604C93.6143 34.3011 93.0913 35.026 92.4106 35.5352C91.73 36.0443 90.9137 36.2988 89.9619 36.2988ZM89.9619 34.564C90.471 34.564 90.9054 34.3813 91.2651 34.0161C91.6248 33.6509 91.8988 33.1307 92.0869 32.4556C92.2806 31.7749 92.3774 30.9614 92.3774 30.0151V29.9985C92.3774 29.0522 92.2806 28.2415 92.0869 27.5664C91.8988 26.8857 91.6248 26.3656 91.2651 26.0059C90.9054 25.6406 90.471 25.458 89.9619 25.458C89.4528 25.458 89.0184 25.6406 88.6587 26.0059C88.3045 26.3656 88.0306 26.8857 87.8369 27.5664C87.6488 28.2415 87.5547 29.0522 87.5547 29.9985V30.0151C87.5547 30.9614 87.6488 31.7749 87.8369 32.4556C88.0306 33.1307 88.3045 33.6509 88.6587 34.0161C89.0184 34.3813 89.4528 34.564 89.9619 34.564Z" fill="black"/>
<path d="M288.333 31C288.977 31 289.5 31.5037 289.5 32.125V34.375C289.5 34.9963 288.977 35.5 288.333 35.5H287.167C286.523 35.5 286 34.9963 286 34.375V32.125C286 31.5037 286.523 31 287.167 31H288.333ZM293.823 28.75C294.468 28.75 294.99 29.2537 294.99 29.875V34.375C294.99 34.9963 294.468 35.5 293.823 35.5H292.657C292.013 35.5 291.49 34.9963 291.49 34.375V29.875C291.49 29.2537 292.013 28.75 292.657 28.75H293.823ZM299.313 26.125C299.958 26.125 300.48 26.6287 300.48 27.25V34.375C300.48 34.9963 299.958 35.5 299.313 35.5H298.147C297.503 35.5 296.98 34.9963 296.98 34.375V27.25C296.981 26.6287 297.503 26.125 298.147 26.125H299.313ZM304.804 23.5C305.448 23.5 305.971 24.0037 305.971 24.625V34.375C305.971 34.9963 305.448 35.5 304.804 35.5H303.638C302.993 35.5 302.471 34.9963 302.471 34.375V24.625C302.471 24.0037 302.993 23.5 303.638 23.5H304.804Z" fill="black"/>
<path d="M318.512 32.8262C319.932 31.5964 322.011 31.5964 323.431 32.8262C323.502 32.8924 323.544 32.9855 323.546 33.084C323.548 33.1826 323.51 33.2777 323.441 33.3467L321.218 35.6446C321.153 35.7121 321.063 35.7501 320.971 35.7501C320.878 35.7499 320.79 35.7119 320.725 35.6446L318.501 33.3467C318.432 33.2776 318.394 33.1826 318.396 33.084C318.399 32.9855 318.44 32.8923 318.512 32.8262ZM315.545 29.7608C318.604 26.8467 323.341 26.8467 326.4 29.7608C326.469 29.829 326.509 29.9225 326.51 30.0206C326.511 30.1188 326.473 30.2135 326.405 30.2833L325.12 31.6133C324.988 31.7491 324.774 31.7524 324.638 31.6202C323.633 30.6886 322.326 30.1728 320.971 30.1729C319.617 30.1736 318.311 30.6895 317.308 31.6202C317.172 31.7524 316.958 31.7491 316.825 31.6133L315.54 30.2833C315.472 30.2136 315.435 30.1189 315.436 30.0206C315.437 29.9224 315.476 29.829 315.545 29.7608ZM312.578 26.7032C317.27 22.0989 324.671 22.099 329.363 26.7032C329.431 26.7716 329.47 26.8654 329.471 26.963C329.471 27.0605 329.433 27.1545 329.366 27.2237L328.08 28.5538C327.947 28.6901 327.732 28.691 327.598 28.5567C325.81 26.8164 323.437 25.8459 320.971 25.8458C318.504 25.8459 316.131 26.8163 314.344 28.5567C314.209 28.6913 313.994 28.6904 313.861 28.5538L312.574 27.2237C312.507 27.1545 312.47 27.0605 312.471 26.963C312.471 26.8654 312.51 26.7715 312.578 26.7032Z" fill="black"/>
<rect opacity="0.4" x="336.471" y="23.5" width="24" height="12" rx="3.5" stroke="black"/>
<path opacity="0.5" d="M361.971 27.5V31.5C362.777 31.1612 363.301 30.3731 363.301 29.5C363.301 28.6269 362.777 27.8388 361.971 27.5Z" fill="black"/>
<rect x="337.971" y="25" width="17" height="9" rx="2" fill="black"/>
<path d="M0 759H390V817C390 834.673 375.673 849 358 849H32C14.3269 849 0 834.673 0 817V759Z" fill="white"/>
<line y1="758.75" x2="390" y2="758.75" stroke="#5F6368" stroke-opacity="0.4" stroke-width="0.5"/>
<path d="M281 759H369C369 761.209 367.209 763 365 763H285C282.791 763 281 761.209 281 759Z" fill="#2976C3"/>
<path fill-rule="evenodd" clip-rule="evenodd" d="M121 838.5C121 837.119 122.119 836 123.5 836H266.5C267.881 836 269 837.119 269 838.5C269 839.881 267.881 841 266.5 841H123.5C122.119 841 121 839.881 121 838.5Z" fill="#090A0A"/>
<path d="M55.5 789.75H59.25V782.25H66.75V789.75H70.5V778.5L63 772.875L55.5 778.5V789.75ZM53 792.25V777.25L58 773.5L63 769.75L73 777.25V792.25H64.25V784.75H61.75V792.25H53Z" fill="#4E5256"/>
<path d="M41.845 803.045H43.171V806.113L46.538 803.045H48.085L46.187 804.774C46.8977 804.956 47.3917 805.246 47.669 805.645C47.955 806.044 48.098 806.577 48.098 807.244V810H46.772V807.322C46.772 806.802 46.6637 806.408 46.447 806.139C46.239 805.87 45.875 805.68 45.355 805.567L43.171 807.556V810H41.845V803.045ZM52.4833 810.195C51.6339 810.195 50.9709 809.957 50.4943 809.48C50.0263 809.003 49.7923 808.388 49.7923 807.634V803.045H51.1183V807.582C51.1183 808.102 51.2613 808.496 51.5473 808.765C51.8419 809.025 52.2709 809.155 52.8343 809.155C53.7269 809.155 54.4289 808.756 54.9403 807.959V803.045H56.2663V810H54.9793V809.064C54.3293 809.818 53.4973 810.195 52.4833 810.195ZM53.4704 801.199C53.4704 801.095 53.453 801.021 53.4184 800.978C53.375 800.935 53.3014 800.913 53.1974 800.913H52.6124V799.977H53.5874C53.8647 799.977 54.0684 800.046 54.1984 800.185C54.3197 800.315 54.3804 800.48 54.3804 800.679V801.134H57.0454V802.018H53.4704V801.199ZM60.3994 805.502C60.3994 804.947 60.2867 804.544 60.0614 804.293C59.836 804.033 59.4374 803.903 58.8654 803.903C58.3107 803.903 57.7907 804.024 57.3054 804.267V803.227C57.5134 803.123 57.782 803.036 58.1114 802.967C58.4494 802.889 58.783 802.85 59.1124 802.85C59.9877 802.85 60.642 803.088 61.0754 803.565C61.5087 804.033 61.7254 804.709 61.7254 805.593V810H60.3994V805.502ZM63.4143 803.045H64.7403V806.113L68.1073 803.045H69.6543L67.7563 804.774C68.467 804.956 68.961 805.246 69.2383 805.645C69.5243 806.044 69.6673 806.577 69.6673 807.244V810H68.3413V807.322C68.3413 806.802 68.233 806.408 68.0163 806.139C67.8083 805.87 67.4443 805.68 66.9243 805.567L64.7403 807.556V810H63.4143V803.045ZM73.6236 810.195C72.8523 810.195 72.2369 810.004 71.7776 809.623C71.3269 809.233 71.1016 808.683 71.1016 807.972C71.1016 807.27 71.3529 806.711 71.8556 806.295C72.3669 805.879 73.0559 805.671 73.9226 805.671C74.7806 805.671 75.5519 805.831 76.2366 806.152V805.619C76.2366 805.021 76.0719 804.588 75.7426 804.319C75.4219 804.042 74.8846 803.903 74.1306 803.903C73.7146 803.903 73.3073 803.942 72.9086 804.02C72.5099 804.098 72.1633 804.206 71.8686 804.345V803.305C72.1373 803.175 72.5013 803.067 72.9606 802.98C73.4286 802.893 73.8836 802.85 74.3256 802.85C75.4089 802.85 76.2193 803.097 76.7566 803.591C77.2939 804.085 77.5626 804.752 77.5626 805.593V810H76.2366V807.205C75.6039 806.884 74.8803 806.724 74.0656 806.724C73.5023 806.724 73.0863 806.828 72.8176 807.036C72.5576 807.244 72.4276 807.556 72.4276 807.972C72.4276 808.761 72.9346 809.155 73.9486 809.155C74.2606 809.155 74.5336 809.112 74.7676 809.025V810.052C74.4556 810.147 74.0743 810.195 73.6236 810.195ZM75.1241 802.018C74.7514 802.018 74.4828 801.927 74.3181 801.745C74.1448 801.554 74.0581 801.273 74.0581 800.9V800.224H75.2541V800.744C75.2541 800.891 75.2844 800.991 75.3451 801.043C75.3971 801.095 75.5011 801.121 75.6571 801.121H78.7251V802.018H75.1241ZM79.6481 805.671L78.9981 804.618C79.4574 804.037 79.9818 803.6 80.5711 803.305C81.1604 803.002 81.8581 802.85 82.6641 802.85C83.7041 802.85 84.5014 803.088 85.0561 803.565C85.6108 804.033 85.8881 804.692 85.8881 805.541V810H84.5621V805.645C84.5621 805.047 84.4018 804.609 84.0811 804.332C83.7691 804.046 83.2968 803.903 82.6641 803.903C82.1874 803.903 81.7671 803.977 81.4031 804.124C81.0391 804.263 80.7098 804.488 80.4151 804.8L80.9741 805.671V810H79.6481V805.671Z" fill="#4E5256"/>
<path d="M197 792C194.189 792 191.739 791.068 189.651 789.204C187.563 787.34 186.367 785.013 186.061 782.222H188.567C188.852 784.341 189.794 786.093 191.393 787.478C192.992 788.863 194.861 789.556 197 789.556C199.383 789.556 201.405 788.725 203.065 787.065C204.725 785.405 205.556 783.383 205.556 781C205.556 778.617 204.725 776.595 203.065 774.935C201.405 773.275 199.383 772.444 197 772.444C195.594 772.444 194.281 772.77 193.058 773.422C191.836 774.074 190.807 774.97 189.972 776.111H193.333V778.556H186V771.222H188.444V774.094C189.483 772.791 190.751 771.782 192.249 771.069C193.746 770.356 195.33 770 197 770C198.528 770 199.959 770.29 201.293 770.871C202.627 771.451 203.788 772.236 204.776 773.224C205.764 774.212 206.549 775.373 207.129 776.707C207.71 778.041 208 779.472 208 781C208 782.528 207.71 783.959 207.129 785.293C206.549 786.627 205.764 787.788 204.776 788.776C203.788 789.764 202.627 790.549 201.293 791.129C199.959 791.71 198.528 792 197 792ZM200.422 786.133L195.778 781.489V774.889H198.222V780.511L202.133 784.422L200.422 786.133Z" fill="#4E5256"/>
<path d="M156.186 810.195C155.51 810.195 154.921 810.074 154.418 809.831C153.915 809.588 153.525 809.25 153.248 808.817C152.979 808.375 152.845 807.872 152.845 807.309V803.045H154.171V807.283C154.171 807.864 154.34 808.323 154.678 808.661C155.025 808.99 155.527 809.155 156.186 809.155C156.836 809.155 157.33 808.99 157.668 808.661C158.015 808.323 158.188 807.864 158.188 807.283V800.718H159.514V807.309C159.514 807.872 159.375 808.375 159.098 808.817C158.829 809.25 158.444 809.588 157.941 809.831C157.438 810.074 156.853 810.195 156.186 810.195ZM163.591 810.195C163.114 810.195 162.629 810.139 162.135 810.026C161.641 809.922 161.255 809.766 160.978 809.558V808.492C161.35 808.717 161.758 808.891 162.2 809.012C162.65 809.125 163.079 809.181 163.487 809.181C164.059 809.181 164.47 809.116 164.722 808.986C164.973 808.847 165.099 808.613 165.099 808.284C165.099 808.059 165.038 807.877 164.917 807.738C164.795 807.599 164.609 807.478 164.358 807.374C164.115 807.27 163.729 807.14 163.201 806.984C162.438 806.75 161.87 806.477 161.498 806.165C161.125 805.844 160.939 805.402 160.939 804.839C160.939 804.198 161.186 803.708 161.68 803.37C162.174 803.023 162.85 802.85 163.708 802.85C164.15 802.85 164.574 802.902 164.982 803.006C165.398 803.101 165.74 803.231 166.009 803.396V804.488C165.714 804.306 165.376 804.163 164.995 804.059C164.613 803.955 164.223 803.903 163.825 803.903C162.785 803.903 162.265 804.215 162.265 804.839C162.265 805.073 162.334 805.259 162.473 805.398C162.62 805.537 162.811 805.654 163.045 805.749C163.287 805.836 163.69 805.961 164.254 806.126C164.808 806.291 165.242 806.468 165.554 806.659C165.866 806.85 166.087 807.075 166.217 807.335C166.347 807.595 166.412 807.916 166.412 808.297C166.412 808.869 166.178 809.328 165.71 809.675C165.242 810.022 164.535 810.195 163.591 810.195ZM168.618 805.775C168.237 805.775 167.968 805.688 167.812 805.515C167.656 805.342 167.578 805.077 167.578 804.722V803.981H168.774V804.475C168.774 804.614 168.804 804.713 168.865 804.774C168.926 804.826 169.034 804.852 169.19 804.852H170.711V805.775H168.618ZM168.618 809.324C168.237 809.324 167.968 809.237 167.812 809.064C167.656 808.891 167.578 808.626 167.578 808.271V807.53H168.774V808.024C168.774 808.163 168.804 808.262 168.865 808.323C168.926 808.375 169.034 808.401 169.19 808.401H170.711V809.324H168.618ZM174.417 810.195C173.325 810.195 172.48 810 171.882 809.61V808.544C172.463 808.951 173.221 809.155 174.157 809.155C175.006 809.155 175.665 808.934 176.133 808.492C176.61 808.05 176.848 807.396 176.848 806.529C176.848 805.662 176.61 805.008 176.133 804.566C175.665 804.124 175.006 803.903 174.157 803.903C173.247 803.903 172.497 804.107 171.908 804.514V803.435C172.515 803.045 173.351 802.85 174.417 802.85C175.587 802.85 176.51 803.175 177.186 803.825C177.862 804.466 178.2 805.368 178.2 806.529C178.2 807.69 177.862 808.592 177.186 809.233C176.51 809.874 175.587 810.195 174.417 810.195ZM175.498 802.018C175.125 802.018 174.857 801.927 174.692 801.745C174.519 801.554 174.432 801.273 174.432 800.9V800.224H175.628V800.744C175.628 800.891 175.658 800.991 175.719 801.043C175.771 801.095 175.875 801.121 176.031 801.121H179.099V802.018H175.498ZM182.713 810.195C181.673 810.195 180.854 809.9 180.256 809.311C179.667 808.722 179.372 807.855 179.372 806.711C179.372 805.922 179.48 805.238 179.697 804.657C179.914 804.076 180.208 803.63 180.581 803.318C180.962 803.006 181.396 802.85 181.881 802.85C182.54 802.85 183.003 803.114 183.272 803.643C183.419 803.374 183.64 803.175 183.935 803.045C184.23 802.915 184.559 802.85 184.923 802.85C185.521 802.85 185.967 803.041 186.262 803.422C186.565 803.803 186.717 804.315 186.717 804.956V810H185.391V805.047C185.391 804.657 185.33 804.371 185.209 804.189C185.088 803.998 184.88 803.903 184.585 803.903C184.091 803.903 183.783 804.172 183.662 804.709H182.882C182.839 804.44 182.752 804.241 182.622 804.111C182.501 803.972 182.323 803.903 182.089 803.903C181.682 803.903 181.348 804.146 181.088 804.631C180.837 805.116 180.711 805.81 180.711 806.711C180.711 807.543 180.893 808.158 181.257 808.557C181.621 808.956 182.18 809.155 182.934 809.155C183.263 809.155 183.567 809.112 183.844 809.025V810.052C183.541 810.147 183.164 810.195 182.713 810.195ZM181.086 801.121H186.702V802.018H181.086V801.121ZM188.795 805.671L188.145 804.618C188.604 804.037 189.128 803.6 189.718 803.305C190.307 803.002 191.005 802.85 191.811 802.85C192.851 802.85 193.648 803.088 194.203 803.565C194.757 804.033 195.035 804.692 195.035 805.541V810H193.709V805.645C193.709 805.047 193.548 804.609 193.228 804.332C192.916 804.046 192.443 803.903 191.811 803.903C191.334 803.903 190.914 803.977 190.55 804.124C190.186 804.263 189.856 804.488 189.562 804.8L190.121 805.671V810H188.795V805.671ZM199.164 805.502C199.164 804.947 199.051 804.544 198.826 804.293C198.601 804.033 198.202 803.903 197.63 803.903C197.075 803.903 196.555 804.024 196.07 804.267V803.227C196.278 803.123 196.547 803.036 196.876 802.967C197.214 802.889 197.548 802.85 197.877 802.85C198.752 802.85 199.407 803.088 199.84 803.565C200.273 804.033 200.49 804.709 200.49 805.593V810H199.164V805.502ZM204.571 810.195C204.094 810.195 203.609 810.139 203.115 810.026C202.621 809.922 202.235 809.766 201.958 809.558V808.492C202.331 808.717 202.738 808.891 203.18 809.012C203.631 809.125 204.06 809.181 204.467 809.181C205.039 809.181 205.451 809.116 205.702 808.986C205.953 808.847 206.079 808.613 206.079 808.284C206.079 808.059 206.018 807.877 205.897 807.738C205.776 807.599 205.589 807.478 205.338 807.374C205.095 807.27 204.71 807.14 204.181 806.984C203.418 806.75 202.851 806.477 202.478 806.165C202.105 805.844 201.919 805.402 201.919 804.839C201.919 804.198 202.166 803.708 202.66 803.37C203.154 803.023 203.83 802.85 204.688 802.85C205.13 802.85 205.555 802.902 205.962 803.006C206.378 803.101 206.72 803.231 206.989 803.396V804.488C206.694 804.306 206.356 804.163 205.975 804.059C205.594 803.955 205.204 803.903 204.805 803.903C203.765 803.903 203.245 804.215 203.245 804.839C203.245 805.073 203.314 805.259 203.453 805.398C203.6 805.537 203.791 805.654 204.025 805.749C204.268 805.836 204.671 805.961 205.234 806.126C205.789 806.291 206.222 806.468 206.534 806.659C206.846 806.85 207.067 807.075 207.197 807.335C207.327 807.595 207.392 807.916 207.392 808.297C207.392 808.869 207.158 809.328 206.69 809.675C206.222 810.022 205.516 810.195 204.571 810.195ZM208.819 803.045H210.145V806.113L213.512 803.045H215.059L213.161 804.774C213.871 804.956 214.365 805.246 214.643 805.645C214.929 806.044 215.072 806.577 215.072 807.244V810H213.746V807.322C213.746 806.802 213.637 806.408 213.421 806.139C213.213 805.87 212.849 805.68 212.329 805.567L210.145 807.556V810H208.819V803.045ZM217.156 805.671L216.506 804.618C216.965 804.037 217.49 803.6 218.079 803.305C218.668 803.002 219.366 802.85 220.172 802.85C221.212 802.85 222.009 803.088 222.564 803.565C223.119 804.033 223.396 804.692 223.396 805.541V810H222.07V805.645C222.07 805.047 221.91 804.609 221.589 804.332C221.277 804.046 220.805 803.903 220.172 803.903C219.695 803.903 219.275 803.977 218.911 804.124C218.547 804.263 218.218 804.488 217.923 804.8L218.482 805.671V810H217.156V805.671ZM227.343 810.195C226.572 810.195 225.957 810.004 225.497 809.623C225.047 809.233 224.821 808.683 224.821 807.972C224.821 807.27 225.073 806.711 225.575 806.295C226.087 805.879 226.776 805.671 227.642 805.671C228.5 805.671 229.272 805.831 229.956 806.152V805.619C229.956 805.021 229.792 804.588 229.462 804.319C229.142 804.042 228.604 803.903 227.85 803.903C227.434 803.903 227.027 803.942 226.628 804.02C226.23 804.098 225.883 804.206 225.588 804.345V803.305C225.857 803.175 226.221 803.067 226.68 802.98C227.148 802.893 227.603 802.85 228.045 802.85C229.129 802.85 229.939 803.097 230.476 803.591C231.014 804.085 231.282 804.752 231.282 805.593V810H229.956V807.205C229.324 806.884 228.6 806.724 227.785 806.724C227.222 806.724 226.806 806.828 226.537 807.036C226.277 807.244 226.147 807.556 226.147 807.972C226.147 808.761 226.654 809.155 227.668 809.155C227.98 809.155 228.253 809.112 228.487 809.025V810.052C228.175 810.147 227.794 810.195 227.343 810.195ZM228.493 801.199C228.493 801.095 228.475 801.021 228.441 800.978C228.397 800.935 228.324 800.913 228.22 800.913H227.635V799.977H228.61C228.887 799.977 229.091 800.046 229.221 800.185C229.342 800.315 229.403 800.48 229.403 800.679V801.134H232.068V802.018H228.493V801.199ZM236.761 810.195C236.284 810.195 235.829 810.1 235.396 809.909C234.971 809.718 234.59 809.437 234.252 809.064V810H232.978V803.045H234.304V807.959C234.815 808.756 235.517 809.155 236.41 809.155C236.973 809.155 237.398 809.025 237.684 808.765C237.978 808.496 238.126 808.102 238.126 807.582V803.045H239.452V807.634C239.452 808.388 239.213 809.003 238.737 809.48C238.26 809.957 237.601 810.195 236.761 810.195Z" fill="#4E5256"/>
<path d="M311.926 810.195C310.886 810.195 310.067 809.9 309.469 809.311C308.88 808.722 308.585 807.855 308.585 806.711C308.585 805.922 308.693 805.238 308.91 804.657C309.127 804.076 309.421 803.63 309.794 803.318C310.175 803.006 310.609 802.85 311.094 802.85C311.753 802.85 312.216 803.114 312.485 803.643C312.632 803.374 312.853 803.175 313.148 803.045C313.443 802.915 313.772 802.85 314.136 802.85C314.734 802.85 315.18 803.041 315.475 803.422C315.778 803.803 315.93 804.315 315.93 804.956V810H314.604V805.047C314.604 804.657 314.543 804.371 314.422 804.189C314.301 803.998 314.093 803.903 313.798 803.903C313.304 803.903 312.996 804.172 312.875 804.709H312.095C312.052 804.44 311.965 804.241 311.835 804.111C311.714 803.972 311.536 803.903 311.302 803.903C310.895 803.903 310.561 804.146 310.301 804.631C310.05 805.116 309.924 805.81 309.924 806.711C309.924 807.543 310.106 808.158 310.47 808.557C310.834 808.956 311.393 809.155 312.147 809.155C312.476 809.155 312.78 809.112 313.057 809.025V810.052C312.754 810.147 312.377 810.195 311.926 810.195ZM313.483 802.018C313.111 802.018 312.842 801.927 312.677 801.745C312.504 801.554 312.417 801.273 312.417 800.9V800.224H313.613V800.744C313.613 800.891 313.644 800.991 313.704 801.043C313.756 801.095 313.86 801.121 314.016 801.121H317.084V802.018H313.483ZM313.756 799.56C313.756 799.456 313.739 799.387 313.704 799.352C313.67 799.309 313.596 799.287 313.483 799.287H312.937V798.403H313.873C314.376 798.403 314.627 798.624 314.627 799.066V799.482H316.824V800.301H313.756V799.56ZM317.357 803.916H318.683L320.334 808.96C321.149 808.96 321.777 808.735 322.219 808.284C322.661 807.833 322.882 807.196 322.882 806.373C322.882 805.558 322.731 804.943 322.427 804.527C322.124 804.111 321.639 803.903 320.971 803.903C320.659 803.903 320.356 803.942 320.061 804.02V802.993C320.408 802.898 320.785 802.85 321.192 802.85C322.18 802.85 322.934 803.162 323.454 803.786C323.974 804.41 324.234 805.272 324.234 806.373C324.234 807.127 324.07 807.777 323.74 808.323C323.42 808.869 322.982 809.285 322.427 809.571C321.873 809.857 321.257 810 320.581 810H319.333L317.357 803.916ZM325.666 805.697C325.666 804.796 325.961 804.098 326.55 803.604C327.14 803.101 327.95 802.85 328.981 802.85C330.004 802.85 330.81 803.097 331.399 803.591C331.989 804.085 332.283 804.787 332.283 805.697V810H330.957V805.658C330.957 805.069 330.784 804.631 330.437 804.345C330.091 804.05 329.605 803.903 328.981 803.903C328.349 803.903 327.859 804.05 327.512 804.345C327.166 804.631 326.992 805.069 326.992 805.658V806.984C327.105 806.776 327.283 806.611 327.525 806.49C327.768 806.36 328.054 806.295 328.383 806.295H329.423V807.387H328.279C327.915 807.387 327.608 807.517 327.356 807.777C327.114 808.028 326.992 808.319 326.992 808.648V810H325.666V805.697ZM330.992 799.847H332.305V802.018H330.992V799.847ZM336.413 805.502C336.413 804.947 336.3 804.544 336.075 804.293C335.85 804.033 335.451 803.903 334.879 803.903C334.324 803.903 333.804 804.024 333.319 804.267V803.227C333.527 803.123 333.796 803.036 334.125 802.967C334.463 802.889 334.797 802.85 335.126 802.85C336.001 802.85 336.656 803.088 337.089 803.565C337.522 804.033 337.739 804.709 337.739 805.593V810H336.413V805.502Z" fill="#2976C3"/>
<path d="M309 792V789H337V792H309ZM309 784.5V781.5H337V784.5H309ZM309 777V774H337V777H309Z" fill="#2976C3"/>
<line x1="38" y1="140.5" x2="350" y2="140.5" stroke="black"/>
<line x1="38" y1="218.5" x2="350" y2="218.5" stroke="black"/>
<line x1="38" y1="296.5" x2="350" y2="296.5" stroke="black"/>
<line x1="38" y1="374.5" x2="350" y2="374.5" stroke="black"/>
<path d="M42.4 117.16C41.504 117.16 40.8107 116.957 40.32 116.552C39.8293 116.136 39.488 115.576 39.296 114.872C39.104 114.157 39.008 113.347 39.008 112.44C39.008 111.395 39.104 110.552 39.296 109.912C39.4987 109.272 39.792 108.808 40.176 108.52C40.56 108.221 41.0293 108.072 41.584 108.072C41.9573 108.072 42.272 108.136 42.528 108.264C42.7947 108.392 42.9813 108.605 43.088 108.904H43.152C43.2587 108.595 43.4507 108.381 43.728 108.264C44.0053 108.136 44.3307 108.072 44.704 108.072C45.3973 108.072 45.9307 108.259 46.304 108.632C46.688 108.995 46.88 109.555 46.88 110.312V117H45.456V110.328C45.456 109.912 45.3653 109.629 45.184 109.48C45.0027 109.331 44.7733 109.256 44.496 109.256C44.1867 109.256 43.9573 109.331 43.808 109.48C43.6693 109.629 43.584 109.875 43.552 110.216H42.656C42.6133 109.843 42.5013 109.592 42.32 109.464C42.1387 109.325 41.936 109.256 41.712 109.256C41.2853 109.256 40.9653 109.507 40.752 110.008C40.5387 110.499 40.432 111.315 40.432 112.456C40.432 113.192 40.4853 113.821 40.592 114.344C40.7093 114.867 40.9227 115.272 41.232 115.56C41.5413 115.837 41.9893 115.976 42.576 115.976C42.7893 115.976 42.9653 115.965 43.104 115.944C43.2427 115.923 43.376 115.896 43.504 115.864L43.648 116.952C43.488 117.027 43.296 117.08 43.072 117.112C42.848 117.144 42.624 117.16 42.4 117.16ZM44.6534 106.84C44.2054 106.84 43.848 106.776 43.5814 106.648C43.3147 106.52 43.1227 106.355 43.0054 106.152C42.8774 105.949 42.8134 105.736 42.8134 105.512C42.8134 105.352 42.84 105.181 42.8934 105C42.936 104.808 42.9947 104.653 43.0694 104.536L44.2694 104.744C44.248 104.787 44.2267 104.861 44.2054 104.968C44.184 105.064 44.1734 105.155 44.1734 105.24C44.1734 105.379 44.216 105.501 44.3014 105.608C44.3867 105.704 44.5307 105.752 44.7334 105.752H48.7814V106.84H44.6534ZM44.4657 104.464V103.904C44.6044 103.872 44.7537 103.824 44.9137 103.76C45.0737 103.696 45.2124 103.616 45.3297 103.52C45.4471 103.413 45.5057 103.28 45.5057 103.12C45.5057 103.003 45.4737 102.912 45.4097 102.848C45.3457 102.784 45.2551 102.752 45.1377 102.752C45.0524 102.752 44.9671 102.768 44.8817 102.8C44.7857 102.821 44.6951 102.859 44.6097 102.912L44.3217 102.176C44.5137 102.048 44.7324 101.963 44.9777 101.92C45.2124 101.877 45.3991 101.856 45.5377 101.856C45.8151 101.856 46.0657 101.931 46.2897 102.08C46.5137 102.219 46.6257 102.459 46.6257 102.8C46.6257 102.939 46.5991 103.099 46.5457 103.28C46.4817 103.451 46.3537 103.589 46.1617 103.696L46.0657 103.392H48.4977V104.464H44.4657ZM50.9079 117L48.1719 108.232H49.6119L51.9799 115.768H52.1719C52.4279 115.768 52.6785 115.709 52.9239 115.592C53.1692 115.464 53.3772 115.304 53.5479 115.112C53.8679 114.76 54.1025 114.317 54.2519 113.784C54.4012 113.24 54.4759 112.707 54.4759 112.184C54.4759 111.299 54.2732 110.605 53.8679 110.104C53.4732 109.592 52.9239 109.336 52.2199 109.336C52.0812 109.336 51.9425 109.347 51.8039 109.368C51.6759 109.389 51.5692 109.416 51.4839 109.448L51.1319 108.312C51.3559 108.248 51.5639 108.205 51.7559 108.184C51.9585 108.163 52.1399 108.152 52.2999 108.152C52.8332 108.152 53.3079 108.232 53.7239 108.392C54.1505 108.541 54.5132 108.765 54.8119 109.064C55.1852 109.427 55.4572 109.88 55.6279 110.424C55.8092 110.968 55.8999 111.571 55.8999 112.232C55.8999 113.064 55.7719 113.805 55.5159 114.456C55.2599 115.096 54.9399 115.608 54.5559 115.992C54.2465 116.301 53.8679 116.547 53.4199 116.728C52.9719 116.909 52.4012 117 51.7079 117H50.9079ZM58.0616 117V111.4C58.0616 110.323 58.3496 109.501 58.9256 108.936C59.5016 108.36 60.419 108.072 61.6776 108.072C62.947 108.072 63.8643 108.36 64.4296 108.936C65.0056 109.501 65.2936 110.323 65.2936 111.4V117H63.8696V111.4C63.8696 110.685 63.683 110.152 63.3096 109.8C62.9363 109.437 62.387 109.256 61.6616 109.256C60.947 109.256 60.403 109.437 60.0296 109.8C59.667 110.152 59.4856 110.685 59.4856 111.4V113.176L59.5336 113.192C59.7683 112.776 60.0563 112.504 60.3976 112.376C60.739 112.237 61.219 112.168 61.8376 112.168H62.3656V113.336H61.8376C61.187 113.336 60.691 113.427 60.3496 113.608C60.019 113.789 59.7896 114.029 59.6616 114.328C59.5443 114.616 59.4856 114.941 59.4856 115.304V117H58.0616ZM63.6989 106.84V103.464H65.1069V106.84H63.6989ZM70.3698 117V110.776C70.3698 110.253 70.2471 109.869 70.0018 109.624C69.7671 109.379 69.3671 109.256 68.8018 109.256C68.4178 109.256 68.0551 109.309 67.7138 109.416C67.3831 109.512 67.0631 109.651 66.7538 109.832V108.552C66.9671 108.445 67.2711 108.339 67.6658 108.232C68.0604 108.125 68.5298 108.072 69.0738 108.072C69.6284 108.072 70.1084 108.152 70.5138 108.312C70.9191 108.472 71.2338 108.739 71.4578 109.112C71.6818 109.475 71.7938 109.96 71.7938 110.568V117H70.3698ZM74.3098 117V113.96C74.3098 113.288 74.4591 112.803 74.7578 112.504C75.0564 112.195 75.4351 111.981 75.8938 111.864L75.9098 111.816L74.1497 111.144V110.616C74.1497 110.179 74.2938 109.768 74.5818 109.384C74.8698 108.989 75.2804 108.675 75.8138 108.44C76.3578 108.195 77.0031 108.072 77.7498 108.072C78.4004 108.072 79.0031 108.179 79.5578 108.392C80.1124 108.595 80.5551 108.92 80.8858 109.368C81.2271 109.805 81.3978 110.381 81.3978 111.096V117H79.9738V111.24C79.9738 110.525 79.7551 110.019 79.3178 109.72C78.8911 109.411 78.3631 109.256 77.7338 109.256C77.0831 109.256 76.5658 109.395 76.1818 109.672C75.7978 109.939 75.6058 110.28 75.6058 110.696L77.3338 111.56L77.2057 112.328C76.8111 112.328 76.4644 112.461 76.1658 112.728C75.8778 112.984 75.7338 113.395 75.7338 113.96V117H74.3098ZM86.4635 117V110.776C86.4635 110.253 86.3408 109.869 86.0955 109.624C85.8608 109.379 85.4608 109.256 84.8955 109.256C84.5115 109.256 84.1488 109.309 83.8075 109.416C83.4768 109.512 83.1568 109.651 82.8475 109.832V108.552C83.0608 108.445 83.3648 108.339 83.7595 108.232C84.1542 108.125 84.6235 108.072 85.1675 108.072C85.7222 108.072 86.2022 108.152 86.6075 108.312C87.0128 108.472 87.3275 108.739 87.5515 109.112C87.7755 109.475 87.8875 109.96 87.8875 110.568V117H86.4635ZM92.9475 117.16C92.3182 117.16 91.7315 117.101 91.1875 116.984C90.6542 116.856 90.2008 116.707 89.8275 116.536L90.2435 115.384C90.4675 115.469 90.7235 115.56 91.0115 115.656C91.2995 115.752 91.6088 115.832 91.9395 115.896C92.2808 115.949 92.6275 115.976 92.9795 115.976C93.5448 115.976 94.0142 115.869 94.3875 115.656C94.7608 115.443 94.9475 115.133 94.9475 114.728C94.9475 114.483 94.8782 114.275 94.7395 114.104C94.6115 113.923 94.4088 113.757 94.1315 113.608C93.8542 113.459 93.4968 113.315 93.0595 113.176C92.3875 112.963 91.8168 112.739 91.3475 112.504C90.8888 112.259 90.5368 111.971 90.2915 111.64C90.0568 111.299 89.9395 110.877 89.9395 110.376C89.9395 109.928 90.0568 109.533 90.2915 109.192C90.5368 108.84 90.9102 108.568 91.4115 108.376C91.9235 108.173 92.5742 108.072 93.3635 108.072C93.8755 108.072 94.3555 108.12 94.8035 108.216C95.2622 108.301 95.6195 108.424 95.8755 108.584V109.784C95.6942 109.699 95.4648 109.613 95.1875 109.528C94.9208 109.443 94.6275 109.373 94.3075 109.32C93.9875 109.267 93.6568 109.24 93.3155 109.24C92.6008 109.24 92.0942 109.352 91.7955 109.576C91.5075 109.789 91.3635 110.035 91.3635 110.312C91.3635 110.547 91.4275 110.744 91.5555 110.904C91.6942 111.064 91.9235 111.219 92.2435 111.368C92.5742 111.517 93.0168 111.688 93.5715 111.88C94.0835 112.051 94.5528 112.248 94.9795 112.472C95.4062 112.696 95.7422 112.979 95.9875 113.32C96.2435 113.651 96.3715 114.077 96.3715 114.6C96.3715 115.048 96.2595 115.469 96.0355 115.864C95.8222 116.248 95.4648 116.563 94.9635 116.808C94.4622 117.043 93.7902 117.16 92.9475 117.16ZM100.28 117.16C99.992 117.16 99.7147 117.112 99.448 117.016C99.1813 116.92 98.9627 116.749 98.792 116.504C98.6213 116.259 98.536 115.917 98.536 115.48V108.232H99.96V115.304C99.96 115.549 100.013 115.725 100.12 115.832C100.227 115.939 100.397 115.992 100.632 115.992C100.728 115.992 100.829 115.981 100.936 115.96C101.043 115.939 101.144 115.912 101.24 115.88L101.432 116.92C101.229 117.016 101.032 117.08 100.84 117.112C100.648 117.144 100.461 117.16 100.28 117.16ZM105.931 117.16C104.918 117.16 104.134 116.92 103.579 116.44C103.035 115.949 102.763 115.219 102.763 114.248V113.272C102.763 112.739 102.838 112.317 102.987 112.008C103.137 111.699 103.297 111.432 103.467 111.208C103.649 110.963 103.803 110.749 103.931 110.568C104.07 110.387 104.139 110.168 104.139 109.912C104.139 109.688 104.081 109.528 103.963 109.432C103.857 109.336 103.718 109.288 103.547 109.288C103.419 109.288 103.281 109.309 103.131 109.352C102.993 109.395 102.854 109.448 102.715 109.512L102.395 108.488C102.587 108.36 102.822 108.269 103.099 108.216C103.387 108.163 103.638 108.136 103.851 108.136C104.246 108.136 104.561 108.205 104.795 108.344C105.041 108.483 105.217 108.675 105.323 108.92C105.43 109.155 105.483 109.432 105.483 109.752C105.483 110.147 105.414 110.472 105.275 110.728C105.147 110.984 104.993 111.235 104.811 111.48C104.63 111.747 104.481 112.003 104.363 112.248C104.246 112.493 104.187 112.813 104.187 113.208V114.152C104.187 114.643 104.267 115.021 104.427 115.288C104.587 115.555 104.801 115.741 105.067 115.848C105.334 115.944 105.622 115.992 105.931 115.992C106.465 115.992 106.87 115.869 107.147 115.624C107.425 115.368 107.563 114.979 107.563 114.456V112.216C107.563 111.821 107.473 111.523 107.291 111.32C107.11 111.107 106.817 111 106.411 111H106.347V110.088H106.427C106.865 110.088 107.174 109.987 107.355 109.784C107.537 109.581 107.643 109.336 107.675 109.048C107.718 108.749 107.739 108.477 107.739 108.232H109.163C109.163 108.797 109.094 109.277 108.955 109.672C108.817 110.067 108.502 110.355 108.011 110.536V110.6C108.31 110.675 108.523 110.803 108.651 110.984C108.79 111.155 108.881 111.352 108.923 111.576C108.966 111.789 108.987 111.997 108.987 112.2V114.536C108.987 115.357 108.731 116.003 108.219 116.472C107.707 116.931 106.945 117.16 105.931 117.16ZM102.37 106.84V106.216L103.538 105.704H109.17V106.84H102.37ZM105.666 106.216V104.408H106.85V106.216H105.666ZM108.002 106.216V104.408H109.17V106.216H108.002ZM106.779 103.464V100.856H108.139V103.464H106.779ZM114.728 117.16C113.576 117.16 112.712 116.861 112.136 116.264C111.571 115.656 111.288 114.707 111.288 113.416C111.288 113.203 111.293 112.973 111.304 112.728C111.325 112.472 111.347 112.221 111.368 111.976H114.728V113.096H112.712V113.416C112.712 114.088 112.787 114.616 112.936 115C113.085 115.373 113.304 115.635 113.592 115.784C113.891 115.933 114.259 116.008 114.696 116.008C115.176 116.008 115.592 115.917 115.944 115.736C116.296 115.555 116.568 115.224 116.76 114.744C116.952 114.264 117.048 113.576 117.048 112.68C117.048 111.891 116.963 111.245 116.792 110.744C116.621 110.243 116.339 109.869 115.944 109.624C115.56 109.379 115.037 109.256 114.376 109.256C114.035 109.256 113.704 109.288 113.384 109.352C113.064 109.405 112.755 109.491 112.456 109.608C112.157 109.715 111.864 109.853 111.576 110.024V108.696C111.789 108.579 112.051 108.477 112.36 108.392C112.669 108.296 113.011 108.221 113.384 108.168C113.757 108.104 114.147 108.072 114.552 108.072C115.491 108.072 116.248 108.264 116.824 108.648C117.411 109.021 117.837 109.555 118.104 110.248C118.371 110.931 118.504 111.741 118.504 112.68C118.504 113.619 118.381 114.424 118.136 115.096C117.891 115.768 117.491 116.28 116.936 116.632C116.392 116.984 115.656 117.16 114.728 117.16ZM125.036 117.16C124.353 117.16 123.761 117.027 123.26 116.76C122.769 116.483 122.433 116.099 122.252 115.608H122.188L122.108 117H120.94V108.232H122.364V113.304C122.364 113.837 122.454 114.307 122.636 114.712C122.828 115.107 123.1 115.416 123.452 115.64C123.814 115.853 124.246 115.96 124.748 115.96C125.377 115.96 125.846 115.795 126.156 115.464C126.465 115.133 126.62 114.648 126.62 114.008V108.232H128.044V114.104C128.044 114.808 127.921 115.384 127.676 115.832C127.441 116.28 127.1 116.616 126.652 116.84C126.204 117.053 125.665 117.16 125.036 117.16ZM137.366 117L134.185 105.364H135.616L138.048 114.841H138.162L140.639 105.364H142.23L144.707 114.841H144.821L147.253 105.364H148.685L145.503 117H144.048L141.48 107.727H141.389L138.821 117H137.366ZM150.259 117V108.273H151.599V117H150.259ZM150.94 106.818C150.679 106.818 150.454 106.729 150.264 106.551C150.079 106.373 149.986 106.159 149.986 105.909C149.986 105.659 150.079 105.445 150.264 105.267C150.454 105.089 150.679 105 150.94 105C151.202 105 151.425 105.089 151.611 105.267C151.8 105.445 151.895 105.659 151.895 105.909C151.895 106.159 151.8 106.373 151.611 106.551C151.425 106.729 151.202 106.818 150.94 106.818ZM154.237 117V105.364H161.214V106.614H155.646V110.545H160.692V111.795H155.646V117H154.237ZM163.446 117V108.273H164.787V117H163.446ZM164.128 106.818C163.866 106.818 163.641 106.729 163.452 106.551C163.266 106.373 163.173 106.159 163.173 105.909C163.173 105.659 163.266 105.445 163.452 105.267C163.641 105.089 163.866 105 164.128 105C164.389 105 164.613 105.089 164.798 105.267C164.988 105.445 165.082 105.659 165.082 105.909C165.082 106.159 164.988 106.373 164.798 106.551C164.613 106.729 164.389 106.818 164.128 106.818ZM173.652 117.16C173.353 117.16 173.07 117.112 172.804 117.016C172.537 116.92 172.318 116.749 172.148 116.504C171.977 116.259 171.892 115.917 171.892 115.48V109.224C171.892 108.925 171.918 108.685 171.972 108.504C172.025 108.312 172.11 108.125 172.228 107.944C172.356 107.763 172.532 107.533 172.756 107.256C173.022 106.925 173.22 106.653 173.348 106.44C173.476 106.227 173.54 105.992 173.54 105.736C173.54 105.427 173.444 105.197 173.252 105.048C173.07 104.888 172.788 104.808 172.404 104.808C172.073 104.808 171.769 104.856 171.492 104.952C171.225 105.048 171.001 105.144 170.82 105.24V104.024C170.969 103.939 171.193 103.859 171.492 103.784C171.801 103.699 172.164 103.656 172.58 103.656C173.284 103.656 173.849 103.816 174.276 104.136C174.713 104.445 174.932 104.925 174.932 105.576C174.932 106.003 174.852 106.376 174.692 106.696C174.532 107.016 174.345 107.304 174.132 107.56C173.95 107.795 173.796 107.992 173.668 108.152C173.55 108.301 173.46 108.456 173.396 108.616C173.342 108.776 173.316 108.989 173.316 109.256V115.304C173.316 115.549 173.369 115.725 173.476 115.832C173.582 115.939 173.748 115.992 173.972 115.992C174.089 115.992 174.201 115.981 174.308 115.96C174.414 115.939 174.51 115.912 174.596 115.88L174.788 116.92C174.585 117.016 174.388 117.08 174.196 117.112C174.014 117.144 173.833 117.16 173.652 117.16ZM176.565 117V108.232H177.989V112.024H178.037L181.685 108.232H183.349V108.28L177.989 113.704V117H176.565ZM182.005 117V113.912C182.005 113.283 181.813 112.792 181.429 112.44C181.045 112.088 180.41 111.912 179.525 111.912L180.357 110.872C181.029 110.872 181.589 110.995 182.037 111.24C182.495 111.475 182.842 111.816 183.077 112.264C183.311 112.712 183.429 113.251 183.429 113.88V117H182.005ZM190.051 117.16C189.369 117.16 188.777 117.027 188.275 116.76C187.785 116.483 187.449 116.099 187.267 115.608H187.203L187.123 117H185.955V108.232H187.379V113.304C187.379 113.837 187.47 114.307 187.651 114.712C187.843 115.107 188.115 115.416 188.467 115.64C188.83 115.853 189.262 115.96 189.763 115.96C190.393 115.96 190.862 115.795 191.171 115.464C191.481 115.133 191.635 114.648 191.635 114.008V108.232H193.059V114.104C193.059 114.808 192.937 115.384 192.691 115.832C192.457 116.28 192.115 116.616 191.667 116.84C191.219 117.053 190.681 117.16 190.051 117.16ZM191.636 106.84V103.464H193.044V106.84H191.636Z" fill="black"/>
<path d="M42.4 204.16C41.504 204.16 40.8107 203.957 40.32 203.552C39.8293 203.136 39.488 202.576 39.296 201.872C39.104 201.157 39.008 200.347 39.008 199.44C39.008 198.395 39.104 197.552 39.296 196.912C39.4987 196.272 39.792 195.808 40.176 195.52C40.56 195.221 41.0293 195.072 41.584 195.072C41.9573 195.072 42.272 195.136 42.528 195.264C42.7947 195.392 42.9813 195.605 43.088 195.904H43.152C43.2587 195.595 43.4507 195.381 43.728 195.264C44.0053 195.136 44.3307 195.072 44.704 195.072C45.3973 195.072 45.9307 195.259 46.304 195.632C46.688 195.995 46.88 196.555 46.88 197.312V204H45.456V197.328C45.456 196.912 45.3653 196.629 45.184 196.48C45.0027 196.331 44.7733 196.256 44.496 196.256C44.1867 196.256 43.9573 196.331 43.808 196.48C43.6693 196.629 43.584 196.875 43.552 197.216H42.656C42.6133 196.843 42.5013 196.592 42.32 196.464C42.1387 196.325 41.936 196.256 41.712 196.256C41.2853 196.256 40.9653 196.507 40.752 197.008C40.5387 197.499 40.432 198.315 40.432 199.456C40.432 200.192 40.4853 200.821 40.592 201.344C40.7093 201.867 40.9227 202.272 41.232 202.56C41.5413 202.837 41.9893 202.976 42.576 202.976C42.7893 202.976 42.9653 202.965 43.104 202.944C43.2427 202.923 43.376 202.896 43.504 202.864L43.648 203.952C43.488 204.027 43.296 204.08 43.072 204.112C42.848 204.144 42.624 204.16 42.4 204.16ZM44.6534 193.84C44.2054 193.84 43.848 193.776 43.5814 193.648C43.3147 193.52 43.1227 193.355 43.0054 193.152C42.8774 192.949 42.8134 192.736 42.8134 192.512C42.8134 192.352 42.84 192.181 42.8934 192C42.936 191.808 42.9947 191.653 43.0694 191.536L44.2694 191.744C44.248 191.787 44.2267 191.861 44.2054 191.968C44.184 192.064 44.1734 192.155 44.1734 192.24C44.1734 192.379 44.216 192.501 44.3014 192.608C44.3867 192.704 44.5307 192.752 44.7334 192.752H48.7814V193.84H44.6534ZM44.4657 191.464V190.904C44.6044 190.872 44.7537 190.824 44.9137 190.76C45.0737 190.696 45.2124 190.616 45.3297 190.52C45.4471 190.413 45.5057 190.28 45.5057 190.12C45.5057 190.003 45.4737 189.912 45.4097 189.848C45.3457 189.784 45.2551 189.752 45.1377 189.752C45.0524 189.752 44.9671 189.768 44.8817 189.8C44.7857 189.821 44.6951 189.859 44.6097 189.912L44.3217 189.176C44.5137 189.048 44.7324 188.963 44.9777 188.92C45.2124 188.877 45.3991 188.856 45.5377 188.856C45.8151 188.856 46.0657 188.931 46.2897 189.08C46.5137 189.219 46.6257 189.459 46.6257 189.8C46.6257 189.939 46.5991 190.099 46.5457 190.28C46.4817 190.451 46.3537 190.589 46.1617 190.696L46.0657 190.392H48.4977V191.464H44.4657ZM50.9079 204L48.1719 195.232H49.6119L51.9799 202.768H52.1719C52.4279 202.768 52.6785 202.709 52.9239 202.592C53.1692 202.464 53.3772 202.304 53.5479 202.112C53.8679 201.76 54.1025 201.317 54.2519 200.784C54.4012 200.24 54.4759 199.707 54.4759 199.184C54.4759 198.299 54.2732 197.605 53.8679 197.104C53.4732 196.592 52.9239 196.336 52.2199 196.336C52.0812 196.336 51.9425 196.347 51.8039 196.368C51.6759 196.389 51.5692 196.416 51.4839 196.448L51.1319 195.312C51.3559 195.248 51.5639 195.205 51.7559 195.184C51.9585 195.163 52.1399 195.152 52.2999 195.152C52.8332 195.152 53.3079 195.232 53.7239 195.392C54.1505 195.541 54.5132 195.765 54.8119 196.064C55.1852 196.427 55.4572 196.88 55.6279 197.424C55.8092 197.968 55.8999 198.571 55.8999 199.232C55.8999 200.064 55.7719 200.805 55.5159 201.456C55.2599 202.096 54.9399 202.608 54.5559 202.992C54.2465 203.301 53.8679 203.547 53.4199 203.728C52.9719 203.909 52.4012 204 51.7079 204H50.9079ZM58.0616 204V198.4C58.0616 197.323 58.3496 196.501 58.9256 195.936C59.5016 195.36 60.419 195.072 61.6776 195.072C62.947 195.072 63.8643 195.36 64.4296 195.936C65.0056 196.501 65.2936 197.323 65.2936 198.4V204H63.8696V198.4C63.8696 197.685 63.683 197.152 63.3096 196.8C62.9363 196.437 62.387 196.256 61.6616 196.256C60.947 196.256 60.403 196.437 60.0296 196.8C59.667 197.152 59.4856 197.685 59.4856 198.4V200.176L59.5336 200.192C59.7683 199.776 60.0563 199.504 60.3976 199.376C60.739 199.237 61.219 199.168 61.8376 199.168H62.3656V200.336H61.8376C61.187 200.336 60.691 200.427 60.3496 200.608C60.019 200.789 59.7896 201.029 59.6616 201.328C59.5443 201.616 59.4856 201.941 59.4856 202.304V204H58.0616ZM63.6989 193.84V190.464H65.1069V193.84H63.6989ZM70.3698 204V197.776C70.3698 197.253 70.2471 196.869 70.0018 196.624C69.7671 196.379 69.3671 196.256 68.8018 196.256C68.4178 196.256 68.0551 196.309 67.7138 196.416C67.3831 196.512 67.0631 196.651 66.7538 196.832V195.552C66.9671 195.445 67.2711 195.339 67.6658 195.232C68.0604 195.125 68.5298 195.072 69.0738 195.072C69.6284 195.072 70.1084 195.152 70.5138 195.312C70.9191 195.472 71.2338 195.739 71.4578 196.112C71.6818 196.475 71.7938 196.96 71.7938 197.568V204H70.3698ZM74.3098 204V200.96C74.3098 200.288 74.4591 199.803 74.7578 199.504C75.0564 199.195 75.4351 198.981 75.8938 198.864L75.9098 198.816L74.1497 198.144V197.616C74.1497 197.179 74.2938 196.768 74.5818 196.384C74.8698 195.989 75.2804 195.675 75.8138 195.44C76.3578 195.195 77.0031 195.072 77.7498 195.072C78.4004 195.072 79.0031 195.179 79.5578 195.392C80.1124 195.595 80.5551 195.92 80.8858 196.368C81.2271 196.805 81.3978 197.381 81.3978 198.096V204H79.9738V198.24C79.9738 197.525 79.7551 197.019 79.3178 196.72C78.8911 196.411 78.3631 196.256 77.7338 196.256C77.0831 196.256 76.5658 196.395 76.1818 196.672C75.7978 196.939 75.6058 197.28 75.6058 197.696L77.3338 198.56L77.2057 199.328C76.8111 199.328 76.4644 199.461 76.1658 199.728C75.8778 199.984 75.7338 200.395 75.7338 200.96V204H74.3098ZM86.4635 204V197.776C86.4635 197.253 86.3408 196.869 86.0955 196.624C85.8608 196.379 85.4608 196.256 84.8955 196.256C84.5115 196.256 84.1488 196.309 83.8075 196.416C83.4768 196.512 83.1568 196.651 82.8475 196.832V195.552C83.0608 195.445 83.3648 195.339 83.7595 195.232C84.1542 195.125 84.6235 195.072 85.1675 195.072C85.7222 195.072 86.2022 195.152 86.6075 195.312C87.0128 195.472 87.3275 195.739 87.5515 196.112C87.7755 196.475 87.8875 196.96 87.8875 197.568V204H86.4635ZM92.9475 204.16C92.3182 204.16 91.7315 204.101 91.1875 203.984C90.6542 203.856 90.2008 203.707 89.8275 203.536L90.2435 202.384C90.4675 202.469 90.7235 202.56 91.0115 202.656C91.2995 202.752 91.6088 202.832 91.9395 202.896C92.2808 202.949 92.6275 202.976 92.9795 202.976C93.5448 202.976 94.0142 202.869 94.3875 202.656C94.7608 202.443 94.9475 202.133 94.9475 201.728C94.9475 201.483 94.8782 201.275 94.7395 201.104C94.6115 200.923 94.4088 200.757 94.1315 200.608C93.8542 200.459 93.4968 200.315 93.0595 200.176C92.3875 199.963 91.8168 199.739 91.3475 199.504C90.8888 199.259 90.5368 198.971 90.2915 198.64C90.0568 198.299 89.9395 197.877 89.9395 197.376C89.9395 196.928 90.0568 196.533 90.2915 196.192C90.5368 195.84 90.9102 195.568 91.4115 195.376C91.9235 195.173 92.5742 195.072 93.3635 195.072C93.8755 195.072 94.3555 195.12 94.8035 195.216C95.2622 195.301 95.6195 195.424 95.8755 195.584V196.784C95.6942 196.699 95.4648 196.613 95.1875 196.528C94.9208 196.443 94.6275 196.373 94.3075 196.32C93.9875 196.267 93.6568 196.24 93.3155 196.24C92.6008 196.24 92.0942 196.352 91.7955 196.576C91.5075 196.789 91.3635 197.035 91.3635 197.312C91.3635 197.547 91.4275 197.744 91.5555 197.904C91.6942 198.064 91.9235 198.219 92.2435 198.368C92.5742 198.517 93.0168 198.688 93.5715 198.88C94.0835 199.051 94.5528 199.248 94.9795 199.472C95.4062 199.696 95.7422 199.979 95.9875 200.32C96.2435 200.651 96.3715 201.077 96.3715 201.6C96.3715 202.048 96.2595 202.469 96.0355 202.864C95.8222 203.248 95.4648 203.563 94.9635 203.808C94.4622 204.043 93.7902 204.16 92.9475 204.16ZM100.28 204.16C99.992 204.16 99.7147 204.112 99.448 204.016C99.1813 203.92 98.9627 203.749 98.792 203.504C98.6213 203.259 98.536 202.917 98.536 202.48V195.232H99.96V202.304C99.96 202.549 100.013 202.725 100.12 202.832C100.227 202.939 100.397 202.992 100.632 202.992C100.728 202.992 100.829 202.981 100.936 202.96C101.043 202.939 101.144 202.912 101.24 202.88L101.432 203.92C101.229 204.016 101.032 204.08 100.84 204.112C100.648 204.144 100.461 204.16 100.28 204.16ZM105.931 204.16C104.918 204.16 104.134 203.92 103.579 203.44C103.035 202.949 102.763 202.219 102.763 201.248V200.272C102.763 199.739 102.838 199.317 102.987 199.008C103.137 198.699 103.297 198.432 103.467 198.208C103.649 197.963 103.803 197.749 103.931 197.568C104.07 197.387 104.139 197.168 104.139 196.912C104.139 196.688 104.081 196.528 103.963 196.432C103.857 196.336 103.718 196.288 103.547 196.288C103.419 196.288 103.281 196.309 103.131 196.352C102.993 196.395 102.854 196.448 102.715 196.512L102.395 195.488C102.587 195.36 102.822 195.269 103.099 195.216C103.387 195.163 103.638 195.136 103.851 195.136C104.246 195.136 104.561 195.205 104.795 195.344C105.041 195.483 105.217 195.675 105.323 195.92C105.43 196.155 105.483 196.432 105.483 196.752C105.483 197.147 105.414 197.472 105.275 197.728C105.147 197.984 104.993 198.235 104.811 198.48C104.63 198.747 104.481 199.003 104.363 199.248C104.246 199.493 104.187 199.813 104.187 200.208V201.152C104.187 201.643 104.267 202.021 104.427 202.288C104.587 202.555 104.801 202.741 105.067 202.848C105.334 202.944 105.622 202.992 105.931 202.992C106.465 202.992 106.87 202.869 107.147 202.624C107.425 202.368 107.563 201.979 107.563 201.456V199.216C107.563 198.821 107.473 198.523 107.291 198.32C107.11 198.107 106.817 198 106.411 198H106.347V197.088H106.427C106.865 197.088 107.174 196.987 107.355 196.784C107.537 196.581 107.643 196.336 107.675 196.048C107.718 195.749 107.739 195.477 107.739 195.232H109.163C109.163 195.797 109.094 196.277 108.955 196.672C108.817 197.067 108.502 197.355 108.011 197.536V197.6C108.31 197.675 108.523 197.803 108.651 197.984C108.79 198.155 108.881 198.352 108.923 198.576C108.966 198.789 108.987 198.997 108.987 199.2V201.536C108.987 202.357 108.731 203.003 108.219 203.472C107.707 203.931 106.945 204.16 105.931 204.16ZM102.37 193.84V193.216L103.538 192.704H109.17V193.84H102.37ZM105.666 193.216V191.408H106.85V193.216H105.666ZM108.002 193.216V191.408H109.17V193.216H108.002ZM106.779 190.464V187.856H108.139V190.464H106.779ZM114.728 204.16C113.576 204.16 112.712 203.861 112.136 203.264C111.571 202.656 111.288 201.707 111.288 200.416C111.288 200.203 111.293 199.973 111.304 199.728C111.325 199.472 111.347 199.221 111.368 198.976H114.728V200.096H112.712V200.416C112.712 201.088 112.787 201.616 112.936 202C113.085 202.373 113.304 202.635 113.592 202.784C113.891 202.933 114.259 203.008 114.696 203.008C115.176 203.008 115.592 202.917 115.944 202.736C116.296 202.555 116.568 202.224 116.76 201.744C116.952 201.264 117.048 200.576 117.048 199.68C117.048 198.891 116.963 198.245 116.792 197.744C116.621 197.243 116.339 196.869 115.944 196.624C115.56 196.379 115.037 196.256 114.376 196.256C114.035 196.256 113.704 196.288 113.384 196.352C113.064 196.405 112.755 196.491 112.456 196.608C112.157 196.715 111.864 196.853 111.576 197.024V195.696C111.789 195.579 112.051 195.477 112.36 195.392C112.669 195.296 113.011 195.221 113.384 195.168C113.757 195.104 114.147 195.072 114.552 195.072C115.491 195.072 116.248 195.264 116.824 195.648C117.411 196.021 117.837 196.555 118.104 197.248C118.371 197.931 118.504 198.741 118.504 199.68C118.504 200.619 118.381 201.424 118.136 202.096C117.891 202.768 117.491 203.28 116.936 203.632C116.392 203.984 115.656 204.16 114.728 204.16ZM125.036 204.16C124.353 204.16 123.761 204.027 123.26 203.76C122.769 203.483 122.433 203.099 122.252 202.608H122.188L122.108 204H120.94V195.232H122.364V200.304C122.364 200.837 122.454 201.307 122.636 201.712C122.828 202.107 123.1 202.416 123.452 202.64C123.814 202.853 124.246 202.96 124.748 202.96C125.377 202.96 125.846 202.795 126.156 202.464C126.465 202.133 126.62 201.648 126.62 201.008V195.232H128.044V201.104C128.044 201.808 127.921 202.384 127.676 202.832C127.441 203.28 127.1 203.616 126.652 203.84C126.204 204.053 125.665 204.16 125.036 204.16ZM133.744 204.16C132.592 204.16 131.728 203.861 131.152 203.264C130.586 202.656 130.304 201.707 130.304 200.416C130.304 200.203 130.309 199.973 130.32 199.728C130.341 199.472 130.362 199.221 130.384 198.976H133.744V200.096H131.728V200.416C131.728 201.088 131.802 201.616 131.952 202C132.101 202.373 132.32 202.635 132.608 202.784C132.906 202.933 133.274 203.008 133.712 203.008C134.192 203.008 134.608 202.917 134.96 202.736C135.312 202.555 135.584 202.224 135.776 201.744C135.968 201.264 136.064 200.576 136.064 199.68C136.064 198.891 135.978 198.245 135.808 197.744C135.637 197.243 135.354 196.869 134.96 196.624C134.576 196.379 134.053 196.256 133.392 196.256C133.05 196.256 132.72 196.288 132.4 196.352C132.08 196.405 131.77 196.491 131.472 196.608C131.173 196.715 130.88 196.853 130.592 197.024V195.696C130.805 195.579 131.066 195.477 131.376 195.392C131.685 195.296 132.026 195.221 132.4 195.168C132.773 195.104 133.162 195.072 133.568 195.072C134.506 195.072 135.264 195.264 135.84 195.648C136.426 196.021 136.853 196.555 137.12 197.248C137.386 197.931 137.52 198.741 137.52 199.68C137.52 200.619 137.397 201.424 137.152 202.096C136.906 202.768 136.506 203.28 135.952 203.632C135.408 203.984 134.672 204.16 133.744 204.16ZM135.093 208.176V206.48C135.093 206.213 134.976 206.08 134.741 206.08C134.688 206.08 134.634 206.085 134.581 206.096C134.517 206.107 134.458 206.123 134.405 206.144L134.293 205.184C134.453 205.131 134.629 205.088 134.821 205.056C135.002 205.035 135.152 205.024 135.269 205.024C135.642 205.024 135.92 205.109 136.101 205.28C136.272 205.461 136.357 205.707 136.357 206.016V208.176H135.093ZM143.347 204.16C142.089 204.16 141.187 203.872 140.643 203.296C140.099 202.72 139.827 201.899 139.827 200.832V195.232H141.251V200.848C141.251 201.563 141.422 202.096 141.763 202.448C142.105 202.8 142.633 202.976 143.347 202.976C144.073 202.976 144.606 202.8 144.947 202.448C145.299 202.096 145.475 201.563 145.475 200.848V192.08H146.899V200.832C146.899 201.899 146.622 202.72 146.067 203.296C145.523 203.872 144.617 204.16 143.347 204.16ZM149.435 204V200.96C149.435 200.288 149.584 199.803 149.883 199.504C150.181 199.195 150.56 198.981 151.019 198.864L151.035 198.816L149.275 198.144V197.616C149.275 197.179 149.419 196.768 149.707 196.384C149.995 195.989 150.405 195.675 150.939 195.44C151.483 195.195 152.128 195.072 152.875 195.072C153.525 195.072 154.128 195.179 154.683 195.392C155.237 195.595 155.68 195.92 156.011 196.368C156.352 196.805 156.523 197.381 156.523 198.096V204H155.099V198.24C155.099 197.525 154.88 197.019 154.443 196.72C154.016 196.411 153.488 196.256 152.859 196.256C152.208 196.256 151.691 196.395 151.307 196.672C150.923 196.939 150.731 197.28 150.731 197.696L152.459 198.56L152.331 199.328C151.936 199.328 151.589 199.461 151.291 199.728C151.003 199.984 150.859 200.395 150.859 200.96V204H149.435ZM161.573 204.16C160.943 204.16 160.357 204.101 159.812 203.984C159.279 203.856 158.826 203.707 158.453 203.536L158.868 202.384C159.093 202.469 159.349 202.56 159.637 202.656C159.925 202.752 160.234 202.832 160.565 202.896C160.906 202.949 161.253 202.976 161.605 202.976C162.17 202.976 162.639 202.869 163.013 202.656C163.386 202.443 163.573 202.133 163.573 201.728C163.573 201.483 163.503 201.275 163.365 201.104C163.237 200.923 163.034 200.757 162.757 200.608C162.479 200.459 162.122 200.315 161.685 200.176C161.013 199.963 160.442 199.739 159.973 199.504C159.514 199.259 159.162 198.971 158.917 198.64C158.682 198.299 158.565 197.877 158.565 197.376C158.565 196.928 158.682 196.533 158.917 196.192C159.162 195.84 159.535 195.568 160.037 195.376C160.549 195.173 161.199 195.072 161.989 195.072C162.501 195.072 162.981 195.12 163.429 195.216C163.887 195.301 164.245 195.424 164.501 195.584V196.784C164.319 196.699 164.09 196.613 163.813 196.528C163.546 196.443 163.253 196.373 162.933 196.32C162.613 196.267 162.282 196.24 161.941 196.24C161.226 196.24 160.719 196.352 160.421 196.576C160.133 196.789 159.989 197.035 159.989 197.312C159.989 197.547 160.053 197.744 160.181 197.904C160.319 198.064 160.549 198.219 160.869 198.368C161.199 198.517 161.642 198.688 162.197 198.88C162.709 199.051 163.178 199.248 163.605 199.472C164.031 199.696 164.367 199.979 164.613 200.32C164.869 200.651 164.997 201.077 164.997 201.6C164.997 202.048 164.885 202.469 164.661 202.864C164.447 203.248 164.09 203.563 163.589 203.808C163.087 204.043 162.415 204.16 161.573 204.16ZM168.729 204.16C168.43 204.16 168.142 204.112 167.865 204.016C167.598 203.92 167.38 203.749 167.209 203.504C167.049 203.259 166.969 202.917 166.969 202.48V200.928C166.969 200.267 167.108 199.787 167.385 199.488C167.673 199.189 168.046 198.981 168.505 198.864L168.521 198.816L166.681 198.144V197.616C166.681 197.147 166.82 196.72 167.097 196.336C167.385 195.952 167.785 195.648 168.297 195.424C168.82 195.189 169.428 195.072 170.121 195.072C170.708 195.072 171.262 195.168 171.785 195.36C172.318 195.552 172.75 195.872 173.081 196.32C173.412 196.757 173.577 197.344 173.577 198.08V201.136C173.577 201.776 173.721 202.24 174.009 202.528C174.308 202.816 174.702 202.96 175.193 202.96C175.62 202.96 175.993 202.853 176.313 202.64C176.633 202.416 176.884 202.112 177.065 201.728C177.246 201.333 177.337 200.875 177.337 200.352V195.232H178.761V204H177.593L177.513 202.608H177.433C177.252 203.099 176.926 203.483 176.457 203.76C175.998 204.027 175.481 204.16 174.905 204.16C174.094 204.16 173.433 203.936 172.921 203.488C172.409 203.04 172.153 202.293 172.153 201.248V198.224C172.153 197.712 172.057 197.312 171.865 197.024C171.673 196.736 171.417 196.539 171.097 196.432C170.788 196.315 170.457 196.256 170.105 196.256C169.54 196.256 169.07 196.379 168.697 196.624C168.334 196.869 168.148 197.227 168.137 197.696L169.961 198.56L169.833 199.328C169.438 199.328 169.097 199.451 168.809 199.696C168.532 199.941 168.393 200.347 168.393 200.912V202.32C168.393 202.555 168.446 202.725 168.553 202.832C168.66 202.939 168.83 202.992 169.065 202.992C169.172 202.992 169.273 202.987 169.369 202.976C169.476 202.955 169.572 202.928 169.657 202.896L169.865 203.92C169.662 204.016 169.465 204.08 169.273 204.112C169.092 204.144 168.91 204.16 168.729 204.16ZM176.124 194.304C176.049 194.187 175.991 194.037 175.948 193.856C175.895 193.664 175.868 193.477 175.868 193.296C175.868 193.072 175.916 192.864 176.012 192.672C176.108 192.469 176.279 192.304 176.524 192.176C176.769 192.048 177.111 191.984 177.548 191.984H179.74V193.088H177.916C177.703 193.088 177.532 193.131 177.404 193.216C177.276 193.291 177.212 193.424 177.212 193.616C177.212 193.691 177.228 193.771 177.26 193.856C177.281 193.941 177.313 194.027 177.356 194.112L176.124 194.304ZM183.308 204.16C183.009 204.16 182.727 204.112 182.46 204.016C182.193 203.92 181.975 203.749 181.804 203.504C181.633 203.259 181.548 202.917 181.548 202.48V196.224C181.548 195.925 181.575 195.685 181.628 195.504C181.681 195.312 181.767 195.125 181.884 194.944C182.012 194.763 182.188 194.533 182.412 194.256C182.679 193.925 182.876 193.653 183.004 193.44C183.132 193.227 183.196 192.992 183.196 192.736C183.196 192.427 183.1 192.197 182.908 192.048C182.727 191.888 182.444 191.808 182.06 191.808C181.729 191.808 181.425 191.856 181.148 191.952C180.881 192.048 180.657 192.144 180.476 192.24V191.024C180.625 190.939 180.849 190.859 181.148 190.784C181.457 190.699 181.82 190.656 182.236 190.656C182.94 190.656 183.505 190.816 183.932 191.136C184.369 191.445 184.588 191.925 184.588 192.576C184.588 193.003 184.508 193.376 184.348 193.696C184.188 194.016 184.001 194.304 183.788 194.56C183.607 194.795 183.452 194.992 183.324 195.152C183.207 195.301 183.116 195.456 183.052 195.616C182.999 195.776 182.972 195.989 182.972 196.256V202.304C182.972 202.549 183.025 202.725 183.132 202.832C183.239 202.939 183.404 202.992 183.628 202.992C183.745 202.992 183.857 202.981 183.964 202.96C184.071 202.939 184.167 202.912 184.252 202.88L184.444 203.92C184.241 204.016 184.044 204.08 183.852 204.112C183.671 204.144 183.489 204.16 183.308 204.16ZM186.221 204V195.232H187.645V199.024H187.693L191.341 195.232H193.005V195.28L187.645 200.704V204H186.221ZM191.661 204V200.912C191.661 200.283 191.469 199.792 191.085 199.44C190.701 199.088 190.066 198.912 189.181 198.912L190.013 197.872C190.685 197.872 191.245 197.995 191.693 198.24C192.152 198.475 192.498 198.816 192.733 199.264C192.968 199.712 193.085 200.251 193.085 200.88V204H191.661ZM199.708 204.16C199.025 204.16 198.433 204.027 197.932 203.76C197.441 203.483 197.105 203.099 196.924 202.608H196.86L196.78 204H195.612V195.232H197.036V200.304C197.036 200.837 197.126 201.307 197.308 201.712C197.5 202.107 197.772 202.416 198.124 202.64C198.486 202.853 198.918 202.96 199.42 202.96C200.049 202.96 200.518 202.795 200.828 202.464C201.137 202.133 201.292 201.648 201.292 201.008V195.232H202.716V201.104C202.716 201.808 202.593 202.384 202.348 202.832C202.113 203.28 201.772 203.616 201.324 203.84C200.876 204.053 200.337 204.16 199.708 204.16ZM201.293 193.84V190.464H202.701V193.84H201.293Z" fill="black"/>
<path d="M40.352 282V278.096H39.136V276.976H41.712V280.848H41.92C42.4 280.848 42.8 280.741 43.12 280.528C43.44 280.315 43.68 279.968 43.84 279.488C44 279.008 44.08 278.373 44.08 277.584C44.08 276.795 43.9893 276.155 43.808 275.664C43.6373 275.173 43.3547 274.816 42.96 274.592C42.576 274.368 42.0533 274.256 41.392 274.256C40.8907 274.256 40.4053 274.325 39.936 274.464C39.4773 274.592 39.0347 274.795 38.608 275.072V273.744C38.928 273.552 39.3493 273.392 39.872 273.264C40.3947 273.136 40.96 273.072 41.568 273.072C42.5387 273.072 43.312 273.253 43.888 273.616C44.4747 273.968 44.896 274.48 45.152 275.152C45.408 275.824 45.536 276.64 45.536 277.6C45.536 278.528 45.408 279.323 45.152 279.984C44.9067 280.635 44.5013 281.136 43.936 281.488C43.3813 281.829 42.6347 282 41.696 282H40.352ZM43.2002 271.84C42.7522 271.84 42.3949 271.776 42.1282 271.648C41.8616 271.52 41.6696 271.355 41.5522 271.152C41.4242 270.949 41.3602 270.736 41.3602 270.512C41.3602 270.352 41.3869 270.181 41.4402 270C41.4829 269.808 41.5416 269.653 41.6162 269.536L42.8162 269.744C42.7949 269.787 42.7736 269.861 42.7522 269.968C42.7309 270.064 42.7202 270.155 42.7202 270.24C42.7202 270.379 42.7629 270.501 42.8482 270.608C42.9336 270.704 43.0776 270.752 43.2802 270.752H47.3283V271.84H43.2002ZM50.8036 282.16C49.9503 282.16 49.2783 281.963 48.7876 281.568C48.3076 281.163 47.9663 280.619 47.7636 279.936C47.5716 279.253 47.4756 278.501 47.4756 277.68C47.4756 276.773 47.5663 276.027 47.7476 275.44C47.9396 274.843 48.2063 274.373 48.5476 274.032C48.8996 273.68 49.3156 273.435 49.7956 273.296C50.2863 273.147 50.825 273.072 51.4116 273.072C52.265 273.072 52.9583 273.2 53.4916 273.456C54.0356 273.701 54.4356 274.053 54.6916 274.512C54.9476 274.971 55.0756 275.52 55.0756 276.16V282H53.6676V276.288C53.6676 275.627 53.5023 275.125 53.1716 274.784C52.841 274.432 52.2703 274.256 51.4596 274.256C50.969 274.256 50.5263 274.347 50.1316 274.528C49.7476 274.709 49.4436 275.045 49.2196 275.536C49.0063 276.027 48.8996 276.747 48.8996 277.696C48.8996 278.315 48.9583 278.875 49.0756 279.376C49.2036 279.867 49.4223 280.256 49.7316 280.544C50.041 280.832 50.473 280.976 51.0276 280.976C51.1876 280.976 51.337 280.965 51.4756 280.944C51.6143 280.923 51.7476 280.891 51.8756 280.848L52.0196 281.952C51.849 282.027 51.6516 282.08 51.4276 282.112C51.2143 282.144 51.0063 282.16 50.8036 282.16ZM57.591 282V278.96C57.591 278.288 57.7403 277.803 58.039 277.504C58.3377 277.195 58.7163 276.981 59.175 276.864L59.191 276.816L57.431 276.144V275.616C57.431 275.179 57.575 274.768 57.863 274.384C58.151 273.989 58.5617 273.675 59.095 273.44C59.639 273.195 60.2843 273.072 61.031 273.072C61.6817 273.072 62.2843 273.179 62.839 273.392C63.3937 273.595 63.8363 273.92 64.167 274.368C64.5083 274.805 64.679 275.381 64.679 276.096V282H63.255V276.24C63.255 275.525 63.0363 275.019 62.599 274.72C62.1723 274.411 61.6443 274.256 61.015 274.256C60.3643 274.256 59.847 274.395 59.463 274.672C59.079 274.939 58.887 275.28 58.887 275.696L60.615 276.56L60.487 277.328C60.0923 277.328 59.7457 277.461 59.447 277.728C59.159 277.984 59.015 278.395 59.015 278.96V282H57.591ZM69.7448 282V275.776C69.7448 275.253 69.6221 274.869 69.3768 274.624C69.1421 274.379 68.7421 274.256 68.1768 274.256C67.7928 274.256 67.4301 274.309 67.0888 274.416C66.7581 274.512 66.4381 274.651 66.1288 274.832V273.552C66.3421 273.445 66.6461 273.339 67.0408 273.232C67.4354 273.125 67.9048 273.072 68.4488 273.072C69.0034 273.072 69.4834 273.152 69.8888 273.312C70.2941 273.472 70.6088 273.739 70.8328 274.112C71.0568 274.475 71.1688 274.96 71.1688 275.568V282H69.7448ZM76.2288 282.16C75.5994 282.16 75.0128 282.101 74.4688 281.984C73.9354 281.856 73.4821 281.707 73.1088 281.536L73.5247 280.384C73.7488 280.469 74.0048 280.56 74.2928 280.656C74.5808 280.752 74.8901 280.832 75.2208 280.896C75.5621 280.949 75.9088 280.976 76.2608 280.976C76.8261 280.976 77.2954 280.869 77.6688 280.656C78.0421 280.443 78.2288 280.133 78.2288 279.728C78.2288 279.483 78.1594 279.275 78.0208 279.104C77.8928 278.923 77.6901 278.757 77.4128 278.608C77.1354 278.459 76.7781 278.315 76.3408 278.176C75.6688 277.963 75.0981 277.739 74.6288 277.504C74.1701 277.259 73.8181 276.971 73.5728 276.64C73.3381 276.299 73.2208 275.877 73.2208 275.376C73.2208 274.928 73.3381 274.533 73.5728 274.192C73.8181 273.84 74.1914 273.568 74.6928 273.376C75.2048 273.173 75.8554 273.072 76.6448 273.072C77.1568 273.072 77.6368 273.12 78.0848 273.216C78.5434 273.301 78.9008 273.424 79.1568 273.584V274.784C78.9754 274.699 78.7461 274.613 78.4688 274.528C78.2021 274.443 77.9088 274.373 77.5888 274.32C77.2688 274.267 76.9381 274.24 76.5968 274.24C75.8821 274.24 75.3754 274.352 75.0768 274.576C74.7888 274.789 74.6448 275.035 74.6448 275.312C74.6448 275.547 74.7088 275.744 74.8368 275.904C74.9754 276.064 75.2048 276.219 75.5248 276.368C75.8554 276.517 76.2981 276.688 76.8528 276.88C77.3648 277.051 77.8341 277.248 78.2608 277.472C78.6874 277.696 79.0234 277.979 79.2688 278.32C79.5248 278.651 79.6528 279.077 79.6528 279.6C79.6528 280.048 79.5408 280.469 79.3168 280.864C79.1034 281.248 78.7461 281.563 78.2448 281.808C77.7434 282.043 77.0714 282.16 76.2288 282.16ZM86.7133 282V276.16C86.7133 275.467 86.5533 274.976 86.2333 274.688C85.9239 274.389 85.4013 274.24 84.6653 274.24C84.1319 274.24 83.6199 274.315 83.1293 274.464C82.6493 274.603 82.1906 274.8 81.7533 275.056V273.728C82.0626 273.568 82.4786 273.419 83.0013 273.28C83.5346 273.141 84.1319 273.072 84.7933 273.072C85.3586 273.072 85.8386 273.136 86.2333 273.264C86.6386 273.392 86.9373 273.627 87.1293 273.968C87.5026 274.139 87.7586 274.405 87.8973 274.768C88.0466 275.131 88.1213 275.568 88.1213 276.08V282H86.7133ZM83.9613 282.16C83.0226 282.16 82.3026 281.947 81.8013 281.52C81.3106 281.083 81.0653 280.459 81.0653 279.648C81.0653 278.763 81.3853 278.08 82.0253 277.6C82.6759 277.12 83.7266 276.837 85.1773 276.752L87.0013 276.64V277.824L85.3693 277.936C84.2813 278.011 83.5293 278.181 83.1133 278.448C82.7079 278.715 82.5053 279.104 82.5053 279.616C82.5053 280.096 82.6546 280.448 82.9533 280.672C83.2626 280.896 83.6893 281.008 84.2333 281.008C84.4146 281.008 84.5799 280.997 84.7293 280.976C84.8786 280.944 85.0226 280.907 85.1613 280.864L85.3853 281.936C85.1826 282.011 84.9586 282.064 84.7133 282.096C84.4786 282.139 84.2279 282.16 83.9613 282.16ZM87.0813 274.464L86.2813 273.712C86.5586 273.669 86.8199 273.563 87.0653 273.392C87.3106 273.221 87.4333 272.976 87.4333 272.656H88.8253C88.8253 272.987 88.7453 273.28 88.5853 273.536C88.4359 273.781 88.2279 273.984 87.9613 274.144C87.6946 274.293 87.4013 274.4 87.0813 274.464ZM94.9575 282.16C94.2748 282.16 93.6828 282.027 93.1815 281.76C92.6908 281.483 92.3548 281.099 92.1735 280.608H92.1095L92.0295 282H90.8615V273.232H92.2855V278.304C92.2855 278.837 92.3762 279.307 92.5575 279.712C92.7495 280.107 93.0215 280.416 93.3735 280.64C93.7362 280.853 94.1682 280.96 94.6695 280.96C95.2988 280.96 95.7682 280.795 96.0775 280.464C96.3868 280.133 96.5415 279.648 96.5415 279.008V273.232H97.9655V279.104C97.9655 279.808 97.8428 280.384 97.5975 280.832C97.3628 281.28 97.0215 281.616 96.5735 281.84C96.1255 282.053 95.5868 282.16 94.9575 282.16ZM103.042 282V275.776C103.042 275.253 102.919 274.869 102.674 274.624C102.439 274.379 102.039 274.256 101.474 274.256C101.09 274.256 100.727 274.309 100.386 274.416C100.055 274.512 99.735 274.651 99.4256 274.832V273.552C99.639 273.445 99.943 273.339 100.338 273.232C100.732 273.125 101.202 273.072 101.746 273.072C102.3 273.072 102.78 273.152 103.186 273.312C103.591 273.472 103.906 273.739 104.13 274.112C104.354 274.475 104.466 274.96 104.466 275.568V282H103.042ZM110.166 282.16C109.152 282.16 108.368 281.92 107.814 281.44C107.27 280.949 106.998 280.219 106.998 279.248V278.272C106.998 277.739 107.072 277.317 107.222 277.008C107.371 276.699 107.531 276.432 107.702 276.208C107.883 275.963 108.038 275.749 108.166 275.568C108.304 275.387 108.374 275.168 108.374 274.912C108.374 274.688 108.315 274.528 108.198 274.432C108.091 274.336 107.952 274.288 107.782 274.288C107.654 274.288 107.515 274.309 107.366 274.352C107.227 274.395 107.088 274.448 106.95 274.512L106.63 273.488C106.822 273.36 107.056 273.269 107.334 273.216C107.622 273.163 107.872 273.136 108.086 273.136C108.48 273.136 108.795 273.205 109.03 273.344C109.275 273.483 109.451 273.675 109.558 273.92C109.664 274.155 109.718 274.432 109.718 274.752C109.718 275.147 109.648 275.472 109.51 275.728C109.382 275.984 109.227 276.235 109.046 276.48C108.864 276.747 108.715 277.003 108.598 277.248C108.48 277.493 108.422 277.813 108.422 278.208V279.152C108.422 279.643 108.502 280.021 108.662 280.288C108.822 280.555 109.035 280.741 109.302 280.848C109.568 280.944 109.856 280.992 110.166 280.992C110.699 280.992 111.104 280.869 111.382 280.624C111.659 280.368 111.798 279.979 111.798 279.456V277.216C111.798 276.821 111.707 276.523 111.526 276.32C111.344 276.107 111.051 276 110.646 276H110.582V275.088H110.662C111.099 275.088 111.408 274.987 111.59 274.784C111.771 274.581 111.878 274.336 111.91 274.048C111.952 273.749 111.974 273.477 111.974 273.232H113.398C113.398 273.797 113.328 274.277 113.19 274.672C113.051 275.067 112.736 275.355 112.246 275.536V275.6C112.544 275.675 112.758 275.803 112.886 275.984C113.024 276.155 113.115 276.352 113.158 276.576C113.2 276.789 113.222 276.997 113.222 277.2V279.536C113.222 280.357 112.966 281.003 112.454 281.472C111.942 281.931 111.179 282.16 110.166 282.16ZM106.604 271.84V271.216L107.772 270.704H113.404V271.84H106.604ZM115.779 282V278.96C115.779 278.288 115.928 277.803 116.227 277.504C116.525 277.195 116.904 276.981 117.363 276.864L117.379 276.816L115.618 276.144V275.616C115.618 275.179 115.763 274.768 116.051 274.384C116.339 273.989 116.749 273.675 117.283 273.44C117.827 273.195 118.472 273.072 119.219 273.072C119.869 273.072 120.472 273.179 121.027 273.392C121.581 273.595 122.024 273.92 122.355 274.368C122.696 274.805 122.867 275.381 122.867 276.096V282H121.443V276.24C121.443 275.525 121.224 275.019 120.787 274.72C120.36 274.411 119.832 274.256 119.203 274.256C118.552 274.256 118.035 274.395 117.651 274.672C117.267 274.939 117.075 275.28 117.075 275.696L118.803 276.56L118.674 277.328C118.28 277.328 117.933 277.461 117.635 277.728C117.347 277.984 117.203 278.395 117.203 278.96V282H115.779Z" fill="black"/>
<path d="M42.4 360.16C41.248 360.16 40.384 359.861 39.808 359.264C39.2427 358.656 38.96 357.707 38.96 356.416C38.96 356.203 38.9653 355.973 38.976 355.728C38.9973 355.472 39.0187 355.221 39.04 354.976H42.4V356.096H40.384V356.416C40.384 357.088 40.4587 357.616 40.608 358C40.7573 358.373 40.976 358.635 41.264 358.784C41.5627 358.933 41.9307 359.008 42.368 359.008C42.848 359.008 43.264 358.917 43.616 358.736C43.968 358.555 44.24 358.224 44.432 357.744C44.624 357.264 44.72 356.576 44.72 355.68C44.72 354.891 44.6347 354.245 44.464 353.744C44.2933 353.243 44.0107 352.869 43.616 352.624C43.232 352.379 42.7093 352.256 42.048 352.256C41.7067 352.256 41.376 352.288 41.056 352.352C40.736 352.405 40.4267 352.491 40.128 352.608C39.8293 352.715 39.536 352.853 39.248 353.024V351.696C39.4613 351.579 39.7227 351.477 40.032 351.392C40.3413 351.296 40.6827 351.221 41.056 351.168C41.4293 351.104 41.8187 351.072 42.224 351.072C43.1627 351.072 43.92 351.264 44.496 351.648C45.0827 352.021 45.5093 352.555 45.776 353.248C46.0427 353.931 46.176 354.741 46.176 355.68C46.176 356.619 46.0533 357.424 45.808 358.096C45.5627 358.768 45.1627 359.28 44.608 359.632C44.064 359.984 43.328 360.16 42.4 360.16ZM51.5875 360.16C50.4355 360.16 49.5715 359.861 48.9955 359.264C48.4302 358.656 48.1475 357.707 48.1475 356.416C48.1475 356.203 48.1528 355.973 48.1635 355.728C48.1848 355.472 48.2062 355.221 48.2275 354.976H51.5875V356.096H49.5715V356.416C49.5715 357.088 49.6462 357.616 49.7955 358C49.9448 358.373 50.1635 358.635 50.4515 358.784C50.7502 358.933 51.1182 359.008 51.5555 359.008C52.0355 359.008 52.4515 358.917 52.8035 358.736C53.1555 358.555 53.4275 358.224 53.6195 357.744C53.8115 357.264 53.9075 356.576 53.9075 355.68C53.9075 354.891 53.8222 354.245 53.6515 353.744C53.4808 353.243 53.1982 352.869 52.8035 352.624C52.4195 352.379 51.8968 352.256 51.2355 352.256C50.8942 352.256 50.5635 352.288 50.2435 352.352C49.9235 352.405 49.6142 352.491 49.3155 352.608C49.0168 352.715 48.7235 352.853 48.4355 353.024V351.696C48.6488 351.579 48.9102 351.477 49.2195 351.392C49.5288 351.296 49.8702 351.221 50.2435 351.168C50.6168 351.104 51.0062 351.072 51.4115 351.072C52.3502 351.072 53.1075 351.264 53.6835 351.648C54.2702 352.021 54.6968 352.555 54.9635 353.248C55.2302 353.931 55.3635 354.741 55.3635 355.68C55.3635 356.619 55.2408 357.424 54.9955 358.096C54.7502 358.768 54.3502 359.28 53.7955 359.632C53.2515 359.984 52.5155 360.16 51.5875 360.16ZM57.591 360V356.96C57.591 356.288 57.7403 355.803 58.039 355.504C58.3377 355.195 58.7163 354.981 59.175 354.864L59.191 354.816L57.431 354.144V353.616C57.431 353.179 57.575 352.768 57.863 352.384C58.151 351.989 58.5617 351.675 59.095 351.44C59.639 351.195 60.2843 351.072 61.031 351.072C61.6817 351.072 62.2843 351.179 62.839 351.392C63.3937 351.595 63.8363 351.92 64.167 352.368C64.5083 352.805 64.679 353.381 64.679 354.096V360H63.255V354.24C63.255 353.525 63.0363 353.019 62.599 352.72C62.1723 352.411 61.6443 352.256 61.015 352.256C60.3643 352.256 59.847 352.395 59.463 352.672C59.079 352.939 58.887 353.28 58.887 353.696L60.615 354.56L60.487 355.328C60.0923 355.328 59.7457 355.461 59.447 355.728C59.159 355.984 59.015 356.395 59.015 356.96V360H57.591ZM68.3207 360V356.096H67.1048V354.976H69.6808V358.848H69.8888C70.3688 358.848 70.7688 358.741 71.0888 358.528C71.4088 358.315 71.6488 357.968 71.8088 357.488C71.9688 357.008 72.0488 356.373 72.0488 355.584C72.0488 354.795 71.9581 354.155 71.7768 353.664C71.6061 353.173 71.3234 352.816 70.9288 352.592C70.5448 352.368 70.0221 352.256 69.3608 352.256C68.8594 352.256 68.3741 352.325 67.9048 352.464C67.4461 352.592 67.0034 352.795 66.5768 353.072V351.744C66.8968 351.552 67.3181 351.392 67.8408 351.264C68.3634 351.136 68.9288 351.072 69.5368 351.072C70.5074 351.072 71.2808 351.253 71.8568 351.616C72.4434 351.968 72.8648 352.48 73.1208 353.152C73.3768 353.824 73.5048 354.64 73.5048 355.6C73.5048 356.528 73.3768 357.323 73.1208 357.984C72.8754 358.635 72.4701 359.136 71.9048 359.488C71.3501 359.829 70.6034 360 69.6648 360H68.3207ZM78.2604 360V353.776C78.2604 353.253 78.1377 352.869 77.8924 352.624C77.6577 352.379 77.2577 352.256 76.6924 352.256C76.3084 352.256 75.9457 352.309 75.6044 352.416C75.2737 352.512 74.9537 352.651 74.6444 352.832V351.552C74.8577 351.445 75.1617 351.339 75.5564 351.232C75.951 351.125 76.4204 351.072 76.9644 351.072C77.519 351.072 77.999 351.152 78.4044 351.312C78.8097 351.472 79.1244 351.739 79.3484 352.112C79.5724 352.475 79.6844 352.96 79.6844 353.568V360H78.2604ZM82.2004 360V356.96C82.2004 356.288 82.3497 355.803 82.6484 355.504C82.947 355.195 83.3257 354.981 83.7844 354.864L83.8004 354.816L82.0404 354.144V353.616C82.0404 353.179 82.1844 352.768 82.4724 352.384C82.7604 351.989 83.171 351.675 83.7044 351.44C84.2484 351.195 84.8937 351.072 85.6404 351.072C86.291 351.072 86.8937 351.179 87.4484 351.392C88.003 351.595 88.4457 351.92 88.7764 352.368C89.1177 352.805 89.2884 353.381 89.2884 354.096V360H87.8644V354.24C87.8644 353.525 87.6457 353.019 87.2084 352.72C86.7817 352.411 86.2537 352.256 85.6244 352.256C84.9737 352.256 84.4564 352.395 84.0724 352.672C83.6884 352.939 83.4964 353.28 83.4964 353.696L85.2244 354.56L85.0964 355.328C84.7017 355.328 84.355 355.461 84.0564 355.728C83.7684 355.984 83.6244 356.395 83.6244 356.96V360H82.2004ZM94.3381 360.16C93.7088 360.16 93.1221 360.101 92.5781 359.984C92.0448 359.856 91.5915 359.707 91.2181 359.536L91.6341 358.384C91.8581 358.469 92.1141 358.56 92.4021 358.656C92.6901 358.752 92.9995 358.832 93.3301 358.896C93.6715 358.949 94.0181 358.976 94.3701 358.976C94.9355 358.976 95.4048 358.869 95.7781 358.656C96.1515 358.443 96.3381 358.133 96.3381 357.728C96.3381 357.483 96.2688 357.275 96.1301 357.104C96.0021 356.923 95.7995 356.757 95.5221 356.608C95.2448 356.459 94.8875 356.315 94.4501 356.176C93.7781 355.963 93.2075 355.739 92.7381 355.504C92.2795 355.259 91.9275 354.971 91.6821 354.64C91.4475 354.299 91.3301 353.877 91.3301 353.376C91.3301 352.928 91.4475 352.533 91.6821 352.192C91.9275 351.84 92.3008 351.568 92.8021 351.376C93.3141 351.173 93.9648 351.072 94.7541 351.072C95.2661 351.072 95.7461 351.12 96.1941 351.216C96.6528 351.301 97.0101 351.424 97.2661 351.584V352.784C97.0848 352.699 96.8555 352.613 96.5781 352.528C96.3115 352.443 96.0181 352.373 95.6981 352.32C95.3781 352.267 95.0475 352.24 94.7061 352.24C93.9915 352.24 93.4848 352.352 93.1861 352.576C92.8981 352.789 92.7541 353.035 92.7541 353.312C92.7541 353.547 92.8181 353.744 92.9461 353.904C93.0848 354.064 93.3141 354.219 93.6341 354.368C93.9648 354.517 94.4075 354.688 94.9621 354.88C95.4741 355.051 95.9435 355.248 96.3701 355.472C96.7968 355.696 97.1328 355.979 97.3781 356.32C97.6341 356.651 97.7621 357.077 97.7621 357.6C97.7621 358.048 97.6501 358.469 97.4261 358.864C97.2128 359.248 96.8555 359.563 96.3541 359.808C95.8528 360.043 95.1808 360.16 94.3381 360.16ZM100.839 354.496C100.401 354.496 100.044 354.432 99.7666 354.304C99.5 354.165 99.308 353.995 99.1906 353.792C99.0733 353.579 99.0146 353.355 99.0146 353.12C99.0146 352.96 99.036 352.795 99.0786 352.624C99.132 352.453 99.196 352.309 99.2706 352.192L100.471 352.384C100.449 352.437 100.423 352.512 100.391 352.608C100.369 352.704 100.359 352.8 100.359 352.896C100.359 353.035 100.396 353.152 100.471 353.248C100.545 353.333 100.684 353.376 100.887 353.376H103.175V354.496H100.839ZM100.839 358.976C100.401 358.976 100.044 358.912 99.7666 358.784C99.5 358.645 99.308 358.475 99.1906 358.272C99.0733 358.059 99.0146 357.835 99.0146 357.6C99.0146 357.44 99.036 357.275 99.0786 357.104C99.132 356.933 99.196 356.789 99.2706 356.672L100.471 356.864C100.449 356.917 100.423 356.992 100.391 357.088C100.369 357.184 100.359 357.28 100.359 357.376C100.359 357.515 100.396 357.632 100.471 357.728C100.545 357.813 100.684 357.856 100.887 357.856H103.175V358.976H100.839ZM108.613 360.16C107.354 360.16 106.453 359.872 105.909 359.296C105.365 358.72 105.093 357.899 105.093 356.832V351.232H106.517V356.848C106.517 357.563 106.688 358.096 107.029 358.448C107.37 358.8 107.898 358.976 108.613 358.976C109.338 358.976 109.872 358.8 110.213 358.448C110.565 358.096 110.741 357.563 110.741 356.848V351.232H112.165V356.832C112.165 357.899 111.888 358.72 111.333 359.296C110.789 359.872 109.882 360.16 108.613 360.16ZM118.269 360.16C117.01 360.16 116.109 359.872 115.565 359.296C115.021 358.72 114.749 357.899 114.749 356.832V351.232H116.173V356.848C116.173 357.563 116.344 358.096 116.685 358.448C117.026 358.8 117.554 358.976 118.269 358.976C118.994 358.976 119.528 358.8 119.869 358.448C120.221 358.096 120.397 357.563 120.397 356.848V351.232H121.821V356.832C121.821 357.899 121.544 358.72 120.989 359.296C120.445 359.872 119.538 360.16 118.269 360.16Z" fill="black"/>
</svg>
