<svg width="390" height="849" viewBox="0 0 390 849" fill="none" xmlns="http://www.w3.org/2000/svg">
<rect y="5" width="390" height="844" rx="32" fill="white"/>
<path fill-rule="evenodd" clip-rule="evenodd" d="M121 838.5C121 837.119 122.119 836 123.5 836H266.5C267.881 836 269 837.119 269 838.5C269 839.881 267.881 841 266.5 841H123.5C122.119 841 121 839.881 121 838.5Z" fill="#090A0A"/>
<path d="M54.0688 36V26.1304H53.9194L50.9395 28.2305V26.2217L54.0688 24.022H56.2021V36H54.0688ZM63.4219 36.2988C62.4701 36.2988 61.6538 36.0443 60.9731 35.5352C60.298 35.026 59.7778 34.3011 59.4126 33.3604C59.0474 32.4196 58.8647 31.3045 58.8647 30.0151V29.9985C58.8647 28.7091 59.0474 27.5968 59.4126 26.6616C59.7778 25.7209 60.298 24.9959 60.9731 24.4868C61.6538 23.9777 62.4701 23.7231 63.4219 23.7231C64.3737 23.7231 65.1899 23.9777 65.8706 24.4868C66.5513 24.9959 67.0742 25.7209 67.4395 26.6616C67.8047 27.5968 67.9873 28.7091 67.9873 29.9985V30.0151C67.9873 31.3045 67.8047 32.4196 67.4395 33.3604C67.0742 34.3011 66.5513 35.026 65.8706 35.5352C65.1899 36.0443 64.3737 36.2988 63.4219 36.2988ZM63.4219 34.564C63.931 34.564 64.3654 34.3813 64.7251 34.0161C65.0848 33.6509 65.3587 33.1307 65.5469 32.4556C65.7406 31.7749 65.8374 30.9614 65.8374 30.0151V29.9985C65.8374 29.0522 65.7406 28.2415 65.5469 27.5664C65.3587 26.8857 65.0848 26.3656 64.7251 26.0059C64.3654 25.6406 63.931 25.458 63.4219 25.458C62.9128 25.458 62.4784 25.6406 62.1187 26.0059C61.7645 26.3656 61.4906 26.8857 61.2969 27.5664C61.1087 28.2415 61.0146 29.0522 61.0146 29.9985V30.0151C61.0146 30.9614 61.1087 31.7749 61.2969 32.4556C61.4906 33.1307 61.7645 33.6509 62.1187 34.0161C62.4784 34.3813 62.9128 34.564 63.4219 34.564ZM71.2974 34.3896C70.9211 34.3896 70.6056 34.2651 70.3511 34.0161C70.1021 33.7616 69.9775 33.4517 69.9775 33.0864C69.9775 32.7157 70.1021 32.4058 70.3511 32.1567C70.6056 31.9022 70.9211 31.7749 71.2974 31.7749C71.6792 31.7749 71.9946 31.9022 72.2437 32.1567C72.4927 32.4058 72.6172 32.7157 72.6172 33.0864C72.6172 33.4517 72.4927 33.7616 72.2437 34.0161C71.9946 34.2651 71.6792 34.3896 71.2974 34.3896ZM71.2974 28.2305C70.9211 28.2305 70.6056 28.106 70.3511 27.8569C70.1021 27.6024 69.9775 27.2925 69.9775 26.9272C69.9775 26.5565 70.1021 26.2466 70.3511 25.9976C70.6056 25.743 70.9211 25.6157 71.2974 25.6157C71.6792 25.6157 71.9946 25.743 72.2437 25.9976C72.4927 26.2466 72.6172 26.5565 72.6172 26.9272C72.6172 27.2925 72.4927 27.6024 72.2437 27.8569C71.9946 28.106 71.6792 28.2305 71.2974 28.2305ZM79.1562 36.2988C78.2044 36.2988 77.3882 36.0443 76.7075 35.5352C76.0324 35.026 75.5122 34.3011 75.147 33.3604C74.7817 32.4196 74.5991 31.3045 74.5991 30.0151V29.9985C74.5991 28.7091 74.7817 27.5968 75.147 26.6616C75.5122 25.7209 76.0324 24.9959 76.7075 24.4868C77.3882 23.9777 78.2044 23.7231 79.1562 23.7231C80.1081 23.7231 80.9243 23.9777 81.605 24.4868C82.2856 24.9959 82.8086 25.7209 83.1738 26.6616C83.5391 27.5968 83.7217 28.7091 83.7217 29.9985V30.0151C83.7217 31.3045 83.5391 32.4196 83.1738 33.3604C82.8086 34.3011 82.2856 35.026 81.605 35.5352C80.9243 36.0443 80.1081 36.2988 79.1562 36.2988ZM79.1562 34.564C79.6654 34.564 80.0998 34.3813 80.4595 34.0161C80.8192 33.6509 81.0931 33.1307 81.2812 32.4556C81.4749 31.7749 81.5718 30.9614 81.5718 30.0151V29.9985C81.5718 29.0522 81.4749 28.2415 81.2812 27.5664C81.0931 26.8857 80.8192 26.3656 80.4595 26.0059C80.0998 25.6406 79.6654 25.458 79.1562 25.458C78.6471 25.458 78.2127 25.6406 77.853 26.0059C77.4989 26.3656 77.2249 26.8857 77.0312 27.5664C76.8431 28.2415 76.749 29.0522 76.749 29.9985V30.0151C76.749 30.9614 76.8431 31.7749 77.0312 32.4556C77.2249 33.1307 77.4989 33.6509 77.853 34.0161C78.2127 34.3813 78.6471 34.564 79.1562 34.564ZM89.9619 36.2988C89.0101 36.2988 88.1938 36.0443 87.5132 35.5352C86.8381 35.026 86.3179 34.3011 85.9526 33.3604C85.5874 32.4196 85.4048 31.3045 85.4048 30.0151V29.9985C85.4048 28.7091 85.5874 27.5968 85.9526 26.6616C86.3179 25.7209 86.8381 24.9959 87.5132 24.4868C88.1938 23.9777 89.0101 23.7231 89.9619 23.7231C90.9137 23.7231 91.73 23.9777 92.4106 24.4868C93.0913 24.9959 93.6143 25.7209 93.9795 26.6616C94.3447 27.5968 94.5273 28.7091 94.5273 29.9985V30.0151C94.5273 31.3045 94.3447 32.4196 93.9795 33.3604C93.6143 34.3011 93.0913 35.026 92.4106 35.5352C91.73 36.0443 90.9137 36.2988 89.9619 36.2988ZM89.9619 34.564C90.471 34.564 90.9054 34.3813 91.2651 34.0161C91.6248 33.6509 91.8988 33.1307 92.0869 32.4556C92.2806 31.7749 92.3774 30.9614 92.3774 30.0151V29.9985C92.3774 29.0522 92.2806 28.2415 92.0869 27.5664C91.8988 26.8857 91.6248 26.3656 91.2651 26.0059C90.9054 25.6406 90.471 25.458 89.9619 25.458C89.4528 25.458 89.0184 25.6406 88.6587 26.0059C88.3045 26.3656 88.0306 26.8857 87.8369 27.5664C87.6488 28.2415 87.5547 29.0522 87.5547 29.9985V30.0151C87.5547 30.9614 87.6488 31.7749 87.8369 32.4556C88.0306 33.1307 88.3045 33.6509 88.6587 34.0161C89.0184 34.3813 89.4528 34.564 89.9619 34.564Z" fill="black"/>
<path d="M288.333 31C288.977 31 289.5 31.5037 289.5 32.125V34.375C289.5 34.9963 288.977 35.5 288.333 35.5H287.167C286.523 35.5 286 34.9963 286 34.375V32.125C286 31.5037 286.523 31 287.167 31H288.333ZM293.823 28.75C294.468 28.75 294.99 29.2537 294.99 29.875V34.375C294.99 34.9963 294.468 35.5 293.823 35.5H292.657C292.013 35.5 291.49 34.9963 291.49 34.375V29.875C291.49 29.2537 292.013 28.75 292.657 28.75H293.823ZM299.313 26.125C299.958 26.125 300.48 26.6287 300.48 27.25V34.375C300.48 34.9963 299.958 35.5 299.313 35.5H298.147C297.503 35.5 296.98 34.9963 296.98 34.375V27.25C296.981 26.6287 297.503 26.125 298.147 26.125H299.313ZM304.804 23.5C305.448 23.5 305.971 24.0037 305.971 24.625V34.375C305.971 34.9963 305.448 35.5 304.804 35.5H303.638C302.993 35.5 302.471 34.9963 302.471 34.375V24.625C302.471 24.0037 302.993 23.5 303.638 23.5H304.804Z" fill="black"/>
<path d="M318.512 32.8262C319.932 31.5963 322.011 31.5963 323.431 32.8262C323.502 32.8923 323.544 32.9854 323.546 33.084C323.548 33.1825 323.51 33.2776 323.441 33.3467L321.218 35.6445C321.153 35.712 321.063 35.75 320.971 35.75C320.878 35.7499 320.79 35.7119 320.725 35.6445L318.501 33.3467C318.432 33.2776 318.394 33.1826 318.396 33.084C318.399 32.9854 318.44 32.8923 318.512 32.8262ZM315.545 29.7607C318.604 26.8466 323.341 26.8466 326.4 29.7607C326.469 29.829 326.509 29.9224 326.51 30.0205C326.511 30.1188 326.473 30.2135 326.405 30.2832L325.12 31.6133C324.988 31.7491 324.774 31.7523 324.638 31.6201C323.633 30.6886 322.326 30.1728 320.971 30.1729C319.617 30.1735 318.311 30.6894 317.308 31.6201C317.172 31.7523 316.958 31.749 316.825 31.6133L315.54 30.2832C315.472 30.2136 315.435 30.1188 315.436 30.0205C315.437 29.9223 315.476 29.829 315.545 29.7607ZM312.578 26.7031C317.27 22.0988 324.671 22.0989 329.363 26.7031C329.431 26.7715 329.47 26.8653 329.471 26.9629C329.471 27.0604 329.433 27.1544 329.366 27.2236L328.08 28.5537C327.947 28.6901 327.732 28.691 327.598 28.5566C325.81 26.8163 323.437 25.8458 320.971 25.8457C318.504 25.8458 316.131 26.8163 314.344 28.5566C314.209 28.6912 313.994 28.6904 313.861 28.5537L312.574 27.2236C312.507 27.1544 312.47 27.0604 312.471 26.9629C312.471 26.8653 312.51 26.7715 312.578 26.7031Z" fill="black"/>
<rect opacity="0.4" x="336.471" y="23.5" width="24" height="12" rx="3.5" stroke="black"/>
<path opacity="0.5" d="M361.971 27.5V31.5C362.777 31.1612 363.301 30.3731 363.301 29.5C363.301 28.6269 362.777 27.8388 361.971 27.5Z" fill="black"/>
<rect x="337.971" y="25" width="17" height="9" rx="2" fill="black"/>
<path d="M24.672 157C24.1173 157 23.6907 156.845 23.392 156.536C23.104 156.216 22.96 155.773 22.96 155.208V148.44H24.992V154.568C24.992 154.845 25.0507 155.037 25.168 155.144C25.2853 155.251 25.4773 155.304 25.744 155.304H26.304V157H24.672ZM31.6415 157.24C30.8522 157.24 30.1588 157.107 29.5615 156.84C28.9642 156.563 28.5002 156.184 28.1695 155.704C27.8388 155.213 27.6735 154.659 27.6735 154.04V153.64C27.6735 153.267 27.7535 152.92 27.9135 152.6C28.0735 152.28 28.2922 151.923 28.5695 151.528C28.7615 151.24 28.8948 151.032 28.9695 150.904C29.0442 150.776 29.0815 150.648 29.0815 150.52C29.0815 150.2 28.8842 150.04 28.4895 150.04H27.5775V148.44H29.5615C30.0415 148.44 30.4202 148.579 30.6975 148.856C30.9855 149.123 31.1295 149.485 31.1295 149.944C31.1295 150.264 31.0655 150.557 30.9375 150.824C30.8202 151.091 30.6442 151.416 30.4095 151.8C30.1748 152.184 29.9988 152.504 29.8815 152.76C29.7642 153.005 29.7055 153.272 29.7055 153.56V153.96C29.7055 154.493 29.8708 154.909 30.2015 155.208C30.5428 155.507 31.0228 155.656 31.6415 155.656C32.2922 155.656 32.7882 155.48 33.1295 155.128C33.4815 154.765 33.6575 154.237 33.6575 153.544C33.6575 152.147 33.0868 151.448 31.9455 151.448V150.376L33.5775 148.2H35.7535L33.9775 150.568C34.5855 150.856 35.0228 151.24 35.2895 151.72C35.5562 152.2 35.6895 152.808 35.6895 153.544C35.6895 154.259 35.5242 154.899 35.1935 155.464C34.8628 156.019 34.3882 156.456 33.7695 156.776C33.1615 157.085 32.4522 157.24 31.6415 157.24ZM28.3266 145.976H31.4306V144.248H32.8546V145.976H34.0706V144.248H35.4786V147.272H28.3266V145.976ZM33.6386 141.544H35.4626V143.736H33.6386V141.544ZM40.6946 157.24C40.012 157.24 39.34 157.165 38.6786 157.016C38.0173 156.867 37.468 156.659 37.0306 156.392V151.912H40.8706V153.56H39.0626V155.336C39.4573 155.549 40.0013 155.656 40.6946 155.656C41.6333 155.656 42.3426 155.4 42.8226 154.888C43.3026 154.376 43.5426 153.629 43.5426 152.648C43.5426 151.976 43.436 151.432 43.2226 151.016C43.0093 150.6 42.6573 150.291 42.1666 150.088C41.676 149.885 41.0146 149.784 40.1826 149.784C39.6386 149.784 39.084 149.843 38.5186 149.96C37.964 150.067 37.5 150.227 37.1266 150.44V148.856C37.5533 148.643 38.06 148.483 38.6466 148.376C39.244 148.259 39.8733 148.2 40.5346 148.2C42.156 148.2 43.4093 148.589 44.2946 149.368C45.18 150.136 45.6226 151.229 45.6226 152.648C45.6226 154.067 45.196 155.187 44.3426 156.008C43.5 156.829 42.284 157.24 40.6946 157.24ZM52.1376 157.24C51.6043 157.24 51.0763 157.133 50.5536 156.92C50.0416 156.696 49.583 156.371 49.1776 155.944V157H47.2256V148.44H49.2576V154.344C49.8123 155.219 50.5803 155.656 51.5616 155.656C52.8203 155.656 53.4496 155.069 53.4496 153.896V148.44H55.4656V153.992C55.4656 154.6 55.3323 155.155 55.0656 155.656C54.8096 156.147 54.431 156.536 53.9296 156.824C53.4283 157.101 52.831 157.24 52.1376 157.24ZM61.2699 157.24C59.9792 157.24 58.9552 156.877 58.1979 156.152C57.4405 155.416 57.0619 154.344 57.0619 152.936C57.0619 151.976 57.2005 151.139 57.4779 150.424C57.7552 149.709 58.1392 149.16 58.6299 148.776C59.1205 148.392 59.6699 148.2 60.2779 148.2C61.0672 148.2 61.6432 148.504 62.0059 149.112C62.2085 148.792 62.4965 148.563 62.8699 148.424C63.2432 148.275 63.6539 148.2 64.1019 148.2C64.8699 148.2 65.4512 148.445 65.8459 148.936C66.2405 149.416 66.4379 150.061 66.4379 150.872V157H64.4059V151.016C64.4059 150.589 64.3419 150.28 64.2139 150.088C64.0859 149.885 63.8672 149.784 63.5579 149.784C63.0245 149.784 62.6992 150.093 62.5819 150.712H61.4459C61.3819 150.093 61.1045 149.784 60.6139 149.784C60.1765 149.784 59.8192 150.056 59.5419 150.6C59.2752 151.133 59.1419 151.912 59.1419 152.936C59.1419 154.749 59.9685 155.656 61.6219 155.656C62.0165 155.656 62.3845 155.603 62.7259 155.496V157.048C62.3099 157.176 61.8245 157.24 61.2699 157.24ZM64.4146 144.52H66.4466V147.272H64.4146V144.52ZM71.6946 157.24C71.012 157.24 70.34 157.165 69.6786 157.016C69.0173 156.867 68.468 156.659 68.0306 156.392V151.912H71.8706V153.56H70.0626V155.336C70.4573 155.549 71.0013 155.656 71.6946 155.656C72.6333 155.656 73.3426 155.4 73.8226 154.888C74.3026 154.376 74.5426 153.629 74.5426 152.648C74.5426 151.976 74.436 151.432 74.2226 151.016C74.0093 150.6 73.6573 150.291 73.1666 150.088C72.676 149.885 72.0146 149.784 71.1826 149.784C70.6386 149.784 70.084 149.843 69.5186 149.96C68.964 150.067 68.5 150.227 68.1266 150.44V148.856C68.5533 148.643 69.06 148.483 69.6466 148.376C70.244 148.259 70.8733 148.2 71.5346 148.2C73.156 148.2 74.4093 148.589 75.2946 149.368C76.18 150.136 76.6226 151.229 76.6226 152.648C76.6226 154.067 76.196 155.187 75.3426 156.008C74.5 156.829 73.284 157.24 71.6946 157.24ZM81.5696 157.24C80.887 157.24 80.215 157.165 79.5536 157.016C78.8923 156.867 78.343 156.659 77.9056 156.392V151.912H81.7456V153.56H79.9376V155.336C80.3323 155.549 80.8763 155.656 81.5696 155.656C82.5083 155.656 83.2176 155.4 83.6976 154.888C84.1776 154.376 84.4176 153.629 84.4176 152.648C84.4176 151.976 84.311 151.432 84.0976 151.016C83.8843 150.6 83.5323 150.291 83.0416 150.088C82.551 149.885 81.8896 149.784 81.0576 149.784C80.5136 149.784 79.959 149.843 79.3936 149.96C78.839 150.067 78.375 150.227 78.0016 150.44V148.856C78.4283 148.643 78.935 148.483 79.5216 148.376C80.119 148.259 80.7483 148.2 81.4096 148.2C83.031 148.2 84.2843 148.589 85.1696 149.368C86.055 150.136 86.4976 151.229 86.4976 152.648C86.4976 154.067 86.071 155.187 85.2176 156.008C84.375 156.829 83.159 157.24 81.5696 157.24ZM84.4046 159.64C84.4046 159.448 84.3726 159.315 84.3086 159.24C84.2446 159.165 84.1166 159.128 83.9246 159.128H83.3646V157.832H84.8526C85.386 157.832 85.7486 157.928 85.9406 158.12C86.1326 158.323 86.2286 158.685 86.2286 159.208V161.288H84.4046V159.64ZM92.3566 157.24C91.5033 157.24 90.7513 157.085 90.1006 156.776C89.4606 156.467 88.9646 156.04 88.6126 155.496C88.2713 154.941 88.1006 154.312 88.1006 153.608V148.44H90.1326V153.528C90.1326 154.2 90.3193 154.723 90.6926 155.096C91.066 155.469 91.6206 155.656 92.3566 155.656C93.082 155.656 93.6313 155.469 94.0046 155.096C94.378 154.723 94.5646 154.2 94.5646 153.528V145.576H96.5966V153.608C96.5966 154.312 96.4206 154.941 96.0686 155.496C95.7273 156.04 95.2366 156.467 94.5966 156.776C93.9566 157.085 93.21 157.24 92.3566 157.24ZM99.0025 151.784L98.2025 150.456C98.7892 149.72 99.4612 149.16 100.219 148.776C100.987 148.392 101.872 148.2 102.875 148.2C104.208 148.2 105.227 148.499 105.931 149.096C106.645 149.693 107.003 150.52 107.003 151.576V157H104.971V151.736C104.971 151.075 104.795 150.584 104.443 150.264C104.091 149.944 103.568 149.784 102.875 149.784C102.352 149.784 101.888 149.859 101.483 150.008C101.088 150.157 100.72 150.403 100.379 150.744L101.035 151.8V157H99.0025V151.784ZM111.985 157.24C111.377 157.24 110.758 157.176 110.129 157.048C109.51 156.92 109.025 156.728 108.673 156.472V154.888C109.142 155.165 109.659 155.373 110.225 155.512C110.801 155.651 111.329 155.72 111.809 155.72C112.449 155.72 112.907 155.656 113.185 155.528C113.473 155.4 113.617 155.16 113.617 154.808C113.617 154.563 113.542 154.371 113.393 154.232C113.243 154.083 113.041 153.96 112.785 153.864C112.529 153.768 112.049 153.613 111.345 153.4C110.427 153.112 109.739 152.765 109.281 152.36C108.833 151.955 108.609 151.405 108.609 150.712C108.609 149.912 108.929 149.293 109.569 148.856C110.209 148.419 111.073 148.2 112.161 148.2C112.737 148.2 113.286 148.264 113.809 148.392C114.342 148.509 114.779 148.669 115.121 148.872V150.536C114.769 150.312 114.342 150.131 113.841 149.992C113.35 149.853 112.854 149.784 112.353 149.784C111.211 149.784 110.641 150.093 110.641 150.712C110.641 150.936 110.71 151.117 110.849 151.256C110.987 151.395 111.174 151.512 111.409 151.608C111.643 151.693 112.001 151.811 112.481 151.96L113.009 152.12C113.691 152.333 114.219 152.563 114.593 152.808C114.977 153.053 115.243 153.336 115.393 153.656C115.553 153.976 115.633 154.371 115.633 154.84C115.633 155.555 115.329 156.136 114.721 156.584C114.113 157.021 113.201 157.24 111.985 157.24ZM126.522 157.24C125.85 157.24 125.274 157.101 124.794 156.824C124.324 156.536 123.967 156.147 123.722 155.656C123.476 155.155 123.354 154.6 123.354 153.992V151.736C123.354 151.064 123.194 150.573 122.874 150.264C122.554 149.944 122.068 149.784 121.418 149.784C120.927 149.784 120.495 149.859 120.122 150.008C119.748 150.157 119.402 150.403 119.082 150.744L119.738 151.8V154.552C119.738 154.829 119.796 155.027 119.914 155.144C120.042 155.251 120.25 155.304 120.538 155.304H121.402V157H119.45C118.884 157 118.452 156.84 118.154 156.52C117.855 156.2 117.706 155.763 117.706 155.208V151.784L116.906 150.456C117.492 149.72 118.148 149.16 118.874 148.776C119.61 148.392 120.458 148.2 121.418 148.2C122.708 148.2 123.69 148.499 124.362 149.096C125.034 149.683 125.37 150.509 125.37 151.576V153.896C125.37 154.493 125.508 154.936 125.786 155.224C126.063 155.512 126.5 155.656 127.098 155.656C127.567 155.656 127.994 155.544 128.378 155.32C128.772 155.085 129.066 154.76 129.258 154.344V148.44H131.274V157H129.322V155.992C128.65 156.824 127.716 157.24 126.522 157.24ZM127.226 146.248C127.226 145.8 127.344 145.464 127.578 145.24C127.813 145.005 128.192 144.888 128.714 144.888H132.25V146.184H129.53C129.349 146.184 129.226 146.221 129.162 146.296C129.088 146.371 129.05 146.499 129.05 146.68V147.272H127.226V146.248ZM134.89 157C134.336 157 133.909 156.845 133.61 156.536C133.322 156.216 133.178 155.773 133.178 155.208V151.144C133.178 150.632 133.274 150.195 133.466 149.832C133.658 149.459 133.93 149.064 134.282 148.648C134.517 148.36 134.688 148.125 134.794 147.944C134.912 147.752 134.97 147.549 134.97 147.336C134.97 147.005 134.885 146.765 134.714 146.616C134.544 146.467 134.245 146.392 133.818 146.392C133.178 146.392 132.597 146.579 132.074 146.952V145.4C132.405 145.208 132.778 145.064 133.194 144.968C133.61 144.861 134.037 144.808 134.474 144.808C135.338 144.808 135.984 145.011 136.41 145.416C136.837 145.821 137.05 146.349 137.05 147C137.05 147.373 136.976 147.704 136.826 147.992C136.677 148.28 136.453 148.616 136.154 149C135.834 149.405 135.594 149.757 135.434 150.056C135.285 150.344 135.21 150.696 135.21 151.112V154.568C135.21 154.845 135.269 155.037 135.386 155.144C135.504 155.251 135.696 155.304 135.962 155.304H136.522V157H134.89ZM138.163 148.44H140.195V151.864L143.891 148.44H146.227L143.891 150.6C144.755 150.824 145.358 151.187 145.699 151.688C146.04 152.189 146.211 152.856 146.211 153.688V157H144.179V153.832C144.179 153.224 144.067 152.765 143.843 152.456C143.63 152.147 143.235 151.928 142.659 151.8L140.195 154.088V157H138.163V148.44ZM153.06 157.24C152.526 157.24 151.998 157.133 151.476 156.92C150.964 156.696 150.505 156.371 150.1 155.944V157H148.148V148.44H150.18V154.344C150.734 155.219 151.502 155.656 152.484 155.656C153.742 155.656 154.372 155.069 154.372 153.896V148.44H156.388V153.992C156.388 154.6 156.254 155.155 155.988 155.656C155.732 156.147 155.353 156.536 154.852 156.824C154.35 157.101 153.753 157.24 153.06 157.24ZM154.368 144.52H156.4V147.272H154.368V144.52Z" fill="#4E5256"/>
<path d="M42.8095 99.5268C42.068 100.323 40.8068 100.323 40.0652 99.5268L28.2697 86.8632C27.5544 86.0952 27.5544 84.9048 28.2697 84.1368L40.0652 71.4732C40.8068 70.677 42.068 70.677 42.8095 71.4732C43.4802 72.1932 43.4802 73.3093 42.8095 74.0293L33.395 84.1368C32.6796 84.9048 32.6796 86.0952 33.395 86.8632L42.8095 96.9707C43.4802 97.6907 43.4802 98.8068 42.8095 99.5268Z" fill="#535353"/>
<path d="M111 86.025L109.75 83.9C111.7 81.4667 114.208 80.25 117.275 80.25C119.425 80.25 121.075 80.725 122.225 81.675C123.392 82.625 123.975 83.95 123.975 85.65V94H120.175V85.95C120.175 84.1167 119.208 83.2 117.275 83.2C116.558 83.2 115.917 83.3 115.35 83.5C114.8 83.7 114.283 84.025 113.8 84.475L114.775 86.075V94H111V86.025ZM130.609 85.675C130.609 84.8083 130.426 84.1833 130.059 83.8C129.693 83.4 129.051 83.2 128.134 83.2C127.251 83.2 126.359 83.425 125.459 83.875V81C125.859 80.8 126.393 80.625 127.059 80.475C127.743 80.325 128.401 80.25 129.034 80.25C130.784 80.25 132.118 80.7167 133.034 81.65C133.951 82.5833 134.409 83.9333 134.409 85.7V94H130.609V85.675ZM142.009 94.375C141.026 94.375 140.026 94.275 139.009 94.075C138.009 93.8917 137.217 93.6083 136.634 93.225V90.325C137.367 90.7583 138.184 91.0917 139.084 91.325C140.001 91.5583 140.826 91.675 141.559 91.675C142.442 91.675 143.084 91.5917 143.484 91.425C143.901 91.2417 144.109 90.925 144.109 90.475C144.109 90.075 143.909 89.7667 143.509 89.55C143.126 89.3333 142.401 89.0583 141.334 88.725L140.709 88.525C139.276 88.075 138.217 87.5333 137.534 86.9C136.851 86.2667 136.509 85.4 136.509 84.3C136.509 83.0167 137.026 82.025 138.059 81.325C139.092 80.6083 140.484 80.25 142.234 80.25C143.184 80.25 144.101 80.35 144.984 80.55C145.867 80.75 146.576 81.0083 147.109 81.325V84.3C146.576 83.9333 145.909 83.6417 145.109 83.425C144.326 83.1917 143.551 83.075 142.784 83.075C141.167 83.075 140.359 83.4833 140.359 84.3C140.359 84.7 140.551 85.0083 140.934 85.225C141.317 85.4417 142.001 85.7 142.984 86L143.884 86.275C144.934 86.6083 145.751 86.975 146.334 87.375C146.934 87.775 147.351 88.225 147.584 88.725C147.817 89.225 147.934 89.8333 147.934 90.55C147.934 91.7 147.434 92.625 146.434 93.325C145.451 94.025 143.976 94.375 142.009 94.375ZM156.246 94.375C154.179 94.375 152.546 93.8083 151.346 92.675C150.146 91.525 149.546 89.8417 149.546 87.625C149.546 86.1083 149.763 84.8 150.196 83.7C150.629 82.5833 151.238 81.7333 152.021 81.15C152.821 80.55 153.738 80.25 154.771 80.25C155.388 80.25 155.921 80.3667 156.371 80.6C156.838 80.8333 157.213 81.1583 157.496 81.575C157.813 81.125 158.246 80.7917 158.796 80.575C159.363 80.3583 159.996 80.25 160.696 80.25C161.963 80.25 162.946 80.6417 163.646 81.425C164.346 82.1917 164.696 83.2083 164.696 84.475V94H160.921V84.85C160.921 84.2833 160.829 83.8667 160.646 83.6C160.479 83.3333 160.188 83.2 159.771 83.2C159.038 83.2 158.579 83.65 158.396 84.55H156.621C156.504 83.65 156.113 83.2 155.446 83.2C154.846 83.2 154.363 83.575 153.996 84.325C153.629 85.075 153.446 86.175 153.446 87.625C153.446 88.925 153.721 89.8833 154.271 90.5C154.838 91.1167 155.729 91.425 156.946 91.425C157.579 91.425 158.146 91.3333 158.646 91.15V94.05C157.996 94.2667 157.196 94.375 156.246 94.375ZM159.556 78.975C157.956 78.975 157.156 78.1667 157.156 76.55V74.725H160.556V75.95C160.556 76.1833 160.606 76.35 160.706 76.45C160.79 76.5333 160.956 76.575 161.206 76.575H166.906V78.975H159.556ZM159.731 72.825C159.731 72.6417 159.706 72.5167 159.656 72.45C159.59 72.3833 159.456 72.35 159.256 72.35H158.181V69.925H160.431C161.498 69.925 162.031 70.3833 162.031 71.3V71.95H166.281V74.175H159.731V72.825ZM166.831 82.3H170.606L173.456 91.175C174.69 91.175 175.64 90.8083 176.306 90.075C176.973 89.325 177.306 88.2667 177.306 86.9C177.306 85.6667 177.073 84.7417 176.606 84.125C176.14 83.5083 175.423 83.2 174.456 83.2C173.923 83.2 173.39 83.2833 172.856 83.45V80.6C173.556 80.3667 174.348 80.25 175.231 80.25C177.215 80.25 178.698 80.8333 179.681 82C180.681 83.15 181.181 84.7833 181.181 86.9C181.181 88.3833 180.856 89.6583 180.206 90.725C179.556 91.7917 178.673 92.6083 177.556 93.175C176.456 93.725 175.248 94 173.931 94H170.581L166.831 82.3ZM183.298 85.975C183.298 84.125 183.915 82.7083 185.148 81.725C186.398 80.7417 188.073 80.25 190.173 80.25C192.273 80.25 193.94 80.7417 195.173 81.725C196.406 82.7083 197.023 84.125 197.023 85.975V94H193.223V85.95C193.223 85.0333 192.956 84.35 192.423 83.9C191.906 83.4333 191.156 83.2 190.173 83.2C189.173 83.2 188.406 83.4333 187.873 83.9C187.356 84.35 187.098 85.0333 187.098 85.95V87.85C187.298 87.55 187.59 87.3167 187.973 87.15C188.373 86.9667 188.815 86.875 189.298 86.875H191.248V89.775H189.098C188.515 89.775 188.031 89.9583 187.648 90.325C187.281 90.6917 187.098 91.1667 187.098 91.75V94H183.298V85.975ZM193.231 74.525H197.031V78.975H193.231V74.525ZM203.656 85.675C203.656 84.8083 203.473 84.1833 203.106 83.8C202.739 83.4 202.098 83.2 201.181 83.2C200.298 83.2 199.406 83.425 198.506 83.875V81C198.906 80.8 199.439 80.625 200.106 80.475C200.789 80.325 201.448 80.25 202.081 80.25C203.831 80.25 205.164 80.7167 206.081 81.65C206.998 82.5833 207.456 83.9333 207.456 85.7V94H203.656V85.675ZM215.556 94.375C214.439 94.375 213.339 94.2583 212.256 94.025C211.173 93.8083 210.273 93.5 209.556 93.1V86.075H215.881V88.85H213.281V91C213.798 91.2833 214.556 91.425 215.556 91.425C218.206 91.425 219.531 90.0417 219.531 87.275C219.531 85.8583 219.148 84.825 218.381 84.175C217.614 83.525 216.323 83.2 214.506 83.2C213.673 83.2 212.814 83.2917 211.931 83.475C211.064 83.6417 210.331 83.8833 209.731 84.2V81.25C210.414 80.9333 211.239 80.6917 212.206 80.525C213.173 80.3417 214.181 80.25 215.231 80.25C217.914 80.25 219.948 80.8667 221.331 82.1C222.731 83.3167 223.431 85.0417 223.431 87.275C223.431 89.475 222.748 91.2083 221.381 92.475C220.014 93.7417 218.073 94.375 215.556 94.375ZM219.634 98.4C219.634 98.1 219.576 97.8833 219.459 97.75C219.343 97.6333 219.134 97.575 218.834 97.575H218.009V95.175H220.634C221.534 95.175 222.159 95.3583 222.509 95.725C222.843 96.0917 223.009 96.725 223.009 97.625V100.85H219.634V98.4ZM232.409 94.375C231.026 94.375 229.818 94.1333 228.784 93.65C227.751 93.15 226.951 92.4667 226.384 91.6C225.818 90.7333 225.534 89.75 225.534 88.65V80.625H229.334V88.4C229.334 89.3667 229.584 90.1167 230.084 90.65C230.601 91.1667 231.376 91.425 232.409 91.425C233.443 91.425 234.209 91.1667 234.709 90.65C235.209 90.1167 235.459 89.3667 235.459 88.4V76.15H239.259V88.65C239.259 89.75 238.976 90.7333 238.409 91.6C237.843 92.4667 237.043 93.15 236.009 93.65C234.976 94.1333 233.776 94.375 232.409 94.375ZM242.567 86.025L241.317 83.9C243.267 81.4667 245.776 80.25 248.842 80.25C250.992 80.25 252.642 80.725 253.792 81.675C254.959 82.625 255.542 83.95 255.542 85.65V94H251.742V85.95C251.742 84.1167 250.776 83.2 248.842 83.2C248.126 83.2 247.484 83.3 246.917 83.5C246.367 83.7 245.851 84.025 245.367 84.475L246.342 86.075V94H242.567V86.025ZM263.152 94.375C262.168 94.375 261.168 94.275 260.152 94.075C259.152 93.8917 258.36 93.6083 257.777 93.225V90.325C258.51 90.7583 259.327 91.0917 260.227 91.325C261.143 91.5583 261.968 91.675 262.702 91.675C263.585 91.675 264.227 91.5917 264.627 91.425C265.043 91.2417 265.252 90.925 265.252 90.475C265.252 90.075 265.052 89.7667 264.652 89.55C264.268 89.3333 263.543 89.0583 262.477 88.725L261.852 88.525C260.418 88.075 259.36 87.5333 258.677 86.9C257.993 86.2667 257.652 85.4 257.652 84.3C257.652 83.0167 258.168 82.025 259.202 81.325C260.235 80.6083 261.627 80.25 263.377 80.25C264.327 80.25 265.243 80.35 266.127 80.55C267.01 80.75 267.718 81.0083 268.252 81.325V84.3C267.718 83.9333 267.052 83.6417 266.252 83.425C265.468 83.1917 264.693 83.075 263.927 83.075C262.31 83.075 261.502 83.4833 261.502 84.3C261.502 84.7 261.693 85.0083 262.077 85.225C262.46 85.4417 263.143 85.7 264.127 86L265.027 86.275C266.077 86.6083 266.893 86.975 267.477 87.375C268.077 87.775 268.493 88.225 268.727 88.725C268.96 89.225 269.077 89.8333 269.077 90.55C269.077 91.7 268.577 92.625 267.577 93.325C266.593 94.025 265.118 94.375 263.152 94.375ZM285.539 94.375C283.955 94.375 282.73 93.8917 281.864 92.925C280.997 91.9583 280.564 90.725 280.564 89.225V85.95C280.564 85.0167 280.347 84.325 279.914 83.875C279.48 83.425 278.814 83.2 277.914 83.2C277.247 83.2 276.655 83.3 276.139 83.5C275.639 83.7 275.155 84.025 274.689 84.475L275.664 86.075V90C275.664 90.4 275.755 90.6833 275.939 90.85C276.122 91.0167 276.422 91.1 276.839 91.1H278.114V94H274.764C273.847 94 273.139 93.7417 272.639 93.225C272.139 92.6917 271.889 91.9583 271.889 91.025V86.025L270.639 83.9C271.589 82.7167 272.655 81.8167 273.839 81.2C275.022 80.5667 276.38 80.25 277.914 80.25C279.98 80.25 281.564 80.7333 282.664 81.7C283.764 82.65 284.314 83.9667 284.314 85.65V89C284.314 90.6167 285.114 91.425 286.714 91.425C287.347 91.425 287.914 91.275 288.414 90.975C288.914 90.6583 289.322 90.2083 289.639 89.625V80.625H293.414V94H289.839V92.525C289.289 93.1417 288.647 93.6083 287.914 93.925C287.18 94.225 286.389 94.375 285.539 94.375ZM286.667 77.075C286.667 76.3417 286.867 75.7917 287.267 75.425C287.651 75.0583 288.267 74.875 289.117 74.875H294.742V77.25H290.742C290.492 77.25 290.317 77.3083 290.217 77.425C290.101 77.525 290.042 77.7 290.042 77.95V78.975H286.667V77.075Z" fill="black"/>
<line x1="88" y1="257.5" x2="88" y2="227.5" stroke="#4E5256" stroke-width="2"/>
<line x1="122" y1="228.5" x2="89" y2="228.5" stroke="#4E5256" stroke-width="2"/>
<path d="M301 257.5L301 227.5" stroke="#4E5256" stroke-width="2"/>
<path d="M267 228.5H300" stroke="#4E5256" stroke-width="2"/>
<line x1="267" y1="450.5" x2="300" y2="450.5" stroke="#4E5256" stroke-width="2"/>
<line x1="301" y1="407.5" x2="301" y2="451.5" stroke="#4E5256" stroke-width="2"/>
<line x1="122" y1="453.5" x2="92" y2="453.5" stroke="#4E5256" stroke-width="2"/>
<line x1="93" y1="419.5" x2="93" y2="452.5" stroke="#4E5256" stroke-width="2"/>
<path d="M90.4 515.74L89.7 514.634C90.1667 514.037 90.708 513.584 91.324 513.276C91.94 512.959 92.6727 512.8 93.522 512.8C94.6047 512.8 95.4307 513.047 96 513.542C96.5693 514.037 96.854 514.732 96.854 515.628V520.5H95.776V515.726C95.776 515.026 95.5847 514.508 95.202 514.172C94.8287 513.836 94.2687 513.668 93.522 513.668C92.9433 513.668 92.4393 513.757 92.01 513.934C91.5807 514.102 91.198 514.377 90.862 514.76L91.478 515.726V520.5H90.4V515.74ZM101.29 520.71C100.805 520.71 100.301 520.645 99.778 520.514C99.2647 520.393 98.8587 520.22 98.56 519.996V519.086C98.952 519.338 99.3814 519.529 99.848 519.66C100.315 519.781 100.772 519.842 101.22 519.842C101.892 519.842 102.373 519.758 102.662 519.59C102.961 519.413 103.11 519.119 103.11 518.708C103.11 518.437 103.045 518.218 102.914 518.05C102.793 517.873 102.587 517.719 102.298 517.588C102.009 517.457 101.579 517.308 101.01 517.14C100.161 516.888 99.5354 516.603 99.134 516.286C98.7327 515.959 98.532 515.488 98.532 514.872C98.532 514.2 98.784 513.687 99.288 513.332C99.8014 512.977 100.501 512.8 101.388 512.8C101.845 512.8 102.284 512.856 102.704 512.968C103.124 513.071 103.474 513.211 103.754 513.388V514.284C103.082 513.873 102.321 513.668 101.472 513.668C100.231 513.668 99.61 514.069 99.61 514.872C99.61 515.161 99.6847 515.39 99.834 515.558C99.9834 515.726 100.203 515.871 100.492 515.992C100.781 516.104 101.225 516.244 101.822 516.412C102.419 516.58 102.886 516.767 103.222 516.972C103.567 517.168 103.815 517.406 103.964 517.686C104.113 517.957 104.188 518.302 104.188 518.722C104.188 519.319 103.95 519.8 103.474 520.164C103.007 520.528 102.279 520.71 101.29 520.71ZM102.913 522.698C102.913 522.521 102.88 522.404 102.815 522.348C102.749 522.301 102.619 522.278 102.423 522.278H101.989V521.368H102.983C103.347 521.368 103.594 521.447 103.725 521.606C103.846 521.765 103.907 522.045 103.907 522.446V524.098H102.913V522.698ZM114.127 520.71C113.249 520.71 112.573 520.467 112.097 519.982C111.621 519.497 111.383 518.848 111.383 518.036V515.726C111.383 515.017 111.205 514.499 110.851 514.172C110.505 513.836 109.978 513.668 109.269 513.668C108.727 513.668 108.261 513.752 107.869 513.92C107.477 514.088 107.103 514.368 106.749 514.76L107.365 515.726V518.862C107.365 519.133 107.416 519.324 107.519 519.436C107.631 519.539 107.817 519.59 108.079 519.59H108.891V520.5H107.631C107.192 520.5 106.856 520.379 106.623 520.136C106.399 519.893 106.287 519.557 106.287 519.128V515.74L105.587 514.634C106.063 514.027 106.59 513.57 107.169 513.262C107.757 512.954 108.457 512.8 109.269 512.8C110.314 512.8 111.103 513.047 111.635 513.542C112.176 514.037 112.447 514.732 112.447 515.628V517.994C112.447 519.226 113.091 519.842 114.379 519.842C115.34 519.842 116.129 519.366 116.745 518.414V513.01H117.823V520.5H116.787V519.422C116.124 520.281 115.237 520.71 114.127 520.71ZM122.655 515.6C122.655 514.937 122.519 514.452 122.249 514.144C121.978 513.827 121.516 513.668 120.863 513.668C120.2 513.668 119.607 513.799 119.085 514.06V513.192C119.309 513.08 119.593 512.987 119.939 512.912C120.293 512.837 120.648 512.8 121.003 512.8C121.927 512.8 122.613 513.047 123.061 513.542C123.509 514.037 123.733 514.746 123.733 515.67V520.5H122.655V515.6ZM126.993 520.5C126.573 520.5 126.251 520.379 126.027 520.136C125.803 519.893 125.691 519.557 125.691 519.128V513.01H126.769V518.89C126.769 519.161 126.825 519.347 126.937 519.45C127.049 519.543 127.236 519.59 127.497 519.59H128.015V520.5H126.993ZM130.437 520.5C130.017 520.5 129.695 520.379 129.471 520.136C129.247 519.893 129.135 519.557 129.135 519.128V513.01H130.213V518.89C130.213 519.161 130.269 519.347 130.381 519.45C130.493 519.543 130.68 519.59 130.941 519.59H131.459V520.5H130.437ZM135.522 520.71C134.701 520.71 134.052 520.509 133.576 520.108C133.1 519.697 132.862 519.109 132.862 518.344C132.862 517.597 133.128 517.009 133.66 516.58C134.192 516.141 134.906 515.922 135.802 515.922C136.773 515.922 137.655 516.109 138.448 516.482V515.67C138.448 514.979 138.261 514.475 137.888 514.158C137.515 513.831 136.908 513.668 136.068 513.668C135.629 513.668 135.2 513.71 134.78 513.794C134.36 513.869 133.996 513.976 133.688 514.116V513.248C133.968 513.117 134.346 513.01 134.822 512.926C135.298 512.842 135.76 512.8 136.208 512.8C137.151 512.8 137.893 512.987 138.434 513.36L139.246 512.45H140.45L139.078 513.99C139.377 514.438 139.526 514.993 139.526 515.656V520.5H138.448V517.35C137.711 516.977 136.861 516.79 135.9 516.79C134.593 516.79 133.94 517.308 133.94 518.344C133.94 518.857 134.085 519.235 134.374 519.478C134.663 519.721 135.125 519.842 135.76 519.842C136.087 519.842 136.395 519.8 136.684 519.716V520.57C136.357 520.663 135.97 520.71 135.522 520.71ZM142.134 515.74L141.434 514.634C141.901 514.037 142.442 513.584 143.058 513.276C143.674 512.959 144.407 512.8 145.256 512.8C146.339 512.8 147.165 513.047 147.734 513.542C148.304 514.037 148.588 514.732 148.588 515.628V520.5H147.51V515.726C147.51 515.026 147.319 514.508 146.936 514.172C146.563 513.836 146.003 513.668 145.256 513.668C144.678 513.668 144.174 513.757 143.744 513.934C143.315 514.102 142.932 514.377 142.596 514.76L143.212 515.726V520.5H142.134V515.74ZM153.43 520.71C152.516 520.71 151.806 520.467 151.302 519.982C150.798 519.497 150.546 518.848 150.546 518.036V513.01H151.624V517.994C151.624 518.601 151.797 519.063 152.142 519.38C152.488 519.688 153.001 519.842 153.682 519.842C154.746 519.842 155.586 519.366 156.202 518.414V513.01H157.28V520.5H156.23V519.394C155.885 519.842 155.484 520.173 155.026 520.388C154.569 520.603 154.037 520.71 153.43 520.71ZM169.67 520.5C168.625 520.5 167.691 520.299 166.87 519.898C166.058 519.497 165.423 518.927 164.966 518.19C164.509 517.443 164.28 516.58 164.28 515.6C164.28 514.601 164.504 513.715 164.952 512.94C165.4 512.165 166.011 511.568 166.786 511.148C167.561 510.719 168.433 510.504 169.404 510.504C170.365 510.504 171.233 510.719 172.008 511.148C172.792 511.568 173.403 512.165 173.842 512.94C174.29 513.715 174.514 514.601 174.514 515.6C174.514 516.515 174.304 517.322 173.884 518.022C173.473 518.713 172.913 519.231 172.204 519.576H174.64V520.5H169.67ZM169.404 519.492C170.16 519.492 170.841 519.343 171.448 519.044C172.055 518.736 172.531 518.288 172.876 517.7C173.231 517.112 173.408 516.412 173.408 515.6C173.408 514.788 173.231 514.074 172.876 513.458C172.521 512.833 172.041 512.352 171.434 512.016C170.827 511.68 170.151 511.512 169.404 511.512C168.657 511.512 167.976 511.68 167.36 512.016C166.753 512.352 166.273 512.833 165.918 513.458C165.563 514.074 165.386 514.788 165.386 515.6C165.386 516.421 165.559 517.126 165.904 517.714C166.249 518.293 166.725 518.736 167.332 519.044C167.939 519.343 168.629 519.492 169.404 519.492ZM176.044 510.714H179.824C180.842 510.714 181.612 510.952 182.134 511.428C182.666 511.904 182.932 512.609 182.932 513.542C182.932 514.251 182.722 514.853 182.302 515.348C181.892 515.843 181.318 516.155 180.58 516.286L182.904 520.5H181.77L179.474 516.342H177.136V520.5H176.044V510.714ZM179.684 515.418C180.356 515.418 180.884 515.259 181.266 514.942C181.649 514.625 181.84 514.158 181.84 513.542C181.84 512.851 181.649 512.361 181.266 512.072C180.893 511.783 180.366 511.638 179.684 511.638H177.136V515.418H179.684ZM194.793 520.71C193.804 520.71 192.917 520.5 192.133 520.08C191.358 519.66 190.752 519.067 190.313 518.302C189.874 517.527 189.655 516.631 189.655 515.614C189.655 514.597 189.874 513.705 190.313 512.94C190.752 512.165 191.358 511.568 192.133 511.148C192.917 510.719 193.804 510.504 194.793 510.504C196.146 510.504 197.266 510.859 198.153 511.568V512.632C197.313 511.876 196.221 511.498 194.877 511.498C194.084 511.498 193.374 511.666 192.749 512.002C192.124 512.338 191.634 512.819 191.279 513.444C190.924 514.06 190.747 514.783 190.747 515.614C190.747 516.445 190.924 517.173 191.279 517.798C191.643 518.414 192.138 518.89 192.763 519.226C193.388 519.562 194.093 519.73 194.877 519.73C195.577 519.73 196.202 519.637 196.753 519.45C197.304 519.263 197.812 518.955 198.279 518.526V519.604C197.448 520.341 196.286 520.71 194.793 520.71ZM203.045 520.71C202.317 520.71 201.668 520.565 201.099 520.276C200.539 519.987 200.1 519.576 199.783 519.044C199.475 518.503 199.321 517.873 199.321 517.154C199.321 516.445 199.48 515.819 199.797 515.278C200.114 514.737 200.553 514.317 201.113 514.018C201.682 513.719 202.326 513.57 203.045 513.57C203.764 513.57 204.403 513.719 204.963 514.018C205.532 514.317 205.976 514.737 206.293 515.278C206.61 515.819 206.769 516.445 206.769 517.154C206.769 517.873 206.61 518.503 206.293 519.044C205.985 519.576 205.546 519.987 204.977 520.276C204.417 520.565 203.773 520.71 203.045 520.71ZM203.045 519.856C203.848 519.856 204.487 519.613 204.963 519.128C205.448 518.633 205.691 517.975 205.691 517.154C205.691 516.323 205.448 515.665 204.963 515.18C204.487 514.685 203.848 514.438 203.045 514.438C202.242 514.438 201.598 514.685 201.113 515.18C200.637 515.665 200.399 516.323 200.399 517.154C200.399 517.975 200.637 518.633 201.113 519.128C201.598 519.613 202.242 519.856 203.045 519.856ZM211.476 520.71C210.813 520.71 210.216 520.565 209.684 520.276C209.152 519.987 208.732 519.571 208.424 519.03C208.116 518.489 207.962 517.863 207.962 517.154C207.962 516.454 208.111 515.833 208.41 515.292C208.718 514.741 209.138 514.317 209.67 514.018C210.211 513.719 210.813 513.57 211.476 513.57C212.12 513.57 212.689 513.687 213.184 513.92C213.688 514.144 214.089 514.475 214.388 514.914V510.154H215.466V520.5H214.416V519.324C214.061 519.791 213.641 520.141 213.156 520.374C212.68 520.598 212.12 520.71 211.476 520.71ZM211.7 519.856C212.344 519.856 212.904 519.693 213.38 519.366C213.865 519.03 214.201 518.573 214.388 517.994V516.314C214.21 515.735 213.879 515.278 213.394 514.942C212.918 514.606 212.353 514.438 211.7 514.438C211.205 514.438 210.752 514.555 210.342 514.788C209.94 515.012 209.623 515.329 209.39 515.74C209.156 516.151 209.04 516.622 209.04 517.154C209.04 517.686 209.156 518.157 209.39 518.568C209.623 518.979 209.94 519.296 210.342 519.52C210.752 519.744 211.205 519.856 211.7 519.856ZM221.041 520.71C219.819 520.71 218.862 520.397 218.171 519.772C217.49 519.147 217.149 518.274 217.149 517.154C217.149 516.053 217.457 515.18 218.073 514.536C218.689 513.892 219.567 513.57 220.705 513.57C221.471 513.57 222.119 513.719 222.651 514.018C223.183 514.307 223.585 514.709 223.855 515.222C224.126 515.735 224.261 516.319 224.261 516.972V517.56H218.157C218.195 518.325 218.475 518.899 218.997 519.282C219.529 519.665 220.248 519.856 221.153 519.856C221.592 519.856 222.021 519.819 222.441 519.744C222.871 519.66 223.253 519.548 223.589 519.408V520.318C223.309 520.43 222.927 520.523 222.441 520.598C221.965 520.673 221.499 520.71 221.041 520.71ZM223.253 516.79C223.235 516.062 223.011 515.488 222.581 515.068C222.152 514.648 221.522 514.438 220.691 514.438C219.879 514.438 219.259 514.657 218.829 515.096C218.4 515.525 218.176 516.09 218.157 516.79H223.253ZM234.737 520.71C234.037 520.71 233.421 520.584 232.889 520.332C232.366 520.08 231.965 519.725 231.685 519.268C231.405 518.801 231.265 518.269 231.265 517.672V513.01H232.343V517.686C232.343 518.349 232.548 518.876 232.959 519.268C233.379 519.651 233.972 519.842 234.737 519.842C235.502 519.842 236.09 519.651 236.501 519.268C236.921 518.876 237.131 518.349 237.131 517.686V513.01H238.209V517.672C238.209 518.269 238.069 518.801 237.789 519.268C237.509 519.725 237.103 520.08 236.571 520.332C236.048 520.584 235.437 520.71 234.737 520.71ZM243.05 520.71C242.135 520.71 241.426 520.467 240.922 519.982C240.418 519.497 240.166 518.848 240.166 518.036V513.01H241.244V517.994C241.244 518.601 241.416 519.063 241.762 519.38C242.107 519.688 242.62 519.842 243.302 519.842C244.366 519.842 245.206 519.366 245.822 518.414V513.01H246.9V520.5H245.85V519.394C245.504 519.842 245.103 520.173 244.646 520.388C244.188 520.603 243.656 520.71 243.05 520.71ZM251.493 520.71C250.942 520.71 250.41 520.64 249.897 520.5C249.384 520.36 248.945 520.159 248.581 519.898V516.37H251.437V517.238H249.659V519.394C250.116 519.693 250.728 519.842 251.493 519.842C252.445 519.842 253.187 519.562 253.719 519.002C254.251 518.442 254.517 517.649 254.517 516.622C254.517 515.586 254.265 514.835 253.761 514.368C253.266 513.901 252.445 513.668 251.297 513.668C250.793 513.668 250.303 513.724 249.827 513.836C249.36 513.939 248.964 514.107 248.637 514.34V513.444C249.346 513.015 250.275 512.8 251.423 512.8C252.786 512.8 253.822 513.127 254.531 513.78C255.24 514.424 255.595 515.371 255.595 516.622C255.595 517.443 255.432 518.162 255.105 518.778C254.778 519.394 254.307 519.87 253.691 520.206C253.075 520.542 252.342 520.71 251.493 520.71ZM254.315 522.698C254.315 522.521 254.282 522.404 254.217 522.348C254.152 522.301 254.021 522.278 253.825 522.278H253.391V521.368H254.385C254.749 521.368 254.996 521.447 255.127 521.606C255.248 521.765 255.309 522.045 255.309 522.446V524.098H254.315V522.698ZM260.741 520.71C260.041 520.71 259.425 520.584 258.893 520.332C258.37 520.08 257.969 519.725 257.689 519.268C257.409 518.801 257.269 518.269 257.269 517.672V513.01H258.347V517.686C258.347 518.349 258.552 518.876 258.963 519.268C259.383 519.651 259.976 519.842 260.741 519.842C261.506 519.842 262.094 519.651 262.505 519.268C262.925 518.876 263.135 518.349 263.135 517.686V510.504H264.213V517.672C264.213 518.269 264.073 518.801 263.793 519.268C263.513 519.725 263.107 520.08 262.575 520.332C262.052 520.584 261.441 520.71 260.741 520.71ZM266.589 515.74L265.889 514.634C266.356 514.037 266.897 513.584 267.513 513.276C268.129 512.959 268.862 512.8 269.711 512.8C270.794 512.8 271.62 513.047 272.189 513.542C272.759 514.037 273.043 514.732 273.043 515.628V520.5H271.965V515.726C271.965 515.026 271.774 514.508 271.391 514.172C271.018 513.836 270.458 513.668 269.711 513.668C269.133 513.668 268.629 513.757 268.199 513.934C267.77 514.102 267.387 514.377 267.051 514.76L267.667 515.726V520.5H266.589V515.74ZM277.479 520.71C276.994 520.71 276.49 520.645 275.967 520.514C275.454 520.393 275.048 520.22 274.749 519.996V519.086C275.141 519.338 275.571 519.529 276.037 519.66C276.504 519.781 276.961 519.842 277.409 519.842C278.081 519.842 278.562 519.758 278.851 519.59C279.15 519.413 279.299 519.119 279.299 518.708C279.299 518.437 279.234 518.218 279.103 518.05C278.982 517.873 278.777 517.719 278.487 517.588C278.198 517.457 277.769 517.308 277.199 517.14C276.35 516.888 275.725 516.603 275.323 516.286C274.922 515.959 274.721 515.488 274.721 514.872C274.721 514.2 274.973 513.687 275.477 513.332C275.991 512.977 276.691 512.8 277.577 512.8C278.035 512.8 278.473 512.856 278.893 512.968C279.313 513.071 279.663 513.211 279.943 513.388V514.284C279.271 513.873 278.511 513.668 277.661 513.668C276.42 513.668 275.799 514.069 275.799 514.872C275.799 515.161 275.874 515.39 276.023 515.558C276.173 515.726 276.392 515.871 276.681 515.992C276.971 516.104 277.414 516.244 278.011 516.412C278.609 516.58 279.075 516.767 279.411 516.972C279.757 517.168 280.004 517.406 280.153 517.686C280.303 517.957 280.377 518.302 280.377 518.722C280.377 519.319 280.139 519.8 279.663 520.164C279.197 520.528 278.469 520.71 277.479 520.71ZM290.316 520.71C289.439 520.71 288.762 520.467 288.286 519.982C287.81 519.497 287.572 518.848 287.572 518.036V515.726C287.572 515.017 287.395 514.499 287.04 514.172C286.695 513.836 286.168 513.668 285.458 513.668C284.917 513.668 284.45 513.752 284.058 513.92C283.666 514.088 283.293 514.368 282.938 514.76L283.554 515.726V518.862C283.554 519.133 283.606 519.324 283.708 519.436C283.82 519.539 284.007 519.59 284.268 519.59H285.08V520.5H283.82C283.382 520.5 283.046 520.379 282.812 520.136C282.588 519.893 282.476 519.557 282.476 519.128V515.74L281.776 514.634C282.252 514.027 282.78 513.57 283.358 513.262C283.946 512.954 284.646 512.8 285.458 512.8C286.504 512.8 287.292 513.047 287.824 513.542C288.366 514.037 288.636 514.732 288.636 515.628V517.994C288.636 519.226 289.28 519.842 290.568 519.842C291.53 519.842 292.318 519.366 292.934 518.414V513.01H294.012V520.5H292.976V519.422C292.314 520.281 291.427 520.71 290.316 520.71ZM290.878 511.106C290.878 510.453 291.233 510.126 291.942 510.126H295.036V510.868H292.362C292.175 510.868 292.049 510.901 291.984 510.966C291.909 511.031 291.872 511.153 291.872 511.33V511.806H290.878V511.106ZM91.282 540.5C90.862 540.5 90.54 540.379 90.316 540.136C90.092 539.893 89.98 539.557 89.98 539.128V533.01H91.058V538.89C91.058 539.161 91.114 539.347 91.226 539.45C91.338 539.543 91.5247 539.59 91.786 539.59H92.304V540.5H91.282ZM93.5659 533.01H94.6439L96.1699 538.946L97.9479 533.01H98.8159L100.594 538.946L102.12 533.01H103.198L101.126 540.5H100.216L98.3819 534.382L96.5479 540.5H95.6379L93.5659 533.01ZM95.6765 531.078H98.5885V529.524H99.4565V531.078H100.646V529.524H101.5V531.806H95.6765V531.078ZM100.478 526.242H101.444V528.048H100.478V526.242ZM107.364 540.71C106.813 540.71 106.281 540.64 105.768 540.5C105.255 540.36 104.816 540.159 104.452 539.898V536.37H107.308V537.238H105.53V539.394C105.987 539.693 106.599 539.842 107.364 539.842C108.316 539.842 109.058 539.562 109.59 539.002C110.122 538.442 110.388 537.649 110.388 536.622C110.388 535.586 110.136 534.835 109.632 534.368C109.137 533.901 108.316 533.668 107.168 533.668C106.664 533.668 106.174 533.724 105.698 533.836C105.231 533.939 104.835 534.107 104.508 534.34V533.444C105.217 533.015 106.146 532.8 107.294 532.8C108.657 532.8 109.693 533.127 110.402 533.78C111.111 534.424 111.466 535.371 111.466 536.622C111.466 537.443 111.303 538.162 110.976 538.778C110.649 539.394 110.178 539.87 109.562 540.206C108.946 540.542 108.213 540.71 107.364 540.71ZM114.442 540.5C114.022 540.5 113.7 540.379 113.476 540.136C113.252 539.893 113.14 539.557 113.14 539.128V533.01H114.218V538.89C114.218 539.161 114.274 539.347 114.386 539.45C114.498 539.543 114.685 539.59 114.946 539.59H115.464V540.5H114.442ZM120.128 540.71C119.503 540.71 118.947 540.593 118.462 540.36C117.977 540.127 117.599 539.8 117.328 539.38C117.067 538.96 116.936 538.47 116.936 537.91V537.308C116.936 537.009 117.001 536.729 117.132 536.468C117.272 536.207 117.468 535.899 117.72 535.544C117.907 535.292 118.047 535.087 118.14 534.928C118.233 534.76 118.28 534.597 118.28 534.438C118.28 534.223 118.233 534.079 118.14 534.004C118.047 533.92 117.879 533.878 117.636 533.878H116.866V533.01H118.084C118.476 533.01 118.784 533.127 119.008 533.36C119.241 533.593 119.358 533.906 119.358 534.298C119.358 534.55 119.302 534.788 119.19 535.012C119.078 535.227 118.905 535.497 118.672 535.824C118.448 536.123 118.28 536.379 118.168 536.594C118.065 536.799 118.014 537.019 118.014 537.252V537.952C118.014 538.549 118.201 539.016 118.574 539.352C118.947 539.679 119.465 539.842 120.128 539.842C120.819 539.842 121.369 539.655 121.78 539.282C122.191 538.909 122.396 538.349 122.396 537.602C122.396 536.893 122.242 536.351 121.934 535.978C121.626 535.605 121.178 535.418 120.59 535.418V534.802L122.144 532.8H123.334L121.71 534.886C122.886 535.241 123.474 536.146 123.474 537.602C123.474 538.582 123.166 539.347 122.55 539.898C121.934 540.439 121.127 540.71 120.128 540.71ZM117.51 531.078H120.422V529.524H121.29V531.078H122.48V529.524H123.334V531.806H117.51V531.078ZM122.312 526.242H123.278V528.048H122.312V526.242ZM127.926 540.71C127.376 540.71 126.844 540.64 126.33 540.5C125.817 540.36 125.378 540.159 125.014 539.898V536.37H127.87V537.238H126.092V539.394C126.55 539.693 127.161 539.842 127.926 539.842C128.878 539.842 129.62 539.562 130.152 539.002C130.684 538.442 130.95 537.649 130.95 536.622C130.95 535.586 130.698 534.835 130.194 534.368C129.7 533.901 128.878 533.668 127.73 533.668C127.226 533.668 126.736 533.724 126.26 533.836C125.794 533.939 125.397 534.107 125.07 534.34V533.444C125.78 533.015 126.708 532.8 127.856 532.8C129.219 532.8 130.255 533.127 130.964 533.78C131.674 534.424 132.028 535.371 132.028 536.622C132.028 537.443 131.865 538.162 131.538 538.778C131.212 539.394 130.74 539.87 130.124 540.206C129.508 540.542 128.776 540.71 127.926 540.71ZM137.553 540.71C136.414 540.71 135.481 540.271 134.753 539.394V540.5H133.703V533.01H134.781V538.414C135.397 539.366 136.237 539.842 137.301 539.842C137.982 539.842 138.495 539.688 138.841 539.38C139.186 539.063 139.359 538.601 139.359 537.994V533.01H140.437V538.036C140.437 538.848 140.185 539.497 139.681 539.982C139.177 540.467 138.467 540.71 137.553 540.71ZM145.646 540.71C144.946 540.71 144.33 540.565 143.798 540.276C143.266 539.977 142.851 539.543 142.552 538.974C142.263 538.405 142.118 537.709 142.118 536.888C142.118 536.048 142.225 535.32 142.44 534.704C142.664 534.088 142.972 533.617 143.364 533.29C143.756 532.963 144.204 532.8 144.708 532.8C145.427 532.8 145.921 533.103 146.192 533.71C146.341 533.411 146.57 533.187 146.878 533.038C147.186 532.879 147.531 532.8 147.914 532.8C148.53 532.8 148.987 533.001 149.286 533.402C149.594 533.794 149.748 534.321 149.748 534.984V540.5H148.67V535.054C148.67 534.587 148.591 534.242 148.432 534.018C148.283 533.785 148.031 533.668 147.676 533.668C147.069 533.668 146.691 533.981 146.542 534.606H145.842C145.777 534.279 145.669 534.041 145.52 533.892C145.371 533.743 145.151 533.668 144.862 533.668C144.377 533.668 143.975 533.948 143.658 534.508C143.35 535.068 143.196 535.861 143.196 536.888C143.196 537.849 143.429 538.582 143.896 539.086C144.363 539.59 144.997 539.842 145.8 539.842C146.145 539.842 146.477 539.8 146.794 539.716V540.57C146.486 540.663 146.103 540.71 145.646 540.71ZM148.685 529.552H149.735V531.806H148.685V529.552ZM154.341 540.71C153.79 540.71 153.258 540.64 152.745 540.5C152.231 540.36 151.793 540.159 151.429 539.898V536.37H154.285V537.238H152.507V539.394C152.964 539.693 153.575 539.842 154.341 539.842C155.293 539.842 156.035 539.562 156.567 539.002C157.099 538.442 157.365 537.649 157.365 536.622C157.365 535.586 157.113 534.835 156.609 534.368C156.114 533.901 155.293 533.668 154.145 533.668C153.641 533.668 153.151 533.724 152.675 533.836C152.208 533.939 151.811 534.107 151.485 534.34V533.444C152.194 533.015 153.123 532.8 154.271 532.8C155.633 532.8 156.669 533.127 157.379 533.78C158.088 534.424 158.443 535.371 158.443 536.622C158.443 537.443 158.279 538.162 157.953 538.778C157.626 539.394 157.155 539.87 156.539 540.206C155.923 540.542 155.19 540.71 154.341 540.71ZM160.537 535.74L159.837 534.634C160.303 534.037 160.845 533.584 161.461 533.276C162.077 532.959 162.809 532.8 163.659 532.8C164.741 532.8 165.567 533.047 166.137 533.542C166.706 534.037 166.991 534.732 166.991 535.628V540.5H165.913V535.726C165.913 535.026 165.721 534.508 165.339 534.172C164.965 533.836 164.405 533.668 163.659 533.668C163.08 533.668 162.576 533.757 162.147 533.934C161.717 534.102 161.335 534.377 160.999 534.76L161.615 535.726V540.5H160.537V535.74ZM164.553 531.806C164.198 531.806 163.937 531.717 163.769 531.54C163.601 531.363 163.517 531.101 163.517 530.756V530.098H164.511V530.574C164.511 530.742 164.543 530.859 164.609 530.924C164.674 530.98 164.8 531.008 164.987 531.008H168.263V531.806H164.553ZM172.421 540.71C171.721 540.71 171.105 540.584 170.573 540.332C170.05 540.08 169.649 539.725 169.369 539.268C169.089 538.801 168.949 538.269 168.949 537.672V533.01H170.027V537.686C170.027 538.349 170.232 538.876 170.643 539.268C171.063 539.651 171.655 539.842 172.421 539.842C173.186 539.842 173.774 539.651 174.185 539.268C174.605 538.876 174.815 538.349 174.815 537.686V533.01H175.893V537.672C175.893 538.269 175.753 538.801 175.473 539.268C175.193 539.725 174.787 540.08 174.255 540.332C173.732 540.584 173.121 540.71 172.421 540.71ZM179.151 540.5C178.731 540.5 178.409 540.379 178.185 540.136C177.961 539.893 177.849 539.557 177.849 539.128V533.01H178.927V538.89C178.927 539.161 178.983 539.347 179.095 539.45C179.207 539.543 179.394 539.59 179.655 539.59H180.173V540.5H179.151ZM182.595 540.5C182.175 540.5 181.853 540.379 181.629 540.136C181.405 539.893 181.293 539.557 181.293 539.128V533.01H182.371V538.89C182.371 539.161 182.427 539.347 182.539 539.45C182.651 539.543 182.838 539.59 183.099 539.59H183.617V540.5H182.595ZM187.932 540.71C187.382 540.71 186.85 540.64 186.336 540.5C185.823 540.36 185.384 540.159 185.02 539.898V536.37H187.876V537.238H186.098V539.394C186.556 539.693 187.167 539.842 187.932 539.842C188.884 539.842 189.626 539.562 190.158 539.002C190.69 538.442 190.956 537.649 190.956 536.622C190.956 535.586 190.704 534.835 190.2 534.368C189.706 533.901 188.884 533.668 187.736 533.668C187.232 533.668 186.742 533.724 186.266 533.836C185.8 533.939 185.403 534.107 185.076 534.34V533.444C185.786 533.015 186.714 532.8 187.862 532.8C189.225 532.8 190.261 533.127 190.97 533.78C191.68 534.424 192.034 535.371 192.034 536.622C192.034 537.443 191.871 538.162 191.544 538.778C191.218 539.394 190.746 539.87 190.13 540.206C189.514 540.542 188.782 540.71 187.932 540.71ZM197.181 540.71C196.481 540.71 195.865 540.584 195.333 540.332C194.81 540.08 194.409 539.725 194.129 539.268C193.849 538.801 193.709 538.269 193.709 537.672V533.01H194.787V537.686C194.787 538.349 194.992 538.876 195.403 539.268C195.823 539.651 196.415 539.842 197.181 539.842C197.946 539.842 198.534 539.651 198.945 539.268C199.365 538.876 199.575 538.349 199.575 537.686V530.504H200.653V537.672C200.653 538.269 200.513 538.801 200.233 539.268C199.953 539.725 199.547 540.08 199.015 540.332C198.492 540.584 197.881 540.71 197.181 540.71ZM202.189 533.01H203.267L204.793 538.946L206.571 533.01H207.439L209.217 538.946L210.743 533.01H211.821L209.749 540.5H208.839L207.005 534.382L205.171 540.5H204.261L202.189 533.01ZM215.735 540.71C214.914 540.71 214.265 540.509 213.789 540.108C213.313 539.697 213.075 539.109 213.075 538.344C213.075 537.597 213.341 537.009 213.873 536.58C214.405 536.141 215.119 535.922 216.015 535.922C216.986 535.922 217.868 536.109 218.661 536.482V535.67C218.661 534.979 218.474 534.475 218.101 534.158C217.728 533.831 217.121 533.668 216.281 533.668C215.842 533.668 215.413 533.71 214.993 533.794C214.573 533.869 214.209 533.976 213.901 534.116V533.248C214.181 533.117 214.559 533.01 215.035 532.926C215.511 532.842 215.973 532.8 216.421 532.8C217.541 532.8 218.372 533.057 218.913 533.57C219.464 534.074 219.739 534.769 219.739 535.656V540.5H218.661V537.35C217.924 536.977 217.074 536.79 216.113 536.79C215.441 536.79 214.946 536.921 214.629 537.182C214.312 537.434 214.153 537.821 214.153 538.344C214.153 538.857 214.298 539.235 214.587 539.478C214.876 539.721 215.338 539.842 215.973 539.842C216.3 539.842 216.608 539.8 216.897 539.716V540.57C216.57 540.663 216.183 540.71 215.735 540.71ZM213.883 531.008H219.721V531.806H213.883V531.008ZM222.997 540.5C222.577 540.5 222.255 540.379 222.031 540.136C221.807 539.893 221.695 539.557 221.695 539.128V533.01H222.773V538.89C222.773 539.161 222.829 539.347 222.941 539.45C223.053 539.543 223.24 539.59 223.501 539.59H224.019V540.5H222.997ZM225.701 535.768C225.701 534.825 226.004 534.097 226.611 533.584C227.227 533.061 228.067 532.8 229.131 532.8C230.204 532.8 231.044 533.061 231.651 533.584C232.257 534.097 232.561 534.825 232.561 535.768V540.5H231.483V535.726C231.483 535.035 231.273 534.522 230.853 534.186C230.442 533.841 229.868 533.668 229.131 533.668C228.393 533.668 227.815 533.841 227.395 534.186C226.984 534.522 226.779 535.035 226.779 535.726V537.364C226.919 537.121 227.129 536.925 227.409 536.776C227.698 536.617 228.034 536.538 228.417 536.538H229.523V537.406H228.319C228.039 537.406 227.777 537.481 227.535 537.63C227.301 537.779 227.115 537.971 226.975 538.204C226.844 538.428 226.779 538.661 226.779 538.904V540.5H225.701V535.768ZM237.501 540.71C236.876 540.71 236.32 540.593 235.835 540.36C235.35 540.127 234.972 539.8 234.701 539.38C234.44 538.96 234.309 538.47 234.309 537.91V537.308C234.309 537.009 234.374 536.729 234.505 536.468C234.645 536.207 234.841 535.899 235.093 535.544C235.28 535.292 235.42 535.087 235.513 534.928C235.606 534.76 235.653 534.597 235.653 534.438C235.653 534.223 235.606 534.079 235.513 534.004C235.42 533.92 235.252 533.878 235.009 533.878H234.239V533.01H235.457C235.849 533.01 236.157 533.127 236.381 533.36C236.614 533.593 236.731 533.906 236.731 534.298C236.731 534.55 236.675 534.788 236.563 535.012C236.451 535.227 236.278 535.497 236.045 535.824C235.821 536.123 235.653 536.379 235.541 536.594C235.438 536.799 235.387 537.019 235.387 537.252V537.952C235.387 538.549 235.574 539.016 235.947 539.352C236.32 539.679 236.838 539.842 237.501 539.842C238.192 539.842 238.742 539.655 239.153 539.282C239.564 538.909 239.769 538.349 239.769 537.602C239.769 536.893 239.615 536.351 239.307 535.978C238.999 535.605 238.551 535.418 237.963 535.418V534.802L239.517 532.8H240.707L239.083 534.886C240.259 535.241 240.847 536.146 240.847 537.602C240.847 538.582 240.539 539.347 239.923 539.898C239.307 540.439 238.5 540.71 237.501 540.71ZM238.271 531.806C237.917 531.806 237.655 531.717 237.487 531.54C237.319 531.363 237.235 531.101 237.235 530.756V530.098H238.229V530.574C238.229 530.742 238.262 530.859 238.327 530.924C238.393 530.98 238.519 531.008 238.705 531.008H241.982V531.806H238.271ZM245.552 540.71C244.637 540.71 243.928 540.467 243.424 539.982C242.92 539.497 242.668 538.848 242.668 538.036V533.01H243.745V537.994C243.745 538.601 243.918 539.063 244.264 539.38C244.609 539.688 245.122 539.842 245.803 539.842C246.868 539.842 247.708 539.366 248.324 538.414V533.01H249.401V540.5H248.352V539.394C248.006 539.842 247.605 540.173 247.148 540.388C246.69 540.603 246.158 540.71 245.552 540.71ZM254.261 540.71C253.299 540.71 252.539 540.458 251.979 539.954C251.428 539.441 251.153 538.759 251.153 537.91V537.308C251.153 537.009 251.218 536.729 251.349 536.468C251.489 536.207 251.685 535.899 251.937 535.544C252.123 535.292 252.263 535.087 252.357 534.928C252.45 534.76 252.497 534.597 252.497 534.438C252.497 534.223 252.45 534.079 252.357 534.004C252.263 533.92 252.095 533.878 251.853 533.878H251.083V533.01H252.301C252.693 533.01 253.001 533.127 253.225 533.36C253.458 533.593 253.575 533.906 253.575 534.298C253.575 534.55 253.519 534.788 253.407 535.012C253.295 535.227 253.122 535.497 252.889 535.824C252.665 536.123 252.497 536.379 252.385 536.594C252.282 536.799 252.231 537.019 252.231 537.252V537.952C252.231 538.559 252.403 539.025 252.749 539.352C253.094 539.679 253.598 539.842 254.261 539.842C254.933 539.842 255.437 539.679 255.773 539.352C256.109 539.025 256.277 538.554 256.277 537.938V533.01H257.355V537.742C257.355 538.675 257.084 539.403 256.543 539.926C256.001 540.449 255.241 540.71 254.261 540.71ZM261.952 540.71C261.401 540.71 260.869 540.64 260.356 540.5C259.843 540.36 259.404 540.159 259.04 539.898V536.37H261.896V537.238H260.118V539.394C260.575 539.693 261.187 539.842 261.952 539.842C262.904 539.842 263.646 539.562 264.178 539.002C264.71 538.442 264.976 537.649 264.976 536.622C264.976 535.586 264.724 534.835 264.22 534.368C263.725 533.901 262.904 533.668 261.756 533.668C261.252 533.668 260.762 533.724 260.286 533.836C259.819 533.939 259.423 534.107 259.096 534.34V533.444C259.805 533.015 260.734 532.8 261.882 532.8C263.245 532.8 264.281 533.127 264.99 533.78C265.699 534.424 266.054 535.371 266.054 536.622C266.054 537.443 265.891 538.162 265.564 538.778C265.237 539.394 264.766 539.87 264.15 540.206C263.534 540.542 262.801 540.71 261.952 540.71ZM267.448 533.948H268.54L270.458 539.646C271.438 539.646 272.189 539.385 272.712 538.862C273.235 538.33 273.496 537.583 273.496 536.622C273.496 535.661 273.314 534.928 272.95 534.424C272.586 533.92 272.003 533.668 271.2 533.668C270.855 533.668 270.523 533.71 270.206 533.794V532.94C270.514 532.847 270.897 532.8 271.354 532.8C272.399 532.8 273.197 533.141 273.748 533.822C274.299 534.503 274.574 535.437 274.574 536.622C274.574 537.425 274.401 538.12 274.056 538.708C273.72 539.296 273.258 539.744 272.67 540.052C272.091 540.351 271.438 540.5 270.71 540.5H269.646L267.448 533.948ZM276.259 535.768C276.259 534.825 276.563 534.097 277.169 533.584C277.785 533.061 278.625 532.8 279.689 532.8C280.763 532.8 281.603 533.061 282.209 533.584C282.816 534.097 283.119 534.825 283.119 535.768V540.5H282.041V535.726C282.041 535.035 281.831 534.522 281.411 534.186C281.001 533.841 280.427 533.668 279.689 533.668C278.952 533.668 278.373 533.841 277.953 534.186C277.543 534.522 277.337 535.035 277.337 535.726V537.364C277.477 537.121 277.687 536.925 277.967 536.776C278.257 536.617 278.593 536.538 278.975 536.538H280.081V537.406H278.877C278.597 537.406 278.336 537.481 278.093 537.63C277.86 537.779 277.673 537.971 277.533 538.204C277.403 538.428 277.337 538.661 277.337 538.904V540.5H276.259V535.768ZM282.124 542.698C282.124 542.521 282.091 542.404 282.026 542.348C281.96 542.301 281.83 542.278 281.634 542.278H281.2V541.368H282.194C282.558 541.368 282.805 541.447 282.936 541.606C283.057 541.765 283.118 542.045 283.118 542.446V544.098H282.124V542.698ZM293.338 540.71C292.46 540.71 291.784 540.467 291.308 539.982C290.832 539.497 290.594 538.848 290.594 538.036V535.726C290.594 535.017 290.416 534.499 290.062 534.172C289.716 533.836 289.189 533.668 288.48 533.668C287.938 533.668 287.472 533.752 287.08 533.92C286.688 534.088 286.314 534.368 285.96 534.76L286.576 535.726V538.862C286.576 539.133 286.627 539.324 286.73 539.436C286.842 539.539 287.028 539.59 287.29 539.59H288.102V540.5H286.842C286.403 540.5 286.067 540.379 285.834 540.136C285.61 539.893 285.498 539.557 285.498 539.128V535.74L284.798 534.634C285.274 534.027 285.801 533.57 286.38 533.262C286.968 532.954 287.668 532.8 288.48 532.8C289.525 532.8 290.314 533.047 290.846 533.542C291.387 534.037 291.658 534.732 291.658 535.628V537.994C291.658 539.226 292.302 539.842 293.59 539.842C294.551 539.842 295.34 539.366 295.956 538.414V533.01H297.034V540.5H295.998V539.422C295.335 540.281 294.448 540.71 293.338 540.71Z" fill="#4E5256"/>
<path d="M54.786 590.486C54.3287 590.486 53.9787 590.36 53.736 590.108C53.5027 589.847 53.386 589.483 53.386 589.016V583.71C53.386 583.085 53.4747 582.571 53.652 582.17C53.8293 581.769 54.128 581.437 54.548 581.176H52V579.972H56.41V581.12C55.85 581.363 55.444 581.675 55.192 582.058C54.94 582.441 54.814 582.973 54.814 583.654V588.61C54.814 588.862 54.8653 589.039 54.968 589.142C55.0707 589.235 55.248 589.282 55.5 589.282H56.004V590.486H54.786ZM61.6051 590.71C61.0918 590.71 60.6018 590.607 60.1351 590.402C59.6778 590.197 59.2671 589.893 58.9031 589.492V590.5H57.5311V583.01H58.9591V588.302C59.5098 589.161 60.2658 589.59 61.2271 589.59C61.8338 589.59 62.2911 589.45 62.5991 589.17C62.9164 588.881 63.0751 588.456 63.0751 587.896V583.01H64.5031V587.952C64.5031 588.764 64.2464 589.427 63.7331 589.94C63.2198 590.453 62.5104 590.71 61.6051 590.71ZM63.1161 579.566H64.5301V581.904H63.1161V579.566ZM68.7581 590.71C67.9274 590.71 67.2648 590.505 66.7701 590.094C66.2848 589.674 66.0421 589.081 66.0421 588.316C66.0421 587.56 66.3128 586.958 66.8541 586.51C67.4048 586.062 68.1468 585.838 69.0801 585.838C70.0041 585.838 70.8348 586.011 71.5721 586.356V585.782C71.5721 585.138 71.3948 584.671 71.0401 584.382C70.6948 584.083 70.1161 583.934 69.3041 583.934C68.8561 583.934 68.4174 583.976 67.9881 584.06C67.5588 584.144 67.1854 584.261 66.8681 584.41V583.29C67.1574 583.15 67.5494 583.033 68.0441 582.94C68.5481 582.847 69.0381 582.8 69.5141 582.8C70.3541 582.8 71.0541 582.954 71.6141 583.262L72.3281 582.45H73.9101L72.4961 584.032C72.8321 584.508 73.0001 585.082 73.0001 585.754V590.5H71.5721V587.49C70.8908 587.145 70.1114 586.972 69.2341 586.972C68.6274 586.972 68.1794 587.084 67.8901 587.308C67.6101 587.532 67.4701 587.868 67.4701 588.316C67.4701 589.165 68.0161 589.59 69.1081 589.59C69.4441 589.59 69.7381 589.543 69.9901 589.45V590.556C69.6541 590.659 69.2434 590.71 68.7581 590.71ZM77.6631 585.656C77.6631 585.059 77.5418 584.625 77.2991 584.354C77.0564 584.074 76.6271 583.934 76.0111 583.934C75.4138 583.934 74.8538 584.065 74.3311 584.326V583.206C74.5551 583.094 74.8444 583.001 75.1991 582.926C75.5631 582.842 75.9224 582.8 76.2771 582.8C77.2198 582.8 77.9244 583.057 78.3911 583.57C78.8578 584.074 79.0911 584.802 79.0911 585.754V590.5H77.6631V585.656ZM84.984 590.71C84.4707 590.71 83.9807 590.607 83.514 590.402C83.0567 590.197 82.646 589.893 82.282 589.492V590.5H80.91V583.01H82.338V588.302C82.8887 589.161 83.6447 589.59 84.606 589.59C85.2127 589.59 85.67 589.45 85.978 589.17C86.2953 588.881 86.454 588.456 86.454 587.896V583.01H87.882V587.952C87.882 588.764 87.6253 589.427 87.112 589.94C86.5987 590.453 85.8893 590.71 84.984 590.71ZM92.333 585.656C92.333 585.059 92.2117 584.625 91.969 584.354C91.7263 584.074 91.297 583.934 90.681 583.934C90.0837 583.934 89.5237 584.065 89.001 584.326V583.206C89.225 583.094 89.5143 583.001 89.869 582.926C90.233 582.842 90.5923 582.8 90.947 582.8C91.8897 582.8 92.5943 583.057 93.061 583.57C93.5277 584.074 93.761 584.802 93.761 585.754V590.5H92.333V585.656ZM98.1559 590.71C97.6426 590.71 97.1199 590.649 96.5879 590.528C96.0559 590.416 95.6406 590.248 95.3419 590.024V588.876C95.7433 589.119 96.1819 589.305 96.6579 589.436C97.1433 589.557 97.6053 589.618 98.0439 589.618C98.6599 589.618 99.1033 589.548 99.3739 589.408C99.6446 589.259 99.7799 589.007 99.7799 588.652C99.7799 588.409 99.7146 588.213 99.5839 588.064C99.4533 587.915 99.2526 587.784 98.9819 587.672C98.7206 587.56 98.3053 587.42 97.7359 587.252C96.9146 587 96.3033 586.706 95.9019 586.37C95.5006 586.025 95.2999 585.549 95.2999 584.942C95.2999 584.251 95.5659 583.724 96.0979 583.36C96.6299 582.987 97.3579 582.8 98.2819 582.8C98.7579 582.8 99.2153 582.856 99.6539 582.968C100.102 583.071 100.471 583.211 100.76 583.388V584.564C100.443 584.368 100.079 584.214 99.6679 584.102C99.2573 583.99 98.8373 583.934 98.4079 583.934C97.2879 583.934 96.7279 584.27 96.7279 584.942C96.7279 585.194 96.8026 585.395 96.9519 585.544C97.1106 585.693 97.3159 585.819 97.5679 585.922C97.8293 586.015 98.2633 586.151 98.8699 586.328C99.4673 586.505 99.9339 586.697 100.27 586.902C100.606 587.107 100.844 587.35 100.984 587.63C101.124 587.91 101.194 588.255 101.194 588.666C101.194 589.282 100.942 589.777 100.438 590.15C99.9339 590.523 99.1733 590.71 98.1559 590.71ZM104.578 590.5C104.112 590.5 103.757 590.369 103.514 590.108C103.272 589.847 103.15 589.487 103.15 589.03V585.838L102.45 584.704C102.945 584.079 103.51 583.607 104.144 583.29C104.779 582.963 105.53 582.8 106.398 582.8C107.518 582.8 108.377 583.057 108.974 583.57C109.572 584.074 109.87 584.783 109.87 585.698V590.5H108.442V585.81C108.442 585.166 108.27 584.695 107.924 584.396C107.588 584.088 107.08 583.934 106.398 583.934C105.876 583.934 105.423 584.009 105.04 584.158C104.658 584.307 104.303 584.555 103.976 584.9L104.578 585.838V588.61C104.578 588.871 104.63 589.053 104.732 589.156C104.844 589.259 105.026 589.31 105.278 589.31H106.062V590.5H104.578ZM113.085 590.5C112.628 590.5 112.278 590.374 112.035 590.122C111.802 589.861 111.685 589.497 111.685 589.03V583.01H113.113V588.638C113.113 588.89 113.165 589.067 113.267 589.17C113.37 589.263 113.547 589.31 113.799 589.31H114.303V590.5H113.085ZM116.683 590.5C116.235 590.5 115.89 590.369 115.647 590.108C115.405 589.847 115.283 589.487 115.283 589.03V583.01H116.711V588.638C116.711 588.89 116.763 589.067 116.865 589.17C116.977 589.263 117.159 589.31 117.411 589.31H117.915V590.5H116.683ZM121.887 590.71C121.056 590.71 120.394 590.505 119.899 590.094C119.414 589.674 119.171 589.081 119.171 588.316C119.171 587.56 119.442 586.958 119.983 586.51C120.534 586.062 121.276 585.838 122.209 585.838C123.133 585.838 123.964 586.011 124.701 586.356V585.782C124.701 585.138 124.524 584.671 124.169 584.382C123.824 584.083 123.245 583.934 122.433 583.934C121.985 583.934 121.546 583.976 121.117 584.06C120.688 584.144 120.314 584.261 119.997 584.41V583.29C120.286 583.15 120.678 583.033 121.173 582.94C121.677 582.847 122.167 582.8 122.643 582.8C123.483 582.8 124.183 582.954 124.743 583.262L125.457 582.45H127.039L125.625 584.032C125.961 584.508 126.129 585.082 126.129 585.754V590.5H124.701V587.49C124.02 587.145 123.24 586.972 122.363 586.972C121.756 586.972 121.308 587.084 121.019 587.308C120.739 587.532 120.599 587.868 120.599 588.316C120.599 589.165 121.145 589.59 122.237 589.59C122.573 589.59 122.867 589.543 123.119 589.45V590.556C122.783 590.659 122.372 590.71 121.887 590.71ZM128.58 585.838L127.88 584.704C128.375 584.079 128.939 583.607 129.574 583.29C130.209 582.963 130.96 582.8 131.828 582.8C132.948 582.8 133.807 583.057 134.404 583.57C135.001 584.074 135.3 584.783 135.3 585.698V590.5H133.872V585.81C133.872 585.166 133.699 584.695 133.354 584.396C133.018 584.088 132.509 583.934 131.828 583.934C131.315 583.934 130.862 584.013 130.47 584.172C130.078 584.321 129.723 584.564 129.406 584.9L130.008 585.838V590.5H128.58V585.838ZM140.013 590.71C139.098 590.71 138.384 590.453 137.871 589.94C137.367 589.427 137.115 588.764 137.115 587.952V583.01H138.543V587.896C138.543 588.456 138.697 588.881 139.005 589.17C139.322 589.45 139.784 589.59 140.391 589.59C141.352 589.59 142.108 589.161 142.659 588.302V583.01H144.087V590.5H142.701V589.492C142.001 590.304 141.105 590.71 140.013 590.71ZM152.502 587.42C152.502 586.851 152.609 586.375 152.824 585.992C153.038 585.609 153.402 585.241 153.916 584.886C154.289 584.625 154.569 584.419 154.756 584.27C154.942 584.111 155.087 583.939 155.19 583.752C155.302 583.556 155.358 583.327 155.358 583.066C155.358 582.646 155.19 582.315 154.854 582.072C154.518 581.829 154.032 581.708 153.398 581.708C152.464 581.708 151.601 581.895 150.808 582.268V581.036C151.181 580.877 151.587 580.751 152.026 580.658C152.474 580.555 152.931 580.504 153.398 580.504C154.424 580.504 155.241 580.733 155.848 581.19C156.454 581.647 156.758 582.273 156.758 583.066C156.758 583.551 156.632 583.967 156.38 584.312C156.128 584.657 155.731 585.026 155.19 585.418C154.798 585.698 154.518 585.922 154.35 586.09C154.182 586.249 154.06 586.431 153.986 586.636C153.911 586.832 153.874 587.098 153.874 587.434V587.714H152.502V587.42ZM153.174 590.71C152.94 590.71 152.744 590.631 152.586 590.472C152.427 590.313 152.348 590.117 152.348 589.884C152.348 589.651 152.427 589.455 152.586 589.296C152.744 589.137 152.94 589.058 153.174 589.058C153.407 589.058 153.603 589.137 153.762 589.296C153.93 589.455 154.014 589.651 154.014 589.884C154.014 590.117 153.93 590.313 153.762 590.472C153.603 590.631 153.407 590.71 153.174 590.71Z" fill="#4E5256"/>
<path d="M191.36 263.632H183.615V271.377H191.36V263.632Z" fill="black"/>
<path d="M199.105 263.632H191.36V271.377H199.105V263.632Z" fill="black"/>
<path d="M206.851 271.376H199.105V279.122H206.851V271.376Z" fill="black"/>
<path d="M214.596 271.376H206.851V279.122H214.596V271.376Z" fill="black"/>
<path d="M183.615 279.121H175.87V286.866H183.615V279.121Z" fill="black"/>
<path d="M199.105 279.121H191.36V286.866H199.105V279.121Z" fill="black"/>
<path d="M183.615 286.868H175.87V294.613H183.615V286.868Z" fill="black"/>
<path d="M191.36 286.868H183.615V294.613H191.36V286.868Z" fill="black"/>
<path d="M206.851 286.868H199.105V294.613H206.851V286.868Z" fill="black"/>
<path d="M183.615 294.613H175.87V302.358H183.615V294.613Z" fill="black"/>
<path d="M191.36 294.613H183.615V302.358H191.36V294.613Z" fill="black"/>
<path d="M199.105 294.613H191.36V302.358H199.105V294.613Z" fill="black"/>
<path d="M206.851 294.613H199.105V302.358H206.851V294.613Z" fill="black"/>
<path d="M214.596 294.613H206.851V302.358H214.596V294.613Z" fill="black"/>
<path d="M183.615 302.357H175.87V310.102H183.615V302.357Z" fill="black"/>
<path d="M191.36 302.357H183.615V310.102H191.36V302.357Z" fill="black"/>
<path d="M214.596 302.357H206.851V310.102H214.596V302.357Z" fill="black"/>
<path d="M183.615 310.102H175.87V317.847H183.615V310.102Z" fill="black"/>
<path d="M199.105 310.102H191.36V317.847H199.105V310.102Z" fill="black"/>
<path d="M214.596 310.102H206.851V317.847H214.596V310.102Z" fill="black"/>
<path d="M183.615 317.846H175.87V325.591H183.615V317.846Z" fill="black"/>
<path d="M191.36 317.846H183.615V325.591H191.36V317.846Z" fill="black"/>
<path d="M206.851 317.846H199.105V325.591H206.851V317.846Z" fill="black"/>
<path d="M214.596 317.846H206.851V325.591H214.596V317.846Z" fill="black"/>
<path d="M121.655 325.593H113.91V333.338H121.655V325.593Z" fill="black"/>
<path d="M137.145 325.593H129.4V333.338H137.145V325.593Z" fill="black"/>
<path d="M144.891 325.593H137.146V333.338H144.891V325.593Z" fill="black"/>
<path d="M152.636 325.593H144.891V333.338H152.636V325.593Z" fill="black"/>
<path d="M160.381 325.593H152.636V333.338H160.381V325.593Z" fill="black"/>
<path d="M168.126 325.593H160.381V333.338H168.126V325.593Z" fill="black"/>
<path d="M214.596 325.593H206.851V333.338H214.596V325.593Z" fill="black"/>
<path d="M230.086 325.593H222.341V333.338H230.086V325.593Z" fill="black"/>
<path d="M237.831 325.593H230.086V333.338H237.831V325.593Z" fill="black"/>
<path d="M245.576 325.593H237.831V333.338H245.576V325.593Z" fill="black"/>
<path d="M253.32 325.593H245.575V333.338H253.32V325.593Z" fill="black"/>
<path d="M261.066 325.593H253.321V333.338H261.066V325.593Z" fill="black"/>
<path d="M129.4 333.337H121.655V341.082H129.4V333.337Z" fill="black"/>
<path d="M137.145 333.337H129.4V341.082H137.145V333.337Z" fill="black"/>
<path d="M144.891 333.337H137.146V341.082H144.891V333.337Z" fill="black"/>
<path d="M183.615 333.337H175.87V341.082H183.615V333.337Z" fill="black"/>
<path d="M191.36 333.337H183.615V341.082H191.36V333.337Z" fill="black"/>
<path d="M214.596 333.337H206.851V341.082H214.596V333.337Z" fill="black"/>
<path d="M222.341 333.337H214.596V341.082H222.341V333.337Z" fill="black"/>
<path d="M230.086 333.337H222.341V341.082H230.086V333.337Z" fill="black"/>
<path d="M245.576 333.337H237.831V341.082H245.576V333.337Z" fill="black"/>
<path d="M253.32 333.337H245.575V341.082H253.32V333.337Z" fill="black"/>
<path d="M268.811 333.337H261.066V341.082H268.811V333.337Z" fill="black"/>
<path d="M276.557 333.337H268.812V341.082H276.557V333.337Z" fill="black"/>
<path d="M137.145 341.082H129.4V348.827H137.145V341.082Z" fill="black"/>
<path d="M152.636 341.083H144.891V348.828H152.636V341.083Z" fill="black"/>
<path d="M160.381 341.083H152.636V348.828H160.381V341.083Z" fill="black"/>
<path d="M168.126 341.083H160.381V348.828H168.126V341.083Z" fill="black"/>
<path d="M175.87 341.083H168.125V348.828H175.87V341.083Z" fill="black"/>
<path d="M183.615 341.083H175.87V348.828H183.615V341.083Z" fill="black"/>
<path d="M199.105 341.083H191.36V348.828H199.105V341.083Z" fill="black"/>
<path d="M206.851 341.083H199.105V348.828H206.851V341.083Z" fill="black"/>
<path d="M222.341 341.083H214.596V348.828H222.341V341.083Z" fill="black"/>
<path d="M237.831 341.082H230.086V348.827H237.831V341.082Z" fill="black"/>
<path d="M253.32 341.082H245.575V348.827H253.32V341.082Z" fill="black"/>
<path d="M160.381 348.827H152.636V356.572H160.381V348.827Z" fill="black"/>
<path d="M199.105 348.827H191.36V356.572H199.105V348.827Z" fill="black"/>
<path d="M222.341 348.827H214.596V356.572H222.341V348.827Z" fill="black"/>
<path d="M230.086 348.827H222.341V356.572H230.086V348.827Z" fill="black"/>
<path d="M237.831 348.827H230.086V356.572H237.831V348.827Z" fill="black"/>
<path d="M268.811 348.827H261.066V356.572H268.811V348.827Z" fill="black"/>
<path d="M121.655 356.574H113.91V364.319H121.655V356.574Z" fill="black"/>
<path d="M137.145 356.574H129.4V364.319H137.145V356.574Z" fill="black"/>
<path d="M152.636 356.574H144.891V364.319H152.636V356.574Z" fill="black"/>
<path d="M160.381 356.574H152.636V364.319H160.381V356.574Z" fill="black"/>
<path d="M168.126 356.574H160.381V364.319H168.126V356.574Z" fill="black"/>
<path d="M175.87 356.574H168.125V364.319H175.87V356.574Z" fill="black"/>
<path d="M191.36 356.574H183.615V364.319H191.36V356.574Z" fill="black"/>
<path d="M199.105 356.574H191.36V364.319H199.105V356.574Z" fill="black"/>
<path d="M206.851 356.574H199.105V364.319H206.851V356.574Z" fill="black"/>
<path d="M261.066 356.574H253.321V364.319H261.066V356.574Z" fill="black"/>
<path d="M276.557 356.574H268.812V364.319H276.557V356.574Z" fill="black"/>
<path d="M183.615 364.318H175.87V372.063H183.615V364.318Z" fill="black"/>
<path d="M214.596 364.318H206.851V372.063H214.596V364.318Z" fill="black"/>
<path d="M230.086 364.318H222.341V372.063H230.086V364.318Z" fill="black"/>
<path d="M237.831 364.318H230.086V372.063H237.831V364.318Z" fill="black"/>
<path d="M253.32 364.318H245.575V372.063H253.32V364.318Z" fill="black"/>
<path d="M261.066 364.318H253.321V372.063H261.066V364.318Z" fill="black"/>
<path d="M191.36 372.062H183.615V379.808H191.36V372.062Z" fill="black"/>
<path d="M214.596 372.062H206.851V379.808H214.596V372.062Z" fill="black"/>
<path d="M230.086 372.062H222.341V379.808H230.086V372.062Z" fill="black"/>
<path d="M245.576 372.062H237.831V379.808H245.576V372.062Z" fill="black"/>
<path d="M276.557 372.062H268.812V379.808H276.557V372.062Z" fill="black"/>
<path d="M183.615 379.807H175.87V387.552H183.615V379.807Z" fill="black"/>
<path d="M199.105 379.807H191.36V387.552H199.105V379.807Z" fill="black"/>
<path d="M214.596 379.807H206.851V387.552H214.596V379.807Z" fill="black"/>
<path d="M230.086 379.807H222.341V387.552H230.086V379.807Z" fill="black"/>
<path d="M245.576 379.807H237.831V387.552H245.576V379.807Z" fill="black"/>
<path d="M261.066 379.807H253.321V387.552H261.066V379.807Z" fill="black"/>
<path d="M183.615 387.551H175.87V395.296H183.615V387.551Z" fill="black"/>
<path d="M199.105 387.551H191.36V395.296H199.105V387.551Z" fill="black"/>
<path d="M253.32 387.551H245.575V395.296H253.32V387.551Z" fill="black"/>
<path d="M261.066 387.551H253.321V395.296H261.066V387.551Z" fill="black"/>
<path d="M276.557 387.551H268.812V395.296H276.557V387.551Z" fill="black"/>
<path d="M183.615 395.298H175.87V403.043H183.615V395.298Z" fill="black"/>
<path d="M191.36 395.298H183.615V403.043H191.36V395.298Z" fill="black"/>
<path d="M214.596 395.298H206.851V403.043H214.596V395.298Z" fill="black"/>
<path d="M222.341 395.298H214.596V403.043H222.341V395.298Z" fill="black"/>
<path d="M230.086 395.298H222.341V403.043H230.086V395.298Z" fill="black"/>
<path d="M245.576 395.298H237.831V403.043H245.576V395.298Z" fill="black"/>
<path d="M253.32 395.298H245.575V403.043H253.32V395.298Z" fill="black"/>
<path d="M261.066 395.298H253.321V403.043H261.066V395.298Z" fill="black"/>
<path d="M183.615 403.042H175.87V410.788H183.615V403.042Z" fill="black"/>
<path d="M191.36 403.042H183.615V410.788H191.36V403.042Z" fill="black"/>
<path d="M222.341 403.042H214.596V410.788H222.341V403.042Z" fill="black"/>
<path d="M230.086 403.042H222.341V410.788H230.086V403.042Z" fill="black"/>
<path d="M245.576 403.042H237.831V410.788H245.576V403.042Z" fill="black"/>
<path d="M199.105 410.788H191.36V418.533H199.105V410.788Z" fill="black"/>
<path d="M206.851 410.788H199.105V418.533H206.851V410.788Z" fill="black"/>
<path d="M222.341 410.788H214.596V418.533H222.341V410.788Z" fill="black"/>
<path d="M230.086 410.788H222.341V418.533H230.086V410.788Z" fill="black"/>
<path d="M245.576 410.788H237.831V418.533H245.576V410.788Z" fill="black"/>
<path d="M253.32 410.788H245.575V418.533H253.32V410.788Z" fill="black"/>
<path d="M261.066 410.788H253.321V418.533H261.066V410.788Z" fill="black"/>
<path d="M276.557 410.788H268.812V418.533H276.557V410.788Z" fill="black"/>
<path d="M183.615 418.532H175.87V426.277H183.615V418.532Z" fill="black"/>
<path d="M199.105 418.532H191.36V426.277H199.105V418.532Z" fill="black"/>
<path d="M214.596 418.532H206.851V426.277H214.596V418.532Z" fill="black"/>
<path d="M230.086 418.532H222.341V426.277H230.086V418.532Z" fill="black"/>
<path d="M245.576 418.532H237.831V426.277H245.576V418.532Z" fill="black"/>
<path d="M261.066 418.532H253.321V426.277H261.066V418.532Z" fill="black"/>
<path d="M159.993 263.632H122.042H113.91V271.764V309.715V317.847H122.042H159.993H168.125V309.715V271.764V263.632H159.993ZM159.993 309.715H122.042V271.764H159.993V309.715Z" fill="black"/>
<path d="M268.424 263.632H230.473H222.341V271.764V309.715V317.847H230.473H268.424H276.556V309.715V271.764V263.632H268.424ZM268.424 309.715H230.473V271.764H268.424V309.715Z" fill="black"/>
<path d="M159.993 372.062H122.042H113.91V380.195V418.145V426.278H122.042H159.993H168.125V418.145V380.195V372.062H159.993ZM159.993 418.145H122.042V380.195H159.993V418.145Z" fill="black"/>
<path d="M152.636 279.121H129.4V302.356H152.636V279.121Z" fill="black"/>
<path d="M261.066 279.121H237.831V302.356H261.066V279.121Z" fill="black"/>
<path d="M152.636 387.551H129.4V410.786H152.636V387.551Z" fill="black"/>
<path d="M162.155 585.936L161.455 584.774C161.968 584.13 162.556 583.64 163.219 583.304C163.891 582.968 164.665 582.8 165.543 582.8C166.709 582.8 167.601 583.061 168.217 583.584C168.842 584.107 169.155 584.83 169.155 585.754V590.5H167.377V585.894C167.377 585.315 167.223 584.886 166.915 584.606C166.607 584.326 166.149 584.186 165.543 584.186C165.085 584.186 164.679 584.251 164.325 584.382C163.979 584.513 163.657 584.727 163.359 585.026L163.933 585.95V590.5H162.155V585.936ZM173.514 590.71C172.982 590.71 172.441 590.654 171.89 590.542C171.349 590.43 170.924 590.262 170.616 590.038V588.652C171.027 588.895 171.479 589.077 171.974 589.198C172.478 589.319 172.94 589.38 173.36 589.38C173.92 589.38 174.321 589.324 174.564 589.212C174.816 589.1 174.942 588.89 174.942 588.582C174.942 588.367 174.877 588.199 174.746 588.078C174.615 587.947 174.438 587.84 174.214 587.756C173.99 587.672 173.57 587.537 172.954 587.35C172.151 587.098 171.549 586.795 171.148 586.44C170.756 586.085 170.56 585.605 170.56 584.998C170.56 584.298 170.84 583.757 171.4 583.374C171.96 582.991 172.716 582.8 173.668 582.8C174.172 582.8 174.653 582.856 175.11 582.968C175.577 583.071 175.959 583.211 176.258 583.388V584.844C175.95 584.648 175.577 584.489 175.138 584.368C174.709 584.247 174.275 584.186 173.836 584.186C172.837 584.186 172.338 584.457 172.338 584.998C172.338 585.194 172.399 585.353 172.52 585.474C172.641 585.595 172.805 585.698 173.01 585.782C173.215 585.857 173.528 585.959 173.948 586.09L174.41 586.23C175.007 586.417 175.469 586.617 175.796 586.832C176.132 587.047 176.365 587.294 176.496 587.574C176.636 587.854 176.706 588.199 176.706 588.61C176.706 589.235 176.44 589.744 175.908 590.136C175.376 590.519 174.578 590.71 173.514 590.71ZM181.026 590.71C180.428 590.71 179.84 590.645 179.262 590.514C178.683 590.383 178.202 590.201 177.82 589.968V586.048H181.18V587.49H179.598V589.044C179.943 589.231 180.419 589.324 181.026 589.324C181.847 589.324 182.468 589.1 182.888 588.652C183.308 588.204 183.518 587.551 183.518 586.692C183.518 586.104 183.424 585.628 183.238 585.264C183.051 584.9 182.743 584.629 182.314 584.452C181.884 584.275 181.306 584.186 180.578 584.186C180.102 584.186 179.616 584.237 179.122 584.34C178.636 584.433 178.23 584.573 177.904 584.76V583.374C178.277 583.187 178.72 583.047 179.234 582.954C179.756 582.851 180.307 582.8 180.886 582.8C182.304 582.8 183.401 583.141 184.176 583.822C184.95 584.494 185.338 585.451 185.338 586.692C185.338 587.933 184.964 588.913 184.218 589.632C183.48 590.351 182.416 590.71 181.026 590.71ZM187.16 585.936L186.46 584.774C186.974 584.13 187.562 583.64 188.224 583.304C188.896 582.968 189.671 582.8 190.548 582.8C191.715 582.8 192.606 583.061 193.222 583.584C193.848 584.107 194.16 584.83 194.16 585.754V590.5H192.382V585.894C192.382 585.315 192.228 584.886 191.92 584.606C191.612 584.326 191.155 584.186 190.548 584.186C190.091 584.186 189.685 584.251 189.33 584.382C188.985 584.513 188.663 584.727 188.364 585.026L188.938 585.95V590.5H187.16V585.936ZM198.52 590.71C197.988 590.71 197.447 590.654 196.896 590.542C196.355 590.43 195.93 590.262 195.622 590.038V588.652C196.033 588.895 196.485 589.077 196.98 589.198C197.484 589.319 197.946 589.38 198.366 589.38C198.926 589.38 199.327 589.324 199.57 589.212C199.822 589.1 199.948 588.89 199.948 588.582C199.948 588.367 199.883 588.199 199.752 588.078C199.621 587.947 199.444 587.84 199.22 587.756C198.996 587.672 198.576 587.537 197.96 587.35C197.157 587.098 196.555 586.795 196.154 586.44C195.762 586.085 195.566 585.605 195.566 584.998C195.566 584.298 195.846 583.757 196.406 583.374C196.966 582.991 197.722 582.8 198.674 582.8C199.178 582.8 199.659 582.856 200.116 582.968C200.583 583.071 200.965 583.211 201.264 583.388V584.844C200.956 584.648 200.583 584.489 200.144 584.368C199.715 584.247 199.281 584.186 198.842 584.186C197.843 584.186 197.344 584.457 197.344 584.998C197.344 585.194 197.405 585.353 197.526 585.474C197.647 585.595 197.811 585.698 198.016 585.782C198.221 585.857 198.534 585.959 198.954 586.09L199.416 586.23C200.013 586.417 200.475 586.617 200.802 586.832C201.138 587.047 201.371 587.294 201.502 587.574C201.642 587.854 201.712 588.199 201.712 588.61C201.712 589.235 201.446 589.744 200.914 590.136C200.382 590.519 199.584 590.71 198.52 590.71ZM203.106 583.01H204.884V586.006L208.118 583.01H210.162L208.118 584.9C208.874 585.096 209.401 585.413 209.7 585.852C209.998 586.291 210.148 586.874 210.148 587.602V590.5H208.37V587.728C208.37 587.196 208.272 586.795 208.076 586.524C207.889 586.253 207.544 586.062 207.04 585.95L204.884 587.952V590.5H203.106V583.01ZM207.334 581.988C206.895 581.988 206.578 581.876 206.382 581.652C206.177 581.428 206.074 581.092 206.074 580.644V579.832H207.67V580.476C207.67 580.625 207.698 580.728 207.754 580.784C207.81 580.831 207.913 580.854 208.062 580.854H211.394V581.988H207.334ZM214.334 590.71C213.503 590.71 212.831 590.5 212.318 590.08C211.814 589.66 211.562 589.067 211.562 588.302C211.562 587.798 211.688 587.355 211.94 586.972C212.201 586.589 212.565 586.291 213.032 586.076C213.508 585.861 214.063 585.754 214.698 585.754C215.603 585.754 216.387 585.908 217.05 586.216V585.88C217.05 585.301 216.877 584.877 216.532 584.606C216.196 584.326 215.65 584.186 214.894 584.186C214.437 584.186 213.984 584.233 213.536 584.326C213.097 584.419 212.715 584.545 212.388 584.704V583.318C212.687 583.178 213.097 583.057 213.62 582.954C214.152 582.851 214.67 582.8 215.174 582.8C215.93 582.8 216.583 582.917 217.134 583.15L217.75 582.45H219.71L218.268 584.102C218.632 584.513 218.814 585.091 218.814 585.838V590.5H217.05V587.616C216.425 587.299 215.711 587.14 214.908 587.14C214.385 587.14 213.993 587.243 213.732 587.448C213.48 587.644 213.354 587.933 213.354 588.316C213.354 588.661 213.471 588.918 213.704 589.086C213.937 589.245 214.306 589.324 214.81 589.324C215.127 589.324 215.403 589.277 215.636 589.184V590.542C215.291 590.654 214.857 590.71 214.334 590.71ZM223.75 590.71C223.153 590.71 222.565 590.645 221.986 590.514C221.408 590.383 220.927 590.201 220.544 589.968V586.048H223.904V587.49H222.322V589.044C222.668 589.231 223.144 589.324 223.75 589.324C224.572 589.324 225.192 589.1 225.612 588.652C226.032 588.204 226.242 587.551 226.242 586.692C226.242 586.104 226.149 585.628 225.962 585.264C225.776 584.9 225.468 584.629 225.038 584.452C224.609 584.275 224.03 584.186 223.302 584.186C222.826 584.186 222.341 584.237 221.846 584.34C221.361 584.433 220.955 584.573 220.628 584.76V583.374C221.002 583.187 221.445 583.047 221.958 582.954C222.481 582.851 223.032 582.8 223.61 582.8C225.029 582.8 226.126 583.141 226.9 583.822C227.675 584.494 228.062 585.451 228.062 586.692C228.062 587.933 227.689 588.913 226.942 589.632C226.205 590.351 225.141 590.71 223.75 590.71ZM226.231 592.81C226.231 592.642 226.203 592.525 226.147 592.46C226.091 592.395 225.979 592.362 225.811 592.362H225.321V591.228H226.623C227.09 591.228 227.407 591.312 227.575 591.48C227.743 591.657 227.827 591.975 227.827 592.432V594.252H226.231V592.81ZM233.189 590.71C232.442 590.71 231.784 590.575 231.215 590.304C230.655 590.033 230.221 589.66 229.913 589.184C229.614 588.699 229.465 588.148 229.465 587.532V583.01H231.243V587.462C231.243 588.05 231.406 588.507 231.733 588.834C232.06 589.161 232.545 589.324 233.189 589.324C233.824 589.324 234.304 589.161 234.631 588.834C234.958 588.507 235.121 588.05 235.121 587.462V580.504H236.899V587.532C236.899 588.148 236.745 588.699 236.437 589.184C236.138 589.66 235.709 590.033 235.149 590.304C234.589 590.575 233.936 590.71 233.189 590.71ZM239.004 585.936L238.304 584.774C238.817 584.13 239.405 583.64 240.068 583.304C240.74 582.968 241.515 582.8 242.392 582.8C243.559 582.8 244.45 583.061 245.066 583.584C245.691 584.107 246.004 584.83 246.004 585.754V590.5H244.226V585.894C244.226 585.315 244.072 584.886 243.764 584.606C243.456 584.326 242.999 584.186 242.392 584.186C241.935 584.186 241.529 584.251 241.174 584.382C240.829 584.513 240.507 584.727 240.208 585.026L240.782 585.95V590.5H239.004V585.936ZM250.364 590.71C249.832 590.71 249.29 590.654 248.74 590.542C248.198 590.43 247.774 590.262 247.466 590.038V588.652C247.876 588.895 248.329 589.077 248.824 589.198C249.328 589.319 249.79 589.38 250.21 589.38C250.77 589.38 251.171 589.324 251.414 589.212C251.666 589.1 251.792 588.89 251.792 588.582C251.792 588.367 251.726 588.199 251.596 588.078C251.465 587.947 251.288 587.84 251.064 587.756C250.84 587.672 250.42 587.537 249.804 587.35C249.001 587.098 248.399 586.795 247.998 586.44C247.606 586.085 247.41 585.605 247.41 584.998C247.41 584.298 247.69 583.757 248.25 583.374C248.81 582.991 249.566 582.8 250.518 582.8C251.022 582.8 251.502 582.856 251.96 582.968C252.426 583.071 252.809 583.211 253.108 583.388V584.844C252.8 584.648 252.426 584.489 251.988 584.368C251.558 584.247 251.124 584.186 250.686 584.186C249.687 584.186 249.188 584.457 249.188 584.998C249.188 585.194 249.248 585.353 249.37 585.474C249.491 585.595 249.654 585.698 249.86 585.782C250.065 585.857 250.378 585.959 250.798 586.09L251.26 586.23C251.857 586.417 252.319 586.617 252.646 586.832C252.982 587.047 253.215 587.294 253.346 587.574C253.486 587.854 253.556 588.199 253.556 588.61C253.556 589.235 253.29 589.744 252.758 590.136C252.226 590.519 251.428 590.71 250.364 590.71ZM263.083 590.71C262.495 590.71 261.991 590.589 261.571 590.346C261.161 590.094 260.848 589.753 260.633 589.324C260.419 588.885 260.311 588.4 260.311 587.868V585.894C260.311 585.306 260.171 584.877 259.891 584.606C259.611 584.326 259.187 584.186 258.617 584.186C258.188 584.186 257.81 584.251 257.483 584.382C257.157 584.513 256.853 584.727 256.573 585.026L257.147 585.95V588.358C257.147 588.601 257.199 588.773 257.301 588.876C257.413 588.969 257.595 589.016 257.847 589.016H258.603V590.5H256.895C256.401 590.5 256.023 590.36 255.761 590.08C255.5 589.8 255.369 589.417 255.369 588.932V585.936L254.669 584.774C255.183 584.13 255.757 583.64 256.391 583.304C257.035 582.968 257.777 582.8 258.617 582.8C259.747 582.8 260.605 583.061 261.193 583.584C261.781 584.097 262.075 584.821 262.075 585.754V587.784C262.075 588.307 262.197 588.694 262.439 588.946C262.682 589.198 263.065 589.324 263.587 589.324C263.998 589.324 264.371 589.226 264.707 589.03C265.053 588.825 265.309 588.54 265.477 588.176V583.01H267.241V590.5H265.533V589.618C264.945 590.346 264.129 590.71 263.083 590.71ZM263.7 581.092C263.7 580.7 263.803 580.406 264.008 580.21C264.213 580.005 264.545 579.902 265.002 579.902H268.096V581.036H265.716C265.557 581.036 265.45 581.069 265.394 581.134C265.329 581.199 265.296 581.311 265.296 581.47V581.988H263.7V581.092ZM272.324 590.71C271.185 590.71 270.285 590.393 269.622 589.758C268.969 589.114 268.642 588.176 268.642 586.944C268.642 586.085 268.81 585.348 269.146 584.732C269.491 584.107 269.981 583.631 270.616 583.304C271.26 582.968 272.016 582.8 272.884 582.8C274.256 582.8 275.259 583.117 275.894 583.752C276.529 584.387 276.846 585.213 276.846 586.23V590.5H275.068V586.216C275.068 585.563 274.895 585.063 274.55 584.718C274.214 584.363 273.659 584.186 272.884 584.186C272.137 584.186 271.545 584.429 271.106 584.914C270.677 585.39 270.462 586.067 270.462 586.944C270.462 587.747 270.649 588.344 271.022 588.736C271.395 589.128 271.932 589.324 272.632 589.324C272.977 589.324 273.299 589.277 273.598 589.184V590.542C273.234 590.654 272.809 590.71 272.324 590.71ZM273.648 581.106C273.648 581.003 273.629 580.929 273.592 580.882C273.545 580.835 273.466 580.812 273.354 580.812H272.71V579.58H273.9C274.217 579.58 274.45 579.659 274.6 579.818C274.749 579.967 274.824 580.154 274.824 580.378V580.826H277.694V581.988H273.648V581.106ZM281.026 590.71C279.803 590.71 278.874 590.509 278.24 590.108V588.708C278.818 589.119 279.626 589.324 280.662 589.324C281.511 589.324 282.169 589.114 282.636 588.694C283.102 588.265 283.336 587.621 283.336 586.762C283.336 585.903 283.102 585.259 282.636 584.83C282.169 584.401 281.511 584.186 280.662 584.186C279.682 584.186 278.888 584.391 278.282 584.802V583.402C278.926 583.001 279.84 582.8 281.026 582.8C282.314 582.8 283.322 583.15 284.05 583.85C284.787 584.541 285.156 585.511 285.156 586.762C285.156 588.003 284.787 588.974 284.05 589.674C283.312 590.365 282.304 590.71 281.026 590.71ZM289.961 590.71C288.85 590.71 287.959 590.495 287.287 590.066C286.615 589.637 286.279 589.03 286.279 588.246C286.279 587.863 286.391 587.518 286.615 587.21C286.839 586.902 287.128 586.687 287.483 586.566C287.147 586.407 286.871 586.179 286.657 585.88C286.451 585.581 286.349 585.245 286.349 584.872C286.349 584.247 286.563 583.747 286.993 583.374C287.422 582.991 288.057 582.8 288.897 582.8C289.158 582.8 289.41 582.819 289.653 582.856C289.895 582.884 290.087 582.921 290.227 582.968V584.354C290.105 584.298 289.947 584.256 289.751 584.228C289.564 584.2 289.396 584.186 289.247 584.186C288.528 584.186 288.169 584.452 288.169 584.984C288.169 585.273 288.257 585.488 288.435 585.628C288.612 585.768 288.897 585.838 289.289 585.838H290.227V587.28H289.289C288.495 587.28 288.099 587.602 288.099 588.246C288.099 588.582 288.262 588.848 288.589 589.044C288.925 589.231 289.382 589.324 289.961 589.324C290.689 589.324 291.221 589.175 291.557 588.876C291.902 588.577 292.075 588.139 292.075 587.56V582.996H293.853V587.532C293.853 588.064 293.722 588.573 293.461 589.058C293.209 589.534 292.789 589.931 292.201 590.248C291.622 590.556 290.875 590.71 289.961 590.71ZM298.93 590.71C297.8 590.71 296.904 590.393 296.242 589.758C295.579 589.114 295.248 588.176 295.248 586.944C295.248 586.104 295.369 585.371 295.611 584.746C295.854 584.121 296.19 583.64 296.62 583.304C297.049 582.968 297.53 582.8 298.062 582.8C298.752 582.8 299.256 583.066 299.574 583.598C299.751 583.318 300.003 583.117 300.33 582.996C300.656 582.865 301.016 582.8 301.408 582.8C302.08 582.8 302.588 583.015 302.934 583.444C303.279 583.864 303.452 584.429 303.452 585.138V590.5H301.674V585.264C301.674 584.891 301.618 584.62 301.506 584.452C301.394 584.275 301.202 584.186 300.932 584.186C300.465 584.186 300.18 584.457 300.078 584.998H299.084C299.028 584.457 298.785 584.186 298.356 584.186C297.973 584.186 297.66 584.424 297.418 584.9C297.184 585.367 297.068 586.048 297.068 586.944C297.068 588.531 297.791 589.324 299.238 589.324C299.583 589.324 299.905 589.277 300.204 589.184V590.542C299.84 590.654 299.415 590.71 298.93 590.71ZM308.037 590.71C307.43 590.71 306.908 590.589 306.469 590.346C306.03 590.094 305.694 589.753 305.461 589.324C305.237 588.885 305.125 588.4 305.125 587.868V583.01H306.903V587.784C306.903 588.811 307.449 589.324 308.541 589.324C309.4 589.324 310.072 588.941 310.557 588.176V583.01H312.335V590.5H310.627V589.576C310.272 589.949 309.866 590.234 309.409 590.43C308.961 590.617 308.504 590.71 308.037 590.71ZM315.51 590.5C315.025 590.5 314.651 590.365 314.39 590.094C314.138 589.814 314.012 589.427 314.012 588.932V583.01H315.79V588.372C315.79 588.615 315.841 588.783 315.944 588.876C316.047 588.969 316.215 589.016 316.448 589.016H316.938V590.5H315.51ZM321.258 590.71C320.661 590.71 320.073 590.645 319.494 590.514C318.916 590.383 318.435 590.201 318.052 589.968V586.048H321.412V587.49H319.83V589.044C320.176 589.231 320.652 589.324 321.258 589.324C322.08 589.324 322.7 589.1 323.12 588.652C323.54 588.204 323.75 587.551 323.75 586.692C323.75 586.104 323.657 585.628 323.47 585.264C323.284 584.9 322.976 584.629 322.546 584.452C322.117 584.275 321.538 584.186 320.81 584.186C320.334 584.186 319.849 584.237 319.354 584.34C318.869 584.433 318.463 584.573 318.136 584.76V583.374C318.51 583.187 318.953 583.047 319.466 582.954C319.989 582.851 320.54 582.8 321.118 582.8C322.537 582.8 323.634 583.141 324.408 583.822C325.183 584.494 325.57 585.451 325.57 586.692C325.57 587.933 325.197 588.913 324.45 589.632C323.713 590.351 322.649 590.71 321.258 590.71ZM326.693 583.948H328.471L330.109 589.114C330.893 589.114 331.495 588.895 331.915 588.456C332.344 588.008 332.559 587.373 332.559 586.552C332.559 585.759 332.414 585.166 332.125 584.774C331.835 584.382 331.373 584.186 330.739 584.186C330.393 584.186 330.071 584.233 329.773 584.326V582.968C330.137 582.856 330.561 582.8 331.047 582.8C332.139 582.8 332.965 583.131 333.525 583.794C334.094 584.457 334.379 585.376 334.379 586.552C334.379 587.373 334.197 588.083 333.833 588.68C333.478 589.277 332.997 589.73 332.391 590.038C331.784 590.346 331.112 590.5 330.375 590.5H328.765L326.693 583.948Z" fill="#EB6A6A"/>
<path d="M160.895 591.9H334.939V592.6H160.895V591.9Z" fill="#EB6A6A"/>
</svg>
