<svg width="390" height="849" viewBox="0 0 390 849" fill="none" xmlns="http://www.w3.org/2000/svg">
<rect y="5" width="390" height="844" rx="32" fill="white"/>
<path fill-rule="evenodd" clip-rule="evenodd" d="M121 838.5C121 837.119 122.119 836 123.5 836H266.5C267.881 836 269 837.119 269 838.5C269 839.881 267.881 841 266.5 841H123.5C122.119 841 121 839.881 121 838.5Z" fill="#090A0A"/>
<path d="M54.0688 36V26.1304H53.9194L50.9395 28.2305V26.2217L54.0688 24.022H56.2021V36H54.0688ZM63.4219 36.2988C62.4701 36.2988 61.6538 36.0443 60.9731 35.5352C60.298 35.026 59.7778 34.3011 59.4126 33.3604C59.0474 32.4196 58.8647 31.3045 58.8647 30.0151V29.9985C58.8647 28.7091 59.0474 27.5968 59.4126 26.6616C59.7778 25.7209 60.298 24.9959 60.9731 24.4868C61.6538 23.9777 62.4701 23.7231 63.4219 23.7231C64.3737 23.7231 65.1899 23.9777 65.8706 24.4868C66.5513 24.9959 67.0742 25.7209 67.4395 26.6616C67.8047 27.5968 67.9873 28.7091 67.9873 29.9985V30.0151C67.9873 31.3045 67.8047 32.4196 67.4395 33.3604C67.0742 34.3011 66.5513 35.026 65.8706 35.5352C65.1899 36.0443 64.3737 36.2988 63.4219 36.2988ZM63.4219 34.564C63.931 34.564 64.3654 34.3813 64.7251 34.0161C65.0848 33.6509 65.3587 33.1307 65.5469 32.4556C65.7406 31.7749 65.8374 30.9614 65.8374 30.0151V29.9985C65.8374 29.0522 65.7406 28.2415 65.5469 27.5664C65.3587 26.8857 65.0848 26.3656 64.7251 26.0059C64.3654 25.6406 63.931 25.458 63.4219 25.458C62.9128 25.458 62.4784 25.6406 62.1187 26.0059C61.7645 26.3656 61.4906 26.8857 61.2969 27.5664C61.1087 28.2415 61.0146 29.0522 61.0146 29.9985V30.0151C61.0146 30.9614 61.1087 31.7749 61.2969 32.4556C61.4906 33.1307 61.7645 33.6509 62.1187 34.0161C62.4784 34.3813 62.9128 34.564 63.4219 34.564ZM71.2974 34.3896C70.9211 34.3896 70.6056 34.2651 70.3511 34.0161C70.1021 33.7616 69.9775 33.4517 69.9775 33.0864C69.9775 32.7157 70.1021 32.4058 70.3511 32.1567C70.6056 31.9022 70.9211 31.7749 71.2974 31.7749C71.6792 31.7749 71.9946 31.9022 72.2437 32.1567C72.4927 32.4058 72.6172 32.7157 72.6172 33.0864C72.6172 33.4517 72.4927 33.7616 72.2437 34.0161C71.9946 34.2651 71.6792 34.3896 71.2974 34.3896ZM71.2974 28.2305C70.9211 28.2305 70.6056 28.106 70.3511 27.8569C70.1021 27.6024 69.9775 27.2925 69.9775 26.9272C69.9775 26.5565 70.1021 26.2466 70.3511 25.9976C70.6056 25.743 70.9211 25.6157 71.2974 25.6157C71.6792 25.6157 71.9946 25.743 72.2437 25.9976C72.4927 26.2466 72.6172 26.5565 72.6172 26.9272C72.6172 27.2925 72.4927 27.6024 72.2437 27.8569C71.9946 28.106 71.6792 28.2305 71.2974 28.2305ZM79.1562 36.2988C78.2044 36.2988 77.3882 36.0443 76.7075 35.5352C76.0324 35.026 75.5122 34.3011 75.147 33.3604C74.7817 32.4196 74.5991 31.3045 74.5991 30.0151V29.9985C74.5991 28.7091 74.7817 27.5968 75.147 26.6616C75.5122 25.7209 76.0324 24.9959 76.7075 24.4868C77.3882 23.9777 78.2044 23.7231 79.1562 23.7231C80.1081 23.7231 80.9243 23.9777 81.605 24.4868C82.2856 24.9959 82.8086 25.7209 83.1738 26.6616C83.5391 27.5968 83.7217 28.7091 83.7217 29.9985V30.0151C83.7217 31.3045 83.5391 32.4196 83.1738 33.3604C82.8086 34.3011 82.2856 35.026 81.605 35.5352C80.9243 36.0443 80.1081 36.2988 79.1562 36.2988ZM79.1562 34.564C79.6654 34.564 80.0998 34.3813 80.4595 34.0161C80.8192 33.6509 81.0931 33.1307 81.2812 32.4556C81.4749 31.7749 81.5718 30.9614 81.5718 30.0151V29.9985C81.5718 29.0522 81.4749 28.2415 81.2812 27.5664C81.0931 26.8857 80.8192 26.3656 80.4595 26.0059C80.0998 25.6406 79.6654 25.458 79.1562 25.458C78.6471 25.458 78.2127 25.6406 77.853 26.0059C77.4989 26.3656 77.2249 26.8857 77.0312 27.5664C76.8431 28.2415 76.749 29.0522 76.749 29.9985V30.0151C76.749 30.9614 76.8431 31.7749 77.0312 32.4556C77.2249 33.1307 77.4989 33.6509 77.853 34.0161C78.2127 34.3813 78.6471 34.564 79.1562 34.564ZM89.9619 36.2988C89.0101 36.2988 88.1938 36.0443 87.5132 35.5352C86.8381 35.026 86.3179 34.3011 85.9526 33.3604C85.5874 32.4196 85.4048 31.3045 85.4048 30.0151V29.9985C85.4048 28.7091 85.5874 27.5968 85.9526 26.6616C86.3179 25.7209 86.8381 24.9959 87.5132 24.4868C88.1938 23.9777 89.0101 23.7231 89.9619 23.7231C90.9137 23.7231 91.73 23.9777 92.4106 24.4868C93.0913 24.9959 93.6143 25.7209 93.9795 26.6616C94.3447 27.5968 94.5273 28.7091 94.5273 29.9985V30.0151C94.5273 31.3045 94.3447 32.4196 93.9795 33.3604C93.6143 34.3011 93.0913 35.026 92.4106 35.5352C91.73 36.0443 90.9137 36.2988 89.9619 36.2988ZM89.9619 34.564C90.471 34.564 90.9054 34.3813 91.2651 34.0161C91.6248 33.6509 91.8988 33.1307 92.0869 32.4556C92.2806 31.7749 92.3774 30.9614 92.3774 30.0151V29.9985C92.3774 29.0522 92.2806 28.2415 92.0869 27.5664C91.8988 26.8857 91.6248 26.3656 91.2651 26.0059C90.9054 25.6406 90.471 25.458 89.9619 25.458C89.4528 25.458 89.0184 25.6406 88.6587 26.0059C88.3045 26.3656 88.0306 26.8857 87.8369 27.5664C87.6488 28.2415 87.5547 29.0522 87.5547 29.9985V30.0151C87.5547 30.9614 87.6488 31.7749 87.8369 32.4556C88.0306 33.1307 88.3045 33.6509 88.6587 34.0161C89.0184 34.3813 89.4528 34.564 89.9619 34.564Z" fill="black"/>
<path d="M288.333 31C288.977 31 289.5 31.5037 289.5 32.125V34.375C289.5 34.9963 288.977 35.5 288.333 35.5H287.167C286.523 35.5 286 34.9963 286 34.375V32.125C286 31.5037 286.523 31 287.167 31H288.333ZM293.823 28.75C294.468 28.75 294.99 29.2537 294.99 29.875V34.375C294.99 34.9963 294.468 35.5 293.823 35.5H292.657C292.013 35.5 291.49 34.9963 291.49 34.375V29.875C291.49 29.2537 292.013 28.75 292.657 28.75H293.823ZM299.313 26.125C299.958 26.125 300.48 26.6287 300.48 27.25V34.375C300.48 34.9963 299.958 35.5 299.313 35.5H298.147C297.503 35.5 296.98 34.9963 296.98 34.375V27.25C296.981 26.6287 297.503 26.125 298.147 26.125H299.313ZM304.804 23.5C305.448 23.5 305.971 24.0037 305.971 24.625V34.375C305.971 34.9963 305.448 35.5 304.804 35.5H303.638C302.993 35.5 302.471 34.9963 302.471 34.375V24.625C302.471 24.0037 302.993 23.5 303.638 23.5H304.804Z" fill="black"/>
<path d="M318.512 32.8262C319.932 31.5963 322.011 31.5963 323.431 32.8262C323.502 32.8923 323.544 32.9854 323.546 33.084C323.548 33.1825 323.51 33.2776 323.441 33.3467L321.218 35.6445C321.153 35.712 321.063 35.75 320.971 35.75C320.878 35.7499 320.79 35.7119 320.725 35.6445L318.501 33.3467C318.432 33.2776 318.394 33.1826 318.396 33.084C318.399 32.9854 318.44 32.8923 318.512 32.8262ZM315.545 29.7607C318.604 26.8466 323.341 26.8466 326.4 29.7607C326.469 29.829 326.509 29.9224 326.51 30.0205C326.511 30.1188 326.473 30.2135 326.405 30.2832L325.12 31.6133C324.988 31.7491 324.774 31.7523 324.638 31.6201C323.633 30.6886 322.326 30.1728 320.971 30.1729C319.617 30.1735 318.311 30.6894 317.308 31.6201C317.172 31.7523 316.958 31.749 316.825 31.6133L315.54 30.2832C315.472 30.2136 315.435 30.1188 315.436 30.0205C315.437 29.9223 315.476 29.829 315.545 29.7607ZM312.578 26.7031C317.27 22.0988 324.671 22.0989 329.363 26.7031C329.431 26.7715 329.47 26.8653 329.471 26.9629C329.471 27.0604 329.433 27.1544 329.366 27.2236L328.08 28.5537C327.947 28.6901 327.732 28.691 327.598 28.5566C325.81 26.8163 323.437 25.8458 320.971 25.8457C318.504 25.8458 316.131 26.8163 314.344 28.5566C314.209 28.6912 313.994 28.6904 313.861 28.5537L312.574 27.2236C312.507 27.1544 312.47 27.0604 312.471 26.9629C312.471 26.8653 312.51 26.7715 312.578 26.7031Z" fill="black"/>
<rect opacity="0.4" x="336.471" y="23.5" width="24" height="12" rx="3.5" stroke="black"/>
<path opacity="0.5" d="M361.971 27.5V31.5C362.777 31.1612 363.301 30.3731 363.301 29.5C363.301 28.6269 362.777 27.8388 361.971 27.5Z" fill="black"/>
<rect x="337.971" y="25" width="17" height="9" rx="2" fill="black"/>
<path d="M137.45 94.325C136.467 94.325 135.475 94.2167 134.475 94C133.492 93.7833 132.617 93.475 131.85 93.075L132.9 90.1C133.233 90.2833 133.633 90.475 134.1 90.675C134.567 90.875 135.075 91.0417 135.625 91.175C136.175 91.3083 136.733 91.375 137.3 91.375C137.967 91.375 138.467 91.2833 138.8 91.1C139.15 90.9 139.325 90.6 139.325 90.2C139.325 89.9 139.208 89.6583 138.975 89.475C138.758 89.275 138.433 89.0917 138 88.925C137.567 88.7417 137.05 88.55 136.45 88.35C135.567 88.0333 134.808 87.6917 134.175 87.325C133.542 86.9583 133.05 86.5083 132.7 85.975C132.367 85.4417 132.2 84.775 132.2 83.975C132.2 83.0583 132.433 82.3083 132.9 81.725C133.367 81.1417 134.025 80.7083 134.875 80.425C135.725 80.125 136.717 79.975 137.85 79.975C138.783 79.975 139.625 80.05 140.375 80.2C141.125 80.35 141.708 80.5417 142.125 80.775V83.725C141.842 83.5917 141.467 83.4583 141 83.325C140.55 83.1917 140.058 83.0833 139.525 83C139.008 82.9 138.508 82.85 138.025 82.85C137.342 82.85 136.825 82.9417 136.475 83.125C136.125 83.3083 135.95 83.5667 135.95 83.9C135.95 84.1667 136.067 84.3917 136.3 84.575C136.55 84.7583 136.908 84.9333 137.375 85.1C137.842 85.25 138.4 85.4417 139.05 85.675C139.917 85.975 140.65 86.3083 141.25 86.675C141.85 87.0417 142.3 87.4917 142.6 88.025C142.917 88.5583 143.075 89.2167 143.075 90C143.075 90.75 142.9 91.4583 142.55 92.125C142.217 92.775 141.642 93.3083 140.825 93.725C140.008 94.125 138.883 94.325 137.45 94.325ZM145.914 94V80.3H149.614V85.425H149.714L153.964 80.3H158.089V80.425L149.614 89.825V94H145.914ZM154.289 94V89.475C154.289 88.5917 154.031 87.9583 153.514 87.575C153.014 87.175 152.281 86.975 151.314 86.975L153.514 84.375C154.514 84.375 155.348 84.575 156.014 84.975C156.681 85.375 157.181 85.9167 157.514 86.6C157.864 87.2667 158.039 88.0333 158.039 88.9V94H154.289ZM153.671 78.4C152.888 78.4 152.271 78.2833 151.821 78.05C151.371 77.8167 151.054 77.525 150.871 77.175C150.671 76.8083 150.571 76.425 150.571 76.025C150.571 75.7417 150.613 75.4417 150.696 75.125C150.779 74.7917 150.904 74.4833 151.071 74.2L153.796 74.55C153.763 74.6667 153.738 74.7917 153.721 74.925C153.688 75.0417 153.671 75.15 153.671 75.25C153.671 75.4833 153.746 75.6667 153.896 75.8C154.029 75.9167 154.263 75.975 154.596 75.975H159.971V78.4H153.671ZM169.041 94V85.1C169.041 84.3 168.825 83.725 168.391 83.375C167.958 83.025 167.291 82.85 166.391 82.85C165.525 82.85 164.675 82.9833 163.841 83.25C163.025 83.5 162.316 83.8 161.716 84.15V81.05C162.2 80.8167 162.883 80.5833 163.766 80.35C164.65 80.1 165.666 79.975 166.816 79.975C167.7 79.975 168.491 80.0833 169.191 80.3C169.908 80.5167 170.425 80.9417 170.741 81.575C171.441 81.7917 171.941 82.2167 172.241 82.85C172.558 83.4667 172.716 84.2667 172.716 85.25V94H169.041ZM164.941 94.25C163.508 94.25 162.4 93.9083 161.616 93.225C160.85 92.5417 160.466 91.5833 160.466 90.35C160.466 89.0167 160.941 87.95 161.891 87.15C162.858 86.35 164.375 85.8667 166.441 85.7L169.641 85.45V88.15L166.866 88.425C165.866 88.525 165.166 88.725 164.766 89.025C164.383 89.325 164.191 89.725 164.191 90.225C164.191 90.725 164.35 91.1 164.666 91.35C165 91.6 165.425 91.725 165.941 91.725C166.141 91.725 166.341 91.7083 166.541 91.675C166.741 91.625 166.925 91.575 167.091 91.525L167.416 93.875C167.1 93.9917 166.725 94.0833 166.291 94.15C165.858 94.2167 165.408 94.25 164.941 94.25ZM170.666 83.025L168.616 81.3C169.2 81.1 169.658 80.85 169.991 80.55C170.325 80.2333 170.5 79.85 170.516 79.4H173.791C173.791 79.9167 173.683 80.4167 173.466 80.9C173.266 81.3667 172.933 81.7833 172.466 82.15C172.016 82.5167 171.416 82.8083 170.666 83.025ZM181.73 94.325C179.697 94.325 178.189 93.8333 177.205 92.85C176.222 91.85 175.73 90.375 175.73 88.425C175.73 88.0917 175.739 87.6917 175.755 87.225C175.789 86.7417 175.83 86.3167 175.88 85.95H181.88V88.325H179.405V88.675C179.405 89.3417 179.489 89.8917 179.655 90.325C179.822 90.7417 180.072 91.05 180.405 91.25C180.755 91.45 181.189 91.55 181.705 91.55C182.272 91.55 182.747 91.425 183.13 91.175C183.53 90.925 183.83 90.5 184.03 89.9C184.247 89.3 184.355 88.475 184.355 87.425C184.355 86.4417 184.239 85.625 184.005 84.975C183.789 84.3083 183.414 83.8083 182.88 83.475C182.364 83.1417 181.647 82.975 180.73 82.975C180.23 82.975 179.714 83.0333 179.18 83.15C178.647 83.25 178.139 83.3833 177.655 83.55C177.189 83.7167 176.78 83.9 176.43 84.1V80.975C176.797 80.775 177.247 80.6 177.78 80.45C178.33 80.3 178.922 80.1833 179.555 80.1C180.189 80.0167 180.814 79.975 181.43 79.975C183.047 79.975 184.347 80.275 185.33 80.875C186.33 81.4583 187.055 82.2917 187.505 83.375C187.972 84.4583 188.205 85.7417 188.205 87.225C188.205 88.7417 187.98 90.0333 187.53 91.1C187.097 92.15 186.405 92.95 185.455 93.5C184.505 94.05 183.264 94.325 181.73 94.325ZM183.003 100.525V98.3C183.003 97.8833 182.819 97.675 182.453 97.675C182.369 97.675 182.286 97.6833 182.203 97.7C182.119 97.7167 182.036 97.7417 181.953 97.775L181.778 95.975C182.011 95.8917 182.336 95.8083 182.753 95.725C183.153 95.6417 183.561 95.6 183.978 95.6C184.794 95.6 185.369 95.7583 185.703 96.075C186.036 96.4083 186.203 96.8583 186.203 97.425V100.525H183.003ZM197.275 94.325C195.108 94.325 193.533 93.825 192.55 92.825C191.583 91.8083 191.1 90.3417 191.1 88.425V80.3H194.85V88.625C194.85 89.5083 195.041 90.1833 195.425 90.65C195.825 91.1 196.441 91.325 197.275 91.325C198.108 91.325 198.716 91.1 199.1 90.65C199.5 90.1833 199.7 89.5083 199.7 88.625V75.375H203.45V88.425C203.45 90.3417 202.958 91.8083 201.975 92.825C201.008 93.825 199.441 94.325 197.275 94.325ZM206.844 94V89.825C206.844 88.775 207.052 87.9667 207.469 87.4C207.885 86.8333 208.477 86.4333 209.244 86.2L209.269 86.1L206.594 85.125V84.475C206.594 83.6583 206.835 82.9083 207.319 82.225C207.802 81.5417 208.51 81 209.444 80.6C210.394 80.1833 211.544 79.975 212.894 79.975C214.16 79.975 215.252 80.175 216.169 80.575C217.085 80.9583 217.794 81.5417 218.294 82.325C218.81 83.0917 219.069 84.0667 219.069 85.25V94H215.319V85.475C215.319 84.6417 215.094 84.0167 214.644 83.6C214.21 83.1833 213.594 82.975 212.794 82.975C212.027 82.975 211.452 83.1417 211.069 83.475C210.685 83.7917 210.477 84.1833 210.444 84.65L212.669 85.675L212.394 87.3C211.794 87.3333 211.344 87.55 211.044 87.95C210.744 88.35 210.594 88.8917 210.594 89.575V94H206.844ZM227.269 94.325C226.286 94.325 225.294 94.2167 224.294 94C223.311 93.7833 222.436 93.475 221.669 93.075L222.719 90.1C223.053 90.2833 223.453 90.475 223.919 90.675C224.386 90.875 224.894 91.0417 225.444 91.175C225.994 91.3083 226.553 91.375 227.119 91.375C227.786 91.375 228.286 91.2833 228.619 91.1C228.969 90.9 229.144 90.6 229.144 90.2C229.144 89.9 229.028 89.6583 228.794 89.475C228.578 89.275 228.253 89.0917 227.819 88.925C227.386 88.7417 226.869 88.55 226.269 88.35C225.386 88.0333 224.628 87.6917 223.994 87.325C223.361 86.9583 222.869 86.5083 222.519 85.975C222.186 85.4417 222.019 84.775 222.019 83.975C222.019 83.0583 222.253 82.3083 222.719 81.725C223.186 81.1417 223.844 80.7083 224.694 80.425C225.544 80.125 226.536 79.975 227.669 79.975C228.603 79.975 229.444 80.05 230.194 80.2C230.944 80.35 231.528 80.5417 231.944 80.775V83.725C231.661 83.5917 231.286 83.4583 230.819 83.325C230.369 83.1917 229.878 83.0833 229.344 83C228.828 82.9 228.328 82.85 227.844 82.85C227.161 82.85 226.644 82.9417 226.294 83.125C225.944 83.3083 225.769 83.5667 225.769 83.9C225.769 84.1667 225.886 84.3917 226.119 84.575C226.369 84.7583 226.728 84.9333 227.194 85.1C227.661 85.25 228.219 85.4417 228.869 85.675C229.736 85.975 230.469 86.3083 231.069 86.675C231.669 87.0417 232.119 87.4917 232.419 88.025C232.736 88.5583 232.894 89.2167 232.894 90C232.894 90.75 232.719 91.4583 232.369 92.125C232.036 92.775 231.461 93.3083 230.644 93.725C229.828 94.125 228.703 94.325 227.269 94.325ZM238.909 94.25C238.192 94.25 237.567 94.1333 237.034 93.9C236.517 93.6667 236.109 93.3167 235.809 92.85C235.525 92.3667 235.384 91.7667 235.384 91.05V89.425C235.384 88.4417 235.6 87.7167 236.034 87.25C236.467 86.7833 237.067 86.4333 237.834 86.2L237.859 86.1L235.134 85.125V84.475C235.134 83.625 235.367 82.8667 235.834 82.2C236.317 81.5167 237.017 80.975 237.934 80.575C238.85 80.175 239.967 79.975 241.284 79.975C242.517 79.975 243.575 80.1667 244.459 80.55C245.359 80.9167 246.05 81.475 246.534 82.225C247.017 82.9583 247.259 83.8833 247.259 85V88.75C247.259 89.55 247.434 90.125 247.784 90.475C248.134 90.825 248.567 91 249.084 91C249.567 91 249.984 90.8667 250.334 90.6C250.684 90.3167 250.959 89.9333 251.159 89.45C251.359 88.95 251.459 88.3667 251.459 87.7V80.3H255.209V94H252.309L251.884 91.85H251.684C251.384 92.55 250.892 93.125 250.209 93.575C249.542 94.025 248.709 94.25 247.709 94.25C246.342 94.25 245.309 93.8917 244.609 93.175C243.925 92.4417 243.584 91.2917 243.584 89.725V85.275C243.584 84.6917 243.475 84.2333 243.259 83.9C243.059 83.55 242.784 83.3 242.434 83.15C242.084 83 241.684 82.925 241.234 82.925C240.6 82.925 240.075 83.0667 239.659 83.35C239.242 83.6167 239.017 84.025 238.984 84.575L241.159 85.625L240.909 87.25C240.292 87.2667 239.825 87.4167 239.509 87.7C239.192 87.9667 239.034 88.4417 239.034 89.125V90.65C239.034 91.0167 239.109 91.2833 239.259 91.45C239.425 91.6 239.684 91.675 240.034 91.675C240.184 91.675 240.334 91.6667 240.484 91.65C240.65 91.6167 240.792 91.575 240.909 91.525L241.259 93.75C240.942 93.9167 240.584 94.0417 240.184 94.125C239.784 94.2083 239.359 94.25 238.909 94.25ZM250.571 78.95C250.438 78.7167 250.33 78.4167 250.246 78.05C250.146 77.6833 250.096 77.3167 250.096 76.95C250.096 76.4833 250.188 76.0583 250.371 75.675C250.538 75.2917 250.846 74.9917 251.296 74.775C251.73 74.5417 252.33 74.425 253.096 74.425H256.721V76.95H254.321C254.005 76.95 253.763 77.0083 253.596 77.125C253.413 77.225 253.321 77.4167 253.321 77.7C253.321 77.8167 253.338 77.9417 253.371 78.075C253.405 78.1917 253.455 78.3167 253.521 78.45L250.571 78.95Z" fill="#4E5256"/>
<path d="M42.8095 99.5268C42.068 100.323 40.8068 100.323 40.0652 99.5268L28.2697 86.8632C27.5544 86.0952 27.5544 84.9048 28.2697 84.1368L40.0652 71.4732C40.8068 70.677 42.068 70.677 42.8095 71.4732C43.4802 72.1932 43.4802 73.3093 42.8095 74.0293L33.395 84.1368C32.6796 84.9048 32.6796 86.0952 33.395 86.8632L42.8095 96.9707C43.4802 97.6907 43.4802 98.8068 42.8095 99.5268Z" fill="#535353"/>
<rect x="31.5" y="224.5" width="326" height="43" rx="7.5" fill="white"/>
<rect x="31.5" y="224.5" width="326" height="43" rx="7.5" stroke="#D3D3D3"/>
<path d="M49.486 251.21C48.9727 251.21 48.45 251.149 47.918 251.028C47.386 250.916 46.9707 250.748 46.672 250.524V249.376C47.0733 249.619 47.512 249.805 47.988 249.936C48.4733 250.057 48.9353 250.118 49.374 250.118C49.99 250.118 50.4333 250.048 50.704 249.908C50.9747 249.759 51.11 249.507 51.11 249.152C51.11 248.909 51.0447 248.713 50.914 248.564C50.7833 248.415 50.5827 248.284 50.312 248.172C50.0507 248.06 49.6353 247.92 49.066 247.752C48.2447 247.5 47.6333 247.206 47.232 246.87C46.8307 246.525 46.63 246.049 46.63 245.442C46.63 244.751 46.896 244.224 47.428 243.86C47.96 243.487 48.688 243.3 49.612 243.3C50.088 243.3 50.5453 243.356 50.984 243.468C51.432 243.571 51.8007 243.711 52.09 243.888V245.064C51.7727 244.868 51.4087 244.714 50.998 244.602C50.5873 244.49 50.1673 244.434 49.738 244.434C48.618 244.434 48.058 244.77 48.058 245.442C48.058 245.694 48.1327 245.895 48.282 246.044C48.4407 246.193 48.646 246.319 48.898 246.422C49.1593 246.515 49.5933 246.651 50.2 246.828C50.7973 247.005 51.264 247.197 51.6 247.402C51.936 247.607 52.174 247.85 52.314 248.13C52.454 248.41 52.524 248.755 52.524 249.166C52.524 249.782 52.272 250.277 51.768 250.65C51.264 251.023 50.5033 251.21 49.486 251.21ZM54.0604 243.51H55.4884V246.814L59.1144 243.51H60.7804L58.7364 245.372C59.5017 245.568 60.0337 245.881 60.3324 246.31C60.6404 246.739 60.7944 247.313 60.7944 248.032V251H59.3664V248.116C59.3664 247.556 59.2497 247.131 59.0164 246.842C58.7924 246.553 58.4004 246.347 57.8404 246.226L55.4884 248.368V251H54.0604V243.51ZM58.167 242.404C57.7657 242.404 57.4763 242.306 57.299 242.11C57.1123 241.905 57.019 241.601 57.019 241.2V240.472H58.307V241.032C58.307 241.191 58.3397 241.298 58.405 241.354C58.461 241.41 58.573 241.438 58.741 241.438H62.045V242.404H58.167ZM65.055 251.21C64.2243 251.21 63.5617 251.005 63.067 250.594C62.5817 250.174 62.339 249.581 62.339 248.816C62.339 248.06 62.6097 247.458 63.151 247.01C63.7017 246.562 64.4437 246.338 65.377 246.338C66.301 246.338 67.1317 246.511 67.869 246.856V246.282C67.869 245.638 67.6917 245.171 67.337 244.882C66.9917 244.583 66.413 244.434 65.601 244.434C65.153 244.434 64.7143 244.476 64.285 244.56C63.8557 244.644 63.4823 244.761 63.165 244.91V243.79C63.4543 243.65 63.8463 243.533 64.341 243.44C64.845 243.347 65.335 243.3 65.811 243.3C66.651 243.3 67.351 243.454 67.911 243.762L68.625 242.95H70.207L68.793 244.532C69.129 245.008 69.297 245.582 69.297 246.254V251H67.869V247.99C67.1877 247.645 66.4083 247.472 65.531 247.472C64.9243 247.472 64.4763 247.584 64.187 247.808C63.907 248.032 63.767 248.368 63.767 248.816C63.767 249.665 64.313 250.09 65.405 250.09C65.741 250.09 66.035 250.043 66.287 249.95V251.056C65.951 251.159 65.5403 251.21 65.055 251.21ZM74.1 251.21C73.5213 251.21 72.9613 251.14 72.42 251C71.8786 250.869 71.4213 250.683 71.048 250.44V246.716H74.156V247.864H72.476V249.726C72.8773 249.969 73.4186 250.09 74.1 250.09C74.996 250.09 75.6773 249.843 76.144 249.348C76.62 248.853 76.858 248.135 76.858 247.192C76.858 246.249 76.6153 245.554 76.13 245.106C75.654 244.658 74.87 244.434 73.778 244.434C73.2833 244.434 72.798 244.485 72.322 244.588C71.846 244.681 71.4446 244.835 71.118 245.05V243.916C71.482 243.711 71.9113 243.557 72.406 243.454C72.9006 243.351 73.4326 243.3 74.002 243.3C75.402 243.3 76.4706 243.641 77.208 244.322C77.9453 245.003 78.314 245.96 78.314 247.192C78.314 248.433 77.9453 249.413 77.208 250.132C76.48 250.851 75.444 251.21 74.1 251.21ZM76.7372 253.254C76.7372 253.086 76.7092 252.969 76.6532 252.904C76.5879 252.848 76.4666 252.82 76.2892 252.82H75.8272V251.798H76.9752C77.3952 251.798 77.6799 251.882 77.8292 252.05C77.9692 252.218 78.0392 252.517 78.0392 252.946V254.682H76.7372V253.254ZM83.4572 251.21C82.7292 251.21 82.0946 251.079 81.5532 250.818C81.0119 250.557 80.5919 250.193 80.2932 249.726C80.0039 249.25 79.8592 248.709 79.8592 248.102V243.51H81.2872V248.074C81.2872 248.699 81.4692 249.194 81.8332 249.558C82.2066 249.913 82.7479 250.09 83.4572 250.09C84.1572 250.09 84.6892 249.913 85.0532 249.558C85.4266 249.194 85.6132 248.699 85.6132 248.074V241.004H87.0412V248.102C87.0412 248.709 86.8919 249.25 86.5932 249.726C86.3039 250.193 85.8886 250.557 85.3472 250.818C84.8059 251.079 84.1759 251.21 83.4572 251.21ZM89.2753 246.338L88.5753 245.204C89.07 244.579 89.6346 244.107 90.2693 243.79C90.904 243.463 91.6553 243.3 92.5233 243.3C93.6433 243.3 94.502 243.557 95.0993 244.07C95.6966 244.574 95.9953 245.283 95.9953 246.198V251H94.5673V246.31C94.5673 245.666 94.3946 245.195 94.0493 244.896C93.7133 244.588 93.2046 244.434 92.5233 244.434C92.01 244.434 91.5573 244.513 91.1653 244.672C90.7733 244.821 90.4186 245.064 90.1013 245.4L90.7033 246.338V251H89.2753V246.338ZM100.386 251.21C99.8731 251.21 99.3504 251.149 98.8184 251.028C98.2864 250.916 97.8711 250.748 97.5724 250.524V249.376C97.9737 249.619 98.4124 249.805 98.8884 249.936C99.3737 250.057 99.8357 250.118 100.274 250.118C100.89 250.118 101.334 250.048 101.604 249.908C101.875 249.759 102.01 249.507 102.01 249.152C102.01 248.909 101.945 248.713 101.814 248.564C101.684 248.415 101.483 248.284 101.212 248.172C100.951 248.06 100.536 247.92 99.9664 247.752C99.1451 247.5 98.5337 247.206 98.1324 246.87C97.7311 246.525 97.5304 246.049 97.5304 245.442C97.5304 244.751 97.7964 244.224 98.3284 243.86C98.8604 243.487 99.5884 243.3 100.512 243.3C100.988 243.3 101.446 243.356 101.884 243.468C102.332 243.571 102.701 243.711 102.99 243.888V245.064C102.673 244.868 102.309 244.714 101.898 244.602C101.488 244.49 101.068 244.434 100.638 244.434C99.5184 244.434 98.9584 244.77 98.9584 245.442C98.9584 245.694 99.0331 245.895 99.1824 246.044C99.3411 246.193 99.5464 246.319 99.7984 246.422C100.06 246.515 100.494 246.651 101.1 246.828C101.698 247.005 102.164 247.197 102.5 247.402C102.836 247.607 103.074 247.85 103.214 248.13C103.354 248.41 103.424 248.755 103.424 249.166C103.424 249.782 103.172 250.277 102.668 250.65C102.164 251.023 101.404 251.21 100.386 251.21ZM113.151 251.21C112.283 251.21 111.606 250.958 111.121 250.454C110.635 249.941 110.393 249.273 110.393 248.452V246.31C110.393 245.666 110.234 245.195 109.917 244.896C109.609 244.588 109.133 244.434 108.489 244.434C108.003 244.434 107.579 244.509 107.215 244.658C106.86 244.807 106.524 245.055 106.207 245.4L106.809 246.338V248.718C106.809 249.147 106.851 249.437 106.935 249.586C107.019 249.735 107.21 249.81 107.509 249.81H108.293V251H106.809C106.342 251 105.987 250.869 105.745 250.608C105.502 250.347 105.381 249.987 105.381 249.53V246.338L104.681 245.204C105.175 244.579 105.726 244.107 106.333 243.79C106.939 243.463 107.658 243.3 108.489 243.3C109.571 243.3 110.393 243.557 110.953 244.07C111.522 244.574 111.807 245.283 111.807 246.198V248.396C111.807 249.525 112.381 250.09 113.529 250.09C113.977 250.09 114.383 249.983 114.747 249.768C115.111 249.553 115.414 249.231 115.657 248.802V243.51H117.085V251H115.713V250.02C115.087 250.813 114.233 251.21 113.151 251.21ZM113.74 241.606C113.74 240.878 114.137 240.514 114.93 240.514H118.024V241.452H115.49C115.322 241.452 115.205 241.485 115.14 241.55C115.075 241.615 115.042 241.732 115.042 241.9V242.404H113.74V241.606Z" fill="#4E5256"/>
<path d="M34.4 142.24L33.7 141.134C34.1667 140.537 34.708 140.084 35.324 139.776C35.94 139.459 36.6727 139.3 37.522 139.3C38.6047 139.3 39.4307 139.547 40 140.042C40.5693 140.537 40.854 141.232 40.854 142.128V147H39.776V142.226C39.776 141.526 39.5847 141.008 39.202 140.672C38.8287 140.336 38.2687 140.168 37.522 140.168C36.9433 140.168 36.4393 140.257 36.01 140.434C35.5807 140.602 35.198 140.877 34.862 141.26L35.478 142.226V147H34.4V142.24ZM45.29 147.21C44.8047 147.21 44.3007 147.145 43.778 147.014C43.2647 146.893 42.8587 146.72 42.56 146.496V145.586C42.952 145.838 43.3814 146.029 43.848 146.16C44.3147 146.281 44.772 146.342 45.22 146.342C45.892 146.342 46.3727 146.258 46.662 146.09C46.9607 145.913 47.11 145.619 47.11 145.208C47.11 144.937 47.0447 144.718 46.914 144.55C46.7927 144.373 46.5874 144.219 46.298 144.088C46.0087 143.957 45.5794 143.808 45.01 143.64C44.1607 143.388 43.5354 143.103 43.134 142.786C42.7327 142.459 42.532 141.988 42.532 141.372C42.532 140.7 42.784 140.187 43.288 139.832C43.8014 139.477 44.5014 139.3 45.388 139.3C45.8454 139.3 46.284 139.356 46.704 139.468C47.124 139.571 47.474 139.711 47.754 139.888V140.784C47.082 140.373 46.3214 140.168 45.472 140.168C44.2307 140.168 43.61 140.569 43.61 141.372C43.61 141.661 43.6847 141.89 43.834 142.058C43.9834 142.226 44.2027 142.371 44.492 142.492C44.7814 142.604 45.2247 142.744 45.822 142.912C46.4194 143.08 46.886 143.267 47.222 143.472C47.5674 143.668 47.8147 143.906 47.964 144.186C48.1134 144.457 48.188 144.802 48.188 145.222C48.188 145.819 47.95 146.3 47.474 146.664C47.0074 147.028 46.2794 147.21 45.29 147.21ZM46.9127 149.198C46.9127 149.021 46.8801 148.904 46.8147 148.848C46.7494 148.801 46.6187 148.778 46.4227 148.778H45.9887V147.868H46.9827C47.3467 147.868 47.5941 147.947 47.7247 148.106C47.8461 148.265 47.9067 148.545 47.9067 148.946V150.598H46.9127V149.198ZM58.1267 147.21C57.2494 147.21 56.5727 146.967 56.0967 146.482C55.6207 145.997 55.3827 145.348 55.3827 144.536V142.226C55.3827 141.517 55.2054 140.999 54.8507 140.672C54.5054 140.336 53.9781 140.168 53.2687 140.168C52.7274 140.168 52.2607 140.252 51.8687 140.42C51.4767 140.588 51.1034 140.868 50.7487 141.26L51.3647 142.226V145.362C51.3647 145.633 51.4161 145.824 51.5187 145.936C51.6307 146.039 51.8174 146.09 52.0787 146.09H52.8907V147H51.6307C51.1921 147 50.8561 146.879 50.6227 146.636C50.3987 146.393 50.2867 146.057 50.2867 145.628V142.24L49.5867 141.134C50.0627 140.527 50.5901 140.07 51.1687 139.762C51.7567 139.454 52.4567 139.3 53.2687 139.3C54.3141 139.3 55.1027 139.547 55.6347 140.042C56.1761 140.537 56.4467 141.232 56.4467 142.128V144.494C56.4467 145.726 57.0907 146.342 58.3787 146.342C59.3401 146.342 60.1287 145.866 60.7447 144.914V139.51H61.8227V147H60.7867V145.922C60.1241 146.781 59.2374 147.21 58.1267 147.21ZM66.6547 142.1C66.6547 141.437 66.5194 140.952 66.2487 140.644C65.978 140.327 65.516 140.168 64.8627 140.168C64.2 140.168 63.6074 140.299 63.0847 140.56V139.692C63.3087 139.58 63.5934 139.487 63.9387 139.412C64.2934 139.337 64.648 139.3 65.0027 139.3C65.9267 139.3 66.6127 139.547 67.0607 140.042C67.5087 140.537 67.7327 141.246 67.7327 142.17V147H66.6547V142.1ZM70.1109 142.24L69.4109 141.134C69.8776 140.537 70.4189 140.084 71.0349 139.776C71.6509 139.459 72.3836 139.3 73.2329 139.3C74.3156 139.3 75.1416 139.547 75.7109 140.042C76.2803 140.537 76.5649 141.232 76.5649 142.128V147H75.4869V142.226C75.4869 141.526 75.2956 141.008 74.9129 140.672C74.5396 140.336 73.9796 140.168 73.2329 140.168C72.6543 140.168 72.1503 140.257 71.7209 140.434C71.2916 140.602 70.9089 140.877 70.5729 141.26L71.1889 142.226V147H70.1109V142.24ZM81.001 147.21C80.5156 147.21 80.0116 147.145 79.489 147.014C78.9756 146.893 78.5696 146.72 78.271 146.496V145.586C78.663 145.838 79.0923 146.029 79.559 146.16C80.0256 146.281 80.483 146.342 80.931 146.342C81.603 146.342 82.0836 146.258 82.373 146.09C82.6716 145.913 82.821 145.619 82.821 145.208C82.821 144.937 82.7556 144.718 82.625 144.55C82.5036 144.373 82.2983 144.219 82.009 144.088C81.7196 143.957 81.2903 143.808 80.721 143.64C79.8716 143.388 79.2463 143.103 78.845 142.786C78.4436 142.459 78.243 141.988 78.243 141.372C78.243 140.7 78.495 140.187 78.999 139.832C79.5123 139.477 80.2123 139.3 81.099 139.3C81.5563 139.3 81.995 139.356 82.415 139.468C82.835 139.571 83.185 139.711 83.465 139.888V140.784C82.793 140.373 82.0323 140.168 81.183 140.168C79.9416 140.168 79.321 140.569 79.321 141.372C79.321 141.661 79.3956 141.89 79.545 142.058C79.6943 142.226 79.9136 142.371 80.203 142.492C80.4923 142.604 80.9356 142.744 81.533 142.912C82.1303 143.08 82.597 143.267 82.933 143.472C83.2783 143.668 83.5256 143.906 83.675 144.186C83.8243 144.457 83.899 144.802 83.899 145.222C83.899 145.819 83.661 146.3 83.185 146.664C82.7183 147.028 81.9903 147.21 81.001 147.21ZM88.2097 147.21C87.659 147.21 87.127 147.14 86.6137 147C86.1003 146.86 85.6617 146.659 85.2977 146.398V142.87H88.1537V143.738H86.3757V145.894C86.833 146.193 87.4443 146.342 88.2097 146.342C89.1617 146.342 89.9037 146.062 90.4357 145.502C90.9677 144.942 91.2337 144.149 91.2337 143.122C91.2337 142.086 90.9817 141.335 90.4777 140.868C89.983 140.401 89.1617 140.168 88.0137 140.168C87.5097 140.168 87.0197 140.224 86.5437 140.336C86.077 140.439 85.6803 140.607 85.3537 140.84V139.944C86.063 139.515 86.9917 139.3 88.1397 139.3C89.5023 139.3 90.5383 139.627 91.2477 140.28C91.957 140.924 92.3117 141.871 92.3117 143.122C92.3117 143.943 92.1483 144.662 91.8217 145.278C91.495 145.894 91.0237 146.37 90.4077 146.706C89.7917 147.042 89.059 147.21 88.2097 147.21ZM94.4059 142.24L93.7059 141.134C94.1725 140.537 94.7139 140.084 95.3299 139.776C95.9459 139.459 96.6785 139.3 97.5279 139.3C98.6105 139.3 99.4365 139.547 100.006 140.042C100.575 140.537 100.86 141.232 100.86 142.128V147H99.7819V142.226C99.7819 141.526 99.5905 141.008 99.2079 140.672C98.8345 140.336 98.2745 140.168 97.5279 140.168C96.9492 140.168 96.4452 140.257 96.0159 140.434C95.5865 140.602 95.2039 140.877 94.8679 141.26L95.4839 142.226V147H94.4059V142.24ZM105.296 147.21C104.811 147.21 104.307 147.145 103.784 147.014C103.271 146.893 102.865 146.72 102.566 146.496V145.586C102.958 145.838 103.387 146.029 103.854 146.16C104.321 146.281 104.778 146.342 105.226 146.342C105.898 146.342 106.379 146.258 106.668 146.09C106.967 145.913 107.116 145.619 107.116 145.208C107.116 144.937 107.051 144.718 106.92 144.55C106.799 144.373 106.593 144.219 106.304 144.088C106.015 143.957 105.585 143.808 105.016 143.64C104.167 143.388 103.541 143.103 103.14 142.786C102.739 142.459 102.538 141.988 102.538 141.372C102.538 140.7 102.79 140.187 103.294 139.832C103.807 139.477 104.507 139.3 105.394 139.3C105.851 139.3 106.29 139.356 106.71 139.468C107.13 139.571 107.48 139.711 107.76 139.888V140.784C107.088 140.373 106.327 140.168 105.478 140.168C104.237 140.168 103.616 140.569 103.616 141.372C103.616 141.661 103.691 141.89 103.84 142.058C103.989 142.226 104.209 142.371 104.498 142.492C104.787 142.604 105.231 142.744 105.828 142.912C106.425 143.08 106.892 143.267 107.228 143.472C107.573 143.668 107.821 143.906 107.97 144.186C108.119 144.457 108.194 144.802 108.194 145.222C108.194 145.819 107.956 146.3 107.48 146.664C107.013 147.028 106.285 147.21 105.296 147.21ZM109.873 139.51H110.951V143.108L114.983 139.51H116.257L114.213 141.344C114.987 141.531 115.529 141.839 115.837 142.268C116.145 142.688 116.299 143.248 116.299 143.948V147H115.221V144.004C115.221 143.416 115.09 142.968 114.829 142.66C114.577 142.352 114.138 142.133 113.513 142.002L110.951 144.284V147H109.873V139.51ZM113.857 138.306C113.503 138.306 113.241 138.217 113.073 138.04C112.905 137.863 112.821 137.601 112.821 137.256V136.598H113.815V137.074C113.815 137.242 113.848 137.359 113.913 137.424C113.979 137.48 114.105 137.508 114.291 137.508H117.567V138.306H113.857ZM120.633 147.21C119.812 147.21 119.163 147.009 118.687 146.608C118.211 146.197 117.973 145.609 117.973 144.844C117.973 144.097 118.239 143.509 118.771 143.08C119.303 142.641 120.017 142.422 120.913 142.422C121.884 142.422 122.766 142.609 123.559 142.982V142.17C123.559 141.479 123.373 140.975 122.999 140.658C122.626 140.331 122.019 140.168 121.179 140.168C120.741 140.168 120.311 140.21 119.891 140.294C119.471 140.369 119.107 140.476 118.799 140.616V139.748C119.079 139.617 119.457 139.51 119.933 139.426C120.409 139.342 120.871 139.3 121.319 139.3C122.262 139.3 123.004 139.487 123.545 139.86L124.357 138.95H125.561L124.189 140.49C124.488 140.938 124.637 141.493 124.637 142.156V147H123.559V143.85C122.822 143.477 121.973 143.29 121.011 143.29C119.705 143.29 119.051 143.808 119.051 144.844C119.051 145.357 119.196 145.735 119.485 145.978C119.775 146.221 120.237 146.342 120.871 146.342C121.198 146.342 121.506 146.3 121.795 146.216V147.07C121.469 147.163 121.081 147.21 120.633 147.21ZM132.144 137.214H133.264L136.96 145.292L140.656 137.214H141.776V147H140.698V139.44L137.24 147H136.68L133.222 139.44V147H132.144V137.214ZM147.008 137.214H148.03L151.936 147H150.816L149.766 144.382H145.258L144.222 147H143.102L147.008 137.214ZM149.458 143.458L147.512 138.474L145.58 143.458H149.458ZM157.715 147.21C156.726 147.21 155.839 147 155.055 146.58C154.28 146.16 153.674 145.567 153.235 144.802C152.796 144.027 152.577 143.131 152.577 142.114C152.577 141.097 152.796 140.205 153.235 139.44C153.674 138.665 154.28 138.068 155.055 137.648C155.839 137.219 156.726 137.004 157.715 137.004C159.068 137.004 160.188 137.359 161.075 138.068V139.132C160.235 138.376 159.143 137.998 157.799 137.998C157.006 137.998 156.296 138.166 155.671 138.502C155.046 138.838 154.556 139.319 154.201 139.944C153.846 140.56 153.669 141.283 153.669 142.114C153.669 142.945 153.846 143.673 154.201 144.298C154.565 144.914 155.06 145.39 155.685 145.726C156.31 146.062 157.015 146.23 157.799 146.23C158.499 146.23 159.124 146.137 159.675 145.95C160.226 145.763 160.734 145.455 161.201 145.026V146.104C160.37 146.841 159.208 147.21 157.715 147.21ZM171.823 137.214H172.845L176.751 147H175.631L174.581 144.382H170.073L169.037 147H167.917L171.823 137.214ZM174.273 143.458L172.327 138.474L170.395 143.458H174.273ZM181.042 147.21C180.379 147.21 179.782 147.065 179.25 146.776C178.718 146.487 178.298 146.071 177.99 145.53C177.682 144.989 177.528 144.363 177.528 143.654C177.528 142.954 177.677 142.333 177.976 141.792C178.284 141.241 178.704 140.817 179.236 140.518C179.777 140.219 180.379 140.07 181.042 140.07C181.686 140.07 182.255 140.187 182.75 140.42C183.254 140.644 183.655 140.975 183.954 141.414V136.654H185.032V147H183.982V145.824C183.627 146.291 183.207 146.641 182.722 146.874C182.246 147.098 181.686 147.21 181.042 147.21ZM181.266 146.356C181.91 146.356 182.47 146.193 182.946 145.866C183.431 145.53 183.767 145.073 183.954 144.494V142.814C183.777 142.235 183.445 141.778 182.96 141.442C182.484 141.106 181.919 140.938 181.266 140.938C180.771 140.938 180.319 141.055 179.908 141.288C179.507 141.512 179.189 141.829 178.956 142.24C178.723 142.651 178.606 143.122 178.606 143.654C178.606 144.186 178.723 144.657 178.956 145.068C179.189 145.479 179.507 145.796 179.908 146.02C180.319 146.244 180.771 146.356 181.266 146.356ZM190.025 147.21C189.362 147.21 188.765 147.065 188.233 146.776C187.701 146.487 187.281 146.071 186.973 145.53C186.665 144.989 186.511 144.363 186.511 143.654C186.511 142.954 186.66 142.333 186.959 141.792C187.267 141.241 187.687 140.817 188.219 140.518C188.76 140.219 189.362 140.07 190.025 140.07C190.669 140.07 191.238 140.187 191.733 140.42C192.237 140.644 192.638 140.975 192.937 141.414V136.654H194.015V147H192.965V145.824C192.61 146.291 192.19 146.641 191.705 146.874C191.229 147.098 190.669 147.21 190.025 147.21ZM190.249 146.356C190.893 146.356 191.453 146.193 191.929 145.866C192.414 145.53 192.75 145.073 192.937 144.494V142.814C192.759 142.235 192.428 141.778 191.943 141.442C191.467 141.106 190.902 140.938 190.249 140.938C189.754 140.938 189.301 141.055 188.891 141.288C188.489 141.512 188.172 141.829 187.939 142.24C187.705 142.651 187.589 143.122 187.589 143.654C187.589 144.186 187.705 144.657 187.939 145.068C188.172 145.479 188.489 145.796 188.891 146.02C189.301 146.244 189.754 146.356 190.249 146.356ZM195.978 140.28H197.028V141.596C197.569 140.719 198.582 140.28 200.066 140.28V141.148C198.442 141.148 197.439 141.685 197.056 142.758V147H195.978V140.28ZM204.649 147.21C203.426 147.21 202.469 146.897 201.779 146.272C201.097 145.647 200.757 144.774 200.757 143.654C200.757 142.553 201.065 141.68 201.681 141.036C202.297 140.392 203.174 140.07 204.313 140.07C205.078 140.07 205.727 140.219 206.259 140.518C206.791 140.807 207.192 141.209 207.463 141.722C207.733 142.235 207.869 142.819 207.869 143.472V144.06H201.765C201.802 144.825 202.082 145.399 202.605 145.782C203.137 146.165 203.855 146.356 204.761 146.356C205.199 146.356 205.629 146.319 206.049 146.244C206.478 146.16 206.861 146.048 207.197 145.908V146.818C206.917 146.93 206.534 147.023 206.049 147.098C205.573 147.173 205.106 147.21 204.649 147.21ZM206.861 143.29C206.842 142.562 206.618 141.988 206.189 141.568C205.759 141.148 205.129 140.938 204.299 140.938C203.487 140.938 202.866 141.157 202.437 141.596C202.007 142.025 201.783 142.59 201.765 143.29H206.861ZM211.892 147.21C211.454 147.21 210.982 147.145 210.478 147.014C209.974 146.893 209.582 146.739 209.302 146.552V145.642C209.657 145.857 210.063 146.029 210.52 146.16C210.987 146.291 211.435 146.356 211.864 146.356C212.443 146.356 212.858 146.277 213.11 146.118C213.372 145.95 213.502 145.703 213.502 145.376C213.502 145.124 213.446 144.928 213.334 144.788C213.222 144.639 213.036 144.508 212.774 144.396C212.513 144.284 212.107 144.153 211.556 144.004C211.015 143.855 210.581 143.701 210.254 143.542C209.937 143.374 209.694 143.164 209.526 142.912C209.358 142.66 209.274 142.338 209.274 141.946C209.274 141.339 209.517 140.877 210.002 140.56C210.497 140.233 211.15 140.07 211.962 140.07C212.401 140.07 212.812 140.112 213.194 140.196C213.586 140.271 213.913 140.378 214.174 140.518V141.428C213.904 141.279 213.577 141.162 213.194 141.078C212.812 140.985 212.415 140.938 212.004 140.938C211.463 140.938 211.052 141.017 210.772 141.176C210.492 141.335 210.352 141.591 210.352 141.946C210.352 142.189 210.399 142.375 210.492 142.506C210.595 142.637 210.777 142.758 211.038 142.87C211.309 142.973 211.738 143.103 212.326 143.262C213.166 143.495 213.75 143.771 214.076 144.088C214.412 144.396 214.58 144.825 214.58 145.376C214.58 145.945 214.356 146.393 213.908 146.72C213.47 147.047 212.798 147.21 211.892 147.21ZM218.236 147.21C217.797 147.21 217.326 147.145 216.822 147.014C216.318 146.893 215.926 146.739 215.646 146.552V145.642C216.001 145.857 216.407 146.029 216.864 146.16C217.331 146.291 217.779 146.356 218.208 146.356C218.787 146.356 219.202 146.277 219.454 146.118C219.715 145.95 219.846 145.703 219.846 145.376C219.846 145.124 219.79 144.928 219.678 144.788C219.566 144.639 219.379 144.508 219.118 144.396C218.857 144.284 218.451 144.153 217.9 144.004C217.359 143.855 216.925 143.701 216.598 143.542C216.281 143.374 216.038 143.164 215.87 142.912C215.702 142.66 215.618 142.338 215.618 141.946C215.618 141.339 215.861 140.877 216.346 140.56C216.841 140.233 217.494 140.07 218.306 140.07C218.745 140.07 219.155 140.112 219.538 140.196C219.93 140.271 220.257 140.378 220.518 140.518V141.428C220.247 141.279 219.921 141.162 219.538 141.078C219.155 140.985 218.759 140.938 218.348 140.938C217.807 140.938 217.396 141.017 217.116 141.176C216.836 141.335 216.696 141.591 216.696 141.946C216.696 142.189 216.743 142.375 216.836 142.506C216.939 142.637 217.121 142.758 217.382 142.87C217.653 142.973 218.082 143.103 218.67 143.262C219.51 143.495 220.093 143.771 220.42 144.088C220.756 144.396 220.924 144.825 220.924 145.376C220.924 145.945 220.7 146.393 220.252 146.72C219.813 147.047 219.141 147.21 218.236 147.21ZM229.806 138.404L227.636 139.972V138.894L229.918 137.214H230.898V147H229.806V138.404ZM232.571 146.272L234.867 143.976L235.539 143.332C236.08 142.809 236.496 142.389 236.785 142.072C237.074 141.745 237.312 141.4 237.499 141.036C237.686 140.663 237.779 140.266 237.779 139.846C237.779 139.239 237.597 138.773 237.233 138.446C236.878 138.11 236.346 137.942 235.637 137.942C234.76 137.942 233.896 138.259 233.047 138.894V137.83C233.812 137.279 234.727 137.004 235.791 137.004C236.752 137.004 237.504 137.265 238.045 137.788C238.596 138.301 238.871 138.987 238.871 139.846C238.871 140.294 238.768 140.733 238.563 141.162C238.358 141.582 238.073 142.007 237.709 142.436C237.354 142.856 236.869 143.374 236.253 143.99L234.181 146.076H239.263V147H232.571V146.272ZM246.263 139.51H247.341V143.108L251.373 139.51H252.647L250.603 141.344C251.378 141.531 251.919 141.839 252.227 142.268C252.535 142.688 252.689 143.248 252.689 143.948V147H251.611V144.004C251.611 143.416 251.481 142.968 251.219 142.66C250.967 142.352 250.529 142.133 249.903 142.002L247.341 144.284V147H246.263V139.51ZM257.024 147.21C256.203 147.21 255.554 147.009 255.078 146.608C254.602 146.197 254.364 145.609 254.364 144.844C254.364 144.097 254.63 143.509 255.162 143.08C255.694 142.641 256.408 142.422 257.304 142.422C258.275 142.422 259.157 142.609 259.95 142.982V142.17C259.95 141.479 259.763 140.975 259.39 140.658C259.017 140.331 258.41 140.168 257.57 140.168C257.131 140.168 256.702 140.21 256.282 140.294C255.862 140.369 255.498 140.476 255.19 140.616V139.748C255.47 139.617 255.848 139.51 256.324 139.426C256.8 139.342 257.262 139.3 257.71 139.3C258.83 139.3 259.661 139.557 260.202 140.07C260.753 140.574 261.028 141.269 261.028 142.156V147H259.95V143.85C259.213 143.477 258.363 143.29 257.402 143.29C256.73 143.29 256.235 143.421 255.918 143.682C255.601 143.934 255.442 144.321 255.442 144.844C255.442 145.357 255.587 145.735 255.876 145.978C256.165 146.221 256.627 146.342 257.262 146.342C257.589 146.342 257.897 146.3 258.186 146.216V147.07C257.859 147.163 257.472 147.21 257.024 147.21ZM258.588 138.306C258.233 138.306 257.972 138.217 257.804 138.04C257.636 137.863 257.552 137.601 257.552 137.256V136.598H258.546V137.074C258.546 137.242 258.579 137.359 258.644 137.424C258.709 137.48 258.835 137.508 259.022 137.508H262.298V138.306H258.588ZM263.404 142.24L262.704 141.134C263.171 140.537 263.712 140.084 264.328 139.776C264.944 139.459 265.677 139.3 266.526 139.3C267.609 139.3 268.435 139.547 269.004 140.042C269.573 140.537 269.858 141.232 269.858 142.128V147H268.78V142.226C268.78 141.526 268.589 141.008 268.206 140.672C267.833 140.336 267.273 140.168 266.526 140.168C265.947 140.168 265.443 140.257 265.014 140.434C264.585 140.602 264.202 140.877 263.866 141.26L264.482 142.226V147H263.404V142.24ZM33.98 159.51H35.03V160.602C35.394 160.163 35.8327 159.837 36.346 159.622C36.8593 159.407 37.382 159.3 37.914 159.3C38.81 159.3 39.5007 159.543 39.986 160.028C40.4713 160.513 40.714 161.143 40.714 161.918V167H39.636V161.974C39.636 161.405 39.4727 160.961 39.146 160.644C38.8193 160.327 38.3247 160.168 37.662 160.168C36.5327 160.168 35.6647 160.635 35.058 161.568V167H33.98V159.51ZM34.8773 157.508H39.7213V156.024H40.7153V158.306H34.8773V157.508ZM39.6933 152.742H40.6593V154.548H39.6933V152.742ZM45.9233 167.21C45.2233 167.21 44.6073 167.065 44.0753 166.776C43.5433 166.477 43.128 166.043 42.8293 165.474C42.54 164.905 42.3953 164.209 42.3953 163.388C42.3953 162.548 42.5026 161.82 42.7173 161.204C42.9413 160.588 43.2493 160.117 43.6413 159.79C44.0333 159.463 44.4813 159.3 44.9853 159.3C45.704 159.3 46.1986 159.603 46.4693 160.21C46.6186 159.911 46.8473 159.687 47.1553 159.538C47.4633 159.379 47.8086 159.3 48.1913 159.3C48.8073 159.3 49.2646 159.501 49.5633 159.902C49.8713 160.294 50.0253 160.821 50.0253 161.484V167H48.9473V161.554C48.9473 161.087 48.868 160.742 48.7093 160.518C48.56 160.285 48.308 160.168 47.9533 160.168C47.3466 160.168 46.9686 160.481 46.8193 161.106H46.1193C46.054 160.779 45.9466 160.541 45.7973 160.392C45.648 160.243 45.4286 160.168 45.1393 160.168C44.654 160.168 44.2526 160.448 43.9353 161.008C43.6273 161.568 43.4733 162.361 43.4733 163.388C43.4733 164.349 43.7066 165.082 44.1733 165.586C44.64 166.09 45.2746 166.342 46.0773 166.342C46.4226 166.342 46.754 166.3 47.0713 166.216V167.07C46.7633 167.163 46.3806 167.21 45.9233 167.21ZM44.1739 157.508H50.0119V158.306H44.1739V157.508ZM55.2339 167.21C54.5339 167.21 53.9179 167.065 53.3859 166.776C52.8539 166.477 52.4385 166.043 52.1399 165.474C51.8505 164.905 51.7059 164.209 51.7059 163.388C51.7059 162.1 52.0559 161.097 52.7559 160.378C53.4652 159.659 54.4452 159.3 55.6959 159.3C56.9745 159.3 57.8985 159.603 58.4679 160.21C59.0465 160.807 59.3359 161.563 59.3359 162.478V167H58.2579V162.464C58.2579 160.933 57.4039 160.168 55.6959 160.168C54.7812 160.168 54.0672 160.443 53.5539 160.994C53.0405 161.535 52.7839 162.333 52.7839 163.388C52.7839 164.349 53.0172 165.082 53.4839 165.586C53.9505 166.09 54.5852 166.342 55.3879 166.342C55.7332 166.342 56.0645 166.3 56.3819 166.216V167.07C56.0739 167.163 55.6912 167.21 55.2339 167.21ZM64.7684 167.21C64.0684 167.21 63.4524 167.084 62.9204 166.832C62.3977 166.58 61.9964 166.225 61.7164 165.768C61.4364 165.301 61.2964 164.769 61.2964 164.172V159.51H62.3744V164.186C62.3744 164.849 62.5797 165.376 62.9904 165.768C63.4104 166.151 64.0031 166.342 64.7684 166.342C65.5337 166.342 66.1217 166.151 66.5324 165.768C66.9524 165.376 67.1624 164.849 67.1624 164.186V159.51H68.2404V164.172C68.2404 164.769 68.1004 165.301 67.8204 165.768C67.5404 166.225 67.1344 166.58 66.6024 166.832C66.0797 167.084 65.4684 167.21 64.7684 167.21ZM73.0808 167.21C72.1661 167.21 71.4568 166.967 70.9528 166.482C70.4488 165.997 70.1968 165.348 70.1968 164.536V159.51H71.2748V164.494C71.2748 165.101 71.4475 165.563 71.7928 165.88C72.1381 166.188 72.6515 166.342 73.3328 166.342C74.3968 166.342 75.2368 165.866 75.8528 164.914V159.51H76.9308V167H75.8808V165.894C75.5355 166.342 75.1341 166.673 74.6768 166.888C74.2195 167.103 73.6875 167.21 73.0808 167.21ZM81.2721 167.21C80.4508 167.21 79.8021 167.009 79.3261 166.608C78.8501 166.197 78.6121 165.609 78.6121 164.844C78.6121 164.097 78.8781 163.509 79.4101 163.08C79.9421 162.641 80.6561 162.422 81.5521 162.422C82.5228 162.422 83.4048 162.609 84.1981 162.982V162.17C84.1981 161.479 84.0114 160.975 83.6381 160.658C83.2648 160.331 82.6581 160.168 81.8181 160.168C81.3794 160.168 80.9501 160.21 80.5301 160.294C80.1101 160.369 79.7461 160.476 79.4381 160.616V159.748C79.7181 159.617 80.0961 159.51 80.5721 159.426C81.0481 159.342 81.5101 159.3 81.9581 159.3C82.9008 159.3 83.6428 159.487 84.1841 159.86L84.9961 158.95H86.2001L84.8281 160.49C85.1268 160.938 85.2761 161.493 85.2761 162.156V167H84.1981V163.85C83.4608 163.477 82.6114 163.29 81.6501 163.29C80.3434 163.29 79.6901 163.808 79.6901 164.844C79.6901 165.357 79.8348 165.735 80.1241 165.978C80.4134 166.221 80.8754 166.342 81.5101 166.342C81.8368 166.342 82.1448 166.3 82.4341 166.216V167.07C82.1074 167.163 81.7201 167.21 81.2721 167.21ZM90.7124 167.21C90.0124 167.21 89.3964 167.065 88.8644 166.776C88.3324 166.477 87.917 166.043 87.6184 165.474C87.329 164.905 87.1844 164.209 87.1844 163.388C87.1844 162.548 87.2917 161.82 87.5064 161.204C87.7304 160.588 88.0384 160.117 88.4304 159.79C88.8224 159.463 89.2704 159.3 89.7744 159.3C90.493 159.3 90.9877 159.603 91.2584 160.21C91.4077 159.911 91.6364 159.687 91.9444 159.538C92.2524 159.379 92.5977 159.3 92.9804 159.3C93.5964 159.3 94.0537 159.501 94.3524 159.902C94.6604 160.294 94.8144 160.821 94.8144 161.484V167H93.7364V161.554C93.7364 161.087 93.657 160.742 93.4984 160.518C93.349 160.285 93.097 160.168 92.7424 160.168C92.1357 160.168 91.7577 160.481 91.6084 161.106H90.9084C90.843 160.779 90.7357 160.541 90.5864 160.392C90.437 160.243 90.2177 160.168 89.9284 160.168C89.443 160.168 89.0417 160.448 88.7244 161.008C88.4164 161.568 88.2624 162.361 88.2624 163.388C88.2624 164.349 88.4957 165.082 88.9624 165.586C89.429 166.09 90.0637 166.342 90.8664 166.342C91.2117 166.342 91.543 166.3 91.8604 166.216V167.07C91.5524 167.163 91.1697 167.21 90.7124 167.21ZM88.9629 157.508H94.8009V158.306H88.9629V157.508ZM97.1949 162.24L96.4949 161.134C96.9616 160.537 97.5029 160.084 98.1189 159.776C98.7349 159.459 99.4676 159.3 100.317 159.3C101.4 159.3 102.226 159.547 102.795 160.042C103.364 160.537 103.649 161.232 103.649 162.128V167H102.571V162.226C102.571 161.526 102.38 161.008 101.997 160.672C101.624 160.336 101.064 160.168 100.317 160.168C99.7383 160.168 99.2343 160.257 98.8049 160.434C98.3756 160.602 97.9929 160.877 97.6569 161.26L98.2729 162.226V167H97.1949V162.24ZM106.909 167C106.489 167 106.167 166.879 105.943 166.636C105.719 166.393 105.607 166.057 105.607 165.628V159.51H106.685V165.39C106.685 165.661 106.741 165.847 106.853 165.95C106.965 166.043 107.152 166.09 107.413 166.09H107.931V167H106.909ZM110.033 162.24L109.333 161.134C109.799 160.537 110.341 160.084 110.957 159.776C111.573 159.459 112.305 159.3 113.155 159.3C114.237 159.3 115.063 159.547 115.633 160.042C116.202 160.537 116.487 161.232 116.487 162.128V167H115.409V162.226C115.409 161.526 115.217 161.008 114.835 160.672C114.461 160.336 113.901 160.168 113.155 160.168C112.576 160.168 112.072 160.257 111.643 160.434C111.213 160.602 110.831 160.877 110.495 161.26L111.111 162.226V167H110.033V162.24ZM121.077 167.21C120.526 167.21 119.994 167.14 119.481 167C118.968 166.86 118.529 166.659 118.165 166.398V162.87H121.021V163.738H119.243V165.894C119.7 166.193 120.312 166.342 121.077 166.342C122.029 166.342 122.771 166.062 123.303 165.502C123.835 164.942 124.101 164.149 124.101 163.122C124.101 162.086 123.849 161.335 123.345 160.868C122.85 160.401 122.029 160.168 120.881 160.168C120.377 160.168 119.887 160.224 119.411 160.336C118.944 160.439 118.548 160.607 118.221 160.84V159.944C118.93 159.515 119.859 159.3 121.007 159.3C122.37 159.3 123.406 159.627 124.115 160.28C124.824 160.924 125.179 161.871 125.179 163.122C125.179 163.943 125.016 164.662 124.689 165.278C124.362 165.894 123.891 166.37 123.275 166.706C122.659 167.042 121.926 167.21 121.077 167.21ZM129.331 167.21C128.846 167.21 128.342 167.145 127.819 167.014C127.306 166.893 126.9 166.72 126.601 166.496V165.586C126.993 165.838 127.422 166.029 127.889 166.16C128.356 166.281 128.813 166.342 129.261 166.342C129.933 166.342 130.414 166.258 130.703 166.09C131.002 165.913 131.151 165.619 131.151 165.208C131.151 164.937 131.086 164.718 130.955 164.55C130.834 164.373 130.628 164.219 130.339 164.088C130.05 163.957 129.62 163.808 129.051 163.64C128.202 163.388 127.576 163.103 127.175 162.786C126.774 162.459 126.573 161.988 126.573 161.372C126.573 160.7 126.825 160.187 127.329 159.832C127.842 159.477 128.542 159.3 129.429 159.3C129.886 159.3 130.325 159.356 130.745 159.468C131.165 159.571 131.515 159.711 131.795 159.888V160.784C131.123 160.373 130.362 160.168 129.513 160.168C128.272 160.168 127.651 160.569 127.651 161.372C127.651 161.661 127.726 161.89 127.875 162.058C128.024 162.226 128.244 162.371 128.533 162.492C128.822 162.604 129.266 162.744 129.863 162.912C130.46 163.08 130.927 163.267 131.263 163.472C131.608 163.668 131.856 163.906 132.005 164.186C132.154 164.457 132.229 164.802 132.229 165.222C132.229 165.819 131.991 166.3 131.515 166.664C131.048 167.028 130.32 167.21 129.331 167.21ZM128.812 157.606C128.812 156.953 129.166 156.626 129.876 156.626H132.97V157.368H130.296C130.109 157.368 129.983 157.401 129.918 157.466C129.843 157.531 129.806 157.653 129.806 157.83V158.306H128.812V157.606ZM136.806 167.21C135.844 167.21 135.084 166.958 134.524 166.454C133.973 165.941 133.698 165.259 133.698 164.41V163.808C133.698 163.509 133.763 163.229 133.894 162.968C134.034 162.707 134.23 162.399 134.482 162.044C134.668 161.792 134.808 161.587 134.902 161.428C134.995 161.26 135.042 161.097 135.042 160.938C135.042 160.723 134.995 160.579 134.902 160.504C134.808 160.42 134.64 160.378 134.398 160.378H133.628V159.51H134.846C135.238 159.51 135.546 159.627 135.77 159.86C136.003 160.093 136.12 160.406 136.12 160.798C136.12 161.05 136.064 161.288 135.952 161.512C135.84 161.727 135.667 161.997 135.434 162.324C135.21 162.623 135.042 162.879 134.93 163.094C134.827 163.299 134.776 163.519 134.776 163.752V164.452C134.776 165.059 134.948 165.525 135.294 165.852C135.639 166.179 136.143 166.342 136.806 166.342C137.478 166.342 137.982 166.179 138.318 165.852C138.654 165.525 138.822 165.054 138.822 164.438V159.51H139.9V164.242C139.9 165.175 139.629 165.903 139.088 166.426C138.546 166.949 137.786 167.21 136.806 167.21ZM144.497 167.21C143.946 167.21 143.414 167.14 142.901 167C142.387 166.86 141.949 166.659 141.585 166.398V162.87H144.441V163.738H142.663V165.894C143.12 166.193 143.731 166.342 144.497 166.342C145.449 166.342 146.191 166.062 146.723 165.502C147.255 164.942 147.521 164.149 147.521 163.122C147.521 162.086 147.269 161.335 146.765 160.868C146.27 160.401 145.449 160.168 144.301 160.168C143.797 160.168 143.307 160.224 142.831 160.336C142.364 160.439 141.967 160.607 141.641 160.84V159.944C142.35 159.515 143.279 159.3 144.427 159.3C145.789 159.3 146.825 159.627 147.535 160.28C148.244 160.924 148.599 161.871 148.599 163.122C148.599 163.943 148.435 164.662 148.109 165.278C147.782 165.894 147.311 166.37 146.695 166.706C146.079 167.042 145.346 167.21 144.497 167.21ZM149.993 160.448H151.085L153.003 166.146C153.983 166.146 154.734 165.885 155.257 165.362C155.78 164.83 156.041 164.083 156.041 163.122C156.041 162.161 155.859 161.428 155.495 160.924C155.131 160.42 154.548 160.168 153.745 160.168C153.4 160.168 153.068 160.21 152.751 160.294V159.44C153.059 159.347 153.442 159.3 153.899 159.3C154.944 159.3 155.742 159.641 156.293 160.322C156.844 161.003 157.119 161.937 157.119 163.122C157.119 163.925 156.946 164.62 156.601 165.208C156.265 165.796 155.803 166.244 155.215 166.552C154.636 166.851 153.983 167 153.255 167H152.191L149.993 160.448ZM161.436 167.21C160.886 167.21 160.354 167.14 159.84 167C159.327 166.86 158.888 166.659 158.524 166.398V162.87H161.38V163.738H159.602V165.894C160.06 166.193 160.671 166.342 161.436 166.342C162.388 166.342 163.13 166.062 163.662 165.502C164.194 164.942 164.46 164.149 164.46 163.122C164.46 162.086 164.208 161.335 163.704 160.868C163.21 160.401 162.388 160.168 161.24 160.168C160.736 160.168 160.246 160.224 159.77 160.336C159.304 160.439 158.907 160.607 158.58 160.84V159.944C159.29 159.515 160.218 159.3 161.366 159.3C162.729 159.3 163.765 159.627 164.474 160.28C165.184 160.924 165.538 161.871 165.538 163.122C165.538 163.943 165.375 164.662 165.048 165.278C164.722 165.894 164.25 166.37 163.634 166.706C163.018 167.042 162.286 167.21 161.436 167.21ZM164.258 169.198C164.258 169.021 164.226 168.904 164.16 168.848C164.095 168.801 163.964 168.778 163.768 168.778H163.334V167.868H164.328C164.692 167.868 164.94 167.947 165.07 168.106C165.192 168.265 165.252 168.545 165.252 168.946V170.598H164.258V169.198ZM170.684 167.21C169.984 167.21 169.368 167.084 168.836 166.832C168.314 166.58 167.912 166.225 167.632 165.768C167.352 165.301 167.212 164.769 167.212 164.172V159.51H168.29V164.186C168.29 164.849 168.496 165.376 168.906 165.768C169.326 166.151 169.919 166.342 170.684 166.342C171.45 166.342 172.038 166.151 172.448 165.768C172.868 165.376 173.078 164.849 173.078 164.186V157.004H174.156V164.172C174.156 164.769 174.016 165.301 173.736 165.768C173.456 166.225 173.05 166.58 172.518 166.832C171.996 167.084 171.384 167.21 170.684 167.21ZM176.533 162.24L175.833 161.134C176.299 160.537 176.841 160.084 177.457 159.776C178.073 159.459 178.805 159.3 179.655 159.3C180.737 159.3 181.563 159.547 182.133 160.042C182.702 160.537 182.987 161.232 182.987 162.128V167H181.909V162.226C181.909 161.526 181.717 161.008 181.335 160.672C180.961 160.336 180.401 160.168 179.655 160.168C179.076 160.168 178.572 160.257 178.143 160.434C177.713 160.602 177.331 160.877 176.995 161.26L177.611 162.226V167H176.533V162.24ZM187.423 167.21C186.938 167.21 186.434 167.145 185.911 167.014C185.398 166.893 184.992 166.72 184.693 166.496V165.586C185.085 165.838 185.514 166.029 185.981 166.16C186.448 166.281 186.905 166.342 187.353 166.342C188.025 166.342 188.506 166.258 188.795 166.09C189.094 165.913 189.243 165.619 189.243 165.208C189.243 164.937 189.178 164.718 189.047 164.55C188.926 164.373 188.72 164.219 188.431 164.088C188.142 163.957 187.712 163.808 187.143 163.64C186.294 163.388 185.668 163.103 185.267 162.786C184.866 162.459 184.665 161.988 184.665 161.372C184.665 160.7 184.917 160.187 185.421 159.832C185.934 159.477 186.634 159.3 187.521 159.3C187.978 159.3 188.417 159.356 188.837 159.468C189.257 159.571 189.607 159.711 189.887 159.888V160.784C189.215 160.373 188.454 160.168 187.605 160.168C186.364 160.168 185.743 160.569 185.743 161.372C185.743 161.661 185.818 161.89 185.967 162.058C186.116 162.226 186.336 162.371 186.625 162.492C186.914 162.604 187.358 162.744 187.955 162.912C188.552 163.08 189.019 163.267 189.355 163.472C189.7 163.668 189.948 163.906 190.097 164.186C190.246 164.457 190.321 164.802 190.321 165.222C190.321 165.819 190.083 166.3 189.607 166.664C189.14 167.028 188.412 167.21 187.423 167.21ZM200.26 167.21C199.382 167.21 198.706 166.967 198.23 166.482C197.754 165.997 197.516 165.348 197.516 164.536V162.226C197.516 161.517 197.338 160.999 196.984 160.672C196.638 160.336 196.111 160.168 195.402 160.168C194.86 160.168 194.394 160.252 194.002 160.42C193.61 160.588 193.236 160.868 192.882 161.26L193.498 162.226V165.362C193.498 165.633 193.549 165.824 193.652 165.936C193.764 166.039 193.95 166.09 194.212 166.09H195.024V167H193.764C193.325 167 192.989 166.879 192.756 166.636C192.532 166.393 192.42 166.057 192.42 165.628V162.24L191.72 161.134C192.196 160.527 192.723 160.07 193.302 159.762C193.89 159.454 194.59 159.3 195.402 159.3C196.447 159.3 197.236 159.547 197.768 160.042C198.309 160.537 198.58 161.232 198.58 162.128V164.494C198.58 165.726 199.224 166.342 200.512 166.342C201.473 166.342 202.262 165.866 202.878 164.914V159.51H203.956V167H202.92V165.922C202.257 166.781 201.37 167.21 200.26 167.21ZM200.822 157.606C200.822 156.953 201.176 156.626 201.885 156.626H204.98V157.368H202.305C202.119 157.368 201.993 157.401 201.927 157.466C201.853 157.531 201.815 157.653 201.815 157.83V158.306H200.822V157.606Z" fill="#4E5256"/>
<rect x="86" y="301" width="217" height="44" rx="22" fill="#16AD78"/>
<path d="M178.412 328.24C177.079 328.24 176.012 328 175.212 327.52C174.412 327.029 174.012 326.331 174.012 325.424C174.012 325.008 174.124 324.635 174.348 324.304C174.583 323.963 174.892 323.717 175.276 323.568C174.924 323.387 174.636 323.125 174.412 322.784C174.199 322.443 174.092 322.069 174.092 321.664C174.092 320.917 174.353 320.32 174.876 319.872C175.409 319.424 176.177 319.2 177.18 319.2C177.489 319.2 177.793 319.221 178.092 319.264C178.401 319.307 178.636 319.355 178.796 319.408V321.232C178.647 321.168 178.465 321.115 178.252 321.072C178.049 321.029 177.863 321.008 177.692 321.008C176.945 321.008 176.572 321.285 176.572 321.84C176.572 322.128 176.663 322.347 176.844 322.496C177.036 322.635 177.329 322.704 177.724 322.704H178.796V324.416H177.724C176.913 324.416 176.508 324.736 176.508 325.376C176.508 325.717 176.668 325.984 176.988 326.176C177.319 326.357 177.793 326.448 178.412 326.448C179.159 326.448 179.703 326.299 180.044 326C180.396 325.691 180.572 325.232 180.572 324.624V319.424H183.004V324.608C183.004 325.216 182.849 325.797 182.54 326.352C182.231 326.896 181.735 327.349 181.052 327.712C180.369 328.064 179.489 328.24 178.412 328.24ZM175.62 316.848H178.596V315.152H180.276V316.848H181.348V315.152H183.012V318.384H175.62V316.848ZM188.004 328.24C187.31 328.24 186.713 328.096 186.212 327.808C185.71 327.52 185.326 327.125 185.06 326.624C184.804 326.123 184.676 325.563 184.676 324.944V319.44H187.108V324.8C187.108 325.835 187.657 326.352 188.756 326.352C189.204 326.352 189.588 326.261 189.908 326.08C190.238 325.888 190.526 325.595 190.772 325.2V319.44H193.188V328H190.884V327.04C190.51 327.435 190.068 327.733 189.556 327.936C189.054 328.139 188.537 328.24 188.004 328.24ZM198.943 328.24C197.61 328.24 196.543 328 195.743 327.52C194.943 327.029 194.543 326.331 194.543 325.424C194.543 325.008 194.655 324.635 194.879 324.304C195.114 323.963 195.423 323.717 195.807 323.568C195.455 323.387 195.167 323.125 194.943 322.784C194.73 322.443 194.623 322.069 194.623 321.664C194.623 320.917 194.885 320.32 195.407 319.872C195.941 319.424 196.709 319.2 197.711 319.2C198.021 319.2 198.325 319.221 198.623 319.264C198.933 319.307 199.167 319.355 199.327 319.408V321.232C199.178 321.168 198.997 321.115 198.783 321.072C198.581 321.029 198.394 321.008 198.223 321.008C197.477 321.008 197.103 321.285 197.103 321.84C197.103 322.128 197.194 322.347 197.375 322.496C197.567 322.635 197.861 322.704 198.255 322.704H199.327V324.416H198.255C197.445 324.416 197.039 324.736 197.039 325.376C197.039 325.717 197.199 325.984 197.519 326.176C197.85 326.357 198.325 326.448 198.943 326.448C199.69 326.448 200.234 326.299 200.575 326C200.927 325.691 201.103 325.232 201.103 324.624V319.424H203.535V324.608C203.535 325.216 203.381 325.797 203.071 326.352C202.762 326.896 202.266 327.349 201.583 327.712C200.901 328.064 200.021 328.24 198.943 328.24ZM200.231 318.384C199.207 318.384 198.695 317.867 198.695 316.832V315.664H200.871V316.448C200.871 316.597 200.903 316.704 200.967 316.768C201.02 316.821 201.127 316.848 201.287 316.848H204.935V318.384H200.231ZM208.535 328.24C207.842 328.24 207.244 328.096 206.743 327.808C206.242 327.52 205.858 327.125 205.591 326.624C205.335 326.123 205.207 325.563 205.207 324.944V319.44H207.639V324.8C207.639 325.835 208.188 326.352 209.287 326.352C209.735 326.352 210.119 326.261 210.439 326.08C210.77 325.888 211.058 325.595 211.303 325.2V319.44H213.719V328H211.415V327.04C211.042 327.435 210.599 327.733 210.087 327.936C209.586 328.139 209.068 328.24 208.535 328.24Z" fill="white"/>
<path d="M112.228 203.21C111.108 203.21 110.226 202.893 109.582 202.258C108.947 201.623 108.63 200.69 108.63 199.458C108.63 198.609 108.747 197.871 108.98 197.246C109.213 196.621 109.531 196.14 109.932 195.804C110.343 195.468 110.809 195.3 111.332 195.3C112.041 195.3 112.541 195.585 112.83 196.154C112.989 195.865 113.227 195.65 113.544 195.51C113.861 195.37 114.216 195.3 114.608 195.3C115.252 195.3 115.733 195.505 116.05 195.916C116.377 196.327 116.54 196.877 116.54 197.568V203H115.112V197.666C115.112 197.246 115.047 196.938 114.916 196.742C114.785 196.537 114.561 196.434 114.244 196.434C113.712 196.434 113.381 196.723 113.25 197.302H112.41C112.363 197.013 112.27 196.798 112.13 196.658C111.999 196.509 111.808 196.434 111.556 196.434C111.117 196.434 110.758 196.695 110.478 197.218C110.207 197.741 110.072 198.487 110.072 199.458C110.072 200.354 110.268 201.017 110.66 201.446C111.052 201.875 111.654 202.09 112.466 202.09C112.821 202.09 113.147 202.043 113.446 201.95V203.056C113.119 203.159 112.713 203.21 112.228 203.21ZM113.905 194.404C113.504 194.404 113.215 194.306 113.037 194.11C112.851 193.905 112.757 193.601 112.757 193.2V192.472H114.045V193.032C114.045 193.191 114.078 193.298 114.143 193.354C114.199 193.41 114.311 193.438 114.479 193.438H117.783V194.404H113.905ZM120.807 203.21C119.631 203.21 118.721 203 118.077 202.58V201.432C118.703 201.871 119.519 202.09 120.527 202.09C121.442 202.09 122.151 201.852 122.655 201.376C123.169 200.9 123.425 200.195 123.425 199.262C123.425 198.329 123.169 197.624 122.655 197.148C122.151 196.672 121.442 196.434 120.527 196.434C119.547 196.434 118.74 196.653 118.105 197.092V195.93C118.759 195.51 119.659 195.3 120.807 195.3C122.067 195.3 123.061 195.65 123.789 196.35C124.517 197.041 124.881 198.011 124.881 199.262C124.881 200.513 124.517 201.483 123.789 202.174C123.061 202.865 122.067 203.21 120.807 203.21ZM129.196 203.21C128.617 203.21 128.057 203.14 127.516 203C126.974 202.869 126.517 202.683 126.144 202.44V198.716H129.252V199.864H127.572V201.726C127.973 201.969 128.514 202.09 129.196 202.09C130.092 202.09 130.773 201.843 131.24 201.348C131.716 200.853 131.954 200.135 131.954 199.192C131.954 198.249 131.711 197.554 131.226 197.106C130.75 196.658 129.966 196.434 128.874 196.434C128.379 196.434 127.894 196.485 127.418 196.588C126.942 196.681 126.54 196.835 126.214 197.05V195.916C126.578 195.711 127.007 195.557 127.502 195.454C127.996 195.351 128.528 195.3 129.098 195.3C130.498 195.3 131.566 195.641 132.304 196.322C133.041 197.003 133.41 197.96 133.41 199.192C133.41 200.433 133.041 201.413 132.304 202.132C131.576 202.851 130.54 203.21 129.196 203.21ZM138.231 203.21C137.148 203.21 136.285 203.005 135.641 202.594C134.997 202.183 134.675 201.586 134.675 200.802C134.675 200.391 134.787 200.032 135.011 199.724C135.244 199.407 135.552 199.187 135.935 199.066C135.571 198.907 135.277 198.679 135.053 198.38C134.838 198.081 134.731 197.736 134.731 197.344C134.731 196.728 134.936 196.233 135.347 195.86C135.758 195.487 136.36 195.3 137.153 195.3C137.377 195.3 137.606 195.319 137.839 195.356C138.072 195.384 138.259 195.417 138.399 195.454V196.574C138.278 196.527 138.119 196.495 137.923 196.476C137.736 196.448 137.564 196.434 137.405 196.434C137.004 196.434 136.696 196.523 136.481 196.7C136.276 196.868 136.173 197.111 136.173 197.428C136.173 197.764 136.285 198.021 136.509 198.198C136.733 198.375 137.064 198.464 137.503 198.464H138.399V199.64H137.517C137.069 199.64 136.724 199.738 136.481 199.934C136.238 200.121 136.117 200.41 136.117 200.802C136.117 201.213 136.304 201.53 136.677 201.754C137.06 201.978 137.578 202.09 138.231 202.09C139.771 202.09 140.541 201.437 140.541 200.13V195.51H141.969V200.102C141.969 200.625 141.848 201.124 141.605 201.6C141.362 202.067 140.961 202.454 140.401 202.762C139.85 203.061 139.127 203.21 138.231 203.21ZM140.581 192.066H141.995V194.404H140.581V192.066ZM146.419 198.156C146.419 197.559 146.298 197.125 146.055 196.854C145.812 196.574 145.383 196.434 144.767 196.434C144.17 196.434 143.61 196.565 143.087 196.826V195.706C143.311 195.594 143.6 195.501 143.955 195.426C144.319 195.342 144.678 195.3 145.033 195.3C145.976 195.3 146.68 195.557 147.147 196.07C147.614 196.574 147.847 197.302 147.847 198.254V203H146.419V198.156ZM149.386 196.448H150.814L152.592 201.88C153.469 201.88 154.146 201.637 154.622 201.152C155.098 200.667 155.336 199.981 155.336 199.094C155.336 198.217 155.173 197.554 154.846 197.106C154.519 196.658 153.997 196.434 153.278 196.434C152.942 196.434 152.615 196.476 152.298 196.56V195.454C152.671 195.351 153.077 195.3 153.516 195.3C154.58 195.3 155.392 195.636 155.952 196.308C156.512 196.98 156.792 197.909 156.792 199.094C156.792 199.906 156.615 200.606 156.26 201.194C155.915 201.782 155.443 202.23 154.846 202.538C154.249 202.846 153.586 203 152.858 203H151.514L149.386 196.448ZM158.824 197.806C158.609 197.806 158.427 197.731 158.278 197.582C158.128 197.433 158.054 197.251 158.054 197.036C158.054 196.821 158.128 196.639 158.278 196.49C158.427 196.331 158.609 196.252 158.824 196.252C159.038 196.252 159.22 196.331 159.37 196.49C159.519 196.639 159.594 196.821 159.594 197.036C159.594 197.241 159.519 197.423 159.37 197.582C159.22 197.731 159.038 197.806 158.824 197.806ZM158.824 202.72C158.609 202.72 158.427 202.645 158.278 202.496C158.128 202.347 158.054 202.165 158.054 201.95C158.054 201.735 158.128 201.553 158.278 201.404C158.427 201.245 158.609 201.166 158.824 201.166C159.038 201.166 159.22 201.245 159.37 201.404C159.519 201.553 159.594 201.735 159.594 201.95C159.594 202.155 159.519 202.337 159.37 202.496C159.22 202.645 159.038 202.72 158.824 202.72ZM169.02 203.21C168.451 203.21 167.905 203.163 167.382 203.07C166.869 202.986 166.421 202.855 166.038 202.678V201.502C166.906 201.894 167.84 202.09 168.838 202.09C169.697 202.09 170.332 201.936 170.742 201.628C171.162 201.311 171.372 200.863 171.372 200.284C171.372 199.687 171.158 199.262 170.728 199.01C170.299 198.749 169.646 198.618 168.768 198.618H167.62V197.47H168.74C169.44 197.47 170.005 197.33 170.434 197.05C170.864 196.761 171.078 196.341 171.078 195.79C171.078 195.249 170.901 194.838 170.546 194.558C170.192 194.278 169.678 194.138 169.006 194.138C168.484 194.138 168.012 194.199 167.592 194.32C167.172 194.441 166.738 194.642 166.29 194.922V193.746C167.112 193.251 168.073 193.004 169.174 193.004C170.266 193.004 171.097 193.247 171.666 193.732C172.236 194.217 172.52 194.889 172.52 195.748C172.52 196.271 172.38 196.728 172.1 197.12C171.82 197.512 171.4 197.815 170.84 198.03C171.475 198.179 171.96 198.45 172.296 198.842C172.642 199.234 172.814 199.729 172.814 200.326C172.814 201.213 172.511 201.917 171.904 202.44C171.298 202.953 170.336 203.21 169.02 203.21ZM179.257 203.21C178.249 203.21 177.353 203 176.569 202.58C175.785 202.16 175.174 201.567 174.735 200.802C174.297 200.027 174.077 199.131 174.077 198.114C174.077 197.097 174.297 196.201 174.735 195.426C175.174 194.651 175.785 194.054 176.569 193.634C177.353 193.214 178.249 193.004 179.257 193.004C180.601 193.004 181.726 193.345 182.631 194.026V195.398C181.819 194.679 180.737 194.32 179.383 194.32C178.627 194.32 177.955 194.474 177.367 194.782C176.789 195.09 176.336 195.533 176.009 196.112C175.683 196.681 175.519 197.349 175.519 198.114C175.519 198.879 175.683 199.551 176.009 200.13C176.345 200.709 176.803 201.152 177.381 201.46C177.969 201.768 178.637 201.922 179.383 201.922C180.074 201.922 180.69 201.833 181.231 201.656C181.782 201.469 182.291 201.175 182.757 200.774V202.16C181.917 202.86 180.751 203.21 179.257 203.21ZM184.787 197.806C184.572 197.806 184.39 197.731 184.241 197.582C184.091 197.433 184.017 197.251 184.017 197.036C184.017 196.821 184.091 196.639 184.241 196.49C184.39 196.331 184.572 196.252 184.787 196.252C185.001 196.252 185.183 196.331 185.333 196.49C185.482 196.639 185.557 196.821 185.557 197.036C185.557 197.241 185.482 197.423 185.333 197.582C185.183 197.731 185.001 197.806 184.787 197.806ZM184.787 202.72C184.572 202.72 184.39 202.645 184.241 202.496C184.091 202.347 184.017 202.165 184.017 201.95C184.017 201.735 184.091 201.553 184.241 201.404C184.39 201.245 184.572 201.166 184.787 201.166C185.001 201.166 185.183 201.245 185.333 201.404C185.482 201.553 185.557 201.735 185.557 201.95C185.557 202.155 185.482 202.337 185.333 202.496C185.183 202.645 185.001 202.72 184.787 202.72ZM191.873 194.418H186.679V193.214H193.329V194.264L189.395 203H187.995L191.873 194.418ZM196.562 194.754L194.448 196.28V194.922L196.758 193.214H197.99V203H196.562V194.754ZM200.304 197.806C200.09 197.806 199.908 197.731 199.758 197.582C199.609 197.433 199.534 197.251 199.534 197.036C199.534 196.821 199.609 196.639 199.758 196.49C199.908 196.331 200.09 196.252 200.304 196.252C200.519 196.252 200.701 196.331 200.85 196.49C201 196.639 201.074 196.821 201.074 197.036C201.074 197.241 201 197.423 200.85 197.582C200.701 197.731 200.519 197.806 200.304 197.806ZM200.304 202.72C200.09 202.72 199.908 202.645 199.758 202.496C199.609 202.347 199.534 202.165 199.534 201.95C199.534 201.735 199.609 201.553 199.758 201.404C199.908 201.245 200.09 201.166 200.304 201.166C200.519 201.166 200.701 201.245 200.85 201.404C201 201.553 201.074 201.735 201.074 201.95C201.074 202.155 201 202.337 200.85 202.496C200.701 202.645 200.519 202.72 200.304 202.72ZM202.617 193.214H207.111C207.979 193.214 208.651 193.438 209.127 193.886C209.603 194.334 209.841 194.987 209.841 195.846C209.841 196.331 209.724 196.761 209.491 197.134C209.267 197.498 208.968 197.769 208.595 197.946C209.64 198.254 210.163 199.015 210.163 200.228C210.163 200.797 210.037 201.292 209.785 201.712C209.542 202.123 209.206 202.44 208.777 202.664C208.348 202.888 207.872 203 207.349 203H202.617V193.214ZM206.929 197.414C207.386 197.414 207.746 197.288 208.007 197.036C208.268 196.784 208.399 196.411 208.399 195.916C208.399 195.347 208.268 194.95 208.007 194.726C207.755 194.493 207.363 194.376 206.831 194.376H204.045V197.414H206.929ZM207.027 201.838C207.578 201.838 207.998 201.717 208.287 201.474C208.576 201.231 208.721 200.816 208.721 200.228C208.721 199.64 208.567 199.22 208.259 198.968C207.96 198.716 207.508 198.59 206.901 198.59H204.045V201.838H207.027ZM211.709 193.214H218.163V194.418H213.137V197.54H216.889V198.674H213.137V203H211.709V193.214ZM219.91 197.806C219.695 197.806 219.513 197.731 219.364 197.582C219.214 197.433 219.14 197.251 219.14 197.036C219.14 196.821 219.214 196.639 219.364 196.49C219.513 196.331 219.695 196.252 219.91 196.252C220.124 196.252 220.306 196.331 220.456 196.49C220.605 196.639 220.68 196.821 220.68 197.036C220.68 197.241 220.605 197.423 220.456 197.582C220.306 197.731 220.124 197.806 219.91 197.806ZM219.91 202.72C219.695 202.72 219.513 202.645 219.364 202.496C219.214 202.347 219.14 202.165 219.14 201.95C219.14 201.735 219.214 201.553 219.364 201.404C219.513 201.245 219.695 201.166 219.91 201.166C220.124 201.166 220.306 201.245 220.456 201.404C220.605 201.553 220.68 201.735 220.68 201.95C220.68 202.155 220.605 202.337 220.456 202.496C220.306 202.645 220.124 202.72 219.91 202.72ZM225.527 203.21C224.425 203.21 223.553 202.963 222.909 202.468C222.265 201.964 221.943 201.25 221.943 200.326C221.943 199.701 222.106 199.178 222.433 198.758C222.759 198.329 223.193 198.039 223.735 197.89C223.287 197.703 222.932 197.419 222.671 197.036C222.409 196.644 222.279 196.191 222.279 195.678C222.279 194.857 222.573 194.208 223.16 193.732C223.749 193.247 224.537 193.004 225.527 193.004C226.507 193.004 227.291 193.247 227.879 193.732C228.467 194.208 228.761 194.857 228.761 195.678C228.761 196.191 228.63 196.644 228.369 197.036C228.107 197.419 227.753 197.703 227.305 197.89C227.846 198.039 228.28 198.329 228.607 198.758C228.943 199.178 229.111 199.701 229.111 200.326C229.111 201.25 228.789 201.964 228.145 202.468C227.501 202.963 226.628 203.21 225.527 203.21ZM225.527 197.456C226.077 197.456 226.525 197.307 226.871 197.008C227.216 196.7 227.389 196.299 227.389 195.804C227.389 195.3 227.216 194.889 226.871 194.572C226.535 194.255 226.087 194.096 225.527 194.096C224.967 194.096 224.514 194.255 224.169 194.572C223.833 194.889 223.665 195.3 223.665 195.804C223.665 196.299 223.837 196.7 224.183 197.008C224.528 197.307 224.976 197.456 225.527 197.456ZM225.527 202.174C226.199 202.174 226.726 202.001 227.109 201.656C227.491 201.311 227.683 200.835 227.683 200.228C227.683 199.649 227.482 199.192 227.081 198.856C226.689 198.52 226.171 198.352 225.527 198.352C224.883 198.352 224.36 198.52 223.959 198.856C223.557 199.192 223.357 199.649 223.357 200.228C223.357 200.835 223.548 201.311 223.931 201.656C224.323 202.001 224.855 202.174 225.527 202.174ZM234.27 193.214H235.642L239.548 203H238.092L237.112 200.564H232.786L231.834 203H230.364L234.27 193.214ZM236.72 199.374L234.956 194.796L233.192 199.374H236.72ZM241.58 197.806C241.365 197.806 241.183 197.731 241.034 197.582C240.884 197.433 240.81 197.251 240.81 197.036C240.81 196.821 240.884 196.639 241.034 196.49C241.183 196.331 241.365 196.252 241.58 196.252C241.794 196.252 241.976 196.331 242.126 196.49C242.275 196.639 242.35 196.821 242.35 197.036C242.35 197.241 242.275 197.423 242.126 197.582C241.976 197.731 241.794 197.806 241.58 197.806ZM241.58 202.72C241.365 202.72 241.183 202.645 241.034 202.496C240.884 202.347 240.81 202.165 240.81 201.95C240.81 201.735 240.884 201.553 241.034 201.404C241.183 201.245 241.365 201.166 241.58 201.166C241.794 201.166 241.976 201.245 242.126 201.404C242.275 201.553 242.35 201.735 242.35 201.95C242.35 202.155 242.275 202.337 242.126 202.496C241.976 202.645 241.794 202.72 241.58 202.72ZM243.892 193.214H250.346V194.418H245.32V197.54H249.072V198.674H245.32V203H243.892V193.214ZM255.397 203.21C254.557 203.21 253.829 203.005 253.213 202.594C252.607 202.183 252.14 201.595 251.813 200.83C251.487 200.065 251.323 199.159 251.323 198.114C251.323 197.069 251.482 196.163 251.799 195.398C252.126 194.623 252.593 194.031 253.199 193.62C253.815 193.209 254.548 193.004 255.397 193.004C256.247 193.004 256.975 193.209 257.581 193.62C258.197 194.031 258.664 194.623 258.981 195.398C259.308 196.163 259.471 197.069 259.471 198.114C259.471 199.159 259.308 200.065 258.981 200.83C258.655 201.595 258.183 202.183 257.567 202.594C256.961 203.005 256.237 203.21 255.397 203.21ZM255.397 201.95C256.228 201.95 256.877 201.609 257.343 200.928C257.819 200.237 258.057 199.304 258.057 198.128C258.057 196.952 257.824 196.019 257.357 195.328C256.891 194.637 256.237 194.292 255.397 194.292C254.557 194.292 253.904 194.637 253.437 195.328C252.971 196.019 252.737 196.952 252.737 198.128C252.737 199.304 252.971 200.237 253.437 200.928C253.913 201.609 254.567 201.95 255.397 201.95ZM261.5 197.806C261.285 197.806 261.103 197.731 260.954 197.582C260.804 197.433 260.73 197.251 260.73 197.036C260.73 196.821 260.804 196.639 260.954 196.49C261.103 196.331 261.285 196.252 261.5 196.252C261.714 196.252 261.896 196.331 262.046 196.49C262.195 196.639 262.27 196.821 262.27 197.036C262.27 197.241 262.195 197.423 262.046 197.582C261.896 197.731 261.714 197.806 261.5 197.806ZM261.5 202.72C261.285 202.72 261.103 202.645 260.954 202.496C260.804 202.347 260.73 202.165 260.73 201.95C260.73 201.735 260.804 201.553 260.954 201.404C261.103 201.245 261.285 201.166 261.5 201.166C261.714 201.166 261.896 201.245 262.046 201.404C262.195 201.553 262.27 201.735 262.27 201.95C262.27 202.155 262.195 202.337 262.046 202.496C261.896 202.645 261.714 202.72 261.5 202.72ZM263.812 193.214H268.306C269.174 193.214 269.846 193.438 270.322 193.886C270.798 194.334 271.036 194.987 271.036 195.846C271.036 196.331 270.92 196.761 270.686 197.134C270.462 197.498 270.164 197.769 269.79 197.946C270.836 198.254 271.358 199.015 271.358 200.228C271.358 200.797 271.232 201.292 270.98 201.712C270.738 202.123 270.402 202.44 269.972 202.664C269.543 202.888 269.067 203 268.544 203H263.812V193.214ZM268.124 197.414C268.582 197.414 268.941 197.288 269.202 197.036C269.464 196.784 269.594 196.411 269.594 195.916C269.594 195.347 269.464 194.95 269.202 194.726C268.95 194.493 268.558 194.376 268.026 194.376H265.24V197.414H268.124ZM268.222 201.838C268.773 201.838 269.193 201.717 269.482 201.474C269.772 201.231 269.916 200.816 269.916 200.228C269.916 199.64 269.762 199.22 269.454 198.968C269.156 198.716 268.703 198.59 268.096 198.59H265.24V201.838H268.222ZM277.104 200.592H272.344V199.682L277.09 193.214H278.546V199.472H280.058V200.592H278.546V203H277.104V200.592ZM277.272 199.472V194.922L273.954 199.472H277.272Z" fill="#4E5256"/>
</svg>
