<svg width="390" height="849" viewBox="0 0 390 849" fill="none" xmlns="http://www.w3.org/2000/svg">
<rect y="5" width="390" height="844" rx="32" fill="white"/>
<path fill-rule="evenodd" clip-rule="evenodd" d="M121 838.5C121 837.119 122.119 836 123.5 836H266.5C267.881 836 269 837.119 269 838.5C269 839.881 267.881 841 266.5 841H123.5C122.119 841 121 839.881 121 838.5Z" fill="#090A0A"/>
<path d="M54.0688 36V26.1304H53.9194L50.9395 28.2305V26.2217L54.0688 24.022H56.2021V36H54.0688ZM63.4219 36.2988C62.4701 36.2988 61.6538 36.0443 60.9731 35.5352C60.298 35.026 59.7778 34.3011 59.4126 33.3604C59.0474 32.4196 58.8647 31.3045 58.8647 30.0151V29.9985C58.8647 28.7091 59.0474 27.5968 59.4126 26.6616C59.7778 25.7209 60.298 24.9959 60.9731 24.4868C61.6538 23.9777 62.4701 23.7231 63.4219 23.7231C64.3737 23.7231 65.1899 23.9777 65.8706 24.4868C66.5513 24.9959 67.0742 25.7209 67.4395 26.6616C67.8047 27.5968 67.9873 28.7091 67.9873 29.9985V30.0151C67.9873 31.3045 67.8047 32.4196 67.4395 33.3604C67.0742 34.3011 66.5513 35.026 65.8706 35.5352C65.1899 36.0443 64.3737 36.2988 63.4219 36.2988ZM63.4219 34.564C63.931 34.564 64.3654 34.3813 64.7251 34.0161C65.0848 33.6509 65.3587 33.1307 65.5469 32.4556C65.7406 31.7749 65.8374 30.9614 65.8374 30.0151V29.9985C65.8374 29.0522 65.7406 28.2415 65.5469 27.5664C65.3587 26.8857 65.0848 26.3656 64.7251 26.0059C64.3654 25.6406 63.931 25.458 63.4219 25.458C62.9128 25.458 62.4784 25.6406 62.1187 26.0059C61.7645 26.3656 61.4906 26.8857 61.2969 27.5664C61.1087 28.2415 61.0146 29.0522 61.0146 29.9985V30.0151C61.0146 30.9614 61.1087 31.7749 61.2969 32.4556C61.4906 33.1307 61.7645 33.6509 62.1187 34.0161C62.4784 34.3813 62.9128 34.564 63.4219 34.564ZM71.2974 34.3896C70.9211 34.3896 70.6056 34.2651 70.3511 34.0161C70.1021 33.7616 69.9775 33.4517 69.9775 33.0864C69.9775 32.7157 70.1021 32.4058 70.3511 32.1567C70.6056 31.9022 70.9211 31.7749 71.2974 31.7749C71.6792 31.7749 71.9946 31.9022 72.2437 32.1567C72.4927 32.4058 72.6172 32.7157 72.6172 33.0864C72.6172 33.4517 72.4927 33.7616 72.2437 34.0161C71.9946 34.2651 71.6792 34.3896 71.2974 34.3896ZM71.2974 28.2305C70.9211 28.2305 70.6056 28.106 70.3511 27.8569C70.1021 27.6024 69.9775 27.2925 69.9775 26.9272C69.9775 26.5565 70.1021 26.2466 70.3511 25.9976C70.6056 25.743 70.9211 25.6157 71.2974 25.6157C71.6792 25.6157 71.9946 25.743 72.2437 25.9976C72.4927 26.2466 72.6172 26.5565 72.6172 26.9272C72.6172 27.2925 72.4927 27.6024 72.2437 27.8569C71.9946 28.106 71.6792 28.2305 71.2974 28.2305ZM79.1562 36.2988C78.2044 36.2988 77.3882 36.0443 76.7075 35.5352C76.0324 35.026 75.5122 34.3011 75.147 33.3604C74.7817 32.4196 74.5991 31.3045 74.5991 30.0151V29.9985C74.5991 28.7091 74.7817 27.5968 75.147 26.6616C75.5122 25.7209 76.0324 24.9959 76.7075 24.4868C77.3882 23.9777 78.2044 23.7231 79.1562 23.7231C80.1081 23.7231 80.9243 23.9777 81.605 24.4868C82.2856 24.9959 82.8086 25.7209 83.1738 26.6616C83.5391 27.5968 83.7217 28.7091 83.7217 29.9985V30.0151C83.7217 31.3045 83.5391 32.4196 83.1738 33.3604C82.8086 34.3011 82.2856 35.026 81.605 35.5352C80.9243 36.0443 80.1081 36.2988 79.1562 36.2988ZM79.1562 34.564C79.6654 34.564 80.0998 34.3813 80.4595 34.0161C80.8192 33.6509 81.0931 33.1307 81.2812 32.4556C81.4749 31.7749 81.5718 30.9614 81.5718 30.0151V29.9985C81.5718 29.0522 81.4749 28.2415 81.2812 27.5664C81.0931 26.8857 80.8192 26.3656 80.4595 26.0059C80.0998 25.6406 79.6654 25.458 79.1562 25.458C78.6471 25.458 78.2127 25.6406 77.853 26.0059C77.4989 26.3656 77.2249 26.8857 77.0312 27.5664C76.8431 28.2415 76.749 29.0522 76.749 29.9985V30.0151C76.749 30.9614 76.8431 31.7749 77.0312 32.4556C77.2249 33.1307 77.4989 33.6509 77.853 34.0161C78.2127 34.3813 78.6471 34.564 79.1562 34.564ZM89.9619 36.2988C89.0101 36.2988 88.1938 36.0443 87.5132 35.5352C86.8381 35.026 86.3179 34.3011 85.9526 33.3604C85.5874 32.4196 85.4048 31.3045 85.4048 30.0151V29.9985C85.4048 28.7091 85.5874 27.5968 85.9526 26.6616C86.3179 25.7209 86.8381 24.9959 87.5132 24.4868C88.1938 23.9777 89.0101 23.7231 89.9619 23.7231C90.9137 23.7231 91.73 23.9777 92.4106 24.4868C93.0913 24.9959 93.6143 25.7209 93.9795 26.6616C94.3447 27.5968 94.5273 28.7091 94.5273 29.9985V30.0151C94.5273 31.3045 94.3447 32.4196 93.9795 33.3604C93.6143 34.3011 93.0913 35.026 92.4106 35.5352C91.73 36.0443 90.9137 36.2988 89.9619 36.2988ZM89.9619 34.564C90.471 34.564 90.9054 34.3813 91.2651 34.0161C91.6248 33.6509 91.8988 33.1307 92.0869 32.4556C92.2806 31.7749 92.3774 30.9614 92.3774 30.0151V29.9985C92.3774 29.0522 92.2806 28.2415 92.0869 27.5664C91.8988 26.8857 91.6248 26.3656 91.2651 26.0059C90.9054 25.6406 90.471 25.458 89.9619 25.458C89.4528 25.458 89.0184 25.6406 88.6587 26.0059C88.3045 26.3656 88.0306 26.8857 87.8369 27.5664C87.6488 28.2415 87.5547 29.0522 87.5547 29.9985V30.0151C87.5547 30.9614 87.6488 31.7749 87.8369 32.4556C88.0306 33.1307 88.3045 33.6509 88.6587 34.0161C89.0184 34.3813 89.4528 34.564 89.9619 34.564Z" fill="black"/>
<path d="M288.333 31C288.977 31 289.5 31.5037 289.5 32.125V34.375C289.5 34.9963 288.977 35.5 288.333 35.5H287.167C286.523 35.5 286 34.9963 286 34.375V32.125C286 31.5037 286.523 31 287.167 31H288.333ZM293.823 28.75C294.468 28.75 294.99 29.2537 294.99 29.875V34.375C294.99 34.9963 294.468 35.5 293.823 35.5H292.657C292.013 35.5 291.49 34.9963 291.49 34.375V29.875C291.49 29.2537 292.013 28.75 292.657 28.75H293.823ZM299.313 26.125C299.958 26.125 300.48 26.6287 300.48 27.25V34.375C300.48 34.9963 299.958 35.5 299.313 35.5H298.147C297.503 35.5 296.98 34.9963 296.98 34.375V27.25C296.981 26.6287 297.503 26.125 298.147 26.125H299.313ZM304.804 23.5C305.448 23.5 305.971 24.0037 305.971 24.625V34.375C305.971 34.9963 305.448 35.5 304.804 35.5H303.638C302.993 35.5 302.471 34.9963 302.471 34.375V24.625C302.471 24.0037 302.993 23.5 303.638 23.5H304.804Z" fill="black"/>
<path d="M318.512 32.8262C319.932 31.5963 322.011 31.5963 323.431 32.8262C323.502 32.8923 323.544 32.9854 323.546 33.084C323.548 33.1825 323.51 33.2776 323.441 33.3467L321.218 35.6445C321.153 35.712 321.063 35.75 320.971 35.75C320.878 35.7499 320.79 35.7119 320.725 35.6445L318.501 33.3467C318.432 33.2776 318.394 33.1826 318.396 33.084C318.399 32.9854 318.44 32.8923 318.512 32.8262ZM315.545 29.7607C318.604 26.8466 323.341 26.8466 326.4 29.7607C326.469 29.829 326.509 29.9224 326.51 30.0205C326.511 30.1188 326.473 30.2135 326.405 30.2832L325.12 31.6133C324.988 31.7491 324.774 31.7523 324.638 31.6201C323.633 30.6886 322.326 30.1728 320.971 30.1729C319.617 30.1735 318.311 30.6894 317.308 31.6201C317.172 31.7523 316.958 31.749 316.825 31.6133L315.54 30.2832C315.472 30.2136 315.435 30.1188 315.436 30.0205C315.437 29.9223 315.476 29.829 315.545 29.7607ZM312.578 26.7031C317.27 22.0988 324.671 22.0989 329.363 26.7031C329.431 26.7715 329.47 26.8653 329.471 26.9629C329.471 27.0604 329.433 27.1544 329.366 27.2236L328.08 28.5537C327.947 28.6901 327.732 28.691 327.598 28.5566C325.81 26.8163 323.437 25.8458 320.971 25.8457C318.504 25.8458 316.131 26.8163 314.344 28.5566C314.209 28.6912 313.994 28.6904 313.861 28.5537L312.574 27.2236C312.507 27.1544 312.47 27.0604 312.471 26.9629C312.471 26.8653 312.51 26.7715 312.578 26.7031Z" fill="black"/>
<rect opacity="0.4" x="336.471" y="23.5" width="24" height="12" rx="3.5" stroke="black"/>
<path opacity="0.5" d="M361.971 27.5V31.5C362.777 31.1612 363.301 30.3731 363.301 29.5C363.301 28.6269 362.777 27.8388 361.971 27.5Z" fill="black"/>
<rect x="337.971" y="25" width="17" height="9" rx="2" fill="black"/>
<path d="M116.04 93.3C115.253 93.3 114.453 93.22 113.64 93.06C112.84 92.9133 112.207 92.6867 111.74 92.38V90.06C112.327 90.4067 112.98 90.6733 113.7 90.86C114.433 91.0467 115.093 91.14 115.68 91.14C116.387 91.14 116.9 91.0733 117.22 90.94C117.553 90.7933 117.72 90.54 117.72 90.18C117.72 89.86 117.56 89.6133 117.24 89.44C116.933 89.2667 116.353 89.0467 115.5 88.78L115 88.62C113.853 88.26 113.007 87.8267 112.46 87.32C111.913 86.8133 111.64 86.12 111.64 85.24C111.64 84.2133 112.053 83.42 112.88 82.86C113.707 82.2867 114.82 82 116.22 82C116.98 82 117.713 82.08 118.42 82.24C119.127 82.4 119.693 82.6067 120.12 82.86V85.24C119.693 84.9467 119.16 84.7133 118.52 84.54C117.893 84.3533 117.273 84.26 116.66 84.26C115.367 84.26 114.72 84.5867 114.72 85.24C114.72 85.56 114.873 85.8067 115.18 85.98C115.487 86.1533 116.033 86.36 116.82 86.6L117.54 86.82C118.38 87.0867 119.033 87.38 119.5 87.7C119.98 88.02 120.313 88.38 120.5 88.78C120.687 89.18 120.78 89.6667 120.78 90.24C120.78 91.16 120.38 91.9 119.58 92.46C118.793 93.02 117.613 93.3 116.04 93.3ZM125.69 86.34C125.69 85.6467 125.543 85.1467 125.25 84.84C124.956 84.52 124.443 84.36 123.71 84.36C123.003 84.36 122.29 84.54 121.57 84.9V82.6C121.89 82.44 122.316 82.3 122.85 82.18C123.396 82.06 123.923 82 124.43 82C125.83 82 126.896 82.3733 127.63 83.12C128.363 83.8667 128.73 84.9467 128.73 86.36V93H125.69V86.34ZM135.91 93.3C134.243 93.3 132.91 93 131.91 92.4C130.91 91.7867 130.41 90.9133 130.41 89.78C130.41 89.26 130.55 88.7933 130.83 88.38C131.123 87.9533 131.51 87.6467 131.99 87.46C131.55 87.2333 131.19 86.9067 130.91 86.48C130.643 86.0533 130.51 85.5867 130.51 85.08C130.51 84.1467 130.836 83.4 131.49 82.84C132.156 82.28 133.116 82 134.37 82C134.756 82 135.136 82.0267 135.51 82.08C135.896 82.1333 136.19 82.1933 136.39 82.26V84.54C136.203 84.46 135.976 84.3933 135.71 84.34C135.456 84.2867 135.223 84.26 135.01 84.26C134.076 84.26 133.61 84.6067 133.61 85.3C133.61 85.66 133.723 85.9333 133.95 86.12C134.19 86.2933 134.556 86.38 135.05 86.38H136.39V88.52H135.05C134.036 88.52 133.53 88.92 133.53 89.72C133.53 90.1467 133.73 90.48 134.13 90.72C134.543 90.9467 135.136 91.06 135.91 91.06C136.843 91.06 137.523 90.8733 137.95 90.5C138.39 90.1133 138.61 89.54 138.61 88.78V82.28H141.65V88.76C141.65 89.52 141.456 90.2467 141.07 90.94C140.683 91.62 140.063 92.1867 139.21 92.64C138.356 93.08 137.256 93.3 135.91 93.3ZM148.659 93.3C147.606 93.3 146.686 93.1333 145.899 92.8C145.113 92.4667 144.513 92 144.099 91.4C143.686 90.8 143.479 90.12 143.479 89.36V88.86C143.479 88.38 143.573 87.9467 143.759 87.56C143.946 87.1733 144.206 86.74 144.539 86.26C144.753 85.9667 144.906 85.7333 144.999 85.56C145.093 85.3733 145.139 85.2067 145.139 85.06C145.139 84.6867 144.913 84.5 144.459 84.5H143.339V82.3H146.239C146.839 82.3 147.319 82.4733 147.679 82.82C148.039 83.1667 148.219 83.62 148.219 84.18C148.219 84.58 148.146 84.9533 147.999 85.3C147.853 85.6333 147.633 86.02 147.339 86.46C147.059 86.9 146.846 87.2733 146.699 87.58C146.566 87.8867 146.499 88.22 146.499 88.58V89C146.499 89.6267 146.686 90.1067 147.059 90.44C147.433 90.7733 147.966 90.94 148.659 90.94C149.393 90.94 149.946 90.74 150.319 90.34C150.706 89.9267 150.899 89.3333 150.899 88.56C150.899 86.9333 150.266 86.12 148.999 86.12V84.66L150.939 82H154.159L151.979 84.98C152.686 85.34 153.186 85.8133 153.479 86.4C153.786 86.9733 153.939 87.7067 153.939 88.6C153.939 89.52 153.726 90.3333 153.299 91.04C152.886 91.7467 152.279 92.3 151.479 92.7C150.679 93.1 149.739 93.3 148.659 93.3ZM144.548 79.06H148.268V76.94H150.368V79.06H151.708V76.94H153.788V80.98H144.548V79.06ZM151.048 72.5H153.768V75.32H151.048V72.5ZM160.268 93.3C159.375 93.3 158.495 93.2067 157.628 93.02C156.761 92.8467 156.041 92.6 155.468 92.28V86.66H160.528V88.88H158.448V90.6C158.861 90.8267 159.468 90.94 160.268 90.94C162.388 90.94 163.448 89.8333 163.448 87.62C163.448 86.4867 163.141 85.66 162.528 85.14C161.915 84.62 160.881 84.36 159.428 84.36C158.761 84.36 158.075 84.4333 157.368 84.58C156.675 84.7133 156.088 84.9067 155.608 85.16V82.8C156.155 82.5467 156.815 82.3533 157.588 82.22C158.361 82.0733 159.168 82 160.008 82C162.155 82 163.781 82.4933 164.888 83.48C166.008 84.4533 166.568 85.8333 166.568 87.62C166.568 89.38 166.021 90.7667 164.928 91.78C163.835 92.7933 162.281 93.3 160.268 93.3ZM171.871 93.3C170.644 93.3 169.664 92.9933 168.931 92.38C168.211 91.7667 167.851 90.9 167.851 89.78C167.851 88.66 168.244 87.78 169.031 87.14C169.831 86.5 170.924 86.18 172.311 86.18C173.604 86.18 174.711 86.3933 175.631 86.82V86.4C175.631 85.68 175.391 85.1467 174.911 84.8C174.444 84.4533 173.684 84.28 172.631 84.28C171.978 84.28 171.338 84.3467 170.711 84.48C170.084 84.6133 169.524 84.8 169.031 85.04V82.76C169.471 82.5467 170.078 82.3667 170.851 82.22C171.624 82.0733 172.404 82 173.191 82C174.084 82 174.918 82.1333 175.691 82.4L176.471 81.5H179.771L177.791 83.8C178.364 84.4533 178.651 85.3133 178.651 86.38V93H175.631V89.02C174.858 88.62 173.951 88.42 172.911 88.42C172.231 88.42 171.731 88.5333 171.411 88.76C171.104 88.9867 170.951 89.34 170.951 89.82C170.951 90.26 171.091 90.5933 171.371 90.82C171.664 91.0333 172.124 91.14 172.751 91.14C173.191 91.14 173.564 91.0733 173.871 90.94V93.04C173.351 93.2133 172.684 93.3 171.871 93.3ZM187.485 93.3C186.818 93.3 186.172 93.1733 185.545 92.92C184.918 92.6667 184.372 92.2933 183.905 91.8V93H181.005V82.3H184.045V89.5C184.338 89.9933 184.692 90.36 185.105 90.6C185.518 90.8267 186.005 90.94 186.565 90.94C187.938 90.94 188.625 90.2933 188.625 89V82.3H191.645V89.18C191.645 89.9533 191.485 90.6533 191.165 91.28C190.845 91.9067 190.372 92.4 189.745 92.76C189.118 93.12 188.365 93.3 187.485 93.3ZM196.959 86.34C196.959 85.6467 196.813 85.1467 196.519 84.84C196.226 84.52 195.713 84.36 194.979 84.36C194.273 84.36 193.559 84.54 192.839 84.9V82.6C193.159 82.44 193.586 82.3 194.119 82.18C194.666 82.06 195.193 82 195.699 82C197.099 82 198.166 82.3733 198.899 83.12C199.633 83.8667 199.999 84.9467 199.999 86.36V93H196.959V86.34ZM206.999 93.3C205.946 93.3 205.026 93.1333 204.239 92.8C203.452 92.4667 202.852 92 202.439 91.4C202.026 90.8 201.819 90.12 201.819 89.36V88.86C201.819 88.38 201.912 87.9467 202.099 87.56C202.286 87.1733 202.546 86.74 202.879 86.26C203.092 85.9667 203.246 85.7333 203.339 85.56C203.432 85.3733 203.479 85.2067 203.479 85.06C203.479 84.6867 203.252 84.5 202.799 84.5H201.679V82.3H204.579C205.179 82.3 205.659 82.4733 206.019 82.82C206.379 83.1667 206.559 83.62 206.559 84.18C206.559 84.58 206.486 84.9533 206.339 85.3C206.192 85.6333 205.972 86.02 205.679 86.46C205.399 86.9 205.186 87.2733 205.039 87.58C204.906 87.8867 204.839 88.22 204.839 88.58V89C204.839 89.6267 205.026 90.1067 205.399 90.44C205.772 90.7733 206.306 90.94 206.999 90.94C207.732 90.94 208.286 90.74 208.659 90.34C209.046 89.9267 209.239 89.3333 209.239 88.56C209.239 86.9333 208.606 86.12 207.339 86.12V84.66L209.279 82H212.499L210.319 84.98C211.026 85.34 211.526 85.8133 211.819 86.4C212.126 86.9733 212.279 87.7067 212.279 88.6C212.279 89.52 212.066 90.3333 211.639 91.04C211.226 91.7467 210.619 92.3 209.819 92.7C209.019 93.1 208.079 93.3 206.999 93.3ZM202.848 79.06H212.108V80.98H202.848V79.06ZM214.768 86.62L213.768 84.92C215.328 82.9733 217.335 82 219.788 82C221.508 82 222.828 82.38 223.748 83.14C224.681 83.9 225.148 84.96 225.148 86.32V93H222.108V86.56C222.108 85.0933 221.335 84.36 219.788 84.36C219.215 84.36 218.701 84.44 218.248 84.6C217.808 84.76 217.395 85.02 217.008 85.38L217.788 86.66V93H214.768V86.62ZM227.235 84.76C227.235 83.9733 227.449 83.3667 227.875 82.94C228.302 82.5133 228.909 82.3 229.695 82.3H231.855V84.64H231.135C230.815 84.64 230.589 84.7067 230.455 84.84C230.322 84.9733 230.255 85.2133 230.255 85.56V89.04L232.275 85.96H233.335L235.355 89.04V82.3H238.355V93H235.635L232.795 88.68L229.955 93H227.235V84.76ZM235.458 98.6C234.471 98.6 233.711 98.4067 233.178 98.02C232.631 97.6333 232.358 97.12 232.358 96.48V96.12C232.358 95.9467 232.331 95.8267 232.278 95.76C232.211 95.6933 232.098 95.66 231.938 95.66H231.278V93.94H233.538C233.938 93.94 234.218 94.0267 234.378 94.2C234.525 94.3867 234.598 94.6733 234.598 95.06V96.16C234.598 96.64 234.851 96.88 235.358 96.88C235.851 96.88 236.098 96.64 236.098 96.16V93.94H238.338V96.4C238.338 97.04 238.091 97.5667 237.598 97.98C237.091 98.3933 236.378 98.6 235.458 98.6ZM233.478 79.7C233.478 79.5533 233.451 79.4533 233.398 79.4C233.331 79.3333 233.225 79.3 233.078 79.3H232.138V77.24H234.018C234.511 77.24 234.871 77.3533 235.098 77.58C235.311 77.8067 235.418 78.0933 235.418 78.44V79.04H239.438V80.98H233.478V79.7ZM245.418 93.3C243.765 93.3 242.458 92.84 241.498 91.92C240.538 91 240.058 89.6533 240.058 87.88C240.058 86.0267 240.611 84.5867 241.718 83.56C242.825 82.52 244.351 82 246.298 82C248.311 82 249.791 82.4667 250.738 83.4C251.698 84.3333 252.178 85.56 252.178 87.08V93H249.158V87.06C249.158 86.18 248.931 85.5133 248.478 85.06C248.038 84.5933 247.311 84.36 246.298 84.36C245.338 84.36 244.578 84.66 244.018 85.26C243.458 85.86 243.178 86.7333 243.178 87.88C243.178 88.9333 243.405 89.7067 243.858 90.2C244.325 90.6933 245.031 90.94 245.978 90.94C246.485 90.94 246.938 90.8667 247.338 90.72V93.04C246.818 93.2133 246.178 93.3 245.418 93.3ZM249.286 98.6C248.299 98.6 247.539 98.4067 247.006 98.02C246.459 97.6333 246.186 97.12 246.186 96.48V96.12C246.186 95.9467 246.159 95.8267 246.106 95.76C246.039 95.6933 245.926 95.66 245.766 95.66H245.106V93.94H247.366C247.766 93.94 248.046 94.0267 248.206 94.2C248.353 94.3867 248.426 94.6733 248.426 95.06V96.16C248.426 96.64 248.679 96.88 249.186 96.88C249.679 96.88 249.926 96.64 249.926 96.16V93.94H252.166V96.4C252.166 97.04 251.919 97.5667 251.426 97.98C250.919 98.3933 250.206 98.6 249.286 98.6ZM256.566 93C255.833 93 255.266 92.7933 254.866 92.38C254.479 91.9533 254.286 91.3667 254.286 90.62V82.3H257.326V89.8C257.326 90.12 257.393 90.3467 257.526 90.48C257.659 90.6133 257.879 90.68 258.186 90.68H258.886V93H256.566ZM262.186 93C261.453 93 260.886 92.7933 260.486 92.38C260.099 91.9533 259.906 91.3667 259.906 90.62V82.3H262.926V89.8C262.926 90.12 262.993 90.3467 263.126 90.48C263.259 90.6133 263.486 90.68 263.806 90.68H264.506V93H262.186ZM269.762 93.3C268.535 93.3 267.555 92.9933 266.822 92.38C266.102 91.7667 265.742 90.9 265.742 89.78C265.742 88.66 266.135 87.78 266.922 87.14C267.722 86.5 268.815 86.18 270.202 86.18C271.495 86.18 272.602 86.3933 273.522 86.82V86.4C273.522 85.68 273.282 85.1467 272.802 84.8C272.335 84.4533 271.575 84.28 270.522 84.28C269.868 84.28 269.228 84.3467 268.602 84.48C267.975 84.6133 267.415 84.8 266.922 85.04V82.76C267.362 82.5467 267.968 82.3667 268.742 82.22C269.515 82.0733 270.295 82 271.082 82C272.868 82 274.222 82.4 275.142 83.2C276.075 83.9867 276.542 85.0467 276.542 86.38V93H273.522V89.02C272.748 88.62 271.842 88.42 270.802 88.42C270.122 88.42 269.622 88.5333 269.302 88.76C268.995 88.9867 268.842 89.34 268.842 89.82C268.842 90.26 268.982 90.5933 269.262 90.82C269.555 91.0333 270.015 91.14 270.642 91.14C271.082 91.14 271.455 91.0733 271.762 90.94V93.04C271.242 93.2133 270.575 93.3 269.762 93.3Z" fill="black"/>
<path d="M150.144 177.21C149.089 177.21 148.249 177.014 147.624 176.622C147.008 176.221 146.7 175.633 146.7 174.858C146.7 174.419 146.817 174.041 147.05 173.724C147.283 173.397 147.605 173.173 148.016 173.052C147.624 172.903 147.311 172.679 147.078 172.38C146.854 172.072 146.742 171.713 146.742 171.302C146.742 170.705 146.938 170.224 147.33 169.86C147.722 169.487 148.291 169.3 149.038 169.3C149.243 169.3 149.453 169.314 149.668 169.342C149.892 169.37 150.069 169.403 150.2 169.44V170.294C150.079 170.257 149.92 170.229 149.724 170.21C149.537 170.182 149.365 170.168 149.206 170.168C148.758 170.168 148.413 170.275 148.17 170.49C147.937 170.695 147.82 170.985 147.82 171.358C147.82 171.741 147.951 172.044 148.212 172.268C148.483 172.483 148.865 172.59 149.36 172.59H150.2V173.486H149.374C148.87 173.486 148.478 173.603 148.198 173.836C147.918 174.06 147.778 174.401 147.778 174.858C147.778 175.334 147.988 175.703 148.408 175.964C148.837 176.216 149.416 176.342 150.144 176.342C150.993 176.342 151.619 176.155 152.02 175.782C152.431 175.399 152.636 174.867 152.636 174.186V169.51H153.714V174.158C153.714 174.681 153.602 175.171 153.378 175.628C153.154 176.085 152.776 176.463 152.244 176.762C151.712 177.061 151.012 177.21 150.144 177.21ZM151.293 168.306C150.938 168.306 150.677 168.217 150.509 168.04C150.341 167.863 150.257 167.601 150.257 167.256V166.598H151.251V167.074C151.251 167.242 151.284 167.359 151.349 167.424C151.414 167.48 151.54 167.508 151.727 167.508H155.003V168.306H151.293ZM155.409 170.448H156.501L158.419 176.146C159.399 176.146 160.15 175.885 160.673 175.362C161.196 174.83 161.457 174.083 161.457 173.122C161.457 172.161 161.275 171.428 160.911 170.924C160.547 170.42 159.964 170.168 159.161 170.168C158.816 170.168 158.484 170.21 158.167 170.294V169.44C158.475 169.347 158.858 169.3 159.315 169.3C160.36 169.3 161.158 169.641 161.709 170.322C162.26 171.003 162.535 171.937 162.535 173.122C162.535 173.925 162.362 174.62 162.017 175.208C161.681 175.796 161.219 176.244 160.631 176.552C160.052 176.851 159.399 177 158.671 177H157.607L155.409 170.448ZM166.026 176.958C165.606 176.958 165.284 176.837 165.06 176.594C164.836 176.351 164.724 176.015 164.724 175.586V170.042C164.724 169.333 164.818 168.782 165.004 168.39C165.2 167.998 165.541 167.662 166.026 167.382H163.31V166.472H167.44V167.368C166.871 167.62 166.456 167.947 166.194 168.348C165.933 168.74 165.802 169.281 165.802 169.972V175.348C165.802 175.619 165.858 175.805 165.97 175.908C166.082 176.001 166.269 176.048 166.53 176.048H167.048V176.958H166.026ZM172.555 177.21C171.416 177.21 170.483 176.771 169.755 175.894V177H168.705V169.51H169.783V174.914C170.399 175.866 171.239 176.342 172.303 176.342C172.984 176.342 173.497 176.188 173.843 175.88C174.188 175.563 174.361 175.101 174.361 174.494V169.51H175.439V174.536C175.439 175.348 175.187 175.997 174.683 176.482C174.179 176.967 173.469 177.21 172.555 177.21ZM174.376 166.052H175.426V168.306H174.376V166.052ZM181.25 177.21C180.111 177.21 179.178 176.771 178.45 175.894V177H177.4V169.51H178.478V174.914C179.094 175.866 179.934 176.342 180.998 176.342C181.679 176.342 182.193 176.188 182.538 175.88C182.883 175.563 183.056 175.101 183.056 174.494V169.51H184.134V174.536C184.134 175.348 183.882 175.997 183.378 176.482C182.874 176.967 182.165 177.21 181.25 177.21ZM178.297 167.508H183.141V166.024H184.135V168.306H178.297V167.508ZM186.095 170.924C186.095 170.467 186.212 170.117 186.445 169.874C186.679 169.631 187.019 169.51 187.467 169.51H188.419V170.42H187.915C187.645 170.42 187.453 170.476 187.341 170.588C187.229 170.7 187.173 170.887 187.173 171.148V175.334L189.315 171.75H189.833L191.975 175.334V169.51H193.053V177H192.059L189.581 172.842L187.089 177H186.095V170.924ZM191.411 180.724C190.879 180.724 190.469 180.607 190.179 180.374C189.89 180.141 189.745 179.833 189.745 179.45V178.96C189.745 178.829 189.727 178.741 189.689 178.694C189.652 178.657 189.573 178.638 189.451 178.638H188.961V177.868H190.025C190.259 177.868 190.422 177.919 190.515 178.022C190.599 178.134 190.641 178.307 190.641 178.54V179.352C190.641 179.809 190.889 180.038 191.383 180.038C191.869 180.038 192.111 179.809 192.111 179.352V177.868H193.007V179.422C193.007 179.814 192.867 180.127 192.587 180.36C192.307 180.603 191.915 180.724 191.411 180.724ZM190.235 167.438C190.235 167.317 190.217 167.233 190.179 167.186C190.133 167.139 190.049 167.116 189.927 167.116H189.311V166.332H190.221C190.501 166.332 190.707 166.402 190.837 166.542C190.959 166.673 191.019 166.841 191.019 167.046V167.564H193.889V168.306H190.235V167.438ZM198.257 177.21C197.557 177.21 196.941 177.065 196.409 176.776C195.877 176.477 195.462 176.043 195.163 175.474C194.874 174.905 194.729 174.209 194.729 173.388C194.729 172.1 195.079 171.097 195.779 170.378C196.489 169.659 197.469 169.3 198.719 169.3C199.998 169.3 200.922 169.603 201.491 170.21C202.07 170.807 202.359 171.563 202.359 172.478V177H201.281V172.464C201.281 170.933 200.427 170.168 198.719 170.168C197.805 170.168 197.091 170.443 196.577 170.994C196.064 171.535 195.807 172.333 195.807 173.388C195.807 174.349 196.041 175.082 196.507 175.586C196.974 176.09 197.609 176.342 198.411 176.342C198.757 176.342 199.088 176.3 199.405 176.216V177.07C199.097 177.163 198.715 177.21 198.257 177.21ZM200.722 180.724C200.19 180.724 199.779 180.607 199.49 180.374C199.201 180.141 199.056 179.833 199.056 179.45V178.96C199.056 178.829 199.037 178.741 199 178.694C198.963 178.657 198.883 178.638 198.762 178.638H198.272V177.868H199.336C199.569 177.868 199.733 177.919 199.826 178.022C199.91 178.134 199.952 178.307 199.952 178.54V179.352C199.952 179.809 200.199 180.038 200.694 180.038C201.179 180.038 201.422 179.809 201.422 179.352V177.868H202.318V179.422C202.318 179.814 202.178 180.127 201.898 180.36C201.618 180.603 201.226 180.724 200.722 180.724ZM205.622 177C205.202 177 204.88 176.879 204.656 176.636C204.432 176.393 204.32 176.057 204.32 175.628V169.51H205.398V175.39C205.398 175.661 205.454 175.847 205.566 175.95C205.678 176.043 205.865 176.09 206.126 176.09H206.644V177H205.622ZM209.066 177C208.646 177 208.324 176.879 208.1 176.636C207.876 176.393 207.764 176.057 207.764 175.628V169.51H208.842V175.39C208.842 175.661 208.898 175.847 209.01 175.95C209.122 176.043 209.309 176.09 209.57 176.09H210.088V177H209.066ZM214.151 177.21C213.33 177.21 212.681 177.009 212.205 176.608C211.729 176.197 211.491 175.609 211.491 174.844C211.491 174.097 211.757 173.509 212.289 173.08C212.821 172.641 213.535 172.422 214.431 172.422C215.402 172.422 216.284 172.609 217.077 172.982V172.17C217.077 171.479 216.89 170.975 216.517 170.658C216.144 170.331 215.537 170.168 214.697 170.168C214.258 170.168 213.829 170.21 213.409 170.294C212.989 170.369 212.625 170.476 212.317 170.616V169.748C212.597 169.617 212.975 169.51 213.451 169.426C213.927 169.342 214.389 169.3 214.837 169.3C215.957 169.3 216.788 169.557 217.329 170.07C217.88 170.574 218.155 171.269 218.155 172.156V177H217.077V173.85C216.34 173.477 215.49 173.29 214.529 173.29C213.857 173.29 213.362 173.421 213.045 173.682C212.728 173.934 212.569 174.321 212.569 174.844C212.569 175.357 212.714 175.735 213.003 175.978C213.292 176.221 213.754 176.342 214.389 176.342C214.716 176.342 215.024 176.3 215.313 176.216V177.07C214.986 177.163 214.599 177.21 214.151 177.21ZM222.589 177.21C222.104 177.21 221.6 177.145 221.077 177.014C220.564 176.893 220.158 176.72 219.859 176.496V175.586C220.251 175.838 220.68 176.029 221.147 176.16C221.614 176.281 222.071 176.342 222.519 176.342C223.191 176.342 223.672 176.258 223.961 176.09C224.26 175.913 224.409 175.619 224.409 175.208C224.409 174.937 224.344 174.718 224.213 174.55C224.092 174.373 223.886 174.219 223.597 174.088C223.308 173.957 222.878 173.808 222.309 173.64C221.46 173.388 220.834 173.103 220.433 172.786C220.032 172.459 219.831 171.988 219.831 171.372C219.831 170.7 220.083 170.187 220.587 169.832C221.1 169.477 221.8 169.3 222.687 169.3C223.144 169.3 223.583 169.356 224.003 169.468C224.423 169.571 224.773 169.711 225.053 169.888V170.784C224.381 170.373 223.62 170.168 222.771 170.168C221.53 170.168 220.909 170.569 220.909 171.372C220.909 171.661 220.984 171.89 221.133 172.058C221.282 172.226 221.502 172.371 221.791 172.492C222.08 172.604 222.524 172.744 223.121 172.912C223.718 173.08 224.185 173.267 224.521 173.472C224.866 173.668 225.114 173.906 225.263 174.186C225.412 174.457 225.487 174.802 225.487 175.222C225.487 175.819 225.249 176.3 224.773 176.664C224.306 177.028 223.578 177.21 222.589 177.21ZM224.142 166.052H225.192V168.306H224.142V166.052ZM229.56 177.21C228.43 177.21 227.539 176.991 226.886 176.552V175.642C227.548 176.109 228.379 176.342 229.378 176.342C230.358 176.342 231.123 176.085 231.674 175.572C232.224 175.049 232.5 174.279 232.5 173.262C232.5 172.245 232.224 171.475 231.674 170.952C231.123 170.429 230.358 170.168 229.378 170.168C228.388 170.168 227.562 170.406 226.9 170.882V169.958C227.572 169.519 228.458 169.3 229.56 169.3C230.801 169.3 231.781 169.65 232.5 170.35C233.218 171.041 233.578 172.011 233.578 173.262C233.578 174.513 233.218 175.483 232.5 176.174C231.781 176.865 230.801 177.21 229.56 177.21ZM239.109 177.21C237.971 177.21 237.037 176.771 236.309 175.894V177H235.259V169.51H236.337V174.914C236.953 175.866 237.793 176.342 238.857 176.342C239.539 176.342 240.052 176.188 240.397 175.88C240.743 175.563 240.915 175.101 240.915 174.494V169.51H241.993V174.536C241.993 175.348 241.741 175.997 241.237 176.482C240.733 176.967 240.024 177.21 239.109 177.21Z" fill="black"/>
<path d="M42.8095 99.5268C42.068 100.323 40.8068 100.323 40.0652 99.5268L28.2697 86.8632C27.5544 86.0952 27.5544 84.9048 28.2697 84.1368L40.0652 71.4732C40.8068 70.677 42.068 70.677 42.8095 71.4732C43.4802 72.1932 43.4802 73.3093 42.8095 74.0293L33.395 84.1368C32.6796 84.9048 32.6796 86.0952 33.395 86.8632L42.8095 96.9707C43.4802 97.6907 43.4802 98.8068 42.8095 99.5268Z" fill="#535353"/>
<rect x="86" y="248" width="217" height="44" rx="22" fill="#16AD78"/>
<path d="M123.656 275C123.069 275 122.616 274.835 122.296 274.504C121.987 274.163 121.832 273.693 121.832 273.096V266.44H124.264V272.44C124.264 272.696 124.317 272.877 124.424 272.984C124.531 273.091 124.707 273.144 124.952 273.144H125.512V275H123.656ZM130.752 275.24C129.91 275.24 129.174 275.107 128.544 274.84C127.915 274.573 127.435 274.2 127.104 273.72C126.774 273.24 126.608 272.696 126.608 272.088V271.688C126.608 271.304 126.683 270.957 126.832 270.648C126.982 270.339 127.19 269.992 127.456 269.608C127.627 269.373 127.75 269.187 127.824 269.048C127.899 268.899 127.936 268.765 127.936 268.648C127.936 268.349 127.755 268.2 127.392 268.2H126.496V266.44H128.816C129.296 266.44 129.68 266.579 129.968 266.856C130.256 267.133 130.4 267.496 130.4 267.944C130.4 268.264 130.342 268.563 130.224 268.84C130.107 269.107 129.931 269.416 129.696 269.768C129.472 270.12 129.302 270.419 129.184 270.664C129.078 270.909 129.024 271.176 129.024 271.464V271.8C129.024 272.301 129.174 272.685 129.472 272.952C129.771 273.219 130.198 273.352 130.752 273.352C131.339 273.352 131.782 273.192 132.08 272.872C132.39 272.541 132.544 272.067 132.544 271.448C132.544 270.147 132.038 269.496 131.024 269.496V268.328L132.576 266.2H135.152L133.408 268.584C133.974 268.872 134.374 269.251 134.608 269.72C134.854 270.179 134.976 270.765 134.976 271.48C134.976 272.216 134.806 272.867 134.464 273.432C134.134 273.997 133.648 274.44 133.008 274.76C132.368 275.08 131.616 275.24 130.752 275.24ZM127.431 263.848H134.839V265.384H127.431V263.848ZM146.84 276.568C146.232 276.568 145.634 276.509 145.048 276.392C144.461 276.285 143.981 276.136 143.608 275.944V274.072C144.589 274.584 145.666 274.84 146.84 274.84C147.501 274.84 148.034 274.76 148.44 274.6C148.845 274.44 149.048 274.2 149.048 273.88C149.048 273.731 149.01 273.587 148.936 273.448C148.285 273.747 147.544 273.896 146.712 273.896C145.837 273.896 145.08 273.747 144.44 273.448C143.81 273.149 143.33 272.728 143 272.184C142.68 271.64 142.52 271.011 142.52 270.296V269.848C142.52 269.251 142.381 268.808 142.104 268.52C141.826 268.232 141.4 268.088 140.824 268.088C140.397 268.088 140.018 268.152 139.688 268.28C139.368 268.408 139.058 268.616 138.76 268.904L139.384 269.928V272.44C139.384 272.696 139.442 272.877 139.56 272.984C139.677 273.091 139.869 273.144 140.136 273.144H140.952V275H138.808C138.221 275 137.768 274.835 137.448 274.504C137.128 274.163 136.968 273.693 136.968 273.096V269.896L136.168 268.536C136.776 267.779 137.458 267.203 138.216 266.808C138.973 266.403 139.842 266.2 140.824 266.2C142.146 266.2 143.16 266.509 143.864 267.128C144.568 267.736 144.92 268.579 144.92 269.656V270.072C144.92 270.701 145.058 271.181 145.336 271.512C145.613 271.843 146.072 272.008 146.712 272.008C147.906 272.008 148.504 271.363 148.504 270.072V266.44H150.936V270.296C150.936 271.021 150.754 271.667 150.392 272.232C150.658 272.477 150.85 272.739 150.968 273.016C151.096 273.293 151.16 273.603 151.16 273.944C151.16 274.776 150.754 275.421 149.944 275.88C149.133 276.339 148.098 276.568 146.84 276.568ZM155.525 275.24C154.544 275.24 153.76 274.995 153.173 274.504C152.597 274.013 152.309 273.32 152.309 272.424C152.309 271.528 152.624 270.824 153.253 270.312C153.893 269.8 154.768 269.544 155.877 269.544C156.912 269.544 157.797 269.715 158.533 270.056V269.72C158.533 269.144 158.341 268.717 157.957 268.44C157.584 268.163 156.976 268.024 156.133 268.024C155.61 268.024 155.098 268.077 154.597 268.184C154.096 268.291 153.648 268.44 153.253 268.632V266.808C153.605 266.637 154.09 266.493 154.709 266.376C155.328 266.259 155.952 266.2 156.581 266.2C157.296 266.2 157.962 266.307 158.581 266.52L159.205 265.8H161.845L160.261 267.64C160.72 268.163 160.949 268.851 160.949 269.704V275H158.533V271.816C157.914 271.496 157.189 271.336 156.357 271.336C155.813 271.336 155.413 271.427 155.157 271.608C154.912 271.789 154.789 272.072 154.789 272.456C154.789 272.808 154.901 273.075 155.125 273.256C155.36 273.427 155.728 273.512 156.229 273.512C156.581 273.512 156.88 273.459 157.125 273.352V275.032C156.709 275.171 156.176 275.24 155.525 275.24ZM168.016 275.24C167.483 275.24 166.965 275.139 166.464 274.936C165.963 274.733 165.525 274.435 165.152 274.04V275H162.832V266.44H165.264V272.2C165.499 272.595 165.781 272.888 166.112 273.08C166.443 273.261 166.832 273.352 167.28 273.352C168.379 273.352 168.928 272.835 168.928 271.8V266.44H171.344V271.944C171.344 272.563 171.216 273.123 170.96 273.624C170.704 274.125 170.325 274.52 169.824 274.808C169.323 275.096 168.72 275.24 168.016 275.24ZM175.596 269.672C175.596 269.117 175.478 268.717 175.244 268.472C175.009 268.216 174.598 268.088 174.012 268.088C173.446 268.088 172.876 268.232 172.3 268.52V266.68C172.556 266.552 172.897 266.44 173.324 266.344C173.761 266.248 174.182 266.2 174.588 266.2C175.708 266.2 176.561 266.499 177.148 267.096C177.734 267.693 178.028 268.557 178.028 269.688V275H175.596V269.672ZM183.627 275.24C182.785 275.24 182.049 275.107 181.419 274.84C180.79 274.573 180.31 274.2 179.979 273.72C179.649 273.24 179.483 272.696 179.483 272.088V271.688C179.483 271.304 179.558 270.957 179.707 270.648C179.857 270.339 180.065 269.992 180.331 269.608C180.502 269.373 180.625 269.187 180.699 269.048C180.774 268.899 180.811 268.765 180.811 268.648C180.811 268.349 180.63 268.2 180.267 268.2H179.371V266.44H181.691C182.171 266.44 182.555 266.579 182.843 266.856C183.131 267.133 183.275 267.496 183.275 267.944C183.275 268.264 183.217 268.563 183.099 268.84C182.982 269.107 182.806 269.416 182.571 269.768C182.347 270.12 182.177 270.419 182.059 270.664C181.953 270.909 181.899 271.176 181.899 271.464V271.8C181.899 272.301 182.049 272.685 182.347 272.952C182.646 273.219 183.073 273.352 183.627 273.352C184.214 273.352 184.657 273.192 184.955 272.872C185.265 272.541 185.419 272.067 185.419 271.448C185.419 270.147 184.913 269.496 183.899 269.496V268.328L185.451 266.2H188.027L186.283 268.584C186.849 268.872 187.249 269.251 187.483 269.72C187.729 270.179 187.851 270.765 187.851 271.48C187.851 272.216 187.681 272.867 187.339 273.432C187.009 273.997 186.523 274.44 185.883 274.76C185.243 275.08 184.491 275.24 183.627 275.24ZM180.306 263.848H187.714V265.384H180.306V263.848ZM189.843 269.896L189.043 268.536C190.291 266.979 191.896 266.2 193.859 266.2C195.235 266.2 196.291 266.504 197.027 267.112C197.773 267.72 198.147 268.568 198.147 269.656V275H195.715V269.848C195.715 268.675 195.096 268.088 193.859 268.088C193.4 268.088 192.989 268.152 192.627 268.28C192.275 268.408 191.944 268.616 191.635 268.904L192.259 269.928V275H189.843V269.896ZM199.816 268.408C199.816 267.779 199.987 267.293 200.328 266.952C200.67 266.611 201.155 266.44 201.784 266.44H203.512V268.312H202.936C202.68 268.312 202.499 268.365 202.392 268.472C202.286 268.579 202.232 268.771 202.232 269.048V271.832L203.848 269.368H204.696L206.312 271.832V266.44H208.712V275H206.536L204.264 271.544L201.992 275H199.816V268.408ZM206.394 279.48C205.605 279.48 204.997 279.325 204.57 279.016C204.133 278.707 203.914 278.296 203.914 277.784V277.496C203.914 277.357 203.893 277.261 203.85 277.208C203.797 277.155 203.706 277.128 203.578 277.128H203.05V275.752H204.859C205.179 275.752 205.402 275.821 205.53 275.96C205.648 276.109 205.706 276.339 205.706 276.648V277.528C205.706 277.912 205.909 278.104 206.314 278.104C206.709 278.104 206.906 277.912 206.906 277.528V275.752H208.698V277.72C208.698 278.232 208.501 278.653 208.106 278.984C207.701 279.315 207.13 279.48 206.394 279.48ZM204.81 264.36C204.81 264.243 204.789 264.163 204.746 264.12C204.693 264.067 204.608 264.04 204.49 264.04H203.738V262.392H205.242C205.637 262.392 205.925 262.483 206.106 262.664C206.277 262.845 206.362 263.075 206.362 263.352V263.832H209.579V265.384H204.81V264.36ZM214.363 275.24C213.04 275.24 211.995 274.872 211.227 274.136C210.459 273.4 210.075 272.323 210.075 270.904C210.075 269.421 210.517 268.269 211.403 267.448C212.288 266.616 213.509 266.2 215.067 266.2C216.677 266.2 217.861 266.573 218.619 267.32C219.387 268.067 219.771 269.048 219.771 270.264V275H217.355V270.248C217.355 269.544 217.173 269.011 216.811 268.648C216.459 268.275 215.877 268.088 215.067 268.088C214.299 268.088 213.691 268.328 213.243 268.808C212.795 269.288 212.571 269.987 212.571 270.904C212.571 271.747 212.752 272.365 213.115 272.76C213.488 273.155 214.053 273.352 214.811 273.352C215.216 273.352 215.579 273.293 215.899 273.176V275.032C215.483 275.171 214.971 275.24 214.363 275.24ZM217.457 279.48C216.668 279.48 216.06 279.325 215.633 279.016C215.196 278.707 214.977 278.296 214.977 277.784V277.496C214.977 277.357 214.956 277.261 214.913 277.208C214.86 277.155 214.769 277.128 214.641 277.128H214.113V275.752H215.921C216.241 275.752 216.465 275.821 216.593 275.96C216.71 276.109 216.769 276.339 216.769 276.648V277.528C216.769 277.912 216.972 278.104 217.377 278.104C217.772 278.104 217.969 277.912 217.969 277.528V275.752H219.761V277.72C219.761 278.232 219.564 278.653 219.169 278.984C218.764 279.315 218.193 279.48 217.457 279.48ZM223.281 275C222.694 275 222.241 274.835 221.921 274.504C221.612 274.163 221.457 273.693 221.457 273.096V266.44H223.889V272.44C223.889 272.696 223.942 272.877 224.049 272.984C224.156 273.091 224.332 273.144 224.577 273.144H225.137V275H223.281ZM227.777 275C227.19 275 226.737 274.835 226.417 274.504C226.108 274.163 225.953 273.693 225.953 273.096V266.44H228.369V272.44C228.369 272.696 228.422 272.877 228.529 272.984C228.636 273.091 228.817 273.144 229.073 273.144H229.633V275H227.777ZM233.837 275.24C232.856 275.24 232.072 274.995 231.485 274.504C230.909 274.013 230.621 273.32 230.621 272.424C230.621 271.528 230.936 270.824 231.565 270.312C232.205 269.8 233.08 269.544 234.189 269.544C235.224 269.544 236.109 269.715 236.845 270.056V269.72C236.845 269.144 236.653 268.717 236.269 268.44C235.896 268.163 235.288 268.024 234.445 268.024C233.923 268.024 233.411 268.077 232.909 268.184C232.408 268.291 231.96 268.44 231.565 268.632V266.808C231.917 266.637 232.403 266.493 233.021 266.376C233.64 266.259 234.264 266.2 234.893 266.2C236.323 266.2 237.405 266.52 238.141 267.16C238.888 267.789 239.261 268.637 239.261 269.704V275H236.845V271.816C236.227 271.496 235.501 271.336 234.669 271.336C234.125 271.336 233.725 271.427 233.469 271.608C233.224 271.789 233.101 272.072 233.101 272.456C233.101 272.808 233.213 273.075 233.437 273.256C233.672 273.427 234.04 273.512 234.541 273.512C234.893 273.512 235.192 273.459 235.437 273.352V275.032C235.021 275.171 234.488 275.24 233.837 275.24ZM244.126 275.24C243.496 275.24 242.856 275.176 242.206 275.048C241.566 274.931 241.059 274.749 240.686 274.504V272.648C241.155 272.925 241.678 273.139 242.254 273.288C242.84 273.437 243.368 273.512 243.838 273.512C244.403 273.512 244.814 273.459 245.07 273.352C245.336 273.235 245.47 273.032 245.47 272.744C245.47 272.488 245.342 272.291 245.086 272.152C244.84 272.013 244.376 271.837 243.694 271.624L243.294 271.496C242.376 271.208 241.699 270.861 241.262 270.456C240.824 270.051 240.606 269.496 240.606 268.792C240.606 267.971 240.936 267.336 241.598 266.888C242.259 266.429 243.15 266.2 244.27 266.2C244.878 266.2 245.464 266.264 246.03 266.392C246.595 266.52 247.048 266.685 247.39 266.888V268.792C247.048 268.557 246.622 268.371 246.11 268.232C245.608 268.083 245.112 268.008 244.622 268.008C243.587 268.008 243.07 268.269 243.07 268.792C243.07 269.048 243.192 269.245 243.438 269.384C243.683 269.523 244.12 269.688 244.75 269.88L245.326 270.056C245.998 270.269 246.52 270.504 246.894 270.76C247.278 271.016 247.544 271.304 247.694 271.624C247.843 271.944 247.918 272.333 247.918 272.792C247.918 273.528 247.598 274.12 246.958 274.568C246.328 275.016 245.384 275.24 244.126 275.24ZM245.173 262.536H247.605V265.384H245.173V262.536ZM252.198 275.24C250.779 275.24 249.696 275.011 248.95 274.552V272.664C249.611 273.123 250.518 273.352 251.67 273.352C252.566 273.352 253.259 273.139 253.75 272.712C254.24 272.275 254.486 271.613 254.486 270.728C254.486 269.843 254.24 269.181 253.75 268.744C253.259 268.307 252.566 268.088 251.67 268.088C250.56 268.088 249.675 268.323 249.014 268.792V266.904C249.387 266.669 249.851 266.493 250.406 266.376C250.96 266.259 251.558 266.2 252.198 266.2C253.691 266.2 254.859 266.6 255.702 267.4C256.555 268.189 256.982 269.299 256.982 270.728C256.982 272.157 256.555 273.267 255.702 274.056C254.859 274.845 253.691 275.24 252.198 275.24ZM263.516 275.24C262.983 275.24 262.465 275.139 261.964 274.936C261.463 274.733 261.025 274.435 260.652 274.04V275H258.332V266.44H260.764V272.2C260.999 272.595 261.281 272.888 261.612 273.08C261.943 273.261 262.332 273.352 262.78 273.352C263.879 273.352 264.428 272.835 264.428 271.8V266.44H266.844V271.944C266.844 272.563 266.716 273.123 266.46 273.624C266.204 274.125 265.825 274.52 265.324 274.808C264.823 275.096 264.22 275.24 263.516 275.24Z" fill="white"/>
</svg>
