<svg width="390" height="849" viewBox="0 0 390 849" fill="none" xmlns="http://www.w3.org/2000/svg">
<rect y="5" width="390" height="844" rx="32" fill="white"/>
<path fill-rule="evenodd" clip-rule="evenodd" d="M121 838.5C121 837.119 122.119 836 123.5 836H266.5C267.881 836 269 837.119 269 838.5C269 839.881 267.881 841 266.5 841H123.5C122.119 841 121 839.881 121 838.5Z" fill="#090A0A"/>
<path d="M54.0688 36V26.1304H53.9194L50.9395 28.2305V26.2217L54.0688 24.022H56.2021V36H54.0688ZM63.4219 36.2988C62.4701 36.2988 61.6538 36.0443 60.9731 35.5352C60.298 35.026 59.7778 34.3011 59.4126 33.3604C59.0474 32.4196 58.8647 31.3045 58.8647 30.0151V29.9985C58.8647 28.7091 59.0474 27.5968 59.4126 26.6616C59.7778 25.7209 60.298 24.9959 60.9731 24.4868C61.6538 23.9777 62.4701 23.7231 63.4219 23.7231C64.3737 23.7231 65.1899 23.9777 65.8706 24.4868C66.5513 24.9959 67.0742 25.7209 67.4395 26.6616C67.8047 27.5968 67.9873 28.7091 67.9873 29.9985V30.0151C67.9873 31.3045 67.8047 32.4196 67.4395 33.3604C67.0742 34.3011 66.5513 35.026 65.8706 35.5352C65.1899 36.0443 64.3737 36.2988 63.4219 36.2988ZM63.4219 34.564C63.931 34.564 64.3654 34.3813 64.7251 34.0161C65.0848 33.6509 65.3587 33.1307 65.5469 32.4556C65.7406 31.7749 65.8374 30.9614 65.8374 30.0151V29.9985C65.8374 29.0522 65.7406 28.2415 65.5469 27.5664C65.3587 26.8857 65.0848 26.3656 64.7251 26.0059C64.3654 25.6406 63.931 25.458 63.4219 25.458C62.9128 25.458 62.4784 25.6406 62.1187 26.0059C61.7645 26.3656 61.4906 26.8857 61.2969 27.5664C61.1087 28.2415 61.0146 29.0522 61.0146 29.9985V30.0151C61.0146 30.9614 61.1087 31.7749 61.2969 32.4556C61.4906 33.1307 61.7645 33.6509 62.1187 34.0161C62.4784 34.3813 62.9128 34.564 63.4219 34.564ZM71.2974 34.3896C70.9211 34.3896 70.6056 34.2651 70.3511 34.0161C70.1021 33.7616 69.9775 33.4517 69.9775 33.0864C69.9775 32.7157 70.1021 32.4058 70.3511 32.1567C70.6056 31.9022 70.9211 31.7749 71.2974 31.7749C71.6792 31.7749 71.9946 31.9022 72.2437 32.1567C72.4927 32.4058 72.6172 32.7157 72.6172 33.0864C72.6172 33.4517 72.4927 33.7616 72.2437 34.0161C71.9946 34.2651 71.6792 34.3896 71.2974 34.3896ZM71.2974 28.2305C70.9211 28.2305 70.6056 28.106 70.3511 27.8569C70.1021 27.6024 69.9775 27.2925 69.9775 26.9272C69.9775 26.5565 70.1021 26.2466 70.3511 25.9976C70.6056 25.743 70.9211 25.6157 71.2974 25.6157C71.6792 25.6157 71.9946 25.743 72.2437 25.9976C72.4927 26.2466 72.6172 26.5565 72.6172 26.9272C72.6172 27.2925 72.4927 27.6024 72.2437 27.8569C71.9946 28.106 71.6792 28.2305 71.2974 28.2305ZM79.1562 36.2988C78.2044 36.2988 77.3882 36.0443 76.7075 35.5352C76.0324 35.026 75.5122 34.3011 75.147 33.3604C74.7817 32.4196 74.5991 31.3045 74.5991 30.0151V29.9985C74.5991 28.7091 74.7817 27.5968 75.147 26.6616C75.5122 25.7209 76.0324 24.9959 76.7075 24.4868C77.3882 23.9777 78.2044 23.7231 79.1562 23.7231C80.1081 23.7231 80.9243 23.9777 81.605 24.4868C82.2856 24.9959 82.8086 25.7209 83.1738 26.6616C83.5391 27.5968 83.7217 28.7091 83.7217 29.9985V30.0151C83.7217 31.3045 83.5391 32.4196 83.1738 33.3604C82.8086 34.3011 82.2856 35.026 81.605 35.5352C80.9243 36.0443 80.1081 36.2988 79.1562 36.2988ZM79.1562 34.564C79.6654 34.564 80.0998 34.3813 80.4595 34.0161C80.8192 33.6509 81.0931 33.1307 81.2812 32.4556C81.4749 31.7749 81.5718 30.9614 81.5718 30.0151V29.9985C81.5718 29.0522 81.4749 28.2415 81.2812 27.5664C81.0931 26.8857 80.8192 26.3656 80.4595 26.0059C80.0998 25.6406 79.6654 25.458 79.1562 25.458C78.6471 25.458 78.2127 25.6406 77.853 26.0059C77.4989 26.3656 77.2249 26.8857 77.0312 27.5664C76.8431 28.2415 76.749 29.0522 76.749 29.9985V30.0151C76.749 30.9614 76.8431 31.7749 77.0312 32.4556C77.2249 33.1307 77.4989 33.6509 77.853 34.0161C78.2127 34.3813 78.6471 34.564 79.1562 34.564ZM89.9619 36.2988C89.0101 36.2988 88.1938 36.0443 87.5132 35.5352C86.8381 35.026 86.3179 34.3011 85.9526 33.3604C85.5874 32.4196 85.4048 31.3045 85.4048 30.0151V29.9985C85.4048 28.7091 85.5874 27.5968 85.9526 26.6616C86.3179 25.7209 86.8381 24.9959 87.5132 24.4868C88.1938 23.9777 89.0101 23.7231 89.9619 23.7231C90.9137 23.7231 91.73 23.9777 92.4106 24.4868C93.0913 24.9959 93.6143 25.7209 93.9795 26.6616C94.3447 27.5968 94.5273 28.7091 94.5273 29.9985V30.0151C94.5273 31.3045 94.3447 32.4196 93.9795 33.3604C93.6143 34.3011 93.0913 35.026 92.4106 35.5352C91.73 36.0443 90.9137 36.2988 89.9619 36.2988ZM89.9619 34.564C90.471 34.564 90.9054 34.3813 91.2651 34.0161C91.6248 33.6509 91.8988 33.1307 92.0869 32.4556C92.2806 31.7749 92.3774 30.9614 92.3774 30.0151V29.9985C92.3774 29.0522 92.2806 28.2415 92.0869 27.5664C91.8988 26.8857 91.6248 26.3656 91.2651 26.0059C90.9054 25.6406 90.471 25.458 89.9619 25.458C89.4528 25.458 89.0184 25.6406 88.6587 26.0059C88.3045 26.3656 88.0306 26.8857 87.8369 27.5664C87.6488 28.2415 87.5547 29.0522 87.5547 29.9985V30.0151C87.5547 30.9614 87.6488 31.7749 87.8369 32.4556C88.0306 33.1307 88.3045 33.6509 88.6587 34.0161C89.0184 34.3813 89.4528 34.564 89.9619 34.564Z" fill="black"/>
<path d="M288.333 31C288.977 31 289.5 31.5037 289.5 32.125V34.375C289.5 34.9963 288.977 35.5 288.333 35.5H287.167C286.523 35.5 286 34.9963 286 34.375V32.125C286 31.5037 286.523 31 287.167 31H288.333ZM293.823 28.75C294.468 28.75 294.99 29.2537 294.99 29.875V34.375C294.99 34.9963 294.468 35.5 293.823 35.5H292.657C292.013 35.5 291.49 34.9963 291.49 34.375V29.875C291.49 29.2537 292.013 28.75 292.657 28.75H293.823ZM299.313 26.125C299.958 26.125 300.48 26.6287 300.48 27.25V34.375C300.48 34.9963 299.958 35.5 299.313 35.5H298.147C297.503 35.5 296.98 34.9963 296.98 34.375V27.25C296.981 26.6287 297.503 26.125 298.147 26.125H299.313ZM304.804 23.5C305.448 23.5 305.971 24.0037 305.971 24.625V34.375C305.971 34.9963 305.448 35.5 304.804 35.5H303.638C302.993 35.5 302.471 34.9963 302.471 34.375V24.625C302.471 24.0037 302.993 23.5 303.638 23.5H304.804Z" fill="black"/>
<path d="M318.512 32.8262C319.932 31.5964 322.011 31.5964 323.431 32.8262C323.502 32.8924 323.544 32.9855 323.546 33.084C323.548 33.1826 323.51 33.2777 323.441 33.3467L321.218 35.6446C321.153 35.7121 321.063 35.7501 320.971 35.7501C320.878 35.7499 320.79 35.7119 320.725 35.6446L318.501 33.3467C318.432 33.2776 318.394 33.1826 318.396 33.084C318.399 32.9855 318.44 32.8923 318.512 32.8262ZM315.545 29.7608C318.604 26.8467 323.341 26.8467 326.4 29.7608C326.469 29.829 326.509 29.9225 326.51 30.0206C326.511 30.1188 326.473 30.2135 326.405 30.2833L325.12 31.6133C324.988 31.7491 324.774 31.7524 324.638 31.6202C323.633 30.6886 322.326 30.1728 320.971 30.1729C319.617 30.1736 318.311 30.6895 317.308 31.6202C317.172 31.7524 316.958 31.7491 316.825 31.6133L315.54 30.2833C315.472 30.2136 315.435 30.1189 315.436 30.0206C315.437 29.9224 315.476 29.829 315.545 29.7608ZM312.578 26.7032C317.27 22.0989 324.671 22.099 329.363 26.7032C329.431 26.7716 329.47 26.8654 329.471 26.963C329.471 27.0605 329.433 27.1545 329.366 27.2237L328.08 28.5538C327.947 28.6901 327.732 28.691 327.598 28.5567C325.81 26.8164 323.437 25.8459 320.971 25.8458C318.504 25.8459 316.131 26.8163 314.344 28.5567C314.209 28.6913 313.994 28.6904 313.861 28.5538L312.574 27.2237C312.507 27.1545 312.47 27.0605 312.471 26.963C312.471 26.8654 312.51 26.7715 312.578 26.7032Z" fill="black"/>
<rect opacity="0.4" x="336.471" y="23.5" width="24" height="12" rx="3.5" stroke="black"/>
<path opacity="0.5" d="M361.971 27.5V31.5C362.777 31.1612 363.301 30.3731 363.301 29.5C363.301 28.6269 362.777 27.8388 361.971 27.5Z" fill="black"/>
<rect x="337.971" y="25" width="17" height="9" rx="2" fill="black"/>
<path d="M68.7843 289C67.8676 289 67.1593 288.742 66.6593 288.225C66.1759 287.692 65.9343 286.958 65.9343 286.025V275.625H69.7343V285C69.7343 285.4 69.8176 285.683 69.9843 285.85C70.1509 286.017 70.4259 286.1 70.8093 286.1H71.6843V289H68.7843ZM79.8724 289.375C78.5557 289.375 77.4057 289.167 76.4224 288.75C75.439 288.333 74.689 287.75 74.1724 287C73.6557 286.25 73.3974 285.4 73.3974 284.45V283.825C73.3974 283.225 73.514 282.683 73.7474 282.2C73.9807 281.717 74.3057 281.175 74.7224 280.575C74.989 280.208 75.1807 279.917 75.2974 279.7C75.414 279.467 75.4724 279.258 75.4724 279.075C75.4724 278.608 75.189 278.375 74.6224 278.375H73.2224V275.625H76.8474C77.5974 275.625 78.1974 275.842 78.6474 276.275C79.0974 276.708 79.3224 277.275 79.3224 277.975C79.3224 278.475 79.2307 278.942 79.0474 279.375C78.864 279.792 78.589 280.275 78.2224 280.825C77.8724 281.375 77.6057 281.842 77.4224 282.225C77.2557 282.608 77.1724 283.025 77.1724 283.475V284C77.1724 284.783 77.4057 285.383 77.8724 285.8C78.339 286.217 79.0057 286.425 79.8724 286.425C80.789 286.425 81.4807 286.175 81.9474 285.675C82.4307 285.158 82.6724 284.417 82.6724 283.45C82.6724 281.417 81.8807 280.4 80.2974 280.4V278.575L82.7224 275.25H86.7474L84.0224 278.975C84.9057 279.425 85.5307 280.017 85.8974 280.75C86.2807 281.467 86.4724 282.383 86.4724 283.5C86.4724 284.65 86.2057 285.667 85.6724 286.55C85.1557 287.433 84.3974 288.125 83.3974 288.625C82.3974 289.125 81.2224 289.375 79.8724 289.375ZM74.6835 271.575H86.2585V273.975H74.6835V271.575ZM105.008 291.45C104.058 291.45 103.125 291.358 102.208 291.175C101.292 291.008 100.542 290.775 99.9585 290.475V287.55C101.492 288.35 103.175 288.75 105.008 288.75C106.042 288.75 106.875 288.625 107.508 288.375C108.142 288.125 108.458 287.75 108.458 287.25C108.458 287.017 108.4 286.792 108.283 286.575C107.267 287.042 106.108 287.275 104.808 287.275C103.442 287.275 102.258 287.042 101.258 286.575C100.275 286.108 99.5252 285.45 99.0085 284.6C98.5085 283.75 98.2585 282.767 98.2585 281.65V280.95C98.2585 280.017 98.0418 279.325 97.6085 278.875C97.1752 278.425 96.5085 278.2 95.6085 278.2C94.9418 278.2 94.3502 278.3 93.8335 278.5C93.3335 278.7 92.8502 279.025 92.3835 279.475L93.3585 281.075V285C93.3585 285.4 93.4502 285.683 93.6335 285.85C93.8168 286.017 94.1168 286.1 94.5335 286.1H95.8085V289H92.4585C91.5418 289 90.8335 288.742 90.3335 288.225C89.8335 287.692 89.5835 286.958 89.5835 286.025V281.025L88.3335 278.9C89.2835 277.717 90.3502 276.817 91.5335 276.2C92.7168 275.567 94.0752 275.25 95.6085 275.25C97.6752 275.25 99.2585 275.733 100.358 276.7C101.458 277.65 102.008 278.967 102.008 280.65V281.3C102.008 282.283 102.225 283.033 102.658 283.55C103.092 284.067 103.808 284.325 104.808 284.325C106.675 284.325 107.608 283.317 107.608 281.3V275.625H111.408V281.65C111.408 282.783 111.125 283.792 110.558 284.675C110.975 285.058 111.275 285.467 111.458 285.9C111.658 286.333 111.758 286.817 111.758 287.35C111.758 288.65 111.125 289.658 109.858 290.375C108.592 291.092 106.975 291.45 105.008 291.45ZM118.579 289.375C117.046 289.375 115.821 288.992 114.904 288.225C114.004 287.458 113.554 286.375 113.554 284.975C113.554 283.575 114.046 282.475 115.029 281.675C116.029 280.875 117.396 280.475 119.129 280.475C120.746 280.475 122.129 280.742 123.279 281.275V280.75C123.279 279.85 122.979 279.183 122.379 278.75C121.796 278.317 120.846 278.1 119.529 278.1C118.713 278.1 117.913 278.183 117.129 278.35C116.346 278.517 115.646 278.75 115.029 279.05V276.2C115.579 275.933 116.338 275.708 117.304 275.525C118.271 275.342 119.246 275.25 120.229 275.25C121.346 275.25 122.388 275.417 123.354 275.75L124.329 274.625H128.454L125.979 277.5C126.696 278.317 127.054 279.392 127.054 280.725V289H123.279V284.025C122.313 283.525 121.179 283.275 119.879 283.275C119.029 283.275 118.404 283.417 118.004 283.7C117.621 283.983 117.429 284.425 117.429 285.025C117.429 285.575 117.604 285.992 117.954 286.275C118.321 286.542 118.896 286.675 119.679 286.675C120.229 286.675 120.696 286.592 121.079 286.425V289.05C120.429 289.267 119.596 289.375 118.579 289.375ZM138.097 289.375C137.263 289.375 136.455 289.217 135.672 288.9C134.888 288.583 134.205 288.117 133.622 287.5V289H129.997V275.625H133.797V284.625C134.163 285.242 134.605 285.7 135.122 286C135.638 286.283 136.247 286.425 136.947 286.425C138.663 286.425 139.522 285.617 139.522 284V275.625H143.297V284.225C143.297 285.192 143.097 286.067 142.697 286.85C142.297 287.633 141.705 288.25 140.922 288.7C140.138 289.15 139.197 289.375 138.097 289.375ZM149.94 280.675C149.94 279.808 149.756 279.183 149.39 278.8C149.023 278.4 148.381 278.2 147.465 278.2C146.581 278.2 145.69 278.425 144.79 278.875V276C145.19 275.8 145.723 275.625 146.39 275.475C147.073 275.325 147.731 275.25 148.365 275.25C150.115 275.25 151.448 275.717 152.365 276.65C153.281 277.583 153.74 278.933 153.74 280.7V289H149.94V280.675ZM162.49 289.375C161.173 289.375 160.023 289.167 159.04 288.75C158.056 288.333 157.306 287.75 156.79 287C156.273 286.25 156.015 285.4 156.015 284.45V283.825C156.015 283.225 156.131 282.683 156.365 282.2C156.598 281.717 156.923 281.175 157.34 280.575C157.606 280.208 157.798 279.917 157.915 279.7C158.031 279.467 158.09 279.258 158.09 279.075C158.09 278.608 157.806 278.375 157.24 278.375H155.84V275.625H159.465C160.215 275.625 160.815 275.842 161.265 276.275C161.715 276.708 161.94 277.275 161.94 277.975C161.94 278.475 161.848 278.942 161.665 279.375C161.481 279.792 161.206 280.275 160.84 280.825C160.49 281.375 160.223 281.842 160.04 282.225C159.873 282.608 159.79 283.025 159.79 283.475V284C159.79 284.783 160.023 285.383 160.49 285.8C160.956 286.217 161.623 286.425 162.49 286.425C163.406 286.425 164.098 286.175 164.565 285.675C165.048 285.158 165.29 284.417 165.29 283.45C165.29 281.417 164.498 280.4 162.915 280.4V278.575L165.34 275.25H169.365L166.64 278.975C167.523 279.425 168.148 280.017 168.515 280.75C168.898 281.467 169.09 282.383 169.09 283.5C169.09 284.65 168.823 285.667 168.29 286.55C167.773 287.433 167.015 288.125 166.015 288.625C165.015 289.125 163.84 289.375 162.49 289.375ZM157.301 271.575H168.876V273.975H157.301V271.575ZM172.201 281.025L170.951 278.9C172.901 276.467 175.409 275.25 178.476 275.25C180.626 275.25 182.276 275.725 183.426 276.675C184.592 277.625 185.176 278.95 185.176 280.65V289H181.376V280.95C181.376 279.117 180.409 278.2 178.476 278.2C177.759 278.2 177.117 278.3 176.551 278.5C176.001 278.7 175.484 279.025 175.001 279.475L175.976 281.075V289H172.201V281.025ZM187.785 278.7C187.785 277.717 188.052 276.958 188.585 276.425C189.118 275.892 189.877 275.625 190.86 275.625H193.56V278.55H192.66C192.26 278.55 191.977 278.633 191.81 278.8C191.643 278.967 191.56 279.267 191.56 279.7V284.05L194.085 280.2H195.41L197.935 284.05V275.625H201.685V289H198.285L194.735 283.6L191.185 289H187.785V278.7ZM198.063 296C196.83 296 195.88 295.758 195.213 295.275C194.53 294.792 194.188 294.15 194.188 293.35V292.9C194.188 292.683 194.155 292.533 194.088 292.45C194.005 292.367 193.863 292.325 193.663 292.325H192.838V290.175H195.663C196.163 290.175 196.513 290.283 196.713 290.5C196.897 290.733 196.988 291.092 196.988 291.575V292.95C196.988 293.55 197.305 293.85 197.938 293.85C198.555 293.85 198.863 293.55 198.863 292.95V290.175H201.663V293.25C201.663 294.05 201.355 294.708 200.738 295.225C200.105 295.742 199.213 296 198.063 296ZM195.588 272.375C195.588 272.192 195.555 272.067 195.488 272C195.405 271.917 195.272 271.875 195.088 271.875H193.913V269.3H196.263C196.88 269.3 197.33 269.442 197.613 269.725C197.88 270.008 198.013 270.367 198.013 270.8V271.55H203.038V273.975H195.588V272.375ZM210.513 289.375C208.447 289.375 206.813 288.8 205.613 287.65C204.413 286.5 203.813 284.817 203.813 282.6C203.813 280.283 204.505 278.483 205.888 277.2C207.272 275.9 209.18 275.25 211.613 275.25C214.13 275.25 215.98 275.833 217.163 277C218.363 278.167 218.963 279.7 218.963 281.6V289H215.188V281.575C215.188 280.475 214.905 279.642 214.338 279.075C213.788 278.492 212.88 278.2 211.613 278.2C210.413 278.2 209.463 278.575 208.763 279.325C208.063 280.075 207.713 281.167 207.713 282.6C207.713 283.917 207.997 284.883 208.563 285.5C209.147 286.117 210.03 286.425 211.213 286.425C211.847 286.425 212.413 286.333 212.913 286.15V289.05C212.263 289.267 211.463 289.375 210.513 289.375ZM215.348 296C214.115 296 213.165 295.758 212.498 295.275C211.815 294.792 211.473 294.15 211.473 293.35V292.9C211.473 292.683 211.44 292.533 211.373 292.45C211.29 292.367 211.148 292.325 210.948 292.325H210.123V290.175H212.948C213.448 290.175 213.798 290.283 213.998 290.5C214.182 290.733 214.273 291.092 214.273 291.575V292.95C214.273 293.55 214.59 293.85 215.223 293.85C215.84 293.85 216.148 293.55 216.148 292.95V290.175H218.948V293.25C218.948 294.05 218.64 294.708 218.023 295.225C217.39 295.742 216.498 296 215.348 296ZM224.448 289C223.532 289 222.823 288.742 222.323 288.225C221.84 287.692 221.598 286.958 221.598 286.025V275.625H225.398V285C225.398 285.4 225.482 285.683 225.648 285.85C225.815 286.017 226.09 286.1 226.473 286.1H227.348V289H224.448ZM231.473 289C230.557 289 229.848 288.742 229.348 288.225C228.865 287.692 228.623 286.958 228.623 286.025V275.625H232.398V285C232.398 285.4 232.482 285.683 232.648 285.85C232.815 286.017 233.098 286.1 233.498 286.1H234.373V289H231.473ZM240.943 289.375C239.409 289.375 238.184 288.992 237.268 288.225C236.368 287.458 235.918 286.375 235.918 284.975C235.918 283.575 236.409 282.475 237.393 281.675C238.393 280.875 239.759 280.475 241.493 280.475C243.109 280.475 244.493 280.742 245.643 281.275V280.75C245.643 279.85 245.343 279.183 244.743 278.75C244.159 278.317 243.209 278.1 241.893 278.1C241.076 278.1 240.276 278.183 239.493 278.35C238.709 278.517 238.009 278.75 237.393 279.05V276.2C237.943 275.933 238.701 275.708 239.668 275.525C240.634 275.342 241.609 275.25 242.593 275.25C244.826 275.25 246.518 275.75 247.668 276.75C248.834 277.733 249.418 279.058 249.418 280.725V289H245.643V284.025C244.676 283.525 243.543 283.275 242.243 283.275C241.393 283.275 240.768 283.417 240.368 283.7C239.984 283.983 239.793 284.425 239.793 285.025C239.793 285.575 239.968 285.992 240.318 286.275C240.684 286.542 241.259 286.675 242.043 286.675C242.593 286.675 243.059 286.592 243.443 286.425V289.05C242.793 289.267 241.959 289.375 240.943 289.375ZM252.018 280.975C252.018 279.125 252.635 277.708 253.868 276.725C255.118 275.742 256.793 275.25 258.893 275.25C260.993 275.25 262.66 275.742 263.893 276.725C265.127 277.708 265.743 279.125 265.743 280.975V289H261.943V280.95C261.943 280.033 261.677 279.35 261.143 278.9C260.627 278.433 259.877 278.2 258.893 278.2C257.893 278.2 257.127 278.433 256.593 278.9C256.077 279.35 255.818 280.033 255.818 280.95V282.85C256.018 282.55 256.31 282.317 256.693 282.15C257.093 281.967 257.535 281.875 258.018 281.875H259.968V284.775H257.818C257.235 284.775 256.752 284.958 256.368 285.325C256.002 285.692 255.818 286.167 255.818 286.75V289H252.018V280.975ZM273.551 289.375C272.468 289.375 271.535 289.15 270.751 288.7C269.968 288.25 269.368 287.633 268.951 286.85C268.551 286.067 268.351 285.192 268.351 284.225V275.625H272.151V284C272.151 285.617 273.01 286.425 274.726 286.425C275.426 286.425 276.026 286.283 276.526 286C277.043 285.7 277.493 285.242 277.876 284.625V275.625H281.651V289H278.051V287.5C277.468 288.117 276.776 288.583 275.976 288.9C275.193 289.217 274.385 289.375 273.551 289.375ZM289.769 289.375C288.653 289.375 287.553 289.258 286.469 289.025C285.386 288.808 284.486 288.5 283.769 288.1V281.075H290.094V283.85H287.494V286C288.011 286.283 288.769 286.425 289.769 286.425C292.419 286.425 293.744 285.042 293.744 282.275C293.744 280.858 293.361 279.825 292.594 279.175C291.828 278.525 290.536 278.2 288.719 278.2C287.886 278.2 287.028 278.292 286.144 278.475C285.278 278.642 284.544 278.883 283.944 279.2V276.25C284.628 275.933 285.453 275.692 286.419 275.525C287.386 275.342 288.394 275.25 289.444 275.25C292.128 275.25 294.161 275.867 295.544 277.1C296.944 278.317 297.644 280.042 297.644 282.275C297.644 284.475 296.961 286.208 295.594 287.475C294.228 288.742 292.286 289.375 289.769 289.375ZM285.598 271.575H290.248V268.925H292.873V271.575H294.548V268.925H297.148V273.975H285.598V271.575ZM293.723 263.625H297.123V267.15H293.723V263.625ZM304.948 289.375C303.864 289.375 302.931 289.15 302.148 288.7C301.364 288.25 300.764 287.633 300.348 286.85C299.948 286.067 299.748 285.192 299.748 284.225V275.625H303.548V284C303.548 285.617 304.406 286.425 306.123 286.425C306.823 286.425 307.423 286.283 307.923 286C308.439 285.7 308.889 285.242 309.273 284.625V275.625H313.048V289H309.448V287.5C308.864 288.117 308.173 288.583 307.373 288.9C306.589 289.217 305.781 289.375 304.948 289.375ZM122.361 318C121.444 318 120.736 317.742 120.236 317.225C119.753 316.692 119.511 315.958 119.511 315.025V304.625H123.311V314C123.311 314.4 123.394 314.683 123.561 314.85C123.728 315.017 124.003 315.1 124.386 315.1H125.261V318H122.361ZM132.299 318.375C131.316 318.375 130.316 318.275 129.299 318.075C128.299 317.892 127.507 317.608 126.924 317.225V314.325C127.657 314.758 128.474 315.092 129.374 315.325C130.291 315.558 131.116 315.675 131.849 315.675C132.732 315.675 133.374 315.592 133.774 315.425C134.191 315.242 134.399 314.925 134.399 314.475C134.399 314.075 134.199 313.767 133.799 313.55C133.416 313.333 132.691 313.058 131.624 312.725L130.999 312.525C129.566 312.075 128.507 311.533 127.824 310.9C127.141 310.267 126.799 309.4 126.799 308.3C126.799 307.017 127.316 306.025 128.349 305.325C129.382 304.608 130.774 304.25 132.524 304.25C133.474 304.25 134.391 304.35 135.274 304.55C136.157 304.75 136.866 305.008 137.399 305.325V308.3C136.866 307.933 136.199 307.642 135.399 307.425C134.616 307.192 133.841 307.075 133.074 307.075C131.457 307.075 130.649 307.483 130.649 308.3C130.649 308.7 130.841 309.008 131.224 309.225C131.607 309.442 132.291 309.7 133.274 310L134.174 310.275C135.224 310.608 136.041 310.975 136.624 311.375C137.224 311.775 137.641 312.225 137.874 312.725C138.107 313.225 138.224 313.833 138.224 314.55C138.224 315.7 137.724 316.625 136.724 317.325C135.741 318.025 134.266 318.375 132.299 318.375ZM126.161 300.575H134.311V297.925H137.736V302.975H126.161V300.575ZM146.711 318.375C144.628 318.375 142.961 318 141.711 317.25C140.461 316.483 139.836 315.392 139.836 313.975C139.836 313.325 140.011 312.742 140.361 312.225C140.728 311.692 141.211 311.308 141.811 311.075C141.261 310.792 140.811 310.383 140.461 309.85C140.128 309.317 139.961 308.733 139.961 308.1C139.961 306.933 140.369 306 141.186 305.3C142.019 304.6 143.219 304.25 144.786 304.25C145.269 304.25 145.744 304.283 146.211 304.35C146.694 304.417 147.061 304.492 147.311 304.575V307.425C147.078 307.325 146.794 307.242 146.461 307.175C146.144 307.108 145.853 307.075 145.586 307.075C144.419 307.075 143.836 307.508 143.836 308.375C143.836 308.825 143.978 309.167 144.261 309.4C144.561 309.617 145.019 309.725 145.636 309.725H147.311V312.4H145.636C144.369 312.4 143.736 312.9 143.736 313.9C143.736 314.433 143.986 314.85 144.486 315.15C145.003 315.433 145.744 315.575 146.711 315.575C147.878 315.575 148.728 315.342 149.261 314.875C149.811 314.392 150.086 313.675 150.086 312.725V304.6H153.886V312.7C153.886 313.65 153.644 314.558 153.161 315.425C152.678 316.275 151.903 316.983 150.836 317.55C149.769 318.1 148.394 318.375 146.711 318.375ZM163.398 318.375C162.015 318.375 160.807 318.133 159.773 317.65C158.74 317.15 157.94 316.467 157.373 315.6C156.807 314.733 156.523 313.75 156.523 312.65V304.625H160.323V312.4C160.323 313.367 160.573 314.117 161.073 314.65C161.59 315.167 162.365 315.425 163.398 315.425C164.432 315.425 165.198 315.167 165.698 314.65C166.198 314.117 166.448 313.367 166.448 312.4V304.625H170.248V312.65C170.248 313.75 169.965 314.733 169.398 315.6C168.832 316.467 168.032 317.15 166.998 317.65C165.965 318.133 164.765 318.375 163.398 318.375ZM177.831 318.375C176.848 318.375 175.848 318.275 174.831 318.075C173.831 317.892 173.04 317.608 172.456 317.225V314.325C173.19 314.758 174.006 315.092 174.906 315.325C175.823 315.558 176.648 315.675 177.381 315.675C178.265 315.675 178.906 315.592 179.306 315.425C179.723 315.242 179.931 314.925 179.931 314.475C179.931 314.075 179.731 313.767 179.331 313.55C178.948 313.333 178.223 313.058 177.156 312.725L176.531 312.525C175.098 312.075 174.04 311.533 173.356 310.9C172.673 310.267 172.331 309.4 172.331 308.3C172.331 307.017 172.848 306.025 173.881 305.325C174.915 304.608 176.306 304.25 178.056 304.25C179.006 304.25 179.923 304.35 180.806 304.55C181.69 304.75 182.398 305.008 182.931 305.325V308.3C182.398 307.933 181.731 307.642 180.931 307.425C180.148 307.192 179.373 307.075 178.606 307.075C176.99 307.075 176.181 307.483 176.181 308.3C176.181 308.7 176.373 309.008 176.756 309.225C177.14 309.442 177.823 309.7 178.806 310L179.706 310.275C180.756 310.608 181.573 310.975 182.156 311.375C182.756 311.775 183.173 312.225 183.406 312.725C183.64 313.225 183.756 313.833 183.756 314.55C183.756 315.7 183.256 316.625 182.256 317.325C181.273 318.025 179.798 318.375 177.831 318.375ZM177.143 301.375C177.143 301.192 177.11 301.067 177.043 301C176.96 300.917 176.827 300.875 176.643 300.875H175.468V298.3H177.818C178.435 298.3 178.885 298.442 179.168 298.725C179.435 299.008 179.568 299.367 179.568 299.8V300.55H184.593V302.975H177.143V301.375ZM191.368 318.375C190.252 318.375 189.152 318.258 188.068 318.025C186.985 317.808 186.085 317.5 185.368 317.1V310.075H191.693V312.85H189.093V315C189.61 315.283 190.368 315.425 191.368 315.425C194.018 315.425 195.343 314.042 195.343 311.275C195.343 309.858 194.96 308.825 194.193 308.175C193.427 307.525 192.135 307.2 190.318 307.2C189.485 307.2 188.627 307.292 187.743 307.475C186.877 307.642 186.143 307.883 185.543 308.2V305.25C186.227 304.933 187.052 304.692 188.018 304.525C188.985 304.342 189.993 304.25 191.043 304.25C193.727 304.25 195.76 304.867 197.143 306.1C198.543 307.317 199.243 309.042 199.243 311.275C199.243 313.475 198.56 315.208 197.193 316.475C195.827 317.742 193.885 318.375 191.368 318.375ZM207.722 318.375C205.639 318.375 203.972 318 202.722 317.25C201.472 316.483 200.847 315.392 200.847 313.975C200.847 313.325 201.022 312.742 201.372 312.225C201.739 311.692 202.222 311.308 202.822 311.075C202.272 310.792 201.822 310.383 201.472 309.85C201.139 309.317 200.972 308.733 200.972 308.1C200.972 306.933 201.38 306 202.197 305.3C203.03 304.6 204.23 304.25 205.797 304.25C206.28 304.25 206.755 304.283 207.222 304.35C207.705 304.417 208.072 304.492 208.322 304.575V307.425C208.089 307.325 207.805 307.242 207.472 307.175C207.155 307.108 206.864 307.075 206.597 307.075C205.43 307.075 204.847 307.508 204.847 308.375C204.847 308.825 204.989 309.167 205.272 309.4C205.572 309.617 206.03 309.725 206.647 309.725H208.322V312.4H206.647C205.38 312.4 204.747 312.9 204.747 313.9C204.747 314.433 204.997 314.85 205.497 315.15C206.014 315.433 206.755 315.575 207.722 315.575C208.889 315.575 209.739 315.342 210.272 314.875C210.822 314.392 211.097 313.675 211.097 312.725V304.6H214.897V312.7C214.897 313.65 214.655 314.558 214.172 315.425C213.689 316.275 212.914 316.983 211.847 317.55C210.78 318.1 209.405 318.375 207.722 318.375ZM220.359 318C219.442 318 218.734 317.742 218.234 317.225C217.751 316.692 217.509 315.958 217.509 315.025V304.625H221.309V314C221.309 314.4 221.392 314.683 221.559 314.85C221.726 315.017 222.001 315.1 222.384 315.1H223.259V318H220.359ZM227.384 318C226.467 318 225.759 317.742 225.259 317.225C224.776 316.692 224.534 315.958 224.534 315.025V304.625H228.309V314C228.309 314.4 228.392 314.683 228.559 314.85C228.726 315.017 229.009 315.1 229.409 315.1H230.284V318H227.384ZM236.853 318.375C235.32 318.375 234.095 317.992 233.178 317.225C232.278 316.458 231.828 315.375 231.828 313.975C231.828 312.575 232.32 311.475 233.303 310.675C234.303 309.875 235.67 309.475 237.403 309.475C239.02 309.475 240.403 309.742 241.553 310.275V309.75C241.553 308.85 241.253 308.183 240.653 307.75C240.07 307.317 239.12 307.1 237.803 307.1C236.987 307.1 236.187 307.183 235.403 307.35C234.62 307.517 233.92 307.75 233.303 308.05V305.2C233.853 304.933 234.612 304.708 235.578 304.525C236.545 304.342 237.52 304.25 238.503 304.25C240.737 304.25 242.428 304.75 243.578 305.75C244.745 306.733 245.328 308.058 245.328 309.725V318H241.553V313.025C240.587 312.525 239.453 312.275 238.153 312.275C237.303 312.275 236.678 312.417 236.278 312.7C235.895 312.983 235.703 313.425 235.703 314.025C235.703 314.575 235.878 314.992 236.228 315.275C236.595 315.542 237.17 315.675 237.953 315.675C238.503 315.675 238.97 315.592 239.353 315.425V318.05C238.703 318.267 237.87 318.375 236.853 318.375ZM239.204 301.375C239.204 301.192 239.171 301.067 239.104 301C239.021 300.917 238.887 300.875 238.704 300.875H237.529V298.3H239.879C240.496 298.3 240.946 298.442 241.229 298.725C241.496 299.008 241.629 299.367 241.629 299.8V300.55H246.654V302.975H239.204V301.375ZM252.504 318.375C250.287 318.375 248.596 318.017 247.429 317.3V314.35C248.462 315.067 249.879 315.425 251.679 315.425C253.079 315.425 254.162 315.092 254.929 314.425C255.696 313.742 256.079 312.708 256.079 311.325C256.079 309.942 255.696 308.908 254.929 308.225C254.162 307.542 253.079 307.2 251.679 307.2C249.946 307.2 248.562 307.567 247.529 308.3V305.35C248.112 304.983 248.837 304.708 249.704 304.525C250.571 304.342 251.504 304.25 252.504 304.25C254.837 304.25 256.662 304.875 257.979 306.125C259.312 307.358 259.979 309.092 259.979 311.325C259.979 313.558 259.312 315.292 257.979 316.525C256.662 317.758 254.837 318.375 252.504 318.375Z" fill="#3CB364"/>
<path fill-rule="evenodd" clip-rule="evenodd" d="M195 238C198.414 238 201.795 237.327 204.95 236.021C208.104 234.714 210.97 232.799 213.385 230.385C215.799 227.97 217.714 225.104 219.021 221.95C220.327 218.795 221 215.414 221 212C221 208.586 220.327 205.205 219.021 202.05C217.714 198.896 215.799 196.03 213.385 193.615C210.97 191.201 208.104 189.286 204.95 187.979C201.795 186.673 198.414 186 195 186C188.104 186 181.491 188.739 176.615 193.615C171.739 198.491 169 205.104 169 212C169 218.896 171.739 225.509 176.615 230.385C181.491 235.261 188.104 238 195 238ZM194.33 222.516L208.774 205.182L204.337 201.484L191.915 216.388L185.487 209.958L181.402 214.042L190.069 222.709L192.305 224.945L194.33 222.516Z" fill="#3CB364"/>
</svg>
