<svg width="390" height="849" viewBox="0 0 390 849" fill="none" xmlns="http://www.w3.org/2000/svg">
<rect y="5" width="390" height="844" rx="32" fill="white"/>
<path fill-rule="evenodd" clip-rule="evenodd" d="M121 838.5C121 837.119 122.119 836 123.5 836H266.5C267.881 836 269 837.119 269 838.5C269 839.881 267.881 841 266.5 841H123.5C122.119 841 121 839.881 121 838.5Z" fill="#090A0A"/>
<path d="M54.0688 36V26.1304H53.9194L50.9395 28.2305V26.2217L54.0688 24.022H56.2021V36H54.0688ZM63.4219 36.2988C62.4701 36.2988 61.6538 36.0443 60.9731 35.5352C60.298 35.026 59.7778 34.3011 59.4126 33.3604C59.0474 32.4196 58.8647 31.3045 58.8647 30.0151V29.9985C58.8647 28.7091 59.0474 27.5968 59.4126 26.6616C59.7778 25.7209 60.298 24.9959 60.9731 24.4868C61.6538 23.9777 62.4701 23.7231 63.4219 23.7231C64.3737 23.7231 65.1899 23.9777 65.8706 24.4868C66.5513 24.9959 67.0742 25.7209 67.4395 26.6616C67.8047 27.5968 67.9873 28.7091 67.9873 29.9985V30.0151C67.9873 31.3045 67.8047 32.4196 67.4395 33.3604C67.0742 34.3011 66.5513 35.026 65.8706 35.5352C65.1899 36.0443 64.3737 36.2988 63.4219 36.2988ZM63.4219 34.564C63.931 34.564 64.3654 34.3813 64.7251 34.0161C65.0848 33.6509 65.3587 33.1307 65.5469 32.4556C65.7406 31.7749 65.8374 30.9614 65.8374 30.0151V29.9985C65.8374 29.0522 65.7406 28.2415 65.5469 27.5664C65.3587 26.8857 65.0848 26.3656 64.7251 26.0059C64.3654 25.6406 63.931 25.458 63.4219 25.458C62.9128 25.458 62.4784 25.6406 62.1187 26.0059C61.7645 26.3656 61.4906 26.8857 61.2969 27.5664C61.1087 28.2415 61.0146 29.0522 61.0146 29.9985V30.0151C61.0146 30.9614 61.1087 31.7749 61.2969 32.4556C61.4906 33.1307 61.7645 33.6509 62.1187 34.0161C62.4784 34.3813 62.9128 34.564 63.4219 34.564ZM71.2974 34.3896C70.9211 34.3896 70.6056 34.2651 70.3511 34.0161C70.1021 33.7616 69.9775 33.4517 69.9775 33.0864C69.9775 32.7157 70.1021 32.4058 70.3511 32.1567C70.6056 31.9022 70.9211 31.7749 71.2974 31.7749C71.6792 31.7749 71.9946 31.9022 72.2437 32.1567C72.4927 32.4058 72.6172 32.7157 72.6172 33.0864C72.6172 33.4517 72.4927 33.7616 72.2437 34.0161C71.9946 34.2651 71.6792 34.3896 71.2974 34.3896ZM71.2974 28.2305C70.9211 28.2305 70.6056 28.106 70.3511 27.8569C70.1021 27.6024 69.9775 27.2925 69.9775 26.9272C69.9775 26.5565 70.1021 26.2466 70.3511 25.9976C70.6056 25.743 70.9211 25.6157 71.2974 25.6157C71.6792 25.6157 71.9946 25.743 72.2437 25.9976C72.4927 26.2466 72.6172 26.5565 72.6172 26.9272C72.6172 27.2925 72.4927 27.6024 72.2437 27.8569C71.9946 28.106 71.6792 28.2305 71.2974 28.2305ZM79.1562 36.2988C78.2044 36.2988 77.3882 36.0443 76.7075 35.5352C76.0324 35.026 75.5122 34.3011 75.147 33.3604C74.7817 32.4196 74.5991 31.3045 74.5991 30.0151V29.9985C74.5991 28.7091 74.7817 27.5968 75.147 26.6616C75.5122 25.7209 76.0324 24.9959 76.7075 24.4868C77.3882 23.9777 78.2044 23.7231 79.1562 23.7231C80.1081 23.7231 80.9243 23.9777 81.605 24.4868C82.2856 24.9959 82.8086 25.7209 83.1738 26.6616C83.5391 27.5968 83.7217 28.7091 83.7217 29.9985V30.0151C83.7217 31.3045 83.5391 32.4196 83.1738 33.3604C82.8086 34.3011 82.2856 35.026 81.605 35.5352C80.9243 36.0443 80.1081 36.2988 79.1562 36.2988ZM79.1562 34.564C79.6654 34.564 80.0998 34.3813 80.4595 34.0161C80.8192 33.6509 81.0931 33.1307 81.2812 32.4556C81.4749 31.7749 81.5718 30.9614 81.5718 30.0151V29.9985C81.5718 29.0522 81.4749 28.2415 81.2812 27.5664C81.0931 26.8857 80.8192 26.3656 80.4595 26.0059C80.0998 25.6406 79.6654 25.458 79.1562 25.458C78.6471 25.458 78.2127 25.6406 77.853 26.0059C77.4989 26.3656 77.2249 26.8857 77.0312 27.5664C76.8431 28.2415 76.749 29.0522 76.749 29.9985V30.0151C76.749 30.9614 76.8431 31.7749 77.0312 32.4556C77.2249 33.1307 77.4989 33.6509 77.853 34.0161C78.2127 34.3813 78.6471 34.564 79.1562 34.564ZM89.9619 36.2988C89.0101 36.2988 88.1938 36.0443 87.5132 35.5352C86.8381 35.026 86.3179 34.3011 85.9526 33.3604C85.5874 32.4196 85.4048 31.3045 85.4048 30.0151V29.9985C85.4048 28.7091 85.5874 27.5968 85.9526 26.6616C86.3179 25.7209 86.8381 24.9959 87.5132 24.4868C88.1938 23.9777 89.0101 23.7231 89.9619 23.7231C90.9137 23.7231 91.73 23.9777 92.4106 24.4868C93.0913 24.9959 93.6143 25.7209 93.9795 26.6616C94.3447 27.5968 94.5273 28.7091 94.5273 29.9985V30.0151C94.5273 31.3045 94.3447 32.4196 93.9795 33.3604C93.6143 34.3011 93.0913 35.026 92.4106 35.5352C91.73 36.0443 90.9137 36.2988 89.9619 36.2988ZM89.9619 34.564C90.471 34.564 90.9054 34.3813 91.2651 34.0161C91.6248 33.6509 91.8988 33.1307 92.0869 32.4556C92.2806 31.7749 92.3774 30.9614 92.3774 30.0151V29.9985C92.3774 29.0522 92.2806 28.2415 92.0869 27.5664C91.8988 26.8857 91.6248 26.3656 91.2651 26.0059C90.9054 25.6406 90.471 25.458 89.9619 25.458C89.4528 25.458 89.0184 25.6406 88.6587 26.0059C88.3045 26.3656 88.0306 26.8857 87.8369 27.5664C87.6488 28.2415 87.5547 29.0522 87.5547 29.9985V30.0151C87.5547 30.9614 87.6488 31.7749 87.8369 32.4556C88.0306 33.1307 88.3045 33.6509 88.6587 34.0161C89.0184 34.3813 89.4528 34.564 89.9619 34.564Z" fill="black"/>
<path d="M288.333 31C288.977 31 289.5 31.5037 289.5 32.125V34.375C289.5 34.9963 288.977 35.5 288.333 35.5H287.167C286.523 35.5 286 34.9963 286 34.375V32.125C286 31.5037 286.523 31 287.167 31H288.333ZM293.823 28.75C294.468 28.75 294.99 29.2537 294.99 29.875V34.375C294.99 34.9963 294.468 35.5 293.823 35.5H292.657C292.013 35.5 291.49 34.9963 291.49 34.375V29.875C291.49 29.2537 292.013 28.75 292.657 28.75H293.823ZM299.313 26.125C299.958 26.125 300.48 26.6287 300.48 27.25V34.375C300.48 34.9963 299.958 35.5 299.313 35.5H298.147C297.503 35.5 296.98 34.9963 296.98 34.375V27.25C296.981 26.6287 297.503 26.125 298.147 26.125H299.313ZM304.804 23.5C305.448 23.5 305.971 24.0037 305.971 24.625V34.375C305.971 34.9963 305.448 35.5 304.804 35.5H303.638C302.993 35.5 302.471 34.9963 302.471 34.375V24.625C302.471 24.0037 302.993 23.5 303.638 23.5H304.804Z" fill="black"/>
<path d="M318.512 32.8262C319.932 31.5964 322.011 31.5964 323.431 32.8262C323.502 32.8924 323.544 32.9855 323.546 33.084C323.548 33.1826 323.51 33.2777 323.441 33.3467L321.218 35.6446C321.153 35.7121 321.063 35.7501 320.971 35.7501C320.878 35.7499 320.79 35.7119 320.725 35.6446L318.501 33.3467C318.432 33.2776 318.394 33.1826 318.396 33.084C318.399 32.9855 318.44 32.8923 318.512 32.8262ZM315.545 29.7608C318.604 26.8467 323.341 26.8467 326.4 29.7608C326.469 29.829 326.509 29.9225 326.51 30.0206C326.511 30.1188 326.473 30.2135 326.405 30.2833L325.12 31.6133C324.988 31.7491 324.774 31.7524 324.638 31.6202C323.633 30.6886 322.326 30.1728 320.971 30.1729C319.617 30.1736 318.311 30.6895 317.308 31.6202C317.172 31.7524 316.958 31.7491 316.825 31.6133L315.54 30.2833C315.472 30.2136 315.435 30.1189 315.436 30.0206C315.437 29.9224 315.476 29.829 315.545 29.7608ZM312.578 26.7032C317.27 22.0989 324.671 22.099 329.363 26.7032C329.431 26.7716 329.47 26.8654 329.471 26.963C329.471 27.0605 329.433 27.1545 329.366 27.2237L328.08 28.5538C327.947 28.6901 327.732 28.691 327.598 28.5567C325.81 26.8164 323.437 25.8459 320.971 25.8458C318.504 25.8459 316.131 26.8163 314.344 28.5567C314.209 28.6913 313.994 28.6904 313.861 28.5538L312.574 27.2237C312.507 27.1545 312.47 27.0605 312.471 26.963C312.471 26.8654 312.51 26.7715 312.578 26.7032Z" fill="black"/>
<rect opacity="0.4" x="336.471" y="23.5" width="24" height="12" rx="3.5" stroke="black"/>
<path opacity="0.5" d="M361.971 27.5V31.5C362.777 31.1612 363.301 30.3731 363.301 29.5C363.301 28.6269 362.777 27.8388 361.971 27.5Z" fill="black"/>
<rect x="337.971" y="25" width="17" height="9" rx="2" fill="black"/>
<path d="M122.091 285C121.174 285 120.466 284.742 119.966 284.225C119.483 283.692 119.241 282.958 119.241 282.025V271.625H123.041V281C123.041 281.4 123.124 281.683 123.291 281.85C123.458 282.017 123.733 282.1 124.116 282.1H124.991V285H122.091ZM133.179 285.375C131.862 285.375 130.712 285.167 129.729 284.75C128.746 284.333 127.996 283.75 127.479 283C126.962 282.25 126.704 281.4 126.704 280.45V279.825C126.704 279.225 126.821 278.683 127.054 278.2C127.287 277.717 127.612 277.175 128.029 276.575C128.296 276.208 128.487 275.917 128.604 275.7C128.721 275.467 128.779 275.258 128.779 275.075C128.779 274.608 128.496 274.375 127.929 274.375H126.529V271.625H130.154C130.904 271.625 131.504 271.842 131.954 272.275C132.404 272.708 132.629 273.275 132.629 273.975C132.629 274.475 132.537 274.942 132.354 275.375C132.171 275.792 131.896 276.275 131.529 276.825C131.179 277.375 130.912 277.842 130.729 278.225C130.562 278.608 130.479 279.025 130.479 279.475V280C130.479 280.783 130.712 281.383 131.179 281.8C131.646 282.217 132.312 282.425 133.179 282.425C134.096 282.425 134.787 282.175 135.254 281.675C135.737 281.158 135.979 280.417 135.979 279.45C135.979 277.417 135.187 276.4 133.604 276.4V274.575L136.029 271.25H140.054L137.329 274.975C138.212 275.425 138.837 276.017 139.204 276.75C139.587 277.467 139.779 278.383 139.779 279.5C139.779 280.65 139.512 281.667 138.979 282.55C138.462 283.433 137.704 284.125 136.704 284.625C135.704 285.125 134.529 285.375 133.179 285.375ZM128.04 267.575H132.69V264.925H135.315V267.575H136.99V264.925H139.59V269.975H128.04V267.575ZM136.165 260.625H139.565V264.15H136.165V260.625ZM147.69 285.375C146.573 285.375 145.473 285.258 144.39 285.025C143.307 284.808 142.407 284.5 141.69 284.1V277.075H148.015V279.85H145.415V282C145.932 282.283 146.69 282.425 147.69 282.425C150.34 282.425 151.665 281.042 151.665 278.275C151.665 276.858 151.282 275.825 150.515 275.175C149.748 274.525 148.457 274.2 146.64 274.2C145.807 274.2 144.948 274.292 144.065 274.475C143.198 274.642 142.465 274.883 141.865 275.2V272.25C142.548 271.933 143.373 271.692 144.34 271.525C145.307 271.342 146.315 271.25 147.365 271.25C150.048 271.25 152.082 271.867 153.465 273.1C154.865 274.317 155.565 276.042 155.565 278.275C155.565 280.475 154.882 282.208 153.515 283.475C152.148 284.742 150.207 285.375 147.69 285.375ZM165.769 285.375C164.935 285.375 164.127 285.217 163.344 284.9C162.56 284.583 161.877 284.117 161.294 283.5V285H157.669V271.625H161.469V280.625C161.835 281.242 162.277 281.7 162.794 282C163.31 282.283 163.919 282.425 164.619 282.425C166.335 282.425 167.194 281.617 167.194 280V271.625H170.969V280.225C170.969 281.192 170.769 282.067 170.369 282.85C169.969 283.633 169.377 284.25 168.594 284.7C167.81 285.15 166.869 285.375 165.769 285.375ZM179.787 285.375C177.72 285.375 176.087 284.808 174.887 283.675C173.687 282.525 173.087 280.842 173.087 278.625C173.087 277.108 173.303 275.8 173.737 274.7C174.17 273.583 174.778 272.733 175.562 272.15C176.362 271.55 177.278 271.25 178.312 271.25C178.928 271.25 179.462 271.367 179.912 271.6C180.378 271.833 180.753 272.158 181.037 272.575C181.353 272.125 181.787 271.792 182.337 271.575C182.903 271.358 183.537 271.25 184.237 271.25C185.503 271.25 186.487 271.642 187.187 272.425C187.887 273.192 188.237 274.208 188.237 275.475V285H184.462V275.85C184.462 275.283 184.37 274.867 184.187 274.6C184.02 274.333 183.728 274.2 183.312 274.2C182.578 274.2 182.12 274.65 181.937 275.55H180.162C180.045 274.65 179.653 274.2 178.987 274.2C178.387 274.2 177.903 274.575 177.537 275.325C177.17 276.075 176.987 277.175 176.987 278.625C176.987 279.925 177.262 280.883 177.812 281.5C178.378 282.117 179.27 282.425 180.487 282.425C181.12 282.425 181.687 282.333 182.187 282.15V285.05C181.537 285.267 180.737 285.375 179.787 285.375ZM184.472 265.525H188.272V269.975H184.472V265.525ZM196.372 285.375C195.255 285.375 194.155 285.258 193.072 285.025C191.988 284.808 191.088 284.5 190.372 284.1V277.075H196.697V279.85H194.097V282C194.613 282.283 195.372 282.425 196.372 282.425C199.022 282.425 200.347 281.042 200.347 278.275C200.347 276.858 199.963 275.825 199.197 275.175C198.43 274.525 197.138 274.2 195.322 274.2C194.488 274.2 193.63 274.292 192.747 274.475C191.88 274.642 191.147 274.883 190.547 275.2V272.25C191.23 271.933 192.055 271.692 193.022 271.525C193.988 271.342 194.997 271.25 196.047 271.25C198.73 271.25 200.763 271.867 202.147 273.1C203.547 274.317 204.247 276.042 204.247 278.275C204.247 280.475 203.563 282.208 202.197 283.475C200.83 284.742 198.888 285.375 196.372 285.375ZM214.591 267.525H218.591L221.716 278.825L224.791 267.525H227.716L230.691 278.825L233.816 267.525H237.791L232.891 285H229.316L226.191 273.925L223.091 285H219.491L214.591 267.525ZM241.116 271.15C240.532 271.15 240.041 270.958 239.641 270.575C239.241 270.192 239.041 269.708 239.041 269.125C239.041 268.558 239.241 268.083 239.641 267.7C240.041 267.3 240.532 267.1 241.116 267.1C241.699 267.1 242.191 267.3 242.591 267.7C242.991 268.083 243.191 268.558 243.191 269.125C243.191 269.708 242.991 270.192 242.591 270.575C242.191 270.958 241.699 271.15 241.116 271.15ZM239.216 273H243.016V285H239.216V273ZM245.779 267.525H257.904V270.725H249.579V274.8H255.704V277.725H249.579V285H245.779V267.525ZM260.696 271.15C260.112 271.15 259.621 270.958 259.221 270.575C258.821 270.192 258.621 269.708 258.621 269.125C258.621 268.558 258.821 268.083 259.221 267.7C259.621 267.3 260.112 267.1 260.696 267.1C261.279 267.1 261.771 267.3 262.171 267.7C262.571 268.083 262.771 268.558 262.771 269.125C262.771 269.708 262.571 270.192 262.171 270.575C261.771 270.958 261.279 271.15 260.696 271.15ZM258.796 273H262.596V285H258.796V273ZM103.948 315C103.031 315 102.323 314.742 101.823 314.225C101.339 313.692 101.098 312.958 101.098 312.025V306C101.098 305.217 101.248 304.542 101.548 303.975C101.848 303.408 102.264 302.808 102.798 302.175C103.148 301.775 103.406 301.433 103.573 301.15C103.756 300.867 103.848 300.575 103.848 300.275C103.848 299.792 103.723 299.442 103.473 299.225C103.223 299.008 102.798 298.9 102.198 298.9C101.231 298.9 100.331 299.208 99.4978 299.825V296.925C100.014 296.608 100.623 296.367 101.323 296.2C102.023 296.033 102.739 295.95 103.473 295.95C104.906 295.95 105.973 296.283 106.673 296.95C107.389 297.6 107.748 298.45 107.748 299.5C107.748 300.117 107.631 300.658 107.398 301.125C107.164 301.575 106.806 302.125 106.323 302.775C105.856 303.375 105.498 303.917 105.248 304.4C105.014 304.867 104.898 305.4 104.898 306V311C104.898 311.4 104.981 311.683 105.148 311.85C105.314 312.017 105.589 312.1 105.973 312.1H106.848V315H103.948ZM109.109 301.625H112.909V306.45L117.984 301.625H122.309L118.709 305.05C120.009 305.417 120.917 305.983 121.434 306.75C121.967 307.517 122.234 308.533 122.234 309.8V315H118.434V310.125C118.434 309.275 118.284 308.642 117.984 308.225C117.701 307.808 117.176 307.508 116.409 307.325L112.909 310.6V315H109.109V301.625ZM132.956 315.375C132.123 315.375 131.314 315.217 130.531 314.9C129.748 314.583 129.064 314.117 128.481 313.5V315H124.856V301.625H128.656V310.625C129.023 311.242 129.464 311.7 129.981 312C130.498 312.283 131.106 312.425 131.806 312.425C133.523 312.425 134.381 311.617 134.381 310V301.625H138.156V310.225C138.156 311.192 137.956 312.067 137.556 312.85C137.156 313.633 136.564 314.25 135.781 314.7C134.998 315.15 134.056 315.375 132.956 315.375ZM134.374 295.525H138.174V299.975H134.374V295.525ZM143.624 315C142.707 315 141.999 314.742 141.499 314.225C141.016 313.692 140.774 312.958 140.774 312.025V301.625H144.574V311C144.574 311.4 144.657 311.683 144.824 311.85C144.991 312.017 145.266 312.1 145.649 312.1H146.524V315H143.624ZM153.562 315.375C152.579 315.375 151.579 315.275 150.562 315.075C149.562 314.892 148.771 314.608 148.187 314.225V311.325C148.921 311.758 149.737 312.092 150.637 312.325C151.554 312.558 152.379 312.675 153.112 312.675C153.996 312.675 154.637 312.592 155.037 312.425C155.454 312.242 155.662 311.925 155.662 311.475C155.662 311.075 155.462 310.767 155.062 310.55C154.679 310.333 153.954 310.058 152.887 309.725L152.262 309.525C150.829 309.075 149.771 308.533 149.087 307.9C148.404 307.267 148.062 306.4 148.062 305.3C148.062 304.017 148.579 303.025 149.612 302.325C150.646 301.608 152.037 301.25 153.787 301.25C154.737 301.25 155.654 301.35 156.537 301.55C157.421 301.75 158.129 302.008 158.662 302.325V305.3C158.129 304.933 157.462 304.642 156.662 304.425C155.879 304.192 155.104 304.075 154.337 304.075C152.721 304.075 151.912 304.483 151.912 305.3C151.912 305.7 152.104 306.008 152.487 306.225C152.871 306.442 153.554 306.7 154.537 307L155.437 307.275C156.487 307.608 157.304 307.975 157.887 308.375C158.487 308.775 158.904 309.225 159.137 309.725C159.371 310.225 159.487 310.833 159.487 311.55C159.487 312.7 158.987 313.625 157.987 314.325C157.004 315.025 155.529 315.375 153.562 315.375ZM147.424 297.575H155.574V294.925H158.999V299.975H147.424V297.575ZM167.974 315.375C165.891 315.375 164.224 315 162.974 314.25C161.724 313.483 161.099 312.392 161.099 310.975C161.099 310.325 161.274 309.742 161.624 309.225C161.991 308.692 162.474 308.308 163.074 308.075C162.524 307.792 162.074 307.383 161.724 306.85C161.391 306.317 161.224 305.733 161.224 305.1C161.224 303.933 161.633 303 162.449 302.3C163.283 301.6 164.483 301.25 166.049 301.25C166.533 301.25 167.008 301.283 167.474 301.35C167.958 301.417 168.324 301.492 168.574 301.575V304.425C168.341 304.325 168.058 304.242 167.724 304.175C167.408 304.108 167.116 304.075 166.849 304.075C165.683 304.075 165.099 304.508 165.099 305.375C165.099 305.825 165.241 306.167 165.524 306.4C165.824 306.617 166.283 306.725 166.899 306.725H168.574V309.4H166.899C165.633 309.4 164.999 309.9 164.999 310.9C164.999 311.433 165.249 311.85 165.749 312.15C166.266 312.433 167.008 312.575 167.974 312.575C169.141 312.575 169.991 312.342 170.524 311.875C171.074 311.392 171.349 310.675 171.349 309.725V301.6H175.149V309.7C175.149 310.65 174.908 311.558 174.424 312.425C173.941 313.275 173.166 313.983 172.099 314.55C171.033 315.1 169.658 315.375 167.974 315.375ZM184.661 315.375C183.278 315.375 182.07 315.133 181.036 314.65C180.003 314.15 179.203 313.467 178.636 312.6C178.07 311.733 177.786 310.75 177.786 309.65V301.625H181.586V309.4C181.586 310.367 181.836 311.117 182.336 311.65C182.853 312.167 183.628 312.425 184.661 312.425C185.695 312.425 186.461 312.167 186.961 311.65C187.461 311.117 187.711 310.367 187.711 309.4V301.625H191.511V309.65C191.511 310.75 191.228 311.733 190.661 312.6C190.095 313.467 189.295 314.15 188.261 314.65C187.228 315.133 186.028 315.375 184.661 315.375ZM199.094 315.375C198.111 315.375 197.111 315.275 196.094 315.075C195.094 314.892 194.303 314.608 193.719 314.225V311.325C194.453 311.758 195.269 312.092 196.169 312.325C197.086 312.558 197.911 312.675 198.644 312.675C199.528 312.675 200.169 312.592 200.569 312.425C200.986 312.242 201.194 311.925 201.194 311.475C201.194 311.075 200.994 310.767 200.594 310.55C200.211 310.333 199.486 310.058 198.419 309.725L197.794 309.525C196.361 309.075 195.303 308.533 194.619 307.9C193.936 307.267 193.594 306.4 193.594 305.3C193.594 304.017 194.111 303.025 195.144 302.325C196.178 301.608 197.569 301.25 199.319 301.25C200.269 301.25 201.186 301.35 202.069 301.55C202.953 301.75 203.661 302.008 204.194 302.325V305.3C203.661 304.933 202.994 304.642 202.194 304.425C201.411 304.192 200.636 304.075 199.869 304.075C198.253 304.075 197.444 304.483 197.444 305.3C197.444 305.7 197.636 306.008 198.019 306.225C198.403 306.442 199.086 306.7 200.069 307L200.969 307.275C202.019 307.608 202.836 307.975 203.419 308.375C204.019 308.775 204.436 309.225 204.669 309.725C204.903 310.225 205.019 310.833 205.019 311.55C205.019 312.7 204.519 313.625 203.519 314.325C202.536 315.025 201.061 315.375 199.094 315.375ZM198.407 298.375C198.407 298.192 198.373 298.067 198.307 298C198.223 297.917 198.09 297.875 197.907 297.875H196.732V295.3H199.082C199.698 295.3 200.148 295.442 200.432 295.725C200.698 296.008 200.832 296.367 200.832 296.8V297.55H205.857V299.975H198.407V298.375ZM212.632 315.375C211.515 315.375 210.415 315.258 209.332 315.025C208.248 314.808 207.348 314.5 206.632 314.1V307.075H212.957V309.85H210.357V312C210.873 312.283 211.632 312.425 212.632 312.425C215.282 312.425 216.607 311.042 216.607 308.275C216.607 306.858 216.223 305.825 215.457 305.175C214.69 304.525 213.398 304.2 211.582 304.2C210.748 304.2 209.89 304.292 209.007 304.475C208.14 304.642 207.407 304.883 206.807 305.2V302.25C207.49 301.933 208.315 301.692 209.282 301.525C210.248 301.342 211.257 301.25 212.307 301.25C214.99 301.25 217.023 301.867 218.407 303.1C219.807 304.317 220.507 306.042 220.507 308.275C220.507 310.475 219.823 312.208 218.457 313.475C217.09 314.742 215.148 315.375 212.632 315.375ZM228.985 315.375C226.902 315.375 225.235 315 223.985 314.25C222.735 313.483 222.11 312.392 222.11 310.975C222.11 310.325 222.285 309.742 222.635 309.225C223.002 308.692 223.485 308.308 224.085 308.075C223.535 307.792 223.085 307.383 222.735 306.85C222.402 306.317 222.235 305.733 222.235 305.1C222.235 303.933 222.643 303 223.46 302.3C224.293 301.6 225.493 301.25 227.06 301.25C227.543 301.25 228.018 301.283 228.485 301.35C228.968 301.417 229.335 301.492 229.585 301.575V304.425C229.352 304.325 229.068 304.242 228.735 304.175C228.418 304.108 228.127 304.075 227.86 304.075C226.693 304.075 226.11 304.508 226.11 305.375C226.11 305.825 226.252 306.167 226.535 306.4C226.835 306.617 227.293 306.725 227.91 306.725H229.585V309.4H227.91C226.643 309.4 226.01 309.9 226.01 310.9C226.01 311.433 226.26 311.85 226.76 312.15C227.277 312.433 228.018 312.575 228.985 312.575C230.152 312.575 231.002 312.342 231.535 311.875C232.085 311.392 232.36 310.675 232.36 309.725V301.6H236.16V309.7C236.16 310.65 235.918 311.558 235.435 312.425C234.952 313.275 234.177 313.983 233.11 314.55C232.043 315.1 230.668 315.375 228.985 315.375ZM241.622 315C240.706 315 239.997 314.742 239.497 314.225C239.014 313.692 238.772 312.958 238.772 312.025V301.625H242.572V311C242.572 311.4 242.656 311.683 242.822 311.85C242.989 312.017 243.264 312.1 243.647 312.1H244.522V315H241.622ZM248.647 315C247.731 315 247.022 314.742 246.522 314.225C246.039 313.692 245.797 312.958 245.797 312.025V301.625H249.572V311C249.572 311.4 249.656 311.683 249.822 311.85C249.989 312.017 250.272 312.1 250.672 312.1H251.547V315H248.647ZM258.117 315.375C256.583 315.375 255.358 314.992 254.442 314.225C253.542 313.458 253.092 312.375 253.092 310.975C253.092 309.575 253.583 308.475 254.567 307.675C255.567 306.875 256.933 306.475 258.667 306.475C260.283 306.475 261.667 306.742 262.817 307.275V306.75C262.817 305.85 262.517 305.183 261.917 304.75C261.333 304.317 260.383 304.1 259.067 304.1C258.25 304.1 257.45 304.183 256.667 304.35C255.883 304.517 255.183 304.75 254.567 305.05V302.2C255.117 301.933 255.875 301.708 256.842 301.525C257.808 301.342 258.783 301.25 259.767 301.25C262 301.25 263.692 301.75 264.842 302.75C266.008 303.733 266.592 305.058 266.592 306.725V315H262.817V310.025C261.85 309.525 260.717 309.275 259.417 309.275C258.567 309.275 257.942 309.417 257.542 309.7C257.158 309.983 256.967 310.425 256.967 311.025C256.967 311.575 257.142 311.992 257.492 312.275C257.858 312.542 258.433 312.675 259.217 312.675C259.767 312.675 260.233 312.592 260.617 312.425V315.05C259.967 315.267 259.133 315.375 258.117 315.375ZM260.467 298.375C260.467 298.192 260.434 298.067 260.367 298C260.284 297.917 260.15 297.875 259.967 297.875H258.792V295.3H261.142C261.759 295.3 262.209 295.442 262.492 295.725C262.759 296.008 262.892 296.367 262.892 296.8V297.55H267.917V299.975H260.467V298.375ZM273.767 315.375C271.55 315.375 269.859 315.017 268.692 314.3V311.35C269.725 312.067 271.142 312.425 272.942 312.425C274.342 312.425 275.425 312.092 276.192 311.425C276.959 310.742 277.342 309.708 277.342 308.325C277.342 306.942 276.959 305.908 276.192 305.225C275.425 304.542 274.342 304.2 272.942 304.2C271.209 304.2 269.825 304.567 268.792 305.3V302.35C269.375 301.983 270.1 301.708 270.967 301.525C271.834 301.342 272.767 301.25 273.767 301.25C276.1 301.25 277.925 301.875 279.242 303.125C280.575 304.358 281.242 306.092 281.242 308.325C281.242 310.558 280.575 312.292 279.242 313.525C277.925 314.758 276.1 315.375 273.767 315.375Z" fill="#3CB364"/>
<path fill-rule="evenodd" clip-rule="evenodd" d="M195 238C198.414 238 201.795 237.327 204.95 236.021C208.104 234.714 210.97 232.799 213.385 230.385C215.799 227.97 217.714 225.104 219.021 221.95C220.327 218.795 221 215.414 221 212C221 208.586 220.327 205.205 219.021 202.05C217.714 198.896 215.799 196.03 213.385 193.615C210.97 191.201 208.104 189.286 204.95 187.979C201.795 186.673 198.414 186 195 186C188.104 186 181.491 188.739 176.615 193.615C171.739 198.491 169 205.104 169 212C169 218.896 171.739 225.509 176.615 230.385C181.491 235.261 188.104 238 195 238ZM194.33 222.516L208.774 205.182L204.337 201.484L191.915 216.388L185.487 209.958L181.402 214.042L190.069 222.709L192.305 224.945L194.33 222.516Z" fill="#3CB364"/>
</svg>
