<svg width="390" height="849" viewBox="0 0 390 849" fill="none" xmlns="http://www.w3.org/2000/svg">
<rect y="5" width="390" height="844" rx="32" fill="white"/>
<path fill-rule="evenodd" clip-rule="evenodd" d="M121 838.5C121 837.119 122.119 836 123.5 836H266.5C267.881 836 269 837.119 269 838.5C269 839.881 267.881 841 266.5 841H123.5C122.119 841 121 839.881 121 838.5Z" fill="#090A0A"/>
<path d="M54.0688 36V26.1304H53.9194L50.9395 28.2305V26.2217L54.0688 24.022H56.2021V36H54.0688ZM63.4219 36.2988C62.4701 36.2988 61.6538 36.0443 60.9731 35.5352C60.298 35.026 59.7778 34.3011 59.4126 33.3604C59.0474 32.4196 58.8647 31.3045 58.8647 30.0151V29.9985C58.8647 28.7091 59.0474 27.5968 59.4126 26.6616C59.7778 25.7209 60.298 24.9959 60.9731 24.4868C61.6538 23.9777 62.4701 23.7231 63.4219 23.7231C64.3737 23.7231 65.1899 23.9777 65.8706 24.4868C66.5513 24.9959 67.0742 25.7209 67.4395 26.6616C67.8047 27.5968 67.9873 28.7091 67.9873 29.9985V30.0151C67.9873 31.3045 67.8047 32.4196 67.4395 33.3604C67.0742 34.3011 66.5513 35.026 65.8706 35.5352C65.1899 36.0443 64.3737 36.2988 63.4219 36.2988ZM63.4219 34.564C63.931 34.564 64.3654 34.3813 64.7251 34.0161C65.0848 33.6509 65.3587 33.1307 65.5469 32.4556C65.7406 31.7749 65.8374 30.9614 65.8374 30.0151V29.9985C65.8374 29.0522 65.7406 28.2415 65.5469 27.5664C65.3587 26.8857 65.0848 26.3656 64.7251 26.0059C64.3654 25.6406 63.931 25.458 63.4219 25.458C62.9128 25.458 62.4784 25.6406 62.1187 26.0059C61.7645 26.3656 61.4906 26.8857 61.2969 27.5664C61.1087 28.2415 61.0146 29.0522 61.0146 29.9985V30.0151C61.0146 30.9614 61.1087 31.7749 61.2969 32.4556C61.4906 33.1307 61.7645 33.6509 62.1187 34.0161C62.4784 34.3813 62.9128 34.564 63.4219 34.564ZM71.2974 34.3896C70.9211 34.3896 70.6056 34.2651 70.3511 34.0161C70.1021 33.7616 69.9775 33.4517 69.9775 33.0864C69.9775 32.7157 70.1021 32.4058 70.3511 32.1567C70.6056 31.9022 70.9211 31.7749 71.2974 31.7749C71.6792 31.7749 71.9946 31.9022 72.2437 32.1567C72.4927 32.4058 72.6172 32.7157 72.6172 33.0864C72.6172 33.4517 72.4927 33.7616 72.2437 34.0161C71.9946 34.2651 71.6792 34.3896 71.2974 34.3896ZM71.2974 28.2305C70.9211 28.2305 70.6056 28.106 70.3511 27.8569C70.1021 27.6024 69.9775 27.2925 69.9775 26.9272C69.9775 26.5565 70.1021 26.2466 70.3511 25.9976C70.6056 25.743 70.9211 25.6157 71.2974 25.6157C71.6792 25.6157 71.9946 25.743 72.2437 25.9976C72.4927 26.2466 72.6172 26.5565 72.6172 26.9272C72.6172 27.2925 72.4927 27.6024 72.2437 27.8569C71.9946 28.106 71.6792 28.2305 71.2974 28.2305ZM79.1562 36.2988C78.2044 36.2988 77.3882 36.0443 76.7075 35.5352C76.0324 35.026 75.5122 34.3011 75.147 33.3604C74.7817 32.4196 74.5991 31.3045 74.5991 30.0151V29.9985C74.5991 28.7091 74.7817 27.5968 75.147 26.6616C75.5122 25.7209 76.0324 24.9959 76.7075 24.4868C77.3882 23.9777 78.2044 23.7231 79.1562 23.7231C80.1081 23.7231 80.9243 23.9777 81.605 24.4868C82.2856 24.9959 82.8086 25.7209 83.1738 26.6616C83.5391 27.5968 83.7217 28.7091 83.7217 29.9985V30.0151C83.7217 31.3045 83.5391 32.4196 83.1738 33.3604C82.8086 34.3011 82.2856 35.026 81.605 35.5352C80.9243 36.0443 80.1081 36.2988 79.1562 36.2988ZM79.1562 34.564C79.6654 34.564 80.0998 34.3813 80.4595 34.0161C80.8192 33.6509 81.0931 33.1307 81.2812 32.4556C81.4749 31.7749 81.5718 30.9614 81.5718 30.0151V29.9985C81.5718 29.0522 81.4749 28.2415 81.2812 27.5664C81.0931 26.8857 80.8192 26.3656 80.4595 26.0059C80.0998 25.6406 79.6654 25.458 79.1562 25.458C78.6471 25.458 78.2127 25.6406 77.853 26.0059C77.4989 26.3656 77.2249 26.8857 77.0312 27.5664C76.8431 28.2415 76.749 29.0522 76.749 29.9985V30.0151C76.749 30.9614 76.8431 31.7749 77.0312 32.4556C77.2249 33.1307 77.4989 33.6509 77.853 34.0161C78.2127 34.3813 78.6471 34.564 79.1562 34.564ZM89.9619 36.2988C89.0101 36.2988 88.1938 36.0443 87.5132 35.5352C86.8381 35.026 86.3179 34.3011 85.9526 33.3604C85.5874 32.4196 85.4048 31.3045 85.4048 30.0151V29.9985C85.4048 28.7091 85.5874 27.5968 85.9526 26.6616C86.3179 25.7209 86.8381 24.9959 87.5132 24.4868C88.1938 23.9777 89.0101 23.7231 89.9619 23.7231C90.9137 23.7231 91.73 23.9777 92.4106 24.4868C93.0913 24.9959 93.6143 25.7209 93.9795 26.6616C94.3447 27.5968 94.5273 28.7091 94.5273 29.9985V30.0151C94.5273 31.3045 94.3447 32.4196 93.9795 33.3604C93.6143 34.3011 93.0913 35.026 92.4106 35.5352C91.73 36.0443 90.9137 36.2988 89.9619 36.2988ZM89.9619 34.564C90.471 34.564 90.9054 34.3813 91.2651 34.0161C91.6248 33.6509 91.8988 33.1307 92.0869 32.4556C92.2806 31.7749 92.3774 30.9614 92.3774 30.0151V29.9985C92.3774 29.0522 92.2806 28.2415 92.0869 27.5664C91.8988 26.8857 91.6248 26.3656 91.2651 26.0059C90.9054 25.6406 90.471 25.458 89.9619 25.458C89.4528 25.458 89.0184 25.6406 88.6587 26.0059C88.3045 26.3656 88.0306 26.8857 87.8369 27.5664C87.6488 28.2415 87.5547 29.0522 87.5547 29.9985V30.0151C87.5547 30.9614 87.6488 31.7749 87.8369 32.4556C88.0306 33.1307 88.3045 33.6509 88.6587 34.0161C89.0184 34.3813 89.4528 34.564 89.9619 34.564Z" fill="black"/>
<path d="M288.333 31C288.977 31 289.5 31.5037 289.5 32.125V34.375C289.5 34.9963 288.977 35.5 288.333 35.5H287.167C286.523 35.5 286 34.9963 286 34.375V32.125C286 31.5037 286.523 31 287.167 31H288.333ZM293.823 28.75C294.468 28.75 294.99 29.2537 294.99 29.875V34.375C294.99 34.9963 294.468 35.5 293.823 35.5H292.657C292.013 35.5 291.49 34.9963 291.49 34.375V29.875C291.49 29.2537 292.013 28.75 292.657 28.75H293.823ZM299.313 26.125C299.958 26.125 300.48 26.6287 300.48 27.25V34.375C300.48 34.9963 299.958 35.5 299.313 35.5H298.147C297.503 35.5 296.98 34.9963 296.98 34.375V27.25C296.981 26.6287 297.503 26.125 298.147 26.125H299.313ZM304.804 23.5C305.448 23.5 305.971 24.0037 305.971 24.625V34.375C305.971 34.9963 305.448 35.5 304.804 35.5H303.638C302.993 35.5 302.471 34.9963 302.471 34.375V24.625C302.471 24.0037 302.993 23.5 303.638 23.5H304.804Z" fill="black"/>
<path d="M318.512 32.8262C319.932 31.5964 322.011 31.5964 323.431 32.8262C323.502 32.8924 323.544 32.9855 323.546 33.084C323.548 33.1826 323.51 33.2777 323.441 33.3467L321.218 35.6446C321.153 35.7121 321.063 35.7501 320.971 35.7501C320.878 35.7499 320.79 35.7119 320.725 35.6446L318.501 33.3467C318.432 33.2776 318.394 33.1826 318.396 33.084C318.399 32.9855 318.44 32.8923 318.512 32.8262ZM315.545 29.7608C318.604 26.8467 323.341 26.8467 326.4 29.7608C326.469 29.829 326.509 29.9225 326.51 30.0206C326.511 30.1188 326.473 30.2135 326.405 30.2833L325.12 31.6133C324.988 31.7491 324.774 31.7524 324.638 31.6202C323.633 30.6886 322.326 30.1728 320.971 30.1729C319.617 30.1736 318.311 30.6895 317.308 31.6202C317.172 31.7524 316.958 31.7491 316.825 31.6133L315.54 30.2833C315.472 30.2136 315.435 30.1189 315.436 30.0206C315.437 29.9224 315.476 29.829 315.545 29.7608ZM312.578 26.7032C317.27 22.0989 324.671 22.099 329.363 26.7032C329.431 26.7716 329.47 26.8654 329.471 26.963C329.471 27.0605 329.433 27.1545 329.366 27.2237L328.08 28.5538C327.947 28.6901 327.732 28.691 327.598 28.5567C325.81 26.8164 323.437 25.8459 320.971 25.8458C318.504 25.8459 316.131 26.8163 314.344 28.5567C314.209 28.6913 313.994 28.6904 313.861 28.5538L312.574 27.2237C312.507 27.1545 312.47 27.0605 312.471 26.963C312.471 26.8654 312.51 26.7715 312.578 26.7032Z" fill="black"/>
<rect opacity="0.4" x="336.471" y="23.5" width="24" height="12" rx="3.5" stroke="black"/>
<path opacity="0.5" d="M361.971 27.5V31.5C362.777 31.1612 363.301 30.3731 363.301 29.5C363.301 28.6269 362.777 27.8388 361.971 27.5Z" fill="black"/>
<rect x="337.971" y="25" width="17" height="9" rx="2" fill="black"/>
<path d="M42.8095 99.5268C42.068 100.323 40.8068 100.323 40.0652 99.5268L28.2697 86.8632C27.5544 86.0952 27.5544 84.9048 28.2697 84.1368L40.0652 71.4732C40.8068 70.677 42.068 70.677 42.8095 71.4732C43.4802 72.1932 43.4802 73.3093 42.8095 74.0293L33.395 84.1368C32.6796 84.9048 32.6796 86.0952 33.395 86.8632L42.8095 96.9707C43.4802 97.6907 43.4802 98.8068 42.8095 99.5268Z" fill="#535353"/>
<path d="M117 86.025L115.75 83.9C117.7 81.4667 120.208 80.25 123.275 80.25C125.425 80.25 127.075 80.725 128.225 81.675C129.392 82.625 129.975 83.95 129.975 85.65V94H126.175V85.95C126.175 84.1167 125.208 83.2 123.275 83.2C122.558 83.2 121.917 83.3 121.35 83.5C120.8 83.7 120.283 84.025 119.8 84.475L120.775 86.075V94H117V86.025ZM136.609 85.675C136.609 84.8083 136.426 84.1833 136.059 83.8C135.693 83.4 135.051 83.2 134.134 83.2C133.251 83.2 132.359 83.425 131.459 83.875V81C131.859 80.8 132.393 80.625 133.059 80.475C133.743 80.325 134.401 80.25 135.034 80.25C136.784 80.25 138.118 80.7167 139.034 81.65C139.951 82.5833 140.409 83.9333 140.409 85.7V94H136.609V85.675ZM148.009 94.375C147.026 94.375 146.026 94.275 145.009 94.075C144.009 93.8917 143.217 93.6083 142.634 93.225V90.325C143.367 90.7583 144.184 91.0917 145.084 91.325C146.001 91.5583 146.826 91.675 147.559 91.675C148.442 91.675 149.084 91.5917 149.484 91.425C149.901 91.2417 150.109 90.925 150.109 90.475C150.109 90.075 149.909 89.7667 149.509 89.55C149.126 89.3333 148.401 89.0583 147.334 88.725L146.709 88.525C145.276 88.075 144.217 87.5333 143.534 86.9C142.851 86.2667 142.509 85.4 142.509 84.3C142.509 83.0167 143.026 82.025 144.059 81.325C145.092 80.6083 146.484 80.25 148.234 80.25C149.184 80.25 150.101 80.35 150.984 80.55C151.867 80.75 152.576 81.0083 153.109 81.325V84.3C152.576 83.9333 151.909 83.6417 151.109 83.425C150.326 83.1917 149.551 83.075 148.784 83.075C147.167 83.075 146.359 83.4833 146.359 84.3C146.359 84.7 146.551 85.0083 146.934 85.225C147.317 85.4417 148.001 85.7 148.984 86L149.884 86.275C150.934 86.6083 151.751 86.975 152.334 87.375C152.934 87.775 153.351 88.225 153.584 88.725C153.817 89.225 153.934 89.8333 153.934 90.55C153.934 91.7 153.434 92.625 152.434 93.325C151.451 94.025 149.976 94.375 148.009 94.375ZM162.246 94.375C160.179 94.375 158.546 93.8083 157.346 92.675C156.146 91.525 155.546 89.8417 155.546 87.625C155.546 86.1083 155.763 84.8 156.196 83.7C156.629 82.5833 157.238 81.7333 158.021 81.15C158.821 80.55 159.738 80.25 160.771 80.25C161.388 80.25 161.921 80.3667 162.371 80.6C162.838 80.8333 163.213 81.1583 163.496 81.575C163.813 81.125 164.246 80.7917 164.796 80.575C165.363 80.3583 165.996 80.25 166.696 80.25C167.963 80.25 168.946 80.6417 169.646 81.425C170.346 82.1917 170.696 83.2083 170.696 84.475V94H166.921V84.85C166.921 84.2833 166.829 83.8667 166.646 83.6C166.479 83.3333 166.188 83.2 165.771 83.2C165.038 83.2 164.579 83.65 164.396 84.55H162.621C162.504 83.65 162.113 83.2 161.446 83.2C160.846 83.2 160.363 83.575 159.996 84.325C159.629 85.075 159.446 86.175 159.446 87.625C159.446 88.925 159.721 89.8833 160.271 90.5C160.838 91.1167 161.729 91.425 162.946 91.425C163.579 91.425 164.146 91.3333 164.646 91.15V94.05C163.996 94.2667 163.196 94.375 162.246 94.375ZM165.556 78.975C163.956 78.975 163.156 78.1667 163.156 76.55V74.725H166.556V75.95C166.556 76.1833 166.606 76.35 166.706 76.45C166.79 76.5333 166.956 76.575 167.206 76.575H172.906V78.975H165.556ZM165.731 72.825C165.731 72.6417 165.706 72.5167 165.656 72.45C165.59 72.3833 165.456 72.35 165.256 72.35H164.181V69.925H166.431C167.498 69.925 168.031 70.3833 168.031 71.3V71.95H172.281V74.175H165.731V72.825ZM172.831 82.3H176.606L179.456 91.175C180.69 91.175 181.64 90.8083 182.306 90.075C182.973 89.325 183.306 88.2667 183.306 86.9C183.306 85.6667 183.073 84.7417 182.606 84.125C182.14 83.5083 181.423 83.2 180.456 83.2C179.923 83.2 179.39 83.2833 178.856 83.45V80.6C179.556 80.3667 180.348 80.25 181.231 80.25C183.215 80.25 184.698 80.8333 185.681 82C186.681 83.15 187.181 84.7833 187.181 86.9C187.181 88.3833 186.856 89.6583 186.206 90.725C185.556 91.7917 184.673 92.6083 183.556 93.175C182.456 93.725 181.248 94 179.931 94H176.581L172.831 82.3ZM189.298 85.975C189.298 84.125 189.915 82.7083 191.148 81.725C192.398 80.7417 194.073 80.25 196.173 80.25C198.273 80.25 199.94 80.7417 201.173 81.725C202.406 82.7083 203.023 84.125 203.023 85.975V94H199.223V85.95C199.223 85.0333 198.956 84.35 198.423 83.9C197.906 83.4333 197.156 83.2 196.173 83.2C195.173 83.2 194.406 83.4333 193.873 83.9C193.356 84.35 193.098 85.0333 193.098 85.95V87.85C193.298 87.55 193.59 87.3167 193.973 87.15C194.373 86.9667 194.815 86.875 195.298 86.875H197.248V89.775H195.098C194.515 89.775 194.031 89.9583 193.648 90.325C193.281 90.6917 193.098 91.1667 193.098 91.75V94H189.298V85.975ZM199.231 74.525H203.031V78.975H199.231V74.525ZM209.656 85.675C209.656 84.8083 209.473 84.1833 209.106 83.8C208.739 83.4 208.098 83.2 207.181 83.2C206.298 83.2 205.406 83.425 204.506 83.875V81C204.906 80.8 205.439 80.625 206.106 80.475C206.789 80.325 207.448 80.25 208.081 80.25C209.831 80.25 211.164 80.7167 212.081 81.65C212.998 82.5833 213.456 83.9333 213.456 85.7V94H209.656V85.675ZM224.296 76.525H228.296L231.421 87.825L234.496 76.525H237.421L240.396 87.825L243.521 76.525H247.496L242.596 94H239.021L235.896 82.925L232.796 94H229.196L224.296 76.525ZM250.821 80.15C250.238 80.15 249.746 79.9583 249.346 79.575C248.946 79.1917 248.746 78.7083 248.746 78.125C248.746 77.5583 248.946 77.0833 249.346 76.7C249.746 76.3 250.238 76.1 250.821 76.1C251.405 76.1 251.896 76.3 252.296 76.7C252.696 77.0833 252.896 77.5583 252.896 78.125C252.896 78.7083 252.696 79.1917 252.296 79.575C251.896 79.9583 251.405 80.15 250.821 80.15ZM248.921 82H252.721V94H248.921V82ZM255.485 76.525H267.61V79.725H259.285V83.8H265.41V86.725H259.285V94H255.485V76.525ZM269.205 76.525H273.005V94H269.205V76.525Z" fill="black"/>
<path d="M20.848 168.24C19.5573 168.24 18.5333 167.877 17.776 167.152C17.0187 166.416 16.64 165.344 16.64 163.936C16.64 162.976 16.7787 162.139 17.056 161.424C17.3333 160.709 17.7173 160.16 18.208 159.776C18.6987 159.392 19.248 159.2 19.856 159.2C20.6453 159.2 21.2213 159.504 21.584 160.112C21.7867 159.792 22.0747 159.563 22.448 159.424C22.8213 159.275 23.232 159.2 23.68 159.2C24.448 159.2 25.0293 159.445 25.424 159.936C25.8187 160.416 26.016 161.061 26.016 161.872V168H23.984V162.016C23.984 161.589 23.92 161.28 23.792 161.088C23.664 160.885 23.4453 160.784 23.136 160.784C22.6027 160.784 22.2773 161.093 22.16 161.712H21.024C20.96 161.093 20.6827 160.784 20.192 160.784C19.7547 160.784 19.3973 161.056 19.12 161.6C18.8533 162.133 18.72 162.912 18.72 163.936C18.72 165.749 19.5467 166.656 21.2 166.656C21.5947 166.656 21.9627 166.603 22.304 166.496V168.048C21.888 168.176 21.4027 168.24 20.848 168.24ZM22.7767 158.272C22.2754 158.272 21.9127 158.144 21.6887 157.888C21.4541 157.632 21.3367 157.248 21.3367 156.736V155.808H23.1607V156.544C23.1607 156.715 23.1927 156.832 23.2567 156.896C23.3207 156.949 23.4381 156.976 23.6087 156.976H27.4168V158.272H22.7767ZM23.0967 154.792C23.0967 154.675 23.0754 154.595 23.0327 154.552C22.9901 154.499 22.9047 154.472 22.7767 154.472H22.1047V153.144H23.4007C24.0514 153.144 24.3767 153.427 24.3767 153.992V154.456H27.1288V155.672H23.0967V154.792ZM27.6088 160.512H29.6408L31.5128 166.416C32.4088 166.416 33.0968 166.165 33.5768 165.664C34.0674 165.152 34.3128 164.427 34.3128 163.488C34.3128 162.581 34.1474 161.904 33.8168 161.456C33.4861 161.008 32.9581 160.784 32.2328 160.784C31.8381 160.784 31.4701 160.837 31.1288 160.944V159.392C31.5448 159.264 32.0301 159.2 32.5848 159.2C33.8328 159.2 34.7768 159.579 35.4167 160.336C36.0674 161.093 36.3928 162.144 36.3928 163.488C36.3928 164.427 36.1848 165.237 35.7688 165.92C35.3634 166.603 34.8141 167.12 34.1208 167.472C33.4274 167.824 32.6594 168 31.8168 168H29.9768L27.6088 160.512ZM37.9913 162.816C37.9913 161.664 38.3699 160.773 39.1273 160.144C39.8953 159.515 40.9299 159.2 42.2313 159.2C43.5326 159.2 44.5619 159.515 45.3193 160.144C46.0766 160.773 46.4553 161.664 46.4553 162.816V168H44.4233V162.736C44.4233 162.085 44.2313 161.6 43.8473 161.28C43.4739 160.949 42.9353 160.784 42.2313 160.784C41.5273 160.784 40.9833 160.944 40.5993 161.264C40.2153 161.584 40.0233 162.075 40.0233 162.736V164.144C40.1619 163.92 40.3646 163.739 40.6313 163.6C40.9086 163.461 41.2286 163.392 41.5913 163.392H42.8873V165.088H41.4473C41.0313 165.088 40.6899 165.227 40.4233 165.504C40.1566 165.771 40.0233 166.096 40.0233 166.48V168H37.9913V162.816ZM44.4459 155.52H46.4779V158.272H44.4459V155.52ZM51.1339 162.528C51.1339 161.899 51.0059 161.451 50.7499 161.184C50.5045 160.917 50.0565 160.784 49.4059 160.784C48.8085 160.784 48.2005 160.939 47.5819 161.248V159.664C47.8379 159.536 48.1739 159.429 48.5899 159.344C49.0165 159.248 49.4325 159.2 49.8379 159.2C50.9365 159.2 51.7632 159.499 52.3179 160.096C52.8832 160.693 53.1659 161.547 53.1659 162.656V168H51.1339V162.528ZM56.797 168C56.2423 168 55.8157 167.845 55.517 167.536C55.229 167.216 55.085 166.773 55.085 166.208V159.44H57.117V165.568C57.117 165.845 57.1757 166.037 57.293 166.144C57.4103 166.251 57.6023 166.304 57.869 166.304H58.429V168H56.797ZM60.0225 162.816C60.0225 161.664 60.4012 160.773 61.1585 160.144C61.9265 159.515 62.9612 159.2 64.2625 159.2C65.5638 159.2 66.5932 159.515 67.3505 160.144C68.1078 160.773 68.4865 161.664 68.4865 162.816V168H66.4545V162.736C66.4545 162.085 66.2625 161.6 65.8785 161.28C65.5052 160.949 64.9665 160.784 64.2625 160.784C63.5585 160.784 63.0145 160.944 62.6305 161.264C62.2465 161.584 62.0545 162.075 62.0545 162.736V164.144C62.1932 163.92 62.3958 163.739 62.6625 163.6C62.9398 163.461 63.2598 163.392 63.6225 163.392H64.9185V165.088H63.4785C63.0625 165.088 62.7212 165.227 62.4545 165.504C62.1878 165.771 62.0545 166.096 62.0545 166.48V168H60.0225V162.816ZM73.4691 168.24C72.8611 168.24 72.2425 168.176 71.6131 168.048C70.9945 167.92 70.5091 167.728 70.1571 167.472V165.888C70.6265 166.165 71.1438 166.373 71.7091 166.512C72.2851 166.651 72.8131 166.72 73.2931 166.72C73.9331 166.72 74.3918 166.656 74.6691 166.528C74.9571 166.4 75.1011 166.16 75.1011 165.808C75.1011 165.563 75.0265 165.371 74.8771 165.232C74.7278 165.083 74.5251 164.96 74.2691 164.864C74.0131 164.768 73.5331 164.613 72.8291 164.4C71.9118 164.112 71.2238 163.765 70.7651 163.36C70.3171 162.955 70.0931 162.405 70.0931 161.712C70.0931 160.912 70.4131 160.293 71.0531 159.856C71.6931 159.419 72.5571 159.2 73.6451 159.2C74.2211 159.2 74.7705 159.264 75.2931 159.392C75.8265 159.509 76.2638 159.669 76.6051 159.872V161.536C76.2531 161.312 75.8265 161.131 75.3251 160.992C74.8345 160.853 74.3385 160.784 73.8371 160.784C72.6958 160.784 72.1251 161.093 72.1251 161.712C72.1251 161.936 72.1945 162.117 72.3331 162.256C72.4718 162.395 72.6585 162.512 72.8931 162.608C73.1278 162.693 73.4851 162.811 73.9651 162.96L74.4931 163.12C75.1758 163.333 75.7038 163.563 76.0771 163.808C76.4611 164.053 76.7278 164.336 76.8771 164.656C77.0371 164.976 77.1171 165.371 77.1171 165.84C77.1171 166.555 76.8131 167.136 76.2051 167.584C75.5971 168.021 74.6851 168.24 73.4691 168.24ZM69.686 156.976H72.79V155.248H74.214V156.976H75.43V155.248H76.838V158.272H69.686V156.976ZM82.054 168.24C81.3713 168.24 80.6993 168.165 80.038 168.016C79.3767 167.867 78.8273 167.659 78.39 167.392V162.912H82.23V164.56H80.422V166.336C80.8167 166.549 81.3607 166.656 82.054 166.656C82.9927 166.656 83.702 166.4 84.182 165.888C84.662 165.376 84.902 164.629 84.902 163.648C84.902 162.976 84.7953 162.432 84.582 162.016C84.3687 161.6 84.0167 161.291 83.526 161.088C83.0353 160.885 82.374 160.784 81.542 160.784C80.998 160.784 80.4433 160.843 79.878 160.96C79.3233 161.067 78.8593 161.227 78.486 161.44V159.856C78.9127 159.643 79.4193 159.483 80.006 159.376C80.6033 159.259 81.2327 159.2 81.894 159.2C83.5153 159.2 84.7687 159.589 85.654 160.368C86.5393 161.136 86.982 162.229 86.982 163.648C86.982 165.067 86.5553 166.187 85.702 167.008C84.8593 167.829 83.6433 168.24 82.054 168.24ZM92.313 168.24C91.513 168.24 90.8143 168.107 90.217 167.84C89.6197 167.563 89.161 167.184 88.841 166.704C88.521 166.213 88.361 165.659 88.361 165.04V164.64C88.361 164.267 88.4357 163.925 88.585 163.616C88.745 163.307 88.9637 162.955 89.241 162.56C89.4223 162.304 89.5557 162.101 89.641 161.952C89.7263 161.803 89.769 161.659 89.769 161.52C89.769 161.2 89.5717 161.04 89.177 161.04H88.265V159.44H90.249C90.729 159.44 91.1077 159.579 91.385 159.856C91.673 160.123 91.817 160.485 91.817 160.944C91.817 161.264 91.753 161.557 91.625 161.824C91.5077 162.091 91.3317 162.416 91.097 162.8C90.8623 163.184 90.6863 163.504 90.569 163.76C90.4517 164.005 90.393 164.272 90.393 164.56V164.96C90.393 165.504 90.553 165.925 90.873 166.224C91.193 166.512 91.673 166.656 92.313 166.656C93.561 166.656 94.185 166.064 94.185 164.88V159.44H96.217V164.544C96.217 165.675 95.8757 166.576 95.193 167.248C94.521 167.909 93.561 168.24 92.313 168.24ZM94.1959 155.52H96.2279V158.272H94.1959V155.52ZM100.884 162.528C100.884 161.899 100.756 161.451 100.5 161.184C100.255 160.917 99.8065 160.784 99.1559 160.784C98.5585 160.784 97.9505 160.939 97.3319 161.248V159.664C97.5879 159.536 97.9239 159.429 98.3399 159.344C98.7665 159.248 99.1825 159.2 99.5879 159.2C100.687 159.2 101.513 159.499 102.068 160.096C102.633 160.693 102.916 161.547 102.916 162.656V168H100.884V162.528ZM108.723 168.24C107.454 168.24 106.435 167.995 105.667 167.504C104.899 167.013 104.515 166.32 104.515 165.424C104.515 164.987 104.643 164.592 104.899 164.24C105.155 163.888 105.486 163.643 105.891 163.504C105.507 163.323 105.192 163.061 104.947 162.72C104.712 162.379 104.595 161.995 104.595 161.568C104.595 160.853 104.84 160.283 105.331 159.856C105.822 159.419 106.547 159.2 107.507 159.2C107.806 159.2 108.094 159.221 108.371 159.264C108.648 159.296 108.867 159.339 109.027 159.392V160.976C108.888 160.912 108.707 160.864 108.483 160.832C108.27 160.8 108.078 160.784 107.907 160.784C107.086 160.784 106.675 161.088 106.675 161.696C106.675 162.027 106.776 162.272 106.979 162.432C107.182 162.592 107.507 162.672 107.955 162.672H109.027V164.32H107.955C107.048 164.32 106.595 164.688 106.595 165.424C106.595 165.808 106.782 166.112 107.155 166.336C107.539 166.549 108.062 166.656 108.723 166.656C109.555 166.656 110.163 166.485 110.547 166.144C110.942 165.803 111.139 165.301 111.139 164.64V159.424H113.171V164.608C113.171 165.216 113.022 165.797 112.723 166.352C112.435 166.896 111.955 167.349 111.283 167.712C110.622 168.064 109.768 168.24 108.723 168.24ZM120.531 156.816H122.643L124.867 164.72L127.059 156.816H128.627L130.819 164.72L133.043 156.816H135.155L131.971 168H130.083L127.843 160.224L125.603 168H123.715L120.531 156.816ZM137.33 158.976C137.01 158.976 136.738 158.869 136.514 158.656C136.301 158.443 136.194 158.176 136.194 157.856C136.194 157.536 136.301 157.269 136.514 157.056C136.738 156.832 137.01 156.72 137.33 156.72C137.65 156.72 137.922 156.832 138.146 157.056C138.37 157.269 138.482 157.536 138.482 157.856C138.482 158.176 138.37 158.443 138.146 158.656C137.922 158.869 137.65 158.976 137.33 158.976ZM136.306 160.32H138.354V168H136.306V160.32ZM140.398 156.816H147.966V158.512H142.43V161.648H146.542V163.168H142.43V168H140.398V156.816ZM149.815 158.976C149.495 158.976 149.223 158.869 148.999 158.656C148.785 158.443 148.679 158.176 148.679 157.856C148.679 157.536 148.785 157.269 148.999 157.056C149.223 156.832 149.495 156.72 149.815 156.72C150.135 156.72 150.407 156.832 150.631 157.056C150.855 157.269 150.967 157.536 150.967 157.856C150.967 158.176 150.855 158.443 150.631 158.656C150.407 158.869 150.135 158.976 149.815 158.976ZM148.791 160.32H150.839V168H148.791V160.32ZM161.496 168.24C160.546 168.24 159.778 168 159.192 167.52C158.616 167.04 158.328 166.363 158.328 165.488C158.328 164.912 158.472 164.405 158.76 163.968C159.058 163.531 159.474 163.189 160.008 162.944C160.552 162.699 161.186 162.576 161.911 162.576C162.946 162.576 163.842 162.752 164.6 163.104V162.72C164.6 162.059 164.402 161.573 164.008 161.264C163.624 160.944 163 160.784 162.136 160.784C161.613 160.784 161.096 160.837 160.584 160.944C160.082 161.051 159.645 161.195 159.272 161.376V159.792C159.613 159.632 160.082 159.493 160.68 159.376C161.288 159.259 161.88 159.2 162.456 159.2C163.32 159.2 164.066 159.333 164.696 159.6L165.4 158.8H167.64L165.992 160.688C166.408 161.157 166.616 161.819 166.616 162.672V168H164.6V164.704C163.885 164.341 163.069 164.16 162.152 164.16C161.554 164.16 161.106 164.277 160.808 164.512C160.52 164.736 160.376 165.067 160.376 165.504C160.376 165.899 160.509 166.192 160.776 166.384C161.042 166.565 161.464 166.656 162.04 166.656C162.402 166.656 162.717 166.603 162.984 166.496V168.048C162.589 168.176 162.093 168.24 161.496 168.24ZM165.466 158.528C164.954 158.528 164.522 158.352 164.17 158C163.807 157.648 163.626 157.216 163.626 156.704C163.626 156.203 163.807 155.771 164.17 155.408C164.533 155.045 164.965 154.864 165.466 154.864C165.967 154.864 166.399 155.045 166.762 155.408C167.114 155.771 167.29 156.203 167.29 156.704C167.29 157.216 167.114 157.648 166.762 158C166.399 158.352 165.967 158.528 165.466 158.528ZM165.466 157.424C165.637 157.424 165.791 157.355 165.93 157.216C166.069 157.067 166.138 156.901 166.138 156.72C166.138 156.539 166.074 156.379 165.946 156.24C165.807 156.091 165.647 156.016 165.466 156.016C165.274 156.016 165.114 156.085 164.986 156.224C164.847 156.363 164.778 156.528 164.778 156.72C164.778 156.901 164.847 157.067 164.986 157.216C165.114 157.355 165.274 157.424 165.466 157.424ZM171.665 162.528C171.665 161.899 171.537 161.451 171.281 161.184C171.036 160.917 170.588 160.784 169.937 160.784C169.34 160.784 168.732 160.939 168.113 161.248V159.664C168.369 159.536 168.705 159.429 169.121 159.344C169.548 159.248 169.964 159.2 170.369 159.2C171.468 159.2 172.294 159.499 172.849 160.096C173.414 160.693 173.697 161.547 173.697 162.656V168H171.665V162.528ZM175.616 159.44H177.648V162.864L181.344 159.44H183.68L181.344 161.6C182.208 161.824 182.811 162.187 183.152 162.688C183.494 163.189 183.664 163.856 183.664 164.688V168H181.632V164.832C181.632 164.224 181.52 163.765 181.296 163.456C181.083 163.147 180.688 162.928 180.112 162.8L177.648 165.088V168H175.616V159.44ZM188.657 168.24C188.049 168.24 187.43 168.176 186.801 168.048C186.182 167.92 185.697 167.728 185.345 167.472V165.888C185.814 166.165 186.331 166.373 186.897 166.512C187.473 166.651 188.001 166.72 188.481 166.72C189.121 166.72 189.579 166.656 189.857 166.528C190.145 166.4 190.289 166.16 190.289 165.808C190.289 165.563 190.214 165.371 190.065 165.232C189.915 165.083 189.713 164.96 189.457 164.864C189.201 164.768 188.721 164.613 188.017 164.4C187.099 164.112 186.411 163.765 185.953 163.36C185.505 162.955 185.281 162.405 185.281 161.712C185.281 160.912 185.601 160.293 186.241 159.856C186.881 159.419 187.745 159.2 188.833 159.2C189.409 159.2 189.958 159.264 190.481 159.392C191.014 159.509 191.451 159.669 191.793 159.872V161.536C191.441 161.312 191.014 161.131 190.513 160.992C190.022 160.853 189.526 160.784 189.025 160.784C187.883 160.784 187.313 161.093 187.313 161.712C187.313 161.936 187.382 162.117 187.521 162.256C187.659 162.395 187.846 162.512 188.081 162.608C188.315 162.693 188.673 162.811 189.153 162.96L189.681 163.12C190.363 163.333 190.891 163.563 191.265 163.808C191.649 164.053 191.915 164.336 192.065 164.656C192.225 164.976 192.305 165.371 192.305 165.84C192.305 166.555 192.001 167.136 191.393 167.584C190.785 168.021 189.873 168.24 188.657 168.24ZM188.745 158.272C188.244 158.272 187.881 158.144 187.657 157.888C187.423 157.632 187.305 157.248 187.305 156.736V155.808H189.129V156.544C189.129 156.715 189.161 156.832 189.225 156.896C189.289 156.949 189.407 156.976 189.577 156.976H193.386V158.272H188.745ZM198.186 168.24C197.332 168.24 196.58 168.085 195.93 167.776C195.29 167.467 194.794 167.04 194.442 166.496C194.1 165.941 193.93 165.312 193.93 164.608V159.44H195.962V164.528C195.962 165.2 196.148 165.723 196.522 166.096C196.895 166.469 197.45 166.656 198.186 166.656C198.911 166.656 199.46 166.469 199.834 166.096C200.207 165.723 200.394 165.2 200.394 164.528V159.44H202.426V164.608C202.426 165.312 202.25 165.941 201.898 166.496C201.556 167.04 201.066 167.467 200.426 167.776C199.786 168.085 199.039 168.24 198.186 168.24ZM207.695 168.24C207.012 168.24 206.34 168.165 205.679 168.016C205.017 167.867 204.468 167.659 204.031 167.392V162.912H207.871V164.56H206.063V166.336C206.457 166.549 207.001 166.656 207.695 166.656C208.633 166.656 209.343 166.4 209.823 165.888C210.303 165.376 210.543 164.629 210.543 163.648C210.543 162.976 210.436 162.432 210.223 162.016C210.009 161.6 209.657 161.291 209.167 161.088C208.676 160.885 208.015 160.784 207.183 160.784C206.639 160.784 206.084 160.843 205.519 160.96C204.964 161.067 204.5 161.227 204.127 161.44V159.856C204.553 159.643 205.06 159.483 205.647 159.376C206.244 159.259 206.873 159.2 207.535 159.2C209.156 159.2 210.409 159.589 211.295 160.368C212.18 161.136 212.623 162.229 212.623 163.648C212.623 165.067 212.196 166.187 211.343 167.008C210.5 167.829 209.284 168.24 207.695 168.24ZM210.53 170.64C210.53 170.448 210.498 170.315 210.434 170.24C210.37 170.165 210.242 170.128 210.05 170.128H209.49V168.832H210.978C211.511 168.832 211.874 168.928 212.066 169.12C212.258 169.323 212.354 169.685 212.354 170.208V172.288H210.53V170.64ZM218.482 168.24C217.628 168.24 216.876 168.085 216.226 167.776C215.586 167.467 215.09 167.04 214.738 166.496C214.396 165.941 214.226 165.312 214.226 164.608V159.44H216.258V164.528C216.258 165.2 216.444 165.723 216.818 166.096C217.191 166.469 217.746 166.656 218.482 166.656C219.207 166.656 219.756 166.469 220.13 166.096C220.503 165.723 220.69 165.2 220.69 164.528V156.576H222.722V164.608C222.722 165.312 222.546 165.941 222.194 166.496C221.852 167.04 221.362 167.467 220.722 167.776C220.082 168.085 219.335 168.24 218.482 168.24ZM225.128 162.784L224.328 161.456C224.914 160.72 225.586 160.16 226.344 159.776C227.112 159.392 227.997 159.2 229 159.2C230.333 159.2 231.352 159.499 232.056 160.096C232.77 160.693 233.128 161.52 233.128 162.576V168H231.096V162.736C231.096 162.075 230.92 161.584 230.568 161.264C230.216 160.944 229.693 160.784 229 160.784C228.477 160.784 228.013 160.859 227.608 161.008C227.213 161.157 226.845 161.403 226.504 161.744L227.16 162.8V168H225.128V162.784ZM238.11 168.24C237.502 168.24 236.883 168.176 236.254 168.048C235.635 167.92 235.15 167.728 234.798 167.472V165.888C235.267 166.165 235.784 166.373 236.35 166.512C236.926 166.651 237.454 166.72 237.934 166.72C238.574 166.72 239.032 166.656 239.31 166.528C239.598 166.4 239.742 166.16 239.742 165.808C239.742 165.563 239.667 165.371 239.518 165.232C239.368 165.083 239.166 164.96 238.91 164.864C238.654 164.768 238.174 164.613 237.47 164.4C236.552 164.112 235.864 163.765 235.406 163.36C234.958 162.955 234.734 162.405 234.734 161.712C234.734 160.912 235.054 160.293 235.694 159.856C236.334 159.419 237.198 159.2 238.286 159.2C238.862 159.2 239.411 159.264 239.934 159.392C240.467 159.509 240.904 159.669 241.246 159.872V161.536C240.894 161.312 240.467 161.131 239.966 160.992C239.475 160.853 238.979 160.784 238.478 160.784C237.336 160.784 236.766 161.093 236.766 161.712C236.766 161.936 236.835 162.117 236.974 162.256C237.112 162.395 237.299 162.512 237.534 162.608C237.768 162.693 238.126 162.811 238.606 162.96L239.134 163.12C239.816 163.333 240.344 163.563 240.718 163.808C241.102 164.053 241.368 164.336 241.518 164.656C241.678 164.976 241.758 165.371 241.758 165.84C241.758 166.555 241.454 167.136 240.846 167.584C240.238 168.021 239.326 168.24 238.11 168.24ZM252.647 168.24C251.975 168.24 251.399 168.101 250.919 167.824C250.449 167.536 250.092 167.147 249.847 166.656C249.601 166.155 249.479 165.6 249.479 164.992V162.736C249.479 162.064 249.319 161.573 248.999 161.264C248.679 160.944 248.193 160.784 247.543 160.784C247.052 160.784 246.62 160.859 246.247 161.008C245.873 161.157 245.527 161.403 245.207 161.744L245.863 162.8V165.552C245.863 165.829 245.921 166.027 246.039 166.144C246.167 166.251 246.375 166.304 246.663 166.304H247.527V168H245.575C245.009 168 244.577 167.84 244.279 167.52C243.98 167.2 243.831 166.763 243.831 166.208V162.784L243.031 161.456C243.617 160.72 244.273 160.16 244.999 159.776C245.735 159.392 246.583 159.2 247.543 159.2C248.833 159.2 249.815 159.499 250.487 160.096C251.159 160.683 251.495 161.509 251.495 162.576V164.896C251.495 165.493 251.633 165.936 251.911 166.224C252.188 166.512 252.625 166.656 253.223 166.656C253.692 166.656 254.119 166.544 254.503 166.32C254.897 166.085 255.191 165.76 255.383 165.344V159.44H257.399V168H255.447V166.992C254.775 167.824 253.841 168.24 252.647 168.24ZM253.351 157.248C253.351 156.8 253.469 156.464 253.703 156.24C253.938 156.005 254.317 155.888 254.839 155.888H258.375V157.184H255.655C255.474 157.184 255.351 157.221 255.287 157.296C255.213 157.371 255.175 157.499 255.175 157.68V158.272H253.351V157.248Z" fill="black"/>
<path d="M28.4 201.24L27.7 200.134C28.1667 199.537 28.708 199.084 29.324 198.776C29.94 198.459 30.6727 198.3 31.522 198.3C32.6047 198.3 33.4307 198.547 34 199.042C34.5693 199.537 34.854 200.232 34.854 201.128V206H33.776V201.226C33.776 200.526 33.5847 200.008 33.202 199.672C32.8287 199.336 32.2687 199.168 31.522 199.168C30.9433 199.168 30.4393 199.257 30.01 199.434C29.5807 199.602 29.198 199.877 28.862 200.26L29.478 201.226V206H28.4V201.24ZM39.29 206.21C38.8047 206.21 38.3007 206.145 37.778 206.014C37.2647 205.893 36.8587 205.72 36.56 205.496V204.586C36.952 204.838 37.3814 205.029 37.848 205.16C38.3147 205.281 38.772 205.342 39.22 205.342C39.892 205.342 40.3727 205.258 40.662 205.09C40.9607 204.913 41.11 204.619 41.11 204.208C41.11 203.937 41.0447 203.718 40.914 203.55C40.7927 203.373 40.5874 203.219 40.298 203.088C40.0087 202.957 39.5794 202.808 39.01 202.64C38.1607 202.388 37.5354 202.103 37.134 201.786C36.7327 201.459 36.532 200.988 36.532 200.372C36.532 199.7 36.784 199.187 37.288 198.832C37.8014 198.477 38.5014 198.3 39.388 198.3C39.8454 198.3 40.284 198.356 40.704 198.468C41.124 198.571 41.474 198.711 41.754 198.888V199.784C41.082 199.373 40.3214 199.168 39.472 199.168C38.2307 199.168 37.61 199.569 37.61 200.372C37.61 200.661 37.6847 200.89 37.834 201.058C37.9834 201.226 38.2027 201.371 38.492 201.492C38.7814 201.604 39.2247 201.744 39.822 201.912C40.4194 202.08 40.886 202.267 41.222 202.472C41.5674 202.668 41.8147 202.906 41.964 203.186C42.1134 203.457 42.188 203.802 42.188 204.222C42.188 204.819 41.95 205.3 41.474 205.664C41.0074 206.028 40.2794 206.21 39.29 206.21ZM40.9127 208.198C40.9127 208.021 40.8801 207.904 40.8147 207.848C40.7494 207.801 40.6187 207.778 40.4227 207.778H39.9887V206.868H40.9827C41.3467 206.868 41.5941 206.947 41.7247 207.106C41.8461 207.265 41.9067 207.545 41.9067 207.946V209.598H40.9127V208.198ZM52.1267 206.21C51.2494 206.21 50.5727 205.967 50.0967 205.482C49.6207 204.997 49.3827 204.348 49.3827 203.536V201.226C49.3827 200.517 49.2054 199.999 48.8507 199.672C48.5054 199.336 47.9781 199.168 47.2687 199.168C46.7274 199.168 46.2607 199.252 45.8687 199.42C45.4767 199.588 45.1034 199.868 44.7487 200.26L45.3647 201.226V204.362C45.3647 204.633 45.4161 204.824 45.5187 204.936C45.6307 205.039 45.8174 205.09 46.0787 205.09H46.8907V206H45.6307C45.1921 206 44.8561 205.879 44.6227 205.636C44.3987 205.393 44.2867 205.057 44.2867 204.628V201.24L43.5867 200.134C44.0627 199.527 44.5901 199.07 45.1687 198.762C45.7567 198.454 46.4567 198.3 47.2687 198.3C48.3141 198.3 49.1027 198.547 49.6347 199.042C50.1761 199.537 50.4467 200.232 50.4467 201.128V203.494C50.4467 204.726 51.0907 205.342 52.3787 205.342C53.3401 205.342 54.1287 204.866 54.7447 203.914V198.51H55.8227V206H54.7867V204.922C54.1241 205.781 53.2374 206.21 52.1267 206.21ZM60.6547 201.1C60.6547 200.437 60.5194 199.952 60.2487 199.644C59.978 199.327 59.516 199.168 58.8627 199.168C58.2 199.168 57.6074 199.299 57.0847 199.56V198.692C57.3087 198.58 57.5934 198.487 57.9387 198.412C58.2934 198.337 58.648 198.3 59.0027 198.3C59.9267 198.3 60.6127 198.547 61.0607 199.042C61.5087 199.537 61.7327 200.246 61.7327 201.17V206H60.6547V201.1ZM64.1109 201.24L63.4109 200.134C63.8776 199.537 64.4189 199.084 65.0349 198.776C65.6509 198.459 66.3836 198.3 67.2329 198.3C68.3156 198.3 69.1416 198.547 69.7109 199.042C70.2803 199.537 70.5649 200.232 70.5649 201.128V206H69.4869V201.226C69.4869 200.526 69.2956 200.008 68.9129 199.672C68.5396 199.336 67.9796 199.168 67.2329 199.168C66.6543 199.168 66.1503 199.257 65.7209 199.434C65.2916 199.602 64.9089 199.877 64.5729 200.26L65.1889 201.226V206H64.1109V201.24ZM75.001 206.21C74.5156 206.21 74.0116 206.145 73.489 206.014C72.9756 205.893 72.5696 205.72 72.271 205.496V204.586C72.663 204.838 73.0923 205.029 73.559 205.16C74.0256 205.281 74.483 205.342 74.931 205.342C75.603 205.342 76.0836 205.258 76.373 205.09C76.6716 204.913 76.821 204.619 76.821 204.208C76.821 203.937 76.7556 203.718 76.625 203.55C76.5036 203.373 76.2983 203.219 76.009 203.088C75.7196 202.957 75.2903 202.808 74.721 202.64C73.8716 202.388 73.2463 202.103 72.845 201.786C72.4436 201.459 72.243 200.988 72.243 200.372C72.243 199.7 72.495 199.187 72.999 198.832C73.5123 198.477 74.2123 198.3 75.099 198.3C75.5563 198.3 75.995 198.356 76.415 198.468C76.835 198.571 77.185 198.711 77.465 198.888V199.784C76.793 199.373 76.0323 199.168 75.183 199.168C73.9416 199.168 73.321 199.569 73.321 200.372C73.321 200.661 73.3956 200.89 73.545 201.058C73.6943 201.226 73.9136 201.371 74.203 201.492C74.4923 201.604 74.9356 201.744 75.533 201.912C76.1303 202.08 76.597 202.267 76.933 202.472C77.2783 202.668 77.5256 202.906 77.675 203.186C77.8243 203.457 77.899 203.802 77.899 204.222C77.899 204.819 77.661 205.3 77.185 205.664C76.7183 206.028 75.9903 206.21 75.001 206.21ZM82.2097 206.21C81.659 206.21 81.127 206.14 80.6137 206C80.1003 205.86 79.6617 205.659 79.2977 205.398V201.87H82.1537V202.738H80.3757V204.894C80.833 205.193 81.4443 205.342 82.2097 205.342C83.1617 205.342 83.9037 205.062 84.4357 204.502C84.9677 203.942 85.2337 203.149 85.2337 202.122C85.2337 201.086 84.9817 200.335 84.4777 199.868C83.983 199.401 83.1617 199.168 82.0137 199.168C81.5097 199.168 81.0197 199.224 80.5437 199.336C80.077 199.439 79.6803 199.607 79.3537 199.84V198.944C80.063 198.515 80.9917 198.3 82.1397 198.3C83.5023 198.3 84.5383 198.627 85.2477 199.28C85.957 199.924 86.3117 200.871 86.3117 202.122C86.3117 202.943 86.1483 203.662 85.8217 204.278C85.495 204.894 85.0237 205.37 84.4077 205.706C83.7917 206.042 83.059 206.21 82.2097 206.21ZM88.4059 201.24L87.7059 200.134C88.1725 199.537 88.7139 199.084 89.3299 198.776C89.9459 198.459 90.6785 198.3 91.5279 198.3C92.6105 198.3 93.4365 198.547 94.0059 199.042C94.5752 199.537 94.8599 200.232 94.8599 201.128V206H93.7819V201.226C93.7819 200.526 93.5905 200.008 93.2079 199.672C92.8345 199.336 92.2745 199.168 91.5279 199.168C90.9492 199.168 90.4452 199.257 90.0159 199.434C89.5865 199.602 89.2039 199.877 88.8679 200.26L89.4839 201.226V206H88.4059V201.24ZM99.7999 206.21C99.1746 206.21 98.6192 206.093 98.1339 205.86C97.6486 205.627 97.2706 205.3 96.9999 204.88C96.7386 204.46 96.6079 203.97 96.6079 203.41V202.808C96.6079 202.509 96.6732 202.229 96.8039 201.968C96.9439 201.707 97.1399 201.399 97.3919 201.044C97.5786 200.792 97.7186 200.587 97.8119 200.428C97.9052 200.26 97.9519 200.097 97.9519 199.938C97.9519 199.723 97.9052 199.579 97.8119 199.504C97.7186 199.42 97.5506 199.378 97.3079 199.378H96.5379V198.51H97.7559C98.1479 198.51 98.4559 198.627 98.6799 198.86C98.9132 199.093 99.0299 199.406 99.0299 199.798C99.0299 200.05 98.9739 200.288 98.8619 200.512C98.7499 200.727 98.5772 200.997 98.3439 201.324C98.1199 201.623 97.9519 201.879 97.8399 202.094C97.7372 202.299 97.6859 202.519 97.6859 202.752V203.452C97.6859 204.049 97.8726 204.516 98.2459 204.852C98.6192 205.179 99.1372 205.342 99.7999 205.342C100.491 205.342 101.041 205.155 101.452 204.782C101.863 204.409 102.068 203.849 102.068 203.102C102.068 202.393 101.914 201.851 101.606 201.478C101.298 201.105 100.85 200.918 100.262 200.918V200.302L101.816 198.3H103.006L101.382 200.386C102.558 200.741 103.146 201.646 103.146 203.102C103.146 204.082 102.838 204.847 102.222 205.398C101.606 205.939 100.799 206.21 99.7999 206.21ZM97.1823 196.578H100.094V195.024H100.962V196.578H102.152V195.024H103.006V197.306H97.1823V196.578ZM101.984 191.742H102.95V193.548H101.984V191.742ZM107.598 206.21C107.048 206.21 106.516 206.14 106.002 206C105.489 205.86 105.05 205.659 104.686 205.398V201.87H107.542V202.738H105.764V204.894C106.222 205.193 106.833 205.342 107.598 205.342C108.55 205.342 109.292 205.062 109.824 204.502C110.356 203.942 110.622 203.149 110.622 202.122C110.622 201.086 110.37 200.335 109.866 199.868C109.372 199.401 108.55 199.168 107.402 199.168C106.898 199.168 106.408 199.224 105.932 199.336C105.466 199.439 105.069 199.607 104.742 199.84V198.944C105.452 198.515 106.38 198.3 107.528 198.3C108.891 198.3 109.927 198.627 110.636 199.28C111.346 199.924 111.7 200.871 111.7 202.122C111.7 202.943 111.537 203.662 111.21 204.278C110.884 204.894 110.412 205.37 109.796 205.706C109.18 206.042 108.448 206.21 107.598 206.21ZM118.413 196.214H119.547L121.955 204.152L124.363 196.214H125.231L127.597 204.166L130.005 196.214H131.139L128.213 206H127.149L124.769 198.006L122.403 206H121.339L118.413 196.214ZM132.996 197.824C132.809 197.824 132.65 197.759 132.52 197.628C132.389 197.497 132.324 197.339 132.324 197.152C132.324 196.965 132.389 196.807 132.52 196.676C132.65 196.545 132.809 196.48 132.996 196.48C133.182 196.48 133.341 196.545 133.472 196.676C133.612 196.807 133.682 196.965 133.682 197.152C133.682 197.339 133.612 197.497 133.472 197.628C133.341 197.759 133.182 197.824 132.996 197.824ZM132.464 199.28H133.542V206H132.464V199.28ZM135.646 196.214H141.946V197.138H136.738V200.638H140.644V201.562H136.738V206H135.646V196.214ZM143.523 197.824C143.336 197.824 143.178 197.759 143.047 197.628C142.916 197.497 142.851 197.339 142.851 197.152C142.851 196.965 142.916 196.807 143.047 196.676C143.178 196.545 143.336 196.48 143.523 196.48C143.71 196.48 143.868 196.545 143.999 196.676C144.139 196.807 144.209 196.965 144.209 197.152C144.209 197.339 144.139 197.497 143.999 197.628C143.868 197.759 143.71 197.824 143.523 197.824ZM142.991 199.28H144.069V206H142.991V199.28ZM152.794 206C152.374 206 152.052 205.879 151.828 205.636C151.604 205.393 151.492 205.057 151.492 204.628V198.51H152.57V204.39C152.57 204.661 152.626 204.847 152.738 204.95C152.85 205.043 153.036 205.09 153.298 205.09H153.816V206H152.794ZM156.238 206C155.818 206 155.496 205.879 155.272 205.636C155.048 205.393 154.936 205.057 154.936 204.628V198.51H156.014V204.39C156.014 204.661 156.07 204.847 156.182 204.95C156.294 205.043 156.48 205.09 156.742 205.09H157.26V206H156.238ZM161.323 206.21C160.502 206.21 159.853 206.009 159.377 205.608C158.901 205.197 158.663 204.609 158.663 203.844C158.663 203.097 158.929 202.509 159.461 202.08C159.993 201.641 160.707 201.422 161.603 201.422C162.574 201.422 163.456 201.609 164.249 201.982V201.17C164.249 200.479 164.062 199.975 163.689 199.658C163.316 199.331 162.709 199.168 161.869 199.168C161.43 199.168 161.001 199.21 160.581 199.294C160.161 199.369 159.797 199.476 159.489 199.616V198.748C159.769 198.617 160.147 198.51 160.623 198.426C161.099 198.342 161.561 198.3 162.009 198.3C163.129 198.3 163.96 198.557 164.501 199.07C165.052 199.574 165.327 200.269 165.327 201.156V206H164.249V202.85C163.512 202.477 162.662 202.29 161.701 202.29C161.029 202.29 160.534 202.421 160.217 202.682C159.9 202.934 159.741 203.321 159.741 203.844C159.741 204.357 159.886 204.735 160.175 204.978C160.464 205.221 160.926 205.342 161.561 205.342C161.888 205.342 162.196 205.3 162.485 205.216V206.07C162.158 206.163 161.771 206.21 161.323 206.21ZM168.025 201.366C167.661 201.366 167.399 201.282 167.241 201.114C167.082 200.946 167.003 200.694 167.003 200.358V199.658H167.997V200.134C167.997 200.293 168.029 200.405 168.095 200.47C168.169 200.535 168.295 200.568 168.473 200.568H170.097V201.366H168.025ZM168.025 205.216C167.661 205.216 167.399 205.132 167.241 204.964C167.082 204.796 167.003 204.544 167.003 204.208V203.508H167.997V203.984C167.997 204.143 168.029 204.255 168.095 204.32C168.169 204.385 168.295 204.418 168.473 204.418H170.097V205.216H168.025ZM177.099 196.214H180.725C181.752 196.214 182.55 196.457 183.119 196.942C183.698 197.427 183.987 198.146 183.987 199.098C183.987 200.059 183.702 200.778 183.133 201.254C182.564 201.73 181.761 201.968 180.725 201.968H178.191V206H177.099V196.214ZM180.641 201.044C181.341 201.044 181.892 200.904 182.293 200.624C182.694 200.335 182.895 199.826 182.895 199.098C182.895 198.361 182.694 197.852 182.293 197.572C181.892 197.283 181.341 197.138 180.641 197.138H178.191V201.044H180.641ZM186.971 206.21C186.159 206.21 185.515 206.009 185.039 205.608C184.572 205.197 184.339 204.637 184.339 203.928C184.339 203.191 184.567 202.626 185.025 202.234C185.482 201.833 186.145 201.632 187.013 201.632C187.983 201.632 188.819 201.833 189.519 202.234V201.73C189.519 201.123 189.346 200.675 189.001 200.386C188.655 200.087 188.109 199.938 187.363 199.938C186.569 199.938 185.837 200.087 185.165 200.386V199.476C185.445 199.355 185.799 199.257 186.229 199.182C186.658 199.107 187.069 199.07 187.461 199.07C188.525 199.07 189.313 199.313 189.827 199.798C190.34 200.274 190.597 200.937 190.597 201.786V206H189.589V205.132C189.001 205.851 188.128 206.21 186.971 206.21ZM187.237 205.328C187.741 205.328 188.193 205.23 188.595 205.034C189.005 204.829 189.313 204.544 189.519 204.18V203.102C189.155 202.887 188.791 202.733 188.427 202.64C188.072 202.537 187.671 202.486 187.223 202.486C186.588 202.486 186.126 202.607 185.837 202.85C185.557 203.083 185.417 203.443 185.417 203.928C185.417 204.861 186.023 205.328 187.237 205.328ZM194.613 206.21C194.174 206.21 193.703 206.145 193.199 206.014C192.695 205.893 192.303 205.739 192.023 205.552V204.642C192.378 204.857 192.784 205.029 193.241 205.16C193.708 205.291 194.156 205.356 194.585 205.356C195.164 205.356 195.579 205.277 195.831 205.118C196.092 204.95 196.223 204.703 196.223 204.376C196.223 204.124 196.167 203.928 196.055 203.788C195.943 203.639 195.756 203.508 195.495 203.396C195.234 203.284 194.828 203.153 194.277 203.004C193.736 202.855 193.302 202.701 192.975 202.542C192.658 202.374 192.415 202.164 192.247 201.912C192.079 201.66 191.995 201.338 191.995 200.946C191.995 200.339 192.238 199.877 192.723 199.56C193.218 199.233 193.871 199.07 194.683 199.07C195.122 199.07 195.532 199.112 195.915 199.196C196.307 199.271 196.634 199.378 196.895 199.518V200.428C196.624 200.279 196.298 200.162 195.915 200.078C195.532 199.985 195.136 199.938 194.725 199.938C194.184 199.938 193.773 200.017 193.493 200.176C193.213 200.335 193.073 200.591 193.073 200.946C193.073 201.189 193.12 201.375 193.213 201.506C193.316 201.637 193.498 201.758 193.759 201.87C194.03 201.973 194.459 202.103 195.047 202.262C195.887 202.495 196.47 202.771 196.797 203.088C197.133 203.396 197.301 203.825 197.301 204.376C197.301 204.945 197.077 205.393 196.629 205.72C196.19 206.047 195.518 206.21 194.613 206.21ZM200.957 206.21C200.518 206.21 200.047 206.145 199.543 206.014C199.039 205.893 198.647 205.739 198.367 205.552V204.642C198.721 204.857 199.127 205.029 199.585 205.16C200.051 205.291 200.499 205.356 200.929 205.356C201.507 205.356 201.923 205.277 202.175 205.118C202.436 204.95 202.567 204.703 202.567 204.376C202.567 204.124 202.511 203.928 202.399 203.788C202.287 203.639 202.1 203.508 201.839 203.396C201.577 203.284 201.171 203.153 200.621 203.004C200.079 202.855 199.645 202.701 199.319 202.542C199.001 202.374 198.759 202.164 198.591 201.912C198.423 201.66 198.339 201.338 198.339 200.946C198.339 200.339 198.581 199.877 199.067 199.56C199.561 199.233 200.215 199.07 201.027 199.07C201.465 199.07 201.876 199.112 202.259 199.196C202.651 199.271 202.977 199.378 203.239 199.518V200.428C202.968 200.279 202.641 200.162 202.259 200.078C201.876 199.985 201.479 199.938 201.069 199.938C200.527 199.938 200.117 200.017 199.837 200.176C199.557 200.335 199.417 200.591 199.417 200.946C199.417 201.189 199.463 201.375 199.557 201.506C199.659 201.637 199.841 201.758 200.103 201.87C200.373 201.973 200.803 202.103 201.391 202.262C202.231 202.495 202.814 202.771 203.141 203.088C203.477 203.396 203.645 203.825 203.645 204.376C203.645 204.945 203.421 205.393 202.973 205.72C202.534 206.047 201.862 206.21 200.957 206.21ZM204.409 199.28H205.529L207.195 204.698L208.833 199.28H209.855L211.507 204.698L213.159 199.28H214.293L212.137 206H211.031L209.351 200.526L207.671 206H206.551L204.409 199.28ZM218.496 206.21C217.768 206.21 217.12 206.065 216.55 205.776C215.99 205.487 215.552 205.076 215.234 204.544C214.926 204.003 214.772 203.373 214.772 202.654C214.772 201.945 214.931 201.319 215.248 200.778C215.566 200.237 216.004 199.817 216.564 199.518C217.134 199.219 217.778 199.07 218.496 199.07C219.215 199.07 219.854 199.219 220.414 199.518C220.984 199.817 221.427 200.237 221.744 200.778C222.062 201.319 222.22 201.945 222.22 202.654C222.22 203.373 222.062 204.003 221.744 204.544C221.436 205.076 220.998 205.487 220.428 205.776C219.868 206.065 219.224 206.21 218.496 206.21ZM218.496 205.356C219.299 205.356 219.938 205.113 220.414 204.628C220.9 204.133 221.142 203.475 221.142 202.654C221.142 201.823 220.9 201.165 220.414 200.68C219.938 200.185 219.299 199.938 218.496 199.938C217.694 199.938 217.05 200.185 216.564 200.68C216.088 201.165 215.85 201.823 215.85 202.654C215.85 203.475 216.088 204.133 216.564 204.628C217.05 205.113 217.694 205.356 218.496 205.356ZM223.898 199.28H224.948V200.596C225.489 199.719 226.502 199.28 227.986 199.28V200.148C226.362 200.148 225.359 200.685 224.976 201.758V206H223.898V199.28ZM232.409 206.21C231.747 206.21 231.149 206.065 230.617 205.776C230.085 205.487 229.665 205.071 229.357 204.53C229.049 203.989 228.895 203.363 228.895 202.654C228.895 201.954 229.045 201.333 229.343 200.792C229.651 200.241 230.071 199.817 230.603 199.518C231.145 199.219 231.747 199.07 232.409 199.07C233.053 199.07 233.623 199.187 234.117 199.42C234.621 199.644 235.023 199.975 235.321 200.414V195.654H236.399V206H235.349V204.824C234.995 205.291 234.575 205.641 234.089 205.874C233.613 206.098 233.053 206.21 232.409 206.21ZM232.633 205.356C233.277 205.356 233.837 205.193 234.313 204.866C234.799 204.53 235.135 204.073 235.321 203.494V201.814C235.144 201.235 234.813 200.778 234.327 200.442C233.851 200.106 233.287 199.938 232.633 199.938C232.139 199.938 231.686 200.055 231.275 200.288C230.874 200.512 230.557 200.829 230.323 201.24C230.09 201.651 229.973 202.122 229.973 202.654C229.973 203.186 230.09 203.657 230.323 204.068C230.557 204.479 230.874 204.796 231.275 205.02C231.686 205.244 232.139 205.356 232.633 205.356ZM244.983 206C244.563 206 244.241 205.879 244.017 205.636C243.793 205.393 243.681 205.057 243.681 204.628V198.51H244.759V204.39C244.759 204.661 244.815 204.847 244.927 204.95C245.039 205.043 245.226 205.09 245.487 205.09H246.005V206H244.983ZM247.267 198.51H248.345L249.871 204.446L251.649 198.51H252.517L254.295 204.446L255.821 198.51H256.899L254.827 206H253.917L252.083 199.882L250.249 206H249.339L247.267 198.51ZM249.378 196.578H252.29V195.024H253.158V196.578H254.348V195.024H255.202V197.306H249.378V196.578ZM254.18 191.742H255.146V193.548H254.18V191.742ZM261.065 206.21C260.514 206.21 259.982 206.14 259.469 206C258.956 205.86 258.517 205.659 258.153 205.398V201.87H261.009V202.738H259.231V204.894C259.688 205.193 260.3 205.342 261.065 205.342C262.017 205.342 262.759 205.062 263.291 204.502C263.823 203.942 264.089 203.149 264.089 202.122C264.089 201.086 263.837 200.335 263.333 199.868C262.838 199.401 262.017 199.168 260.869 199.168C260.365 199.168 259.875 199.224 259.399 199.336C258.932 199.439 258.536 199.607 258.209 199.84V198.944C258.918 198.515 259.847 198.3 260.995 198.3C262.358 198.3 263.394 198.627 264.103 199.28C264.812 199.924 265.167 200.871 265.167 202.122C265.167 202.943 265.004 203.662 264.677 204.278C264.35 204.894 263.879 205.37 263.263 205.706C262.647 206.042 261.914 206.21 261.065 206.21ZM268.269 206C267.849 206 267.527 205.879 267.303 205.636C267.079 205.393 266.967 205.057 266.967 204.628V200.582C266.967 200.078 267.056 199.663 267.233 199.336C267.411 199.009 267.663 198.659 267.989 198.286C268.195 198.053 268.349 197.852 268.451 197.684C268.554 197.516 268.605 197.339 268.605 197.152C268.605 196.816 268.517 196.573 268.339 196.424C268.162 196.275 267.859 196.2 267.429 196.2C266.879 196.2 266.356 196.354 265.861 196.662V195.794C266.375 195.486 266.995 195.332 267.723 195.332C268.386 195.332 268.876 195.5 269.193 195.836C269.52 196.163 269.683 196.592 269.683 197.124C269.683 197.385 269.623 197.619 269.501 197.824C269.38 198.029 269.198 198.267 268.955 198.538C268.657 198.883 268.428 199.201 268.269 199.49C268.12 199.77 268.045 200.12 268.045 200.54V204.39C268.045 204.661 268.101 204.847 268.213 204.95C268.325 205.043 268.512 205.09 268.773 205.09H269.291V206H268.269ZM270.943 198.51H272.021V202.108L276.053 198.51H277.327L275.283 200.344C276.058 200.531 276.599 200.839 276.907 201.268C277.215 201.688 277.369 202.248 277.369 202.948V206H276.291V203.004C276.291 202.416 276.16 201.968 275.899 201.66C275.647 201.352 275.208 201.133 274.583 201.002L272.021 203.284V206H270.943V198.51ZM274.55 196.438C274.55 196.317 274.531 196.233 274.494 196.186C274.447 196.139 274.363 196.116 274.242 196.116H273.626V195.332H274.536C274.816 195.332 275.021 195.402 275.152 195.542C275.273 195.673 275.334 195.841 275.334 196.046V196.564H278.204V197.306H274.55V196.438ZM281.956 206.21C281.405 206.21 280.873 206.14 280.36 206C279.846 205.86 279.408 205.659 279.044 205.398V201.87H281.9V202.738H280.122V204.894C280.579 205.193 281.19 205.342 281.956 205.342C282.908 205.342 283.65 205.062 284.182 204.502C284.714 203.942 284.98 203.149 284.98 202.122C284.98 201.086 284.728 200.335 284.224 199.868C283.729 199.401 282.908 199.168 281.76 199.168C281.256 199.168 280.766 199.224 280.29 199.336C279.823 199.439 279.426 199.607 279.1 199.84V198.944C279.809 198.515 280.738 198.3 281.886 198.3C283.248 198.3 284.284 198.627 284.994 199.28C285.703 199.924 286.058 200.871 286.058 202.122C286.058 202.943 285.894 203.662 285.568 204.278C285.241 204.894 284.77 205.37 284.154 205.706C283.538 206.042 282.805 206.21 281.956 206.21ZM284.778 208.198C284.778 208.021 284.745 207.904 284.68 207.848C284.615 207.801 284.484 207.778 284.288 207.778H283.854V206.868H284.848C285.212 206.868 285.459 206.947 285.59 207.106C285.711 207.265 285.772 207.545 285.772 207.946V209.598H284.778V208.198ZM291.204 206.21C290.504 206.21 289.888 206.084 289.356 205.832C288.833 205.58 288.432 205.225 288.152 204.768C287.872 204.301 287.732 203.769 287.732 203.172V198.51H288.81V203.186C288.81 203.849 289.015 204.376 289.426 204.768C289.846 205.151 290.439 205.342 291.204 205.342C291.969 205.342 292.557 205.151 292.968 204.768C293.388 204.376 293.598 203.849 293.598 203.186V196.004H294.676V203.172C294.676 203.769 294.536 204.301 294.256 204.768C293.976 205.225 293.57 205.58 293.038 205.832C292.515 206.084 291.904 206.21 291.204 206.21ZM297.052 201.24L296.352 200.134C296.819 199.537 297.36 199.084 297.976 198.776C298.592 198.459 299.325 198.3 300.174 198.3C301.257 198.3 302.083 198.547 302.652 199.042C303.222 199.537 303.506 200.232 303.506 201.128V206H302.428V201.226C302.428 200.526 302.237 200.008 301.854 199.672C301.481 199.336 300.921 199.168 300.174 199.168C299.596 199.168 299.092 199.257 298.662 199.434C298.233 199.602 297.85 199.877 297.514 200.26L298.13 201.226V206H297.052V201.24ZM307.942 206.21C307.457 206.21 306.953 206.145 306.43 206.014C305.917 205.893 305.511 205.72 305.212 205.496V204.586C305.604 204.838 306.034 205.029 306.5 205.16C306.967 205.281 307.424 205.342 307.872 205.342C308.544 205.342 309.025 205.258 309.314 205.09C309.613 204.913 309.762 204.619 309.762 204.208C309.762 203.937 309.697 203.718 309.566 203.55C309.445 203.373 309.24 203.219 308.95 203.088C308.661 202.957 308.232 202.808 307.662 202.64C306.813 202.388 306.188 202.103 305.786 201.786C305.385 201.459 305.184 200.988 305.184 200.372C305.184 199.7 305.436 199.187 305.94 198.832C306.454 198.477 307.154 198.3 308.04 198.3C308.498 198.3 308.936 198.356 309.356 198.468C309.776 198.571 310.126 198.711 310.406 198.888V199.784C309.734 199.373 308.974 199.168 308.124 199.168C306.883 199.168 306.262 199.569 306.262 200.372C306.262 200.661 306.337 200.89 306.486 201.058C306.636 201.226 306.855 201.371 307.144 201.492C307.434 201.604 307.877 201.744 308.474 201.912C309.072 202.08 309.538 202.267 309.874 202.472C310.22 202.668 310.467 202.906 310.616 203.186C310.766 203.457 310.84 203.802 310.84 204.222C310.84 204.819 310.602 205.3 310.126 205.664C309.66 206.028 308.932 206.21 307.942 206.21ZM320.779 206.21C319.902 206.21 319.225 205.967 318.749 205.482C318.273 204.997 318.035 204.348 318.035 203.536V201.226C318.035 200.517 317.858 199.999 317.503 199.672C317.158 199.336 316.63 199.168 315.921 199.168C315.38 199.168 314.913 199.252 314.521 199.42C314.129 199.588 313.756 199.868 313.401 200.26L314.017 201.226V204.362C314.017 204.633 314.068 204.824 314.171 204.936C314.283 205.039 314.47 205.09 314.731 205.09H315.543V206H314.283C313.844 206 313.508 205.879 313.275 205.636C313.051 205.393 312.939 205.057 312.939 204.628V201.24L312.239 200.134C312.715 199.527 313.242 199.07 313.821 198.762C314.409 198.454 315.109 198.3 315.921 198.3C316.966 198.3 317.755 198.547 318.287 199.042C318.828 199.537 319.099 200.232 319.099 201.128V203.494C319.099 204.726 319.743 205.342 321.031 205.342C321.992 205.342 322.781 204.866 323.397 203.914V198.51H324.475V206H323.439V204.922C322.776 205.781 321.89 206.21 320.779 206.21ZM321.341 196.606C321.341 195.953 321.696 195.626 322.405 195.626H325.499V196.368H322.825C322.638 196.368 322.512 196.401 322.447 196.466C322.372 196.531 322.335 196.653 322.335 196.83V197.306H321.341V196.606ZM29.282 226C28.862 226 28.54 225.879 28.316 225.636C28.092 225.393 27.98 225.057 27.98 224.628V218.51H29.058V224.39C29.058 224.661 29.114 224.847 29.226 224.95C29.338 225.043 29.5247 225.09 29.786 225.09H30.304V226H29.282ZM34.9679 226.21C34.3425 226.21 33.7872 226.093 33.3019 225.86C32.8165 225.627 32.4385 225.3 32.1679 224.88C31.9065 224.46 31.7759 223.97 31.7759 223.41V222.808C31.7759 222.509 31.8412 222.229 31.9719 221.968C32.1119 221.707 32.3079 221.399 32.5599 221.044C32.7465 220.792 32.8865 220.587 32.9799 220.428C33.0732 220.26 33.1199 220.097 33.1199 219.938C33.1199 219.723 33.0732 219.579 32.9799 219.504C32.8865 219.42 32.7185 219.378 32.4759 219.378H31.7059V218.51H32.9239C33.3159 218.51 33.6239 218.627 33.8479 218.86C34.0812 219.093 34.1979 219.406 34.1979 219.798C34.1979 220.05 34.1419 220.288 34.0299 220.512C33.9179 220.727 33.7452 220.997 33.5119 221.324C33.2879 221.623 33.1199 221.879 33.0079 222.094C32.9052 222.299 32.8539 222.519 32.8539 222.752V223.452C32.8539 224.049 33.0405 224.516 33.4139 224.852C33.7872 225.179 34.3052 225.342 34.9679 225.342C35.6585 225.342 36.2092 225.155 36.6199 224.782C37.0305 224.409 37.2359 223.849 37.2359 223.102C37.2359 222.393 37.0819 221.851 36.7739 221.478C36.4659 221.105 36.0179 220.918 35.4299 220.918V220.302L36.9839 218.3H38.1739L36.5499 220.386C37.7259 220.741 38.3139 221.646 38.3139 223.102C38.3139 224.082 38.0059 224.847 37.3899 225.398C36.7739 225.939 35.9665 226.21 34.9679 226.21ZM32.3503 216.578H35.2623V215.024H36.1303V216.578H37.3203V215.024H38.1743V217.306H32.3503V216.578ZM37.1523 211.742H38.1183V213.548H37.1523V211.742ZM42.7663 226.21C42.2156 226.21 41.6836 226.14 41.1703 226C40.657 225.86 40.2183 225.659 39.8543 225.398V221.87H42.7103V222.738H40.9323V224.894C41.3896 225.193 42.001 225.342 42.7663 225.342C43.7183 225.342 44.4603 225.062 44.9923 224.502C45.5243 223.942 45.7903 223.149 45.7903 222.122C45.7903 221.086 45.5383 220.335 45.0343 219.868C44.5396 219.401 43.7183 219.168 42.5703 219.168C42.0663 219.168 41.5763 219.224 41.1003 219.336C40.6336 219.439 40.237 219.607 39.9103 219.84V218.944C40.6196 218.515 41.5483 218.3 42.6963 218.3C44.059 218.3 45.095 218.627 45.8043 219.28C46.5136 219.924 46.8683 220.871 46.8683 222.122C46.8683 222.943 46.705 223.662 46.3783 224.278C46.0516 224.894 45.5803 225.37 44.9643 225.706C44.3483 226.042 43.6156 226.21 42.7663 226.21ZM52.3925 226.21C51.2538 226.21 50.3205 225.771 49.5925 224.894V226H48.5425V218.51H49.6205V223.914C50.2365 224.866 51.0765 225.342 52.1405 225.342C52.8218 225.342 53.3352 225.188 53.6805 224.88C54.0258 224.563 54.1985 224.101 54.1985 223.494V218.51H55.2765V223.536C55.2765 224.348 55.0245 224.997 54.5205 225.482C54.0165 225.967 53.3072 226.21 52.3925 226.21ZM60.4858 226.21C59.7858 226.21 59.1698 226.065 58.6378 225.776C58.1058 225.477 57.6905 225.043 57.3918 224.474C57.1025 223.905 56.9578 223.209 56.9578 222.388C56.9578 221.548 57.0651 220.82 57.2798 220.204C57.5038 219.588 57.8118 219.117 58.2038 218.79C58.5958 218.463 59.0438 218.3 59.5478 218.3C60.2665 218.3 60.7611 218.603 61.0318 219.21C61.1811 218.911 61.4098 218.687 61.7178 218.538C62.0258 218.379 62.3711 218.3 62.7538 218.3C63.3698 218.3 63.8271 218.501 64.1258 218.902C64.4338 219.294 64.5878 219.821 64.5878 220.484V226H63.5098V220.554C63.5098 220.087 63.4305 219.742 63.2718 219.518C63.1225 219.285 62.8705 219.168 62.5158 219.168C61.9091 219.168 61.5311 219.481 61.3818 220.106H60.6818C60.6165 219.779 60.5091 219.541 60.3598 219.392C60.2105 219.243 59.9911 219.168 59.7018 219.168C59.2165 219.168 58.8151 219.448 58.4978 220.008C58.1898 220.568 58.0358 221.361 58.0358 222.388C58.0358 223.349 58.2691 224.082 58.7358 224.586C59.2025 225.09 59.8371 225.342 60.6398 225.342C60.9851 225.342 61.3165 225.3 61.6338 225.216V226.07C61.3258 226.163 60.9431 226.21 60.4858 226.21ZM63.5244 215.052H64.5744V217.306H63.5244V215.052ZM69.1804 226.21C68.6297 226.21 68.0977 226.14 67.5844 226C67.071 225.86 66.6324 225.659 66.2684 225.398V221.87H69.1244V222.738H67.3464V224.894C67.8037 225.193 68.415 225.342 69.1804 225.342C70.1324 225.342 70.8744 225.062 71.4064 224.502C71.9384 223.942 72.2044 223.149 72.2044 222.122C72.2044 221.086 71.9524 220.335 71.4484 219.868C70.9537 219.401 70.1324 219.168 68.9844 219.168C68.4804 219.168 67.9904 219.224 67.5144 219.336C67.0477 219.439 66.651 219.607 66.3244 219.84V218.944C67.0337 218.515 67.9624 218.3 69.1104 218.3C70.473 218.3 71.509 218.627 72.2184 219.28C72.9277 219.924 73.2824 220.871 73.2824 222.122C73.2824 222.943 73.119 223.662 72.7924 224.278C72.4657 224.894 71.9944 225.37 71.3784 225.706C70.7624 226.042 70.0297 226.21 69.1804 226.21ZM77.5886 226.21C77.0379 226.21 76.5059 226.14 75.9926 226C75.4792 225.86 75.0406 225.659 74.6766 225.398V221.87H77.5326V222.738H75.7546V224.894C76.2119 225.193 76.8232 225.342 77.5886 225.342C78.5406 225.342 79.2826 225.062 79.8146 224.502C80.3466 223.942 80.6126 223.149 80.6126 222.122C80.6126 221.086 80.3606 220.335 79.8566 219.868C79.3619 219.401 78.5406 219.168 77.3926 219.168C76.8886 219.168 76.3986 219.224 75.9226 219.336C75.4559 219.439 75.0592 219.607 74.7326 219.84V218.944C75.4419 218.515 76.3706 218.3 77.5186 218.3C78.8812 218.3 79.9172 218.627 80.6266 219.28C81.3359 219.924 81.6906 220.871 81.6906 222.122C81.6906 222.943 81.5272 223.662 81.2006 224.278C80.8739 224.894 80.4026 225.37 79.7866 225.706C79.1706 226.042 78.4379 226.21 77.5886 226.21ZM75.5528 216.508H81.3908V217.306H75.5528V216.508ZM86.2488 226.21C85.3341 226.21 84.6248 225.967 84.1208 225.482C83.6168 224.997 83.3648 224.348 83.3648 223.536V218.51H84.4428V223.494C84.4428 224.101 84.6154 224.563 84.9608 224.88C85.3061 225.188 85.8194 225.342 86.5008 225.342C87.5648 225.342 88.4048 224.866 89.0208 223.914V218.51H90.0988V226H89.0488V224.894C88.7034 225.342 88.3021 225.673 87.8448 225.888C87.3874 226.103 86.8554 226.21 86.2488 226.21ZM93.3621 226C92.9421 226 92.6201 225.879 92.3961 225.636C92.1721 225.393 92.0601 225.057 92.0601 224.628V218.51H93.1381V224.39C93.1381 224.661 93.1941 224.847 93.3061 224.95C93.4181 225.043 93.6047 225.09 93.8661 225.09H94.3841V226H93.3621ZM96.0659 218.51H97.1159V219.602C97.4799 219.163 97.9186 218.837 98.4319 218.622C98.9453 218.407 99.4679 218.3 99.9999 218.3C100.896 218.3 101.587 218.543 102.072 219.028C102.557 219.513 102.8 220.143 102.8 220.918V226H101.722V220.974C101.722 220.405 101.559 219.961 101.232 219.644C100.905 219.327 100.411 219.168 99.7479 219.168C98.6186 219.168 97.7506 219.635 97.1439 220.568V226H96.0659V218.51ZM107.393 226.21C106.843 226.21 106.311 226.14 105.797 226C105.284 225.86 104.845 225.659 104.481 225.398V221.87H107.337V222.738H105.559V224.894C106.017 225.193 106.628 225.342 107.393 225.342C108.345 225.342 109.087 225.062 109.619 224.502C110.151 223.942 110.417 223.149 110.417 222.122C110.417 221.086 110.165 220.335 109.661 219.868C109.167 219.401 108.345 219.168 107.197 219.168C106.693 219.168 106.203 219.224 105.727 219.336C105.261 219.439 104.864 219.607 104.537 219.84V218.944C105.247 218.515 106.175 218.3 107.323 218.3C108.686 218.3 109.722 218.627 110.431 219.28C111.141 219.924 111.495 220.871 111.495 222.122C111.495 222.943 111.332 223.662 111.005 224.278C110.679 224.894 110.207 225.37 109.591 225.706C108.975 226.042 108.243 226.21 107.393 226.21ZM115.647 226.21C115.162 226.21 114.658 226.145 114.135 226.014C113.622 225.893 113.216 225.72 112.917 225.496V224.586C113.309 224.838 113.739 225.029 114.205 225.16C114.672 225.281 115.129 225.342 115.577 225.342C116.249 225.342 116.73 225.258 117.019 225.09C117.318 224.913 117.467 224.619 117.467 224.208C117.467 223.937 117.402 223.718 117.271 223.55C117.15 223.373 116.945 223.219 116.655 223.088C116.366 222.957 115.937 222.808 115.367 222.64C114.518 222.388 113.893 222.103 113.491 221.786C113.09 221.459 112.889 220.988 112.889 220.372C112.889 219.7 113.141 219.187 113.645 218.832C114.159 218.477 114.859 218.3 115.745 218.3C116.203 218.3 116.641 218.356 117.061 218.468C117.481 218.571 117.831 218.711 118.111 218.888V219.784C117.439 219.373 116.679 219.168 115.829 219.168C114.588 219.168 113.967 219.569 113.967 220.372C113.967 220.661 114.042 220.89 114.191 221.058C114.341 221.226 114.56 221.371 114.849 221.492C115.139 221.604 115.582 221.744 116.179 221.912C116.777 222.08 117.243 222.267 117.579 222.472C117.925 222.668 118.172 222.906 118.321 223.186C118.471 223.457 118.545 223.802 118.545 224.222C118.545 224.819 118.307 225.3 117.831 225.664C117.365 226.028 116.637 226.21 115.647 226.21ZM115.128 216.606C115.128 215.953 115.483 215.626 116.192 215.626H119.286V216.368H116.612C116.425 216.368 116.299 216.401 116.234 216.466C116.159 216.531 116.122 216.653 116.122 216.83V217.306H115.128V216.606ZM121.526 226C121.106 226 120.784 225.879 120.56 225.636C120.336 225.393 120.224 225.057 120.224 224.628V218.51H121.302V224.39C121.302 224.661 121.358 224.847 121.47 224.95C121.582 225.043 121.769 225.09 122.03 225.09H122.548V226H121.526ZM127.114 226.21C126.199 226.21 125.49 225.967 124.986 225.482C124.482 224.997 124.23 224.348 124.23 223.536V218.51H125.308V223.494C125.308 224.101 125.481 224.563 125.826 224.88C126.171 225.188 126.685 225.342 127.366 225.342C128.43 225.342 129.27 224.866 129.886 223.914V218.51H130.964V226H129.914V224.894C129.569 225.342 129.167 225.673 128.71 225.888C128.253 226.103 127.721 226.21 127.114 226.21ZM127.101 217.362C126.635 217.362 126.266 217.227 125.995 216.956C125.715 216.685 125.575 216.335 125.575 215.906C125.575 215.374 125.729 214.973 126.037 214.702C126.345 214.422 126.775 214.282 127.325 214.282H130.517V214.926H127.381C127.036 214.926 126.779 215.001 126.611 215.15C126.443 215.299 126.359 215.528 126.359 215.836C126.359 216.116 126.434 216.331 126.583 216.48C126.723 216.62 126.924 216.69 127.185 216.69C127.465 216.69 127.68 216.615 127.829 216.466C127.979 216.317 128.053 216.121 128.053 215.878H128.711C128.711 216.121 128.781 216.307 128.921 216.438C129.061 216.569 129.267 216.634 129.537 216.634H130.279V217.306H129.551C129.243 217.306 128.987 217.241 128.781 217.11C128.567 216.979 128.431 216.821 128.375 216.634C128.301 216.83 128.147 217.003 127.913 217.152C127.68 217.292 127.409 217.362 127.101 217.362ZM136.173 226.21C135.473 226.21 134.857 226.065 134.325 225.776C133.793 225.477 133.378 225.043 133.079 224.474C132.79 223.905 132.645 223.209 132.645 222.388C132.645 221.548 132.753 220.82 132.967 220.204C133.191 219.588 133.499 219.117 133.891 218.79C134.283 218.463 134.731 218.3 135.235 218.3C135.954 218.3 136.449 218.603 136.719 219.21C136.869 218.911 137.097 218.687 137.405 218.538C137.713 218.379 138.059 218.3 138.441 218.3C139.057 218.3 139.515 218.501 139.813 218.902C140.121 219.294 140.275 219.821 140.275 220.484V226H139.197V220.554C139.197 220.087 139.118 219.742 138.959 219.518C138.81 219.285 138.558 219.168 138.203 219.168C137.597 219.168 137.219 219.481 137.069 220.106H136.369C136.304 219.779 136.197 219.541 136.047 219.392C135.898 219.243 135.679 219.168 135.389 219.168C134.904 219.168 134.503 219.448 134.185 220.008C133.877 220.568 133.723 221.361 133.723 222.388C133.723 223.349 133.957 224.082 134.423 224.586C134.89 225.09 135.525 225.342 136.327 225.342C136.673 225.342 137.004 225.3 137.321 225.216V226.07C137.013 226.163 136.631 226.21 136.173 226.21ZM143.538 226C143.118 226 142.796 225.879 142.572 225.636C142.348 225.393 142.236 225.057 142.236 224.628V218.51H143.314V224.39C143.314 224.661 143.37 224.847 143.482 224.95C143.594 225.043 143.781 225.09 144.042 225.09H144.56V226H143.538ZM146.982 226C146.562 226 146.24 225.879 146.016 225.636C145.792 225.393 145.68 225.057 145.68 224.628V218.51H146.758V224.39C146.758 224.661 146.814 224.847 146.926 224.95C147.038 225.043 147.225 225.09 147.486 225.09H148.004V226H146.982ZM152.067 226.21C151.246 226.21 150.597 226.009 150.121 225.608C149.645 225.197 149.407 224.609 149.407 223.844C149.407 223.097 149.673 222.509 150.205 222.08C150.737 221.641 151.451 221.422 152.347 221.422C153.318 221.422 154.2 221.609 154.993 221.982V221.17C154.993 220.479 154.806 219.975 154.433 219.658C154.06 219.331 153.453 219.168 152.613 219.168C152.174 219.168 151.745 219.21 151.325 219.294C150.905 219.369 150.541 219.476 150.233 219.616V218.748C150.513 218.617 150.891 218.51 151.367 218.426C151.843 218.342 152.305 218.3 152.753 218.3C153.873 218.3 154.704 218.557 155.245 219.07C155.796 219.574 156.071 220.269 156.071 221.156V226H154.993V222.85C154.256 222.477 153.406 222.29 152.445 222.29C151.773 222.29 151.278 222.421 150.961 222.682C150.644 222.934 150.485 223.321 150.485 223.844C150.485 224.357 150.63 224.735 150.919 224.978C151.208 225.221 151.67 225.342 152.305 225.342C152.632 225.342 152.94 225.3 153.229 225.216V226.07C152.902 226.163 152.515 226.21 152.067 226.21ZM158.769 221.366C158.405 221.366 158.144 221.282 157.985 221.114C157.826 220.946 157.747 220.694 157.747 220.358V219.658H158.741V220.134C158.741 220.293 158.774 220.405 158.839 220.47C158.914 220.535 159.04 220.568 159.217 220.568H160.841V221.366H158.769ZM158.769 225.216C158.405 225.216 158.144 225.132 157.985 224.964C157.826 224.796 157.747 224.544 157.747 224.208V223.508H158.741V223.984C158.741 224.143 158.774 224.255 158.839 224.32C158.914 224.385 159.04 224.418 159.217 224.418H160.841V225.216H158.769ZM162.525 218.51H163.575V219.602C163.939 219.163 164.378 218.837 164.891 218.622C165.404 218.407 165.927 218.3 166.459 218.3C167.355 218.3 168.046 218.543 168.531 219.028C169.016 219.513 169.259 220.143 169.259 220.918V226H168.181V220.974C168.181 220.405 168.018 219.961 167.691 219.644C167.364 219.327 166.87 219.168 166.207 219.168C165.078 219.168 164.21 219.635 163.603 220.568V226H162.525V218.51ZM168.49 217.474C168.089 217.474 167.744 217.334 167.454 217.054C167.165 216.765 167.02 216.419 167.02 216.018C167.02 215.617 167.165 215.271 167.454 214.982C167.744 214.683 168.089 214.534 168.49 214.534C168.892 214.534 169.237 214.683 169.526 214.982C169.816 215.271 169.96 215.617 169.96 216.018C169.96 216.419 169.816 216.765 169.526 217.054C169.237 217.334 168.892 217.474 168.49 217.474ZM168.49 216.718C168.668 216.718 168.826 216.648 168.966 216.508C169.097 216.368 169.162 216.205 169.162 216.018C169.162 215.831 169.097 215.673 168.966 215.542C168.836 215.402 168.677 215.332 168.49 215.332C168.304 215.332 168.145 215.402 168.014 215.542C167.884 215.673 167.818 215.831 167.818 216.018C167.818 216.205 167.884 216.368 168.014 216.508C168.145 216.648 168.304 216.718 168.49 216.718ZM174.09 221.1C174.09 220.437 173.955 219.952 173.684 219.644C173.414 219.327 172.952 219.168 172.298 219.168C171.636 219.168 171.043 219.299 170.52 219.56V218.692C170.744 218.58 171.029 218.487 171.374 218.412C171.729 218.337 172.084 218.3 172.438 218.3C173.362 218.3 174.048 218.547 174.496 219.042C174.944 219.537 175.168 220.246 175.168 221.17V226H174.09V221.1ZM176.846 219.448H177.938L179.856 225.146C180.836 225.146 181.588 224.885 182.11 224.362C182.633 223.83 182.894 223.083 182.894 222.122C182.894 221.161 182.712 220.428 182.348 219.924C181.984 219.42 181.401 219.168 180.598 219.168C180.253 219.168 179.922 219.21 179.604 219.294V218.44C179.912 218.347 180.295 218.3 180.752 218.3C181.798 218.3 182.596 218.641 183.146 219.322C183.697 220.003 183.972 220.937 183.972 222.122C183.972 222.925 183.8 223.62 183.454 224.208C183.118 224.796 182.656 225.244 182.068 225.552C181.49 225.851 180.836 226 180.108 226H179.044L176.846 219.448ZM188.528 221.1C188.528 220.437 188.392 219.952 188.122 219.644C187.851 219.327 187.389 219.168 186.736 219.168C186.073 219.168 185.48 219.299 184.958 219.56V218.692C185.182 218.58 185.466 218.487 185.812 218.412C186.166 218.337 186.521 218.3 186.876 218.3C187.8 218.3 188.486 218.547 188.934 219.042C189.382 219.537 189.606 220.246 189.606 221.17V226H188.528V221.1ZM194.448 226.21C193.533 226.21 192.824 225.967 192.32 225.482C191.816 224.997 191.564 224.348 191.564 223.536V218.51H192.642V223.494C192.642 224.101 192.815 224.563 193.16 224.88C193.505 225.188 194.019 225.342 194.7 225.342C195.764 225.342 196.604 224.866 197.22 223.914V218.51H198.298V226H197.248V224.894C196.903 225.342 196.501 225.673 196.044 225.888C195.587 226.103 195.055 226.21 194.448 226.21ZM202.065 225.958C201.645 225.958 201.323 225.837 201.099 225.594C200.875 225.351 200.763 225.015 200.763 224.586V219.042C200.763 218.333 200.857 217.782 201.043 217.39C201.239 216.998 201.58 216.662 202.065 216.382H199.349V215.472H203.479V216.368C202.91 216.62 202.495 216.947 202.233 217.348C201.972 217.74 201.841 218.281 201.841 218.972V224.348C201.841 224.619 201.897 224.805 202.009 224.908C202.121 225.001 202.308 225.048 202.569 225.048H203.087V225.958H202.065ZM207.992 226.21C207.292 226.21 206.676 226.065 206.144 225.776C205.612 225.477 205.196 225.043 204.898 224.474C204.608 223.905 204.464 223.209 204.464 222.388C204.464 221.1 204.814 220.097 205.514 219.378C206.223 218.659 207.203 218.3 208.454 218.3C209.732 218.3 210.656 218.603 211.226 219.21C211.804 219.807 212.094 220.563 212.094 221.478V226H211.016V221.464C211.016 219.933 210.162 219.168 208.454 219.168C207.539 219.168 206.825 219.443 206.312 219.994C205.798 220.535 205.542 221.333 205.542 222.388C205.542 223.349 205.775 224.082 206.242 224.586C206.708 225.09 207.343 225.342 208.146 225.342C208.491 225.342 208.822 225.3 209.14 225.216V226.07C208.832 226.163 208.449 226.21 207.992 226.21ZM209.28 216.438C209.28 216.317 209.262 216.233 209.224 216.186C209.178 216.139 209.094 216.116 208.972 216.116H208.356V215.332H209.266C209.546 215.332 209.752 215.402 209.882 215.542C210.004 215.673 210.064 215.841 210.064 216.046V216.564H212.934V217.306H209.28V216.438ZM216.686 226.21C216.136 226.21 215.604 226.14 215.09 226C214.577 225.86 214.138 225.659 213.774 225.398V221.87H216.63V222.738H214.852V224.894C215.31 225.193 215.921 225.342 216.686 225.342C217.638 225.342 218.38 225.062 218.912 224.502C219.444 223.942 219.71 223.149 219.71 222.122C219.71 221.086 219.458 220.335 218.954 219.868C218.46 219.401 217.638 219.168 216.49 219.168C215.986 219.168 215.496 219.224 215.02 219.336C214.554 219.439 214.157 219.607 213.83 219.84V218.944C214.54 218.515 215.468 218.3 216.616 218.3C217.979 218.3 219.015 218.627 219.724 219.28C220.434 219.924 220.788 220.871 220.788 222.122C220.788 222.943 220.625 223.662 220.298 224.278C219.972 224.894 219.5 225.37 218.884 225.706C218.268 226.042 217.536 226.21 216.686 226.21ZM218.066 217.306C217.712 217.306 217.45 217.217 217.282 217.04C217.114 216.863 217.03 216.601 217.03 216.256V215.598H218.024V216.074C218.024 216.242 218.057 216.359 218.122 216.424C218.188 216.48 218.314 216.508 218.5 216.508H221.776V217.306H218.066ZM225.71 226.21C225.01 226.21 224.394 226.065 223.862 225.776C223.33 225.477 222.915 225.043 222.616 224.474C222.327 223.905 222.182 223.209 222.182 222.388C222.182 221.548 222.29 220.82 222.504 220.204C222.728 219.588 223.036 219.117 223.428 218.79C223.82 218.463 224.268 218.3 224.772 218.3C225.491 218.3 225.986 218.603 226.256 219.21C226.406 218.911 226.634 218.687 226.942 218.538C227.25 218.379 227.596 218.3 227.978 218.3C228.594 218.3 229.052 218.501 229.35 218.902C229.658 219.294 229.812 219.821 229.812 220.484V226H228.734V220.554C228.734 220.087 228.655 219.742 228.496 219.518C228.347 219.285 228.095 219.168 227.74 219.168C227.134 219.168 226.756 219.481 226.606 220.106H225.906C225.841 219.779 225.734 219.541 225.584 219.392C225.435 219.243 225.216 219.168 224.926 219.168C224.441 219.168 224.04 219.448 223.722 220.008C223.414 220.568 223.26 221.361 223.26 222.388C223.26 223.349 223.494 224.082 223.96 224.586C224.427 225.09 225.062 225.342 225.864 225.342C226.21 225.342 226.541 225.3 226.858 225.216V226.07C226.55 226.163 226.168 226.21 225.71 226.21ZM233.789 226C233.369 226 233.047 225.879 232.823 225.636C232.599 225.393 232.487 225.057 232.487 224.628V218.972C232.487 218.272 232.361 217.726 232.109 217.334C231.857 216.942 231.442 216.629 230.863 216.396V215.472H234.993V216.382H232.347C232.776 216.643 233.084 216.989 233.271 217.418C233.467 217.838 233.565 218.37 233.565 219.014V224.39C233.565 224.661 233.621 224.847 233.733 224.95C233.845 225.043 234.032 225.09 234.293 225.09H234.811V226H233.789ZM239.141 226.21C238.227 226.21 237.517 225.967 237.013 225.482C236.509 224.997 236.257 224.348 236.257 223.536V218.51H237.335V223.494C237.335 224.101 237.508 224.563 237.853 224.88C238.199 225.188 238.712 225.342 239.393 225.342C240.457 225.342 241.297 224.866 241.913 223.914V218.51H242.991V226H241.941V224.894C241.596 225.342 241.195 225.673 240.737 225.888C240.28 226.103 239.748 226.21 239.141 226.21ZM248.803 226.21C247.664 226.21 246.731 225.771 246.003 224.894V226H244.953V218.51H246.031V223.914C246.647 224.866 247.487 225.342 248.551 225.342C249.232 225.342 249.745 225.188 250.091 224.88C250.436 224.563 250.609 224.101 250.609 223.494V218.51H251.687V223.536C251.687 224.348 251.435 224.997 250.931 225.482C250.427 225.967 249.717 226.21 248.803 226.21ZM249.252 217.306C248.897 217.306 248.636 217.217 248.468 217.04C248.3 216.863 248.216 216.601 248.216 216.256V215.598H249.21V216.074C249.21 216.242 249.243 216.359 249.308 216.424C249.373 216.48 249.499 216.508 249.686 216.508H252.962V217.306H249.252ZM256.896 226.21C256.196 226.21 255.58 226.065 255.048 225.776C254.516 225.477 254.101 225.043 253.802 224.474C253.513 223.905 253.368 223.209 253.368 222.388C253.368 221.548 253.475 220.82 253.69 220.204C253.914 219.588 254.222 219.117 254.614 218.79C255.006 218.463 255.454 218.3 255.958 218.3C256.677 218.3 257.171 218.603 257.442 219.21C257.591 218.911 257.82 218.687 258.128 218.538C258.436 218.379 258.781 218.3 259.164 218.3C259.78 218.3 260.237 218.501 260.536 218.902C260.844 219.294 260.998 219.821 260.998 220.484V226H259.92V220.554C259.92 220.087 259.841 219.742 259.682 219.518C259.533 219.285 259.281 219.168 258.926 219.168C258.319 219.168 257.941 219.481 257.792 220.106H257.092C257.027 219.779 256.919 219.541 256.77 219.392C256.621 219.243 256.401 219.168 256.112 219.168C255.627 219.168 255.225 219.448 254.908 220.008C254.6 220.568 254.446 221.361 254.446 222.388C254.446 223.349 254.679 224.082 255.146 224.586C255.613 225.09 256.247 225.342 257.05 225.342C257.395 225.342 257.727 225.3 258.044 225.216V226.07C257.736 226.163 257.353 226.21 256.896 226.21ZM255.147 216.508H260.985V217.306H255.147V216.508Z" fill="#4E5256"/>
<rect x="28.5" y="264.5" width="326" height="43" rx="7.5" fill="white"/>
<rect x="28.5" y="264.5" width="326" height="43" rx="7.5" stroke="#D3D3D3"/>
<path d="M47.032 291.21C46.3693 291.21 45.786 291.093 45.282 290.86C44.778 290.627 44.386 290.3 44.106 289.88C43.8353 289.451 43.7 288.961 43.7 288.41V287.934C43.7 287.617 43.77 287.323 43.91 287.052C44.05 286.772 44.2413 286.469 44.484 286.142C44.6613 285.899 44.7873 285.703 44.862 285.554C44.946 285.405 44.988 285.265 44.988 285.134C44.988 284.957 44.9413 284.831 44.848 284.756C44.764 284.681 44.6193 284.644 44.414 284.644H43.63V283.51H45.1C45.5107 283.51 45.8327 283.631 46.066 283.874C46.3087 284.107 46.43 284.42 46.43 284.812C46.43 285.083 46.374 285.335 46.262 285.568C46.15 285.792 45.982 286.067 45.758 286.394C45.534 286.73 45.3707 287.001 45.268 287.206C45.1747 287.411 45.128 287.635 45.128 287.878V288.396C45.128 288.928 45.296 289.343 45.632 289.642C45.968 289.941 46.4347 290.09 47.032 290.09C47.6667 290.09 48.1613 289.917 48.516 289.572C48.8707 289.227 49.048 288.718 49.048 288.046C49.048 287.374 48.908 286.87 48.628 286.534C48.348 286.198 47.9373 286.03 47.396 286.03V285.26L48.894 283.3H50.434L48.852 285.386C49.4213 285.601 49.832 285.932 50.084 286.38C50.3453 286.819 50.476 287.374 50.476 288.046C50.476 288.69 50.3313 289.25 50.042 289.726C49.762 290.202 49.3607 290.571 48.838 290.832C48.3153 291.084 47.7133 291.21 47.032 291.21ZM44.2178 281.466H47.0318V279.94H48.0818V281.466H49.2158V279.94H50.2518V282.404H44.2178V281.466ZM48.9638 276.616H50.2518V278.478H48.9638V276.616ZM54.8578 291.21C54.2791 291.21 53.7191 291.14 53.1778 291C52.6364 290.869 52.1791 290.683 51.8058 290.44V286.716H54.9138V287.864H53.2338V289.726C53.6351 289.969 54.1764 290.09 54.8578 290.09C55.7538 290.09 56.4351 289.843 56.9018 289.348C57.3778 288.853 57.6158 288.135 57.6158 287.192C57.6158 286.249 57.3731 285.554 56.8878 285.106C56.4118 284.658 55.6278 284.434 54.5358 284.434C54.0411 284.434 53.5558 284.485 53.0798 284.588C52.6038 284.681 52.2024 284.835 51.8758 285.05V283.916C52.2398 283.711 52.6691 283.557 53.1638 283.454C53.6584 283.351 54.1904 283.3 54.7598 283.3C56.1598 283.3 57.2284 283.641 57.9658 284.322C58.7031 285.003 59.0718 285.96 59.0718 287.192C59.0718 288.433 58.7031 289.413 57.9658 290.132C57.2378 290.851 56.2018 291.21 54.8578 291.21ZM65.5187 281.214H67.0027L69.1867 288.648L71.3427 281.214H72.4627L74.6047 288.648L76.7887 281.214H78.2727L75.4167 291H74.0587L71.8887 283.608L69.7327 291H68.3747L65.5187 281.214ZM80.1462 282.964C79.9128 282.964 79.7168 282.885 79.5582 282.726C79.3995 282.567 79.3202 282.371 79.3202 282.138C79.3202 281.905 79.3995 281.709 79.5582 281.55C79.7168 281.391 79.9128 281.312 80.1462 281.312C80.3888 281.312 80.5895 281.391 80.7482 281.55C80.9162 281.709 81.0002 281.905 81.0002 282.138C81.0002 282.371 80.9162 282.567 80.7482 282.726C80.5895 282.885 80.3888 282.964 80.1462 282.964ZM79.4322 284.28H80.8742V291H79.4322V284.28ZM82.8202 281.214H89.2742V282.418H84.2482V285.54H88.0002V286.674H84.2482V291H82.8202V281.214ZM90.5311 281.214H91.9731V291H90.5311V281.214ZM100.772 293.436C100.1 292.615 99.587 291.681 99.2323 290.636C98.8776 289.591 98.7003 288.452 98.7003 287.22C98.7003 285.997 98.8776 284.863 99.2323 283.818C99.587 282.763 100.1 281.825 100.772 281.004H102.27C101.561 281.909 101.029 282.871 100.674 283.888C100.32 284.905 100.142 286.016 100.142 287.22C100.142 288.424 100.32 289.535 100.674 290.552C101.029 291.569 101.561 292.531 102.27 293.436H100.772ZM106.317 291.21C105.757 291.21 105.202 291.159 104.651 291.056C104.11 290.963 103.667 290.832 103.321 290.664V289.376C104.217 289.796 105.183 290.006 106.219 290.006C107.675 290.006 108.403 289.516 108.403 288.536C108.403 288.2 108.324 287.929 108.165 287.724C108.007 287.519 107.778 287.341 107.479 287.192C107.181 287.033 106.695 286.819 106.023 286.548C105.099 286.175 104.432 285.764 104.021 285.316C103.611 284.868 103.405 284.303 103.405 283.622C103.405 283.109 103.545 282.656 103.825 282.264C104.105 281.863 104.497 281.555 105.001 281.34C105.505 281.116 106.084 281.004 106.737 281.004C107.269 281.004 107.75 281.046 108.179 281.13C108.609 281.214 109.029 281.349 109.439 281.536V282.768C108.627 282.404 107.806 282.222 106.975 282.222C106.303 282.222 105.79 282.343 105.435 282.586C105.081 282.829 104.903 283.174 104.903 283.622C104.903 283.93 104.978 284.191 105.127 284.406C105.286 284.611 105.515 284.798 105.813 284.966C106.121 285.125 106.574 285.325 107.171 285.568C107.834 285.839 108.357 286.095 108.739 286.338C109.122 286.581 109.411 286.879 109.607 287.234C109.813 287.579 109.915 288.013 109.915 288.536C109.915 289.385 109.612 290.043 109.005 290.51C108.399 290.977 107.503 291.21 106.317 291.21ZM113.673 291.21C113.113 291.21 112.558 291.159 112.007 291.056C111.466 290.963 111.022 290.832 110.677 290.664V289.376C111.573 289.796 112.539 290.006 113.575 290.006C115.031 290.006 115.759 289.516 115.759 288.536C115.759 288.2 115.68 287.929 115.521 287.724C115.362 287.519 115.134 287.341 114.835 287.192C114.536 287.033 114.051 286.819 113.379 286.548C112.455 286.175 111.788 285.764 111.377 285.316C110.966 284.868 110.761 284.303 110.761 283.622C110.761 283.109 110.901 282.656 111.181 282.264C111.461 281.863 111.853 281.555 112.357 281.34C112.861 281.116 113.44 281.004 114.093 281.004C114.625 281.004 115.106 281.046 115.535 281.13C115.964 281.214 116.384 281.349 116.795 281.536V282.768C115.983 282.404 115.162 282.222 114.331 282.222C113.659 282.222 113.146 282.343 112.791 282.586C112.436 282.829 112.259 283.174 112.259 283.622C112.259 283.93 112.334 284.191 112.483 284.406C112.642 284.611 112.87 284.798 113.169 284.966C113.477 285.125 113.93 285.325 114.527 285.568C115.19 285.839 115.712 286.095 116.095 286.338C116.478 286.581 116.767 286.879 116.963 287.234C117.168 287.579 117.271 288.013 117.271 288.536C117.271 289.385 116.968 290.043 116.361 290.51C115.754 290.977 114.858 291.21 113.673 291.21ZM118.805 281.214H120.247V291H118.805V281.214ZM122.072 281.214H125.222C126.277 281.214 127.191 281.41 127.966 281.802C128.741 282.194 129.333 282.754 129.744 283.482C130.164 284.21 130.374 285.069 130.374 286.058C130.374 287.682 129.903 288.914 128.96 289.754C128.027 290.585 126.715 291 125.026 291H122.072V281.214ZM125.012 289.81C126.319 289.81 127.299 289.488 127.952 288.844C128.605 288.2 128.932 287.271 128.932 286.058C128.932 284.938 128.61 284.051 127.966 283.398C127.331 282.745 126.421 282.418 125.236 282.418H123.5V289.81H125.012ZM131.426 293.436C132.135 292.531 132.667 291.569 133.022 290.552C133.377 289.535 133.554 288.424 133.554 287.22C133.554 286.016 133.377 284.905 133.022 283.888C132.667 282.871 132.135 281.909 131.426 281.004H132.924C133.596 281.825 134.109 282.763 134.464 283.818C134.819 284.863 134.996 285.997 134.996 287.22C134.996 288.452 134.819 289.591 134.464 290.636C134.109 291.681 133.596 292.615 132.924 293.436H131.426Z" fill="#4E5256"/>
<rect x="28.5" y="334.5" width="326" height="43" rx="7.5" fill="white"/>
<rect x="28.5" y="334.5" width="326" height="43" rx="7.5" stroke="#D3D3D3"/>
<path d="M46.486 361.21C45.9727 361.21 45.45 361.149 44.918 361.028C44.386 360.916 43.9707 360.748 43.672 360.524V359.376C44.0733 359.619 44.512 359.805 44.988 359.936C45.4733 360.057 45.9353 360.118 46.374 360.118C46.99 360.118 47.4333 360.048 47.704 359.908C47.9747 359.759 48.11 359.507 48.11 359.152C48.11 358.909 48.0447 358.713 47.914 358.564C47.7833 358.415 47.5827 358.284 47.312 358.172C47.0507 358.06 46.6353 357.92 46.066 357.752C45.2447 357.5 44.6333 357.206 44.232 356.87C43.8307 356.525 43.63 356.049 43.63 355.442C43.63 354.751 43.896 354.224 44.428 353.86C44.96 353.487 45.688 353.3 46.612 353.3C47.088 353.3 47.5453 353.356 47.984 353.468C48.432 353.571 48.8007 353.711 49.09 353.888V355.064C48.7727 354.868 48.4087 354.714 47.998 354.602C47.5873 354.49 47.1673 354.434 46.738 354.434C45.618 354.434 45.058 354.77 45.058 355.442C45.058 355.694 45.1327 355.895 45.282 356.044C45.4407 356.193 45.646 356.319 45.898 356.422C46.1593 356.515 46.5933 356.651 47.2 356.828C47.7973 357.005 48.264 357.197 48.6 357.402C48.936 357.607 49.174 357.85 49.314 358.13C49.454 358.41 49.524 358.755 49.524 359.166C49.524 359.782 49.272 360.277 48.768 360.65C48.264 361.023 47.5033 361.21 46.486 361.21ZM51.0604 353.51H52.4884V356.814L56.1144 353.51H57.7804L55.7364 355.372C56.5017 355.568 57.0337 355.881 57.3324 356.31C57.6404 356.739 57.7944 357.313 57.7944 358.032V361H56.3664V358.116C56.3664 357.556 56.2497 357.131 56.0164 356.842C55.7924 356.553 55.4004 356.347 54.8404 356.226L52.4884 358.368V361H51.0604V353.51ZM55.167 352.404C54.7657 352.404 54.4763 352.306 54.299 352.11C54.1123 351.905 54.019 351.601 54.019 351.2V350.472H55.307V351.032C55.307 351.191 55.3397 351.298 55.405 351.354C55.461 351.41 55.573 351.438 55.741 351.438H59.045V352.404H55.167ZM62.055 361.21C61.2243 361.21 60.5617 361.005 60.067 360.594C59.5817 360.174 59.339 359.581 59.339 358.816C59.339 358.06 59.6097 357.458 60.151 357.01C60.7017 356.562 61.4437 356.338 62.377 356.338C63.301 356.338 64.1317 356.511 64.869 356.856V356.282C64.869 355.638 64.6917 355.171 64.337 354.882C63.9917 354.583 63.413 354.434 62.601 354.434C62.153 354.434 61.7143 354.476 61.285 354.56C60.8557 354.644 60.4823 354.761 60.165 354.91V353.79C60.4543 353.65 60.8463 353.533 61.341 353.44C61.845 353.347 62.335 353.3 62.811 353.3C63.651 353.3 64.351 353.454 64.911 353.762L65.625 352.95H67.207L65.793 354.532C66.129 355.008 66.297 355.582 66.297 356.254V361H64.869V357.99C64.1877 357.645 63.4083 357.472 62.531 357.472C61.9243 357.472 61.4763 357.584 61.187 357.808C60.907 358.032 60.767 358.368 60.767 358.816C60.767 359.665 61.313 360.09 62.405 360.09C62.741 360.09 63.035 360.043 63.287 359.95V361.056C62.951 361.159 62.5403 361.21 62.055 361.21ZM68.328 355.036C68.328 354.541 68.4586 354.163 68.72 353.902C68.9813 353.641 69.3546 353.51 69.84 353.51H70.946V354.714H70.442C70.19 354.714 70.008 354.77 69.896 354.882C69.7933 354.985 69.742 355.167 69.742 355.428V358.914L71.618 355.862H72.234L74.11 358.914V353.51H75.524V361H74.236L71.926 357.234L69.616 361H68.328V355.036ZM74.1317 350.066H75.5457V352.404H74.1317V350.066ZM79.9697 356.156C79.9697 355.559 79.8484 355.125 79.6057 354.854C79.3631 354.574 78.9337 354.434 78.3177 354.434C77.7204 354.434 77.1604 354.565 76.6377 354.826V353.706C76.8617 353.594 77.1511 353.501 77.5057 353.426C77.8697 353.342 78.2291 353.3 78.5837 353.3C79.5264 353.3 80.2311 353.557 80.6977 354.07C81.1644 354.574 81.3977 355.302 81.3977 356.254V361H79.9697V356.156ZM86.1146 361.21C85.2 361.21 84.486 360.953 83.9726 360.44C83.4686 359.927 83.2166 359.264 83.2166 358.452V353.51H84.6446V358.396C84.6446 358.956 84.7986 359.381 85.1066 359.67C85.424 359.95 85.886 360.09 86.4926 360.09C87.454 360.09 88.21 359.661 88.7606 358.802V353.51H90.1886V361H88.8026V359.992C88.1026 360.804 87.2066 361.21 86.1146 361.21ZM96.9093 351.214H98.3933L100.577 358.648L102.733 351.214H103.853L105.995 358.648L108.179 351.214H109.663L106.807 361H105.449L103.279 353.608L101.123 361H99.7653L96.9093 351.214ZM111.537 352.964C111.303 352.964 111.107 352.885 110.949 352.726C110.79 352.567 110.711 352.371 110.711 352.138C110.711 351.905 110.79 351.709 110.949 351.55C111.107 351.391 111.303 351.312 111.537 351.312C111.779 351.312 111.98 351.391 112.139 351.55C112.307 351.709 112.391 351.905 112.391 352.138C112.391 352.371 112.307 352.567 112.139 352.726C111.98 352.885 111.779 352.964 111.537 352.964ZM110.823 354.28H112.265V361H110.823V354.28ZM114.211 351.214H120.665V352.418H115.639V355.54H119.391V356.674H115.639V361H114.211V351.214ZM122.256 352.964C122.022 352.964 121.826 352.885 121.668 352.726C121.509 352.567 121.43 352.371 121.43 352.138C121.43 351.905 121.509 351.709 121.668 351.55C121.826 351.391 122.022 351.312 122.256 351.312C122.498 351.312 122.699 351.391 122.858 351.55C123.026 351.709 123.11 351.905 123.11 352.138C123.11 352.371 123.026 352.567 122.858 352.726C122.699 352.885 122.498 352.964 122.256 352.964ZM121.542 354.28H122.984V361H121.542V354.28Z" fill="#4E5256"/>
<path d="M318.5 359.6C319.58 359.6 320.497 359.25 321.253 358.55C322.009 357.85 322.386 357 322.386 356C322.386 355 322.009 354.15 321.253 353.45C320.497 352.75 319.58 352.4 318.5 352.4C317.42 352.4 316.503 352.75 315.747 353.45C314.991 354.15 314.614 355 314.614 356C314.614 357 314.991 357.85 315.747 358.55C316.503 359.25 317.42 359.6 318.5 359.6ZM318.5 358.16C317.852 358.16 317.302 357.95 316.848 357.53C316.395 357.11 316.168 356.6 316.168 356C316.168 355.4 316.395 354.89 316.848 354.47C317.302 354.05 317.852 353.84 318.5 353.84C319.148 353.84 319.698 354.05 320.152 354.47C320.605 354.89 320.832 355.4 320.832 356C320.832 356.6 320.605 357.11 320.152 357.53C319.698 357.95 319.148 358.16 318.5 358.16ZM318.5 362C316.398 362 314.484 361.457 312.757 360.37C311.03 359.283 309.777 357.827 309 356C309.777 354.173 311.03 352.717 312.757 351.63C314.484 350.543 316.398 350 318.5 350C320.602 350 322.516 350.543 324.243 351.63C325.97 352.717 327.223 354.173 328 356C327.223 357.827 325.97 359.283 324.243 360.37C322.516 361.457 320.602 362 318.5 362ZM318.5 360.4C320.127 360.4 321.62 360.003 322.98 359.21C324.34 358.417 325.38 357.347 326.1 356C325.38 354.653 324.34 353.583 322.98 352.79C321.62 351.997 320.127 351.6 318.5 351.6C316.873 351.6 315.38 351.997 314.02 352.79C312.66 353.583 311.62 354.653 310.9 356C311.62 357.347 312.66 358.417 314.02 359.21C315.38 360.003 316.873 360.4 318.5 360.4Z" fill="#4E5256"/>
<rect x="82" y="411" width="217" height="44" rx="22" fill="#16AD78"/>
<path d="M165.156 438C164.569 438 164.116 437.835 163.796 437.504C163.487 437.163 163.332 436.693 163.332 436.096V429.44H165.764V435.44C165.764 435.696 165.817 435.877 165.924 435.984C166.031 436.091 166.207 436.144 166.452 436.144H167.012V438H165.156ZM172.252 438.24C171.41 438.24 170.674 438.107 170.044 437.84C169.415 437.573 168.935 437.2 168.604 436.72C168.274 436.24 168.108 435.696 168.108 435.088V434.688C168.108 434.304 168.183 433.957 168.332 433.648C168.482 433.339 168.69 432.992 168.956 432.608C169.127 432.373 169.25 432.187 169.324 432.048C169.399 431.899 169.436 431.765 169.436 431.648C169.436 431.349 169.255 431.2 168.892 431.2H167.996V429.44H170.316C170.796 429.44 171.18 429.579 171.468 429.856C171.756 430.133 171.9 430.496 171.9 430.944C171.9 431.264 171.842 431.563 171.724 431.84C171.607 432.107 171.431 432.416 171.196 432.768C170.972 433.12 170.802 433.419 170.684 433.664C170.578 433.909 170.524 434.176 170.524 434.464V434.8C170.524 435.301 170.674 435.685 170.972 435.952C171.271 436.219 171.698 436.352 172.252 436.352C172.839 436.352 173.282 436.192 173.58 435.872C173.89 435.541 174.044 435.067 174.044 434.448C174.044 433.147 173.538 432.496 172.524 432.496V431.328L174.076 429.2H176.652L174.908 431.584C175.474 431.872 175.874 432.251 176.108 432.72C176.354 433.179 176.476 433.765 176.476 434.48C176.476 435.216 176.306 435.867 175.964 436.432C175.634 436.997 175.148 437.44 174.508 437.76C173.868 438.08 173.116 438.24 172.252 438.24ZM168.964 426.848H171.939V425.152H173.619V426.848H174.691V425.152H176.355V428.384H168.964V426.848ZM174.163 422.4H176.339V424.656H174.163V422.4ZM181.54 438.24C180.825 438.24 180.121 438.165 179.428 438.016C178.734 437.877 178.158 437.68 177.7 437.424V432.928H181.748V434.704H180.084V436.08C180.414 436.261 180.9 436.352 181.54 436.352C183.236 436.352 184.084 435.467 184.084 433.696C184.084 432.789 183.838 432.128 183.348 431.712C182.857 431.296 182.03 431.088 180.868 431.088C180.334 431.088 179.785 431.147 179.22 431.264C178.665 431.371 178.196 431.525 177.812 431.728V429.84C178.249 429.637 178.777 429.483 179.396 429.376C180.014 429.259 180.66 429.2 181.332 429.2C183.049 429.2 184.35 429.595 185.236 430.384C186.132 431.163 186.58 432.267 186.58 433.696C186.58 435.104 186.142 436.213 185.267 437.024C184.393 437.835 183.15 438.24 181.54 438.24ZM193.11 438.24C192.576 438.24 192.059 438.139 191.558 437.936C191.056 437.733 190.619 437.435 190.246 437.04V438H187.926V429.44H190.358V435.2C190.592 435.595 190.875 435.888 191.206 436.08C191.536 436.261 191.926 436.352 192.374 436.352C193.472 436.352 194.022 435.835 194.022 434.8V429.44H196.438V434.944C196.438 435.563 196.31 436.123 196.054 436.624C195.798 437.125 195.419 437.52 194.918 437.808C194.416 438.096 193.814 438.24 193.11 438.24ZM202.081 438.24C200.759 438.24 199.713 437.877 198.945 437.152C198.177 436.416 197.793 435.339 197.793 433.92C197.793 432.949 197.932 432.112 198.209 431.408C198.487 430.693 198.876 430.149 199.377 429.776C199.889 429.392 200.476 429.2 201.137 429.2C201.532 429.2 201.873 429.275 202.161 429.424C202.46 429.573 202.7 429.781 202.881 430.048C203.084 429.76 203.361 429.547 203.713 429.408C204.076 429.269 204.481 429.2 204.929 429.2C205.74 429.2 206.369 429.451 206.817 429.952C207.265 430.443 207.489 431.093 207.489 431.904V438H205.073V432.144C205.073 431.781 205.015 431.515 204.897 431.344C204.791 431.173 204.604 431.088 204.337 431.088C203.868 431.088 203.575 431.376 203.457 431.952H202.321C202.247 431.376 201.996 431.088 201.569 431.088C201.185 431.088 200.876 431.328 200.641 431.808C200.407 432.288 200.289 432.992 200.289 433.92C200.289 434.752 200.465 435.365 200.817 435.76C201.18 436.155 201.751 436.352 202.529 436.352C202.935 436.352 203.297 436.293 203.617 436.176V438.032C203.201 438.171 202.689 438.24 202.081 438.24ZM205.08 425.536H207.512V428.384H205.08V425.536ZM212.696 438.24C211.981 438.24 211.277 438.165 210.584 438.016C209.89 437.877 209.314 437.68 208.856 437.424V432.928H212.904V434.704H211.24V436.08C211.57 436.261 212.056 436.352 212.696 436.352C214.392 436.352 215.24 435.467 215.24 433.696C215.24 432.789 214.994 432.128 214.504 431.712C214.013 431.296 213.186 431.088 212.024 431.088C211.49 431.088 210.941 431.147 210.376 431.264C209.821 431.371 209.352 431.525 208.968 431.728V429.84C209.405 429.637 209.933 429.483 210.552 429.376C211.17 429.259 211.816 429.2 212.488 429.2C214.205 429.2 215.506 429.595 216.392 430.384C217.288 431.163 217.736 432.267 217.736 433.696C217.736 435.104 217.298 436.213 216.424 437.024C215.549 437.835 214.306 438.24 212.696 438.24Z" fill="white"/>
</svg>
