<svg width="390" height="849" viewBox="0 0 390 849" fill="none" xmlns="http://www.w3.org/2000/svg">
<rect y="5" width="390" height="844" rx="32" fill="white"/>
<path d="M54.0688 36V26.1304H53.9194L50.9395 28.2305V26.2217L54.0688 24.022H56.2021V36H54.0688ZM63.4219 36.2988C62.4701 36.2988 61.6538 36.0443 60.9731 35.5352C60.298 35.026 59.7778 34.3011 59.4126 33.3604C59.0474 32.4196 58.8647 31.3045 58.8647 30.0151V29.9985C58.8647 28.7091 59.0474 27.5968 59.4126 26.6616C59.7778 25.7209 60.298 24.9959 60.9731 24.4868C61.6538 23.9777 62.4701 23.7231 63.4219 23.7231C64.3737 23.7231 65.1899 23.9777 65.8706 24.4868C66.5513 24.9959 67.0742 25.7209 67.4395 26.6616C67.8047 27.5968 67.9873 28.7091 67.9873 29.9985V30.0151C67.9873 31.3045 67.8047 32.4196 67.4395 33.3604C67.0742 34.3011 66.5513 35.026 65.8706 35.5352C65.1899 36.0443 64.3737 36.2988 63.4219 36.2988ZM63.4219 34.564C63.931 34.564 64.3654 34.3813 64.7251 34.0161C65.0848 33.6509 65.3587 33.1307 65.5469 32.4556C65.7406 31.7749 65.8374 30.9614 65.8374 30.0151V29.9985C65.8374 29.0522 65.7406 28.2415 65.5469 27.5664C65.3587 26.8857 65.0848 26.3656 64.7251 26.0059C64.3654 25.6406 63.931 25.458 63.4219 25.458C62.9128 25.458 62.4784 25.6406 62.1187 26.0059C61.7645 26.3656 61.4906 26.8857 61.2969 27.5664C61.1087 28.2415 61.0146 29.0522 61.0146 29.9985V30.0151C61.0146 30.9614 61.1087 31.7749 61.2969 32.4556C61.4906 33.1307 61.7645 33.6509 62.1187 34.0161C62.4784 34.3813 62.9128 34.564 63.4219 34.564ZM71.2974 34.3896C70.9211 34.3896 70.6056 34.2651 70.3511 34.0161C70.1021 33.7616 69.9775 33.4517 69.9775 33.0864C69.9775 32.7157 70.1021 32.4058 70.3511 32.1567C70.6056 31.9022 70.9211 31.7749 71.2974 31.7749C71.6792 31.7749 71.9946 31.9022 72.2437 32.1567C72.4927 32.4058 72.6172 32.7157 72.6172 33.0864C72.6172 33.4517 72.4927 33.7616 72.2437 34.0161C71.9946 34.2651 71.6792 34.3896 71.2974 34.3896ZM71.2974 28.2305C70.9211 28.2305 70.6056 28.106 70.3511 27.8569C70.1021 27.6024 69.9775 27.2925 69.9775 26.9272C69.9775 26.5565 70.1021 26.2466 70.3511 25.9976C70.6056 25.743 70.9211 25.6157 71.2974 25.6157C71.6792 25.6157 71.9946 25.743 72.2437 25.9976C72.4927 26.2466 72.6172 26.5565 72.6172 26.9272C72.6172 27.2925 72.4927 27.6024 72.2437 27.8569C71.9946 28.106 71.6792 28.2305 71.2974 28.2305ZM79.1562 36.2988C78.2044 36.2988 77.3882 36.0443 76.7075 35.5352C76.0324 35.026 75.5122 34.3011 75.147 33.3604C74.7817 32.4196 74.5991 31.3045 74.5991 30.0151V29.9985C74.5991 28.7091 74.7817 27.5968 75.147 26.6616C75.5122 25.7209 76.0324 24.9959 76.7075 24.4868C77.3882 23.9777 78.2044 23.7231 79.1562 23.7231C80.1081 23.7231 80.9243 23.9777 81.605 24.4868C82.2856 24.9959 82.8086 25.7209 83.1738 26.6616C83.5391 27.5968 83.7217 28.7091 83.7217 29.9985V30.0151C83.7217 31.3045 83.5391 32.4196 83.1738 33.3604C82.8086 34.3011 82.2856 35.026 81.605 35.5352C80.9243 36.0443 80.1081 36.2988 79.1562 36.2988ZM79.1562 34.564C79.6654 34.564 80.0998 34.3813 80.4595 34.0161C80.8192 33.6509 81.0931 33.1307 81.2812 32.4556C81.4749 31.7749 81.5718 30.9614 81.5718 30.0151V29.9985C81.5718 29.0522 81.4749 28.2415 81.2812 27.5664C81.0931 26.8857 80.8192 26.3656 80.4595 26.0059C80.0998 25.6406 79.6654 25.458 79.1562 25.458C78.6471 25.458 78.2127 25.6406 77.853 26.0059C77.4989 26.3656 77.2249 26.8857 77.0312 27.5664C76.8431 28.2415 76.749 29.0522 76.749 29.9985V30.0151C76.749 30.9614 76.8431 31.7749 77.0312 32.4556C77.2249 33.1307 77.4989 33.6509 77.853 34.0161C78.2127 34.3813 78.6471 34.564 79.1562 34.564ZM89.9619 36.2988C89.0101 36.2988 88.1938 36.0443 87.5132 35.5352C86.8381 35.026 86.3179 34.3011 85.9526 33.3604C85.5874 32.4196 85.4048 31.3045 85.4048 30.0151V29.9985C85.4048 28.7091 85.5874 27.5968 85.9526 26.6616C86.3179 25.7209 86.8381 24.9959 87.5132 24.4868C88.1938 23.9777 89.0101 23.7231 89.9619 23.7231C90.9137 23.7231 91.73 23.9777 92.4106 24.4868C93.0913 24.9959 93.6143 25.7209 93.9795 26.6616C94.3447 27.5968 94.5273 28.7091 94.5273 29.9985V30.0151C94.5273 31.3045 94.3447 32.4196 93.9795 33.3604C93.6143 34.3011 93.0913 35.026 92.4106 35.5352C91.73 36.0443 90.9137 36.2988 89.9619 36.2988ZM89.9619 34.564C90.471 34.564 90.9054 34.3813 91.2651 34.0161C91.6248 33.6509 91.8988 33.1307 92.0869 32.4556C92.2806 31.7749 92.3774 30.9614 92.3774 30.0151V29.9985C92.3774 29.0522 92.2806 28.2415 92.0869 27.5664C91.8988 26.8857 91.6248 26.3656 91.2651 26.0059C90.9054 25.6406 90.471 25.458 89.9619 25.458C89.4528 25.458 89.0184 25.6406 88.6587 26.0059C88.3045 26.3656 88.0306 26.8857 87.8369 27.5664C87.6488 28.2415 87.5547 29.0522 87.5547 29.9985V30.0151C87.5547 30.9614 87.6488 31.7749 87.8369 32.4556C88.0306 33.1307 88.3045 33.6509 88.6587 34.0161C89.0184 34.3813 89.4528 34.564 89.9619 34.564Z" fill="black"/>
<path d="M288.333 31C288.977 31 289.5 31.5037 289.5 32.125V34.375C289.5 34.9963 288.977 35.5 288.333 35.5H287.167C286.523 35.5 286 34.9963 286 34.375V32.125C286 31.5037 286.523 31 287.167 31H288.333ZM293.823 28.75C294.468 28.75 294.99 29.2537 294.99 29.875V34.375C294.99 34.9963 294.468 35.5 293.823 35.5H292.657C292.013 35.5 291.49 34.9963 291.49 34.375V29.875C291.49 29.2537 292.013 28.75 292.657 28.75H293.823ZM299.313 26.125C299.958 26.125 300.48 26.6287 300.48 27.25V34.375C300.48 34.9963 299.958 35.5 299.313 35.5H298.147C297.503 35.5 296.98 34.9963 296.98 34.375V27.25C296.981 26.6287 297.503 26.125 298.147 26.125H299.313ZM304.804 23.5C305.448 23.5 305.971 24.0037 305.971 24.625V34.375C305.971 34.9963 305.448 35.5 304.804 35.5H303.638C302.993 35.5 302.471 34.9963 302.471 34.375V24.625C302.471 24.0037 302.993 23.5 303.638 23.5H304.804Z" fill="black"/>
<path d="M318.512 32.8262C319.932 31.5964 322.011 31.5964 323.431 32.8262C323.502 32.8924 323.544 32.9855 323.546 33.084C323.548 33.1826 323.51 33.2777 323.441 33.3467L321.218 35.6446C321.153 35.7121 321.063 35.7501 320.971 35.7501C320.878 35.7499 320.79 35.7119 320.725 35.6446L318.501 33.3467C318.432 33.2776 318.394 33.1826 318.396 33.084C318.399 32.9855 318.44 32.8923 318.512 32.8262ZM315.545 29.7608C318.604 26.8467 323.341 26.8467 326.4 29.7608C326.469 29.829 326.509 29.9225 326.51 30.0206C326.511 30.1188 326.473 30.2135 326.405 30.2833L325.12 31.6133C324.988 31.7491 324.774 31.7524 324.638 31.6202C323.633 30.6886 322.326 30.1728 320.971 30.1729C319.617 30.1736 318.311 30.6895 317.308 31.6202C317.172 31.7524 316.958 31.7491 316.825 31.6133L315.54 30.2833C315.472 30.2136 315.435 30.1189 315.436 30.0206C315.437 29.9224 315.476 29.829 315.545 29.7608ZM312.578 26.7032C317.27 22.0989 324.671 22.099 329.363 26.7032C329.431 26.7716 329.47 26.8654 329.471 26.963C329.471 27.0605 329.433 27.1545 329.366 27.2237L328.08 28.5538C327.947 28.6901 327.732 28.691 327.598 28.5567C325.81 26.8164 323.437 25.8459 320.971 25.8458C318.504 25.8459 316.131 26.8163 314.344 28.5567C314.209 28.6913 313.994 28.6904 313.861 28.5538L312.574 27.2237C312.507 27.1545 312.47 27.0605 312.471 26.963C312.471 26.8654 312.51 26.7715 312.578 26.7032Z" fill="black"/>
<rect opacity="0.4" x="336.471" y="23.5" width="24" height="12" rx="3.5" stroke="black"/>
<path opacity="0.5" d="M361.971 27.5V31.5C362.777 31.1612 363.301 30.3731 363.301 29.5C363.301 28.6269 362.777 27.8388 361.971 27.5Z" fill="black"/>
<rect x="337.971" y="25" width="17" height="9" rx="2" fill="black"/>
<path d="M76.675 203.375C74.5917 203.375 72.925 203 71.675 202.25C70.425 201.483 69.8 200.392 69.8 198.975C69.8 198.325 69.975 197.742 70.325 197.225C70.6917 196.692 71.175 196.308 71.775 196.075C71.225 195.792 70.775 195.383 70.425 194.85C70.0917 194.317 69.925 193.733 69.925 193.1C69.925 191.933 70.3333 191 71.15 190.3C71.9833 189.6 73.1833 189.25 74.75 189.25C75.2333 189.25 75.7083 189.283 76.175 189.35C76.6583 189.417 77.025 189.492 77.275 189.575V192.425C77.0417 192.325 76.7583 192.242 76.425 192.175C76.1083 192.108 75.8167 192.075 75.55 192.075C74.3833 192.075 73.8 192.508 73.8 193.375C73.8 193.825 73.9417 194.167 74.225 194.4C74.525 194.617 74.9833 194.725 75.6 194.725H77.275V197.4H75.6C74.3333 197.4 73.7 197.9 73.7 198.9C73.7 199.433 73.95 199.85 74.45 200.15C74.9667 200.433 75.7083 200.575 76.675 200.575C77.8417 200.575 78.6917 200.342 79.225 199.875C79.775 199.392 80.05 198.675 80.05 197.725V189.6H83.85V197.7C83.85 198.65 83.6083 199.558 83.125 200.425C82.6417 201.275 81.8667 201.983 80.8 202.55C79.7333 203.1 78.3583 203.375 76.675 203.375ZM72.2621 185.575H83.8371V187.975H72.2621V185.575ZM91.6621 203.375C90.5788 203.375 89.6454 203.15 88.8621 202.7C88.0788 202.25 87.4788 201.633 87.0621 200.85C86.6621 200.067 86.4621 199.192 86.4621 198.225V189.625H90.2621V198C90.2621 199.617 91.1204 200.425 92.8371 200.425C93.5371 200.425 94.1371 200.283 94.6371 200C95.1538 199.7 95.6038 199.242 95.9871 198.625V189.625H99.7621V203H96.1621V201.5C95.5788 202.117 94.8871 202.583 94.0871 202.9C93.3038 203.217 92.4954 203.375 91.6621 203.375ZM108.58 203.375C106.513 203.375 104.88 202.8 103.68 201.65C102.48 200.5 101.88 198.817 101.88 196.6C101.88 194.283 102.572 192.483 103.955 191.2C105.338 189.9 107.247 189.25 109.68 189.25C112.197 189.25 114.047 189.833 115.23 191C116.43 192.167 117.03 193.7 117.03 195.6V203H113.255V195.575C113.255 194.475 112.972 193.642 112.405 193.075C111.855 192.492 110.947 192.2 109.68 192.2C108.48 192.2 107.53 192.575 106.83 193.325C106.13 194.075 105.78 195.167 105.78 196.6C105.78 197.917 106.063 198.883 106.63 199.5C107.213 200.117 108.097 200.425 109.28 200.425C109.913 200.425 110.48 200.333 110.98 200.15V203.05C110.33 203.267 109.53 203.375 108.58 203.375ZM105.49 185.575H113.64V182.925H117.065V187.975H105.49V185.575ZM125.865 203.375C123.799 203.375 122.165 202.808 120.965 201.675C119.765 200.525 119.165 198.842 119.165 196.625C119.165 195.108 119.382 193.8 119.815 192.7C120.249 191.583 120.857 190.733 121.64 190.15C122.44 189.55 123.357 189.25 124.39 189.25C125.007 189.25 125.54 189.367 125.99 189.6C126.457 189.833 126.832 190.158 127.115 190.575C127.432 190.125 127.865 189.792 128.415 189.575C128.982 189.358 129.615 189.25 130.315 189.25C131.582 189.25 132.565 189.642 133.265 190.425C133.965 191.192 134.315 192.208 134.315 193.475V203H130.54V193.85C130.54 193.283 130.449 192.867 130.265 192.6C130.099 192.333 129.807 192.2 129.39 192.2C128.657 192.2 128.199 192.65 128.015 193.55H126.24C126.124 192.65 125.732 192.2 125.065 192.2C124.465 192.2 123.982 192.575 123.615 193.325C123.249 194.075 123.065 195.175 123.065 196.625C123.065 197.925 123.34 198.883 123.89 199.5C124.457 200.117 125.349 200.425 126.565 200.425C127.199 200.425 127.765 200.333 128.265 200.15V203.05C127.615 203.267 126.815 203.375 125.865 203.375ZM128.225 186.375C128.225 186.192 128.192 186.067 128.125 186C128.042 185.917 127.909 185.875 127.725 185.875H126.55V183.3H128.9C129.517 183.3 129.967 183.442 130.25 183.725C130.517 184.008 130.65 184.367 130.65 184.8V185.55H135.675V187.975H128.225V186.375ZM142.45 203.375C141.334 203.375 140.234 203.258 139.15 203.025C138.067 202.808 137.167 202.5 136.45 202.1V195.075H142.775V197.85H140.175V200C140.692 200.283 141.45 200.425 142.45 200.425C145.1 200.425 146.425 199.042 146.425 196.275C146.425 194.858 146.042 193.825 145.275 193.175C144.509 192.525 143.217 192.2 141.4 192.2C140.567 192.2 139.709 192.292 138.825 192.475C137.959 192.642 137.225 192.883 136.625 193.2V190.25C137.309 189.933 138.134 189.692 139.1 189.525C140.067 189.342 141.075 189.25 142.125 189.25C144.809 189.25 146.842 189.867 148.225 191.1C149.625 192.317 150.325 194.042 150.325 196.275C150.325 198.475 149.642 200.208 148.275 201.475C146.909 202.742 144.967 203.375 142.45 203.375ZM157.629 203.375C156.546 203.375 155.612 203.15 154.829 202.7C154.046 202.25 153.446 201.633 153.029 200.85C152.629 200.067 152.429 199.192 152.429 198.225V189.625H156.229V198C156.229 199.617 157.087 200.425 158.804 200.425C159.504 200.425 160.104 200.283 160.604 200C161.121 199.7 161.571 199.242 161.954 198.625V189.625H165.729V203H162.129V201.5C161.546 202.117 160.854 202.583 160.054 202.9C159.271 203.217 158.462 203.375 157.629 203.375ZM173.347 203.375C172.364 203.375 171.364 203.275 170.347 203.075C169.347 202.892 168.555 202.608 167.972 202.225V199.325C168.705 199.758 169.522 200.092 170.422 200.325C171.339 200.558 172.164 200.675 172.897 200.675C173.78 200.675 174.422 200.592 174.822 200.425C175.239 200.242 175.447 199.925 175.447 199.475C175.447 199.075 175.247 198.767 174.847 198.55C174.464 198.333 173.739 198.058 172.672 197.725L172.047 197.525C170.614 197.075 169.555 196.533 168.872 195.9C168.189 195.267 167.847 194.4 167.847 193.3C167.847 192.017 168.364 191.025 169.397 190.325C170.43 189.608 171.822 189.25 173.572 189.25C174.522 189.25 175.439 189.35 176.322 189.55C177.205 189.75 177.914 190.008 178.447 190.325V193.3C177.914 192.933 177.247 192.642 176.447 192.425C175.664 192.192 174.889 192.075 174.122 192.075C172.505 192.075 171.697 192.483 171.697 193.3C171.697 193.7 171.889 194.008 172.272 194.225C172.655 194.442 173.339 194.7 174.322 195L175.222 195.275C176.272 195.608 177.089 195.975 177.672 196.375C178.272 196.775 178.689 197.225 178.922 197.725C179.155 198.225 179.272 198.833 179.272 199.55C179.272 200.7 178.772 201.625 177.772 202.325C176.789 203.025 175.314 203.375 173.347 203.375ZM173.609 187.975C172.009 187.975 171.209 187.167 171.209 185.55V183.725H174.609V184.95C174.609 185.183 174.659 185.35 174.759 185.45C174.842 185.533 175.009 185.575 175.259 185.575H180.959V187.975H173.609ZM188.284 203.375C186.901 203.375 185.692 203.133 184.659 202.65C183.626 202.15 182.826 201.467 182.259 200.6C181.692 199.733 181.409 198.75 181.409 197.65V189.625H185.209V197.4C185.209 198.367 185.459 199.117 185.959 199.65C186.476 200.167 187.251 200.425 188.284 200.425C189.317 200.425 190.084 200.167 190.584 199.65C191.084 199.117 191.334 198.367 191.334 197.4V189.625H195.134V197.65C195.134 198.75 194.851 199.733 194.284 200.6C193.717 201.467 192.917 202.15 191.884 202.65C190.851 203.133 189.651 203.375 188.284 203.375ZM202.242 203.375C200.709 203.375 199.484 202.992 198.567 202.225C197.667 201.458 197.217 200.375 197.217 198.975C197.217 197.575 197.709 196.475 198.692 195.675C199.692 194.875 201.059 194.475 202.792 194.475C204.409 194.475 205.792 194.742 206.942 195.275V194.75C206.942 193.85 206.642 193.183 206.042 192.75C205.459 192.317 204.509 192.1 203.192 192.1C202.375 192.1 201.575 192.183 200.792 192.35C200.009 192.517 199.309 192.75 198.692 193.05V190.2C199.242 189.933 200 189.708 200.967 189.525C201.934 189.342 202.909 189.25 203.892 189.25C205.009 189.25 206.05 189.417 207.017 189.75L207.992 188.625H212.117L209.642 191.5C210.359 192.317 210.717 193.392 210.717 194.725V203H206.942V198.025C205.975 197.525 204.842 197.275 203.542 197.275C202.692 197.275 202.067 197.417 201.667 197.7C201.284 197.983 201.092 198.425 201.092 199.025C201.092 199.575 201.267 199.992 201.617 200.275C201.984 200.542 202.559 200.675 203.342 200.675C203.892 200.675 204.359 200.592 204.742 200.425V203.05C204.092 203.267 203.259 203.375 202.242 203.375ZM207.409 210C206.176 210 205.226 209.758 204.559 209.275C203.876 208.792 203.534 208.15 203.534 207.35V206.9C203.534 206.683 203.501 206.533 203.434 206.45C203.351 206.367 203.209 206.325 203.009 206.325H202.184V204.175H205.009C205.509 204.175 205.859 204.283 206.059 204.5C206.243 204.733 206.334 205.092 206.334 205.575V206.95C206.334 207.55 206.651 207.85 207.284 207.85C207.901 207.85 208.209 207.55 208.209 206.95V204.175H211.009V207.25C211.009 208.05 210.701 208.708 210.084 209.225C209.451 209.742 208.559 210 207.409 210ZM207.259 183.525H211.059V187.975H207.259V183.525ZM222.4 185.525H234.525V188.725H226.2V192.8H232.325V195.725H226.2V203H222.4V185.525ZM238.105 203.375C236.638 203.375 235.438 203.008 234.505 202.275C233.588 201.525 233.13 200.508 233.13 199.225C233.13 197.892 233.572 196.858 234.455 196.125C235.338 195.375 236.588 195 238.205 195C238.922 195 239.605 195.075 240.255 195.225C240.905 195.375 241.48 195.583 241.98 195.85V195.55C241.98 194.8 241.713 194.25 241.18 193.9C240.647 193.55 239.83 193.375 238.73 193.375C237.263 193.375 235.913 193.65 234.68 194.2V191.45C235.213 191.217 235.905 191.025 236.755 190.875C237.605 190.708 238.455 190.625 239.305 190.625C241.472 190.625 243.088 191.075 244.155 191.975C245.222 192.858 245.755 194.1 245.755 195.7V203H242.205V201.9C241.188 202.883 239.822 203.375 238.105 203.375ZM239.13 200.875C239.747 200.875 240.305 200.758 240.805 200.525C241.305 200.292 241.697 199.967 241.98 199.55V198.35C241.13 197.783 240.197 197.5 239.18 197.5C238.48 197.5 237.938 197.65 237.555 197.95C237.188 198.233 237.005 198.658 237.005 199.225C237.005 199.758 237.188 200.167 237.555 200.45C237.922 200.733 238.447 200.875 239.13 200.875ZM248.254 184.525H252.029V203H248.254V184.525ZM254.651 184.525H258.426V203H254.651V184.525ZM269.787 185.525H273.587V192.525H281.212V185.525H285.012V203H281.212V195.675H273.587V203H269.787V185.525ZM294.51 203.375C292.21 203.375 290.401 202.825 289.085 201.725C287.768 200.608 287.11 199.05 287.11 197.05C287.11 195.067 287.693 193.5 288.86 192.35C290.043 191.2 291.726 190.625 293.91 190.625C295.343 190.625 296.56 190.892 297.56 191.425C298.56 191.958 299.318 192.7 299.835 193.65C300.351 194.583 300.61 195.642 300.61 196.825V198.35H290.71C290.976 199.883 292.41 200.65 295.01 200.65C295.776 200.65 296.568 200.583 297.385 200.45C298.201 200.317 298.91 200.133 299.51 199.9V202.55C298.926 202.8 298.176 203 297.26 203.15C296.343 203.3 295.426 203.375 294.51 203.375ZM297.035 195.9C296.985 195.1 296.685 194.483 296.135 194.05C295.585 193.6 294.826 193.375 293.86 193.375C292.91 193.375 292.16 193.6 291.61 194.05C291.06 194.5 290.76 195.117 290.71 195.9H297.035ZM302.697 184.525H306.472V203H302.697V184.525ZM309.094 191H312.744V192.325C313.961 191.192 315.461 190.625 317.244 190.625C318.494 190.625 319.594 190.892 320.544 191.425C321.511 191.942 322.261 192.683 322.794 193.65C323.327 194.6 323.594 195.708 323.594 196.975C323.594 198.225 323.327 199.333 322.794 200.3C322.261 201.267 321.511 202.025 320.544 202.575C319.594 203.108 318.494 203.375 317.244 203.375C316.394 203.375 315.586 203.25 314.819 203C314.052 202.75 313.402 202.392 312.869 201.925V208.475H309.094V191ZM316.294 200.425C317.311 200.425 318.136 200.108 318.769 199.475C319.419 198.842 319.744 198.008 319.744 196.975C319.744 195.942 319.419 195.117 318.769 194.5C318.136 193.883 317.311 193.575 316.294 193.575C315.511 193.575 314.811 193.783 314.194 194.2C313.577 194.617 313.136 195.167 312.869 195.85V198.125C313.119 198.825 313.552 199.383 314.169 199.8C314.802 200.217 315.511 200.425 316.294 200.425Z" fill="url(#paint0_linear_242_7245)"/>
<path d="M261 190.7C261 192.112 262.206 192.865 263.089 193.538C263.4 193.776 263.7 194 264 194C264.3 194 264.6 193.776 264.911 193.538C265.794 192.865 267 192.112 267 190.7C267 189.288 265.35 188.286 264 189.644C262.65 188.286 261 189.287 261 190.7Z" fill="#84A36C"/>
<path d="M264 198.375L262.688 198.972V200.284L264 201L265.312 200.284V198.972L264 198.375ZM264 198.375C262.125 198.375 261.085 195.458 261 194M264 198.375C265.875 198.375 267 195.537 267 194" stroke="#84A36C" stroke-width="0.75" stroke-linecap="round" stroke-linejoin="round"/>
<path d="M0 759H390V817C390 834.673 375.673 849 358 849H32C14.3269 849 0 834.673 0 817V759Z" fill="white"/>
<line y1="758.75" x2="390" y2="758.75" stroke="#5F6368" stroke-opacity="0.4" stroke-width="0.5"/>
<path d="M151 759H239C239 761.209 237.209 763 235 763H155C152.791 763 151 761.209 151 759Z" fill="#2976C3"/>
<path fill-rule="evenodd" clip-rule="evenodd" d="M121 838.5C121 837.119 122.119 836 123.5 836H266.5C267.881 836 269 837.119 269 838.5C269 839.881 267.881 841 266.5 841H123.5C122.119 841 121 839.881 121 838.5Z" fill="#090A0A"/>
<path d="M186.5 788.75H190.25V781.25H197.75V788.75H201.5V777.5L194 771.875L186.5 777.5V788.75ZM184 791.25V776.25L189 772.5L194 768.75L204 776.25V791.25H195.25V783.75H192.75V791.25H184Z" fill="#2976C3"/>
<path d="M186.5 788.75H190.25V781.25H197.75V788.75H201.5V777.5L194 771.875L186.5 777.5V788.75Z" fill="#2976C3"/>
<path d="M172.845 802.045H174.171V805.113L177.538 802.045H179.085L177.187 803.774C177.898 803.956 178.392 804.246 178.669 804.645C178.955 805.044 179.098 805.577 179.098 806.244V809H177.772V806.322C177.772 805.802 177.664 805.408 177.447 805.139C177.239 804.87 176.875 804.68 176.355 804.567L174.171 806.556V809H172.845V802.045ZM183.483 809.195C182.634 809.195 181.971 808.957 181.494 808.48C181.026 808.003 180.792 807.388 180.792 806.634V802.045H182.118V806.582C182.118 807.102 182.261 807.496 182.547 807.765C182.842 808.025 183.271 808.155 183.834 808.155C184.727 808.155 185.429 807.756 185.94 806.959V802.045H187.266V809H185.979V808.064C185.329 808.818 184.497 809.195 183.483 809.195ZM184.47 800.199C184.47 800.095 184.453 800.021 184.418 799.978C184.375 799.935 184.301 799.913 184.197 799.913H183.612V798.977H184.587C184.865 798.977 185.068 799.046 185.198 799.185C185.32 799.315 185.38 799.48 185.38 799.679V800.134H188.045V801.018H184.47V800.199ZM191.399 804.502C191.399 803.947 191.287 803.544 191.061 803.293C190.836 803.033 190.437 802.903 189.865 802.903C189.311 802.903 188.791 803.024 188.305 803.267V802.227C188.513 802.123 188.782 802.036 189.111 801.967C189.449 801.889 189.783 801.85 190.112 801.85C190.988 801.85 191.642 802.088 192.075 802.565C192.509 803.033 192.725 803.709 192.725 804.593V809H191.399V804.502ZM194.414 802.045H195.74V805.113L199.107 802.045H200.654L198.756 803.774C199.467 803.956 199.961 804.246 200.238 804.645C200.524 805.044 200.667 805.577 200.667 806.244V809H199.341V806.322C199.341 805.802 199.233 805.408 199.016 805.139C198.808 804.87 198.444 804.68 197.924 804.567L195.74 806.556V809H194.414V802.045ZM204.624 809.195C203.852 809.195 203.237 809.004 202.778 808.623C202.327 808.233 202.102 807.683 202.102 806.972C202.102 806.27 202.353 805.711 202.856 805.295C203.367 804.879 204.056 804.671 204.923 804.671C205.781 804.671 206.552 804.831 207.237 805.152V804.619C207.237 804.021 207.072 803.588 206.743 803.319C206.422 803.042 205.885 802.903 205.131 802.903C204.715 802.903 204.307 802.942 203.909 803.02C203.51 803.098 203.163 803.206 202.869 803.345V802.305C203.137 802.175 203.501 802.067 203.961 801.98C204.429 801.893 204.884 801.85 205.326 801.85C206.409 801.85 207.219 802.097 207.757 802.591C208.294 803.085 208.563 803.752 208.563 804.593V809H207.237V806.205C206.604 805.884 205.88 805.724 205.066 805.724C204.502 805.724 204.086 805.828 203.818 806.036C203.558 806.244 203.428 806.556 203.428 806.972C203.428 807.761 203.935 808.155 204.949 808.155C205.261 808.155 205.534 808.112 205.768 808.025V809.052C205.456 809.147 205.074 809.195 204.624 809.195ZM206.124 801.018C205.751 801.018 205.483 800.927 205.318 800.745C205.145 800.554 205.058 800.273 205.058 799.9V799.224H206.254V799.744C206.254 799.891 206.284 799.991 206.345 800.043C206.397 800.095 206.501 800.121 206.657 800.121H209.725V801.018H206.124ZM210.648 804.671L209.998 803.618C210.457 803.037 210.982 802.6 211.571 802.305C212.16 802.002 212.858 801.85 213.664 801.85C214.704 801.85 215.501 802.088 216.056 802.565C216.611 803.033 216.888 803.692 216.888 804.541V809H215.562V804.645C215.562 804.047 215.402 803.609 215.081 803.332C214.769 803.046 214.297 802.903 213.664 802.903C213.187 802.903 212.767 802.977 212.403 803.124C212.039 803.263 211.71 803.488 211.415 803.8L211.974 804.671V809H210.648V804.671Z" fill="#2976C3"/>
<g filter="url(#filter0_d_242_7245)">
<rect x="65" y="378" width="260" height="51" rx="25.5" fill="#F5F5F5"/>
<path d="M130.49 408C129.94 408 129.515 407.845 129.215 407.535C128.925 407.215 128.78 406.775 128.78 406.215V399.975H131.06V405.6C131.06 405.84 131.11 406.01 131.21 406.11C131.31 406.21 131.475 406.26 131.705 406.26H132.23V408H130.49ZM133.003 399.975H135.283L136.408 404.88L137.788 399.975H139.438L140.818 404.88L141.943 399.975H144.223L141.988 408H140.053L138.613 403.005L137.173 408H135.238L133.003 399.975ZM135.07 397.545H142.015V398.985H135.07V397.545ZM139.975 394.375H142.015V396.49H139.975V394.375ZM150.193 408.225C149.693 408.225 149.208 408.13 148.738 407.94C148.268 407.75 147.858 407.47 147.508 407.1V408H145.333V399.975H147.613V405.375C147.833 405.745 148.098 406.02 148.408 406.2C148.718 406.37 149.083 406.455 149.503 406.455C150.533 406.455 151.048 405.97 151.048 405V399.975H153.313V405.135C153.313 405.715 153.193 406.24 152.953 406.71C152.713 407.18 152.358 407.55 151.888 407.82C151.418 408.09 150.853 408.225 150.193 408.225ZM158.184 408.225C157.514 408.225 156.854 408.155 156.204 408.015C155.554 407.885 155.014 407.7 154.584 407.46V403.245H158.379V404.91H156.819V406.2C157.129 406.37 157.584 406.455 158.184 406.455C159.774 406.455 160.569 405.625 160.569 403.965C160.569 403.115 160.339 402.495 159.879 402.105C159.419 401.715 158.644 401.52 157.554 401.52C157.054 401.52 156.539 401.575 156.009 401.685C155.489 401.785 155.049 401.93 154.689 402.12V400.35C155.099 400.16 155.594 400.015 156.174 399.915C156.754 399.805 157.359 399.75 157.989 399.75C159.599 399.75 160.819 400.12 161.649 400.86C162.489 401.59 162.909 402.625 162.909 403.965C162.909 405.285 162.499 406.325 161.679 407.085C160.859 407.845 159.694 408.225 158.184 408.225ZM160.631 410.64C160.631 410.46 160.596 410.33 160.526 410.25C160.456 410.18 160.331 410.145 160.151 410.145H159.656V408.705H161.231C161.771 408.705 162.146 408.815 162.356 409.035C162.556 409.255 162.656 409.635 162.656 410.175V412.11H160.631V410.64ZM168.296 408.225C167.466 408.225 166.741 408.08 166.121 407.79C165.501 407.49 165.021 407.08 164.681 406.56C164.341 406.04 164.171 405.45 164.171 404.79V399.975H166.451V404.64C166.451 405.22 166.601 405.67 166.901 405.99C167.211 406.3 167.676 406.455 168.296 406.455C168.916 406.455 169.376 406.3 169.676 405.99C169.976 405.67 170.126 405.22 170.126 404.64V397.29H172.406V404.79C172.406 405.45 172.236 406.04 171.896 406.56C171.556 407.08 171.076 407.49 170.456 407.79C169.836 408.08 169.116 408.225 168.296 408.225ZM174.39 403.215L173.64 401.94C174.81 400.48 176.315 399.75 178.155 399.75C179.445 399.75 180.435 400.035 181.125 400.605C181.825 401.175 182.175 401.97 182.175 402.99V408H179.895V403.17C179.895 402.07 179.315 401.52 178.155 401.52C177.725 401.52 177.34 401.58 177 401.7C176.67 401.82 176.36 402.015 176.07 402.285L176.655 403.245V408H174.39V403.215ZM186.741 408.225C186.151 408.225 185.551 408.165 184.941 408.045C184.341 407.935 183.866 407.765 183.516 407.535V405.795C183.956 406.055 184.446 406.255 184.986 406.395C185.536 406.535 186.031 406.605 186.471 406.605C187.001 406.605 187.386 406.555 187.626 406.455C187.876 406.345 188.001 406.155 188.001 405.885C188.001 405.645 187.881 405.46 187.641 405.33C187.411 405.2 186.976 405.035 186.336 404.835L185.961 404.715C185.101 404.445 184.466 404.12 184.056 403.74C183.646 403.36 183.441 402.84 183.441 402.18C183.441 401.41 183.751 400.815 184.371 400.395C184.991 399.965 185.826 399.75 186.876 399.75C187.446 399.75 187.996 399.81 188.526 399.93C189.056 400.05 189.481 400.205 189.801 400.395V402.18C189.481 401.96 189.081 401.785 188.601 401.655C188.131 401.515 187.666 401.445 187.206 401.445C186.236 401.445 185.751 401.69 185.751 402.18C185.751 402.42 185.866 402.605 186.096 402.735C186.326 402.865 186.736 403.02 187.326 403.2L187.866 403.365C188.496 403.565 188.986 403.785 189.336 404.025C189.696 404.265 189.946 404.535 190.086 404.835C190.226 405.135 190.296 405.5 190.296 405.93C190.296 406.62 189.996 407.175 189.396 407.595C188.806 408.015 187.921 408.225 186.741 408.225ZM200.173 408.225C199.223 408.225 198.488 407.935 197.968 407.355C197.448 406.775 197.188 406.035 197.188 405.135V403.17C197.188 402.61 197.058 402.195 196.798 401.925C196.538 401.655 196.138 401.52 195.598 401.52C195.198 401.52 194.843 401.58 194.533 401.7C194.233 401.82 193.943 402.015 193.663 402.285L194.248 403.245V405.6C194.248 405.84 194.303 406.01 194.413 406.11C194.523 406.21 194.703 406.26 194.953 406.26H195.718V408H193.708C193.158 408 192.733 407.845 192.433 407.535C192.133 407.215 191.983 406.775 191.983 406.215V403.215L191.233 401.94C191.803 401.23 192.443 400.69 193.153 400.32C193.863 399.94 194.678 399.75 195.598 399.75C196.838 399.75 197.788 400.04 198.448 400.62C199.108 401.19 199.438 401.98 199.438 402.99V405C199.438 405.97 199.918 406.455 200.878 406.455C201.258 406.455 201.598 406.365 201.898 406.185C202.198 405.995 202.443 405.725 202.633 405.375V399.975H204.898V408H202.753V407.115C202.423 407.485 202.038 407.765 201.598 407.955C201.158 408.135 200.683 408.225 200.173 408.225ZM200.85 397.845C200.85 397.405 200.97 397.075 201.21 396.855C201.44 396.635 201.81 396.525 202.32 396.525H205.695V397.95H203.295C203.145 397.95 203.04 397.985 202.98 398.055C202.91 398.115 202.875 398.22 202.875 398.37V398.985H200.85V397.845ZM208.185 408C207.635 408 207.21 407.845 206.91 407.535C206.62 407.215 206.475 406.775 206.475 406.215V399.975H208.755V405.6C208.755 405.84 208.805 406.01 208.905 406.11C209.005 406.21 209.17 406.26 209.4 406.26H209.925V408H208.185ZM212.4 408C211.85 408 211.425 407.845 211.125 407.535C210.835 407.215 210.69 406.775 210.69 406.215V399.975H212.955V405.6C212.955 405.84 213.005 406.01 213.105 406.11C213.205 406.21 213.375 406.26 213.615 406.26H214.14V408H212.4ZM218.082 408.225C217.162 408.225 216.427 407.995 215.877 407.535C215.337 407.075 215.067 406.425 215.067 405.585C215.067 404.745 215.362 404.085 215.952 403.605C216.552 403.125 217.372 402.885 218.412 402.885C219.382 402.885 220.212 403.045 220.902 403.365V403.05C220.902 402.51 220.722 402.11 220.362 401.85C220.012 401.59 219.442 401.46 218.652 401.46C218.162 401.46 217.682 401.51 217.212 401.61C216.742 401.71 216.322 401.85 215.952 402.03V400.32C216.282 400.16 216.737 400.025 217.317 399.915C217.897 399.805 218.482 399.75 219.072 399.75C220.412 399.75 221.427 400.05 222.117 400.65C222.817 401.24 223.167 402.035 223.167 403.035V408H220.902V405.015C220.322 404.715 219.642 404.565 218.862 404.565C218.352 404.565 217.977 404.65 217.737 404.82C217.507 404.99 217.392 405.255 217.392 405.615C217.392 405.945 217.497 406.195 217.707 406.365C217.927 406.525 218.272 406.605 218.742 406.605C219.072 406.605 219.352 406.555 219.582 406.455V408.03C219.192 408.16 218.692 408.225 218.082 408.225ZM225.837 403.305C225.337 403.305 224.977 403.195 224.757 402.975C224.537 402.745 224.427 402.4 224.427 401.94V400.77H226.467V401.415C226.467 401.545 226.497 401.64 226.557 401.7C226.617 401.76 226.722 401.79 226.872 401.79H228.642V403.305H225.837ZM225.837 407.355C225.337 407.355 224.977 407.24 224.757 407.01C224.537 406.78 224.427 406.435 224.427 405.975V404.805H226.467V405.45C226.467 405.58 226.497 405.675 226.557 405.735C226.617 405.795 226.722 405.825 226.872 405.825H228.642V407.355H225.837ZM231.608 408C231.058 408 230.633 407.845 230.333 407.535C230.043 407.215 229.898 406.775 229.898 406.215V399.975H232.178V405.6C232.178 405.84 232.228 406.01 232.328 406.11C232.428 406.21 232.593 406.26 232.823 406.26H233.348V408H231.608ZM237.571 408.225C236.981 408.225 236.381 408.165 235.771 408.045C235.171 407.935 234.696 407.765 234.346 407.535V405.795C234.786 406.055 235.276 406.255 235.816 406.395C236.366 406.535 236.861 406.605 237.301 406.605C237.831 406.605 238.216 406.555 238.456 406.455C238.706 406.345 238.831 406.155 238.831 405.885C238.831 405.645 238.711 405.46 238.471 405.33C238.241 405.2 237.806 405.035 237.166 404.835L236.791 404.715C235.931 404.445 235.296 404.12 234.886 403.74C234.476 403.36 234.271 402.84 234.271 402.18C234.271 401.41 234.581 400.815 235.201 400.395C235.821 399.965 236.656 399.75 237.706 399.75C238.276 399.75 238.826 399.81 239.356 399.93C239.886 400.05 240.311 400.205 240.631 400.395V402.18C240.311 401.96 239.911 401.785 239.431 401.655C238.961 401.515 238.496 401.445 238.036 401.445C237.066 401.445 236.581 401.69 236.581 402.18C236.581 402.42 236.696 402.605 236.926 402.735C237.156 402.865 237.566 403.02 238.156 403.2L238.696 403.365C239.326 403.565 239.816 403.785 240.166 404.025C240.526 404.265 240.776 404.535 240.916 404.835C241.056 405.135 241.126 405.5 241.126 405.93C241.126 406.62 240.826 407.175 240.226 407.595C239.636 408.015 238.751 408.225 237.571 408.225ZM233.873 397.545H240.818V398.985H233.873V397.545ZM238.778 394.375H240.818V396.49H238.778V394.375ZM247.253 408.225C246.753 408.225 246.268 408.13 245.798 407.94C245.328 407.75 244.918 407.47 244.568 407.1V408H242.393V399.975H244.673V405.375C244.893 405.745 245.158 406.02 245.468 406.2C245.778 406.37 246.143 406.455 246.563 406.455C247.593 406.455 248.108 405.97 248.108 405V399.975H250.373V405.135C250.373 405.715 250.253 406.24 250.013 406.71C249.773 407.18 249.418 407.55 248.948 407.82C248.478 408.09 247.913 408.225 247.253 408.225ZM255.664 408.225C254.424 408.225 253.444 407.885 252.724 407.205C252.004 406.515 251.644 405.505 251.644 404.175C251.644 403.265 251.774 402.48 252.034 401.82C252.294 401.15 252.659 400.64 253.129 400.29C253.609 399.93 254.159 399.75 254.779 399.75C255.149 399.75 255.469 399.82 255.739 399.96C256.019 400.1 256.244 400.295 256.414 400.545C256.604 400.275 256.864 400.075 257.194 399.945C257.534 399.815 257.914 399.75 258.334 399.75C259.094 399.75 259.684 399.985 260.104 400.455C260.524 400.915 260.734 401.525 260.734 402.285V408H258.469V402.51C258.469 402.17 258.414 401.92 258.304 401.76C258.204 401.6 258.029 401.52 257.779 401.52C257.339 401.52 257.064 401.79 256.954 402.33H255.889C255.819 401.79 255.584 401.52 255.184 401.52C254.824 401.52 254.534 401.745 254.314 402.195C254.094 402.645 253.984 403.305 253.984 404.175C253.984 404.955 254.149 405.53 254.479 405.9C254.819 406.27 255.354 406.455 256.084 406.455C256.464 406.455 256.804 406.4 257.104 406.29V408.03C256.714 408.16 256.234 408.225 255.664 408.225ZM257.08 398.025C257.08 397.915 257.06 397.84 257.02 397.8C256.97 397.75 256.89 397.725 256.78 397.725H256.075V396.18H257.485C257.855 396.18 258.125 396.265 258.295 396.435C258.455 396.605 258.535 396.82 258.535 397.08V397.53H261.55V398.985H257.08V398.025ZM265.435 408.225C264.785 408.225 264.225 408.09 263.755 407.82C263.285 407.55 262.925 407.18 262.675 406.71C262.435 406.24 262.315 405.715 262.315 405.135V399.975H264.595V405C264.595 405.97 265.11 406.455 266.14 406.455C266.56 406.455 266.92 406.37 267.22 406.2C267.53 406.02 267.8 405.745 268.03 405.375V399.975H270.295V408H268.135V407.1C267.785 407.47 267.37 407.75 266.89 407.94C266.42 408.13 265.935 408.225 265.435 408.225ZM273.486 408C272.936 408 272.511 407.845 272.211 407.535C271.921 407.215 271.776 406.775 271.776 406.215V402.6C271.776 402.13 271.866 401.725 272.046 401.385C272.226 401.045 272.476 400.685 272.796 400.305C273.006 400.065 273.161 399.86 273.261 399.69C273.371 399.52 273.426 399.345 273.426 399.165C273.426 398.875 273.351 398.665 273.201 398.535C273.051 398.405 272.796 398.34 272.436 398.34C271.856 398.34 271.316 398.525 270.816 398.895V397.155C271.126 396.965 271.491 396.82 271.911 396.72C272.331 396.62 272.761 396.57 273.201 396.57C274.061 396.57 274.701 396.77 275.121 397.17C275.551 397.56 275.766 398.07 275.766 398.7C275.766 399.07 275.696 399.395 275.556 399.675C275.416 399.945 275.201 400.275 274.911 400.665C274.631 401.025 274.416 401.35 274.266 401.64C274.126 401.92 274.056 402.24 274.056 402.6V405.6C274.056 405.84 274.106 406.01 274.206 406.11C274.306 406.21 274.471 406.26 274.701 406.26H275.226V408H273.486ZM280.273 408.225C279.483 408.225 278.793 408.1 278.203 407.85C277.613 407.6 277.163 407.25 276.853 406.8C276.543 406.35 276.388 405.84 276.388 405.27V404.895C276.388 404.535 276.458 404.21 276.598 403.92C276.738 403.63 276.933 403.305 277.183 402.945C277.343 402.725 277.458 402.55 277.528 402.42C277.598 402.28 277.633 402.155 277.633 402.045C277.633 401.765 277.463 401.625 277.123 401.625H276.283V399.975H278.458C278.908 399.975 279.268 400.105 279.538 400.365C279.808 400.625 279.943 400.965 279.943 401.385C279.943 401.685 279.888 401.965 279.778 402.225C279.668 402.475 279.503 402.765 279.283 403.095C279.073 403.425 278.913 403.705 278.803 403.935C278.703 404.165 278.653 404.415 278.653 404.685V405C278.653 405.47 278.793 405.83 279.073 406.08C279.353 406.33 279.753 406.455 280.273 406.455C280.823 406.455 281.238 406.305 281.518 406.005C281.808 405.695 281.953 405.25 281.953 404.67C281.953 403.45 281.478 402.84 280.528 402.84V401.745L281.983 399.75H284.398L282.763 401.985C283.293 402.255 283.668 402.61 283.888 403.05C284.118 403.48 284.233 404.03 284.233 404.7C284.233 405.39 284.073 406 283.753 406.53C283.443 407.06 282.988 407.475 282.388 407.775C281.788 408.075 281.083 408.225 280.273 408.225ZM280.444 398.025C280.444 397.915 280.424 397.84 280.384 397.8C280.334 397.75 280.254 397.725 280.144 397.725H279.439V396.18H280.849C281.219 396.18 281.489 396.265 281.659 396.435C281.819 396.605 281.899 396.82 281.899 397.08V397.53H284.914V398.985H280.444V398.025ZM285.379 400.98H287.644L289.354 406.305C290.094 406.305 290.664 406.085 291.064 405.645C291.464 405.195 291.664 404.56 291.664 403.74C291.664 403 291.524 402.445 291.244 402.075C290.964 401.705 290.534 401.52 289.954 401.52C289.634 401.52 289.314 401.57 288.994 401.67V399.96C289.414 399.82 289.889 399.75 290.419 399.75C291.609 399.75 292.499 400.1 293.089 400.8C293.689 401.49 293.989 402.47 293.989 403.74C293.989 404.63 293.794 405.395 293.404 406.035C293.014 406.675 292.484 407.165 291.814 407.505C291.154 407.835 290.429 408 289.639 408H287.629L285.379 400.98ZM297.674 403.005C297.674 402.485 297.564 402.11 297.344 401.88C297.124 401.64 296.739 401.52 296.189 401.52C295.659 401.52 295.124 401.655 294.584 401.925V400.2C294.824 400.08 295.144 399.975 295.544 399.885C295.954 399.795 296.349 399.75 296.729 399.75C297.779 399.75 298.579 400.03 299.129 400.59C299.679 401.15 299.954 401.96 299.954 403.02V408H297.674V403.005ZM304.634 408.225C303.984 408.225 303.424 408.09 302.954 407.82C302.484 407.55 302.124 407.18 301.874 406.71C301.634 406.24 301.514 405.715 301.514 405.135V399.975H303.794V405C303.794 405.97 304.309 406.455 305.339 406.455C305.759 406.455 306.119 406.37 306.419 406.2C306.729 406.02 306.999 405.745 307.229 405.375V399.975H309.494V408H307.334V407.1C306.984 407.47 306.569 407.75 306.089 407.94C305.619 408.13 305.134 408.225 304.634 408.225Z" fill="black"/>
<path d="M97.167 412.167H100.834V404.833H108.167V401.167H100.834V393.833H97.167V401.167H89.8337V404.833H97.167V412.167ZM99.0003 421.333C96.4642 421.333 94.0809 420.852 91.8503 419.889C89.6198 418.927 87.6795 417.621 86.0295 415.971C84.3795 414.321 83.0732 412.38 82.1107 410.15C81.1482 407.919 80.667 405.536 80.667 403C80.667 400.464 81.1482 398.08 82.1107 395.85C83.0732 393.619 84.3795 391.679 86.0295 390.029C87.6795 388.379 89.6198 387.073 91.8503 386.11C94.0809 385.148 96.4642 384.667 99.0003 384.667C101.536 384.667 103.92 385.148 106.15 386.11C108.381 387.073 110.321 388.379 111.971 390.029C113.621 391.679 114.927 393.619 115.89 395.85C116.852 398.08 117.334 400.464 117.334 403C117.334 405.536 116.852 407.919 115.89 410.15C114.927 412.38 113.621 414.321 111.971 415.971C110.321 417.621 108.381 418.927 106.15 419.889C103.92 420.852 101.536 421.333 99.0003 421.333ZM99.0003 417.667C103.095 417.667 106.563 416.246 109.404 413.404C112.246 410.562 113.667 407.094 113.667 403C113.667 398.905 112.246 395.437 109.404 392.596C106.563 389.754 103.095 388.333 99.0003 388.333C94.9059 388.333 91.4378 389.754 88.5962 392.596C85.7545 395.437 84.3337 398.905 84.3337 403C84.3337 407.094 85.7545 410.562 88.5962 413.404C91.4378 416.246 94.9059 417.667 99.0003 417.667Z" fill="black"/>
</g>
<defs>
<filter id="filter0_d_242_7245" x="59.5" y="370.5" width="268" height="65" filterUnits="userSpaceOnUse" color-interpolation-filters="sRGB">
<feFlood flood-opacity="0" result="BackgroundImageFix"/>
<feColorMatrix in="SourceAlpha" type="matrix" values="0 0 0 0 0 0 0 0 0 0 0 0 0 0 0 0 0 0 127 0" result="hardAlpha"/>
<feOffset/>
<feGaussianBlur stdDeviation="1.25"/>
<feComposite in2="hardAlpha" operator="out"/>
<feColorMatrix type="matrix" values="0 0 0 0 0 0 0 0 0 0 0 0 0 0 0 0 0 0 0.25 0"/>
<feBlend mode="normal" in2="BackgroundImageFix" result="effect1_dropShadow_242_7245"/>
<feBlend mode="normal" in="SourceGraphic" in2="effect1_dropShadow_242_7245" result="shape"/>
</filter>
<linearGradient id="paint0_linear_242_7245" x1="69" y1="194.5" x2="339" y2="194.5" gradientUnits="userSpaceOnUse">
<stop offset="0.4375" stop-color="#2A7E46"/>
<stop offset="0.644231" stop-color="#3BB162" stop-opacity="0.9"/>
</linearGradient>
</defs>
</svg>
