<svg width="390" height="849" viewBox="0 0 390 849" fill="none" xmlns="http://www.w3.org/2000/svg">
<rect y="5" width="390" height="844" rx="32" fill="white"/>
<path d="M54.0688 36V26.1304H53.9194L50.9395 28.2305V26.2217L54.0688 24.022H56.2021V36H54.0688ZM63.4219 36.2988C62.4701 36.2988 61.6538 36.0443 60.9731 35.5352C60.298 35.026 59.7778 34.3011 59.4126 33.3604C59.0474 32.4196 58.8647 31.3045 58.8647 30.0151V29.9985C58.8647 28.7091 59.0474 27.5968 59.4126 26.6616C59.7778 25.7209 60.298 24.9959 60.9731 24.4868C61.6538 23.9777 62.4701 23.7231 63.4219 23.7231C64.3737 23.7231 65.1899 23.9777 65.8706 24.4868C66.5513 24.9959 67.0742 25.7209 67.4395 26.6616C67.8047 27.5968 67.9873 28.7091 67.9873 29.9985V30.0151C67.9873 31.3045 67.8047 32.4196 67.4395 33.3604C67.0742 34.3011 66.5513 35.026 65.8706 35.5352C65.1899 36.0443 64.3737 36.2988 63.4219 36.2988ZM63.4219 34.564C63.931 34.564 64.3654 34.3813 64.7251 34.0161C65.0848 33.6509 65.3587 33.1307 65.5469 32.4556C65.7406 31.7749 65.8374 30.9614 65.8374 30.0151V29.9985C65.8374 29.0522 65.7406 28.2415 65.5469 27.5664C65.3587 26.8857 65.0848 26.3656 64.7251 26.0059C64.3654 25.6406 63.931 25.458 63.4219 25.458C62.9128 25.458 62.4784 25.6406 62.1187 26.0059C61.7645 26.3656 61.4906 26.8857 61.2969 27.5664C61.1087 28.2415 61.0146 29.0522 61.0146 29.9985V30.0151C61.0146 30.9614 61.1087 31.7749 61.2969 32.4556C61.4906 33.1307 61.7645 33.6509 62.1187 34.0161C62.4784 34.3813 62.9128 34.564 63.4219 34.564ZM71.2974 34.3896C70.9211 34.3896 70.6056 34.2651 70.3511 34.0161C70.1021 33.7616 69.9775 33.4517 69.9775 33.0864C69.9775 32.7157 70.1021 32.4058 70.3511 32.1567C70.6056 31.9022 70.9211 31.7749 71.2974 31.7749C71.6792 31.7749 71.9946 31.9022 72.2437 32.1567C72.4927 32.4058 72.6172 32.7157 72.6172 33.0864C72.6172 33.4517 72.4927 33.7616 72.2437 34.0161C71.9946 34.2651 71.6792 34.3896 71.2974 34.3896ZM71.2974 28.2305C70.9211 28.2305 70.6056 28.106 70.3511 27.8569C70.1021 27.6024 69.9775 27.2925 69.9775 26.9272C69.9775 26.5565 70.1021 26.2466 70.3511 25.9976C70.6056 25.743 70.9211 25.6157 71.2974 25.6157C71.6792 25.6157 71.9946 25.743 72.2437 25.9976C72.4927 26.2466 72.6172 26.5565 72.6172 26.9272C72.6172 27.2925 72.4927 27.6024 72.2437 27.8569C71.9946 28.106 71.6792 28.2305 71.2974 28.2305ZM79.1562 36.2988C78.2044 36.2988 77.3882 36.0443 76.7075 35.5352C76.0324 35.026 75.5122 34.3011 75.147 33.3604C74.7817 32.4196 74.5991 31.3045 74.5991 30.0151V29.9985C74.5991 28.7091 74.7817 27.5968 75.147 26.6616C75.5122 25.7209 76.0324 24.9959 76.7075 24.4868C77.3882 23.9777 78.2044 23.7231 79.1562 23.7231C80.1081 23.7231 80.9243 23.9777 81.605 24.4868C82.2856 24.9959 82.8086 25.7209 83.1738 26.6616C83.5391 27.5968 83.7217 28.7091 83.7217 29.9985V30.0151C83.7217 31.3045 83.5391 32.4196 83.1738 33.3604C82.8086 34.3011 82.2856 35.026 81.605 35.5352C80.9243 36.0443 80.1081 36.2988 79.1562 36.2988ZM79.1562 34.564C79.6654 34.564 80.0998 34.3813 80.4595 34.0161C80.8192 33.6509 81.0931 33.1307 81.2812 32.4556C81.4749 31.7749 81.5718 30.9614 81.5718 30.0151V29.9985C81.5718 29.0522 81.4749 28.2415 81.2812 27.5664C81.0931 26.8857 80.8192 26.3656 80.4595 26.0059C80.0998 25.6406 79.6654 25.458 79.1562 25.458C78.6471 25.458 78.2127 25.6406 77.853 26.0059C77.4989 26.3656 77.2249 26.8857 77.0312 27.5664C76.8431 28.2415 76.749 29.0522 76.749 29.9985V30.0151C76.749 30.9614 76.8431 31.7749 77.0312 32.4556C77.2249 33.1307 77.4989 33.6509 77.853 34.0161C78.2127 34.3813 78.6471 34.564 79.1562 34.564ZM89.9619 36.2988C89.0101 36.2988 88.1938 36.0443 87.5132 35.5352C86.8381 35.026 86.3179 34.3011 85.9526 33.3604C85.5874 32.4196 85.4048 31.3045 85.4048 30.0151V29.9985C85.4048 28.7091 85.5874 27.5968 85.9526 26.6616C86.3179 25.7209 86.8381 24.9959 87.5132 24.4868C88.1938 23.9777 89.0101 23.7231 89.9619 23.7231C90.9137 23.7231 91.73 23.9777 92.4106 24.4868C93.0913 24.9959 93.6143 25.7209 93.9795 26.6616C94.3447 27.5968 94.5273 28.7091 94.5273 29.9985V30.0151C94.5273 31.3045 94.3447 32.4196 93.9795 33.3604C93.6143 34.3011 93.0913 35.026 92.4106 35.5352C91.73 36.0443 90.9137 36.2988 89.9619 36.2988ZM89.9619 34.564C90.471 34.564 90.9054 34.3813 91.2651 34.0161C91.6248 33.6509 91.8988 33.1307 92.0869 32.4556C92.2806 31.7749 92.3774 30.9614 92.3774 30.0151V29.9985C92.3774 29.0522 92.2806 28.2415 92.0869 27.5664C91.8988 26.8857 91.6248 26.3656 91.2651 26.0059C90.9054 25.6406 90.471 25.458 89.9619 25.458C89.4528 25.458 89.0184 25.6406 88.6587 26.0059C88.3045 26.3656 88.0306 26.8857 87.8369 27.5664C87.6488 28.2415 87.5547 29.0522 87.5547 29.9985V30.0151C87.5547 30.9614 87.6488 31.7749 87.8369 32.4556C88.0306 33.1307 88.3045 33.6509 88.6587 34.0161C89.0184 34.3813 89.4528 34.564 89.9619 34.564Z" fill="black"/>
<path d="M288.333 31C288.977 31 289.5 31.5037 289.5 32.125V34.375C289.5 34.9963 288.977 35.5 288.333 35.5H287.167C286.523 35.5 286 34.9963 286 34.375V32.125C286 31.5037 286.523 31 287.167 31H288.333ZM293.823 28.75C294.468 28.75 294.99 29.2537 294.99 29.875V34.375C294.99 34.9963 294.468 35.5 293.823 35.5H292.657C292.013 35.5 291.49 34.9963 291.49 34.375V29.875C291.49 29.2537 292.013 28.75 292.657 28.75H293.823ZM299.313 26.125C299.958 26.125 300.48 26.6287 300.48 27.25V34.375C300.48 34.9963 299.958 35.5 299.313 35.5H298.147C297.503 35.5 296.98 34.9963 296.98 34.375V27.25C296.981 26.6287 297.503 26.125 298.147 26.125H299.313ZM304.804 23.5C305.448 23.5 305.971 24.0037 305.971 24.625V34.375C305.971 34.9963 305.448 35.5 304.804 35.5H303.638C302.993 35.5 302.471 34.9963 302.471 34.375V24.625C302.471 24.0037 302.993 23.5 303.638 23.5H304.804Z" fill="black"/>
<path d="M318.512 32.8262C319.932 31.5964 322.011 31.5964 323.431 32.8262C323.502 32.8924 323.544 32.9855 323.546 33.084C323.548 33.1826 323.51 33.2777 323.441 33.3467L321.218 35.6446C321.153 35.7121 321.063 35.7501 320.971 35.7501C320.878 35.7499 320.79 35.7119 320.725 35.6446L318.501 33.3467C318.432 33.2776 318.394 33.1826 318.396 33.084C318.399 32.9855 318.44 32.8923 318.512 32.8262ZM315.545 29.7608C318.604 26.8467 323.341 26.8467 326.4 29.7608C326.469 29.829 326.509 29.9225 326.51 30.0206C326.511 30.1188 326.473 30.2135 326.405 30.2833L325.12 31.6133C324.988 31.7491 324.774 31.7524 324.638 31.6202C323.633 30.6886 322.326 30.1728 320.971 30.1729C319.617 30.1736 318.311 30.6895 317.308 31.6202C317.172 31.7524 316.958 31.7491 316.825 31.6133L315.54 30.2833C315.472 30.2136 315.435 30.1189 315.436 30.0206C315.437 29.9224 315.476 29.829 315.545 29.7608ZM312.578 26.7032C317.27 22.0989 324.671 22.099 329.363 26.7032C329.431 26.7716 329.47 26.8654 329.471 26.963C329.471 27.0605 329.433 27.1545 329.366 27.2237L328.08 28.5538C327.947 28.6901 327.732 28.691 327.598 28.5567C325.81 26.8164 323.437 25.8459 320.971 25.8458C318.504 25.8459 316.131 26.8163 314.344 28.5567C314.209 28.6913 313.994 28.6904 313.861 28.5538L312.574 27.2237C312.507 27.1545 312.47 27.0605 312.471 26.963C312.471 26.8654 312.51 26.7715 312.578 26.7032Z" fill="black"/>
<rect opacity="0.4" x="336.471" y="23.5" width="24" height="12" rx="3.5" stroke="black"/>
<path opacity="0.5" d="M361.971 27.5V31.5C362.777 31.1612 363.301 30.3731 363.301 29.5C363.301 28.6269 362.777 27.8388 361.971 27.5Z" fill="black"/>
<rect x="337.971" y="25" width="17" height="9" rx="2" fill="black"/>
<path fill-rule="evenodd" clip-rule="evenodd" d="M121 838.5C121 837.119 122.119 836 123.5 836H266.5C267.881 836 269 837.119 269 838.5C269 839.881 267.881 841 266.5 841H123.5C122.119 841 121 839.881 121 838.5Z" fill="#090A0A"/>
<path d="M113.04 93.3C112.253 93.3 111.453 93.22 110.64 93.06C109.84 92.9133 109.207 92.6867 108.74 92.38V90.06C109.327 90.4067 109.98 90.6733 110.7 90.86C111.433 91.0467 112.093 91.14 112.68 91.14C113.387 91.14 113.9 91.0733 114.22 90.94C114.553 90.7933 114.72 90.54 114.72 90.18C114.72 89.86 114.56 89.6133 114.24 89.44C113.933 89.2667 113.353 89.0467 112.5 88.78L112 88.62C110.853 88.26 110.007 87.8267 109.46 87.32C108.913 86.8133 108.64 86.12 108.64 85.24C108.64 84.2133 109.053 83.42 109.88 82.86C110.707 82.2867 111.82 82 113.22 82C113.98 82 114.713 82.08 115.42 82.24C116.127 82.4 116.693 82.6067 117.12 82.86V85.24C116.693 84.9467 116.16 84.7133 115.52 84.54C114.893 84.3533 114.273 84.26 113.66 84.26C112.367 84.26 111.72 84.5867 111.72 85.24C111.72 85.56 111.873 85.8067 112.18 85.98C112.487 86.1533 113.033 86.36 113.82 86.6L114.54 86.82C115.38 87.0867 116.033 87.38 116.5 87.7C116.98 88.02 117.313 88.38 117.5 88.78C117.687 89.18 117.78 89.6667 117.78 90.24C117.78 91.16 117.38 91.9 116.58 92.46C115.793 93.02 114.613 93.3 113.04 93.3ZM122.69 86.34C122.69 85.6467 122.543 85.1467 122.25 84.84C121.956 84.52 121.443 84.36 120.71 84.36C120.003 84.36 119.29 84.54 118.57 84.9V82.6C118.89 82.44 119.316 82.3 119.85 82.18C120.396 82.06 120.923 82 121.43 82C122.83 82 123.896 82.3733 124.63 83.12C125.363 83.8667 125.73 84.9467 125.73 86.36V93H122.69V86.34ZM132.91 93.3C131.243 93.3 129.91 93 128.91 92.4C127.91 91.7867 127.41 90.9133 127.41 89.78C127.41 89.26 127.55 88.7933 127.83 88.38C128.123 87.9533 128.51 87.6467 128.99 87.46C128.55 87.2333 128.19 86.9067 127.91 86.48C127.643 86.0533 127.51 85.5867 127.51 85.08C127.51 84.1467 127.836 83.4 128.49 82.84C129.156 82.28 130.116 82 131.37 82C131.756 82 132.136 82.0267 132.51 82.08C132.896 82.1333 133.19 82.1933 133.39 82.26V84.54C133.203 84.46 132.976 84.3933 132.71 84.34C132.456 84.2867 132.223 84.26 132.01 84.26C131.076 84.26 130.61 84.6067 130.61 85.3C130.61 85.66 130.723 85.9333 130.95 86.12C131.19 86.2933 131.556 86.38 132.05 86.38H133.39V88.52H132.05C131.036 88.52 130.53 88.92 130.53 89.72C130.53 90.1467 130.73 90.48 131.13 90.72C131.543 90.9467 132.136 91.06 132.91 91.06C133.843 91.06 134.523 90.8733 134.95 90.5C135.39 90.1133 135.61 89.54 135.61 88.78V82.28H138.65V88.76C138.65 89.52 138.456 90.2467 138.07 90.94C137.683 91.62 137.063 92.1867 136.21 92.64C135.356 93.08 134.256 93.3 132.91 93.3ZM140.339 83.64H143.359L145.639 90.74C146.626 90.74 147.386 90.4467 147.919 89.86C148.453 89.26 148.719 88.4133 148.719 87.32C148.719 86.3333 148.533 85.5933 148.159 85.1C147.786 84.6067 147.213 84.36 146.439 84.36C146.013 84.36 145.586 84.4267 145.159 84.56V82.28C145.719 82.0933 146.353 82 147.059 82C148.646 82 149.833 82.4667 150.619 83.4C151.419 84.32 151.819 85.6267 151.819 87.32C151.819 88.5067 151.559 89.5267 151.039 90.38C150.519 91.2333 149.813 91.8867 148.919 92.34C148.039 92.78 147.073 93 146.019 93H143.339L140.339 83.64ZM156.733 86.34C156.733 85.6467 156.586 85.1467 156.293 84.84C155.999 84.52 155.486 84.36 154.753 84.36C154.046 84.36 153.333 84.54 152.613 84.9V82.6C152.933 82.44 153.359 82.3 153.893 82.18C154.439 82.06 154.966 82 155.473 82C156.873 82 157.939 82.3733 158.673 83.12C159.406 83.8667 159.773 84.9467 159.773 86.36V93H156.733V86.34ZM166.013 93.3C165.146 93.3 164.399 93.12 163.773 92.76C163.146 92.4 162.666 91.9067 162.333 91.28C162.013 90.6533 161.853 89.9533 161.853 89.18V82.3H164.893V89C164.893 90.2933 165.579 90.94 166.953 90.94C167.513 90.94 167.993 90.8267 168.393 90.6C168.806 90.36 169.166 89.9933 169.473 89.5V82.3H172.493V93H169.613V91.8C169.146 92.2933 168.593 92.6667 167.953 92.92C167.326 93.1733 166.679 93.3 166.013 93.3ZM178.207 93.3C176.98 93.3 176 92.9933 175.267 92.38C174.547 91.7667 174.187 90.9 174.187 89.78C174.187 88.66 174.58 87.78 175.367 87.14C176.167 86.5 177.26 86.18 178.647 86.18C179.94 86.18 181.047 86.3933 181.967 86.82V86.4C181.967 85.68 181.727 85.1467 181.247 84.8C180.78 84.4533 180.02 84.28 178.967 84.28C178.314 84.28 177.674 84.3467 177.047 84.48C176.42 84.6133 175.86 84.8 175.367 85.04V82.76C175.807 82.5467 176.414 82.3667 177.187 82.22C177.96 82.0733 178.74 82 179.527 82C180.42 82 181.254 82.1333 182.027 82.4L182.807 81.5H186.107L184.127 83.8C184.7 84.4533 184.987 85.3133 184.987 86.38V93H181.967V89.02C181.194 88.62 180.287 88.42 179.247 88.42C178.567 88.42 178.067 88.5333 177.747 88.76C177.44 88.9867 177.287 89.34 177.287 89.82C177.287 90.26 177.427 90.5933 177.707 90.82C178 91.0333 178.46 91.14 179.087 91.14C179.527 91.14 179.9 91.0733 180.207 90.94V93.04C179.687 93.2133 179.02 93.3 178.207 93.3ZM191.341 93.3C190.554 93.3 189.754 93.22 188.941 93.06C188.141 92.9133 187.507 92.6867 187.041 92.38V90.06C187.627 90.4067 188.281 90.6733 189.001 90.86C189.734 91.0467 190.394 91.14 190.981 91.14C191.687 91.14 192.201 91.0733 192.521 90.94C192.854 90.7933 193.021 90.54 193.021 90.18C193.021 89.86 192.861 89.6133 192.541 89.44C192.234 89.2667 191.654 89.0467 190.801 88.78L190.301 88.62C189.154 88.26 188.307 87.8267 187.761 87.32C187.214 86.8133 186.941 86.12 186.941 85.24C186.941 84.2133 187.354 83.42 188.181 82.86C189.007 82.2867 190.121 82 191.521 82C192.281 82 193.014 82.08 193.721 82.24C194.427 82.4 194.994 82.6067 195.421 82.86V85.24C194.994 84.9467 194.461 84.7133 193.821 84.54C193.194 84.3533 192.574 84.26 191.961 84.26C190.667 84.26 190.021 84.5867 190.021 85.24C190.021 85.56 190.174 85.8067 190.481 85.98C190.787 86.1533 191.334 86.36 192.121 86.6L192.841 86.82C193.681 87.0867 194.334 87.38 194.801 87.7C195.281 88.02 195.614 88.38 195.801 88.78C195.987 89.18 196.081 89.6667 196.081 90.24C196.081 91.16 195.681 91.9 194.881 92.46C194.094 93.02 192.914 93.3 191.341 93.3ZM193.05 96.52C193.05 96.28 193.004 96.1067 192.91 96C192.817 95.9067 192.65 95.86 192.41 95.86H191.75V93.94H193.85C194.57 93.94 195.07 94.0867 195.35 94.38C195.617 94.6733 195.75 95.18 195.75 95.9V98.48H193.05V96.52ZM203.27 93.3C202.164 93.3 201.197 93.1067 200.37 92.72C199.544 92.32 198.904 91.7733 198.45 91.08C197.997 90.3867 197.77 89.6 197.77 88.72V82.3H200.81V88.52C200.81 89.2933 201.01 89.8933 201.41 90.32C201.824 90.7333 202.444 90.94 203.27 90.94C204.097 90.94 204.71 90.7333 205.11 90.32C205.51 89.8933 205.71 89.2933 205.71 88.52V78.72H208.75V88.72C208.75 89.6 208.524 90.3867 208.07 91.08C207.617 91.7733 206.977 92.32 206.15 92.72C205.324 93.1067 204.364 93.3 203.27 93.3ZM216.337 93.3C215.23 93.3 214.264 93.1067 213.437 92.72C212.61 92.32 211.97 91.7733 211.517 91.08C211.064 90.3867 210.837 89.6 210.837 88.72V82.3H213.877V88.52C213.877 89.2933 214.077 89.8933 214.477 90.32C214.89 90.7333 215.51 90.94 216.337 90.94C217.164 90.94 217.777 90.7333 218.177 90.32C218.577 89.8933 218.777 89.2933 218.777 88.52V78.72H221.817V88.72C221.817 89.6 221.59 90.3867 221.137 91.08C220.684 91.7733 220.044 92.32 219.217 92.72C218.39 93.1067 217.43 93.3 216.337 93.3ZM227.903 93.3C227.117 93.3 226.317 93.22 225.503 93.06C224.703 92.9133 224.07 92.6867 223.603 92.38V90.06C224.19 90.4067 224.843 90.6733 225.563 90.86C226.297 91.0467 226.957 91.14 227.543 91.14C228.25 91.14 228.763 91.0733 229.083 90.94C229.417 90.7933 229.583 90.54 229.583 90.18C229.583 89.86 229.423 89.6133 229.103 89.44C228.797 89.2667 228.217 89.0467 227.363 88.78L226.863 88.62C225.717 88.26 224.87 87.8267 224.323 87.32C223.777 86.8133 223.503 86.12 223.503 85.24C223.503 84.2133 223.917 83.42 224.743 82.86C225.57 82.2867 226.683 82 228.083 82C228.843 82 229.577 82.08 230.283 82.24C230.99 82.4 231.557 82.6067 231.983 82.86V85.24C231.557 84.9467 231.023 84.7133 230.383 84.54C229.757 84.3533 229.137 84.26 228.523 84.26C227.23 84.26 226.583 84.5867 226.583 85.24C226.583 85.56 226.737 85.8067 227.043 85.98C227.35 86.1533 227.897 86.36 228.683 86.6L229.403 86.82C230.243 87.0867 230.897 87.38 231.363 87.7C231.843 88.02 232.177 88.38 232.363 88.78C232.55 89.18 232.643 89.6667 232.643 90.24C232.643 91.16 232.243 91.9 231.443 92.46C230.657 93.02 229.477 93.3 227.903 93.3ZM235.813 86.74C235.146 86.74 234.666 86.5933 234.373 86.3C234.08 85.9933 233.933 85.5333 233.933 84.92V83.36H236.653V84.22C236.653 84.3933 236.693 84.52 236.773 84.6C236.853 84.68 236.993 84.72 237.193 84.72H239.553V86.74H235.813ZM235.813 92.14C235.146 92.14 234.666 91.9867 234.373 91.68C234.08 91.3733 233.933 90.9133 233.933 90.3V88.74H236.653V89.6C236.653 89.7733 236.693 89.9 236.773 89.98C236.853 90.06 236.993 90.1 237.193 90.1H239.553V92.14H235.813ZM241.148 87.12H244.148L245.048 90.74C245.968 90.74 246.728 90.46 247.328 89.9C247.941 89.3267 248.248 88.5467 248.248 87.56C248.248 86.4933 247.961 85.6933 247.388 85.16C246.828 84.6267 245.861 84.36 244.488 84.36C243.848 84.36 243.188 84.4267 242.508 84.56C241.828 84.6933 241.268 84.8667 240.828 85.08V82.74C241.361 82.5133 241.994 82.3333 242.728 82.2C243.474 82.0667 244.228 82 244.988 82C247.054 82 248.628 82.4733 249.708 83.42C250.801 84.3533 251.348 85.72 251.348 87.52C251.348 88.6133 251.074 89.5733 250.528 90.4C249.994 91.2267 249.268 91.8667 248.348 92.32C247.441 92.7733 246.441 93 245.348 93H242.608L241.148 87.12ZM249.284 81.26C248.604 81.26 248.031 81.0333 247.564 80.58C247.097 80.1133 246.864 79.54 246.864 78.86C246.864 78.1933 247.104 77.6267 247.584 77.16C248.051 76.68 248.617 76.44 249.284 76.44C249.951 76.44 250.517 76.68 250.984 77.16C251.451 77.6267 251.684 78.1933 251.684 78.86C251.684 79.54 251.451 80.1133 250.984 80.58C250.517 81.0333 249.951 81.26 249.284 81.26ZM249.284 79.7C249.497 79.7 249.684 79.62 249.844 79.46C249.991 79.2867 250.064 79.0933 250.064 78.88C250.064 78.6533 249.991 78.46 249.844 78.3C249.684 78.14 249.497 78.06 249.284 78.06C249.057 78.06 248.871 78.14 248.724 78.3C248.564 78.46 248.484 78.6533 248.484 78.88C248.484 79.0933 248.564 79.2867 248.724 79.46C248.871 79.62 249.057 79.7 249.284 79.7ZM256.264 86.34C256.264 85.6467 256.117 85.1467 255.824 84.84C255.531 84.52 255.017 84.36 254.284 84.36C253.577 84.36 252.864 84.54 252.144 84.9V82.6C252.464 82.44 252.891 82.3 253.424 82.18C253.971 82.06 254.497 82 255.004 82C256.404 82 257.471 82.3733 258.204 83.12C258.937 83.8667 259.304 84.9467 259.304 86.36V93H256.264V86.34ZM263.664 93C262.93 93 262.364 92.7933 261.964 92.38C261.577 91.9533 261.384 91.3667 261.384 90.62V82.3H264.424V89.8C264.424 90.12 264.49 90.3467 264.624 90.48C264.757 90.6133 264.977 90.68 265.284 90.68H265.984V93H263.664ZM272.574 93.3C270.921 93.3 269.614 92.84 268.654 91.92C267.694 91 267.214 89.6533 267.214 87.88C267.214 86.0267 267.768 84.5867 268.874 83.56C269.981 82.52 271.508 82 273.454 82C275.468 82 276.948 82.4667 277.894 83.4C278.854 84.3333 279.334 85.56 279.334 87.08V93H276.314V87.06C276.314 86.18 276.088 85.5133 275.634 85.06C275.194 84.5933 274.468 84.36 273.454 84.36C272.494 84.36 271.734 84.66 271.174 85.26C270.614 85.86 270.334 86.7333 270.334 87.88C270.334 88.9333 270.561 89.7067 271.014 90.2C271.481 90.6933 272.188 90.94 273.134 90.94C273.641 90.94 274.094 90.8667 274.494 90.72V93.04C273.974 93.2133 273.334 93.3 272.574 93.3ZM270.122 79.06H273.842V76.94H275.942V79.06H277.282V76.94H279.362V80.98H270.122V79.06ZM285.842 93.3C284.949 93.3 284.069 93.2067 283.202 93.02C282.336 92.8467 281.616 92.6 281.042 92.28V86.66H286.102V88.88H284.022V90.6C284.436 90.8267 285.042 90.94 285.842 90.94C287.962 90.94 289.022 89.8333 289.022 87.62C289.022 86.4867 288.716 85.66 288.102 85.14C287.489 84.62 286.456 84.36 285.002 84.36C284.336 84.36 283.649 84.4333 282.942 84.58C282.249 84.7133 281.662 84.9067 281.182 85.16V82.8C281.729 82.5467 282.389 82.3533 283.162 82.22C283.936 82.0733 284.742 82 285.582 82C287.729 82 289.356 82.4933 290.462 83.48C291.582 84.4533 292.142 85.8333 292.142 87.62C292.142 89.38 291.596 90.7667 290.502 91.78C289.409 92.7933 287.856 93.3 285.842 93.3ZM297.985 93.3C297.118 93.3 296.372 93.12 295.745 92.76C295.118 92.4 294.638 91.9067 294.305 91.28C293.985 90.6533 293.825 89.9533 293.825 89.18V82.3H296.865V89C296.865 90.2933 297.552 90.94 298.925 90.94C299.485 90.94 299.965 90.8267 300.365 90.6C300.778 90.36 301.138 89.9933 301.445 89.5V82.3H304.465V93H301.585V91.8C301.118 92.2933 300.565 92.6667 299.925 92.92C299.298 93.1733 298.652 93.3 297.985 93.3Z" fill="black"/>
<path d="M42.8095 99.5268C42.068 100.323 40.8068 100.323 40.0652 99.5268L28.2697 86.8632C27.5544 86.0952 27.5544 84.9048 28.2697 84.1368L40.0652 71.4732C40.8068 70.677 42.068 70.677 42.8095 71.4732C43.4802 72.1932 43.4802 73.3093 42.8095 74.0293L33.395 84.1368C32.6796 84.9048 32.6796 86.0952 33.395 86.8632L42.8095 96.9707C43.4802 97.6907 43.4802 98.8068 42.8095 99.5268Z" fill="#535353"/>
<path d="M152.415 147.36C152.075 147.71 151.513 147.71 151.173 147.36L146.352 142.393C145.599 141.617 145.599 140.383 146.352 139.607L151.173 134.64C151.513 134.29 152.075 134.29 152.415 134.64C152.741 134.976 152.741 135.509 152.415 135.845L148.764 139.607C148.011 140.383 148.011 141.617 148.764 142.393L152.415 146.155C152.741 146.491 152.741 147.024 152.415 147.36Z" fill="black"/>
<path d="M260.585 147.36C260.925 147.71 261.487 147.71 261.827 147.36L266.648 142.393C267.401 141.617 267.401 140.383 266.648 139.607L261.827 134.64C261.487 134.29 260.925 134.29 260.585 134.64C260.259 134.976 260.259 135.509 260.585 135.845L264.236 139.607C264.989 140.383 264.989 141.617 264.236 142.393L260.585 146.155C260.259 146.491 260.259 147.024 260.585 147.36Z" fill="black"/>
<rect x="39" y="185" width="322" height="131" rx="20" fill="#BDE48C"/>
<path d="M165.307 140.762L164.657 139.683C165.134 139.085 165.68 138.63 166.295 138.318C166.919 138.006 167.639 137.85 168.453 137.85C169.537 137.85 170.364 138.093 170.936 138.578C171.517 139.063 171.807 139.735 171.807 140.593V145H170.156V140.723C170.156 140.186 170.013 139.787 169.727 139.527C169.441 139.267 169.017 139.137 168.453 139.137C168.029 139.137 167.652 139.198 167.322 139.319C167.002 139.44 166.703 139.64 166.425 139.917L166.958 140.775V145H165.307V140.762ZM175.355 145.195C174.861 145.195 174.359 145.143 173.847 145.039C173.345 144.935 172.95 144.779 172.664 144.571V143.284C173.046 143.509 173.466 143.678 173.925 143.791C174.393 143.904 174.822 143.96 175.212 143.96C175.732 143.96 176.105 143.908 176.33 143.804C176.564 143.7 176.681 143.505 176.681 143.219C176.681 143.02 176.621 142.864 176.499 142.751C176.378 142.63 176.213 142.53 176.005 142.452C175.797 142.374 175.407 142.248 174.835 142.075C174.09 141.841 173.531 141.559 173.158 141.23C172.794 140.901 172.612 140.454 172.612 139.891C172.612 139.241 172.872 138.738 173.392 138.383C173.912 138.028 174.614 137.85 175.498 137.85C175.966 137.85 176.413 137.902 176.837 138.006C177.271 138.101 177.626 138.231 177.903 138.396V139.748C177.617 139.566 177.271 139.419 176.863 139.306C176.465 139.193 176.062 139.137 175.654 139.137C174.727 139.137 174.263 139.388 174.263 139.891C174.263 140.073 174.32 140.22 174.432 140.333C174.545 140.446 174.697 140.541 174.887 140.619C175.078 140.688 175.368 140.784 175.758 140.905L176.187 141.035C176.742 141.208 177.171 141.395 177.474 141.594C177.786 141.793 178.003 142.023 178.124 142.283C178.254 142.543 178.319 142.864 178.319 143.245C178.319 143.826 178.072 144.298 177.578 144.662C177.084 145.017 176.343 145.195 175.355 145.195ZM179.503 140.762L178.853 139.683C179.33 139.085 179.876 138.63 180.491 138.318C181.115 138.006 181.835 137.85 182.649 137.85C183.733 137.85 184.56 138.093 185.132 138.578C185.713 139.063 186.003 139.735 186.003 140.593V145H184.352V140.723C184.352 140.186 184.209 139.787 183.923 139.527C183.637 139.267 183.213 139.137 182.649 139.137C182.225 139.137 181.848 139.198 181.518 139.319C181.198 139.44 180.899 139.64 180.621 139.917L181.154 140.775V145H179.503V140.762ZM188.538 146.599C188.78 146.382 189.097 146.209 189.487 146.079C189.877 145.958 190.271 145.897 190.67 145.897C191.424 145.897 192.03 146.044 192.49 146.339V140.723C192.49 140.186 192.347 139.787 192.061 139.527C191.775 139.267 191.35 139.137 190.787 139.137C190.371 139.137 190.002 139.198 189.682 139.319C189.37 139.44 189.075 139.622 188.798 139.865L189.552 140.762V143.531C189.552 143.99 189.426 144.35 189.175 144.61C188.932 144.87 188.585 145 188.135 145H186.809V143.622H187.316C187.541 143.622 187.693 143.579 187.771 143.492C187.857 143.405 187.901 143.245 187.901 143.011V140.762L186.991 139.683C187.918 138.461 189.188 137.85 190.8 137.85C191.874 137.85 192.698 138.093 193.27 138.578C193.85 139.063 194.141 139.735 194.141 140.593V147.873H192.685C192.381 147.63 192.065 147.453 191.736 147.34C191.415 147.236 191.06 147.184 190.67 147.184C190.271 147.184 189.881 147.249 189.5 147.379C189.127 147.518 188.806 147.708 188.538 147.951V146.599ZM197.437 140.554C197.437 140.043 197.333 139.679 197.125 139.462C196.926 139.245 196.562 139.137 196.033 139.137C195.548 139.137 195.054 139.263 194.551 139.514V138.227C194.759 138.123 195.032 138.036 195.37 137.967C195.717 137.889 196.055 137.85 196.384 137.85C197.277 137.85 197.949 138.093 198.399 138.578C198.859 139.063 199.088 139.757 199.088 140.658V145H197.437V140.554ZM200.148 140.788C200.148 139.852 200.455 139.128 201.071 138.617C201.695 138.106 202.535 137.85 203.593 137.85C204.65 137.85 205.486 138.106 206.102 138.617C206.717 139.128 207.025 139.852 207.025 140.788V145H205.374V140.723C205.374 140.194 205.218 139.8 204.906 139.54C204.602 139.271 204.165 139.137 203.593 139.137C203.021 139.137 202.579 139.267 202.267 139.527C201.955 139.787 201.799 140.186 201.799 140.723V141.867C201.911 141.685 202.076 141.538 202.293 141.425C202.518 141.312 202.778 141.256 203.073 141.256H204.126V142.634H202.956C202.618 142.634 202.34 142.747 202.124 142.972C201.907 143.189 201.799 143.453 201.799 143.765V145H200.148V140.788ZM212.081 145.195C211.648 145.195 211.219 145.108 210.794 144.935C210.378 144.753 210.005 144.489 209.676 144.142V145H208.09V138.045H209.741V142.842C210.192 143.553 210.816 143.908 211.613 143.908C212.636 143.908 213.147 143.431 213.147 142.478V138.045H214.785V142.556C214.785 143.05 214.677 143.501 214.46 143.908C214.252 144.307 213.944 144.623 213.537 144.857C213.13 145.082 212.644 145.195 212.081 145.195ZM219.767 143.934L221.561 142.283L222.419 141.516C222.895 141.1 223.255 140.766 223.498 140.515C223.749 140.264 223.953 139.995 224.109 139.709C224.265 139.414 224.343 139.098 224.343 138.76C224.343 138.266 224.195 137.889 223.901 137.629C223.615 137.36 223.203 137.226 222.666 137.226C222.25 137.226 221.816 137.304 221.366 137.46C220.924 137.607 220.521 137.82 220.157 138.097V136.524C220.911 135.987 221.838 135.718 222.939 135.718C223.909 135.718 224.663 135.978 225.201 136.498C225.738 137.018 226.007 137.729 226.007 138.63C226.007 139.055 225.924 139.453 225.76 139.826C225.595 140.19 225.361 140.545 225.058 140.892C224.754 141.239 224.343 141.65 223.823 142.127L222.198 143.635H226.332V145H219.767V143.934ZM229.484 145.195C228.999 145.195 228.522 145.143 228.054 145.039C227.586 144.935 227.192 144.792 226.871 144.61V143.219C227.235 143.444 227.647 143.622 228.106 143.752C228.565 143.873 229.003 143.934 229.419 143.934C230.918 143.934 231.668 143.34 231.668 142.153C231.668 141.581 231.482 141.143 231.109 140.84C230.745 140.537 230.229 140.385 229.562 140.385C229.259 140.385 228.938 140.415 228.6 140.476C228.262 140.537 227.963 140.619 227.703 140.723L227.014 140.333L227.365 135.913H232.695V137.278H228.86L228.691 139.358C229.168 139.254 229.696 139.202 230.277 139.202C231.239 139.202 231.989 139.466 232.526 139.995C233.063 140.524 233.332 141.243 233.332 142.153C233.332 143.141 233.011 143.895 232.37 144.415C231.729 144.935 230.767 145.195 229.484 145.195ZM237.423 145.195C236.747 145.195 236.14 145.039 235.603 144.727C235.066 144.415 234.641 143.96 234.329 143.362C234.026 142.764 233.874 142.049 233.874 141.217C233.874 140.047 234.047 139.05 234.394 138.227C234.749 137.404 235.256 136.78 235.915 136.355C236.582 135.93 237.371 135.718 238.281 135.718C238.81 135.718 239.278 135.779 239.685 135.9V137.226C239.347 137.07 238.922 136.992 238.411 136.992C237.562 136.992 236.89 137.248 236.396 137.759C235.902 138.262 235.607 138.994 235.512 139.956C235.798 139.653 236.149 139.432 236.565 139.293C236.981 139.146 237.436 139.072 237.93 139.072C238.519 139.072 239.035 139.193 239.477 139.436C239.928 139.679 240.274 140.025 240.517 140.476C240.76 140.918 240.881 141.447 240.881 142.062C240.881 142.66 240.747 143.197 240.478 143.674C240.209 144.151 239.811 144.523 239.282 144.792C238.762 145.061 238.142 145.195 237.423 145.195ZM237.423 143.986C237.978 143.986 238.42 143.817 238.749 143.479C239.087 143.141 239.256 142.695 239.256 142.14C239.256 141.577 239.087 141.126 238.749 140.788C238.42 140.45 237.978 140.281 237.423 140.281C236.903 140.281 236.47 140.459 236.123 140.814C235.776 141.161 235.603 141.603 235.603 142.14C235.603 142.469 235.677 142.777 235.824 143.063C235.98 143.34 236.192 143.566 236.461 143.739C236.738 143.904 237.059 143.986 237.423 143.986ZM244.881 145.195C243.823 145.195 242.983 144.961 242.359 144.493C241.735 144.016 241.423 143.345 241.423 142.478C241.423 141.915 241.561 141.442 241.839 141.061C242.125 140.68 242.502 140.415 242.97 140.268C242.58 140.077 242.276 139.809 242.06 139.462C241.843 139.107 241.735 138.704 241.735 138.253C241.735 137.464 242.021 136.845 242.593 136.394C243.165 135.943 243.927 135.718 244.881 135.718C245.843 135.718 246.605 135.943 247.169 136.394C247.741 136.845 248.027 137.464 248.027 138.253C248.027 138.704 247.918 139.107 247.702 139.462C247.485 139.809 247.182 140.077 246.792 140.268C247.26 140.415 247.632 140.68 247.91 141.061C248.196 141.442 248.339 141.915 248.339 142.478C248.339 143.345 248.027 144.016 247.403 144.493C246.787 144.961 245.947 145.195 244.881 145.195ZM244.881 139.8C245.366 139.8 245.756 139.674 246.051 139.423C246.345 139.163 246.493 138.816 246.493 138.383C246.493 137.95 246.341 137.599 246.038 137.33C245.743 137.061 245.357 136.927 244.881 136.927C244.404 136.927 244.018 137.061 243.724 137.33C243.429 137.599 243.282 137.95 243.282 138.383C243.282 138.816 243.429 139.163 243.724 139.423C244.018 139.674 244.404 139.8 244.881 139.8ZM244.881 144.012C245.444 144.012 245.89 143.869 246.22 143.583C246.549 143.288 246.714 142.885 246.714 142.374C246.714 141.88 246.545 141.49 246.207 141.204C245.869 140.918 245.427 140.775 244.881 140.775C244.335 140.775 243.893 140.918 243.555 141.204C243.217 141.49 243.048 141.88 243.048 142.374C243.048 142.885 243.212 143.288 243.542 143.583C243.88 143.869 244.326 144.012 244.881 144.012Z" fill="black"/>
<path d="M72.6666 215C72.2159 215 71.8693 214.874 71.6266 214.623C71.3926 214.363 71.2756 214.003 71.2756 213.544V208.045H72.9266V213.024C72.9266 213.249 72.9743 213.405 73.0696 213.492C73.1649 213.579 73.3209 213.622 73.5376 213.622H73.9926V215H72.6666ZM74.7873 208.045H76.4383V210.827L79.4413 208.045H81.3393L79.4413 209.8C80.1433 209.982 80.633 210.277 80.9103 210.684C81.1877 211.091 81.3263 211.633 81.3263 212.309V215H79.6753V212.426C79.6753 211.932 79.5843 211.559 79.4023 211.308C79.229 211.057 78.9083 210.879 78.4403 210.775L76.4383 212.634V215H74.7873V208.045ZM85.5586 215.195C84.51 215.195 83.678 214.9 83.0626 214.311C82.4473 213.713 82.1396 212.842 82.1396 211.698C82.1396 210.918 82.2523 210.238 82.4776 209.657C82.703 209.076 83.015 208.63 83.4136 208.318C83.8123 208.006 84.2586 207.85 84.7526 207.85C85.394 207.85 85.862 208.097 86.1566 208.591C86.3213 208.331 86.5553 208.145 86.8586 208.032C87.162 207.911 87.4956 207.85 87.8596 207.85C88.4836 207.85 88.956 208.049 89.2766 208.448C89.5973 208.838 89.7576 209.362 89.7576 210.021V215H88.1066V210.138C88.1066 209.791 88.0546 209.54 87.9506 209.384C87.8466 209.219 87.669 209.137 87.4176 209.137C86.9843 209.137 86.72 209.388 86.6246 209.891H85.7016C85.6496 209.388 85.4243 209.137 85.0256 209.137C84.6703 209.137 84.38 209.358 84.1546 209.8C83.938 210.233 83.8296 210.866 83.8296 211.698C83.8296 213.171 84.5013 213.908 85.8446 213.908C86.1653 213.908 86.4643 213.865 86.7416 213.778V215.039C86.4036 215.143 86.0093 215.195 85.5586 215.195ZM87.8087 217.145C87.8087 216.989 87.7827 216.881 87.7307 216.82C87.6787 216.759 87.5747 216.729 87.4187 216.729H86.9637V215.676H88.1727C88.6061 215.676 88.9007 215.754 89.0567 215.91C89.2127 216.075 89.2907 216.369 89.2907 216.794V218.484H87.8087V217.145ZM90.7017 210.762L90.0517 209.683C90.5284 209.085 91.0744 208.63 91.6897 208.318C92.3137 208.006 93.0331 207.85 93.8477 207.85C94.9311 207.85 95.7587 208.093 96.3307 208.578C96.9114 209.063 97.2017 209.735 97.2017 210.593V215H95.5507V210.723C95.5507 210.186 95.4077 209.787 95.1217 209.527C94.8357 209.267 94.4111 209.137 93.8477 209.137C93.4231 209.137 93.0461 209.198 92.7167 209.319C92.3961 209.44 92.0971 209.64 91.8197 209.917L92.3527 210.775V215H90.7017V210.762ZM100.503 210.554C100.503 210.043 100.399 209.679 100.191 209.462C99.9915 209.245 99.6275 209.137 99.0988 209.137C98.6135 209.137 98.1195 209.263 97.6168 209.514V208.227C97.8248 208.123 98.0978 208.036 98.4358 207.967C98.7825 207.889 99.1205 207.85 99.4498 207.85C100.342 207.85 101.014 208.093 101.465 208.578C101.924 209.063 102.154 209.757 102.154 210.658V215H100.503V210.554ZM105.696 215.195C105.202 215.195 104.699 215.143 104.188 215.039C103.685 214.935 103.291 214.779 103.005 214.571V213.284C103.386 213.509 103.807 213.678 104.266 213.791C104.734 213.904 105.163 213.96 105.553 213.96C106.073 213.96 106.446 213.908 106.671 213.804C106.905 213.7 107.022 213.505 107.022 213.219C107.022 213.02 106.961 212.864 106.84 212.751C106.719 212.63 106.554 212.53 106.346 212.452C106.138 212.374 105.748 212.248 105.176 212.075C104.431 211.841 103.872 211.559 103.499 211.23C103.135 210.901 102.953 210.454 102.953 209.891C102.953 209.241 103.213 208.738 103.733 208.383C104.253 208.028 104.955 207.85 105.839 207.85C106.307 207.85 106.753 207.902 107.178 208.006C107.611 208.101 107.967 208.231 108.244 208.396V209.748C107.958 209.566 107.611 209.419 107.204 209.306C106.805 209.193 106.402 209.137 105.995 209.137C105.068 209.137 104.604 209.388 104.604 209.891C104.604 210.073 104.66 210.22 104.773 210.333C104.886 210.446 105.037 210.541 105.228 210.619C105.419 210.688 105.709 210.784 106.099 210.905L106.528 211.035C107.083 211.208 107.512 211.395 107.815 211.594C108.127 211.793 108.344 212.023 108.465 212.283C108.595 212.543 108.66 212.864 108.66 213.245C108.66 213.826 108.413 214.298 107.919 214.662C107.425 215.017 106.684 215.195 105.696 215.195ZM117.007 215.195C116.461 215.195 115.993 215.082 115.603 214.857C115.222 214.623 114.932 214.307 114.732 213.908C114.533 213.501 114.433 213.05 114.433 212.556V210.723C114.433 210.177 114.303 209.778 114.043 209.527C113.783 209.267 113.389 209.137 112.86 209.137C112.462 209.137 112.111 209.198 111.807 209.319C111.504 209.44 111.222 209.64 110.962 209.917L111.495 210.775V213.011C111.495 213.236 111.543 213.397 111.638 213.492C111.742 213.579 111.911 213.622 112.145 213.622H112.847V215H111.261C110.802 215 110.451 214.87 110.208 214.61C109.966 214.35 109.844 213.995 109.844 213.544V210.762L109.194 209.683C109.671 209.085 110.204 208.63 110.793 208.318C111.391 208.006 112.08 207.85 112.86 207.85C113.909 207.85 114.706 208.093 115.252 208.578C115.798 209.055 116.071 209.726 116.071 210.593V212.478C116.071 212.963 116.184 213.323 116.409 213.557C116.635 213.791 116.99 213.908 117.475 213.908C117.857 213.908 118.203 213.817 118.515 213.635C118.836 213.444 119.074 213.18 119.23 212.842V208.045H120.868V215H119.282V214.181C118.736 214.857 117.978 215.195 117.007 215.195ZM117.08 206.264C117.08 205.9 117.175 205.627 117.366 205.445C117.557 205.254 117.864 205.159 118.289 205.159H121.162V206.212H118.952C118.805 206.212 118.705 206.242 118.653 206.303C118.592 206.364 118.562 206.468 118.562 206.615V207.096H117.08V206.264ZM121.429 208.045H123.08V210.827L126.083 208.045H127.981L126.083 209.8C126.785 209.982 127.275 210.277 127.552 210.684C127.829 211.091 127.968 211.633 127.968 212.309V215H126.317V212.426C126.317 211.932 126.226 211.559 126.044 211.308C125.871 211.057 125.55 210.879 125.082 210.775L123.08 212.634V215H121.429V208.045ZM129.431 210.762L128.781 209.683C129.258 209.085 129.804 208.63 130.419 208.318C131.043 208.006 131.763 207.85 132.577 207.85C133.661 207.85 134.488 208.093 135.06 208.578C135.641 209.063 135.931 209.735 135.931 210.593V215H134.28V210.723C134.28 210.186 134.137 209.787 133.851 209.527C133.565 209.267 133.141 209.137 132.577 209.137C132.153 209.137 131.776 209.198 131.446 209.319C131.126 209.44 130.827 209.64 130.549 209.917L131.082 210.775V215H129.431V210.762ZM139.31 215.195C138.539 215.195 137.915 215 137.438 214.61C136.97 214.22 136.736 213.67 136.736 212.959C136.736 212.491 136.853 212.079 137.087 211.724C137.33 211.369 137.668 211.091 138.101 210.892C138.543 210.693 139.059 210.593 139.648 210.593C140.489 210.593 141.217 210.736 141.832 211.022V210.71C141.832 210.173 141.672 209.778 141.351 209.527C141.039 209.267 140.532 209.137 139.83 209.137C139.406 209.137 138.985 209.18 138.569 209.267C138.162 209.354 137.807 209.471 137.503 209.618V208.331C137.781 208.201 138.162 208.088 138.647 207.993C139.141 207.898 139.622 207.85 140.09 207.85C141.217 207.85 142.062 208.106 142.625 208.617C143.189 209.128 143.47 209.813 143.47 210.671V215H141.832V212.322C141.252 212.027 140.589 211.88 139.843 211.88C139.358 211.88 138.994 211.975 138.751 212.166C138.517 212.348 138.4 212.617 138.4 212.972C138.4 213.293 138.509 213.531 138.725 213.687C138.942 213.834 139.284 213.908 139.752 213.908C140.047 213.908 140.303 213.865 140.519 213.778V215.039C140.199 215.143 139.796 215.195 139.31 215.195ZM140.008 206.277C140.008 206.182 139.991 206.112 139.956 206.069C139.913 206.026 139.839 206.004 139.735 206.004H139.137V204.86H140.242C140.537 204.86 140.754 204.934 140.892 205.081C141.031 205.22 141.1 205.393 141.1 205.601V206.017H143.765V207.096H140.008V206.277ZM148.023 215.195C147.59 215.195 147.161 215.108 146.736 214.935C146.32 214.753 145.948 214.489 145.618 214.142V215H144.032V208.045H145.683V212.842C146.134 213.553 146.758 213.908 147.555 213.908C148.578 213.908 149.089 213.431 149.089 212.478V208.045H150.727V212.556C150.727 213.05 150.619 213.501 150.402 213.908C150.194 214.307 149.887 214.623 149.479 214.857C149.072 215.082 148.587 215.195 148.023 215.195Z" fill="#161717"/>
<path d="M74.2658 245.195C73.6245 245.195 73.0612 245.087 72.5758 244.87C72.0905 244.645 71.7135 244.337 71.4448 243.947C71.1762 243.548 71.0418 243.098 71.0418 242.595V242.27C71.0418 241.967 71.1068 241.685 71.2368 241.425C71.3668 241.165 71.5445 240.875 71.7698 240.554C71.9258 240.32 72.0342 240.151 72.0948 240.047C72.1555 239.943 72.1858 239.839 72.1858 239.735C72.1858 239.475 72.0255 239.345 71.7048 239.345H70.9638V238.045H72.5758C72.9658 238.045 73.2735 238.158 73.4988 238.383C73.7328 238.6 73.8498 238.894 73.8498 239.267C73.8498 239.527 73.7978 239.765 73.6938 239.982C73.5985 240.199 73.4555 240.463 73.2648 240.775C73.0742 241.087 72.9312 241.347 72.8358 241.555C72.7405 241.754 72.6928 241.971 72.6928 242.205V242.53C72.6928 242.963 72.8272 243.301 73.0958 243.544C73.3732 243.787 73.7632 243.908 74.2658 243.908C74.7945 243.908 75.1975 243.765 75.4748 243.479C75.7608 243.184 75.9038 242.755 75.9038 242.192C75.9038 241.057 75.4402 240.489 74.5128 240.489V239.618L75.8388 237.85H77.6068L76.1638 239.774C76.6578 240.008 77.0132 240.32 77.2298 240.71C77.4465 241.1 77.5548 241.594 77.5548 242.192C77.5548 242.773 77.4205 243.293 77.1518 243.752C76.8832 244.203 76.4975 244.558 75.9948 244.818C75.5008 245.069 74.9245 245.195 74.2658 245.195ZM75.2065 234.86H76.8575V237.096H75.2065V234.86ZM80.2315 245.195C79.0962 245.195 78.2338 245.009 77.6445 244.636V243.336C78.1818 243.717 78.9315 243.908 79.8935 243.908C80.6822 243.908 81.2932 243.713 81.7265 243.323C82.1598 242.924 82.3765 242.326 82.3765 241.529C82.3765 240.732 82.1598 240.134 81.7265 239.735C81.2932 239.336 80.6822 239.137 79.8935 239.137C78.9835 239.137 78.2468 239.328 77.6835 239.709V238.409C78.2815 238.036 79.1308 237.85 80.2315 237.85C81.4275 237.85 82.3635 238.175 83.0395 238.825C83.7242 239.466 84.0665 240.368 84.0665 241.529C84.0665 242.682 83.7242 243.583 83.0395 244.233C82.3548 244.874 81.4188 245.195 80.2315 245.195ZM84.6094 238.916H86.2604L87.7814 243.713C88.5094 243.713 89.0684 243.509 89.4584 243.102C89.857 242.686 90.0564 242.097 90.0564 241.334C90.0564 240.597 89.922 240.047 89.6534 239.683C89.3847 239.319 88.9557 239.137 88.3664 239.137C88.0457 239.137 87.7467 239.18 87.4694 239.267V238.006C87.8074 237.902 88.2017 237.85 88.6524 237.85C89.6664 237.85 90.4334 238.158 90.9534 238.773C91.482 239.388 91.7464 240.242 91.7464 241.334C91.7464 242.097 91.5774 242.755 91.2394 243.31C90.91 243.865 90.4637 244.285 89.9004 244.571C89.337 244.857 88.713 245 88.0284 245H86.5334L84.6094 238.916ZM93.9361 245C93.4855 245 93.1388 244.874 92.8961 244.623C92.6621 244.363 92.5451 244.003 92.5451 243.544V238.045H94.1961V243.024C94.1961 243.249 94.2438 243.405 94.3391 243.492C94.4345 243.579 94.5905 243.622 94.8071 243.622H95.2621V245H93.9361ZM98.3839 245.195C97.2485 245.195 96.3862 245.009 95.7969 244.636V243.336C96.3342 243.717 97.0839 243.908 98.0459 243.908C98.8345 243.908 99.4455 243.713 99.8789 243.323C100.312 242.924 100.529 242.326 100.529 241.529C100.529 240.732 100.312 240.134 99.8789 239.735C99.4455 239.336 98.8345 239.137 98.0459 239.137C97.1359 239.137 96.3992 239.328 95.8359 239.709V238.409C96.4339 238.036 97.2832 237.85 98.3839 237.85C99.5799 237.85 100.516 238.175 101.192 238.825C101.877 239.466 102.219 240.368 102.219 241.529C102.219 242.682 101.877 243.583 101.192 244.233C100.507 244.874 99.5712 245.195 98.3839 245.195ZM105.336 245.195C104.564 245.195 103.94 245 103.464 244.61C102.996 244.22 102.762 243.67 102.762 242.959C102.762 242.491 102.879 242.079 103.113 241.724C103.355 241.369 103.693 241.091 104.127 240.892C104.569 240.693 105.084 240.593 105.674 240.593C106.514 240.593 107.242 240.736 107.858 241.022V240.71C107.858 240.173 107.697 239.778 107.377 239.527C107.065 239.267 106.558 239.137 105.856 239.137C105.431 239.137 105.011 239.18 104.595 239.267C104.187 239.354 103.832 239.471 103.529 239.618V238.331C103.806 238.201 104.187 238.088 104.673 237.993C105.167 237.898 105.648 237.85 106.116 237.85C107.242 237.85 108.087 238.106 108.651 238.617C109.214 239.128 109.496 239.813 109.496 240.671V245H107.858V242.322C107.277 242.027 106.614 241.88 105.869 241.88C105.383 241.88 105.019 241.975 104.777 242.166C104.543 242.348 104.426 242.617 104.426 242.972C104.426 243.293 104.534 243.531 104.751 243.687C104.967 243.834 105.31 243.908 105.778 243.908C106.072 243.908 106.328 243.865 106.545 243.778V245.039C106.224 245.143 105.821 245.195 105.336 245.195ZM112.794 240.554C112.794 240.043 112.69 239.679 112.482 239.462C112.282 239.245 111.918 239.137 111.39 239.137C110.904 239.137 110.41 239.263 109.908 239.514V238.227C110.116 238.123 110.389 238.036 110.727 237.967C111.073 237.889 111.411 237.85 111.741 237.85C112.633 237.85 113.305 238.093 113.756 238.578C114.215 239.063 114.445 239.757 114.445 240.658V245H112.794V240.554ZM115.504 238.045H117.09V238.903C117.419 238.556 117.801 238.296 118.234 238.123C118.676 237.941 119.118 237.85 119.56 237.85C120.418 237.85 121.072 238.093 121.523 238.578C121.974 239.055 122.199 239.67 122.199 240.424V245H120.548V240.502C120.548 239.592 120.063 239.137 119.092 239.137C118.251 239.137 117.606 239.492 117.155 240.203V245H115.504V238.045ZM115.911 236.043H120.24V234.639H121.722V237.096H115.911V236.043ZM119.74 232.442H121.222V234.223H119.74V232.442ZM123.647 245C123.196 245 122.85 244.874 122.607 244.623C122.373 244.363 122.256 244.003 122.256 243.544V238.045H123.907V243.024C123.907 243.249 123.955 243.405 124.05 243.492C124.145 243.579 124.301 243.622 124.518 243.622H124.973V245H123.647ZM126.158 240.762L125.508 239.683C125.984 239.085 126.53 238.63 127.146 238.318C127.77 238.006 128.489 237.85 129.304 237.85C130.387 237.85 131.215 238.093 131.787 238.578C132.367 239.063 132.658 239.735 132.658 240.593V245H131.007V240.723C131.007 240.186 130.864 239.787 130.578 239.527C130.292 239.267 129.867 239.137 129.304 239.137C128.879 239.137 128.502 239.198 128.173 239.319C127.852 239.44 127.553 239.64 127.276 239.917L127.809 240.775V245H126.158V240.762ZM126.352 236.043H132.163V237.096H126.352V236.043ZM136.382 245.195C135.325 245.195 134.488 244.9 133.873 244.311C133.266 243.713 132.963 242.842 132.963 241.698C132.963 240.901 133.119 240.216 133.431 239.644C133.752 239.063 134.207 238.621 134.796 238.318C135.394 238.006 136.096 237.85 136.902 237.85C138.176 237.85 139.108 238.145 139.697 238.734C140.286 239.323 140.581 240.09 140.581 241.035V245H138.93V241.022C138.93 240.415 138.77 239.952 138.449 239.631C138.137 239.302 137.621 239.137 136.902 239.137C136.209 239.137 135.658 239.362 135.251 239.813C134.852 240.255 134.653 240.883 134.653 241.698C134.653 242.443 134.826 242.998 135.173 243.362C135.52 243.726 136.018 243.908 136.668 243.908C136.989 243.908 137.288 243.865 137.565 243.778V245.039C137.227 245.143 136.833 245.195 136.382 245.195ZM143.026 245C142.575 245 142.229 244.874 141.986 244.623C141.752 244.363 141.635 244.003 141.635 243.544V238.045H143.286V243.024C143.286 243.249 143.334 243.405 143.429 243.492C143.524 243.579 143.68 243.622 143.897 243.622H144.352V245H143.026ZM145.147 238.045H146.798V240.827L149.801 238.045H151.699L149.801 239.8C150.503 239.982 150.992 240.277 151.27 240.684C151.547 241.091 151.686 241.633 151.686 242.309V245H150.035V242.426C150.035 241.932 149.944 241.559 149.762 241.308C149.588 241.057 149.268 240.879 148.8 240.775L146.798 242.634V245H145.147V238.045ZM155.918 245.195C154.869 245.195 154.037 244.9 153.422 244.311C152.807 243.713 152.499 242.842 152.499 241.698C152.499 240.918 152.612 240.238 152.837 239.657C153.062 239.076 153.374 238.63 153.773 238.318C154.172 238.006 154.618 237.85 155.112 237.85C155.753 237.85 156.221 238.097 156.516 238.591C156.681 238.331 156.915 238.145 157.218 238.032C157.521 237.911 157.855 237.85 158.219 237.85C158.843 237.85 159.315 238.049 159.636 238.448C159.957 238.838 160.117 239.362 160.117 240.021V245H158.466V240.138C158.466 239.791 158.414 239.54 158.31 239.384C158.206 239.219 158.028 239.137 157.777 239.137C157.344 239.137 157.079 239.388 156.984 239.891H156.061C156.009 239.388 155.784 239.137 155.385 239.137C155.03 239.137 154.739 239.358 154.514 239.8C154.297 240.233 154.189 240.866 154.189 241.698C154.189 243.171 154.861 243.908 156.204 243.908C156.525 243.908 156.824 243.865 157.101 243.778V245.039C156.763 245.143 156.369 245.195 155.918 245.195ZM158.168 247.145C158.168 246.989 158.142 246.881 158.09 246.82C158.038 246.759 157.934 246.729 157.778 246.729H157.323V245.676H158.532C158.965 245.676 159.26 245.754 159.416 245.91C159.572 246.075 159.65 246.369 159.65 246.794V248.484H158.168V247.145ZM164.155 245.195C163.462 245.195 162.851 245.069 162.322 244.818C161.802 244.567 161.399 244.22 161.113 243.778C160.836 243.327 160.697 242.816 160.697 242.244V238.045H162.348V242.179C162.348 242.725 162.5 243.15 162.803 243.453C163.106 243.756 163.557 243.908 164.155 243.908C164.744 243.908 165.191 243.756 165.494 243.453C165.797 243.15 165.949 242.725 165.949 242.179V238.045H167.6V242.244C167.6 242.816 167.457 243.327 167.171 243.778C166.894 244.22 166.495 244.567 165.975 244.818C165.455 245.069 164.848 245.195 164.155 245.195ZM165.466 234.86H167.117V237.096H165.466V234.86ZM170.881 245.195C170.327 245.195 169.781 245.134 169.243 245.013C168.706 244.892 168.26 244.723 167.904 244.506V240.866H171.024V242.205H169.555V243.648C169.876 243.821 170.318 243.908 170.881 243.908C171.644 243.908 172.22 243.7 172.61 243.284C173 242.868 173.195 242.261 173.195 241.464C173.195 240.918 173.109 240.476 172.935 240.138C172.762 239.8 172.476 239.549 172.077 239.384C171.679 239.219 171.141 239.137 170.465 239.137C170.023 239.137 169.573 239.185 169.113 239.28C168.663 239.367 168.286 239.497 167.982 239.67V238.383C168.329 238.21 168.741 238.08 169.217 237.993C169.703 237.898 170.214 237.85 170.751 237.85C172.069 237.85 173.087 238.166 173.806 238.799C174.526 239.423 174.885 240.311 174.885 241.464C174.885 242.617 174.539 243.527 173.845 244.194C173.161 244.861 172.173 245.195 170.881 245.195ZM178.847 245.195C177.815 245.195 176.988 244.996 176.364 244.597C175.74 244.198 175.428 243.635 175.428 242.907C175.428 242.552 175.532 242.231 175.74 241.945C175.948 241.659 176.216 241.46 176.546 241.347C176.234 241.2 175.978 240.987 175.779 240.71C175.588 240.433 175.493 240.121 175.493 239.774C175.493 239.193 175.692 238.73 176.091 238.383C176.489 238.028 177.079 237.85 177.859 237.85C178.101 237.85 178.335 237.867 178.561 237.902C178.786 237.928 178.964 237.963 179.094 238.006V239.293C178.981 239.241 178.834 239.202 178.652 239.176C178.478 239.15 178.322 239.137 178.184 239.137C177.516 239.137 177.183 239.384 177.183 239.878C177.183 240.147 177.265 240.346 177.43 240.476C177.594 240.606 177.859 240.671 178.223 240.671H179.094V242.01H178.223C177.486 242.01 177.118 242.309 177.118 242.907C177.118 243.219 177.269 243.466 177.573 243.648C177.885 243.821 178.309 243.908 178.847 243.908C179.523 243.908 180.017 243.769 180.329 243.492C180.649 243.215 180.81 242.807 180.81 242.27V238.032H182.461V242.244C182.461 242.738 182.339 243.21 182.097 243.661C181.863 244.103 181.473 244.471 180.927 244.766C180.389 245.052 179.696 245.195 178.847 245.195ZM183.516 238.045H185.102V238.903C185.431 238.556 185.813 238.296 186.246 238.123C186.688 237.941 187.13 237.85 187.572 237.85C188.43 237.85 189.084 238.093 189.535 238.578C189.986 239.055 190.211 239.67 190.211 240.424V245H188.56V240.502C188.56 239.592 188.075 239.137 187.104 239.137C186.263 239.137 185.618 239.492 185.167 240.203V245H183.516V238.045ZM183.923 236.043H188.252V234.639H189.734V237.096H183.923V236.043ZM187.752 232.442H189.234V234.223H187.752V232.442ZM192.582 245.195C191.81 245.195 191.186 245 190.71 244.61C190.242 244.22 190.008 243.67 190.008 242.959C190.008 242.491 190.125 242.079 190.359 241.724C190.601 241.369 190.939 241.091 191.373 240.892C191.815 240.693 192.33 240.593 192.92 240.593C193.76 240.593 194.488 240.736 195.104 241.022V240.71C195.104 240.173 194.943 239.778 194.623 239.527C194.311 239.267 193.804 239.137 193.102 239.137C192.677 239.137 192.257 239.18 191.841 239.267C191.433 239.354 191.078 239.471 190.775 239.618V238.331C191.052 238.201 191.433 238.088 191.919 237.993C192.413 237.898 192.894 237.85 193.362 237.85C194.064 237.85 194.67 237.958 195.182 238.175L195.754 237.525H197.574L196.235 239.059C196.573 239.44 196.742 239.978 196.742 240.671V245H195.104V242.322C194.523 242.027 193.86 241.88 193.115 241.88C192.629 241.88 192.265 241.975 192.023 242.166C191.789 242.348 191.672 242.617 191.672 242.972C191.672 243.293 191.78 243.531 191.997 243.687C192.213 243.834 192.556 243.908 193.024 243.908C193.318 243.908 193.574 243.865 193.791 243.778V245.039C193.47 245.143 193.067 245.195 192.582 245.195ZM194.788 247.145C194.788 246.989 194.762 246.881 194.71 246.82C194.658 246.759 194.554 246.729 194.398 246.729H193.943V245.676H195.152C195.586 245.676 195.88 245.754 196.036 245.91C196.192 246.075 196.27 246.369 196.27 246.794V248.484H194.788V247.145ZM200.768 245.195C199.71 245.195 198.874 244.9 198.259 244.311C197.652 243.713 197.349 242.842 197.349 241.698C197.349 240.901 197.505 240.216 197.817 239.644C198.137 239.063 198.592 238.621 199.182 238.318C199.78 238.006 200.482 237.85 201.288 237.85C202.562 237.85 203.493 238.145 204.083 238.734C204.672 239.323 204.967 240.09 204.967 241.035V245H203.316V241.022C203.316 240.415 203.155 239.952 202.835 239.631C202.523 239.302 202.007 239.137 201.288 239.137C200.594 239.137 200.044 239.362 199.637 239.813C199.238 240.255 199.039 240.883 199.039 241.698C199.039 242.443 199.212 242.998 199.559 243.362C199.905 243.726 200.404 243.908 201.054 243.908C201.374 243.908 201.673 243.865 201.951 243.778V245.039C201.613 245.143 201.218 245.195 200.768 245.195Z" fill="#161717"/>
<path d="M74.2781 276.195C73.6367 276.195 73.0734 276.087 72.5881 275.87C72.1027 275.645 71.7257 275.337 71.4571 274.947C71.1884 274.548 71.0541 274.098 71.0541 273.595V273.27C71.0541 272.967 71.1191 272.685 71.2491 272.425C71.3791 272.165 71.5567 271.875 71.7821 271.554C71.9381 271.32 72.0464 271.151 72.1071 271.047C72.1677 270.943 72.1981 270.839 72.1981 270.735C72.1981 270.475 72.0377 270.345 71.7171 270.345H70.9761V269.045H72.5881C72.9781 269.045 73.2857 269.158 73.5111 269.383C73.7451 269.6 73.8621 269.894 73.8621 270.267C73.8621 270.527 73.8101 270.765 73.7061 270.982C73.6107 271.199 73.4677 271.463 73.2771 271.775C73.0864 272.087 72.9434 272.347 72.8481 272.555C72.7527 272.754 72.7051 272.971 72.7051 273.205V273.53C72.7051 273.963 72.8394 274.301 73.1081 274.544C73.3854 274.787 73.7754 274.908 74.2781 274.908C74.8067 274.908 75.2097 274.765 75.4871 274.479C75.7731 274.184 75.9161 273.755 75.9161 273.192C75.9161 272.057 75.4524 271.489 74.5251 271.489V270.618L75.8511 268.85H77.6191L76.1761 270.774C76.6701 271.008 77.0254 271.32 77.2421 271.71C77.4587 272.1 77.5671 272.594 77.5671 273.192C77.5671 273.773 77.4327 274.293 77.1641 274.752C76.8954 275.203 76.5097 275.558 76.0071 275.818C75.5131 276.069 74.9367 276.195 74.2781 276.195ZM71.0717 267.043H75.4007V265.639H76.8827V268.096H71.0717V267.043ZM77.5267 269.045H79.1777L80.2957 273.712L81.6477 269.045H82.8697L84.2217 273.712L85.3397 269.045H86.9907L85.0537 276H83.6627L82.2587 271.216L80.8547 276H79.4637L77.5267 269.045ZM87.6748 272.178H89.3128L89.9368 274.713C90.6648 274.713 91.2498 274.522 91.6918 274.141C92.1425 273.751 92.3678 273.201 92.3678 272.49C92.3678 271.727 92.1728 271.147 91.7828 270.748C91.3928 270.341 90.7472 270.137 89.8458 270.137C89.4125 270.137 88.9705 270.18 88.5198 270.267C88.0692 270.354 87.6965 270.466 87.4018 270.605V269.318C87.7398 269.171 88.1428 269.058 88.6108 268.98C89.0788 268.893 89.5598 268.85 90.0538 268.85C91.3105 268.85 92.2898 269.166 92.9918 269.799C93.7025 270.432 94.0578 271.329 94.0578 272.49C94.0578 273.192 93.8845 273.807 93.5378 274.336C93.1912 274.865 92.7188 275.276 92.1208 275.571C91.5228 275.857 90.8685 276 90.1578 276H88.6238L87.6748 272.178ZM97.3382 276.195C96.8442 276.195 96.3415 276.143 95.8302 276.039C95.3275 275.935 94.9332 275.779 94.6472 275.571V274.284C95.0285 274.509 95.4489 274.678 95.9082 274.791C96.3762 274.904 96.8052 274.96 97.1952 274.96C97.7152 274.96 98.0879 274.908 98.3132 274.804C98.5472 274.7 98.6642 274.505 98.6642 274.219C98.6642 274.02 98.6035 273.864 98.4822 273.751C98.3609 273.63 98.1962 273.53 97.9882 273.452C97.7802 273.374 97.3902 273.248 96.8182 273.075C96.0729 272.841 95.5139 272.559 95.1412 272.23C94.7772 271.901 94.5952 271.454 94.5952 270.891C94.5952 270.241 94.8552 269.738 95.3752 269.383C95.8952 269.028 96.5972 268.85 97.4812 268.85C97.9492 268.85 98.3955 268.902 98.8202 269.006C99.2535 269.101 99.6089 269.231 99.8862 269.396V270.748C99.6002 270.566 99.2535 270.419 98.8462 270.306C98.4475 270.193 98.0445 270.137 97.6372 270.137C96.7099 270.137 96.2462 270.388 96.2462 270.891C96.2462 271.073 96.3025 271.22 96.4152 271.333C96.5279 271.446 96.6795 271.541 96.8702 271.619C97.0609 271.688 97.3512 271.784 97.7412 271.905L98.1702 272.035C98.7249 272.208 99.1539 272.395 99.4572 272.594C99.7692 272.793 99.9859 273.023 100.107 273.283C100.237 273.543 100.302 273.864 100.302 274.245C100.302 274.826 100.055 275.298 99.5612 275.662C99.0672 276.017 98.3262 276.195 97.3382 276.195ZM101.096 270.566C101.096 270.072 101.226 269.695 101.486 269.435C101.755 269.175 102.136 269.045 102.63 269.045H103.813V270.423H103.332C103.107 270.423 102.951 270.471 102.864 270.566C102.778 270.661 102.734 270.83 102.734 271.073V273.66L104.229 271.32H104.879L106.374 273.66V269.045H108.012V276H106.53L104.554 272.867L102.578 276H101.096V270.566ZM101.706 267.043H107.517V268.096H101.706V267.043ZM111.736 276.195C110.679 276.195 109.842 275.9 109.227 275.311C108.62 274.713 108.317 273.842 108.317 272.698C108.317 271.901 108.473 271.216 108.785 270.644C109.106 270.063 109.561 269.621 110.15 269.318C110.748 269.006 111.45 268.85 112.256 268.85C113.53 268.85 114.462 269.145 115.051 269.734C115.64 270.323 115.935 271.09 115.935 272.035V276H114.284V272.022C114.284 271.415 114.124 270.952 113.803 270.631C113.491 270.302 112.975 270.137 112.256 270.137C111.563 270.137 111.012 270.362 110.605 270.813C110.206 271.255 110.007 271.883 110.007 272.698C110.007 273.443 110.18 273.998 110.527 274.362C110.874 274.726 111.372 274.908 112.022 274.908C112.343 274.908 112.642 274.865 112.919 274.778V276.039C112.581 276.143 112.187 276.195 111.736 276.195ZM120.447 276.195C119.754 276.195 119.143 276.069 118.614 275.818C118.094 275.567 117.691 275.22 117.405 274.778C117.128 274.327 116.989 273.816 116.989 273.244V269.045H118.64V273.179C118.64 273.725 118.792 274.15 119.095 274.453C119.398 274.756 119.849 274.908 120.447 274.908C121.036 274.908 121.483 274.756 121.786 274.453C122.089 274.15 122.241 273.725 122.241 273.179V266.718H123.892V273.244C123.892 273.816 123.749 274.327 123.463 274.778C123.186 275.22 122.787 275.567 122.267 275.818C121.747 276.069 121.14 276.195 120.447 276.195ZM125.347 271.762L124.697 270.683C125.173 270.085 125.719 269.63 126.335 269.318C126.959 269.006 127.678 268.85 128.493 268.85C129.576 268.85 130.404 269.093 130.976 269.578C131.556 270.063 131.847 270.735 131.847 271.593V276H130.196V271.723C130.196 271.186 130.053 270.787 129.767 270.527C129.481 270.267 129.056 270.137 128.493 270.137C128.068 270.137 127.691 270.198 127.362 270.319C127.041 270.44 126.742 270.64 126.465 270.917L126.998 271.775V276H125.347V271.762ZM136.071 276.195C135.022 276.195 134.19 275.9 133.575 275.311C132.96 274.713 132.652 273.842 132.652 272.698C132.652 271.918 132.765 271.238 132.99 270.657C133.215 270.076 133.527 269.63 133.926 269.318C134.325 269.006 134.771 268.85 135.265 268.85C135.906 268.85 136.374 269.097 136.669 269.591C136.834 269.331 137.068 269.145 137.371 269.032C137.674 268.911 138.008 268.85 138.372 268.85C138.996 268.85 139.468 269.049 139.789 269.448C140.11 269.838 140.27 270.362 140.27 271.021V276H138.619V271.138C138.619 270.791 138.567 270.54 138.463 270.384C138.359 270.219 138.181 270.137 137.93 270.137C137.497 270.137 137.232 270.388 137.137 270.891H136.214C136.162 270.388 135.937 270.137 135.538 270.137C135.183 270.137 134.892 270.358 134.667 270.8C134.45 271.233 134.342 271.866 134.342 272.698C134.342 274.171 135.014 274.908 136.357 274.908C136.678 274.908 136.977 274.865 137.254 274.778V276.039C136.916 276.143 136.522 276.195 136.071 276.195ZM133.953 267.043H139.764V268.096H133.953V267.043Z" fill="#161717"/>
<path d="M259.744 276.195C259.129 276.195 258.587 276.087 258.119 275.87C257.651 275.653 257.287 275.35 257.027 274.96C256.776 274.561 256.65 274.106 256.65 273.595V273.153C256.65 272.858 256.715 272.585 256.845 272.334C256.975 272.074 257.153 271.792 257.378 271.489C257.543 271.264 257.66 271.082 257.729 270.943C257.807 270.804 257.846 270.674 257.846 270.553C257.846 270.388 257.803 270.271 257.716 270.202C257.638 270.133 257.504 270.098 257.313 270.098H256.585V269.045H257.95C258.331 269.045 258.63 269.158 258.847 269.383C259.072 269.6 259.185 269.89 259.185 270.254C259.185 270.505 259.133 270.739 259.029 270.956C258.925 271.164 258.769 271.42 258.561 271.723C258.353 272.035 258.201 272.286 258.106 272.477C258.019 272.668 257.976 272.876 257.976 273.101V273.582C257.976 274.076 258.132 274.462 258.444 274.739C258.756 275.016 259.189 275.155 259.744 275.155C260.333 275.155 260.793 274.995 261.122 274.674C261.451 274.353 261.616 273.881 261.616 273.257C261.616 272.633 261.486 272.165 261.226 271.853C260.966 271.541 260.585 271.385 260.082 271.385V270.67L261.473 268.85H262.903L261.434 270.787C261.963 270.986 262.344 271.294 262.578 271.71C262.821 272.117 262.942 272.633 262.942 273.257C262.942 273.855 262.808 274.375 262.539 274.817C262.279 275.259 261.906 275.601 261.421 275.844C260.936 276.078 260.377 276.195 259.744 276.195ZM256.618 267.121H261.025V265.73H262.234V268.018H256.618V267.121ZM263.047 269.045H264.373L265.634 274.141L267.142 269.045H268.156L269.651 274.141L270.925 269.045H272.251L270.314 276H269.196L267.649 270.774L266.089 276H264.971L263.047 269.045ZM273.146 272.178H274.459L275.135 274.96C275.976 274.96 276.647 274.735 277.15 274.284C277.661 273.825 277.917 273.192 277.917 272.386C277.917 271.511 277.709 270.878 277.293 270.488C276.877 270.098 276.192 269.903 275.239 269.903C274.806 269.903 274.364 269.946 273.913 270.033C273.471 270.111 273.098 270.219 272.795 270.358V269.318C273.116 269.171 273.506 269.058 273.965 268.98C274.433 268.893 274.91 268.85 275.395 268.85C276.626 268.85 277.575 269.145 278.242 269.734C278.918 270.323 279.256 271.207 279.256 272.386C279.256 273.071 279.083 273.69 278.736 274.245C278.389 274.791 277.917 275.22 277.319 275.532C276.73 275.844 276.08 276 275.369 276H274.082L273.146 272.178ZM282.577 276.195C282.1 276.195 281.615 276.139 281.121 276.026C280.627 275.922 280.241 275.766 279.964 275.558V274.492C280.337 274.717 280.744 274.891 281.186 275.012C281.637 275.125 282.066 275.181 282.473 275.181C283.045 275.181 283.457 275.116 283.708 274.986C283.959 274.847 284.085 274.613 284.085 274.284C284.085 274.059 284.024 273.877 283.903 273.738C283.782 273.599 283.595 273.478 283.344 273.374C283.101 273.27 282.716 273.14 282.187 272.984C281.424 272.75 280.857 272.477 280.484 272.165C280.111 271.844 279.925 271.402 279.925 270.839C279.925 270.198 280.172 269.708 280.666 269.37C281.16 269.023 281.836 268.85 282.694 268.85C283.136 268.85 283.561 268.902 283.968 269.006C284.384 269.101 284.726 269.231 284.995 269.396V270.488C284.7 270.306 284.362 270.163 283.981 270.059C283.6 269.955 283.21 269.903 282.811 269.903C281.771 269.903 281.251 270.215 281.251 270.839C281.251 271.073 281.32 271.259 281.459 271.398C281.606 271.537 281.797 271.654 282.031 271.749C282.274 271.836 282.677 271.961 283.24 272.126C283.795 272.291 284.228 272.468 284.54 272.659C284.852 272.85 285.073 273.075 285.203 273.335C285.333 273.595 285.398 273.916 285.398 274.297C285.398 274.869 285.164 275.328 284.696 275.675C284.228 276.022 283.522 276.195 282.577 276.195ZM288.586 276.195C287.815 276.195 287.2 276.004 286.74 275.623C286.29 275.233 286.064 274.683 286.064 273.972C286.064 273.27 286.316 272.711 286.818 272.295C287.33 271.879 288.019 271.671 288.885 271.671C289.743 271.671 290.515 271.831 291.199 272.152V271.619C291.199 271.021 291.035 270.588 290.705 270.319C290.385 270.042 289.847 269.903 289.093 269.903C288.677 269.903 288.27 269.942 287.871 270.02C287.473 270.098 287.126 270.206 286.831 270.345V269.305C287.1 269.175 287.464 269.067 287.923 268.98C288.391 268.893 288.846 268.85 289.288 268.85C290.068 268.85 290.718 268.993 291.238 269.279L291.901 268.525H293.37L292.057 269.994C292.369 270.436 292.525 270.969 292.525 271.593V276H291.199V273.205C290.567 272.884 289.843 272.724 289.028 272.724C288.465 272.724 288.049 272.828 287.78 273.036C287.52 273.244 287.39 273.556 287.39 273.972C287.39 274.761 287.897 275.155 288.911 275.155C289.223 275.155 289.496 275.112 289.73 275.025V276.052C289.418 276.147 289.037 276.195 288.586 276.195ZM290.609 279.523C290.072 279.523 289.656 279.41 289.361 279.185C289.058 278.96 288.906 278.656 288.906 278.275V277.924C288.906 277.803 288.889 277.72 288.854 277.677C288.82 277.642 288.746 277.625 288.633 277.625H288.191V276.741H289.335C289.569 276.741 289.73 276.793 289.816 276.897C289.903 277.001 289.946 277.17 289.946 277.404V278.145C289.946 278.526 290.154 278.717 290.57 278.717C290.978 278.717 291.181 278.526 291.181 278.145V276.741H292.221V278.236C292.221 278.617 292.083 278.925 291.805 279.159C291.519 279.402 291.121 279.523 290.609 279.523ZM293.151 269.916H294.477L296.128 274.96C296.943 274.96 297.571 274.735 298.013 274.284C298.455 273.833 298.676 273.196 298.676 272.373C298.676 271.558 298.525 270.943 298.221 270.527C297.918 270.111 297.433 269.903 296.765 269.903C296.453 269.903 296.15 269.942 295.855 270.02V268.993C296.202 268.898 296.579 268.85 296.986 268.85C297.974 268.85 298.728 269.162 299.248 269.786C299.768 270.41 300.028 271.272 300.028 272.373C300.028 273.127 299.864 273.777 299.534 274.323C299.214 274.869 298.776 275.285 298.221 275.571C297.667 275.857 297.051 276 296.375 276H295.127L293.151 269.916ZM307.781 276.195C307.252 276.195 306.745 276.152 306.26 276.065C305.783 275.987 305.367 275.866 305.012 275.701V274.609C305.818 274.973 306.684 275.155 307.612 275.155C308.409 275.155 308.998 275.012 309.38 274.726C309.77 274.431 309.965 274.015 309.965 273.478C309.965 272.923 309.765 272.529 309.367 272.295C308.968 272.052 308.361 271.931 307.547 271.931H306.481V270.865H307.521C308.171 270.865 308.695 270.735 309.094 270.475C309.492 270.206 309.692 269.816 309.692 269.305C309.692 268.802 309.527 268.421 309.198 268.161C308.868 267.901 308.392 267.771 307.768 267.771C307.282 267.771 306.845 267.827 306.455 267.94C306.065 268.053 305.662 268.239 305.246 268.499V267.407C306.008 266.948 306.901 266.718 307.924 266.718C308.938 266.718 309.709 266.943 310.238 267.394C310.766 267.845 311.031 268.469 311.031 269.266C311.031 269.751 310.901 270.176 310.641 270.54C310.381 270.904 309.991 271.186 309.471 271.385C310.06 271.524 310.511 271.775 310.823 272.139C311.143 272.503 311.304 272.962 311.304 273.517C311.304 274.34 311.022 274.995 310.459 275.48C309.895 275.957 309.003 276.195 307.781 276.195ZM316.548 271.697C316.548 270.796 316.843 270.098 317.432 269.604C318.021 269.101 318.832 268.85 319.863 268.85C320.886 268.85 321.692 269.097 322.281 269.591C322.87 270.085 323.165 270.787 323.165 271.697V276H321.839V271.658C321.839 271.069 321.666 270.631 321.319 270.345C320.972 270.05 320.487 269.903 319.863 269.903C319.23 269.903 318.741 270.05 318.394 270.345C318.047 270.631 317.874 271.069 317.874 271.658V272.984C317.987 272.776 318.164 272.611 318.407 272.49C318.65 272.36 318.936 272.295 319.265 272.295H320.305V273.387H319.161C318.797 273.387 318.489 273.517 318.238 273.777C317.995 274.028 317.874 274.319 317.874 274.648V276H316.548V271.697ZM326.743 276.195C326.266 276.195 325.781 276.139 325.287 276.026C324.793 275.922 324.407 275.766 324.13 275.558V274.492C324.503 274.717 324.91 274.891 325.352 275.012C325.803 275.125 326.232 275.181 326.639 275.181C327.211 275.181 327.623 275.116 327.874 274.986C328.125 274.847 328.251 274.613 328.251 274.284C328.251 274.059 328.19 273.877 328.069 273.738C327.948 273.599 327.761 273.478 327.51 273.374C327.267 273.27 326.882 273.14 326.353 272.984C325.59 272.75 325.023 272.477 324.65 272.165C324.277 271.844 324.091 271.402 324.091 270.839C324.091 270.198 324.338 269.708 324.832 269.37C325.326 269.023 326.002 268.85 326.86 268.85C327.302 268.85 327.727 268.902 328.134 269.006C328.55 269.101 328.892 269.231 329.161 269.396V270.488C328.866 270.306 328.528 270.163 328.147 270.059C327.766 269.955 327.376 269.903 326.977 269.903C325.937 269.903 325.417 270.215 325.417 270.839C325.417 271.073 325.486 271.259 325.625 271.398C325.772 271.537 325.963 271.654 326.197 271.749C326.44 271.836 326.843 271.961 327.406 272.126C327.961 272.291 328.394 272.468 328.706 272.659C329.018 272.85 329.239 273.075 329.369 273.335C329.499 273.595 329.564 273.916 329.564 274.297C329.564 274.869 329.33 275.328 328.862 275.675C328.394 276.022 327.688 276.195 326.743 276.195ZM326.357 268.018C325.984 268.018 325.715 267.927 325.551 267.745C325.377 267.554 325.291 267.273 325.291 266.9V266.224H326.487V266.744C326.487 266.891 326.517 266.991 326.578 267.043C326.63 267.095 326.734 267.121 326.89 267.121H329.958V268.018H326.357ZM326.13 264.56C326.13 264.456 326.112 264.387 326.078 264.352C326.043 264.309 325.969 264.287 325.857 264.287H325.311V263.403H326.247C326.749 263.403 327.001 263.624 327.001 264.066V264.482H329.198V265.301H326.13V264.56ZM329.231 269.916H330.557L332.208 274.96C333.022 274.96 333.651 274.735 334.093 274.284C334.535 273.833 334.756 273.196 334.756 272.373C334.756 271.558 334.604 270.943 334.301 270.527C333.997 270.111 333.512 269.903 332.845 269.903C332.533 269.903 332.229 269.942 331.935 270.02V268.993C332.281 268.898 332.658 268.85 333.066 268.85C334.054 268.85 334.808 269.162 335.328 269.786C335.848 270.41 336.108 271.272 336.108 272.373C336.108 273.127 335.943 273.777 335.614 274.323C335.293 274.869 334.855 275.285 334.301 275.571C333.746 275.857 333.131 276 332.455 276H331.207L329.231 269.916ZM259.744 293.195C259.129 293.195 258.587 293.087 258.119 292.87C257.651 292.653 257.287 292.35 257.027 291.96C256.776 291.561 256.65 291.106 256.65 290.595V290.153C256.65 289.858 256.715 289.585 256.845 289.334C256.975 289.074 257.153 288.792 257.378 288.489C257.543 288.264 257.66 288.082 257.729 287.943C257.807 287.804 257.846 287.674 257.846 287.553C257.846 287.388 257.803 287.271 257.716 287.202C257.638 287.133 257.504 287.098 257.313 287.098H256.585V286.045H257.95C258.331 286.045 258.63 286.158 258.847 286.383C259.072 286.6 259.185 286.89 259.185 287.254C259.185 287.505 259.133 287.739 259.029 287.956C258.925 288.164 258.769 288.42 258.561 288.723C258.353 289.035 258.201 289.286 258.106 289.477C258.019 289.668 257.976 289.876 257.976 290.101V290.582C257.976 291.076 258.132 291.462 258.444 291.739C258.756 292.016 259.189 292.155 259.744 292.155C260.333 292.155 260.793 291.995 261.122 291.674C261.451 291.353 261.616 290.881 261.616 290.257C261.616 289.633 261.486 289.165 261.226 288.853C260.966 288.541 260.585 288.385 260.082 288.385V287.67L261.473 285.85H262.903L261.434 287.787C261.963 287.986 262.344 288.294 262.578 288.71C262.821 289.117 262.942 289.633 262.942 290.257C262.942 290.855 262.808 291.375 262.539 291.817C262.279 292.259 261.906 292.601 261.421 292.844C260.936 293.078 260.377 293.195 259.744 293.195ZM256.618 284.121H261.025V282.73H262.234V285.018H256.618V284.121ZM263.047 286.045H264.373L265.634 291.141L267.142 286.045H268.156L269.651 291.141L270.925 286.045H272.251L270.314 293H269.196L267.649 287.774L266.089 293H264.971L263.047 286.045ZM273.146 289.178H274.459L275.135 291.96C275.976 291.96 276.647 291.735 277.15 291.284C277.661 290.825 277.917 290.192 277.917 289.386C277.917 288.511 277.709 287.878 277.293 287.488C276.877 287.098 276.192 286.903 275.239 286.903C274.806 286.903 274.364 286.946 273.913 287.033C273.471 287.111 273.098 287.219 272.795 287.358V286.318C273.116 286.171 273.506 286.058 273.965 285.98C274.433 285.893 274.91 285.85 275.395 285.85C276.626 285.85 277.575 286.145 278.242 286.734C278.918 287.323 279.256 288.207 279.256 289.386C279.256 290.071 279.083 290.69 278.736 291.245C278.389 291.791 277.917 292.22 277.319 292.532C276.73 292.844 276.08 293 275.369 293H274.082L273.146 289.178ZM282.577 293.195C282.1 293.195 281.615 293.139 281.121 293.026C280.627 292.922 280.241 292.766 279.964 292.558V291.492C280.337 291.717 280.744 291.891 281.186 292.012C281.637 292.125 282.066 292.181 282.473 292.181C283.045 292.181 283.457 292.116 283.708 291.986C283.959 291.847 284.085 291.613 284.085 291.284C284.085 291.059 284.024 290.877 283.903 290.738C283.782 290.599 283.595 290.478 283.344 290.374C283.101 290.27 282.716 290.14 282.187 289.984C281.424 289.75 280.857 289.477 280.484 289.165C280.111 288.844 279.925 288.402 279.925 287.839C279.925 287.198 280.172 286.708 280.666 286.37C281.16 286.023 281.836 285.85 282.694 285.85C283.136 285.85 283.561 285.902 283.968 286.006C284.384 286.101 284.726 286.231 284.995 286.396V287.488C284.7 287.306 284.362 287.163 283.981 287.059C283.6 286.955 283.21 286.903 282.811 286.903C281.771 286.903 281.251 287.215 281.251 287.839C281.251 288.073 281.32 288.259 281.459 288.398C281.606 288.537 281.797 288.654 282.031 288.749C282.274 288.836 282.677 288.961 283.24 289.126C283.795 289.291 284.228 289.468 284.54 289.659C284.852 289.85 285.073 290.075 285.203 290.335C285.333 290.595 285.398 290.916 285.398 291.297C285.398 291.869 285.164 292.328 284.696 292.675C284.228 293.022 283.522 293.195 282.577 293.195ZM289.405 293.195C288.365 293.195 287.546 292.9 286.948 292.311C286.359 291.722 286.064 290.855 286.064 289.711C286.064 288.922 286.173 288.238 286.389 287.657C286.606 287.076 286.901 286.63 287.273 286.318C287.655 286.006 288.088 285.85 288.573 285.85C289.232 285.85 289.696 286.114 289.964 286.643C290.112 286.374 290.333 286.175 290.627 286.045C290.922 285.915 291.251 285.85 291.615 285.85C292.213 285.85 292.66 286.041 292.954 286.422C293.258 286.803 293.409 287.315 293.409 287.956V293H292.083V288.047C292.083 287.657 292.023 287.371 291.901 287.189C291.78 286.998 291.572 286.903 291.277 286.903C290.783 286.903 290.476 287.172 290.354 287.709H289.574C289.531 287.44 289.444 287.241 289.314 287.111C289.193 286.972 289.015 286.903 288.781 286.903C288.374 286.903 288.04 287.146 287.78 287.631C287.529 288.116 287.403 288.81 287.403 289.711C287.403 290.543 287.585 291.158 287.949 291.557C288.313 291.956 288.872 292.155 289.626 292.155C289.956 292.155 290.259 292.112 290.536 292.025V293.052C290.233 293.147 289.856 293.195 289.405 293.195ZM292.075 285.135C291.685 285.135 291.351 284.996 291.074 284.719C290.788 284.442 290.645 284.108 290.645 283.718C290.645 283.319 290.788 282.981 291.074 282.704C291.351 282.418 291.685 282.275 292.075 282.275C292.465 282.275 292.803 282.418 293.089 282.704C293.366 282.981 293.505 283.319 293.505 283.718C293.505 284.108 293.366 284.442 293.089 284.719C292.803 284.996 292.465 285.135 292.075 285.135ZM292.075 284.329C292.231 284.329 292.37 284.268 292.491 284.147C292.604 284.017 292.66 283.874 292.66 283.718C292.66 283.562 292.604 283.423 292.491 283.302C292.37 283.181 292.231 283.12 292.075 283.12C291.919 283.12 291.785 283.181 291.672 283.302C291.551 283.423 291.49 283.562 291.49 283.718C291.49 283.874 291.551 284.017 291.672 284.147C291.785 284.268 291.919 284.329 292.075 284.329ZM291.198 279.572H292.394V281.301H291.198V279.572ZM296.041 288.502C296.041 287.947 295.928 287.544 295.703 287.293C295.478 287.033 295.079 286.903 294.507 286.903C293.952 286.903 293.432 287.024 292.947 287.267V286.227C293.155 286.123 293.424 286.036 293.753 285.967C294.091 285.889 294.425 285.85 294.754 285.85C295.629 285.85 296.284 286.088 296.717 286.565C297.15 287.033 297.367 287.709 297.367 288.593V293H296.041V288.502ZM308.882 285.343L306.919 286.76V285.499L309.064 283.913H310.208V293H308.882V285.343ZM315.713 288.697C315.713 287.796 316.008 287.098 316.597 286.604C317.186 286.101 317.997 285.85 319.028 285.85C320.051 285.85 320.857 286.097 321.446 286.591C322.035 287.085 322.33 287.787 322.33 288.697V293H321.004V288.658C321.004 288.069 320.831 287.631 320.484 287.345C320.137 287.05 319.652 286.903 319.028 286.903C318.395 286.903 317.906 287.05 317.559 287.345C317.212 287.631 317.039 288.069 317.039 288.658V289.984C317.152 289.776 317.329 289.611 317.572 289.49C317.815 289.36 318.101 289.295 318.43 289.295H319.47V290.387H318.326C317.962 290.387 317.654 290.517 317.403 290.777C317.16 291.028 317.039 291.319 317.039 291.648V293H315.713V288.697ZM325.908 293.195C325.431 293.195 324.946 293.139 324.452 293.026C323.958 292.922 323.572 292.766 323.295 292.558V291.492C323.668 291.717 324.075 291.891 324.517 292.012C324.968 292.125 325.397 292.181 325.804 292.181C326.376 292.181 326.788 292.116 327.039 291.986C327.29 291.847 327.416 291.613 327.416 291.284C327.416 291.059 327.355 290.877 327.234 290.738C327.113 290.599 326.926 290.478 326.675 290.374C326.432 290.27 326.047 290.14 325.518 289.984C324.755 289.75 324.188 289.477 323.815 289.165C323.442 288.844 323.256 288.402 323.256 287.839C323.256 287.198 323.503 286.708 323.997 286.37C324.491 286.023 325.167 285.85 326.025 285.85C326.467 285.85 326.892 285.902 327.299 286.006C327.715 286.101 328.057 286.231 328.326 286.396V287.488C328.031 287.306 327.693 287.163 327.312 287.059C326.931 286.955 326.541 286.903 326.142 286.903C325.102 286.903 324.582 287.215 324.582 287.839C324.582 288.073 324.651 288.259 324.79 288.398C324.937 288.537 325.128 288.654 325.362 288.749C325.605 288.836 326.008 288.961 326.571 289.126C327.126 289.291 327.559 289.468 327.871 289.659C328.183 289.85 328.404 290.075 328.534 290.335C328.664 290.595 328.729 290.916 328.729 291.297C328.729 291.869 328.495 292.328 328.027 292.675C327.559 293.022 326.853 293.195 325.908 293.195ZM325.522 285.018C325.149 285.018 324.88 284.927 324.716 284.745C324.542 284.554 324.456 284.273 324.456 283.9V283.224H325.652V283.744C325.652 283.891 325.682 283.991 325.743 284.043C325.795 284.095 325.899 284.121 326.055 284.121H329.123V285.018H325.522ZM325.295 281.56C325.295 281.456 325.277 281.387 325.243 281.352C325.208 281.309 325.134 281.287 325.022 281.287H324.476V280.403H325.412C325.914 280.403 326.166 280.624 326.166 281.066V281.482H328.363V282.301H325.295V281.56ZM328.396 286.916H329.722L331.373 291.96C332.187 291.96 332.816 291.735 333.258 291.284C333.7 290.833 333.921 290.196 333.921 289.373C333.921 288.558 333.769 287.943 333.466 287.527C333.162 287.111 332.677 286.903 332.01 286.903C331.698 286.903 331.394 286.942 331.1 287.02V285.993C331.446 285.898 331.823 285.85 332.231 285.85C333.219 285.85 333.973 286.162 334.493 286.786C335.013 287.41 335.273 288.272 335.273 289.373C335.273 290.127 335.108 290.777 334.779 291.323C334.458 291.869 334.02 292.285 333.466 292.571C332.911 292.857 332.296 293 331.62 293H330.372L328.396 286.916Z" fill="#161717"/>
<path d="M255.906 238.343L253.943 239.76V238.499L256.088 236.913H257.232V246H255.906V238.343ZM260.935 246.195C260.406 246.195 259.899 246.152 259.414 246.065C258.937 245.987 258.521 245.866 258.166 245.701V244.609C258.972 244.973 259.839 245.155 260.766 245.155C261.563 245.155 262.153 245.012 262.534 244.726C262.924 244.431 263.119 244.015 263.119 243.478C263.119 242.923 262.92 242.529 262.521 242.295C262.122 242.052 261.516 241.931 260.701 241.931H259.635V240.865H260.675C261.325 240.865 261.849 240.735 262.248 240.475C262.647 240.206 262.846 239.816 262.846 239.305C262.846 238.802 262.681 238.421 262.352 238.161C262.023 237.901 261.546 237.771 260.922 237.771C260.437 237.771 259.999 237.827 259.609 237.94C259.219 238.053 258.816 238.239 258.4 238.499V237.407C259.163 236.948 260.055 236.718 261.078 236.718C262.092 236.718 262.863 236.943 263.392 237.394C263.921 237.845 264.185 238.469 264.185 239.266C264.185 239.751 264.055 240.176 263.795 240.54C263.535 240.904 263.145 241.186 262.625 241.385C263.214 241.524 263.665 241.775 263.977 242.139C264.298 242.503 264.458 242.962 264.458 243.517C264.458 244.34 264.176 244.995 263.613 245.48C263.05 245.957 262.157 246.195 260.935 246.195ZM265.846 241.177C265.647 241.177 265.478 241.108 265.339 240.969C265.2 240.83 265.131 240.661 265.131 240.462C265.131 240.263 265.2 240.094 265.339 239.955C265.478 239.808 265.647 239.734 265.846 239.734C266.045 239.734 266.214 239.808 266.353 239.955C266.492 240.094 266.561 240.263 266.561 240.462C266.561 240.653 266.492 240.822 266.353 240.969C266.214 241.108 266.045 241.177 265.846 241.177ZM265.846 245.74C265.647 245.74 265.478 245.671 265.339 245.532C265.2 245.393 265.131 245.224 265.131 245.025C265.131 244.826 265.2 244.657 265.339 244.518C265.478 244.371 265.647 244.297 265.846 244.297C266.045 244.297 266.214 244.371 266.353 244.518C266.492 244.657 266.561 244.826 266.561 245.025C266.561 245.216 266.492 245.385 266.353 245.532C266.214 245.671 266.045 245.74 265.846 245.74ZM271.016 246.195C270.236 246.195 269.56 246.004 268.988 245.623C268.425 245.242 267.992 244.696 267.688 243.985C267.385 243.274 267.233 242.434 267.233 241.463C267.233 240.492 267.381 239.652 267.675 238.941C267.979 238.222 268.412 237.671 268.975 237.29C269.547 236.909 270.228 236.718 271.016 236.718C271.805 236.718 272.481 236.909 273.044 237.29C273.616 237.671 274.05 238.222 274.344 238.941C274.648 239.652 274.799 240.492 274.799 241.463C274.799 242.434 274.648 243.274 274.344 243.985C274.041 244.696 273.603 245.242 273.031 245.623C272.468 246.004 271.796 246.195 271.016 246.195ZM271.016 245.025C271.788 245.025 272.39 244.709 272.823 244.076C273.265 243.435 273.486 242.568 273.486 241.476C273.486 240.384 273.27 239.517 272.836 238.876C272.403 238.235 271.796 237.914 271.016 237.914C270.236 237.914 269.63 238.235 269.196 238.876C268.763 239.517 268.546 240.384 268.546 241.476C268.546 242.568 268.763 243.435 269.196 244.076C269.638 244.709 270.245 245.025 271.016 245.025ZM279.251 246.195C278.471 246.195 277.795 246.004 277.223 245.623C276.659 245.242 276.226 244.696 275.923 243.985C275.619 243.274 275.468 242.434 275.468 241.463C275.468 240.492 275.615 239.652 275.91 238.941C276.213 238.222 276.646 237.671 277.21 237.29C277.782 236.909 278.462 236.718 279.251 236.718C280.039 236.718 280.715 236.909 281.279 237.29C281.851 237.671 282.284 238.222 282.579 238.941C282.882 239.652 283.034 240.492 283.034 241.463C283.034 242.434 282.882 243.274 282.579 243.985C282.275 244.696 281.838 245.242 281.266 245.623C280.702 246.004 280.031 246.195 279.251 246.195ZM279.251 245.025C280.022 245.025 280.624 244.709 281.058 244.076C281.5 243.435 281.721 242.568 281.721 241.476C281.721 240.384 281.504 239.517 281.071 238.876C280.637 238.235 280.031 237.914 279.251 237.914C278.471 237.914 277.864 238.235 277.431 238.876C276.997 239.517 276.781 240.384 276.781 241.476C276.781 242.568 276.997 243.435 277.431 244.076C277.873 244.709 278.479 245.025 279.251 245.025ZM288.014 241.593H292.161V242.672H288.014V241.593ZM299.108 238.343L297.145 239.76V238.499L299.29 236.913H300.434V246H299.108V238.343ZM303.902 246.195C303.426 246.195 302.962 246.143 302.511 246.039C302.061 245.944 301.679 245.809 301.367 245.636V244.453C301.723 244.67 302.126 244.839 302.576 244.96C303.027 245.073 303.456 245.129 303.863 245.129C304.652 245.129 305.25 244.964 305.657 244.635C306.065 244.297 306.268 243.803 306.268 243.153C306.268 242.538 306.078 242.07 305.696 241.749C305.324 241.42 304.765 241.255 304.019 241.255C303.707 241.255 303.378 241.285 303.031 241.346C302.693 241.407 302.39 241.489 302.121 241.593L301.536 241.255L301.874 236.913H306.957V238.031H303.083L302.888 240.371C303.426 240.258 303.972 240.202 304.526 240.202C305.488 240.202 306.242 240.471 306.788 241.008C307.334 241.545 307.607 242.26 307.607 243.153C307.607 244.132 307.3 244.886 306.684 245.415C306.069 245.935 305.142 246.195 303.902 246.195ZM308.996 241.177C308.797 241.177 308.628 241.108 308.489 240.969C308.351 240.83 308.281 240.661 308.281 240.462C308.281 240.263 308.351 240.094 308.489 239.955C308.628 239.808 308.797 239.734 308.996 239.734C309.196 239.734 309.365 239.808 309.503 239.955C309.642 240.094 309.711 240.263 309.711 240.462C309.711 240.653 309.642 240.822 309.503 240.969C309.365 241.108 309.196 241.177 308.996 241.177ZM308.996 245.74C308.797 245.74 308.628 245.671 308.489 245.532C308.351 245.393 308.281 245.224 308.281 245.025C308.281 244.826 308.351 244.657 308.489 244.518C308.628 244.371 308.797 244.297 308.996 244.297C309.196 244.297 309.365 244.371 309.503 244.518C309.642 244.657 309.711 244.826 309.711 245.025C309.711 245.216 309.642 245.385 309.503 245.532C309.365 245.671 309.196 245.74 308.996 245.74ZM314.167 246.195C313.387 246.195 312.711 246.004 312.139 245.623C311.575 245.242 311.142 244.696 310.839 243.985C310.535 243.274 310.384 242.434 310.384 241.463C310.384 240.492 310.531 239.652 310.826 238.941C311.129 238.222 311.562 237.671 312.126 237.29C312.698 236.909 313.378 236.718 314.167 236.718C314.955 236.718 315.631 236.909 316.195 237.29C316.767 237.671 317.2 238.222 317.495 238.941C317.798 239.652 317.95 240.492 317.95 241.463C317.95 242.434 317.798 243.274 317.495 243.985C317.191 244.696 316.754 245.242 316.182 245.623C315.618 246.004 314.947 246.195 314.167 246.195ZM314.167 245.025C314.938 245.025 315.54 244.709 315.974 244.076C316.416 243.435 316.637 242.568 316.637 241.476C316.637 240.384 316.42 239.517 315.987 238.876C315.553 238.235 314.947 237.914 314.167 237.914C313.387 237.914 312.78 238.235 312.347 238.876C311.913 239.517 311.697 240.384 311.697 241.476C311.697 242.568 311.913 243.435 312.347 244.076C312.789 244.709 313.395 245.025 314.167 245.025ZM322.401 246.195C321.621 246.195 320.945 246.004 320.373 245.623C319.81 245.242 319.377 244.696 319.073 243.985C318.77 243.274 318.618 242.434 318.618 241.463C318.618 240.492 318.766 239.652 319.06 238.941C319.364 238.222 319.797 237.671 320.36 237.29C320.932 236.909 321.613 236.718 322.401 236.718C323.19 236.718 323.866 236.909 324.429 237.29C325.001 237.671 325.435 238.222 325.729 238.941C326.033 239.652 326.184 240.492 326.184 241.463C326.184 242.434 326.033 243.274 325.729 243.985C325.426 244.696 324.988 245.242 324.416 245.623C323.853 246.004 323.181 246.195 322.401 246.195ZM322.401 245.025C323.173 245.025 323.775 244.709 324.208 244.076C324.65 243.435 324.871 242.568 324.871 241.476C324.871 240.384 324.655 239.517 324.221 238.876C323.788 238.235 323.181 237.914 322.401 237.914C321.621 237.914 321.015 238.235 320.581 238.876C320.148 239.517 319.931 240.384 319.931 241.476C319.931 242.568 320.148 243.435 320.581 244.076C321.023 244.709 321.63 245.025 322.401 245.025ZM334.115 246.195C333.266 246.195 332.603 245.957 332.126 245.48C331.658 245.003 331.424 244.388 331.424 243.634V239.045H332.75V243.582C332.75 244.102 332.893 244.496 333.179 244.765C333.474 245.025 333.903 245.155 334.466 245.155C335.359 245.155 336.061 244.756 336.572 243.959V239.045H337.898V246H336.611V245.064C335.961 245.818 335.129 246.195 334.115 246.195ZM339.438 246C339.265 246 339.118 245.944 338.996 245.831C338.884 245.71 338.827 245.562 338.827 245.389C338.827 245.216 338.884 245.068 338.996 244.947C339.118 244.826 339.265 244.765 339.438 244.765C339.612 244.765 339.759 244.826 339.88 244.947C340.002 245.068 340.062 245.216 340.062 245.389C340.062 245.562 340.002 245.71 339.88 245.831C339.759 245.944 339.612 246 339.438 246Z" fill="#161717"/>
<path d="M205.941 211.178H207.254L207.93 213.96C208.771 213.96 209.442 213.735 209.945 213.284C210.456 212.825 210.712 212.192 210.712 211.386C210.712 210.511 210.504 209.878 210.088 209.488C209.672 209.098 208.987 208.903 208.034 208.903C207.601 208.903 207.159 208.946 206.708 209.033C206.266 209.111 205.893 209.219 205.59 209.358V208.318C205.911 208.171 206.301 208.058 206.76 207.98C207.228 207.893 207.705 207.85 208.19 207.85C209.421 207.85 210.37 208.145 211.037 208.734C211.713 209.323 212.051 210.207 212.051 211.386C212.051 212.071 211.878 212.69 211.531 213.245C211.184 213.791 210.712 214.22 210.114 214.532C209.525 214.844 208.875 215 208.164 215H206.877L205.941 211.178ZM210.458 207.135C210.068 207.135 209.734 206.996 209.457 206.719C209.171 206.442 209.028 206.108 209.028 205.718C209.028 205.319 209.171 204.981 209.457 204.704C209.734 204.418 210.068 204.275 210.458 204.275C210.848 204.275 211.186 204.418 211.472 204.704C211.749 204.981 211.888 205.319 211.888 205.718C211.888 206.108 211.749 206.442 211.472 206.719C211.186 206.996 210.848 207.135 210.458 207.135ZM210.458 206.329C210.614 206.329 210.752 206.268 210.874 206.147C210.986 206.017 211.043 205.874 211.043 205.718C211.043 205.562 210.986 205.423 210.874 205.302C210.752 205.181 210.614 205.12 210.458 205.12C210.302 205.12 210.167 205.181 210.055 205.302C209.933 205.423 209.873 205.562 209.873 205.718C209.873 205.874 209.933 206.017 210.055 206.147C210.167 206.268 210.302 206.329 210.458 206.329ZM214.924 210.502C214.924 209.947 214.811 209.544 214.586 209.293C214.36 209.033 213.962 208.903 213.39 208.903C212.835 208.903 212.315 209.024 211.83 209.267V208.227C212.038 208.123 212.306 208.036 212.636 207.967C212.974 207.889 213.307 207.85 213.637 207.85C214.512 207.85 215.166 208.088 215.6 208.565C216.033 209.033 216.25 209.709 216.25 210.593V215H214.924V210.502ZM220.13 215.195C219.28 215.195 218.617 214.957 218.141 214.48C217.673 214.003 217.439 213.388 217.439 212.634V208.045H218.765V212.582C218.765 213.102 218.908 213.496 219.194 213.765C219.488 214.025 219.917 214.155 220.481 214.155C221.373 214.155 222.075 213.756 222.587 212.959V208.045H223.913V215H222.626V214.064C221.976 214.818 221.144 215.195 220.13 215.195ZM227.377 215.195C226.285 215.195 225.44 215 224.842 214.61V213.544C225.423 213.951 226.181 214.155 227.117 214.155C227.966 214.155 228.625 213.934 229.093 213.492C229.57 213.05 229.808 212.396 229.808 211.529C229.808 210.662 229.57 210.008 229.093 209.566C228.625 209.124 227.966 208.903 227.117 208.903C226.207 208.903 225.457 209.107 224.868 209.514V208.435C225.475 208.045 226.311 207.85 227.377 207.85C228.547 207.85 229.47 208.175 230.146 208.825C230.822 209.466 231.16 210.368 231.16 211.529C231.16 212.69 230.822 213.592 230.146 214.233C229.47 214.874 228.547 215.195 227.377 215.195ZM234.783 215.195C233.934 215.195 233.271 214.957 232.794 214.48C232.326 214.003 232.092 213.388 232.092 212.634V208.045H233.418V212.582C233.418 213.102 233.561 213.496 233.847 213.765C234.142 214.025 234.571 214.155 235.134 214.155C236.027 214.155 236.729 213.756 237.24 212.959V208.045H238.566V215H237.279V214.064C236.629 214.818 235.797 215.195 234.783 215.195ZM239.755 208.045H241.081V211.113L244.448 208.045H245.995L244.097 209.774C244.808 209.956 245.302 210.246 245.579 210.645C245.865 211.044 246.008 211.577 246.008 212.244V215H244.682V212.322C244.682 211.802 244.574 211.408 244.357 211.139C244.149 210.87 243.785 210.68 243.265 210.567L241.081 212.556V215H239.755V208.045ZM247.592 210.671L246.942 209.618C247.402 209.037 247.926 208.6 248.515 208.305C249.105 208.002 249.802 207.85 250.608 207.85C251.648 207.85 252.446 208.088 253 208.565C253.555 209.033 253.832 209.692 253.832 210.541V215H252.506V210.645C252.506 210.047 252.346 209.609 252.025 209.332C251.713 209.046 251.241 208.903 250.608 208.903C250.132 208.903 249.711 208.977 249.347 209.124C248.983 209.263 248.654 209.488 248.359 209.8L248.918 210.671V215H247.592V210.671ZM257.28 215.195C256.509 215.195 255.893 215.004 255.434 214.623C254.983 214.233 254.758 213.683 254.758 212.972C254.758 212.27 255.009 211.711 255.512 211.295C256.023 210.879 256.712 210.671 257.579 210.671C258.437 210.671 259.208 210.831 259.893 211.152V210.619C259.893 210.021 259.728 209.588 259.399 209.319C259.078 209.042 258.541 208.903 257.787 208.903C257.371 208.903 256.964 208.942 256.565 209.02C256.166 209.098 255.82 209.206 255.525 209.345V208.305C255.794 208.175 256.158 208.067 256.617 207.98C257.085 207.893 257.54 207.85 257.982 207.85C259.065 207.85 259.876 208.097 260.413 208.591C260.95 209.085 261.219 209.752 261.219 210.593V215H259.893V212.205C259.26 211.884 258.537 211.724 257.722 211.724C257.159 211.724 256.743 211.828 256.474 212.036C256.214 212.244 256.084 212.556 256.084 212.972C256.084 213.761 256.591 214.155 257.605 214.155C257.917 214.155 258.19 214.112 258.424 214.025V215.052C258.112 215.147 257.731 215.195 257.28 215.195ZM257.929 206.199C257.929 206.095 257.912 206.021 257.877 205.978C257.834 205.935 257.76 205.913 257.656 205.913H257.071V204.977H258.046C258.324 204.977 258.527 205.046 258.657 205.185C258.779 205.315 258.839 205.48 258.839 205.679V206.134H261.504V207.018H257.929V206.199ZM265.697 215.195C265.221 215.195 264.766 215.1 264.332 214.909C263.908 214.718 263.526 214.437 263.188 214.064V215H261.914V208.045H263.24V212.959C263.752 213.756 264.454 214.155 265.346 214.155C265.91 214.155 266.334 214.025 266.62 213.765C266.915 213.496 267.062 213.102 267.062 212.582V208.045H268.388V212.634C268.388 213.388 268.15 214.003 267.673 214.48C267.197 214.957 266.538 215.195 265.697 215.195ZM269.577 208.045H270.851V208.981C271.189 208.6 271.584 208.318 272.034 208.136C272.494 207.945 272.957 207.85 273.425 207.85C274.275 207.85 274.925 208.084 275.375 208.552C275.826 209.02 276.051 209.622 276.051 210.359V215H274.725V210.424C274.725 209.939 274.591 209.566 274.322 209.306C274.054 209.037 273.638 208.903 273.074 208.903C272.13 208.903 271.406 209.297 270.903 210.086V215H269.577V208.045ZM273.107 207.018C272.734 207.018 272.465 206.927 272.301 206.745C272.127 206.554 272.041 206.273 272.041 205.9V205.224H273.237V205.744C273.237 205.891 273.267 205.991 273.328 206.043C273.38 206.095 273.484 206.121 273.64 206.121H276.708V207.018H273.107ZM272.88 203.56C272.88 203.456 272.862 203.387 272.828 203.352C272.793 203.309 272.719 203.287 272.607 203.287H272.061V202.403H272.997C273.499 202.403 273.751 202.624 273.751 203.066V203.482H275.948V204.301H272.88V203.56ZM275.981 208.916H277.307L278.958 213.96C279.772 213.96 280.401 213.735 280.843 213.284C281.285 212.833 281.506 212.196 281.506 211.373C281.506 210.558 281.354 209.943 281.051 209.527C280.747 209.111 280.262 208.903 279.595 208.903C279.283 208.903 278.979 208.942 278.685 209.02V207.993C279.031 207.898 279.408 207.85 279.816 207.85C280.804 207.85 281.558 208.162 282.078 208.786C282.598 209.41 282.858 210.272 282.858 211.373C282.858 212.127 282.693 212.777 282.364 213.323C282.043 213.869 281.605 214.285 281.051 214.571C280.496 214.857 279.881 215 279.205 215H277.957L275.981 208.916ZM283.789 208.045H285.115V211.113L288.482 208.045H290.029L288.131 209.774C288.842 209.956 289.336 210.246 289.613 210.645C289.899 211.044 290.042 211.577 290.042 212.244V215H288.716V212.322C288.716 211.802 288.608 211.408 288.391 211.139C288.183 210.87 287.819 210.68 287.299 210.567L285.115 212.556V215H283.789V208.045ZM295.02 215.195C294.543 215.195 294.088 215.1 293.655 214.909C293.23 214.718 292.849 214.437 292.511 214.064V215H291.237V208.045H292.563V212.959C293.074 213.756 293.776 214.155 294.669 214.155C295.232 214.155 295.657 214.025 295.943 213.765C296.237 213.496 296.385 213.102 296.385 212.582V208.045H297.711V212.634C297.711 213.388 297.472 214.003 296.996 214.48C296.519 214.957 295.86 215.195 295.02 215.195ZM301.981 215.195C300.941 215.195 300.122 214.9 299.524 214.311C298.934 213.722 298.64 212.855 298.64 211.711C298.64 210.914 298.791 210.225 299.095 209.644C299.407 209.063 299.849 208.621 300.421 208.318C300.993 208.006 301.673 207.85 302.462 207.85C303.684 207.85 304.576 208.14 305.14 208.721C305.703 209.293 305.985 210.025 305.985 210.918V215H304.659V210.905C304.659 209.57 303.926 208.903 302.462 208.903C301.69 208.903 301.084 209.146 300.642 209.631C300.2 210.116 299.979 210.81 299.979 211.711C299.979 212.543 300.165 213.158 300.538 213.557C300.91 213.956 301.465 214.155 302.202 214.155C302.531 214.155 302.834 214.112 303.112 214.025V215.052C302.808 215.147 302.431 215.195 301.981 215.195ZM311.224 214.129L313.187 212.244C313.36 212.071 313.603 211.845 313.915 211.568C314.409 211.117 314.786 210.753 315.046 210.476C315.306 210.199 315.518 209.904 315.683 209.592C315.847 209.271 315.93 208.929 315.93 208.565C315.93 208.028 315.774 207.62 315.462 207.343C315.15 207.057 314.695 206.914 314.097 206.914C313.689 206.914 313.269 206.988 312.836 207.135C312.411 207.282 312.012 207.499 311.64 207.785V206.511C312.368 205.982 313.256 205.718 314.305 205.718C315.241 205.718 315.969 205.969 316.489 206.472C317.009 206.966 317.269 207.642 317.269 208.5C317.269 208.916 317.178 209.315 316.996 209.696C316.822 210.077 316.575 210.454 316.255 210.827C315.934 211.191 315.501 211.637 314.955 212.166L313.187 213.895H317.607V215H311.224V214.129ZM322.849 210.697C322.849 209.796 323.144 209.098 323.733 208.604C324.322 208.101 325.133 207.85 326.164 207.85C327.187 207.85 327.993 208.097 328.582 208.591C329.171 209.085 329.466 209.787 329.466 210.697V215H328.14V210.658C328.14 210.069 327.967 209.631 327.62 209.345C327.273 209.05 326.788 208.903 326.164 208.903C325.531 208.903 325.042 209.05 324.695 209.345C324.348 209.631 324.175 210.069 324.175 210.658V211.984C324.288 211.776 324.465 211.611 324.708 211.49C324.951 211.36 325.237 211.295 325.566 211.295H326.606V212.387H325.462C325.098 212.387 324.79 212.517 324.539 212.777C324.296 213.028 324.175 213.319 324.175 213.648V215H322.849V210.697ZM333.044 215.195C332.567 215.195 332.082 215.139 331.588 215.026C331.094 214.922 330.708 214.766 330.431 214.558V213.492C330.803 213.717 331.211 213.891 331.653 214.012C332.103 214.125 332.532 214.181 332.94 214.181C333.512 214.181 333.923 214.116 334.175 213.986C334.426 213.847 334.552 213.613 334.552 213.284C334.552 213.059 334.491 212.877 334.37 212.738C334.248 212.599 334.062 212.478 333.811 212.374C333.568 212.27 333.182 212.14 332.654 211.984C331.891 211.75 331.323 211.477 330.951 211.165C330.578 210.844 330.392 210.402 330.392 209.839C330.392 209.198 330.639 208.708 331.133 208.37C331.627 208.023 332.303 207.85 333.161 207.85C333.603 207.85 334.027 207.902 334.435 208.006C334.851 208.101 335.193 208.231 335.462 208.396V209.488C335.167 209.306 334.829 209.163 334.448 209.059C334.066 208.955 333.676 208.903 333.278 208.903C332.238 208.903 331.718 209.215 331.718 209.839C331.718 210.073 331.787 210.259 331.926 210.398C332.073 210.537 332.264 210.654 332.498 210.749C332.74 210.836 333.143 210.961 333.707 211.126C334.261 211.291 334.695 211.468 335.007 211.659C335.319 211.85 335.54 212.075 335.67 212.335C335.8 212.595 335.865 212.916 335.865 213.297C335.865 213.869 335.631 214.328 335.163 214.675C334.695 215.022 333.988 215.195 333.044 215.195ZM332.657 207.018C332.285 207.018 332.016 206.927 331.851 206.745C331.678 206.554 331.591 206.273 331.591 205.9V205.224H332.787V205.744C332.787 205.891 332.818 205.991 332.878 206.043C332.93 206.095 333.034 206.121 333.19 206.121H336.258V207.018H332.657ZM332.43 203.56C332.43 203.456 332.413 203.387 332.378 203.352C332.344 203.309 332.27 203.287 332.157 203.287H331.611V202.403H332.547C333.05 202.403 333.301 202.624 333.301 203.066V203.482H335.498V204.301H332.43V203.56ZM335.531 208.916H336.857L338.508 213.96C339.323 213.96 339.951 213.735 340.393 213.284C340.835 212.833 341.056 212.196 341.056 211.373C341.056 210.558 340.905 209.943 340.601 209.527C340.298 209.111 339.813 208.903 339.145 208.903C338.833 208.903 338.53 208.942 338.235 209.02V207.993C338.582 207.898 338.959 207.85 339.366 207.85C340.354 207.85 341.108 208.162 341.628 208.786C342.148 209.41 342.408 210.272 342.408 211.373C342.408 212.127 342.244 212.777 341.914 213.323C341.594 213.869 341.156 214.285 340.601 214.571C340.047 214.857 339.431 215 338.755 215H337.507L335.531 208.916Z" fill="#161717"/>
</svg>
