<svg width="390" height="849" viewBox="0 0 390 849" fill="none" xmlns="http://www.w3.org/2000/svg">
<rect y="5" width="390" height="844" rx="32" fill="white"/>
<path fill-rule="evenodd" clip-rule="evenodd" d="M121 838.5C121 837.119 122.119 836 123.5 836H266.5C267.881 836 269 837.119 269 838.5C269 839.881 267.881 841 266.5 841H123.5C122.119 841 121 839.881 121 838.5Z" fill="#090A0A"/>
<path d="M54.0688 36V26.1304H53.9194L50.9395 28.2305V26.2217L54.0688 24.022H56.2021V36H54.0688ZM63.4219 36.2988C62.4701 36.2988 61.6538 36.0443 60.9731 35.5352C60.298 35.026 59.7778 34.3011 59.4126 33.3604C59.0474 32.4196 58.8647 31.3045 58.8647 30.0151V29.9985C58.8647 28.7091 59.0474 27.5968 59.4126 26.6616C59.7778 25.7209 60.298 24.9959 60.9731 24.4868C61.6538 23.9777 62.4701 23.7231 63.4219 23.7231C64.3737 23.7231 65.1899 23.9777 65.8706 24.4868C66.5513 24.9959 67.0742 25.7209 67.4395 26.6616C67.8047 27.5968 67.9873 28.7091 67.9873 29.9985V30.0151C67.9873 31.3045 67.8047 32.4196 67.4395 33.3604C67.0742 34.3011 66.5513 35.026 65.8706 35.5352C65.1899 36.0443 64.3737 36.2988 63.4219 36.2988ZM63.4219 34.564C63.931 34.564 64.3654 34.3813 64.7251 34.0161C65.0848 33.6509 65.3587 33.1307 65.5469 32.4556C65.7406 31.7749 65.8374 30.9614 65.8374 30.0151V29.9985C65.8374 29.0522 65.7406 28.2415 65.5469 27.5664C65.3587 26.8857 65.0848 26.3656 64.7251 26.0059C64.3654 25.6406 63.931 25.458 63.4219 25.458C62.9128 25.458 62.4784 25.6406 62.1187 26.0059C61.7645 26.3656 61.4906 26.8857 61.2969 27.5664C61.1087 28.2415 61.0146 29.0522 61.0146 29.9985V30.0151C61.0146 30.9614 61.1087 31.7749 61.2969 32.4556C61.4906 33.1307 61.7645 33.6509 62.1187 34.0161C62.4784 34.3813 62.9128 34.564 63.4219 34.564ZM71.2974 34.3896C70.9211 34.3896 70.6056 34.2651 70.3511 34.0161C70.1021 33.7616 69.9775 33.4517 69.9775 33.0864C69.9775 32.7157 70.1021 32.4058 70.3511 32.1567C70.6056 31.9022 70.9211 31.7749 71.2974 31.7749C71.6792 31.7749 71.9946 31.9022 72.2437 32.1567C72.4927 32.4058 72.6172 32.7157 72.6172 33.0864C72.6172 33.4517 72.4927 33.7616 72.2437 34.0161C71.9946 34.2651 71.6792 34.3896 71.2974 34.3896ZM71.2974 28.2305C70.9211 28.2305 70.6056 28.106 70.3511 27.8569C70.1021 27.6024 69.9775 27.2925 69.9775 26.9272C69.9775 26.5565 70.1021 26.2466 70.3511 25.9976C70.6056 25.743 70.9211 25.6157 71.2974 25.6157C71.6792 25.6157 71.9946 25.743 72.2437 25.9976C72.4927 26.2466 72.6172 26.5565 72.6172 26.9272C72.6172 27.2925 72.4927 27.6024 72.2437 27.8569C71.9946 28.106 71.6792 28.2305 71.2974 28.2305ZM79.1562 36.2988C78.2044 36.2988 77.3882 36.0443 76.7075 35.5352C76.0324 35.026 75.5122 34.3011 75.147 33.3604C74.7817 32.4196 74.5991 31.3045 74.5991 30.0151V29.9985C74.5991 28.7091 74.7817 27.5968 75.147 26.6616C75.5122 25.7209 76.0324 24.9959 76.7075 24.4868C77.3882 23.9777 78.2044 23.7231 79.1562 23.7231C80.1081 23.7231 80.9243 23.9777 81.605 24.4868C82.2856 24.9959 82.8086 25.7209 83.1738 26.6616C83.5391 27.5968 83.7217 28.7091 83.7217 29.9985V30.0151C83.7217 31.3045 83.5391 32.4196 83.1738 33.3604C82.8086 34.3011 82.2856 35.026 81.605 35.5352C80.9243 36.0443 80.1081 36.2988 79.1562 36.2988ZM79.1562 34.564C79.6654 34.564 80.0998 34.3813 80.4595 34.0161C80.8192 33.6509 81.0931 33.1307 81.2812 32.4556C81.4749 31.7749 81.5718 30.9614 81.5718 30.0151V29.9985C81.5718 29.0522 81.4749 28.2415 81.2812 27.5664C81.0931 26.8857 80.8192 26.3656 80.4595 26.0059C80.0998 25.6406 79.6654 25.458 79.1562 25.458C78.6471 25.458 78.2127 25.6406 77.853 26.0059C77.4989 26.3656 77.2249 26.8857 77.0312 27.5664C76.8431 28.2415 76.749 29.0522 76.749 29.9985V30.0151C76.749 30.9614 76.8431 31.7749 77.0312 32.4556C77.2249 33.1307 77.4989 33.6509 77.853 34.0161C78.2127 34.3813 78.6471 34.564 79.1562 34.564ZM89.9619 36.2988C89.0101 36.2988 88.1938 36.0443 87.5132 35.5352C86.8381 35.026 86.3179 34.3011 85.9526 33.3604C85.5874 32.4196 85.4048 31.3045 85.4048 30.0151V29.9985C85.4048 28.7091 85.5874 27.5968 85.9526 26.6616C86.3179 25.7209 86.8381 24.9959 87.5132 24.4868C88.1938 23.9777 89.0101 23.7231 89.9619 23.7231C90.9137 23.7231 91.73 23.9777 92.4106 24.4868C93.0913 24.9959 93.6143 25.7209 93.9795 26.6616C94.3447 27.5968 94.5273 28.7091 94.5273 29.9985V30.0151C94.5273 31.3045 94.3447 32.4196 93.9795 33.3604C93.6143 34.3011 93.0913 35.026 92.4106 35.5352C91.73 36.0443 90.9137 36.2988 89.9619 36.2988ZM89.9619 34.564C90.471 34.564 90.9054 34.3813 91.2651 34.0161C91.6248 33.6509 91.8988 33.1307 92.0869 32.4556C92.2806 31.7749 92.3774 30.9614 92.3774 30.0151V29.9985C92.3774 29.0522 92.2806 28.2415 92.0869 27.5664C91.8988 26.8857 91.6248 26.3656 91.2651 26.0059C90.9054 25.6406 90.471 25.458 89.9619 25.458C89.4528 25.458 89.0184 25.6406 88.6587 26.0059C88.3045 26.3656 88.0306 26.8857 87.8369 27.5664C87.6488 28.2415 87.5547 29.0522 87.5547 29.9985V30.0151C87.5547 30.9614 87.6488 31.7749 87.8369 32.4556C88.0306 33.1307 88.3045 33.6509 88.6587 34.0161C89.0184 34.3813 89.4528 34.564 89.9619 34.564Z" fill="black"/>
<path d="M288.333 31C288.977 31 289.5 31.5037 289.5 32.125V34.375C289.5 34.9963 288.977 35.5 288.333 35.5H287.167C286.523 35.5 286 34.9963 286 34.375V32.125C286 31.5037 286.523 31 287.167 31H288.333ZM293.823 28.75C294.468 28.75 294.99 29.2537 294.99 29.875V34.375C294.99 34.9963 294.468 35.5 293.823 35.5H292.657C292.013 35.5 291.49 34.9963 291.49 34.375V29.875C291.49 29.2537 292.013 28.75 292.657 28.75H293.823ZM299.313 26.125C299.958 26.125 300.48 26.6287 300.48 27.25V34.375C300.48 34.9963 299.958 35.5 299.313 35.5H298.147C297.503 35.5 296.98 34.9963 296.98 34.375V27.25C296.981 26.6287 297.503 26.125 298.147 26.125H299.313ZM304.804 23.5C305.448 23.5 305.971 24.0037 305.971 24.625V34.375C305.971 34.9963 305.448 35.5 304.804 35.5H303.638C302.993 35.5 302.471 34.9963 302.471 34.375V24.625C302.471 24.0037 302.993 23.5 303.638 23.5H304.804Z" fill="black"/>
<path d="M318.512 32.8262C319.932 31.5964 322.011 31.5964 323.431 32.8262C323.502 32.8924 323.544 32.9855 323.546 33.084C323.548 33.1826 323.51 33.2777 323.441 33.3467L321.218 35.6446C321.153 35.7121 321.063 35.7501 320.971 35.7501C320.878 35.7499 320.79 35.7119 320.725 35.6446L318.501 33.3467C318.432 33.2776 318.394 33.1826 318.396 33.084C318.399 32.9855 318.44 32.8923 318.512 32.8262ZM315.545 29.7608C318.604 26.8467 323.341 26.8467 326.4 29.7608C326.469 29.829 326.509 29.9225 326.51 30.0206C326.511 30.1188 326.473 30.2135 326.405 30.2833L325.12 31.6133C324.988 31.7491 324.774 31.7524 324.638 31.6202C323.633 30.6886 322.326 30.1728 320.971 30.1729C319.617 30.1736 318.311 30.6895 317.308 31.6202C317.172 31.7524 316.958 31.7491 316.825 31.6133L315.54 30.2833C315.472 30.2136 315.435 30.1189 315.436 30.0206C315.437 29.9224 315.476 29.829 315.545 29.7608ZM312.578 26.7032C317.27 22.0989 324.671 22.099 329.363 26.7032C329.431 26.7716 329.47 26.8654 329.471 26.963C329.471 27.0605 329.433 27.1545 329.366 27.2237L328.08 28.5538C327.947 28.6901 327.732 28.691 327.598 28.5567C325.81 26.8164 323.437 25.8459 320.971 25.8458C318.504 25.8459 316.131 26.8163 314.344 28.5567C314.209 28.6913 313.994 28.6904 313.861 28.5538L312.574 27.2237C312.507 27.1545 312.47 27.0605 312.471 26.963C312.471 26.8654 312.51 26.7715 312.578 26.7032Z" fill="black"/>
<rect opacity="0.4" x="336.471" y="23.5" width="24" height="12" rx="3.5" stroke="black"/>
<path opacity="0.5" d="M361.971 27.5V31.5C362.777 31.1612 363.301 30.3731 363.301 29.5C363.301 28.6269 362.777 27.8388 361.971 27.5Z" fill="black"/>
<rect x="337.971" y="25" width="17" height="9" rx="2" fill="black"/>
<path d="M147.126 93.33C145.777 93.33 144.699 92.9927 143.892 92.318C143.1 91.6433 142.704 90.69 142.704 89.458C142.704 88.226 143.137 87.258 144.002 86.554C144.882 85.85 146.085 85.498 147.61 85.498C149.033 85.498 150.25 85.7327 151.262 86.202V85.74C151.262 84.948 150.998 84.3613 150.47 83.98C149.957 83.5987 149.121 83.408 147.962 83.408C147.243 83.408 146.539 83.4813 145.85 83.628C145.161 83.7747 144.545 83.98 144.002 84.244V81.736C144.486 81.5013 145.153 81.3033 146.004 81.142C146.855 80.9807 147.713 80.9 148.578 80.9C150.543 80.9 152.032 81.34 153.044 82.22C154.071 83.0853 154.584 84.2513 154.584 85.718V93H151.262V88.622C150.411 88.182 149.414 87.962 148.27 87.962C147.522 87.962 146.972 88.0867 146.62 88.336C146.283 88.5853 146.114 88.974 146.114 89.502C146.114 89.986 146.268 90.3527 146.576 90.602C146.899 90.8367 147.405 90.954 148.094 90.954C148.578 90.954 148.989 90.8807 149.326 90.734V93.044C148.754 93.2347 148.021 93.33 147.126 93.33ZM144.421 77.666H148.513V75.334H150.823V77.666H152.297V75.334H154.585V79.778H144.421V77.666ZM164.001 93.33C163.267 93.33 162.556 93.1907 161.867 92.912C161.177 92.6333 160.576 92.2227 160.063 91.68V93H156.873V81.23H160.217V89.15C160.539 89.6927 160.928 90.096 161.383 90.36C161.837 90.6093 162.373 90.734 162.989 90.734C164.499 90.734 165.255 90.0227 165.255 88.6V81.23H168.577V88.798C168.577 89.6487 168.401 90.4187 168.049 91.108C167.697 91.7973 167.176 92.34 166.487 92.736C165.797 93.132 164.969 93.33 164.001 93.33ZM175.28 93.33C174.415 93.33 173.535 93.242 172.64 93.066C171.76 92.9047 171.064 92.6553 170.55 92.318V89.766C171.196 90.1473 171.914 90.4407 172.706 90.646C173.513 90.8513 174.239 90.954 174.884 90.954C175.662 90.954 176.226 90.8807 176.578 90.734C176.945 90.5727 177.128 90.294 177.128 89.898C177.128 89.546 176.952 89.2747 176.6 89.084C176.263 88.8933 175.625 88.6513 174.686 88.358L174.136 88.182C172.875 87.786 171.944 87.3093 171.342 86.752C170.741 86.1947 170.44 85.432 170.44 84.464C170.44 83.3347 170.895 82.462 171.804 81.846C172.714 81.2153 173.938 80.9 175.478 80.9C176.314 80.9 177.121 80.988 177.898 81.164C178.676 81.34 179.299 81.5673 179.768 81.846V84.464C179.299 84.1413 178.712 83.8847 178.008 83.694C177.319 83.4887 176.637 83.386 175.962 83.386C174.54 83.386 173.828 83.7453 173.828 84.464C173.828 84.816 173.997 85.0873 174.334 85.278C174.672 85.4687 175.273 85.696 176.138 85.96L176.93 86.202C177.854 86.4953 178.573 86.818 179.086 87.17C179.614 87.522 179.981 87.918 180.186 88.358C180.392 88.798 180.494 89.3333 180.494 89.964C180.494 90.976 180.054 91.79 179.174 92.406C178.309 93.022 177.011 93.33 175.28 93.33ZM182.353 81.23H185.697V85.476L190.163 81.23H193.969L190.801 84.244C191.945 84.5667 192.744 85.0653 193.199 85.74C193.668 86.4147 193.903 87.3093 193.903 88.424V93H190.559V88.71C190.559 87.962 190.427 87.4047 190.163 87.038C189.914 86.6713 189.452 86.4073 188.777 86.246L185.697 89.128V93H182.353V81.23ZM189.368 79.778C187.96 79.778 187.256 79.0667 187.256 77.644V76.038H190.248V77.116C190.248 77.3213 190.292 77.468 190.38 77.556C190.454 77.6293 190.6 77.666 190.82 77.666H195.836V79.778H189.368ZM200.192 93.33C198.843 93.33 197.765 92.9927 196.958 92.318C196.166 91.6433 195.77 90.69 195.77 89.458C195.77 88.226 196.203 87.258 197.068 86.554C197.948 85.85 199.151 85.498 200.676 85.498C202.099 85.498 203.316 85.7327 204.328 86.202V85.74C204.328 84.948 204.064 84.3613 203.536 83.98C203.023 83.5987 202.187 83.408 201.028 83.408C200.31 83.408 199.606 83.4813 198.916 83.628C198.227 83.7747 197.611 83.98 197.068 84.244V81.736C197.552 81.5013 198.22 81.3033 199.07 81.142C199.921 80.9807 200.779 80.9 201.644 80.9C202.627 80.9 203.544 81.0467 204.394 81.34L205.252 80.35H208.882L206.704 82.88C207.335 83.5987 207.65 84.5447 207.65 85.718V93H204.328V88.622C203.478 88.182 202.48 87.962 201.336 87.962C200.588 87.962 200.038 88.0867 199.686 88.336C199.349 88.5853 199.18 88.974 199.18 89.502C199.18 89.986 199.334 90.3527 199.642 90.602C199.965 90.8367 200.471 90.954 201.16 90.954C201.644 90.954 202.055 90.8807 202.392 90.734V93.044C201.82 93.2347 201.087 93.33 200.192 93.33ZM210.24 83.936C210.24 83.0707 210.474 82.4033 210.944 81.934C211.413 81.4647 212.08 81.23 212.946 81.23H215.322V83.804H214.53C214.178 83.804 213.928 83.8773 213.782 84.024C213.635 84.1707 213.562 84.4347 213.562 84.816V88.644L215.784 85.256H216.95L219.172 88.644V81.23H222.472V93H219.48L216.356 88.248L213.232 93H210.24V83.936ZM219.153 75.862H222.497V79.778H219.153V75.862ZM228.327 85.674C228.327 84.9113 228.165 84.3613 227.843 84.024C227.52 83.672 226.955 83.496 226.149 83.496C225.371 83.496 224.587 83.694 223.795 84.09V81.56C224.147 81.384 224.616 81.23 225.203 81.098C225.804 80.966 226.383 80.9 226.941 80.9C228.481 80.9 229.654 81.3107 230.461 82.132C231.267 82.9533 231.671 84.1413 231.671 85.696V93H228.327V85.674ZM238.534 93.33C237.581 93.33 236.76 93.132 236.07 92.736C235.381 92.34 234.853 91.7973 234.486 91.108C234.134 90.4187 233.958 89.6487 233.958 88.798V81.23H237.302V88.6C237.302 90.0227 238.058 90.734 239.568 90.734C240.184 90.734 240.712 90.6093 241.152 90.36C241.607 90.096 242.003 89.6927 242.34 89.15V81.23H245.662V93H242.494V91.68C241.981 92.2227 241.372 92.6333 240.668 92.912C239.979 93.1907 239.268 93.33 238.534 93.33Z" fill="#4E5256"/>
<path d="M35.4 142.24L34.7 141.134C35.1667 140.537 35.708 140.084 36.324 139.776C36.94 139.459 37.6727 139.3 38.522 139.3C39.6047 139.3 40.4307 139.547 41 140.042C41.5693 140.537 41.854 141.232 41.854 142.128V147H40.776V142.226C40.776 141.526 40.5847 141.008 40.202 140.672C39.8287 140.336 39.2687 140.168 38.522 140.168C37.9433 140.168 37.4393 140.257 37.01 140.434C36.5807 140.602 36.198 140.877 35.862 141.26L36.478 142.226V147H35.4V142.24ZM46.29 147.21C45.8047 147.21 45.3007 147.145 44.778 147.014C44.2647 146.893 43.8587 146.72 43.56 146.496V145.586C43.952 145.838 44.3814 146.029 44.848 146.16C45.3147 146.281 45.772 146.342 46.22 146.342C46.892 146.342 47.3727 146.258 47.662 146.09C47.9607 145.913 48.11 145.619 48.11 145.208C48.11 144.937 48.0447 144.718 47.914 144.55C47.7927 144.373 47.5874 144.219 47.298 144.088C47.0087 143.957 46.5794 143.808 46.01 143.64C45.1607 143.388 44.5354 143.103 44.134 142.786C43.7327 142.459 43.532 141.988 43.532 141.372C43.532 140.7 43.784 140.187 44.288 139.832C44.8014 139.477 45.5014 139.3 46.388 139.3C46.8454 139.3 47.284 139.356 47.704 139.468C48.124 139.571 48.474 139.711 48.754 139.888V140.784C48.082 140.373 47.3214 140.168 46.472 140.168C45.2307 140.168 44.61 140.569 44.61 141.372C44.61 141.661 44.6847 141.89 44.834 142.058C44.9834 142.226 45.2027 142.371 45.492 142.492C45.7814 142.604 46.2247 142.744 46.822 142.912C47.4194 143.08 47.886 143.267 48.222 143.472C48.5674 143.668 48.8147 143.906 48.964 144.186C49.1134 144.457 49.188 144.802 49.188 145.222C49.188 145.819 48.95 146.3 48.474 146.664C48.0074 147.028 47.2794 147.21 46.29 147.21ZM47.9127 149.198C47.9127 149.021 47.8801 148.904 47.8147 148.848C47.7494 148.801 47.6187 148.778 47.4227 148.778H46.9887V147.868H47.9827C48.3467 147.868 48.5941 147.947 48.7247 148.106C48.8461 148.265 48.9067 148.545 48.9067 148.946V150.598H47.9127V149.198ZM59.1267 147.21C58.2494 147.21 57.5727 146.967 57.0967 146.482C56.6207 145.997 56.3827 145.348 56.3827 144.536V142.226C56.3827 141.517 56.2054 140.999 55.8507 140.672C55.5054 140.336 54.9781 140.168 54.2687 140.168C53.7274 140.168 53.2607 140.252 52.8687 140.42C52.4767 140.588 52.1034 140.868 51.7487 141.26L52.3647 142.226V145.362C52.3647 145.633 52.4161 145.824 52.5187 145.936C52.6307 146.039 52.8174 146.09 53.0787 146.09H53.8907V147H52.6307C52.1921 147 51.8561 146.879 51.6227 146.636C51.3987 146.393 51.2867 146.057 51.2867 145.628V142.24L50.5867 141.134C51.0627 140.527 51.5901 140.07 52.1687 139.762C52.7567 139.454 53.4567 139.3 54.2687 139.3C55.3141 139.3 56.1027 139.547 56.6347 140.042C57.1761 140.537 57.4467 141.232 57.4467 142.128V144.494C57.4467 145.726 58.0907 146.342 59.3787 146.342C60.3401 146.342 61.1287 145.866 61.7447 144.914V139.51H62.8227V147H61.7867V145.922C61.1241 146.781 60.2374 147.21 59.1267 147.21ZM67.6547 142.1C67.6547 141.437 67.5194 140.952 67.2487 140.644C66.978 140.327 66.516 140.168 65.8627 140.168C65.2 140.168 64.6074 140.299 64.0847 140.56V139.692C64.3087 139.58 64.5934 139.487 64.9387 139.412C65.2934 139.337 65.648 139.3 66.0027 139.3C66.9267 139.3 67.6127 139.547 68.0607 140.042C68.5087 140.537 68.7327 141.246 68.7327 142.17V147H67.6547V142.1ZM71.1109 142.24L70.4109 141.134C70.8776 140.537 71.4189 140.084 72.0349 139.776C72.6509 139.459 73.3836 139.3 74.2329 139.3C75.3156 139.3 76.1416 139.547 76.7109 140.042C77.2803 140.537 77.5649 141.232 77.5649 142.128V147H76.4869V142.226C76.4869 141.526 76.2956 141.008 75.9129 140.672C75.5396 140.336 74.9796 140.168 74.2329 140.168C73.6543 140.168 73.1503 140.257 72.7209 140.434C72.2916 140.602 71.9089 140.877 71.5729 141.26L72.1889 142.226V147H71.1109V142.24ZM82.001 147.21C81.5156 147.21 81.0116 147.145 80.489 147.014C79.9756 146.893 79.5696 146.72 79.271 146.496V145.586C79.663 145.838 80.0923 146.029 80.559 146.16C81.0256 146.281 81.483 146.342 81.931 146.342C82.603 146.342 83.0836 146.258 83.373 146.09C83.6716 145.913 83.821 145.619 83.821 145.208C83.821 144.937 83.7556 144.718 83.625 144.55C83.5036 144.373 83.2983 144.219 83.009 144.088C82.7196 143.957 82.2903 143.808 81.721 143.64C80.8716 143.388 80.2463 143.103 79.845 142.786C79.4436 142.459 79.243 141.988 79.243 141.372C79.243 140.7 79.495 140.187 79.999 139.832C80.5123 139.477 81.2123 139.3 82.099 139.3C82.5563 139.3 82.995 139.356 83.415 139.468C83.835 139.571 84.185 139.711 84.465 139.888V140.784C83.793 140.373 83.0323 140.168 82.183 140.168C80.9416 140.168 80.321 140.569 80.321 141.372C80.321 141.661 80.3956 141.89 80.545 142.058C80.6943 142.226 80.9136 142.371 81.203 142.492C81.4923 142.604 81.9356 142.744 82.533 142.912C83.1303 143.08 83.597 143.267 83.933 143.472C84.2783 143.668 84.5256 143.906 84.675 144.186C84.8243 144.457 84.899 144.802 84.899 145.222C84.899 145.819 84.661 146.3 84.185 146.664C83.7183 147.028 82.9903 147.21 82.001 147.21ZM89.2097 147.21C88.659 147.21 88.127 147.14 87.6137 147C87.1003 146.86 86.6617 146.659 86.2977 146.398V142.87H89.1537V143.738H87.3757V145.894C87.833 146.193 88.4443 146.342 89.2097 146.342C90.1617 146.342 90.9037 146.062 91.4357 145.502C91.9677 144.942 92.2337 144.149 92.2337 143.122C92.2337 142.086 91.9817 141.335 91.4777 140.868C90.983 140.401 90.1617 140.168 89.0137 140.168C88.5097 140.168 88.0197 140.224 87.5437 140.336C87.077 140.439 86.6803 140.607 86.3537 140.84V139.944C87.063 139.515 87.9917 139.3 89.1397 139.3C90.5023 139.3 91.5383 139.627 92.2477 140.28C92.957 140.924 93.3117 141.871 93.3117 143.122C93.3117 143.943 93.1483 144.662 92.8217 145.278C92.495 145.894 92.0237 146.37 91.4077 146.706C90.7917 147.042 90.059 147.21 89.2097 147.21ZM95.4059 142.24L94.7059 141.134C95.1725 140.537 95.7139 140.084 96.3299 139.776C96.9459 139.459 97.6785 139.3 98.5279 139.3C99.6105 139.3 100.437 139.547 101.006 140.042C101.575 140.537 101.86 141.232 101.86 142.128V147H100.782V142.226C100.782 141.526 100.591 141.008 100.208 140.672C99.8345 140.336 99.2745 140.168 98.5279 140.168C97.9492 140.168 97.4452 140.257 97.0159 140.434C96.5865 140.602 96.2039 140.877 95.8679 141.26L96.4839 142.226V147H95.4059V142.24ZM106.45 147.21C105.899 147.21 105.367 147.14 104.854 147C104.341 146.86 103.902 146.659 103.538 146.398V142.87H106.394V143.738H104.616V145.894C105.073 146.193 105.685 146.342 106.45 146.342C107.402 146.342 108.144 146.062 108.676 145.502C109.208 144.942 109.474 144.149 109.474 143.122C109.474 142.086 109.222 141.335 108.718 140.868C108.223 140.401 107.402 140.168 106.254 140.168C105.75 140.168 105.26 140.224 104.784 140.336C104.317 140.439 103.921 140.607 103.594 140.84V139.944C104.303 139.515 105.232 139.3 106.38 139.3C107.743 139.3 108.779 139.627 109.488 140.28C110.197 140.924 110.552 141.871 110.552 143.122C110.552 143.943 110.389 144.662 110.062 145.278C109.735 145.894 109.264 146.37 108.648 146.706C108.032 147.042 107.299 147.21 106.45 147.21ZM104.428 137.508H109.272V136.024H110.266V138.306H104.428V137.508ZM113.528 147C113.108 147 112.786 146.879 112.562 146.636C112.338 146.393 112.226 146.057 112.226 145.628V139.51H113.304V145.39C113.304 145.661 113.36 145.847 113.472 145.95C113.584 146.043 113.771 146.09 114.032 146.09H114.55V147H113.528ZM120.082 147.21C118.943 147.21 118.01 146.771 117.282 145.894V147H116.232V139.51H117.31V144.914C117.926 145.866 118.766 146.342 119.83 146.342C120.511 146.342 121.025 146.188 121.37 145.88C121.715 145.563 121.888 145.101 121.888 144.494V139.51H122.966V144.536C122.966 145.348 122.714 145.997 122.21 146.482C121.706 146.967 120.997 147.21 120.082 147.21ZM127.307 147.21C126.486 147.21 125.837 147.009 125.361 146.608C124.885 146.197 124.647 145.609 124.647 144.844C124.647 144.097 124.913 143.509 125.445 143.08C125.977 142.641 126.691 142.422 127.587 142.422C128.558 142.422 129.44 142.609 130.233 142.982V142.17C130.233 141.479 130.047 140.975 129.673 140.658C129.3 140.331 128.693 140.168 127.853 140.168C127.415 140.168 126.985 140.21 126.565 140.294C126.145 140.369 125.781 140.476 125.473 140.616V139.748C125.753 139.617 126.131 139.51 126.607 139.426C127.083 139.342 127.545 139.3 127.993 139.3C129.113 139.3 129.944 139.557 130.485 140.07C131.036 140.574 131.311 141.269 131.311 142.156V147H130.233V143.85C129.496 143.477 128.647 143.29 127.685 143.29C127.013 143.29 126.519 143.421 126.201 143.682C125.884 143.934 125.725 144.321 125.725 144.844C125.725 145.357 125.87 145.735 126.159 145.978C126.449 146.221 126.911 146.342 127.545 146.342C127.872 146.342 128.18 146.3 128.469 146.216V147.07C128.143 147.163 127.755 147.21 127.307 147.21ZM133.267 139.51H134.317V140.602C134.681 140.163 135.12 139.837 135.633 139.622C136.146 139.407 136.669 139.3 137.201 139.3C138.097 139.3 138.788 139.543 139.273 140.028C139.758 140.513 140.001 141.143 140.001 141.918V147H138.923V141.974C138.923 141.405 138.76 140.961 138.433 140.644C138.106 140.327 137.612 140.168 136.949 140.168C135.82 140.168 134.952 140.635 134.345 141.568V147H133.267V139.51ZM134.164 137.508H139.008V136.024H140.002V138.306H134.164V137.508ZM138.98 132.742H139.946V134.548H138.98V132.742ZM141.962 142.268C141.962 141.325 142.266 140.597 142.872 140.084C143.488 139.561 144.328 139.3 145.392 139.3C146.466 139.3 147.306 139.561 147.912 140.084C148.519 140.597 148.822 141.325 148.822 142.268V147H147.744V142.226C147.744 141.535 147.534 141.022 147.114 140.686C146.704 140.341 146.13 140.168 145.392 140.168C144.655 140.168 144.076 140.341 143.656 140.686C143.246 141.022 143.04 141.535 143.04 142.226V143.864C143.18 143.621 143.39 143.425 143.67 143.276C143.96 143.117 144.296 143.038 144.678 143.038H145.784V143.906H144.58C144.3 143.906 144.039 143.981 143.796 144.13C143.563 144.279 143.376 144.471 143.236 144.704C143.106 144.928 143.04 145.161 143.04 145.404V147H141.962V142.268ZM147.827 149.198C147.827 149.021 147.794 148.904 147.729 148.848C147.663 148.801 147.533 148.778 147.337 148.778H146.903V147.868H147.897C148.261 147.868 148.508 147.947 148.639 148.106C148.76 148.265 148.821 148.545 148.821 148.946V150.598H147.827V149.198ZM159.041 147.21C158.163 147.21 157.487 146.967 157.011 146.482C156.535 145.997 156.297 145.348 156.297 144.536V142.226C156.297 141.517 156.119 140.999 155.765 140.672C155.419 140.336 154.892 140.168 154.183 140.168C153.641 140.168 153.175 140.252 152.783 140.42C152.391 140.588 152.017 140.868 151.663 141.26L152.279 142.226V145.362C152.279 145.633 152.33 145.824 152.433 145.936C152.545 146.039 152.731 146.09 152.993 146.09H153.805V147H152.545C152.106 147 151.77 146.879 151.537 146.636C151.313 146.393 151.201 146.057 151.201 145.628V142.24L150.501 141.134C150.977 140.527 151.504 140.07 152.083 139.762C152.671 139.454 153.371 139.3 154.183 139.3C155.228 139.3 156.017 139.547 156.549 140.042C157.09 140.537 157.361 141.232 157.361 142.128V144.494C157.361 145.726 158.005 146.342 159.293 146.342C160.254 146.342 161.043 145.866 161.659 144.914V139.51H162.737V147H161.701V145.922C161.038 146.781 160.151 147.21 159.041 147.21ZM166.127 147C165.707 147 165.385 146.879 165.161 146.636C164.937 146.393 164.825 146.057 164.825 145.628V141.582C164.825 141.078 164.913 140.663 165.091 140.336C165.268 140.009 165.52 139.659 165.847 139.286C166.052 139.053 166.206 138.852 166.309 138.684C166.411 138.516 166.463 138.339 166.463 138.152C166.463 137.816 166.374 137.573 166.197 137.424C166.019 137.275 165.716 137.2 165.287 137.2C164.736 137.2 164.213 137.354 163.719 137.662V136.794C164.232 136.486 164.853 136.332 165.581 136.332C166.243 136.332 166.733 136.5 167.051 136.836C167.377 137.163 167.541 137.592 167.541 138.124C167.541 138.385 167.48 138.619 167.359 138.824C167.237 139.029 167.055 139.267 166.813 139.538C166.514 139.883 166.285 140.201 166.127 140.49C165.977 140.77 165.903 141.12 165.903 141.54V145.39C165.903 145.661 165.959 145.847 166.071 145.95C166.183 146.043 166.369 146.09 166.631 146.09H167.149V147H166.127ZM171.782 147.21C171.157 147.21 170.602 147.093 170.116 146.86C169.631 146.627 169.253 146.3 168.982 145.88C168.721 145.46 168.59 144.97 168.59 144.41V143.808C168.59 143.509 168.656 143.229 168.786 142.968C168.926 142.707 169.122 142.399 169.374 142.044C169.561 141.792 169.701 141.587 169.794 141.428C169.888 141.26 169.934 141.097 169.934 140.938C169.934 140.723 169.888 140.579 169.794 140.504C169.701 140.42 169.533 140.378 169.29 140.378H168.52V139.51H169.738C170.13 139.51 170.438 139.627 170.662 139.86C170.896 140.093 171.012 140.406 171.012 140.798C171.012 141.05 170.956 141.288 170.844 141.512C170.732 141.727 170.56 141.997 170.326 142.324C170.102 142.623 169.934 142.879 169.822 143.094C169.72 143.299 169.668 143.519 169.668 143.752V144.452C169.668 145.049 169.855 145.516 170.228 145.852C170.602 146.179 171.12 146.342 171.782 146.342C172.473 146.342 173.024 146.155 173.434 145.782C173.845 145.409 174.05 144.849 174.05 144.102C174.05 143.393 173.896 142.851 173.588 142.478C173.28 142.105 172.832 141.918 172.244 141.918V141.302L173.798 139.3H174.988L173.364 141.386C174.54 141.741 175.128 142.646 175.128 144.102C175.128 145.082 174.82 145.847 174.204 146.398C173.588 146.939 172.781 147.21 171.782 147.21ZM172.175 137.438C172.175 137.317 172.156 137.233 172.119 137.186C172.072 137.139 171.988 137.116 171.867 137.116H171.251V136.332H172.161C172.441 136.332 172.646 136.402 172.777 136.542C172.898 136.673 172.959 136.841 172.959 137.046V137.564H175.829V138.306H172.175V137.438ZM179.329 147.21C178.507 147.21 177.859 147.009 177.383 146.608C176.907 146.197 176.669 145.609 176.669 144.844C176.669 144.097 176.935 143.509 177.467 143.08C177.999 142.641 178.713 142.422 179.609 142.422C180.579 142.422 181.461 142.609 182.255 142.982V142.17C182.255 141.479 182.068 140.975 181.695 140.658C181.321 140.331 180.715 140.168 179.875 140.168C179.436 140.168 179.007 140.21 178.587 140.294C178.167 140.369 177.803 140.476 177.495 140.616V139.748C177.775 139.617 178.153 139.51 178.629 139.426C179.105 139.342 179.567 139.3 180.015 139.3C181.135 139.3 181.965 139.557 182.507 140.07C183.057 140.574 183.333 141.269 183.333 142.156V147H182.255V143.85C181.517 143.477 180.668 143.29 179.707 143.29C179.035 143.29 178.54 143.421 178.223 143.682C177.905 143.934 177.747 144.321 177.747 144.844C177.747 145.357 177.891 145.735 178.181 145.978C178.47 146.221 178.932 146.342 179.567 146.342C179.893 146.342 180.201 146.3 180.491 146.216V147.07C180.164 147.163 179.777 147.21 179.329 147.21ZM185.009 140.448H186.101L188.019 146.146C188.999 146.146 189.75 145.885 190.273 145.362C190.795 144.83 191.057 144.083 191.057 143.122C191.057 142.161 190.875 141.428 190.511 140.924C190.147 140.42 189.563 140.168 188.761 140.168C188.415 140.168 188.084 140.21 187.767 140.294V139.44C188.075 139.347 188.457 139.3 188.915 139.3C189.96 139.3 190.758 139.641 191.309 140.322C191.859 141.003 192.135 141.937 192.135 143.122C192.135 143.925 191.962 144.62 191.617 145.208C191.281 145.796 190.819 146.244 190.231 146.552C189.652 146.851 188.999 147 188.271 147H187.207L185.009 140.448ZM193.82 139.51H194.87V140.602C195.234 140.163 195.673 139.837 196.186 139.622C196.699 139.407 197.222 139.3 197.754 139.3C198.65 139.3 199.341 139.543 199.826 140.028C200.311 140.513 200.554 141.143 200.554 141.918V147H199.476V141.974C199.476 141.405 199.313 140.961 198.986 140.644C198.659 140.327 198.165 140.168 197.502 140.168C196.373 140.168 195.505 140.635 194.898 141.568V147H193.82V139.51ZM203.257 142.366C202.893 142.366 202.632 142.282 202.473 142.114C202.314 141.946 202.235 141.694 202.235 141.358V140.658H203.229V141.134C203.229 141.293 203.262 141.405 203.327 141.47C203.402 141.535 203.528 141.568 203.705 141.568H205.329V142.366H203.257ZM203.257 146.216C202.893 146.216 202.632 146.132 202.473 145.964C202.314 145.796 202.235 145.544 202.235 145.208V144.508H203.229V144.984C203.229 145.143 203.262 145.255 203.327 145.32C203.402 145.385 203.528 145.418 203.705 145.418H205.329V146.216H203.257ZM208.315 147C207.895 147 207.573 146.879 207.349 146.636C207.125 146.393 207.013 146.057 207.013 145.628V139.51H208.091V145.39C208.091 145.661 208.147 145.847 208.259 145.95C208.371 146.043 208.558 146.09 208.819 146.09H209.337V147H208.315ZM214.491 147.21C213.791 147.21 213.175 147.084 212.643 146.832C212.12 146.58 211.719 146.225 211.439 145.768C211.159 145.301 211.019 144.769 211.019 144.172V139.51H212.097V144.186C212.097 144.849 212.302 145.376 212.713 145.768C213.133 146.151 213.726 146.342 214.491 146.342C215.256 146.342 215.844 146.151 216.255 145.768C216.675 145.376 216.885 144.849 216.885 144.186V139.51H217.963V144.172C217.963 144.769 217.823 145.301 217.543 145.768C217.263 146.225 216.857 146.58 216.325 146.832C215.802 147.084 215.191 147.21 214.491 147.21ZM212.121 137.508H216.965V136.024H217.959V138.306H212.121V137.508ZM223.083 147.21C222.029 147.21 221.189 147.014 220.563 146.622C219.947 146.221 219.639 145.633 219.639 144.858C219.639 144.419 219.756 144.041 219.989 143.724C220.223 143.397 220.545 143.173 220.955 143.052C220.563 142.903 220.251 142.679 220.017 142.38C219.793 142.072 219.681 141.713 219.681 141.302C219.681 140.705 219.877 140.224 220.269 139.86C220.661 139.487 221.231 139.3 221.977 139.3C222.183 139.3 222.393 139.314 222.607 139.342C222.831 139.37 223.009 139.403 223.139 139.44V140.294C223.018 140.257 222.859 140.229 222.663 140.21C222.477 140.182 222.304 140.168 222.145 140.168C221.697 140.168 221.352 140.275 221.109 140.49C220.876 140.695 220.759 140.985 220.759 141.358C220.759 141.741 220.89 142.044 221.151 142.268C221.422 142.483 221.805 142.59 222.299 142.59H223.139V143.486H222.313C221.809 143.486 221.417 143.603 221.137 143.836C220.857 144.06 220.717 144.401 220.717 144.858C220.717 145.334 220.927 145.703 221.347 145.964C221.777 146.216 222.355 146.342 223.083 146.342C223.933 146.342 224.558 146.155 224.959 145.782C225.37 145.399 225.575 144.867 225.575 144.186V139.51H226.653V144.158C226.653 144.681 226.541 145.171 226.317 145.628C226.093 146.085 225.715 146.463 225.183 146.762C224.651 147.061 223.951 147.21 223.083 147.21ZM231.512 147.21C230.598 147.21 229.888 146.967 229.384 146.482C228.88 145.997 228.628 145.348 228.628 144.536V139.51H229.706V144.494C229.706 145.101 229.879 145.563 230.224 145.88C230.57 146.188 231.083 146.342 231.764 146.342C232.828 146.342 233.668 145.866 234.284 144.914V139.51H235.362V147H234.312V145.894C233.967 146.342 233.566 146.673 233.108 146.888C232.651 147.103 232.119 147.21 231.512 147.21ZM37.458 167.21C36.9727 167.21 36.4687 167.145 35.946 167.014C35.4327 166.893 35.0267 166.72 34.728 166.496V165.586C35.12 165.838 35.5493 166.029 36.016 166.16C36.4827 166.281 36.94 166.342 37.388 166.342C38.06 166.342 38.5407 166.258 38.83 166.09C39.1287 165.913 39.278 165.619 39.278 165.208C39.278 164.937 39.2127 164.718 39.082 164.55C38.9607 164.373 38.7553 164.219 38.466 164.088C38.1767 163.957 37.7473 163.808 37.178 163.64C36.3287 163.388 35.7033 163.103 35.302 162.786C34.9007 162.459 34.7 161.988 34.7 161.372C34.7 160.7 34.952 160.187 35.456 159.832C35.9693 159.477 36.6693 159.3 37.556 159.3C38.0133 159.3 38.452 159.356 38.872 159.468C39.292 159.571 39.642 159.711 39.922 159.888V160.784C39.25 160.373 38.4893 160.168 37.64 160.168C36.3987 160.168 35.778 160.569 35.778 161.372C35.778 161.661 35.8527 161.89 36.002 162.058C36.1513 162.226 36.3707 162.371 36.66 162.492C36.9493 162.604 37.3927 162.744 37.99 162.912C38.5873 163.08 39.054 163.267 39.39 163.472C39.7353 163.668 39.9827 163.906 40.132 164.186C40.2813 164.457 40.356 164.802 40.356 165.222C40.356 165.819 40.118 166.3 39.642 166.664C39.1753 167.028 38.4473 167.21 37.458 167.21ZM42.7767 162.366C42.4127 162.366 42.1514 162.282 41.9927 162.114C41.834 161.946 41.7547 161.694 41.7547 161.358V160.658H42.7487V161.134C42.7487 161.293 42.7814 161.405 42.8467 161.47C42.9214 161.535 43.0474 161.568 43.2247 161.568H44.8487V162.366H42.7767ZM42.7767 166.216C42.4127 166.216 42.1514 166.132 41.9927 165.964C41.834 165.796 41.7547 165.544 41.7547 165.208V164.508H42.7487V164.984C42.7487 165.143 42.7814 165.255 42.8467 165.32C42.9214 165.385 43.0474 165.418 43.2247 165.418H44.8487V166.216H42.7767ZM50.0047 167.21C49.3047 167.21 48.6887 167.084 48.1567 166.832C47.6341 166.58 47.2327 166.225 46.9527 165.768C46.6727 165.301 46.5327 164.769 46.5327 164.172V159.51H47.6107V164.186C47.6107 164.849 47.8161 165.376 48.2267 165.768C48.6467 166.151 49.2394 166.342 50.0047 166.342C50.7701 166.342 51.3581 166.151 51.7687 165.768C52.1887 165.376 52.3987 164.849 52.3987 164.186V159.51H53.4767V164.172C53.4767 164.769 53.3367 165.301 53.0567 165.768C52.7767 166.225 52.3707 166.58 51.8387 166.832C51.3161 167.084 50.7047 167.21 50.0047 167.21ZM58.9051 167.21C58.2051 167.21 57.5891 167.084 57.0571 166.832C56.5345 166.58 56.1331 166.225 55.8531 165.768C55.5731 165.301 55.4331 164.769 55.4331 164.172V159.51H56.5111V164.186C56.5111 164.849 56.7165 165.376 57.1271 165.768C57.5471 166.151 58.1398 166.342 58.9051 166.342C59.6705 166.342 60.2585 166.151 60.6691 165.768C61.0891 165.376 61.2991 164.849 61.2991 164.186V159.51H62.3771V164.172C62.3771 164.769 62.2371 165.301 61.9571 165.768C61.6771 166.225 61.2711 166.58 60.7391 166.832C60.2165 167.084 59.6051 167.21 58.9051 167.21ZM64.5155 162.884H65.5795L66.3775 166.146C67.0495 166.146 67.6375 166.02 68.1415 165.768C68.6455 165.516 69.0375 165.157 69.3175 164.69C69.5975 164.223 69.7375 163.677 69.7375 163.052C69.7375 162.389 69.6442 161.848 69.4575 161.428C69.2802 161.008 68.9675 160.695 68.5195 160.49C68.0808 160.275 67.4742 160.168 66.6995 160.168C66.2235 160.168 65.7475 160.215 65.2715 160.308C64.7955 160.392 64.3895 160.509 64.0535 160.658V159.79C64.3895 159.641 64.8048 159.524 65.2995 159.44C65.8035 159.347 66.3075 159.3 66.8115 159.3C68.1648 159.3 69.1682 159.608 69.8215 160.224C70.4842 160.84 70.8155 161.783 70.8155 163.052C70.8155 163.799 70.6288 164.475 70.2555 165.082C69.8822 165.679 69.3735 166.151 68.7295 166.496C68.0948 166.832 67.3948 167 66.6295 167H65.5235L64.5155 162.884ZM73.2376 162.366C72.8736 162.366 72.6123 162.282 72.4536 162.114C72.295 161.946 72.2156 161.694 72.2156 161.358V160.658H73.2096V161.134C73.2096 161.293 73.2423 161.405 73.3076 161.47C73.3823 161.535 73.5083 161.568 73.6856 161.568H75.3096V162.366H73.2376ZM73.2376 166.216C72.8736 166.216 72.6123 166.132 72.4536 165.964C72.295 165.796 72.2156 165.544 72.2156 165.208V164.508H73.2096V164.984C73.2096 165.143 73.2423 165.255 73.3076 165.32C73.3823 165.385 73.5083 165.418 73.6856 165.418H75.3096V166.216H73.2376ZM79.3737 167.21C78.5523 167.21 77.9037 167.009 77.4277 166.608C76.9517 166.197 76.7137 165.609 76.7137 164.844C76.7137 164.097 76.9797 163.509 77.5117 163.08C78.0437 162.641 78.7577 162.422 79.6537 162.422C80.6243 162.422 81.5063 162.609 82.2997 162.982V162.17C82.2997 161.479 82.113 160.975 81.7397 160.658C81.3663 160.331 80.7597 160.168 79.9197 160.168C79.481 160.168 79.0517 160.21 78.6317 160.294C78.2117 160.369 77.8477 160.476 77.5397 160.616V159.748C77.8197 159.617 78.1977 159.51 78.6737 159.426C79.1497 159.342 79.6117 159.3 80.0597 159.3C81.0023 159.3 81.7443 159.487 82.2857 159.86L83.0977 158.95H84.3017L82.9297 160.49C83.2283 160.938 83.3777 161.493 83.3777 162.156V167H82.2997V163.85C81.5623 163.477 80.713 163.29 79.7517 163.29C78.445 163.29 77.7917 163.808 77.7917 164.844C77.7917 165.357 77.9363 165.735 78.2257 165.978C78.515 166.221 78.977 166.342 79.6117 166.342C79.9383 166.342 80.2463 166.3 80.5357 166.216V167.07C80.209 167.163 79.8217 167.21 79.3737 167.21ZM82.5419 156.052H83.5919V158.306H82.5419V156.052ZM85.2859 160.448H86.3779L88.2959 166.146C89.2759 166.146 90.0273 165.885 90.5499 165.362C91.0726 164.83 91.3339 164.083 91.3339 163.122C91.3339 162.161 91.1519 161.428 90.7879 160.924C90.4239 160.42 89.8406 160.168 89.0379 160.168C88.6926 160.168 88.3613 160.21 88.0439 160.294V159.44C88.3519 159.347 88.7346 159.3 89.1919 159.3C90.2373 159.3 91.0353 159.641 91.5859 160.322C92.1366 161.003 92.4119 161.937 92.4119 163.122C92.4119 163.925 92.2393 164.62 91.8939 165.208C91.5579 165.796 91.0959 166.244 90.5079 166.552C89.9293 166.851 89.2759 167 88.5479 167H87.4839L85.2859 160.448ZM96.5752 167.21C96.0899 167.21 95.5859 167.145 95.0632 167.014C94.5499 166.893 94.1439 166.72 93.8452 166.496V165.586C94.2372 165.838 94.6665 166.029 95.1332 166.16C95.5999 166.281 96.0572 166.342 96.5052 166.342C97.1772 166.342 97.6579 166.258 97.9472 166.09C98.2459 165.913 98.3952 165.619 98.3952 165.208C98.3952 164.937 98.3299 164.718 98.1992 164.55C98.0779 164.373 97.8725 164.219 97.5832 164.088C97.2939 163.957 96.8645 163.808 96.2952 163.64C95.4459 163.388 94.8205 163.103 94.4192 162.786C94.0179 162.459 93.8172 161.988 93.8172 161.372C93.8172 160.7 94.0692 160.187 94.5732 159.832C95.0865 159.477 95.7865 159.3 96.6732 159.3C97.1305 159.3 97.5692 159.356 97.9892 159.468C98.4092 159.571 98.7592 159.711 99.0392 159.888V160.784C98.3672 160.373 97.6065 160.168 96.7572 160.168C95.5159 160.168 94.8952 160.569 94.8952 161.372C94.8952 161.661 94.9699 161.89 95.1192 162.058C95.2685 162.226 95.4879 162.371 95.7772 162.492C96.0665 162.604 96.5099 162.744 97.1072 162.912C97.7045 163.08 98.1712 163.267 98.5072 163.472C98.8525 163.668 99.0999 163.906 99.2492 164.186C99.3985 164.457 99.4732 164.802 99.4732 165.222C99.4732 165.819 99.2352 166.3 98.7592 166.664C98.2925 167.028 97.5645 167.21 96.5752 167.21ZM101.152 159.51H102.23V163.108L106.262 159.51H107.536L105.492 161.344C106.267 161.531 106.808 161.839 107.116 162.268C107.424 162.688 107.578 163.248 107.578 163.948V167H106.5V164.004C106.5 163.416 106.369 162.968 106.108 162.66C105.856 162.352 105.417 162.133 104.792 162.002L102.23 164.284V167H101.152V159.51ZM105.137 158.306C104.782 158.306 104.521 158.217 104.353 158.04C104.185 157.863 104.101 157.601 104.101 157.256V156.598H105.095V157.074C105.095 157.242 105.127 157.359 105.193 157.424C105.258 157.48 105.384 157.508 105.571 157.508H108.847V158.306H105.137ZM111.913 167.21C111.091 167.21 110.443 167.009 109.967 166.608C109.491 166.197 109.253 165.609 109.253 164.844C109.253 164.097 109.519 163.509 110.051 163.08C110.583 162.641 111.297 162.422 112.193 162.422C113.163 162.422 114.045 162.609 114.839 162.982V162.17C114.839 161.479 114.652 160.975 114.279 160.658C113.905 160.331 113.299 160.168 112.459 160.168C112.02 160.168 111.591 160.21 111.171 160.294C110.751 160.369 110.387 160.476 110.079 160.616V159.748C110.359 159.617 110.737 159.51 111.213 159.426C111.689 159.342 112.151 159.3 112.599 159.3C113.541 159.3 114.283 159.487 114.825 159.86L115.637 158.95H116.841L115.469 160.49C115.767 160.938 115.917 161.493 115.917 162.156V167H114.839V163.85C114.101 163.477 113.252 163.29 112.291 163.29C110.984 163.29 110.331 163.808 110.331 164.844C110.331 165.357 110.475 165.735 110.765 165.978C111.054 166.221 111.516 166.342 112.151 166.342C112.477 166.342 112.785 166.3 113.075 166.216V167.07C112.748 167.163 112.361 167.21 111.913 167.21ZM128.267 167.21C127.306 167.21 126.433 167 125.649 166.58C124.875 166.151 124.263 165.549 123.815 164.774C123.367 163.999 123.143 163.113 123.143 162.114C123.143 161.115 123.367 160.229 123.815 159.454C124.263 158.679 124.875 158.077 125.649 157.648C126.424 157.219 127.297 157.004 128.267 157.004C129.238 157.004 130.111 157.219 130.885 157.648C131.66 158.077 132.271 158.679 132.719 159.454C133.167 160.229 133.391 161.115 133.391 162.114C133.391 163.113 133.167 163.999 132.719 164.774C132.271 165.549 131.655 166.151 130.871 166.58C130.097 167 129.229 167.21 128.267 167.21ZM128.267 166.23C129.014 166.23 129.695 166.062 130.311 165.726C130.927 165.39 131.413 164.914 131.767 164.298C132.122 163.673 132.299 162.945 132.299 162.114C132.299 161.293 132.122 160.574 131.767 159.958C131.422 159.333 130.941 158.852 130.325 158.516C129.719 158.171 129.042 157.998 128.295 157.998C127.539 157.998 126.853 158.166 126.237 158.502C125.621 158.838 125.131 159.319 124.767 159.944C124.413 160.569 124.235 161.293 124.235 162.114C124.235 162.945 124.413 163.673 124.767 164.298C125.122 164.914 125.607 165.39 126.223 165.726C126.839 166.062 127.521 166.23 128.267 166.23ZM136.882 158.138H133.746V157.214H141.11V158.138H137.974V167H136.882V158.138ZM142.509 157.214H146.135C147.162 157.214 147.96 157.457 148.529 157.942C149.108 158.427 149.397 159.146 149.397 160.098C149.397 161.059 149.113 161.778 148.543 162.254C147.974 162.73 147.171 162.968 146.135 162.968H143.601V167H142.509V157.214ZM146.051 162.044C146.751 162.044 147.302 161.904 147.703 161.624C148.105 161.335 148.305 160.826 148.305 160.098C148.305 159.361 148.105 158.852 147.703 158.572C147.302 158.283 146.751 158.138 146.051 158.138H143.601V162.044H146.051ZM159.389 167.21C158.717 167.21 158.11 167.056 157.569 166.748C157.037 166.44 156.612 165.978 156.295 165.362C155.987 164.746 155.833 163.999 155.833 163.122C155.833 161.134 156.215 159.617 156.981 158.572C157.746 157.527 158.871 157.004 160.355 157.004C160.831 157.004 161.241 157.051 161.587 157.144V158.11C161.251 157.998 160.868 157.942 160.439 157.942C159.337 157.942 158.507 158.273 157.947 158.936C157.396 159.599 157.074 160.607 156.981 161.96C157.233 161.568 157.597 161.269 158.073 161.064C158.549 160.859 159.076 160.756 159.655 160.756C160.28 160.756 160.831 160.887 161.307 161.148C161.792 161.409 162.165 161.783 162.427 162.268C162.697 162.753 162.833 163.313 162.833 163.948C162.833 164.583 162.693 165.147 162.413 165.642C162.133 166.127 161.731 166.51 161.209 166.79C160.695 167.07 160.089 167.21 159.389 167.21ZM159.389 166.286C160.098 166.286 160.667 166.076 161.097 165.656C161.526 165.227 161.741 164.657 161.741 163.948C161.741 163.239 161.526 162.688 161.097 162.296C160.677 161.895 160.107 161.694 159.389 161.694C158.707 161.694 158.138 161.899 157.681 162.31C157.233 162.721 157.009 163.281 157.009 163.99C157.009 164.401 157.107 164.783 157.303 165.138C157.508 165.483 157.788 165.763 158.143 165.978C158.507 166.183 158.922 166.286 159.389 166.286ZM169.826 159.51H170.904V163.108L174.936 159.51H176.21L174.166 161.344C174.94 161.531 175.482 161.839 175.79 162.268C176.098 162.688 176.252 163.248 176.252 163.948V167H175.174V164.004C175.174 163.416 175.043 162.968 174.782 162.66C174.53 162.352 174.091 162.133 173.466 162.002L170.904 164.284V167H169.826V159.51ZM180.587 167.21C179.765 167.21 179.117 167.009 178.641 166.608C178.165 166.197 177.927 165.609 177.927 164.844C177.927 164.097 178.193 163.509 178.725 163.08C179.257 162.641 179.971 162.422 180.867 162.422C181.837 162.422 182.719 162.609 183.513 162.982V162.17C183.513 161.479 183.326 160.975 182.953 160.658C182.579 160.331 181.973 160.168 181.133 160.168C180.694 160.168 180.265 160.21 179.845 160.294C179.425 160.369 179.061 160.476 178.753 160.616V159.748C179.033 159.617 179.411 159.51 179.887 159.426C180.363 159.342 180.825 159.3 181.273 159.3C182.393 159.3 183.223 159.557 183.765 160.07C184.315 160.574 184.591 161.269 184.591 162.156V167H183.513V163.85C182.775 163.477 181.926 163.29 180.965 163.29C180.293 163.29 179.798 163.421 179.481 163.682C179.163 163.934 179.005 164.321 179.005 164.844C179.005 165.357 179.149 165.735 179.439 165.978C179.728 166.221 180.19 166.342 180.825 166.342C181.151 166.342 181.459 166.3 181.749 166.216V167.07C181.422 167.163 181.035 167.21 180.587 167.21ZM182.15 158.306C181.796 158.306 181.534 158.217 181.366 158.04C181.198 157.863 181.114 157.601 181.114 157.256V156.598H182.108V157.074C182.108 157.242 182.141 157.359 182.206 157.424C182.272 157.48 182.398 157.508 182.584 157.508H185.86V158.306H182.15ZM186.966 162.24L186.266 161.134C186.733 160.537 187.274 160.084 187.89 159.776C188.506 159.459 189.239 159.3 190.088 159.3C191.171 159.3 191.997 159.547 192.566 160.042C193.136 160.537 193.42 161.232 193.42 162.128V167H192.342V162.226C192.342 161.526 192.151 161.008 191.768 160.672C191.395 160.336 190.835 160.168 190.088 160.168C189.51 160.168 189.006 160.257 188.576 160.434C188.147 160.602 187.764 160.877 187.428 161.26L188.044 162.226V167H186.966V162.24ZM197.184 166.958C196.764 166.958 196.442 166.837 196.218 166.594C195.994 166.351 195.882 166.015 195.882 165.586V160.042C195.882 159.333 195.976 158.782 196.162 158.39C196.358 157.998 196.699 157.662 197.184 157.382H194.468V156.472H198.598V157.368C198.029 157.62 197.614 157.947 197.352 158.348C197.091 158.74 196.96 159.281 196.96 159.972V165.348C196.96 165.619 197.016 165.805 197.128 165.908C197.24 166.001 197.427 166.048 197.688 166.048H198.206V166.958H197.184ZM203.335 167.21C202.635 167.21 202.019 167.084 201.487 166.832C200.964 166.58 200.563 166.225 200.283 165.768C200.003 165.301 199.863 164.769 199.863 164.172V159.51H200.941V164.186C200.941 164.849 201.146 165.376 201.557 165.768C201.977 166.151 202.569 166.342 203.335 166.342C204.1 166.342 204.688 166.151 205.099 165.768C205.519 165.376 205.729 164.849 205.729 164.186V157.004H206.807V164.172C206.807 164.769 206.667 165.301 206.387 165.768C206.107 166.225 205.701 166.58 205.169 166.832C204.646 167.084 204.035 167.21 203.335 167.21ZM211.927 167.21C210.873 167.21 210.033 167.014 209.407 166.622C208.791 166.221 208.483 165.633 208.483 164.858C208.483 164.419 208.6 164.041 208.833 163.724C209.067 163.397 209.389 163.173 209.799 163.052C209.407 162.903 209.095 162.679 208.861 162.38C208.637 162.072 208.525 161.713 208.525 161.302C208.525 160.705 208.721 160.224 209.113 159.86C209.505 159.487 210.075 159.3 210.821 159.3C211.027 159.3 211.237 159.314 211.451 159.342C211.675 159.37 211.853 159.403 211.983 159.44V160.294C211.862 160.257 211.703 160.229 211.507 160.21C211.321 160.182 211.148 160.168 210.989 160.168C210.541 160.168 210.196 160.275 209.953 160.49C209.72 160.695 209.603 160.985 209.603 161.358C209.603 161.741 209.734 162.044 209.995 162.268C210.266 162.483 210.649 162.59 211.143 162.59H211.983V163.486H211.157C210.653 163.486 210.261 163.603 209.981 163.836C209.701 164.06 209.561 164.401 209.561 164.858C209.561 165.334 209.771 165.703 210.191 165.964C210.621 166.216 211.199 166.342 211.927 166.342C212.777 166.342 213.402 166.155 213.803 165.782C214.214 165.399 214.419 164.867 214.419 164.186V159.51H215.497V164.158C215.497 164.681 215.385 165.171 215.161 165.628C214.937 166.085 214.559 166.463 214.027 166.762C213.495 167.061 212.795 167.21 211.927 167.21ZM213.076 158.306C212.722 158.306 212.46 158.217 212.292 158.04C212.124 157.863 212.04 157.601 212.04 157.256V156.598H213.034V157.074C213.034 157.242 213.067 157.359 213.132 157.424C213.198 157.48 213.324 157.508 213.51 157.508H216.786V158.306H213.076ZM217.192 160.448H218.284L220.202 166.146C221.182 166.146 221.934 165.885 222.456 165.362C222.979 164.83 223.24 164.083 223.24 163.122C223.24 162.161 223.058 161.428 222.694 160.924C222.33 160.42 221.747 160.168 220.944 160.168C220.599 160.168 220.268 160.21 219.95 160.294V159.44C220.258 159.347 220.641 159.3 221.098 159.3C222.144 159.3 222.942 159.641 223.492 160.322C224.043 161.003 224.318 161.937 224.318 163.122C224.318 163.925 224.146 164.62 223.8 165.208C223.464 165.796 223.002 166.244 222.414 166.552C221.836 166.851 221.182 167 220.454 167H219.39L217.192 160.448ZM228.635 167.21C228.085 167.21 227.553 167.14 227.039 167C226.526 166.86 226.087 166.659 225.723 166.398V162.87H228.579V163.738H226.801V165.894C227.259 166.193 227.87 166.342 228.635 166.342C229.587 166.342 230.329 166.062 230.861 165.502C231.393 164.942 231.659 164.149 231.659 163.122C231.659 162.086 231.407 161.335 230.903 160.868C230.409 160.401 229.587 160.168 228.439 160.168C227.935 160.168 227.445 160.224 226.969 160.336C226.503 160.439 226.106 160.607 225.779 160.84V159.944C226.489 159.515 227.417 159.3 228.565 159.3C229.928 159.3 230.964 159.627 231.673 160.28C232.383 160.924 232.737 161.871 232.737 163.122C232.737 163.943 232.574 164.662 232.247 165.278C231.921 165.894 231.449 166.37 230.833 166.706C230.217 167.042 229.485 167.21 228.635 167.21ZM226.614 157.508H231.458V156.024H232.452V158.306H226.614V157.508ZM235.714 167C235.294 167 234.972 166.879 234.748 166.636C234.524 166.393 234.412 166.057 234.412 165.628V159.51H235.49V165.39C235.49 165.661 235.546 165.847 235.658 165.95C235.77 166.043 235.956 166.09 236.218 166.09H236.736V167H235.714ZM242.268 167.21C241.129 167.21 240.196 166.771 239.468 165.894V167H238.418V159.51H239.495V164.914C240.112 165.866 240.952 166.342 242.016 166.342C242.697 166.342 243.21 166.188 243.556 165.88C243.901 165.563 244.074 165.101 244.074 164.494V159.51H245.151V164.536C245.151 165.348 244.9 165.997 244.396 166.482C243.892 166.967 243.182 167.21 242.268 167.21ZM249.493 167.21C248.671 167.21 248.023 167.009 247.547 166.608C247.071 166.197 246.833 165.609 246.833 164.844C246.833 164.097 247.099 163.509 247.631 163.08C248.163 162.641 248.877 162.422 249.773 162.422C250.743 162.422 251.625 162.609 252.419 162.982V162.17C252.419 161.479 252.232 160.975 251.859 160.658C251.485 160.331 250.879 160.168 250.039 160.168C249.6 160.168 249.171 160.21 248.751 160.294C248.331 160.369 247.967 160.476 247.659 160.616V159.748C247.939 159.617 248.317 159.51 248.793 159.426C249.269 159.342 249.731 159.3 250.179 159.3C251.299 159.3 252.129 159.557 252.671 160.07C253.221 160.574 253.497 161.269 253.497 162.156V167H252.419V163.85C251.681 163.477 250.832 163.29 249.871 163.29C249.199 163.29 248.704 163.421 248.387 163.682C248.069 163.934 247.911 164.321 247.911 164.844C247.911 165.357 248.055 165.735 248.345 165.978C248.634 166.221 249.096 166.342 249.731 166.342C250.057 166.342 250.365 166.3 250.655 166.216V167.07C250.328 167.163 249.941 167.21 249.493 167.21ZM255.453 162.268C255.453 161.325 255.756 160.597 256.363 160.084C256.979 159.561 257.819 159.3 258.883 159.3C259.956 159.3 260.796 159.561 261.403 160.084C262.009 160.597 262.313 161.325 262.313 162.268V167H261.235V162.226C261.235 161.535 261.025 161.022 260.605 160.686C260.194 160.341 259.62 160.168 258.883 160.168C258.145 160.168 257.567 160.341 257.147 160.686C256.736 161.022 256.531 161.535 256.531 162.226V163.864C256.671 163.621 256.881 163.425 257.161 163.276C257.45 163.117 257.786 163.038 258.169 163.038H259.275V163.906H258.071C257.791 163.906 257.529 163.981 257.287 164.13C257.053 164.279 256.867 164.471 256.727 164.704C256.596 164.928 256.531 165.161 256.531 165.404V167H255.453V162.268ZM261.317 169.198C261.317 169.021 261.284 168.904 261.219 168.848C261.154 168.801 261.023 168.778 260.827 168.778H260.393V167.868H261.387C261.751 167.868 261.998 167.947 262.129 168.106C262.25 168.265 262.311 168.545 262.311 168.946V170.598H261.317V169.198ZM272.531 167.21C271.654 167.21 270.977 166.967 270.501 166.482C270.025 165.997 269.787 165.348 269.787 164.536V162.226C269.787 161.517 269.61 160.999 269.255 160.672C268.91 160.336 268.382 160.168 267.673 160.168C267.132 160.168 266.665 160.252 266.273 160.42C265.881 160.588 265.508 160.868 265.153 161.26L265.769 162.226V165.362C265.769 165.633 265.82 165.824 265.923 165.936C266.035 166.039 266.222 166.09 266.483 166.09H267.295V167H266.035C265.596 167 265.26 166.879 265.027 166.636C264.803 166.393 264.691 166.057 264.691 165.628V162.24L263.991 161.134C264.467 160.527 264.994 160.07 265.573 159.762C266.161 159.454 266.861 159.3 267.673 159.3C268.718 159.3 269.507 159.547 270.039 160.042C270.58 160.537 270.851 161.232 270.851 162.128V164.494C270.851 165.726 271.495 166.342 272.783 166.342C273.744 166.342 274.533 165.866 275.149 164.914V159.51H276.227V167H275.191V165.922C274.528 166.781 273.642 167.21 272.531 167.21Z" fill="black"/>
<rect x="31.5" y="187.5" width="326" height="43" rx="7.5" fill="white"/>
<rect x="31.5" y="187.5" width="326" height="43" rx="7.5" stroke="#D3D3D3"/>
<path d="M49.682 214.21C49.1033 214.21 48.5433 214.14 48.002 214C47.4607 213.869 47.0033 213.683 46.63 213.44V209.716H49.738V210.864H48.058V212.726C48.4593 212.969 49.0007 213.09 49.682 213.09C50.578 213.09 51.2593 212.843 51.726 212.348C52.202 211.853 52.44 211.135 52.44 210.192C52.44 209.249 52.1973 208.554 51.712 208.106C51.236 207.658 50.452 207.434 49.36 207.434C48.8653 207.434 48.38 207.485 47.904 207.588C47.428 207.681 47.0267 207.835 46.7 208.05V206.916C47.064 206.711 47.4933 206.557 47.988 206.454C48.4827 206.351 49.0147 206.3 49.584 206.3C50.984 206.3 52.0527 206.641 52.79 207.322C53.5273 208.003 53.896 208.96 53.896 210.192C53.896 211.433 53.5273 212.413 52.79 213.132C52.062 213.851 51.026 214.21 49.682 214.21ZM47.5592 204.438H52.3052V202.94H53.6073V205.404H47.5592V204.438ZM56.8413 214C56.3839 214 56.0339 213.874 55.7913 213.622C55.5579 213.361 55.4413 212.997 55.4413 212.53V206.51H56.8693V212.138C56.8693 212.39 56.9206 212.567 57.0233 212.67C57.1259 212.763 57.3033 212.81 57.5553 212.81H58.0593V214H56.8413ZM63.6715 214.21C63.1582 214.21 62.6682 214.107 62.2015 213.902C61.7442 213.697 61.3335 213.393 60.9695 212.992V214H59.5975V206.51H61.0255V211.802C61.5762 212.661 62.3322 213.09 63.2935 213.09C63.9002 213.09 64.3575 212.95 64.6655 212.67C64.9828 212.381 65.1415 211.956 65.1415 211.396V206.51H66.5695V211.452C66.5695 212.264 66.3128 212.927 65.7995 213.44C65.2862 213.953 64.5768 214.21 63.6715 214.21ZM70.8245 214.21C69.9938 214.21 69.3312 214.005 68.8365 213.594C68.3512 213.174 68.1085 212.581 68.1085 211.816C68.1085 211.06 68.3792 210.458 68.9205 210.01C69.4712 209.562 70.2132 209.338 71.1465 209.338C72.0705 209.338 72.9012 209.511 73.6385 209.856V209.282C73.6385 208.638 73.4612 208.171 73.1065 207.882C72.7612 207.583 72.1825 207.434 71.3705 207.434C70.9225 207.434 70.4838 207.476 70.0545 207.56C69.6252 207.644 69.2518 207.761 68.9345 207.91V206.79C69.2238 206.65 69.6158 206.533 70.1105 206.44C70.6145 206.347 71.1045 206.3 71.5805 206.3C72.7472 206.3 73.6198 206.566 74.1985 207.098C74.7772 207.63 75.0665 208.349 75.0665 209.254V214H73.6385V210.99C72.9572 210.645 72.1778 210.472 71.3005 210.472C70.6938 210.472 70.2458 210.584 69.9565 210.808C69.6765 211.032 69.5365 211.368 69.5365 211.816C69.5365 212.665 70.0825 213.09 71.1745 213.09C71.5105 213.09 71.8045 213.043 72.0565 212.95V214.056C71.7205 214.159 71.3098 214.21 70.8245 214.21Z" fill="#4E5256"/>
<path d="M42.8095 99.5268C42.068 100.323 40.8068 100.323 40.0652 99.5268L28.2697 86.8632C27.5544 86.0952 27.5544 84.9048 28.2697 84.1368L40.0652 71.4732C40.8068 70.677 42.068 70.677 42.8095 71.4732C43.4802 72.1932 43.4802 73.3093 42.8095 74.0293L33.395 84.1368C32.6796 84.9048 32.6796 86.0952 33.395 86.8632L42.8095 96.9707C43.4802 97.6907 43.4802 98.8068 42.8095 99.5268Z" fill="#535353"/>
<rect x="86" y="261" width="217" height="44" rx="22" fill="#EB6A6A"/>
<path d="M154.728 288.24C153.747 288.24 152.963 287.995 152.376 287.504C151.8 287.013 151.512 286.32 151.512 285.424C151.512 284.528 151.827 283.824 152.456 283.312C153.096 282.8 153.971 282.544 155.08 282.544C156.115 282.544 157 282.715 157.736 283.056V282.72C157.736 282.144 157.544 281.717 157.16 281.44C156.787 281.163 156.179 281.024 155.336 281.024C154.813 281.024 154.301 281.077 153.8 281.184C153.299 281.291 152.851 281.44 152.456 281.632V279.808C152.808 279.637 153.293 279.493 153.912 279.376C154.531 279.259 155.155 279.2 155.784 279.2C156.499 279.2 157.165 279.307 157.784 279.52L158.408 278.8H161.048L159.464 280.64C159.923 281.163 160.152 281.851 160.152 282.704V288H157.736V284.816C157.117 284.496 156.392 284.336 155.56 284.336C155.016 284.336 154.616 284.427 154.36 284.608C154.115 284.789 153.992 285.072 153.992 285.456C153.992 285.808 154.104 286.075 154.328 286.256C154.563 286.427 154.931 286.512 155.432 286.512C155.784 286.512 156.083 286.459 156.328 286.352V288.032C155.912 288.171 155.379 288.24 154.728 288.24ZM157.939 275.536H160.371V278.384H157.939V275.536ZM161.715 280.512H164.131L165.955 286.192C166.744 286.192 167.352 285.957 167.779 285.488C168.206 285.008 168.419 284.331 168.419 283.456C168.419 282.667 168.27 282.075 167.971 281.68C167.672 281.285 167.214 281.088 166.595 281.088C166.254 281.088 165.912 281.141 165.571 281.248V279.424C166.019 279.275 166.526 279.2 167.091 279.2C168.36 279.2 169.31 279.573 169.939 280.32C170.579 281.056 170.899 282.101 170.899 283.456C170.899 284.405 170.691 285.221 170.275 285.904C169.859 286.587 169.294 287.109 168.579 287.472C167.875 287.824 167.102 288 166.259 288H164.115L161.715 280.512ZM175.454 288.24C174.825 288.24 174.185 288.176 173.534 288.048C172.894 287.931 172.387 287.749 172.014 287.504V285.648C172.483 285.925 173.006 286.139 173.582 286.288C174.169 286.437 174.697 286.512 175.166 286.512C175.731 286.512 176.142 286.459 176.398 286.352C176.665 286.235 176.798 286.032 176.798 285.744C176.798 285.488 176.67 285.291 176.414 285.152C176.169 285.013 175.705 284.837 175.022 284.624L174.622 284.496C173.705 284.208 173.027 283.861 172.59 283.456C172.153 283.051 171.934 282.496 171.934 281.792C171.934 280.971 172.265 280.336 172.926 279.888C173.587 279.429 174.478 279.2 175.598 279.2C176.206 279.2 176.793 279.264 177.358 279.392C177.923 279.52 178.377 279.685 178.718 279.888V281.792C178.377 281.557 177.95 281.371 177.438 281.232C176.937 281.083 176.441 281.008 175.95 281.008C174.915 281.008 174.398 281.269 174.398 281.792C174.398 282.048 174.521 282.245 174.766 282.384C175.011 282.523 175.449 282.688 176.078 282.88L176.654 283.056C177.326 283.269 177.849 283.504 178.222 283.76C178.606 284.016 178.873 284.304 179.022 284.624C179.171 284.944 179.246 285.333 179.246 285.792C179.246 286.528 178.926 287.12 178.286 287.568C177.657 288.016 176.713 288.24 175.454 288.24ZM180.598 279.44H183.03V282.528L186.278 279.44H189.046L186.742 281.632C187.574 281.867 188.155 282.229 188.486 282.72C188.827 283.211 188.998 283.861 188.998 284.672V288H186.566V284.88C186.566 284.336 186.47 283.931 186.278 283.664C186.096 283.397 185.76 283.205 185.27 283.088L183.03 285.184V288H180.598V279.44ZM185.7 278.384C184.676 278.384 184.164 277.867 184.164 276.832V275.664H186.34V276.448C186.34 276.597 186.372 276.704 186.436 276.768C186.489 276.821 186.596 276.848 186.756 276.848H190.404V278.384H185.7ZM193.572 288.24C192.59 288.24 191.806 287.995 191.22 287.504C190.644 287.013 190.356 286.32 190.356 285.424C190.356 284.528 190.67 283.824 191.3 283.312C191.94 282.8 192.814 282.544 193.924 282.544C194.958 282.544 195.844 282.715 196.58 283.056V282.72C196.58 282.144 196.388 281.717 196.004 281.44C195.63 281.163 195.022 281.024 194.18 281.024C193.657 281.024 193.145 281.077 192.644 281.184C192.142 281.291 191.694 281.44 191.3 281.632V279.808C191.652 279.637 192.137 279.493 192.756 279.376C193.374 279.259 193.998 279.2 194.628 279.2C195.342 279.2 196.009 279.307 196.628 279.52L197.252 278.8H199.892L198.308 280.64C198.766 281.163 198.996 281.851 198.996 282.704V288H196.58V284.816C195.961 284.496 195.236 284.336 194.404 284.336C193.86 284.336 193.46 284.427 193.204 284.608C192.958 284.789 192.836 285.072 192.836 285.456C192.836 285.808 192.948 286.075 193.172 286.256C193.406 286.427 193.774 286.512 194.276 286.512C194.628 286.512 194.926 286.459 195.172 286.352V288.032C194.756 288.171 194.222 288.24 193.572 288.24ZM212.137 288.24C211.017 288.24 209.998 287.995 209.081 287.504C208.174 287.013 207.459 286.331 206.937 285.456C206.414 284.571 206.153 283.557 206.153 282.416C206.153 281.275 206.414 280.261 206.937 279.376C207.459 278.491 208.174 277.803 209.081 277.312C209.998 276.821 211.017 276.576 212.137 276.576C213.257 276.576 214.265 276.821 215.161 277.312C216.067 277.803 216.782 278.491 217.305 279.376C217.827 280.261 218.089 281.275 218.089 282.416C218.089 283.557 217.827 284.571 217.305 285.456C216.782 286.331 216.067 287.013 215.161 287.504C214.265 287.995 213.257 288.24 212.137 288.24ZM212.137 286C212.777 286 213.358 285.856 213.881 285.568C214.414 285.269 214.835 284.853 215.145 284.32C215.454 283.776 215.609 283.141 215.609 282.416C215.609 281.701 215.454 281.077 215.145 280.544C214.846 280 214.43 279.584 213.897 279.296C213.374 278.997 212.787 278.848 212.137 278.848C211.475 278.848 210.878 278.997 210.345 279.296C209.822 279.584 209.406 280 209.097 280.544C208.787 281.077 208.633 281.701 208.633 282.416C208.633 283.141 208.787 283.776 209.097 284.32C209.406 284.853 209.827 285.269 210.361 285.568C210.894 285.856 211.486 286 212.137 286ZM221.223 278.848H217.959V276.816H226.919V278.848H223.655V288H221.223V278.848ZM227.988 276.816H232.692C233.962 276.816 234.975 277.152 235.732 277.824C236.49 278.485 236.868 279.408 236.868 280.592C236.868 281.808 236.49 282.741 235.732 283.392C234.986 284.043 233.972 284.368 232.692 284.368H230.42V288H227.988V276.816ZM232.34 282.336C233.716 282.336 234.404 281.755 234.404 280.592C234.404 279.941 234.218 279.488 233.844 279.232C233.482 278.976 232.98 278.848 232.34 278.848H230.42V282.336H232.34Z" fill="white"/>
</svg>
