<svg width="390" height="849" viewBox="0 0 390 849" fill="none" xmlns="http://www.w3.org/2000/svg">
<rect y="5" width="390" height="844" rx="32" fill="white"/>
<path fill-rule="evenodd" clip-rule="evenodd" d="M121 838.5C121 837.119 122.119 836 123.5 836H266.5C267.881 836 269 837.119 269 838.5C269 839.881 267.881 841 266.5 841H123.5C122.119 841 121 839.881 121 838.5Z" fill="#090A0A"/>
<path d="M54.0688 36V26.1304H53.9194L50.9395 28.2305V26.2217L54.0688 24.022H56.2021V36H54.0688ZM63.4219 36.2988C62.4701 36.2988 61.6538 36.0443 60.9731 35.5352C60.298 35.026 59.7778 34.3011 59.4126 33.3604C59.0474 32.4196 58.8647 31.3045 58.8647 30.0151V29.9985C58.8647 28.7091 59.0474 27.5968 59.4126 26.6616C59.7778 25.7209 60.298 24.9959 60.9731 24.4868C61.6538 23.9777 62.4701 23.7231 63.4219 23.7231C64.3737 23.7231 65.1899 23.9777 65.8706 24.4868C66.5513 24.9959 67.0742 25.7209 67.4395 26.6616C67.8047 27.5968 67.9873 28.7091 67.9873 29.9985V30.0151C67.9873 31.3045 67.8047 32.4196 67.4395 33.3604C67.0742 34.3011 66.5513 35.026 65.8706 35.5352C65.1899 36.0443 64.3737 36.2988 63.4219 36.2988ZM63.4219 34.564C63.931 34.564 64.3654 34.3813 64.7251 34.0161C65.0848 33.6509 65.3587 33.1307 65.5469 32.4556C65.7406 31.7749 65.8374 30.9614 65.8374 30.0151V29.9985C65.8374 29.0522 65.7406 28.2415 65.5469 27.5664C65.3587 26.8857 65.0848 26.3656 64.7251 26.0059C64.3654 25.6406 63.931 25.458 63.4219 25.458C62.9128 25.458 62.4784 25.6406 62.1187 26.0059C61.7645 26.3656 61.4906 26.8857 61.2969 27.5664C61.1087 28.2415 61.0146 29.0522 61.0146 29.9985V30.0151C61.0146 30.9614 61.1087 31.7749 61.2969 32.4556C61.4906 33.1307 61.7645 33.6509 62.1187 34.0161C62.4784 34.3813 62.9128 34.564 63.4219 34.564ZM71.2974 34.3896C70.9211 34.3896 70.6056 34.2651 70.3511 34.0161C70.1021 33.7616 69.9775 33.4517 69.9775 33.0864C69.9775 32.7157 70.1021 32.4058 70.3511 32.1567C70.6056 31.9022 70.9211 31.7749 71.2974 31.7749C71.6792 31.7749 71.9946 31.9022 72.2437 32.1567C72.4927 32.4058 72.6172 32.7157 72.6172 33.0864C72.6172 33.4517 72.4927 33.7616 72.2437 34.0161C71.9946 34.2651 71.6792 34.3896 71.2974 34.3896ZM71.2974 28.2305C70.9211 28.2305 70.6056 28.106 70.3511 27.8569C70.1021 27.6024 69.9775 27.2925 69.9775 26.9272C69.9775 26.5565 70.1021 26.2466 70.3511 25.9976C70.6056 25.743 70.9211 25.6157 71.2974 25.6157C71.6792 25.6157 71.9946 25.743 72.2437 25.9976C72.4927 26.2466 72.6172 26.5565 72.6172 26.9272C72.6172 27.2925 72.4927 27.6024 72.2437 27.8569C71.9946 28.106 71.6792 28.2305 71.2974 28.2305ZM79.1562 36.2988C78.2044 36.2988 77.3882 36.0443 76.7075 35.5352C76.0324 35.026 75.5122 34.3011 75.147 33.3604C74.7817 32.4196 74.5991 31.3045 74.5991 30.0151V29.9985C74.5991 28.7091 74.7817 27.5968 75.147 26.6616C75.5122 25.7209 76.0324 24.9959 76.7075 24.4868C77.3882 23.9777 78.2044 23.7231 79.1562 23.7231C80.1081 23.7231 80.9243 23.9777 81.605 24.4868C82.2856 24.9959 82.8086 25.7209 83.1738 26.6616C83.5391 27.5968 83.7217 28.7091 83.7217 29.9985V30.0151C83.7217 31.3045 83.5391 32.4196 83.1738 33.3604C82.8086 34.3011 82.2856 35.026 81.605 35.5352C80.9243 36.0443 80.1081 36.2988 79.1562 36.2988ZM79.1562 34.564C79.6654 34.564 80.0998 34.3813 80.4595 34.0161C80.8192 33.6509 81.0931 33.1307 81.2812 32.4556C81.4749 31.7749 81.5718 30.9614 81.5718 30.0151V29.9985C81.5718 29.0522 81.4749 28.2415 81.2812 27.5664C81.0931 26.8857 80.8192 26.3656 80.4595 26.0059C80.0998 25.6406 79.6654 25.458 79.1562 25.458C78.6471 25.458 78.2127 25.6406 77.853 26.0059C77.4989 26.3656 77.2249 26.8857 77.0312 27.5664C76.8431 28.2415 76.749 29.0522 76.749 29.9985V30.0151C76.749 30.9614 76.8431 31.7749 77.0312 32.4556C77.2249 33.1307 77.4989 33.6509 77.853 34.0161C78.2127 34.3813 78.6471 34.564 79.1562 34.564ZM89.9619 36.2988C89.0101 36.2988 88.1938 36.0443 87.5132 35.5352C86.8381 35.026 86.3179 34.3011 85.9526 33.3604C85.5874 32.4196 85.4048 31.3045 85.4048 30.0151V29.9985C85.4048 28.7091 85.5874 27.5968 85.9526 26.6616C86.3179 25.7209 86.8381 24.9959 87.5132 24.4868C88.1938 23.9777 89.0101 23.7231 89.9619 23.7231C90.9137 23.7231 91.73 23.9777 92.4106 24.4868C93.0913 24.9959 93.6143 25.7209 93.9795 26.6616C94.3447 27.5968 94.5273 28.7091 94.5273 29.9985V30.0151C94.5273 31.3045 94.3447 32.4196 93.9795 33.3604C93.6143 34.3011 93.0913 35.026 92.4106 35.5352C91.73 36.0443 90.9137 36.2988 89.9619 36.2988ZM89.9619 34.564C90.471 34.564 90.9054 34.3813 91.2651 34.0161C91.6248 33.6509 91.8988 33.1307 92.0869 32.4556C92.2806 31.7749 92.3774 30.9614 92.3774 30.0151V29.9985C92.3774 29.0522 92.2806 28.2415 92.0869 27.5664C91.8988 26.8857 91.6248 26.3656 91.2651 26.0059C90.9054 25.6406 90.471 25.458 89.9619 25.458C89.4528 25.458 89.0184 25.6406 88.6587 26.0059C88.3045 26.3656 88.0306 26.8857 87.8369 27.5664C87.6488 28.2415 87.5547 29.0522 87.5547 29.9985V30.0151C87.5547 30.9614 87.6488 31.7749 87.8369 32.4556C88.0306 33.1307 88.3045 33.6509 88.6587 34.0161C89.0184 34.3813 89.4528 34.564 89.9619 34.564Z" fill="black"/>
<path d="M288.333 31C288.977 31 289.5 31.5037 289.5 32.125V34.375C289.5 34.9963 288.977 35.5 288.333 35.5H287.167C286.523 35.5 286 34.9963 286 34.375V32.125C286 31.5037 286.523 31 287.167 31H288.333ZM293.823 28.75C294.468 28.75 294.99 29.2537 294.99 29.875V34.375C294.99 34.9963 294.468 35.5 293.823 35.5H292.657C292.013 35.5 291.49 34.9963 291.49 34.375V29.875C291.49 29.2537 292.013 28.75 292.657 28.75H293.823ZM299.313 26.125C299.958 26.125 300.48 26.6287 300.48 27.25V34.375C300.48 34.9963 299.958 35.5 299.313 35.5H298.147C297.503 35.5 296.98 34.9963 296.98 34.375V27.25C296.981 26.6287 297.503 26.125 298.147 26.125H299.313ZM304.804 23.5C305.448 23.5 305.971 24.0037 305.971 24.625V34.375C305.971 34.9963 305.448 35.5 304.804 35.5H303.638C302.993 35.5 302.471 34.9963 302.471 34.375V24.625C302.471 24.0037 302.993 23.5 303.638 23.5H304.804Z" fill="black"/>
<path d="M318.512 32.8262C319.932 31.5964 322.011 31.5964 323.431 32.8262C323.502 32.8924 323.544 32.9855 323.546 33.084C323.548 33.1826 323.51 33.2777 323.441 33.3467L321.218 35.6446C321.153 35.7121 321.063 35.7501 320.971 35.7501C320.878 35.7499 320.79 35.7119 320.725 35.6446L318.501 33.3467C318.432 33.2776 318.394 33.1826 318.396 33.084C318.399 32.9855 318.44 32.8923 318.512 32.8262ZM315.545 29.7608C318.604 26.8467 323.341 26.8467 326.4 29.7608C326.469 29.829 326.509 29.9225 326.51 30.0206C326.511 30.1188 326.473 30.2135 326.405 30.2833L325.12 31.6133C324.988 31.7491 324.774 31.7524 324.638 31.6202C323.633 30.6886 322.326 30.1728 320.971 30.1729C319.617 30.1736 318.311 30.6895 317.308 31.6202C317.172 31.7524 316.958 31.7491 316.825 31.6133L315.54 30.2833C315.472 30.2136 315.435 30.1189 315.436 30.0206C315.437 29.9224 315.476 29.829 315.545 29.7608ZM312.578 26.7032C317.27 22.0989 324.671 22.099 329.363 26.7032C329.431 26.7716 329.47 26.8654 329.471 26.963C329.471 27.0605 329.433 27.1545 329.366 27.2237L328.08 28.5538C327.947 28.6901 327.732 28.691 327.598 28.5567C325.81 26.8164 323.437 25.8459 320.971 25.8458C318.504 25.8459 316.131 26.8163 314.344 28.5567C314.209 28.6913 313.994 28.6904 313.861 28.5538L312.574 27.2237C312.507 27.1545 312.47 27.0605 312.471 26.963C312.471 26.8654 312.51 26.7715 312.578 26.7032Z" fill="black"/>
<rect opacity="0.4" x="336.471" y="23.5" width="24" height="12" rx="3.5" stroke="black"/>
<path opacity="0.5" d="M361.971 27.5V31.5C362.777 31.1612 363.301 30.3731 363.301 29.5C363.301 28.6269 362.777 27.8388 361.971 27.5Z" fill="black"/>
<rect x="337.971" y="25" width="17" height="9" rx="2" fill="black"/>
<path fill-rule="evenodd" clip-rule="evenodd" d="M195 238C198.414 238 201.795 237.327 204.95 236.021C208.104 234.714 210.97 232.799 213.385 230.385C215.799 227.97 217.714 225.104 219.021 221.95C220.327 218.795 221 215.414 221 212C221 208.586 220.327 205.205 219.021 202.05C217.714 198.896 215.799 196.03 213.385 193.615C210.97 191.201 208.104 189.286 204.95 187.979C201.795 186.673 198.414 186 195 186C188.104 186 181.491 188.739 176.615 193.615C171.739 198.491 169 205.104 169 212C169 218.896 171.739 225.509 176.615 230.385C181.491 235.261 188.104 238 195 238ZM194.33 222.516L208.774 205.182L204.337 201.484L191.915 216.388L185.487 209.958L181.402 214.042L190.069 222.709L192.305 224.945L194.33 222.516Z" fill="#3CB364"/>
<path d="M95.825 284.375C94.2917 284.375 93.0667 283.992 92.15 283.225C91.25 282.458 90.8 281.375 90.8 279.975C90.8 278.575 91.2917 277.475 92.275 276.675C93.275 275.875 94.6417 275.475 96.375 275.475C97.9917 275.475 99.375 275.742 100.525 276.275V275.75C100.525 274.85 100.225 274.183 99.625 273.75C99.0417 273.317 98.0917 273.1 96.775 273.1C95.9583 273.1 95.1583 273.183 94.375 273.35C93.5917 273.517 92.8917 273.75 92.275 274.05V271.2C92.825 270.933 93.5833 270.708 94.55 270.525C95.5167 270.342 96.4917 270.25 97.475 270.25C99.7083 270.25 101.4 270.75 102.55 271.75C103.717 272.733 104.3 274.058 104.3 275.725V284H100.525V279.025C99.5583 278.525 98.425 278.275 97.125 278.275C96.275 278.275 95.65 278.417 95.25 278.7C94.8667 278.983 94.675 279.425 94.675 280.025C94.675 280.575 94.85 280.992 95.2 281.275C95.5667 281.542 96.1417 281.675 96.925 281.675C97.475 281.675 97.9417 281.592 98.325 281.425V284.05C97.675 284.267 96.8417 284.375 95.825 284.375ZM106.401 272.3H110.176L113.026 281.175C114.259 281.175 115.209 280.808 115.876 280.075C116.542 279.325 116.876 278.267 116.876 276.9C116.876 275.667 116.642 274.742 116.176 274.125C115.709 273.508 114.992 273.2 114.026 273.2C113.492 273.2 112.959 273.283 112.426 273.45V270.6C113.126 270.367 113.917 270.25 114.801 270.25C116.784 270.25 118.267 270.833 119.251 272C120.251 273.15 120.751 274.783 120.751 276.9C120.751 278.383 120.426 279.658 119.776 280.725C119.126 281.792 118.242 282.608 117.126 283.175C116.026 283.725 114.817 284 113.501 284H110.151L106.401 272.3ZM122.867 270.625H126.492V272.15C127.092 271.55 127.801 271.083 128.617 270.75C129.434 270.417 130.251 270.25 131.067 270.25C132.751 270.25 134.017 270.708 134.867 271.625C135.734 272.525 136.167 273.717 136.167 275.2V284H132.392V275.525C132.392 273.975 131.576 273.2 129.942 273.2C129.259 273.2 128.634 273.35 128.067 273.65C127.517 273.95 127.051 274.408 126.667 275.025V284H122.867V270.625ZM140.635 276.175C139.802 276.175 139.202 275.992 138.835 275.625C138.469 275.242 138.285 274.667 138.285 273.9V271.95H141.685V273.025C141.685 273.242 141.735 273.4 141.835 273.5C141.935 273.6 142.11 273.65 142.36 273.65H145.31V276.175H140.635ZM140.635 282.925C139.802 282.925 139.202 282.733 138.835 282.35C138.469 281.967 138.285 281.392 138.285 280.625V278.675H141.685V279.75C141.685 279.967 141.735 280.125 141.835 280.225C141.935 280.325 142.11 280.375 142.36 280.375H145.31V282.925H140.635ZM150.254 284C149.337 284 148.629 283.742 148.129 283.225C147.645 282.692 147.404 281.958 147.404 281.025V270.625H151.204V280C151.204 280.4 151.287 280.683 151.454 280.85C151.62 281.017 151.895 281.1 152.279 281.1H153.154V284H150.254ZM162.092 284.375C160.708 284.375 159.5 284.133 158.467 283.65C157.433 283.15 156.633 282.467 156.067 281.6C155.5 280.733 155.217 279.75 155.217 278.65V270.625H159.017V278.4C159.017 279.367 159.267 280.117 159.767 280.65C160.283 281.167 161.058 281.425 162.092 281.425C163.125 281.425 163.892 281.167 164.392 280.65C164.892 280.117 165.142 279.367 165.142 278.4V270.625H168.942V278.65C168.942 279.75 168.658 280.733 168.092 281.6C167.525 282.467 166.725 283.15 165.692 283.65C164.658 284.133 163.458 284.375 162.092 284.375ZM157.35 266.575H165.5V263.925H168.925V268.975H157.35V266.575ZM177.9 284.375C175.816 284.375 174.15 284 172.9 283.25C171.65 282.483 171.025 281.392 171.025 279.975C171.025 279.325 171.2 278.742 171.55 278.225C171.916 277.692 172.4 277.308 173 277.075C172.45 276.792 172 276.383 171.65 275.85C171.316 275.317 171.15 274.733 171.15 274.1C171.15 272.933 171.558 272 172.375 271.3C173.208 270.6 174.408 270.25 175.975 270.25C176.458 270.25 176.933 270.283 177.4 270.35C177.883 270.417 178.25 270.492 178.5 270.575V273.425C178.266 273.325 177.983 273.242 177.65 273.175C177.333 273.108 177.041 273.075 176.775 273.075C175.608 273.075 175.025 273.508 175.025 274.375C175.025 274.825 175.166 275.167 175.45 275.4C175.75 275.617 176.208 275.725 176.825 275.725H178.5V278.4H176.825C175.558 278.4 174.925 278.9 174.925 279.9C174.925 280.433 175.175 280.85 175.675 281.15C176.191 281.433 176.933 281.575 177.9 281.575C179.066 281.575 179.916 281.342 180.45 280.875C181 280.392 181.275 279.675 181.275 278.725V270.6H185.075V278.7C185.075 279.65 184.833 280.558 184.35 281.425C183.866 282.275 183.091 282.983 182.025 283.55C180.958 284.1 179.583 284.375 177.9 284.375ZM192.887 284.375C191.803 284.375 190.87 284.15 190.087 283.7C189.303 283.25 188.703 282.633 188.287 281.85C187.887 281.067 187.687 280.192 187.687 279.225V270.625H191.487V279C191.487 280.617 192.345 281.425 194.062 281.425C194.762 281.425 195.362 281.283 195.862 281C196.378 280.7 196.828 280.242 197.212 279.625V270.625H200.987V284H197.387V282.5C196.803 283.117 196.112 283.583 195.312 283.9C194.528 284.217 193.72 284.375 192.887 284.375ZM208.13 284.375C206.596 284.375 205.371 283.992 204.455 283.225C203.555 282.458 203.105 281.375 203.105 279.975C203.105 278.575 203.596 277.475 204.58 276.675C205.58 275.875 206.946 275.475 208.68 275.475C210.296 275.475 211.68 275.742 212.83 276.275V275.75C212.83 274.85 212.53 274.183 211.93 273.75C211.346 273.317 210.396 273.1 209.08 273.1C208.263 273.1 207.463 273.183 206.68 273.35C205.896 273.517 205.196 273.75 204.58 274.05V271.2C205.13 270.933 205.888 270.708 206.855 270.525C207.821 270.342 208.796 270.25 209.78 270.25C210.896 270.25 211.938 270.417 212.905 270.75L213.88 269.625H218.005L215.53 272.5C216.246 273.317 216.605 274.392 216.605 275.725V284H212.83V279.025C211.863 278.525 210.73 278.275 209.43 278.275C208.58 278.275 207.955 278.417 207.555 278.7C207.171 278.983 206.98 279.425 206.98 280.025C206.98 280.575 207.155 280.992 207.505 281.275C207.871 281.542 208.446 281.675 209.23 281.675C209.78 281.675 210.246 281.592 210.63 281.425V284.05C209.98 284.267 209.146 284.375 208.13 284.375ZM214.847 269.325C213.997 269.325 213.28 269.042 212.697 268.475C212.114 267.892 211.822 267.175 211.822 266.325C211.822 265.492 212.122 264.783 212.722 264.2C213.305 263.6 214.014 263.3 214.847 263.3C215.68 263.3 216.389 263.6 216.972 264.2C217.555 264.783 217.847 265.492 217.847 266.325C217.847 267.175 217.555 267.892 216.972 268.475C216.389 269.042 215.68 269.325 214.847 269.325ZM214.847 267.375C215.114 267.375 215.347 267.275 215.547 267.075C215.73 266.858 215.822 266.617 215.822 266.35C215.822 266.067 215.73 265.825 215.547 265.625C215.347 265.425 215.114 265.325 214.847 265.325C214.564 265.325 214.33 265.425 214.147 265.625C213.947 265.825 213.847 266.067 213.847 266.35C213.847 266.617 213.947 266.858 214.147 267.075C214.33 267.275 214.564 267.375 214.847 267.375ZM223.572 275.675C223.572 274.808 223.389 274.183 223.022 273.8C222.655 273.4 222.014 273.2 221.097 273.2C220.214 273.2 219.322 273.425 218.422 273.875V271C218.822 270.8 219.355 270.625 220.022 270.475C220.705 270.325 221.364 270.25 221.997 270.25C223.747 270.25 225.08 270.717 225.997 271.65C226.914 272.583 227.372 273.933 227.372 275.7V284H223.572V275.675ZM232.822 284C231.905 284 231.197 283.742 230.697 283.225C230.214 282.692 229.972 281.958 229.972 281.025V270.625H233.772V280C233.772 280.4 233.855 280.683 234.022 280.85C234.189 281.017 234.464 281.1 234.847 281.1H235.722V284H232.822ZM242.76 284.375C241.777 284.375 240.777 284.275 239.76 284.075C238.76 283.892 237.968 283.608 237.385 283.225V280.325C238.118 280.758 238.935 281.092 239.835 281.325C240.752 281.558 241.577 281.675 242.31 281.675C243.193 281.675 243.835 281.592 244.235 281.425C244.652 281.242 244.86 280.925 244.86 280.475C244.86 280.075 244.66 279.767 244.26 279.55C243.877 279.333 243.152 279.058 242.085 278.725L241.46 278.525C240.027 278.075 238.968 277.533 238.285 276.9C237.602 276.267 237.26 275.4 237.26 274.3C237.26 273.017 237.777 272.025 238.81 271.325C239.843 270.608 241.235 270.25 242.985 270.25C243.935 270.25 244.852 270.35 245.735 270.55C246.618 270.75 247.327 271.008 247.86 271.325V274.3C247.327 273.933 246.66 273.642 245.86 273.425C245.077 273.192 244.302 273.075 243.535 273.075C241.918 273.075 241.11 273.483 241.11 274.3C241.11 274.7 241.302 275.008 241.685 275.225C242.068 275.442 242.752 275.7 243.735 276L244.635 276.275C245.685 276.608 246.502 276.975 247.085 277.375C247.685 277.775 248.102 278.225 248.335 278.725C248.568 279.225 248.685 279.833 248.685 280.55C248.685 281.7 248.185 282.625 247.185 283.325C246.202 284.025 244.727 284.375 242.76 284.375ZM240.422 269.075C239.439 269.075 238.664 268.817 238.097 268.3C237.514 267.767 237.222 267.058 237.222 266.175C237.222 265.058 237.547 264.217 238.197 263.65C238.83 263.083 239.705 262.8 240.822 262.8H247.147V264.775H241.097C240.18 264.775 239.722 265.15 239.722 265.9C239.722 266.25 239.814 266.525 239.997 266.725C240.18 266.908 240.447 267 240.797 267C241.18 267 241.472 266.892 241.672 266.675C241.872 266.458 241.972 266.167 241.972 265.8H243.947C243.947 266.533 244.364 266.9 245.197 266.9H246.722V268.975H245.247C244.68 268.975 244.189 268.875 243.772 268.675C243.339 268.458 243.055 268.192 242.922 267.875C242.772 268.208 242.464 268.492 241.997 268.725C241.53 268.958 241.005 269.075 240.422 269.075ZM250.697 276.65H254.447L255.572 281.175C256.722 281.175 257.672 280.825 258.422 280.125C259.189 279.408 259.572 278.433 259.572 277.2C259.572 275.867 259.214 274.867 258.497 274.2C257.797 273.533 256.589 273.2 254.872 273.2C254.072 273.2 253.247 273.283 252.397 273.45C251.547 273.617 250.847 273.833 250.297 274.1V271.175C250.964 270.892 251.755 270.667 252.672 270.5C253.605 270.333 254.547 270.25 255.497 270.25C258.08 270.25 260.047 270.842 261.397 272.025C262.764 273.192 263.447 274.9 263.447 277.15C263.447 278.517 263.105 279.717 262.422 280.75C261.755 281.783 260.847 282.583 259.697 283.15C258.564 283.717 257.314 284 255.947 284H252.522L250.697 276.65ZM268.418 284C267.501 284 266.793 283.742 266.293 283.225C265.809 282.692 265.568 281.958 265.568 281.025V270.625H269.368V280C269.368 280.4 269.451 280.683 269.618 280.85C269.784 281.017 270.059 281.1 270.443 281.1H271.318V284H268.418ZM275.443 284C274.526 284 273.818 283.742 273.318 283.225C272.834 282.692 272.593 281.958 272.593 281.025V270.625H276.368V280C276.368 280.4 276.451 280.683 276.618 280.85C276.784 281.017 277.068 281.1 277.468 281.1H278.343V284H275.443ZM284.912 284.375C283.379 284.375 282.154 283.992 281.237 283.225C280.337 282.458 279.887 281.375 279.887 279.975C279.887 278.575 280.379 277.475 281.362 276.675C282.362 275.875 283.729 275.475 285.462 275.475C287.079 275.475 288.462 275.742 289.612 276.275V275.75C289.612 274.85 289.312 274.183 288.712 273.75C288.129 273.317 287.179 273.1 285.862 273.1C285.045 273.1 284.245 273.183 283.462 273.35C282.679 273.517 281.979 273.75 281.362 274.05V271.2C281.912 270.933 282.67 270.708 283.637 270.525C284.604 270.342 285.579 270.25 286.562 270.25C288.795 270.25 290.487 270.75 291.637 271.75C292.804 272.733 293.387 274.058 293.387 275.725V284H289.612V279.025C288.645 278.525 287.512 278.275 286.212 278.275C285.362 278.275 284.737 278.417 284.337 278.7C283.954 278.983 283.762 279.425 283.762 280.025C283.762 280.575 283.937 280.992 284.287 281.275C284.654 281.542 285.229 281.675 286.012 281.675C286.562 281.675 287.029 281.592 287.412 281.425V284.05C286.762 284.267 285.929 284.375 284.912 284.375ZM287.262 267.375C287.262 267.192 287.229 267.067 287.162 267C287.079 266.917 286.946 266.875 286.762 266.875H285.587V264.3H287.937C288.554 264.3 289.004 264.442 289.287 264.725C289.554 265.008 289.687 265.367 289.687 265.8V266.55H294.713V268.975H287.262V267.375ZM300.563 284.375C298.346 284.375 296.654 284.017 295.488 283.3V280.35C296.521 281.067 297.938 281.425 299.738 281.425C301.138 281.425 302.221 281.092 302.988 280.425C303.754 279.742 304.138 278.708 304.138 277.325C304.138 275.942 303.754 274.908 302.988 274.225C302.221 273.542 301.138 273.2 299.738 273.2C298.004 273.2 296.621 273.567 295.588 274.3V271.35C296.171 270.983 296.896 270.708 297.763 270.525C298.629 270.342 299.563 270.25 300.563 270.25C302.896 270.25 304.721 270.875 306.038 272.125C307.371 273.358 308.038 275.092 308.038 277.325C308.038 279.558 307.371 281.292 306.038 282.525C304.721 283.758 302.896 284.375 300.563 284.375Z" fill="#3CB364"/>
</svg>
