<svg width="390" height="849" viewBox="0 0 390 849" fill="none" xmlns="http://www.w3.org/2000/svg">
<rect y="5" width="390" height="844" rx="32" fill="white"/>
<path fill-rule="evenodd" clip-rule="evenodd" d="M121 838.5C121 837.119 122.119 836 123.5 836H266.5C267.881 836 269 837.119 269 838.5C269 839.881 267.881 841 266.5 841H123.5C122.119 841 121 839.881 121 838.5Z" fill="#090A0A"/>
<path d="M54.0688 36V26.1304H53.9194L50.9395 28.2305V26.2217L54.0688 24.022H56.2021V36H54.0688ZM63.4219 36.2988C62.4701 36.2988 61.6538 36.0443 60.9731 35.5352C60.298 35.026 59.7778 34.3011 59.4126 33.3604C59.0474 32.4196 58.8647 31.3045 58.8647 30.0151V29.9985C58.8647 28.7091 59.0474 27.5968 59.4126 26.6616C59.7778 25.7209 60.298 24.9959 60.9731 24.4868C61.6538 23.9777 62.4701 23.7231 63.4219 23.7231C64.3737 23.7231 65.1899 23.9777 65.8706 24.4868C66.5513 24.9959 67.0742 25.7209 67.4395 26.6616C67.8047 27.5968 67.9873 28.7091 67.9873 29.9985V30.0151C67.9873 31.3045 67.8047 32.4196 67.4395 33.3604C67.0742 34.3011 66.5513 35.026 65.8706 35.5352C65.1899 36.0443 64.3737 36.2988 63.4219 36.2988ZM63.4219 34.564C63.931 34.564 64.3654 34.3813 64.7251 34.0161C65.0848 33.6509 65.3587 33.1307 65.5469 32.4556C65.7406 31.7749 65.8374 30.9614 65.8374 30.0151V29.9985C65.8374 29.0522 65.7406 28.2415 65.5469 27.5664C65.3587 26.8857 65.0848 26.3656 64.7251 26.0059C64.3654 25.6406 63.931 25.458 63.4219 25.458C62.9128 25.458 62.4784 25.6406 62.1187 26.0059C61.7645 26.3656 61.4906 26.8857 61.2969 27.5664C61.1087 28.2415 61.0146 29.0522 61.0146 29.9985V30.0151C61.0146 30.9614 61.1087 31.7749 61.2969 32.4556C61.4906 33.1307 61.7645 33.6509 62.1187 34.0161C62.4784 34.3813 62.9128 34.564 63.4219 34.564ZM71.2974 34.3896C70.9211 34.3896 70.6056 34.2651 70.3511 34.0161C70.1021 33.7616 69.9775 33.4517 69.9775 33.0864C69.9775 32.7157 70.1021 32.4058 70.3511 32.1567C70.6056 31.9022 70.9211 31.7749 71.2974 31.7749C71.6792 31.7749 71.9946 31.9022 72.2437 32.1567C72.4927 32.4058 72.6172 32.7157 72.6172 33.0864C72.6172 33.4517 72.4927 33.7616 72.2437 34.0161C71.9946 34.2651 71.6792 34.3896 71.2974 34.3896ZM71.2974 28.2305C70.9211 28.2305 70.6056 28.106 70.3511 27.8569C70.1021 27.6024 69.9775 27.2925 69.9775 26.9272C69.9775 26.5565 70.1021 26.2466 70.3511 25.9976C70.6056 25.743 70.9211 25.6157 71.2974 25.6157C71.6792 25.6157 71.9946 25.743 72.2437 25.9976C72.4927 26.2466 72.6172 26.5565 72.6172 26.9272C72.6172 27.2925 72.4927 27.6024 72.2437 27.8569C71.9946 28.106 71.6792 28.2305 71.2974 28.2305ZM79.1562 36.2988C78.2044 36.2988 77.3882 36.0443 76.7075 35.5352C76.0324 35.026 75.5122 34.3011 75.147 33.3604C74.7817 32.4196 74.5991 31.3045 74.5991 30.0151V29.9985C74.5991 28.7091 74.7817 27.5968 75.147 26.6616C75.5122 25.7209 76.0324 24.9959 76.7075 24.4868C77.3882 23.9777 78.2044 23.7231 79.1562 23.7231C80.1081 23.7231 80.9243 23.9777 81.605 24.4868C82.2856 24.9959 82.8086 25.7209 83.1738 26.6616C83.5391 27.5968 83.7217 28.7091 83.7217 29.9985V30.0151C83.7217 31.3045 83.5391 32.4196 83.1738 33.3604C82.8086 34.3011 82.2856 35.026 81.605 35.5352C80.9243 36.0443 80.1081 36.2988 79.1562 36.2988ZM79.1562 34.564C79.6654 34.564 80.0998 34.3813 80.4595 34.0161C80.8192 33.6509 81.0931 33.1307 81.2812 32.4556C81.4749 31.7749 81.5718 30.9614 81.5718 30.0151V29.9985C81.5718 29.0522 81.4749 28.2415 81.2812 27.5664C81.0931 26.8857 80.8192 26.3656 80.4595 26.0059C80.0998 25.6406 79.6654 25.458 79.1562 25.458C78.6471 25.458 78.2127 25.6406 77.853 26.0059C77.4989 26.3656 77.2249 26.8857 77.0312 27.5664C76.8431 28.2415 76.749 29.0522 76.749 29.9985V30.0151C76.749 30.9614 76.8431 31.7749 77.0312 32.4556C77.2249 33.1307 77.4989 33.6509 77.853 34.0161C78.2127 34.3813 78.6471 34.564 79.1562 34.564ZM89.9619 36.2988C89.0101 36.2988 88.1938 36.0443 87.5132 35.5352C86.8381 35.026 86.3179 34.3011 85.9526 33.3604C85.5874 32.4196 85.4048 31.3045 85.4048 30.0151V29.9985C85.4048 28.7091 85.5874 27.5968 85.9526 26.6616C86.3179 25.7209 86.8381 24.9959 87.5132 24.4868C88.1938 23.9777 89.0101 23.7231 89.9619 23.7231C90.9137 23.7231 91.73 23.9777 92.4106 24.4868C93.0913 24.9959 93.6143 25.7209 93.9795 26.6616C94.3447 27.5968 94.5273 28.7091 94.5273 29.9985V30.0151C94.5273 31.3045 94.3447 32.4196 93.9795 33.3604C93.6143 34.3011 93.0913 35.026 92.4106 35.5352C91.73 36.0443 90.9137 36.2988 89.9619 36.2988ZM89.9619 34.564C90.471 34.564 90.9054 34.3813 91.2651 34.0161C91.6248 33.6509 91.8988 33.1307 92.0869 32.4556C92.2806 31.7749 92.3774 30.9614 92.3774 30.0151V29.9985C92.3774 29.0522 92.2806 28.2415 92.0869 27.5664C91.8988 26.8857 91.6248 26.3656 91.2651 26.0059C90.9054 25.6406 90.471 25.458 89.9619 25.458C89.4528 25.458 89.0184 25.6406 88.6587 26.0059C88.3045 26.3656 88.0306 26.8857 87.8369 27.5664C87.6488 28.2415 87.5547 29.0522 87.5547 29.9985V30.0151C87.5547 30.9614 87.6488 31.7749 87.8369 32.4556C88.0306 33.1307 88.3045 33.6509 88.6587 34.0161C89.0184 34.3813 89.4528 34.564 89.9619 34.564Z" fill="black"/>
<path d="M288.333 31C288.977 31 289.5 31.5037 289.5 32.125V34.375C289.5 34.9963 288.977 35.5 288.333 35.5H287.167C286.523 35.5 286 34.9963 286 34.375V32.125C286 31.5037 286.523 31 287.167 31H288.333ZM293.823 28.75C294.468 28.75 294.99 29.2537 294.99 29.875V34.375C294.99 34.9963 294.468 35.5 293.823 35.5H292.657C292.013 35.5 291.49 34.9963 291.49 34.375V29.875C291.49 29.2537 292.013 28.75 292.657 28.75H293.823ZM299.313 26.125C299.958 26.125 300.48 26.6287 300.48 27.25V34.375C300.48 34.9963 299.958 35.5 299.313 35.5H298.147C297.503 35.5 296.98 34.9963 296.98 34.375V27.25C296.981 26.6287 297.503 26.125 298.147 26.125H299.313ZM304.804 23.5C305.448 23.5 305.971 24.0037 305.971 24.625V34.375C305.971 34.9963 305.448 35.5 304.804 35.5H303.638C302.993 35.5 302.471 34.9963 302.471 34.375V24.625C302.471 24.0037 302.993 23.5 303.638 23.5H304.804Z" fill="black"/>
<path d="M318.512 32.8262C319.932 31.5963 322.011 31.5963 323.431 32.8262C323.502 32.8923 323.544 32.9854 323.546 33.084C323.548 33.1825 323.51 33.2776 323.441 33.3467L321.218 35.6445C321.153 35.712 321.063 35.75 320.971 35.75C320.878 35.7499 320.79 35.7119 320.725 35.6445L318.501 33.3467C318.432 33.2776 318.394 33.1826 318.396 33.084C318.399 32.9854 318.44 32.8923 318.512 32.8262ZM315.545 29.7607C318.604 26.8466 323.341 26.8466 326.4 29.7607C326.469 29.829 326.509 29.9224 326.51 30.0205C326.511 30.1188 326.473 30.2135 326.405 30.2832L325.12 31.6133C324.988 31.7491 324.774 31.7523 324.638 31.6201C323.633 30.6886 322.326 30.1728 320.971 30.1729C319.617 30.1735 318.311 30.6894 317.308 31.6201C317.172 31.7523 316.958 31.749 316.825 31.6133L315.54 30.2832C315.472 30.2136 315.435 30.1188 315.436 30.0205C315.437 29.9223 315.476 29.829 315.545 29.7607ZM312.578 26.7031C317.27 22.0988 324.671 22.0989 329.363 26.7031C329.431 26.7715 329.47 26.8653 329.471 26.9629C329.471 27.0604 329.433 27.1544 329.366 27.2236L328.08 28.5537C327.947 28.6901 327.732 28.691 327.598 28.5566C325.81 26.8163 323.437 25.8458 320.971 25.8457C318.504 25.8458 316.131 26.8163 314.344 28.5566C314.209 28.6912 313.994 28.6904 313.861 28.5537L312.574 27.2236C312.507 27.1544 312.47 27.0604 312.471 26.9629C312.471 26.8653 312.51 26.7715 312.578 26.7031Z" fill="black"/>
<rect opacity="0.4" x="336.471" y="23.5" width="24" height="12" rx="3.5" stroke="black"/>
<path opacity="0.5" d="M361.971 27.5V31.5C362.777 31.1612 363.301 30.3731 363.301 29.5C363.301 28.6269 362.777 27.8388 361.971 27.5Z" fill="black"/>
<rect x="337.971" y="25" width="17" height="9" rx="2" fill="black"/>
<path d="M42.8095 99.5268C42.068 100.323 40.8068 100.323 40.0652 99.5268L28.2697 86.8632C27.5544 86.0952 27.5544 84.9048 28.2697 84.1368L40.0652 71.4732C40.8068 70.677 42.068 70.677 42.8095 71.4732C43.4802 72.1932 43.4802 73.3093 42.8095 74.0293L33.395 84.1368C32.6796 84.9048 32.6796 86.0952 33.395 86.8632L42.8095 96.9707C43.4802 97.6907 43.4802 98.8068 42.8095 99.5268Z" fill="#535353"/>
<path d="M123.04 93.3C122.253 93.3 121.453 93.22 120.64 93.06C119.84 92.9133 119.207 92.6867 118.74 92.38V90.06C119.327 90.4067 119.98 90.6733 120.7 90.86C121.433 91.0467 122.093 91.14 122.68 91.14C123.387 91.14 123.9 91.0733 124.22 90.94C124.553 90.7933 124.72 90.54 124.72 90.18C124.72 89.86 124.56 89.6133 124.24 89.44C123.933 89.2667 123.353 89.0467 122.5 88.78L122 88.62C120.853 88.26 120.007 87.8267 119.46 87.32C118.913 86.8133 118.64 86.12 118.64 85.24C118.64 84.2133 119.053 83.42 119.88 82.86C120.707 82.2867 121.82 82 123.22 82C123.98 82 124.713 82.08 125.42 82.24C126.127 82.4 126.693 82.6067 127.12 82.86V85.24C126.693 84.9467 126.16 84.7133 125.52 84.54C124.893 84.3533 124.273 84.26 123.66 84.26C122.367 84.26 121.72 84.5867 121.72 85.24C121.72 85.56 121.873 85.8067 122.18 85.98C122.487 86.1533 123.033 86.36 123.82 86.6L124.54 86.82C125.38 87.0867 126.033 87.38 126.5 87.7C126.98 88.02 127.313 88.38 127.5 88.78C127.687 89.18 127.78 89.6667 127.78 90.24C127.78 91.16 127.38 91.9 126.58 92.46C125.793 93.02 124.613 93.3 123.04 93.3ZM132.69 86.34C132.69 85.6467 132.543 85.1467 132.25 84.84C131.956 84.52 131.443 84.36 130.71 84.36C130.003 84.36 129.29 84.54 128.57 84.9V82.6C128.89 82.44 129.316 82.3 129.85 82.18C130.396 82.06 130.923 82 131.43 82C132.83 82 133.896 82.3733 134.63 83.12C135.363 83.8667 135.73 84.9467 135.73 86.36V93H132.69V86.34ZM142.91 93.3C141.243 93.3 139.91 93 138.91 92.4C137.91 91.7867 137.41 90.9133 137.41 89.78C137.41 89.26 137.55 88.7933 137.83 88.38C138.123 87.9533 138.51 87.6467 138.99 87.46C138.55 87.2333 138.19 86.9067 137.91 86.48C137.643 86.0533 137.51 85.5867 137.51 85.08C137.51 84.1467 137.836 83.4 138.49 82.84C139.156 82.28 140.116 82 141.37 82C141.756 82 142.136 82.0267 142.51 82.08C142.896 82.1333 143.19 82.1933 143.39 82.26V84.54C143.203 84.46 142.976 84.3933 142.71 84.34C142.456 84.2867 142.223 84.26 142.01 84.26C141.076 84.26 140.61 84.6067 140.61 85.3C140.61 85.66 140.723 85.9333 140.95 86.12C141.19 86.2933 141.556 86.38 142.05 86.38H143.39V88.52H142.05C141.036 88.52 140.53 88.92 140.53 89.72C140.53 90.1467 140.73 90.48 141.13 90.72C141.543 90.9467 142.136 91.06 142.91 91.06C143.843 91.06 144.523 90.8733 144.95 90.5C145.39 90.1133 145.61 89.54 145.61 88.78V82.28H148.65V88.76C148.65 89.52 148.456 90.2467 148.07 90.94C147.683 91.62 147.063 92.1867 146.21 92.64C145.356 93.08 144.256 93.3 142.91 93.3ZM155.659 93.3C154.606 93.3 153.686 93.1333 152.899 92.8C152.113 92.4667 151.513 92 151.099 91.4C150.686 90.8 150.479 90.12 150.479 89.36V88.86C150.479 88.38 150.573 87.9467 150.759 87.56C150.946 87.1733 151.206 86.74 151.539 86.26C151.753 85.9667 151.906 85.7333 151.999 85.56C152.093 85.3733 152.139 85.2067 152.139 85.06C152.139 84.6867 151.913 84.5 151.459 84.5H150.339V82.3H153.239C153.839 82.3 154.319 82.4733 154.679 82.82C155.039 83.1667 155.219 83.62 155.219 84.18C155.219 84.58 155.146 84.9533 154.999 85.3C154.853 85.6333 154.633 86.02 154.339 86.46C154.059 86.9 153.846 87.2733 153.699 87.58C153.566 87.8867 153.499 88.22 153.499 88.58V89C153.499 89.6267 153.686 90.1067 154.059 90.44C154.433 90.7733 154.966 90.94 155.659 90.94C156.393 90.94 156.946 90.74 157.319 90.34C157.706 89.9267 157.899 89.3333 157.899 88.56C157.899 86.9333 157.266 86.12 155.999 86.12V84.66L157.939 82H161.159L158.979 84.98C159.686 85.34 160.186 85.8133 160.479 86.4C160.786 86.9733 160.939 87.7067 160.939 88.6C160.939 89.52 160.726 90.3333 160.299 91.04C159.886 91.7467 159.279 92.3 158.479 92.7C157.679 93.1 156.739 93.3 155.659 93.3ZM151.548 79.06H155.268V76.94H157.368V79.06H158.708V76.94H160.788V80.98H151.548V79.06ZM158.048 72.5H160.768V75.32H158.048V72.5ZM167.268 93.3C166.375 93.3 165.495 93.2067 164.628 93.02C163.761 92.8467 163.041 92.6 162.468 92.28V86.66H167.528V88.88H165.448V90.6C165.861 90.8267 166.468 90.94 167.268 90.94C169.388 90.94 170.448 89.8333 170.448 87.62C170.448 86.4867 170.141 85.66 169.528 85.14C168.915 84.62 167.881 84.36 166.428 84.36C165.761 84.36 165.075 84.4333 164.368 84.58C163.675 84.7133 163.088 84.9067 162.608 85.16V82.8C163.155 82.5467 163.815 82.3533 164.588 82.22C165.361 82.0733 166.168 82 167.008 82C169.155 82 170.781 82.4933 171.888 83.48C173.008 84.4533 173.568 85.8333 173.568 87.62C173.568 89.38 173.021 90.7667 171.928 91.78C170.835 92.7933 169.281 93.3 167.268 93.3ZM175.251 84.76C175.251 83.9733 175.464 83.3667 175.891 82.94C176.318 82.5133 176.924 82.3 177.711 82.3H179.871V84.64H179.151C178.831 84.64 178.604 84.7067 178.471 84.84C178.338 84.9733 178.271 85.2133 178.271 85.56V89.04L180.291 85.96H181.351L183.371 89.04V82.3H186.371V93H183.651L180.811 88.68L177.971 93H175.251V84.76ZM183.474 98.6C182.487 98.6 181.727 98.4067 181.194 98.02C180.647 97.6333 180.374 97.12 180.374 96.48V96.12C180.374 95.9467 180.347 95.8267 180.294 95.76C180.227 95.6933 180.114 95.66 179.954 95.66H179.294V93.94H181.554C181.954 93.94 182.234 94.0267 182.394 94.2C182.54 94.3867 182.614 94.6733 182.614 95.06V96.16C182.614 96.64 182.867 96.88 183.374 96.88C183.867 96.88 184.114 96.64 184.114 96.16V93.94H186.354V96.4C186.354 97.04 186.107 97.5667 185.614 97.98C185.107 98.3933 184.394 98.6 183.474 98.6ZM181.494 79.7C181.494 79.5533 181.467 79.4533 181.414 79.4C181.347 79.3333 181.24 79.3 181.094 79.3H180.154V77.24H182.034C182.527 77.24 182.887 77.3533 183.114 77.58C183.327 77.8067 183.434 78.0933 183.434 78.44V79.04H187.454V80.98H181.494V79.7ZM193.434 93.3C191.78 93.3 190.474 92.8467 189.514 91.94C188.554 91.02 188.074 89.6733 188.074 87.9C188.074 86.6867 188.247 85.64 188.594 84.76C188.94 83.8667 189.427 83.1867 190.054 82.72C190.694 82.24 191.427 82 192.254 82C192.747 82 193.174 82.0933 193.534 82.28C193.907 82.4667 194.207 82.7267 194.434 83.06C194.687 82.7 195.034 82.4333 195.474 82.26C195.927 82.0867 196.434 82 196.994 82C198.007 82 198.794 82.3133 199.354 82.94C199.914 83.5533 200.194 84.3667 200.194 85.38V93H197.174V85.68C197.174 85.2267 197.1 84.8933 196.954 84.68C196.82 84.4667 196.587 84.36 196.254 84.36C195.667 84.36 195.3 84.72 195.154 85.44H193.734C193.64 84.72 193.327 84.36 192.794 84.36C192.314 84.36 191.927 84.66 191.634 85.26C191.34 85.86 191.194 86.74 191.194 87.9C191.194 88.94 191.414 89.7067 191.854 90.2C192.307 90.6933 193.02 90.94 193.994 90.94C194.5 90.94 194.954 90.8667 195.354 90.72V93.04C194.834 93.2133 194.194 93.3 193.434 93.3ZM190.942 79.06H200.202V80.98H190.942V79.06ZM207.262 93.3C205.608 93.3 204.302 92.84 203.342 91.92C202.382 91 201.902 89.6533 201.902 87.88C201.902 86.0267 202.455 84.5867 203.562 83.56C204.668 82.52 206.195 82 208.142 82C210.155 82 211.635 82.4667 212.582 83.4C213.542 84.3333 214.022 85.56 214.022 87.08V93H211.002V87.06C211.002 86.18 210.775 85.5133 210.322 85.06C209.882 84.5933 209.155 84.36 208.142 84.36C207.182 84.36 206.422 84.66 205.862 85.26C205.302 85.86 205.022 86.7333 205.022 87.88C205.022 88.9333 205.248 89.7067 205.702 90.2C206.168 90.6933 206.875 90.94 207.822 90.94C208.328 90.94 208.782 90.8667 209.182 90.72V93.04C208.662 93.2133 208.022 93.3 207.262 93.3ZM221.09 93.3C219.437 93.3 218.13 92.8467 217.17 91.94C216.21 91.02 215.73 89.6733 215.73 87.9C215.73 86.6867 215.903 85.64 216.25 84.76C216.597 83.8667 217.083 83.1867 217.71 82.72C218.35 82.24 219.083 82 219.91 82C220.403 82 220.83 82.0933 221.19 82.28C221.563 82.4667 221.863 82.7267 222.09 83.06C222.343 82.7 222.69 82.4333 223.13 82.26C223.583 82.0867 224.09 82 224.65 82C225.663 82 226.45 82.3133 227.01 82.94C227.57 83.5533 227.85 84.3667 227.85 85.38V93H224.83V85.68C224.83 85.2267 224.757 84.8933 224.61 84.68C224.477 84.4667 224.243 84.36 223.91 84.36C223.323 84.36 222.957 84.72 222.81 85.44H221.39C221.297 84.72 220.983 84.36 220.45 84.36C219.97 84.36 219.583 84.66 219.29 85.26C218.997 85.86 218.85 86.74 218.85 87.9C218.85 88.94 219.07 89.7067 219.51 90.2C219.963 90.6933 220.677 90.94 221.65 90.94C222.157 90.94 222.61 90.8667 223.01 90.72V93.04C222.49 93.2133 221.85 93.3 221.09 93.3ZM224.838 77.42H227.878V80.98H224.838V77.42ZM234.358 93.3C233.465 93.3 232.585 93.2067 231.718 93.02C230.851 92.8467 230.131 92.6 229.558 92.28V86.66H234.618V88.88H232.538V90.6C232.951 90.8267 233.558 90.94 234.358 90.94C236.478 90.94 237.538 89.8333 237.538 87.62C237.538 86.4867 237.231 85.66 236.618 85.14C236.005 84.62 234.971 84.36 233.518 84.36C232.851 84.36 232.165 84.4333 231.458 84.58C230.765 84.7133 230.178 84.9067 229.698 85.16V82.8C230.245 82.5467 230.905 82.3533 231.678 82.22C232.451 82.0733 233.258 82 234.098 82C236.245 82 237.871 82.4933 238.978 83.48C240.098 84.4533 240.658 85.8333 240.658 87.62C240.658 89.38 240.111 90.7667 239.018 91.78C237.925 92.7933 236.371 93.3 234.358 93.3ZM246.121 93.3C244.814 93.3 243.814 92.94 243.121 92.22C242.441 91.4867 242.101 90.4933 242.101 89.24V86.94H245.141V89.06C245.141 89.7 245.294 90.1733 245.601 90.48C245.921 90.7867 246.414 90.94 247.081 90.94C247.601 90.94 248.081 90.8133 248.521 90.56C248.974 90.3067 249.327 89.9533 249.581 89.5V87.42C249.581 86.3667 249.321 85.5933 248.801 85.1C248.294 84.6067 247.374 84.36 246.041 84.36C245.361 84.36 244.614 84.4267 243.801 84.56C243.001 84.6933 242.381 84.8667 241.941 85.08V82.74C242.461 82.5267 243.141 82.3533 243.981 82.22C244.834 82.0733 245.647 82 246.421 82C248.607 82 250.181 82.4467 251.141 83.34C252.114 84.2333 252.601 85.5533 252.601 87.3V93H249.721V91.8C249.321 92.28 248.801 92.6533 248.161 92.92C247.534 93.1733 246.854 93.3 246.121 93.3ZM249.984 96.52C249.984 96.28 249.937 96.1067 249.844 96C249.751 95.9067 249.584 95.86 249.344 95.86H248.684V93.94H250.784C251.504 93.94 252.004 94.0867 252.284 94.38C252.551 94.6733 252.684 95.18 252.684 95.9V98.48H249.984V96.52ZM255.264 86.62L254.264 84.92C255.824 82.9733 257.831 82 260.284 82C262.004 82 263.324 82.38 264.244 83.14C265.177 83.9 265.644 84.96 265.644 86.32V93H262.604V86.56C262.604 85.0933 261.831 84.36 260.284 84.36C259.711 84.36 259.197 84.44 258.744 84.6C258.304 84.76 257.891 85.02 257.504 85.38L258.284 86.66V93H255.264V86.62ZM270.011 93C269.278 93 268.711 92.7933 268.311 92.38C267.925 91.9533 267.731 91.3667 267.731 90.62V82.3H270.771V89.8C270.771 90.12 270.838 90.3467 270.971 90.48C271.105 90.6133 271.325 90.68 271.631 90.68H272.331V93H270.011ZM277.742 93.3C276.435 93.3 275.435 92.94 274.742 92.22C274.062 91.4867 273.722 90.4933 273.722 89.24V86.94H276.762V89.06C276.762 89.7 276.915 90.1733 277.222 90.48C277.542 90.7867 278.035 90.94 278.702 90.94C279.222 90.94 279.702 90.8133 280.142 90.56C280.595 90.3067 280.949 89.9533 281.202 89.5V87.42C281.202 86.3667 280.942 85.5933 280.422 85.1C279.915 84.6067 278.995 84.36 277.662 84.36C276.982 84.36 276.235 84.4267 275.422 84.56C274.622 84.6933 274.002 84.8667 273.562 85.08V82.74C274.082 82.5267 274.762 82.3533 275.602 82.22C276.455 82.0733 277.269 82 278.042 82C280.229 82 281.802 82.4467 282.762 83.34C283.735 84.2333 284.222 85.5533 284.222 87.3V93H281.342V91.8C280.942 92.28 280.422 92.6533 279.782 92.92C279.155 93.1733 278.475 93.3 277.742 93.3ZM274.965 79.06H284.225V80.98H274.965V79.06ZM290.485 93.3C289.618 93.3 288.872 93.12 288.245 92.76C287.618 92.4 287.138 91.9067 286.805 91.28C286.485 90.6533 286.325 89.9533 286.325 89.18V82.3H289.365V89C289.365 90.2933 290.052 90.94 291.425 90.94C291.985 90.94 292.465 90.8267 292.865 90.6C293.278 90.36 293.638 89.9933 293.945 89.5V82.3H296.965V93H294.085V91.8C293.618 92.2933 293.065 92.6667 292.425 92.92C291.798 93.1733 291.152 93.3 290.485 93.3Z" fill="black"/>
<path d="M128.186 176.21C127.103 176.21 126.24 176.005 125.596 175.594C124.952 175.183 124.63 174.586 124.63 173.802C124.63 173.391 124.742 173.032 124.966 172.724C125.199 172.407 125.507 172.187 125.89 172.066C125.526 171.907 125.232 171.679 125.008 171.38C124.793 171.081 124.686 170.736 124.686 170.344C124.686 169.728 124.891 169.233 125.302 168.86C125.713 168.487 126.315 168.3 127.108 168.3C127.332 168.3 127.561 168.319 127.794 168.356C128.027 168.384 128.214 168.417 128.354 168.454V169.574C128.233 169.527 128.074 169.495 127.878 169.476C127.691 169.448 127.519 169.434 127.36 169.434C126.959 169.434 126.651 169.523 126.436 169.7C126.231 169.868 126.128 170.111 126.128 170.428C126.128 170.764 126.24 171.021 126.464 171.198C126.688 171.375 127.019 171.464 127.458 171.464H128.354V172.64H127.472C127.024 172.64 126.679 172.738 126.436 172.934C126.193 173.121 126.072 173.41 126.072 173.802C126.072 174.213 126.259 174.53 126.632 174.754C127.015 174.978 127.533 175.09 128.186 175.09C129.726 175.09 130.496 174.437 130.496 173.13V168.51H131.924V173.102C131.924 173.625 131.803 174.124 131.56 174.6C131.317 175.067 130.916 175.454 130.356 175.762C129.805 176.061 129.082 176.21 128.186 176.21ZM129.29 167.404C128.889 167.404 128.599 167.306 128.422 167.11C128.235 166.905 128.142 166.601 128.142 166.2V165.472H129.43V166.032C129.43 166.191 129.463 166.298 129.528 166.354C129.584 166.41 129.696 166.438 129.864 166.438H133.168V167.404H129.29ZM133.462 169.448H134.89L136.668 174.88C137.545 174.88 138.222 174.637 138.698 174.152C139.174 173.667 139.412 172.981 139.412 172.094C139.412 171.217 139.249 170.554 138.922 170.106C138.595 169.658 138.073 169.434 137.354 169.434C137.018 169.434 136.691 169.476 136.374 169.56V168.454C136.747 168.351 137.153 168.3 137.592 168.3C138.656 168.3 139.468 168.636 140.028 169.308C140.588 169.98 140.868 170.909 140.868 172.094C140.868 172.906 140.691 173.606 140.336 174.194C139.991 174.782 139.519 175.23 138.922 175.538C138.325 175.846 137.662 176 136.934 176H135.59L133.462 169.448ZM144.286 175.986C143.829 175.986 143.479 175.86 143.236 175.608C143.003 175.347 142.886 174.983 142.886 174.516V169.21C142.886 168.585 142.975 168.071 143.152 167.67C143.329 167.269 143.628 166.937 144.048 166.676H141.5V165.472H145.91V166.62C145.35 166.863 144.944 167.175 144.692 167.558C144.44 167.941 144.314 168.473 144.314 169.154V174.11C144.314 174.362 144.365 174.539 144.468 174.642C144.571 174.735 144.748 174.782 145 174.782H145.504V175.986H144.286ZM151.105 176.21C150.592 176.21 150.102 176.107 149.635 175.902C149.178 175.697 148.767 175.393 148.403 174.992V176H147.031V168.51H148.459V173.802C149.01 174.661 149.766 175.09 150.727 175.09C151.334 175.09 151.791 174.95 152.099 174.67C152.416 174.381 152.575 173.956 152.575 173.396V168.51H154.003V173.452C154.003 174.264 153.746 174.927 153.233 175.44C152.72 175.953 152.01 176.21 151.105 176.21ZM152.616 165.066H154.03V167.404H152.616V165.066ZM159.896 176.21C159.383 176.21 158.893 176.107 158.426 175.902C157.969 175.697 157.558 175.393 157.194 174.992V176H155.822V168.51H157.25V173.802C157.801 174.661 158.557 175.09 159.518 175.09C160.125 175.09 160.582 174.95 160.89 174.67C161.207 174.381 161.366 173.956 161.366 173.396V168.51H162.794V173.452C162.794 174.264 162.537 174.927 162.024 175.44C161.511 175.953 160.801 176.21 159.896 176.21ZM156.731 166.438H161.477V164.94H162.779V167.404H156.731V166.438ZM167.693 176.21C167.021 176.21 166.438 176.093 165.943 175.86C165.448 175.627 165.066 175.3 164.795 174.88C164.534 174.451 164.403 173.961 164.403 173.41V172.934C164.403 172.617 164.468 172.327 164.599 172.066C164.73 171.805 164.921 171.501 165.173 171.156C165.35 170.923 165.481 170.731 165.565 170.582C165.649 170.423 165.691 170.274 165.691 170.134C165.691 169.957 165.644 169.831 165.551 169.756C165.467 169.681 165.322 169.644 165.117 169.644H164.333V168.51H165.803C166.214 168.51 166.536 168.631 166.769 168.874C167.012 169.107 167.133 169.42 167.133 169.812C167.133 170.083 167.077 170.335 166.965 170.568C166.853 170.792 166.685 171.067 166.461 171.394C166.237 171.73 166.074 172.001 165.971 172.206C165.878 172.411 165.831 172.635 165.831 172.878V173.396C165.831 173.937 165.985 174.357 166.293 174.656C166.61 174.945 167.077 175.09 167.693 175.09C168.309 175.09 168.766 174.941 169.065 174.642C169.364 174.334 169.513 173.905 169.513 173.354V168.51H170.941V173.116C170.941 174.077 170.656 174.833 170.087 175.384C169.518 175.935 168.72 176.21 167.693 176.21ZM167.932 166.522C167.932 166.41 167.913 166.331 167.876 166.284C167.829 166.237 167.75 166.214 167.638 166.214H167.008V165.206H168.058C168.356 165.206 168.576 165.281 168.716 165.43C168.846 165.57 168.912 165.747 168.912 165.962V166.452H171.782V167.404H167.932V166.522ZM175.534 176.21C174.955 176.21 174.395 176.14 173.854 176C173.312 175.869 172.855 175.683 172.482 175.44V171.716H175.59V172.864H173.91V174.726C174.311 174.969 174.852 175.09 175.534 175.09C176.43 175.09 177.111 174.843 177.578 174.348C178.054 173.853 178.292 173.135 178.292 172.192C178.292 171.249 178.049 170.554 177.564 170.106C177.088 169.658 176.304 169.434 175.212 169.434C174.717 169.434 174.232 169.485 173.756 169.588C173.28 169.681 172.878 169.835 172.552 170.05V168.916C172.916 168.711 173.345 168.557 173.84 168.454C174.334 168.351 174.866 168.3 175.436 168.3C176.836 168.3 177.904 168.641 178.642 169.322C179.379 170.003 179.748 170.96 179.748 172.192C179.748 173.433 179.379 174.413 178.642 175.132C177.914 175.851 176.878 176.21 175.534 176.21ZM185.367 176.21C184.853 176.21 184.363 176.107 183.897 175.902C183.439 175.697 183.029 175.393 182.665 174.992V176H181.293V168.51H182.721V173.802C183.271 174.661 184.027 175.09 184.989 175.09C185.595 175.09 186.053 174.95 186.361 174.67C186.678 174.381 186.837 173.956 186.837 173.396V168.51H188.265V173.452C188.265 174.264 188.008 174.927 187.495 175.44C186.981 175.953 186.272 176.21 185.367 176.21ZM186.528 179.794C185.949 179.794 185.501 179.673 185.184 179.43C184.857 179.187 184.694 178.861 184.694 178.45V178.072C184.694 177.941 184.675 177.853 184.638 177.806C184.6 177.769 184.521 177.75 184.4 177.75H183.924V176.798H185.156C185.408 176.798 185.58 176.854 185.674 176.966C185.767 177.078 185.814 177.26 185.814 177.512V178.31C185.814 178.721 186.038 178.926 186.486 178.926C186.924 178.926 187.144 178.721 187.144 178.31V176.798H188.264V178.408C188.264 178.819 188.114 179.15 187.816 179.402C187.508 179.663 187.078 179.794 186.528 179.794ZM192.52 176.21C191.689 176.21 191.026 176.005 190.532 175.594C190.046 175.174 189.804 174.581 189.804 173.816C189.804 173.06 190.074 172.458 190.616 172.01C191.166 171.562 191.908 171.338 192.842 171.338C193.766 171.338 194.596 171.511 195.334 171.856V171.282C195.334 170.638 195.156 170.171 194.802 169.882C194.456 169.583 193.878 169.434 193.066 169.434C192.618 169.434 192.179 169.476 191.75 169.56C191.32 169.644 190.947 169.761 190.63 169.91V168.79C190.919 168.65 191.311 168.533 191.806 168.44C192.31 168.347 192.8 168.3 193.276 168.3C194.442 168.3 195.315 168.566 195.894 169.098C196.472 169.63 196.762 170.349 196.762 171.254V176H195.334V172.99C194.652 172.645 193.873 172.472 192.996 172.472C192.389 172.472 191.941 172.584 191.652 172.808C191.372 173.032 191.232 173.368 191.232 173.816C191.232 174.665 191.778 175.09 192.87 175.09C193.206 175.09 193.5 175.043 193.752 174.95V176.056C193.416 176.159 193.005 176.21 192.52 176.21ZM199.988 176C199.53 176 199.18 175.874 198.938 175.622C198.704 175.361 198.588 174.997 198.588 174.53V168.51H200.016V174.138C200.016 174.39 200.067 174.567 200.17 174.67C200.272 174.763 200.45 174.81 200.702 174.81H201.206V176H199.988ZM206.342 176.21C205.614 176.21 204.979 176.079 204.438 175.818C203.897 175.557 203.477 175.193 203.178 174.726C202.889 174.25 202.744 173.709 202.744 173.102V168.51H204.172V173.074C204.172 173.699 204.354 174.194 204.718 174.558C205.091 174.913 205.633 175.09 206.342 175.09C207.042 175.09 207.574 174.913 207.938 174.558C208.311 174.194 208.498 173.699 208.498 173.074V168.51H209.926V173.102C209.926 173.709 209.777 174.25 209.478 174.726C209.189 175.193 208.773 175.557 208.232 175.818C207.691 176.079 207.061 176.21 206.342 176.21ZM214.512 176.21C213.933 176.21 213.373 176.14 212.832 176C212.291 175.869 211.833 175.683 211.46 175.44V171.716H214.568V172.864H212.888V174.726C213.289 174.969 213.831 175.09 214.512 175.09C215.408 175.09 216.089 174.843 216.556 174.348C217.032 173.853 217.27 173.135 217.27 172.192C217.27 171.249 217.027 170.554 216.542 170.106C216.066 169.658 215.282 169.434 214.19 169.434C213.695 169.434 213.21 169.485 212.734 169.588C212.258 169.681 211.857 169.835 211.53 170.05V168.916C211.894 168.711 212.323 168.557 212.818 168.454C213.313 168.351 213.845 168.3 214.414 168.3C215.814 168.3 216.883 168.641 217.62 169.322C218.357 170.003 218.726 170.96 218.726 172.192C218.726 173.433 218.357 174.413 217.62 175.132C216.892 175.851 215.856 176.21 214.512 176.21ZM222.847 176.21C222.334 176.21 221.811 176.149 221.279 176.028C220.747 175.916 220.332 175.748 220.033 175.524V174.376C220.435 174.619 220.873 174.805 221.349 174.936C221.835 175.057 222.297 175.118 222.735 175.118C223.351 175.118 223.795 175.048 224.065 174.908C224.336 174.759 224.471 174.507 224.471 174.152C224.471 173.909 224.406 173.713 224.275 173.564C224.145 173.415 223.944 173.284 223.673 173.172C223.412 173.06 222.997 172.92 222.427 172.752C221.606 172.5 220.995 172.206 220.593 171.87C220.192 171.525 219.991 171.049 219.991 170.442C219.991 169.751 220.257 169.224 220.789 168.86C221.321 168.487 222.049 168.3 222.973 168.3C223.449 168.3 223.907 168.356 224.345 168.468C224.793 168.571 225.162 168.711 225.451 168.888V170.064C225.134 169.868 224.77 169.714 224.359 169.602C223.949 169.49 223.529 169.434 223.099 169.434C221.979 169.434 221.419 169.77 221.419 170.442C221.419 170.694 221.494 170.895 221.643 171.044C221.802 171.193 222.007 171.319 222.259 171.422C222.521 171.515 222.955 171.651 223.561 171.828C224.159 172.005 224.625 172.197 224.961 172.402C225.297 172.607 225.535 172.85 225.675 173.13C225.815 173.41 225.885 173.755 225.885 174.166C225.885 174.782 225.633 175.277 225.129 175.65C224.625 176.023 223.865 176.21 222.847 176.21ZM222.256 166.606C222.256 165.878 222.652 165.514 223.446 165.514H226.54V166.452H224.006C223.838 166.452 223.721 166.485 223.656 166.55C223.59 166.615 223.558 166.732 223.558 166.9V167.404H222.256V166.606ZM230.096 176.21C229.2 176.21 228.514 175.972 228.038 175.496C227.571 175.011 227.338 174.348 227.338 173.508V171.716H228.766V173.424C228.766 173.984 228.906 174.404 229.186 174.684C229.475 174.955 229.914 175.09 230.502 175.09C231.454 175.09 232.182 174.661 232.686 173.802V171.954C232.686 171.086 232.485 170.451 232.084 170.05C231.682 169.639 230.987 169.434 229.998 169.434C229.494 169.434 228.976 169.481 228.444 169.574C227.912 169.658 227.478 169.775 227.142 169.924V168.804C227.487 168.655 227.935 168.533 228.486 168.44C229.046 168.347 229.592 168.3 230.124 168.3C231.505 168.3 232.513 168.603 233.148 169.21C233.792 169.807 234.114 170.703 234.114 171.898V176H232.742V174.992C232.434 175.403 232.046 175.711 231.58 175.916C231.122 176.112 230.628 176.21 230.096 176.21ZM232.817 178.254C232.817 178.086 232.789 177.969 232.733 177.904C232.668 177.848 232.547 177.82 232.369 177.82H231.907V176.798H233.055C233.475 176.798 233.76 176.882 233.909 177.05C234.049 177.218 234.119 177.517 234.119 177.946V179.682H232.817V178.254ZM236.359 171.338L235.659 170.204C236.154 169.579 236.719 169.107 237.353 168.79C237.988 168.463 238.739 168.3 239.607 168.3C240.727 168.3 241.586 168.557 242.183 169.07C242.781 169.574 243.079 170.283 243.079 171.198V176H241.651V171.31C241.651 170.666 241.479 170.195 241.133 169.896C240.797 169.588 240.289 169.434 239.607 169.434C239.094 169.434 238.641 169.513 238.249 169.672C237.857 169.821 237.503 170.064 237.185 170.4L237.787 171.338V176H236.359V171.338ZM246.294 176C245.837 176 245.487 175.874 245.244 175.622C245.011 175.361 244.894 174.997 244.894 174.53V168.51H246.322V174.138C246.322 174.39 246.374 174.567 246.476 174.67C246.579 174.763 246.756 174.81 247.008 174.81H247.512V176H246.294ZM251.725 176.21C250.829 176.21 250.143 175.972 249.667 175.496C249.2 175.011 248.967 174.348 248.967 173.508V171.716H250.395V173.424C250.395 173.984 250.535 174.404 250.815 174.684C251.104 174.955 251.543 175.09 252.131 175.09C253.083 175.09 253.811 174.661 254.315 173.802V171.954C254.315 171.086 254.114 170.451 253.713 170.05C253.311 169.639 252.616 169.434 251.627 169.434C251.123 169.434 250.605 169.481 250.073 169.574C249.541 169.658 249.107 169.775 248.771 169.924V168.804C249.116 168.655 249.564 168.533 250.115 168.44C250.675 168.347 251.221 168.3 251.753 168.3C253.134 168.3 254.142 168.603 254.777 169.21C255.421 169.807 255.743 170.703 255.743 171.898V176H254.371V174.992C254.063 175.403 253.675 175.711 253.209 175.916C252.751 176.112 252.257 176.21 251.725 176.21ZM249.686 166.438H255.734V167.404H249.686V166.438ZM260.466 176.21C259.552 176.21 258.838 175.953 258.324 175.44C257.82 174.927 257.568 174.264 257.568 173.452V168.51H258.996V173.396C258.996 173.956 259.15 174.381 259.458 174.67C259.776 174.95 260.238 175.09 260.844 175.09C261.806 175.09 262.562 174.661 263.112 173.802V168.51H264.54V176H263.154V174.992C262.454 175.804 261.558 176.21 260.466 176.21Z" fill="#535353"/>
<rect x="72" y="251" width="240" height="44" rx="22" fill="#16AD78"/>
<path d="M117.444 271.889V268.556H114.111V266.333H117.444V263H119.667V266.333H123V268.556H119.667V271.889H117.444ZM121.833 283C119.519 283 117.231 282.495 114.972 281.486C112.713 280.477 110.657 279.046 108.806 277.194C106.954 275.343 105.523 273.287 104.514 271.028C103.505 268.769 103 266.481 103 264.167C103 263.833 103.111 263.556 103.333 263.333C103.556 263.111 103.833 263 104.167 263H108.667C108.926 263 109.157 263.088 109.361 263.264C109.565 263.44 109.685 263.648 109.722 263.889L110.444 267.778C110.481 268.074 110.472 268.324 110.417 268.528C110.361 268.731 110.259 268.907 110.111 269.056L107.417 271.778C107.787 272.463 108.227 273.125 108.736 273.764C109.245 274.403 109.806 275.019 110.417 275.611C110.991 276.185 111.593 276.718 112.222 277.208C112.852 277.699 113.519 278.148 114.222 278.556L116.833 275.944C117 275.778 117.218 275.653 117.486 275.569C117.755 275.486 118.019 275.463 118.278 275.5L122.111 276.278C122.37 276.352 122.583 276.486 122.75 276.681C122.917 276.875 123 277.093 123 277.333V281.833C123 282.167 122.889 282.444 122.667 282.667C122.444 282.889 122.167 283 121.833 283ZM106.361 269.667L108.194 267.833L107.722 265.222H105.25C105.343 265.981 105.472 266.731 105.639 267.472C105.806 268.213 106.046 268.944 106.361 269.667ZM116.306 279.611C117.028 279.926 117.764 280.176 118.514 280.361C119.264 280.546 120.019 280.667 120.778 280.722V278.278L118.167 277.75L116.306 279.611Z" fill="#FFF3F3"/>
<path d="M141.656 278C141.069 278 140.616 277.835 140.296 277.504C139.987 277.163 139.832 276.693 139.832 276.096V269.44H142.264V275.44C142.264 275.696 142.317 275.877 142.424 275.984C142.531 276.091 142.707 276.144 142.952 276.144H143.512V278H141.656ZM144.336 269.44H146.768L147.968 274.672L149.44 269.44H151.2L152.672 274.672L153.872 269.44H156.304L153.92 278H151.856L150.32 272.672L148.784 278H146.72L144.336 269.44ZM146.541 266.848H153.949V268.384H146.541V266.848ZM151.773 263.4H153.949V265.656H151.773V263.4ZM162.672 278.24C162.139 278.24 161.622 278.139 161.12 277.936C160.619 277.733 160.182 277.435 159.808 277.04V278H157.488V269.44H159.92V275.2C160.155 275.595 160.438 275.888 160.768 276.08C161.099 276.261 161.488 276.352 161.936 276.352C163.035 276.352 163.584 275.835 163.584 274.8V269.44H166V274.944C166 275.563 165.872 276.123 165.616 276.624C165.36 277.125 164.982 277.52 164.48 277.808C163.979 278.096 163.376 278.24 162.672 278.24ZM169.5 278C168.913 278 168.46 277.835 168.14 277.504C167.83 277.163 167.676 276.693 167.676 276.096V269.44H170.108V275.44C170.108 275.696 170.161 275.877 170.268 275.984C170.374 276.091 170.55 276.144 170.796 276.144H171.356V278H169.5ZM177.076 278.24C176.191 278.24 175.417 278.085 174.756 277.776C174.095 277.456 173.583 277.019 173.22 276.464C172.857 275.909 172.676 275.28 172.676 274.576V269.44H175.108V274.416C175.108 275.035 175.268 275.515 175.588 275.856C175.919 276.187 176.415 276.352 177.076 276.352C177.737 276.352 178.228 276.187 178.548 275.856C178.868 275.515 179.028 275.035 179.028 274.416V269.44H181.46V274.576C181.46 275.28 181.279 275.909 180.916 276.464C180.553 277.019 180.041 277.456 179.38 277.776C178.719 278.085 177.951 278.24 177.076 278.24ZM186.633 278.24C185.919 278.24 185.215 278.165 184.521 278.016C183.828 277.877 183.252 277.68 182.793 277.424V272.928H186.841V274.704H185.177V276.08C185.508 276.261 185.993 276.352 186.633 276.352C188.329 276.352 189.177 275.467 189.177 273.696C189.177 272.789 188.932 272.128 188.441 271.712C187.951 271.296 187.124 271.088 185.961 271.088C185.428 271.088 184.879 271.147 184.313 271.264C183.759 271.371 183.289 271.525 182.905 271.728V269.84C183.343 269.637 183.871 269.483 184.489 269.376C185.108 269.259 185.753 269.2 186.425 269.2C188.143 269.2 189.444 269.595 190.329 270.384C191.225 271.163 191.673 272.267 191.673 273.696C191.673 275.104 191.236 276.213 190.361 277.024C189.487 277.835 188.244 278.24 186.633 278.24ZM196.22 278.24C195.59 278.24 194.95 278.176 194.299 278.048C193.66 277.931 193.153 277.749 192.78 277.504V275.648C193.249 275.925 193.772 276.139 194.348 276.288C194.934 276.437 195.462 276.512 195.932 276.512C196.497 276.512 196.908 276.459 197.164 276.352C197.43 276.235 197.564 276.032 197.564 275.744C197.564 275.488 197.436 275.291 197.18 275.152C196.934 275.013 196.47 274.837 195.788 274.624L195.388 274.496C194.47 274.208 193.793 273.861 193.356 273.456C192.918 273.051 192.7 272.496 192.7 271.792C192.7 270.971 193.03 270.336 193.692 269.888C194.353 269.429 195.244 269.2 196.364 269.2C196.972 269.2 197.558 269.264 198.124 269.392C198.689 269.52 199.142 269.685 199.484 269.888V271.792C199.142 271.557 198.716 271.371 198.204 271.232C197.702 271.083 197.206 271.008 196.716 271.008C195.681 271.008 195.164 271.269 195.164 271.792C195.164 272.048 195.286 272.245 195.532 272.384C195.777 272.523 196.214 272.688 196.844 272.88L197.42 273.056C198.092 273.269 198.614 273.504 198.988 273.76C199.372 274.016 199.638 274.304 199.788 274.624C199.937 274.944 200.012 275.333 200.012 275.792C200.012 276.528 199.692 277.12 199.052 277.568C198.422 278.016 197.478 278.24 196.22 278.24ZM195.363 267.168C195.363 266.699 195.491 266.347 195.747 266.112C195.993 265.877 196.387 265.76 196.931 265.76H200.531V267.28H197.971C197.811 267.28 197.699 267.317 197.635 267.392C197.561 267.456 197.523 267.568 197.523 267.728V268.384H195.363V267.168ZM205.331 278.24C204.009 278.24 202.963 277.877 202.195 277.152C201.427 276.416 201.043 275.339 201.043 273.92C201.043 272.949 201.182 272.112 201.459 271.408C201.737 270.693 202.126 270.149 202.627 269.776C203.139 269.392 203.726 269.2 204.387 269.2C204.782 269.2 205.123 269.275 205.411 269.424C205.71 269.573 205.95 269.781 206.131 270.048C206.334 269.76 206.611 269.547 206.963 269.408C207.326 269.269 207.731 269.2 208.179 269.2C208.99 269.2 209.619 269.451 210.067 269.952C210.515 270.443 210.739 271.093 210.739 271.904V278H208.323V272.144C208.323 271.781 208.265 271.515 208.147 271.344C208.041 271.173 207.854 271.088 207.587 271.088C207.118 271.088 206.825 271.376 206.707 271.952H205.571C205.497 271.376 205.246 271.088 204.819 271.088C204.435 271.088 204.126 271.328 203.891 271.808C203.657 272.288 203.539 272.992 203.539 273.92C203.539 274.752 203.715 275.365 204.067 275.76C204.43 276.155 205.001 276.352 205.779 276.352C206.185 276.352 206.547 276.293 206.867 276.176V278.032C206.451 278.171 205.939 278.24 205.331 278.24ZM203.338 266.848H210.746V268.384H203.338V266.848ZM216.394 278.24C215.071 278.24 214.026 277.872 213.258 277.136C212.49 276.4 212.106 275.323 212.106 273.904C212.106 272.421 212.548 271.269 213.434 270.448C214.319 269.616 215.54 269.2 217.098 269.2C218.708 269.2 219.892 269.573 220.65 270.32C221.418 271.067 221.802 272.048 221.802 273.264V278H219.386V273.248C219.386 272.544 219.204 272.011 218.842 271.648C218.49 271.275 217.908 271.088 217.098 271.088C216.33 271.088 215.722 271.328 215.274 271.808C214.826 272.288 214.602 272.987 214.602 273.904C214.602 274.747 214.783 275.365 215.146 275.76C215.519 276.155 216.084 276.352 216.842 276.352C217.247 276.352 217.61 276.293 217.93 276.176V278.032C217.514 278.171 217.002 278.24 216.394 278.24ZM227.456 278.24C226.134 278.24 225.088 277.877 224.32 277.152C223.552 276.416 223.168 275.339 223.168 273.92C223.168 272.949 223.307 272.112 223.584 271.408C223.862 270.693 224.251 270.149 224.752 269.776C225.264 269.392 225.851 269.2 226.512 269.2C226.907 269.2 227.248 269.275 227.536 269.424C227.835 269.573 228.075 269.781 228.256 270.048C228.459 269.76 228.736 269.547 229.088 269.408C229.451 269.269 229.856 269.2 230.304 269.2C231.115 269.2 231.744 269.451 232.192 269.952C232.64 270.443 232.864 271.093 232.864 271.904V278H230.448V272.144C230.448 271.781 230.39 271.515 230.272 271.344C230.166 271.173 229.979 271.088 229.712 271.088C229.243 271.088 228.95 271.376 228.832 271.952H227.696C227.622 271.376 227.371 271.088 226.944 271.088C226.56 271.088 226.251 271.328 226.016 271.808C225.782 272.288 225.664 272.992 225.664 273.92C225.664 274.752 225.84 275.365 226.192 275.76C226.555 276.155 227.126 276.352 227.904 276.352C228.31 276.352 228.672 276.293 228.992 276.176V278.032C228.576 278.171 228.064 278.24 227.456 278.24ZM230.455 265.536H232.887V268.384H230.455V265.536ZM238.071 278.24C237.356 278.24 236.652 278.165 235.959 278.016C235.265 277.877 234.689 277.68 234.231 277.424V272.928H238.279V274.704H236.615V276.08C236.945 276.261 237.431 276.352 238.071 276.352C239.767 276.352 240.615 275.467 240.615 273.696C240.615 272.789 240.369 272.128 239.879 271.712C239.388 271.296 238.561 271.088 237.399 271.088C236.865 271.088 236.316 271.147 235.751 271.264C235.196 271.371 234.727 271.525 234.343 271.728V269.84C234.78 269.637 235.308 269.483 235.927 269.376C236.545 269.259 237.191 269.2 237.863 269.2C239.58 269.2 240.881 269.595 241.767 270.384C242.663 271.163 243.111 272.267 243.111 273.696C243.111 275.104 242.673 276.213 241.799 277.024C240.924 277.835 239.681 278.24 238.071 278.24ZM247.481 278.24C246.436 278.24 245.636 277.952 245.081 277.376C244.537 276.789 244.265 275.995 244.265 274.992V273.152H246.697V274.848C246.697 275.36 246.82 275.739 247.065 275.984C247.321 276.229 247.716 276.352 248.249 276.352C248.665 276.352 249.049 276.251 249.401 276.048C249.764 275.845 250.046 275.563 250.249 275.2V273.536C250.249 272.693 250.041 272.075 249.625 271.68C249.22 271.285 248.484 271.088 247.417 271.088C246.873 271.088 246.276 271.141 245.625 271.248C244.985 271.355 244.489 271.493 244.137 271.664V269.792C244.553 269.621 245.097 269.483 245.769 269.376C246.452 269.259 247.102 269.2 247.721 269.2C249.47 269.2 250.729 269.557 251.497 270.272C252.276 270.987 252.665 272.043 252.665 273.44V278H250.361V277.04C250.041 277.424 249.625 277.723 249.113 277.936C248.612 278.139 248.068 278.24 247.481 278.24ZM250.572 280.816C250.572 280.624 250.534 280.485 250.46 280.4C250.385 280.325 250.252 280.288 250.06 280.288H249.532V278.752H251.212C251.788 278.752 252.188 278.869 252.412 279.104C252.625 279.339 252.732 279.744 252.732 280.32V282.384H250.572V280.816ZM254.796 272.896L253.996 271.536C255.244 269.979 256.849 269.2 258.812 269.2C260.188 269.2 261.244 269.504 261.98 270.112C262.726 270.72 263.1 271.568 263.1 272.656V278H260.668V272.848C260.668 271.675 260.049 271.088 258.812 271.088C258.353 271.088 257.942 271.152 257.58 271.28C257.228 271.408 256.897 271.616 256.588 271.904L257.212 272.928V278H254.796V272.896ZM266.594 278C266.007 278 265.554 277.835 265.234 277.504C264.924 277.163 264.77 276.693 264.77 276.096V269.44H267.202V275.44C267.202 275.696 267.255 275.877 267.362 275.984C267.468 276.091 267.644 276.144 267.89 276.144H268.45V278H266.594ZM272.778 278.24C271.733 278.24 270.933 277.952 270.378 277.376C269.834 276.789 269.562 275.995 269.562 274.992V273.152H271.994V274.848C271.994 275.36 272.117 275.739 272.362 275.984C272.618 276.229 273.013 276.352 273.546 276.352C273.962 276.352 274.346 276.251 274.698 276.048C275.061 275.845 275.343 275.563 275.546 275.2V273.536C275.546 272.693 275.338 272.075 274.922 271.68C274.517 271.285 273.781 271.088 272.714 271.088C272.17 271.088 271.573 271.141 270.922 271.248C270.282 271.355 269.786 271.493 269.434 271.664V269.792C269.85 269.621 270.394 269.483 271.066 269.376C271.749 269.259 272.399 269.2 273.018 269.2C274.767 269.2 276.026 269.557 276.794 270.272C277.573 270.987 277.962 272.043 277.962 273.44V278H275.658V277.04C275.338 277.424 274.922 277.723 274.41 277.936C273.909 278.139 273.365 278.24 272.778 278.24ZM270.556 266.848H277.964V268.384H270.556V266.848ZM282.973 278.24C282.279 278.24 281.682 278.096 281.181 277.808C280.679 277.52 280.295 277.125 280.029 276.624C279.773 276.123 279.645 275.563 279.645 274.944V269.44H282.077V274.8C282.077 275.835 282.626 276.352 283.725 276.352C284.173 276.352 284.557 276.261 284.877 276.08C285.207 275.888 285.495 275.595 285.741 275.2V269.44H288.157V278H285.853V277.04C285.479 277.435 285.037 277.733 284.525 277.936C284.023 278.139 283.506 278.24 282.973 278.24Z" fill="white"/>
</svg>
