<svg width="390" height="849" viewBox="0 0 390 849" fill="none" xmlns="http://www.w3.org/2000/svg">
<rect y="5" width="390" height="844" rx="32" fill="white"/>
<path fill-rule="evenodd" clip-rule="evenodd" d="M121 838.5C121 837.119 122.119 836 123.5 836H266.5C267.881 836 269 837.119 269 838.5C269 839.881 267.881 841 266.5 841H123.5C122.119 841 121 839.881 121 838.5Z" fill="#090A0A"/>
<path d="M54.0688 36V26.1304H53.9194L50.9395 28.2305V26.2217L54.0688 24.022H56.2021V36H54.0688ZM63.4219 36.2988C62.4701 36.2988 61.6538 36.0443 60.9731 35.5352C60.298 35.026 59.7778 34.3011 59.4126 33.3604C59.0474 32.4196 58.8647 31.3045 58.8647 30.0151V29.9985C58.8647 28.7091 59.0474 27.5968 59.4126 26.6616C59.7778 25.7209 60.298 24.9959 60.9731 24.4868C61.6538 23.9777 62.4701 23.7231 63.4219 23.7231C64.3737 23.7231 65.1899 23.9777 65.8706 24.4868C66.5513 24.9959 67.0742 25.7209 67.4395 26.6616C67.8047 27.5968 67.9873 28.7091 67.9873 29.9985V30.0151C67.9873 31.3045 67.8047 32.4196 67.4395 33.3604C67.0742 34.3011 66.5513 35.026 65.8706 35.5352C65.1899 36.0443 64.3737 36.2988 63.4219 36.2988ZM63.4219 34.564C63.931 34.564 64.3654 34.3813 64.7251 34.0161C65.0848 33.6509 65.3587 33.1307 65.5469 32.4556C65.7406 31.7749 65.8374 30.9614 65.8374 30.0151V29.9985C65.8374 29.0522 65.7406 28.2415 65.5469 27.5664C65.3587 26.8857 65.0848 26.3656 64.7251 26.0059C64.3654 25.6406 63.931 25.458 63.4219 25.458C62.9128 25.458 62.4784 25.6406 62.1187 26.0059C61.7645 26.3656 61.4906 26.8857 61.2969 27.5664C61.1087 28.2415 61.0146 29.0522 61.0146 29.9985V30.0151C61.0146 30.9614 61.1087 31.7749 61.2969 32.4556C61.4906 33.1307 61.7645 33.6509 62.1187 34.0161C62.4784 34.3813 62.9128 34.564 63.4219 34.564ZM71.2974 34.3896C70.9211 34.3896 70.6056 34.2651 70.3511 34.0161C70.1021 33.7616 69.9775 33.4517 69.9775 33.0864C69.9775 32.7157 70.1021 32.4058 70.3511 32.1567C70.6056 31.9022 70.9211 31.7749 71.2974 31.7749C71.6792 31.7749 71.9946 31.9022 72.2437 32.1567C72.4927 32.4058 72.6172 32.7157 72.6172 33.0864C72.6172 33.4517 72.4927 33.7616 72.2437 34.0161C71.9946 34.2651 71.6792 34.3896 71.2974 34.3896ZM71.2974 28.2305C70.9211 28.2305 70.6056 28.106 70.3511 27.8569C70.1021 27.6024 69.9775 27.2925 69.9775 26.9272C69.9775 26.5565 70.1021 26.2466 70.3511 25.9976C70.6056 25.743 70.9211 25.6157 71.2974 25.6157C71.6792 25.6157 71.9946 25.743 72.2437 25.9976C72.4927 26.2466 72.6172 26.5565 72.6172 26.9272C72.6172 27.2925 72.4927 27.6024 72.2437 27.8569C71.9946 28.106 71.6792 28.2305 71.2974 28.2305ZM79.1562 36.2988C78.2044 36.2988 77.3882 36.0443 76.7075 35.5352C76.0324 35.026 75.5122 34.3011 75.147 33.3604C74.7817 32.4196 74.5991 31.3045 74.5991 30.0151V29.9985C74.5991 28.7091 74.7817 27.5968 75.147 26.6616C75.5122 25.7209 76.0324 24.9959 76.7075 24.4868C77.3882 23.9777 78.2044 23.7231 79.1562 23.7231C80.1081 23.7231 80.9243 23.9777 81.605 24.4868C82.2856 24.9959 82.8086 25.7209 83.1738 26.6616C83.5391 27.5968 83.7217 28.7091 83.7217 29.9985V30.0151C83.7217 31.3045 83.5391 32.4196 83.1738 33.3604C82.8086 34.3011 82.2856 35.026 81.605 35.5352C80.9243 36.0443 80.1081 36.2988 79.1562 36.2988ZM79.1562 34.564C79.6654 34.564 80.0998 34.3813 80.4595 34.0161C80.8192 33.6509 81.0931 33.1307 81.2812 32.4556C81.4749 31.7749 81.5718 30.9614 81.5718 30.0151V29.9985C81.5718 29.0522 81.4749 28.2415 81.2812 27.5664C81.0931 26.8857 80.8192 26.3656 80.4595 26.0059C80.0998 25.6406 79.6654 25.458 79.1562 25.458C78.6471 25.458 78.2127 25.6406 77.853 26.0059C77.4989 26.3656 77.2249 26.8857 77.0312 27.5664C76.8431 28.2415 76.749 29.0522 76.749 29.9985V30.0151C76.749 30.9614 76.8431 31.7749 77.0312 32.4556C77.2249 33.1307 77.4989 33.6509 77.853 34.0161C78.2127 34.3813 78.6471 34.564 79.1562 34.564ZM89.9619 36.2988C89.0101 36.2988 88.1938 36.0443 87.5132 35.5352C86.8381 35.026 86.3179 34.3011 85.9526 33.3604C85.5874 32.4196 85.4048 31.3045 85.4048 30.0151V29.9985C85.4048 28.7091 85.5874 27.5968 85.9526 26.6616C86.3179 25.7209 86.8381 24.9959 87.5132 24.4868C88.1938 23.9777 89.0101 23.7231 89.9619 23.7231C90.9137 23.7231 91.73 23.9777 92.4106 24.4868C93.0913 24.9959 93.6143 25.7209 93.9795 26.6616C94.3447 27.5968 94.5273 28.7091 94.5273 29.9985V30.0151C94.5273 31.3045 94.3447 32.4196 93.9795 33.3604C93.6143 34.3011 93.0913 35.026 92.4106 35.5352C91.73 36.0443 90.9137 36.2988 89.9619 36.2988ZM89.9619 34.564C90.471 34.564 90.9054 34.3813 91.2651 34.0161C91.6248 33.6509 91.8988 33.1307 92.0869 32.4556C92.2806 31.7749 92.3774 30.9614 92.3774 30.0151V29.9985C92.3774 29.0522 92.2806 28.2415 92.0869 27.5664C91.8988 26.8857 91.6248 26.3656 91.2651 26.0059C90.9054 25.6406 90.471 25.458 89.9619 25.458C89.4528 25.458 89.0184 25.6406 88.6587 26.0059C88.3045 26.3656 88.0306 26.8857 87.8369 27.5664C87.6488 28.2415 87.5547 29.0522 87.5547 29.9985V30.0151C87.5547 30.9614 87.6488 31.7749 87.8369 32.4556C88.0306 33.1307 88.3045 33.6509 88.6587 34.0161C89.0184 34.3813 89.4528 34.564 89.9619 34.564Z" fill="black"/>
<path d="M288.333 31C288.977 31 289.5 31.5037 289.5 32.125V34.375C289.5 34.9963 288.977 35.5 288.333 35.5H287.167C286.523 35.5 286 34.9963 286 34.375V32.125C286 31.5037 286.523 31 287.167 31H288.333ZM293.823 28.75C294.468 28.75 294.99 29.2537 294.99 29.875V34.375C294.99 34.9963 294.468 35.5 293.823 35.5H292.657C292.013 35.5 291.49 34.9963 291.49 34.375V29.875C291.49 29.2537 292.013 28.75 292.657 28.75H293.823ZM299.313 26.125C299.958 26.125 300.48 26.6287 300.48 27.25V34.375C300.48 34.9963 299.958 35.5 299.313 35.5H298.147C297.503 35.5 296.98 34.9963 296.98 34.375V27.25C296.981 26.6287 297.503 26.125 298.147 26.125H299.313ZM304.804 23.5C305.448 23.5 305.971 24.0037 305.971 24.625V34.375C305.971 34.9963 305.448 35.5 304.804 35.5H303.638C302.993 35.5 302.471 34.9963 302.471 34.375V24.625C302.471 24.0037 302.993 23.5 303.638 23.5H304.804Z" fill="black"/>
<path d="M318.512 32.8262C319.932 31.5964 322.011 31.5964 323.431 32.8262C323.502 32.8924 323.544 32.9855 323.546 33.084C323.548 33.1826 323.51 33.2777 323.441 33.3467L321.218 35.6446C321.153 35.7121 321.063 35.7501 320.971 35.7501C320.878 35.7499 320.79 35.7119 320.725 35.6446L318.501 33.3467C318.432 33.2776 318.394 33.1826 318.396 33.084C318.399 32.9855 318.44 32.8923 318.512 32.8262ZM315.545 29.7608C318.604 26.8467 323.341 26.8467 326.4 29.7608C326.469 29.829 326.509 29.9225 326.51 30.0206C326.511 30.1188 326.473 30.2135 326.405 30.2833L325.12 31.6133C324.988 31.7491 324.774 31.7524 324.638 31.6202C323.633 30.6886 322.326 30.1728 320.971 30.1729C319.617 30.1736 318.311 30.6895 317.308 31.6202C317.172 31.7524 316.958 31.7491 316.825 31.6133L315.54 30.2833C315.472 30.2136 315.435 30.1189 315.436 30.0206C315.437 29.9224 315.476 29.829 315.545 29.7608ZM312.578 26.7032C317.27 22.0989 324.671 22.099 329.363 26.7032C329.431 26.7716 329.47 26.8654 329.471 26.963C329.471 27.0605 329.433 27.1545 329.366 27.2237L328.08 28.5538C327.947 28.6901 327.732 28.691 327.598 28.5567C325.81 26.8164 323.437 25.8459 320.971 25.8458C318.504 25.8459 316.131 26.8163 314.344 28.5567C314.209 28.6913 313.994 28.6904 313.861 28.5538L312.574 27.2237C312.507 27.1545 312.47 27.0605 312.471 26.963C312.471 26.8654 312.51 26.7715 312.578 26.7032Z" fill="black"/>
<rect opacity="0.4" x="336.471" y="23.5" width="24" height="12" rx="3.5" stroke="black"/>
<path opacity="0.5" d="M361.971 27.5V31.5C362.777 31.1612 363.301 30.3731 363.301 29.5C363.301 28.6269 362.777 27.8388 361.971 27.5Z" fill="black"/>
<rect x="337.971" y="25" width="17" height="9" rx="2" fill="black"/>
<path d="M42.8095 99.5268C42.068 100.323 40.8068 100.323 40.0652 99.5268L28.2697 86.8632C27.5544 86.0952 27.5544 84.9048 28.2697 84.1368L40.0652 71.4732C40.8068 70.677 42.068 70.677 42.8095 71.4732C43.4802 72.1932 43.4802 73.3093 42.8095 74.0293L33.395 84.1368C32.6796 84.9048 32.6796 86.0952 33.395 86.8632L42.8095 96.9707C43.4802 97.6907 43.4802 98.8068 42.8095 99.5268Z" fill="#535353"/>
<path d="M123.04 93.3C122.253 93.3 121.453 93.22 120.64 93.06C119.84 92.9133 119.207 92.6867 118.74 92.38V90.06C119.327 90.4067 119.98 90.6733 120.7 90.86C121.433 91.0467 122.093 91.14 122.68 91.14C123.387 91.14 123.9 91.0733 124.22 90.94C124.553 90.7933 124.72 90.54 124.72 90.18C124.72 89.86 124.56 89.6133 124.24 89.44C123.933 89.2667 123.353 89.0467 122.5 88.78L122 88.62C120.853 88.26 120.007 87.8267 119.46 87.32C118.913 86.8133 118.64 86.12 118.64 85.24C118.64 84.2133 119.053 83.42 119.88 82.86C120.707 82.2867 121.82 82 123.22 82C123.98 82 124.713 82.08 125.42 82.24C126.127 82.4 126.693 82.6067 127.12 82.86V85.24C126.693 84.9467 126.16 84.7133 125.52 84.54C124.893 84.3533 124.273 84.26 123.66 84.26C122.367 84.26 121.72 84.5867 121.72 85.24C121.72 85.56 121.873 85.8067 122.18 85.98C122.487 86.1533 123.033 86.36 123.82 86.6L124.54 86.82C125.38 87.0867 126.033 87.38 126.5 87.7C126.98 88.02 127.313 88.38 127.5 88.78C127.687 89.18 127.78 89.6667 127.78 90.24C127.78 91.16 127.38 91.9 126.58 92.46C125.793 93.02 124.613 93.3 123.04 93.3ZM132.69 86.34C132.69 85.6467 132.543 85.1467 132.25 84.84C131.956 84.52 131.443 84.36 130.71 84.36C130.003 84.36 129.29 84.54 128.57 84.9V82.6C128.89 82.44 129.316 82.3 129.85 82.18C130.396 82.06 130.923 82 131.43 82C132.83 82 133.896 82.3733 134.63 83.12C135.363 83.8667 135.73 84.9467 135.73 86.36V93H132.69V86.34ZM142.91 93.3C141.243 93.3 139.91 93 138.91 92.4C137.91 91.7867 137.41 90.9133 137.41 89.78C137.41 89.26 137.55 88.7933 137.83 88.38C138.123 87.9533 138.51 87.6467 138.99 87.46C138.55 87.2333 138.19 86.9067 137.91 86.48C137.643 86.0533 137.51 85.5867 137.51 85.08C137.51 84.1467 137.836 83.4 138.49 82.84C139.156 82.28 140.116 82 141.37 82C141.756 82 142.136 82.0267 142.51 82.08C142.896 82.1333 143.19 82.1933 143.39 82.26V84.54C143.203 84.46 142.976 84.3933 142.71 84.34C142.456 84.2867 142.223 84.26 142.01 84.26C141.076 84.26 140.61 84.6067 140.61 85.3C140.61 85.66 140.723 85.9333 140.95 86.12C141.19 86.2933 141.556 86.38 142.05 86.38H143.39V88.52H142.05C141.036 88.52 140.53 88.92 140.53 89.72C140.53 90.1467 140.73 90.48 141.13 90.72C141.543 90.9467 142.136 91.06 142.91 91.06C143.843 91.06 144.523 90.8733 144.95 90.5C145.39 90.1133 145.61 89.54 145.61 88.78V82.28H148.65V88.76C148.65 89.52 148.456 90.2467 148.07 90.94C147.683 91.62 147.063 92.1867 146.21 92.64C145.356 93.08 144.256 93.3 142.91 93.3ZM155.659 93.3C154.606 93.3 153.686 93.1333 152.899 92.8C152.113 92.4667 151.513 92 151.099 91.4C150.686 90.8 150.479 90.12 150.479 89.36V88.86C150.479 88.38 150.573 87.9467 150.759 87.56C150.946 87.1733 151.206 86.74 151.539 86.26C151.753 85.9667 151.906 85.7333 151.999 85.56C152.093 85.3733 152.139 85.2067 152.139 85.06C152.139 84.6867 151.913 84.5 151.459 84.5H150.339V82.3H153.239C153.839 82.3 154.319 82.4733 154.679 82.82C155.039 83.1667 155.219 83.62 155.219 84.18C155.219 84.58 155.146 84.9533 154.999 85.3C154.853 85.6333 154.633 86.02 154.339 86.46C154.059 86.9 153.846 87.2733 153.699 87.58C153.566 87.8867 153.499 88.22 153.499 88.58V89C153.499 89.6267 153.686 90.1067 154.059 90.44C154.433 90.7733 154.966 90.94 155.659 90.94C156.393 90.94 156.946 90.74 157.319 90.34C157.706 89.9267 157.899 89.3333 157.899 88.56C157.899 86.9333 157.266 86.12 155.999 86.12V84.66L157.939 82H161.159L158.979 84.98C159.686 85.34 160.186 85.8133 160.479 86.4C160.786 86.9733 160.939 87.7067 160.939 88.6C160.939 89.52 160.726 90.3333 160.299 91.04C159.886 91.7467 159.279 92.3 158.479 92.7C157.679 93.1 156.739 93.3 155.659 93.3ZM151.548 79.06H155.268V76.94H157.368V79.06H158.708V76.94H160.788V80.98H151.548V79.06ZM158.048 72.5H160.768V75.32H158.048V72.5ZM167.268 93.3C166.375 93.3 165.495 93.2067 164.628 93.02C163.761 92.8467 163.041 92.6 162.468 92.28V86.66H167.528V88.88H165.448V90.6C165.861 90.8267 166.468 90.94 167.268 90.94C169.388 90.94 170.448 89.8333 170.448 87.62C170.448 86.4867 170.141 85.66 169.528 85.14C168.915 84.62 167.881 84.36 166.428 84.36C165.761 84.36 165.075 84.4333 164.368 84.58C163.675 84.7133 163.088 84.9067 162.608 85.16V82.8C163.155 82.5467 163.815 82.3533 164.588 82.22C165.361 82.0733 166.168 82 167.008 82C169.155 82 170.781 82.4933 171.888 83.48C173.008 84.4533 173.568 85.8333 173.568 87.62C173.568 89.38 173.021 90.7667 171.928 91.78C170.835 92.7933 169.281 93.3 167.268 93.3ZM175.251 84.76C175.251 83.9733 175.464 83.3667 175.891 82.94C176.318 82.5133 176.924 82.3 177.711 82.3H179.871V84.64H179.151C178.831 84.64 178.604 84.7067 178.471 84.84C178.338 84.9733 178.271 85.2133 178.271 85.56V89.04L180.291 85.96H181.351L183.371 89.04V82.3H186.371V93H183.651L180.811 88.68L177.971 93H175.251V84.76ZM183.474 98.6C182.487 98.6 181.727 98.4067 181.194 98.02C180.647 97.6333 180.374 97.12 180.374 96.48V96.12C180.374 95.9467 180.347 95.8267 180.294 95.76C180.227 95.6933 180.114 95.66 179.954 95.66H179.294V93.94H181.554C181.954 93.94 182.234 94.0267 182.394 94.2C182.54 94.3867 182.614 94.6733 182.614 95.06V96.16C182.614 96.64 182.867 96.88 183.374 96.88C183.867 96.88 184.114 96.64 184.114 96.16V93.94H186.354V96.4C186.354 97.04 186.107 97.5667 185.614 97.98C185.107 98.3933 184.394 98.6 183.474 98.6ZM181.494 79.7C181.494 79.5533 181.467 79.4533 181.414 79.4C181.347 79.3333 181.24 79.3 181.094 79.3H180.154V77.24H182.034C182.527 77.24 182.887 77.3533 183.114 77.58C183.327 77.8067 183.434 78.0933 183.434 78.44V79.04H187.454V80.98H181.494V79.7ZM193.434 93.3C191.78 93.3 190.474 92.8467 189.514 91.94C188.554 91.02 188.074 89.6733 188.074 87.9C188.074 86.6867 188.247 85.64 188.594 84.76C188.94 83.8667 189.427 83.1867 190.054 82.72C190.694 82.24 191.427 82 192.254 82C192.747 82 193.174 82.0933 193.534 82.28C193.907 82.4667 194.207 82.7267 194.434 83.06C194.687 82.7 195.034 82.4333 195.474 82.26C195.927 82.0867 196.434 82 196.994 82C198.007 82 198.794 82.3133 199.354 82.94C199.914 83.5533 200.194 84.3667 200.194 85.38V93H197.174V85.68C197.174 85.2267 197.1 84.8933 196.954 84.68C196.82 84.4667 196.587 84.36 196.254 84.36C195.667 84.36 195.3 84.72 195.154 85.44H193.734C193.64 84.72 193.327 84.36 192.794 84.36C192.314 84.36 191.927 84.66 191.634 85.26C191.34 85.86 191.194 86.74 191.194 87.9C191.194 88.94 191.414 89.7067 191.854 90.2C192.307 90.6933 193.02 90.94 193.994 90.94C194.5 90.94 194.954 90.8667 195.354 90.72V93.04C194.834 93.2133 194.194 93.3 193.434 93.3ZM190.942 79.06H200.202V80.98H190.942V79.06ZM207.262 93.3C205.608 93.3 204.302 92.84 203.342 91.92C202.382 91 201.902 89.6533 201.902 87.88C201.902 86.0267 202.455 84.5867 203.562 83.56C204.668 82.52 206.195 82 208.142 82C210.155 82 211.635 82.4667 212.582 83.4C213.542 84.3333 214.022 85.56 214.022 87.08V93H211.002V87.06C211.002 86.18 210.775 85.5133 210.322 85.06C209.882 84.5933 209.155 84.36 208.142 84.36C207.182 84.36 206.422 84.66 205.862 85.26C205.302 85.86 205.022 86.7333 205.022 87.88C205.022 88.9333 205.248 89.7067 205.702 90.2C206.168 90.6933 206.875 90.94 207.822 90.94C208.328 90.94 208.782 90.8667 209.182 90.72V93.04C208.662 93.2133 208.022 93.3 207.262 93.3ZM221.09 93.3C219.437 93.3 218.13 92.8467 217.17 91.94C216.21 91.02 215.73 89.6733 215.73 87.9C215.73 86.6867 215.903 85.64 216.25 84.76C216.597 83.8667 217.083 83.1867 217.71 82.72C218.35 82.24 219.083 82 219.91 82C220.403 82 220.83 82.0933 221.19 82.28C221.563 82.4667 221.863 82.7267 222.09 83.06C222.343 82.7 222.69 82.4333 223.13 82.26C223.583 82.0867 224.09 82 224.65 82C225.663 82 226.45 82.3133 227.01 82.94C227.57 83.5533 227.85 84.3667 227.85 85.38V93H224.83V85.68C224.83 85.2267 224.757 84.8933 224.61 84.68C224.477 84.4667 224.243 84.36 223.91 84.36C223.323 84.36 222.957 84.72 222.81 85.44H221.39C221.297 84.72 220.983 84.36 220.45 84.36C219.97 84.36 219.583 84.66 219.29 85.26C218.997 85.86 218.85 86.74 218.85 87.9C218.85 88.94 219.07 89.7067 219.51 90.2C219.963 90.6933 220.677 90.94 221.65 90.94C222.157 90.94 222.61 90.8667 223.01 90.72V93.04C222.49 93.2133 221.85 93.3 221.09 93.3ZM224.838 77.42H227.878V80.98H224.838V77.42ZM234.358 93.3C233.465 93.3 232.585 93.2067 231.718 93.02C230.851 92.8467 230.131 92.6 229.558 92.28V86.66H234.618V88.88H232.538V90.6C232.951 90.8267 233.558 90.94 234.358 90.94C236.478 90.94 237.538 89.8333 237.538 87.62C237.538 86.4867 237.231 85.66 236.618 85.14C236.005 84.62 234.971 84.36 233.518 84.36C232.851 84.36 232.165 84.4333 231.458 84.58C230.765 84.7133 230.178 84.9067 229.698 85.16V82.8C230.245 82.5467 230.905 82.3533 231.678 82.22C232.451 82.0733 233.258 82 234.098 82C236.245 82 237.871 82.4933 238.978 83.48C240.098 84.4533 240.658 85.8333 240.658 87.62C240.658 89.38 240.111 90.7667 239.018 91.78C237.925 92.7933 236.371 93.3 234.358 93.3ZM246.121 93.3C244.814 93.3 243.814 92.94 243.121 92.22C242.441 91.4867 242.101 90.4933 242.101 89.24V86.94H245.141V89.06C245.141 89.7 245.294 90.1733 245.601 90.48C245.921 90.7867 246.414 90.94 247.081 90.94C247.601 90.94 248.081 90.8133 248.521 90.56C248.974 90.3067 249.327 89.9533 249.581 89.5V87.42C249.581 86.3667 249.321 85.5933 248.801 85.1C248.294 84.6067 247.374 84.36 246.041 84.36C245.361 84.36 244.614 84.4267 243.801 84.56C243.001 84.6933 242.381 84.8667 241.941 85.08V82.74C242.461 82.5267 243.141 82.3533 243.981 82.22C244.834 82.0733 245.647 82 246.421 82C248.607 82 250.181 82.4467 251.141 83.34C252.114 84.2333 252.601 85.5533 252.601 87.3V93H249.721V91.8C249.321 92.28 248.801 92.6533 248.161 92.92C247.534 93.1733 246.854 93.3 246.121 93.3ZM249.984 96.52C249.984 96.28 249.937 96.1067 249.844 96C249.751 95.9067 249.584 95.86 249.344 95.86H248.684V93.94H250.784C251.504 93.94 252.004 94.0867 252.284 94.38C252.551 94.6733 252.684 95.18 252.684 95.9V98.48H249.984V96.52ZM255.264 86.62L254.264 84.92C255.824 82.9733 257.831 82 260.284 82C262.004 82 263.324 82.38 264.244 83.14C265.177 83.9 265.644 84.96 265.644 86.32V93H262.604V86.56C262.604 85.0933 261.831 84.36 260.284 84.36C259.711 84.36 259.197 84.44 258.744 84.6C258.304 84.76 257.891 85.02 257.504 85.38L258.284 86.66V93H255.264V86.62ZM270.011 93C269.278 93 268.711 92.7933 268.311 92.38C267.925 91.9533 267.731 91.3667 267.731 90.62V82.3H270.771V89.8C270.771 90.12 270.838 90.3467 270.971 90.48C271.105 90.6133 271.325 90.68 271.631 90.68H272.331V93H270.011ZM277.742 93.3C276.435 93.3 275.435 92.94 274.742 92.22C274.062 91.4867 273.722 90.4933 273.722 89.24V86.94H276.762V89.06C276.762 89.7 276.915 90.1733 277.222 90.48C277.542 90.7867 278.035 90.94 278.702 90.94C279.222 90.94 279.702 90.8133 280.142 90.56C280.595 90.3067 280.949 89.9533 281.202 89.5V87.42C281.202 86.3667 280.942 85.5933 280.422 85.1C279.915 84.6067 278.995 84.36 277.662 84.36C276.982 84.36 276.235 84.4267 275.422 84.56C274.622 84.6933 274.002 84.8667 273.562 85.08V82.74C274.082 82.5267 274.762 82.3533 275.602 82.22C276.455 82.0733 277.269 82 278.042 82C280.229 82 281.802 82.4467 282.762 83.34C283.735 84.2333 284.222 85.5533 284.222 87.3V93H281.342V91.8C280.942 92.28 280.422 92.6533 279.782 92.92C279.155 93.1733 278.475 93.3 277.742 93.3ZM274.965 79.06H284.225V80.98H274.965V79.06ZM290.485 93.3C289.618 93.3 288.872 93.12 288.245 92.76C287.618 92.4 287.138 91.9067 286.805 91.28C286.485 90.6533 286.325 89.9533 286.325 89.18V82.3H289.365V89C289.365 90.2933 290.052 90.94 291.425 90.94C291.985 90.94 292.465 90.8267 292.865 90.6C293.278 90.36 293.638 89.9933 293.945 89.5V82.3H296.965V93H294.085V91.8C293.618 92.2933 293.065 92.6667 292.425 92.92C291.798 93.1733 291.152 93.3 290.485 93.3Z" fill="black"/>
<rect x="39" y="167" width="330" height="64" rx="10" fill="#F8F8F8"/>
<rect x="39" y="238" width="330" height="64" rx="10" fill="#F8F8F8"/>
<rect x="39" y="314" width="330" height="64" rx="10" fill="#F8F8F8"/>
<path d="M100.91 186.366C100.91 185.395 101.227 184.644 101.862 184.112C102.497 183.571 103.369 183.3 104.48 183.3C105.199 183.3 105.815 183.412 106.328 183.636L106.93 182.95H108.512L107.308 184.322C107.793 184.854 108.036 185.535 108.036 186.366V191H106.608V186.324C106.608 185.689 106.421 185.218 106.048 184.91C105.675 184.593 105.152 184.434 104.48 184.434C103.799 184.434 103.271 184.593 102.898 184.91C102.525 185.218 102.338 185.689 102.338 186.324V187.752C102.459 187.528 102.651 187.351 102.912 187.22C103.173 187.08 103.481 187.01 103.836 187.01H104.956V188.186H103.724C103.332 188.186 103.001 188.326 102.73 188.606C102.469 188.877 102.338 189.189 102.338 189.544V191H100.91V186.366ZM106.35 194.794C105.771 194.794 105.323 194.673 105.006 194.43C104.679 194.187 104.516 193.861 104.516 193.45V193.072C104.516 192.941 104.497 192.853 104.46 192.806C104.423 192.769 104.343 192.75 104.222 192.75H103.746V191.798H104.978C105.23 191.798 105.403 191.854 105.496 191.966C105.589 192.078 105.636 192.26 105.636 192.512V193.31C105.636 193.721 105.86 193.926 106.308 193.926C106.747 193.926 106.966 193.721 106.966 193.31V191.798H108.086V193.408C108.086 193.819 107.937 194.15 107.638 194.402C107.33 194.663 106.901 194.794 106.35 194.794ZM112.804 191.21C111.889 191.21 111.175 190.953 110.662 190.44C110.158 189.927 109.906 189.264 109.906 188.452V183.51H111.334V188.396C111.334 188.956 111.488 189.381 111.796 189.67C112.113 189.95 112.575 190.09 113.182 190.09C114.143 190.09 114.899 189.661 115.45 188.802V183.51H116.878V191H115.492V189.992C114.792 190.804 113.896 191.21 112.804 191.21ZM121.973 191.21C120.89 191.21 120.027 191.005 119.383 190.594C118.739 190.183 118.417 189.586 118.417 188.802C118.417 188.391 118.529 188.032 118.753 187.724C118.986 187.407 119.294 187.187 119.677 187.066C119.313 186.907 119.019 186.679 118.795 186.38C118.58 186.081 118.473 185.736 118.473 185.344C118.473 184.728 118.678 184.233 119.089 183.86C119.5 183.487 120.102 183.3 120.895 183.3C121.119 183.3 121.348 183.319 121.581 183.356C121.814 183.384 122.001 183.417 122.141 183.454V184.574C122.02 184.527 121.861 184.495 121.665 184.476C121.478 184.448 121.306 184.434 121.147 184.434C120.746 184.434 120.438 184.523 120.223 184.7C120.018 184.868 119.915 185.111 119.915 185.428C119.915 185.764 120.027 186.021 120.251 186.198C120.475 186.375 120.806 186.464 121.245 186.464H122.141V187.64H121.259C120.811 187.64 120.466 187.738 120.223 187.934C119.98 188.121 119.859 188.41 119.859 188.802C119.859 189.213 120.046 189.53 120.419 189.754C120.802 189.978 121.32 190.09 121.973 190.09C123.513 190.09 124.283 189.437 124.283 188.13V183.51H125.711V188.102C125.711 188.625 125.59 189.124 125.347 189.6C125.104 190.067 124.703 190.454 124.143 190.762C123.592 191.061 122.869 191.21 121.973 191.21ZM122.363 181.606C122.363 180.878 122.76 180.514 123.553 180.514H126.647V181.452H124.113C123.945 181.452 123.828 181.485 123.763 181.55C123.698 181.615 123.665 181.732 123.665 181.9V182.404H122.363V181.606ZM130.203 191.21C129.307 191.21 128.621 190.972 128.145 190.496C127.678 190.011 127.445 189.348 127.445 188.508V186.716H128.873V188.424C128.873 188.984 129.013 189.404 129.293 189.684C129.582 189.955 130.021 190.09 130.609 190.09C131.561 190.09 132.289 189.661 132.793 188.802V186.954C132.793 186.086 132.592 185.451 132.191 185.05C131.79 184.639 131.094 184.434 130.105 184.434C129.601 184.434 129.083 184.481 128.551 184.574C128.019 184.658 127.585 184.775 127.249 184.924V183.804C127.594 183.655 128.042 183.533 128.593 183.44C129.153 183.347 129.699 183.3 130.231 183.3C131.612 183.3 132.62 183.603 133.255 184.21C133.899 184.807 134.221 185.703 134.221 186.898V191H132.849V189.992C132.541 190.403 132.154 190.711 131.687 190.916C131.23 191.112 130.735 191.21 130.203 191.21ZM132.925 193.254C132.925 193.086 132.897 192.969 132.841 192.904C132.775 192.848 132.654 192.82 132.477 192.82H132.015V191.798H133.163C133.583 191.798 133.867 191.882 134.017 192.05C134.157 192.218 134.227 192.517 134.227 192.946V194.682H132.925V193.254ZM136.467 186.338L135.767 185.204C136.261 184.579 136.826 184.107 137.461 183.79C138.095 183.463 138.847 183.3 139.715 183.3C140.835 183.3 141.693 183.557 142.291 184.07C142.888 184.574 143.187 185.283 143.187 186.198V191H141.759V186.31C141.759 185.666 141.586 185.195 141.241 184.896C140.905 184.588 140.396 184.434 139.715 184.434C139.201 184.434 138.749 184.513 138.357 184.672C137.965 184.821 137.61 185.064 137.293 185.4L137.895 186.338V191H136.467V186.338ZM146.402 191C145.944 191 145.594 190.874 145.352 190.622C145.118 190.361 145.002 189.997 145.002 189.53V183.51H146.43V189.138C146.43 189.39 146.481 189.567 146.584 189.67C146.686 189.763 146.864 189.81 147.116 189.81H147.62V191H146.402ZM151.832 191.21C150.936 191.21 150.25 190.972 149.774 190.496C149.307 190.011 149.074 189.348 149.074 188.508V186.716H150.502V188.424C150.502 188.984 150.642 189.404 150.922 189.684C151.211 189.955 151.65 190.09 152.238 190.09C153.19 190.09 153.918 189.661 154.422 188.802V186.954C154.422 186.086 154.221 185.451 153.82 185.05C153.419 184.639 152.723 184.434 151.734 184.434C151.23 184.434 150.712 184.481 150.18 184.574C149.648 184.658 149.214 184.775 148.878 184.924V183.804C149.223 183.655 149.671 183.533 150.222 183.44C150.782 183.347 151.328 183.3 151.86 183.3C153.241 183.3 154.249 183.603 154.884 184.21C155.528 184.807 155.85 185.703 155.85 186.898V191H154.478V189.992C154.17 190.403 153.783 190.711 153.316 190.916C152.859 191.112 152.364 191.21 151.832 191.21ZM149.794 181.438H155.842V182.404H149.794V181.438ZM160.574 191.21C159.659 191.21 158.945 190.953 158.432 190.44C157.928 189.927 157.676 189.264 157.676 188.452V183.51H159.104V188.396C159.104 188.956 159.258 189.381 159.566 189.67C159.883 189.95 160.345 190.09 160.952 190.09C161.913 190.09 162.669 189.661 163.22 188.802V183.51H164.648V191H163.262V189.992C162.562 190.804 161.666 191.21 160.574 191.21Z" fill="#4E5256"/>
<path d="M23.744 191.754L21.63 193.28V191.922L23.94 190.214H25.172V200H23.744V191.754Z" fill="#4E5256"/>
<path d="M21.63 272.062L23.744 270.032C23.9307 269.845 24.192 269.603 24.528 269.304C25.06 268.819 25.466 268.427 25.746 268.128C26.026 267.829 26.2547 267.512 26.432 267.176C26.6093 266.831 26.698 266.462 26.698 266.07C26.698 265.491 26.53 265.053 26.194 264.754C25.858 264.446 25.368 264.292 24.724 264.292C24.2853 264.292 23.8327 264.371 23.366 264.53C22.9087 264.689 22.4793 264.922 22.078 265.23V263.858C22.862 263.289 23.8187 263.004 24.948 263.004C25.956 263.004 26.74 263.275 27.3 263.816C27.86 264.348 28.14 265.076 28.14 266C28.14 266.448 28.042 266.877 27.846 267.288C27.6593 267.699 27.3933 268.105 27.048 268.506C26.7027 268.898 26.236 269.379 25.648 269.948L23.744 271.81H28.504V273H21.63V272.062Z" fill="#4E5256"/>
<path d="M100.91 254.51H102.338V257.814L105.964 254.51H107.63L105.586 256.372C106.351 256.568 106.883 256.881 107.182 257.31C107.49 257.739 107.644 258.313 107.644 259.032V262H106.216V259.116C106.216 258.556 106.099 258.131 105.866 257.842C105.642 257.553 105.25 257.347 104.69 257.226L102.338 259.368V262H100.91V254.51ZM111.905 262.21C111.074 262.21 110.411 262.005 109.917 261.594C109.431 261.174 109.189 260.581 109.189 259.816C109.189 259.06 109.459 258.458 110.001 258.01C110.551 257.562 111.293 257.338 112.227 257.338C113.151 257.338 113.981 257.511 114.719 257.856V257.282C114.719 256.638 114.541 256.171 114.187 255.882C113.841 255.583 113.263 255.434 112.451 255.434C112.003 255.434 111.564 255.476 111.135 255.56C110.705 255.644 110.332 255.761 110.015 255.91V254.79C110.304 254.65 110.696 254.533 111.191 254.44C111.695 254.347 112.185 254.3 112.661 254.3C113.827 254.3 114.7 254.566 115.279 255.098C115.857 255.63 116.147 256.349 116.147 257.254V262H114.719V258.99C114.037 258.645 113.258 258.472 112.381 258.472C111.774 258.472 111.326 258.584 111.037 258.808C110.757 259.032 110.617 259.368 110.617 259.816C110.617 260.665 111.163 261.09 112.255 261.09C112.591 261.09 112.885 261.043 113.137 260.95V262.056C112.801 262.159 112.39 262.21 111.905 262.21ZM120.605 257.156C120.605 256.559 120.483 256.125 120.241 255.854C119.998 255.574 119.569 255.434 118.953 255.434C118.355 255.434 117.795 255.565 117.273 255.826V254.706C117.497 254.594 117.786 254.501 118.141 254.426C118.505 254.342 118.864 254.3 119.219 254.3C120.161 254.3 120.866 254.557 121.333 255.07C121.799 255.574 122.033 256.302 122.033 257.254V262H120.605V257.156ZM126.749 262.21C125.835 262.21 125.121 261.953 124.607 261.44C124.103 260.927 123.851 260.264 123.851 259.452V254.51H125.279V259.396C125.279 259.956 125.433 260.381 125.741 260.67C126.059 260.95 126.521 261.09 127.127 261.09C128.089 261.09 128.845 260.661 129.395 259.802V254.51H130.823V262H129.437V260.992C128.737 261.804 127.841 262.21 126.749 262.21Z" fill="#4E5256"/>
<path d="M109.842 339.372C109.347 339.372 108.853 339.316 108.358 339.204C107.863 339.101 107.471 338.961 107.182 338.784V337.594C107.966 338.033 108.853 338.252 109.842 338.252C110.505 338.252 111.027 338.163 111.41 337.986C111.793 337.809 111.984 337.543 111.984 337.188C111.984 336.908 111.895 336.675 111.718 336.488C111.466 336.647 111.158 336.773 110.794 336.866C110.439 336.959 110.066 337.006 109.674 337.006C108.601 337.006 107.775 336.731 107.196 336.18C106.627 335.629 106.342 334.887 106.342 333.954V333.31C106.342 332.666 106.183 332.195 105.866 331.896C105.558 331.588 105.082 331.434 104.438 331.434C103.953 331.434 103.528 331.509 103.164 331.658C102.809 331.807 102.473 332.055 102.156 332.4L102.758 333.338V336.11C102.758 336.371 102.809 336.553 102.912 336.656C103.024 336.759 103.206 336.81 103.458 336.81H104.242V338H102.758C102.291 338 101.937 337.869 101.694 337.608C101.451 337.347 101.33 336.987 101.33 336.53V333.338L100.63 332.204C101.125 331.579 101.675 331.107 102.282 330.79C102.889 330.463 103.607 330.3 104.438 330.3C105.521 330.3 106.342 330.557 106.902 331.07C107.471 331.574 107.756 332.283 107.756 333.198V333.898C107.756 334.542 107.905 335.037 108.204 335.382C108.503 335.718 108.993 335.886 109.674 335.886C110.355 335.886 110.864 335.709 111.2 335.354C111.545 334.99 111.718 334.495 111.718 333.87V330.51H113.146V333.954C113.146 334.654 112.973 335.247 112.628 335.732C112.861 335.937 113.029 336.157 113.132 336.39C113.244 336.623 113.3 336.889 113.3 337.188C113.3 337.888 112.978 338.425 112.334 338.798C111.699 339.181 110.869 339.372 109.842 339.372ZM117.61 333.156C117.61 332.559 117.489 332.125 117.246 331.854C117.004 331.574 116.574 331.434 115.958 331.434C115.361 331.434 114.801 331.565 114.278 331.826V330.706C114.502 330.594 114.792 330.501 115.146 330.426C115.51 330.342 115.87 330.3 116.224 330.3C117.167 330.3 117.872 330.557 118.338 331.07C118.805 331.574 119.038 332.302 119.038 333.254V338H117.61V333.156ZM124.175 338.21C123.055 338.21 122.173 337.893 121.529 337.258C120.895 336.623 120.577 335.69 120.577 334.458C120.577 333.609 120.694 332.871 120.927 332.246C121.161 331.621 121.478 331.14 121.879 330.804C122.29 330.468 122.757 330.3 123.279 330.3C123.989 330.3 124.488 330.585 124.777 331.154C124.936 330.865 125.174 330.65 125.491 330.51C125.809 330.37 126.163 330.3 126.555 330.3C127.199 330.3 127.68 330.505 127.997 330.916C128.324 331.327 128.487 331.877 128.487 332.568V338H127.059V332.666C127.059 332.246 126.994 331.938 126.863 331.742C126.733 331.537 126.509 331.434 126.191 331.434C125.659 331.434 125.328 331.723 125.197 332.302H124.357C124.311 332.013 124.217 331.798 124.077 331.658C123.947 331.509 123.755 331.434 123.503 331.434C123.065 331.434 122.705 331.695 122.425 332.218C122.155 332.741 122.019 333.487 122.019 334.458C122.019 335.354 122.215 336.017 122.607 336.446C122.999 336.875 123.601 337.09 124.413 337.09C124.768 337.09 125.095 337.043 125.393 336.95V338.056C125.067 338.159 124.661 338.21 124.175 338.21ZM122.423 328.438H128.471V329.404H122.423V328.438Z" fill="#4E5256"/>
<path d="M40.008 139.884H41.422L42.15 142.88C43.0553 142.88 43.7787 142.637 44.32 142.152C44.8707 141.657 45.146 140.976 45.146 140.108C45.146 139.165 44.922 138.484 44.474 138.064C44.026 137.644 43.2887 137.434 42.262 137.434C41.7953 137.434 41.3193 137.481 40.834 137.574C40.358 137.658 39.9567 137.775 39.63 137.924V136.804C39.9753 136.645 40.3953 136.524 40.89 136.44C41.394 136.347 41.9073 136.3 42.43 136.3C43.7553 136.3 44.7773 136.617 45.496 137.252C46.224 137.887 46.588 138.839 46.588 140.108C46.588 140.845 46.4013 141.513 46.028 142.11C45.6547 142.698 45.146 143.16 44.502 143.496C43.8673 143.832 43.1673 144 42.402 144H41.016L40.008 139.884ZM43.6748 135.404C43.2735 135.404 42.9841 135.306 42.8068 135.11C42.6201 134.905 42.5268 134.601 42.5268 134.2V133.472H43.8148V134.032C43.8148 134.191 43.8475 134.298 43.9128 134.354C43.9688 134.41 44.0808 134.438 44.2488 134.438H47.5528V135.404H43.6748ZM51.4448 144.21C50.3248 144.21 49.4428 143.893 48.7988 143.258C48.1641 142.623 47.8468 141.69 47.8468 140.458C47.8468 139.599 48.0101 138.857 48.3368 138.232C48.6728 137.607 49.1488 137.131 49.7648 136.804C50.3808 136.468 51.1135 136.3 51.9628 136.3C53.2788 136.3 54.2401 136.613 54.8468 137.238C55.4535 137.854 55.7568 138.643 55.7568 139.604V144H54.3288V139.59C54.3288 138.153 53.5401 137.434 51.9628 137.434C51.1321 137.434 50.4788 137.695 50.0028 138.218C49.5268 138.741 49.2888 139.487 49.2888 140.458C49.2888 141.354 49.4895 142.017 49.8908 142.446C50.2921 142.875 50.8895 143.09 51.6828 143.09C52.0375 143.09 52.3641 143.043 52.6628 142.95V144.056C52.3361 144.159 51.9301 144.21 51.4448 144.21ZM60.0101 144.21C59.1794 144.21 58.5167 144.005 58.0221 143.594C57.5367 143.174 57.2941 142.581 57.2941 141.816C57.2941 141.06 57.5647 140.458 58.1061 140.01C58.6567 139.562 59.3987 139.338 60.3321 139.338C61.2561 139.338 62.0867 139.511 62.8241 139.856V139.282C62.8241 138.638 62.6467 138.171 62.2921 137.882C61.9467 137.583 61.3681 137.434 60.5561 137.434C60.1081 137.434 59.6694 137.476 59.2401 137.56C58.8107 137.644 58.4374 137.761 58.1201 137.91V136.79C58.4094 136.65 58.8014 136.533 59.2961 136.44C59.8001 136.347 60.2901 136.3 60.7661 136.3C61.9327 136.3 62.8054 136.566 63.3841 137.098C63.9627 137.63 64.2521 138.349 64.2521 139.254V144H62.8241V140.99C62.1427 140.645 61.3634 140.472 60.4861 140.472C59.8794 140.472 59.4314 140.584 59.1421 140.808C58.8621 141.032 58.7221 141.368 58.7221 141.816C58.7221 142.665 59.2681 143.09 60.3601 143.09C60.6961 143.09 60.9901 143.043 61.2421 142.95V144.056C60.9061 144.159 60.4954 144.21 60.0101 144.21ZM63.362 135.53C62.942 135.53 62.5826 135.381 62.284 135.082C61.976 134.783 61.822 134.424 61.822 134.004C61.822 133.575 61.976 133.211 62.284 132.912C62.5826 132.604 62.942 132.45 63.362 132.45C63.782 132.45 64.146 132.604 64.454 132.912C64.7526 133.211 64.902 133.575 64.902 134.004C64.902 134.424 64.7526 134.783 64.454 135.082C64.146 135.381 63.782 135.53 63.362 135.53ZM63.362 134.662C63.53 134.662 63.6793 134.597 63.81 134.466C63.9313 134.326 63.992 134.172 63.992 134.004C63.992 133.836 63.9313 133.687 63.81 133.556C63.6793 133.425 63.53 133.36 63.362 133.36C63.194 133.36 63.0493 133.425 62.928 133.556C62.7973 133.687 62.732 133.836 62.732 134.004C62.732 134.172 62.7973 134.326 62.928 134.466C63.0493 134.597 63.194 134.662 63.362 134.662ZM68.71 139.156C68.71 138.559 68.5886 138.125 68.346 137.854C68.1033 137.574 67.674 137.434 67.058 137.434C66.4606 137.434 65.9006 137.565 65.378 137.826V136.706C65.602 136.594 65.8913 136.501 66.246 136.426C66.61 136.342 66.9693 136.3 67.324 136.3C68.2666 136.3 68.9713 136.557 69.438 137.07C69.9046 137.574 70.138 138.302 70.138 139.254V144H68.71V139.156ZM75.2749 144.21C74.1549 144.21 73.2729 143.893 72.6289 143.258C71.9942 142.623 71.6769 141.69 71.6769 140.458C71.6769 139.599 71.8402 138.857 72.1669 138.232C72.5029 137.607 72.9789 137.131 73.5949 136.804C74.2109 136.468 74.9435 136.3 75.7929 136.3C77.1089 136.3 78.0702 136.613 78.6769 137.238C79.2835 137.854 79.5869 138.643 79.5869 139.604V144H78.1589V139.59C78.1589 138.153 77.3702 137.434 75.7929 137.434C74.9622 137.434 74.3089 137.695 73.8329 138.218C73.3569 138.741 73.1189 139.487 73.1189 140.458C73.1189 141.354 73.3195 142.017 73.7209 142.446C74.1222 142.875 74.7195 143.09 75.5129 143.09C75.8675 143.09 76.1942 143.043 76.4929 142.95V144.056C76.1662 144.159 75.7602 144.21 75.2749 144.21ZM76.9521 135.404C76.5508 135.404 76.2615 135.306 76.0841 135.11C75.8975 134.905 75.8041 134.601 75.8041 134.2V133.472H77.0921V134.032C77.0921 134.191 77.1248 134.298 77.1901 134.354C77.2461 134.41 77.3581 134.438 77.5261 134.438H80.8301V135.404H76.9521ZM85.0021 144.21C84.2741 144.21 83.6395 144.079 83.0981 143.818C82.5568 143.557 82.1368 143.193 81.8381 142.726C81.5488 142.25 81.4041 141.709 81.4041 141.102V136.51H82.8321V141.074C82.8321 141.699 83.0141 142.194 83.3781 142.558C83.7515 142.913 84.2928 143.09 85.0021 143.09C85.7021 143.09 86.2341 142.913 86.5981 142.558C86.9715 142.194 87.1581 141.699 87.1581 141.074V136.51H88.5861V141.102C88.5861 141.709 88.4368 142.25 88.1381 142.726C87.8488 143.193 87.4335 143.557 86.8921 143.818C86.3508 144.079 85.7208 144.21 85.0021 144.21ZM90.4002 138.036C90.4002 137.541 90.5309 137.163 90.7922 136.902C91.0536 136.641 91.4269 136.51 91.9122 136.51H93.0182V137.714H92.5142C92.2622 137.714 92.0802 137.77 91.9682 137.882C91.8656 137.985 91.8142 138.167 91.8142 138.428V141.914L93.6902 138.862H94.3062L96.1822 141.914V136.51H97.5962V144H96.3082L93.9982 140.234L91.6882 144H90.4002V138.036ZM95.854 147.794C95.2753 147.794 94.8273 147.673 94.51 147.43C94.1833 147.187 94.02 146.861 94.02 146.45V146.072C94.02 145.941 94.0013 145.853 93.964 145.806C93.9267 145.769 93.8473 145.75 93.726 145.75H93.25V144.798H94.482C94.734 144.798 94.9067 144.854 95 144.966C95.0933 145.078 95.14 145.26 95.14 145.512V146.31C95.14 146.721 95.364 146.926 95.812 146.926C96.2507 146.926 96.47 146.721 96.47 146.31V144.798H97.59V146.408C97.59 146.819 97.4407 147.15 97.142 147.402C96.834 147.663 96.4047 147.794 95.854 147.794ZM94.58 134.522C94.58 134.41 94.5613 134.331 94.524 134.284C94.4773 134.237 94.398 134.214 94.286 134.214H93.656V133.206H94.706C95.0047 133.206 95.224 133.281 95.364 133.43C95.4947 133.57 95.56 133.747 95.56 133.962V134.452H98.43V135.404H94.58V134.522ZM102.728 144.21C101.608 144.21 100.726 143.893 100.082 143.258C99.4473 142.623 99.13 141.69 99.13 140.458C99.13 139.609 99.2467 138.871 99.48 138.246C99.7133 137.621 100.031 137.14 100.432 136.804C100.843 136.468 101.309 136.3 101.832 136.3C102.541 136.3 103.041 136.585 103.33 137.154C103.489 136.865 103.727 136.65 104.044 136.51C104.361 136.37 104.716 136.3 105.108 136.3C105.752 136.3 106.233 136.505 106.55 136.916C106.877 137.327 107.04 137.877 107.04 138.568V144H105.612V138.666C105.612 138.246 105.547 137.938 105.416 137.742C105.285 137.537 105.061 137.434 104.744 137.434C104.212 137.434 103.881 137.723 103.75 138.302H102.91C102.863 138.013 102.77 137.798 102.63 137.658C102.499 137.509 102.308 137.434 102.056 137.434C101.617 137.434 101.258 137.695 100.978 138.218C100.707 138.741 100.572 139.487 100.572 140.458C100.572 141.354 100.768 142.017 101.16 142.446C101.552 142.875 102.154 143.09 102.966 143.09C103.321 143.09 103.647 143.043 103.946 142.95V144.056C103.619 144.159 103.213 144.21 102.728 144.21ZM100.975 134.438H107.023V135.404H100.975V134.438ZM112.175 144.21C111.055 144.21 110.173 143.893 109.529 143.258C108.895 142.623 108.577 141.69 108.577 140.458C108.577 139.599 108.741 138.857 109.067 138.232C109.403 137.607 109.879 137.131 110.495 136.804C111.111 136.468 111.844 136.3 112.693 136.3C114.009 136.3 114.971 136.613 115.577 137.238C116.184 137.854 116.487 138.643 116.487 139.604V144H115.059V139.59C115.059 138.153 114.271 137.434 112.693 137.434C111.863 137.434 111.209 137.695 110.733 138.218C110.257 138.741 110.019 139.487 110.019 140.458C110.019 141.354 110.22 142.017 110.621 142.446C111.023 142.875 111.62 143.09 112.413 143.09C112.768 143.09 113.095 143.043 113.393 142.95V144.056C113.067 144.159 112.661 144.21 112.175 144.21ZM121.623 144.21C120.503 144.21 119.621 143.893 118.977 143.258C118.342 142.623 118.025 141.69 118.025 140.458C118.025 139.609 118.141 138.871 118.375 138.246C118.608 137.621 118.925 137.14 119.327 136.804C119.737 136.468 120.204 136.3 120.727 136.3C121.436 136.3 121.935 136.585 122.225 137.154C122.383 136.865 122.621 136.65 122.939 136.51C123.256 136.37 123.611 136.3 124.003 136.3C124.647 136.3 125.127 136.505 125.445 136.916C125.771 137.327 125.935 137.877 125.935 138.568V144H124.507V138.666C124.507 138.246 124.441 137.938 124.311 137.742C124.18 137.537 123.956 137.434 123.639 137.434C123.107 137.434 122.775 137.723 122.645 138.302H121.805C121.758 138.013 121.665 137.798 121.525 137.658C121.394 137.509 121.203 137.434 120.951 137.434C120.512 137.434 120.153 137.695 119.873 138.218C119.602 138.741 119.467 139.487 119.467 140.458C119.467 141.354 119.663 142.017 120.055 142.446C120.447 142.875 121.049 143.09 121.861 143.09C122.215 143.09 122.542 143.043 122.841 142.95V144.056C122.514 144.159 122.108 144.21 121.623 144.21ZM124.546 133.066H125.96V135.404H124.546V133.066ZM130.524 144.21C129.945 144.21 129.385 144.14 128.844 144C128.302 143.869 127.845 143.683 127.472 143.44V139.716H130.58V140.864H128.9V142.726C129.301 142.969 129.842 143.09 130.524 143.09C131.42 143.09 132.101 142.843 132.568 142.348C133.044 141.853 133.282 141.135 133.282 140.192C133.282 139.249 133.039 138.554 132.554 138.106C132.078 137.658 131.294 137.434 130.202 137.434C129.707 137.434 129.222 137.485 128.746 137.588C128.27 137.681 127.868 137.835 127.542 138.05V136.916C127.906 136.711 128.335 136.557 128.83 136.454C129.324 136.351 129.856 136.3 130.426 136.3C131.826 136.3 132.894 136.641 133.632 137.322C134.369 138.003 134.738 138.96 134.738 140.192C134.738 141.433 134.369 142.413 133.632 143.132C132.904 143.851 131.868 144.21 130.524 144.21ZM138.719 144.21C137.888 144.21 137.226 144.005 136.731 143.594C136.246 143.174 136.003 142.581 136.003 141.816C136.003 141.06 136.274 140.458 136.815 140.01C137.366 139.562 138.108 139.338 139.041 139.338C139.965 139.338 140.796 139.511 141.533 139.856V139.282C141.533 138.638 141.356 138.171 141.001 137.882C140.656 137.583 140.077 137.434 139.265 137.434C138.817 137.434 138.378 137.476 137.949 137.56C137.52 137.644 137.146 137.761 136.829 137.91V136.79C137.118 136.65 137.51 136.533 138.005 136.44C138.509 136.347 138.999 136.3 139.475 136.3C140.315 136.3 141.015 136.454 141.575 136.762L142.289 135.95H143.871L142.457 137.532C142.793 138.008 142.961 138.582 142.961 139.254V144H141.533V140.99C140.852 140.645 140.072 140.472 139.195 140.472C138.588 140.472 138.14 140.584 137.851 140.808C137.571 141.032 137.431 141.368 137.431 141.816C137.431 142.665 137.977 143.09 139.069 143.09C139.405 143.09 139.699 143.043 139.951 142.95V144.056C139.615 144.159 139.204 144.21 138.719 144.21ZM142.276 135.53C141.856 135.53 141.497 135.381 141.198 135.082C140.89 134.783 140.736 134.424 140.736 134.004C140.736 133.575 140.89 133.211 141.198 132.912C141.497 132.604 141.856 132.45 142.276 132.45C142.696 132.45 143.06 132.604 143.368 132.912C143.667 133.211 143.816 133.575 143.816 134.004C143.816 134.424 143.667 134.783 143.368 135.082C143.06 135.381 142.696 135.53 142.276 135.53ZM142.276 134.662C142.444 134.662 142.593 134.597 142.724 134.466C142.845 134.326 142.906 134.172 142.906 134.004C142.906 133.836 142.845 133.687 142.724 133.556C142.593 133.425 142.444 133.36 142.276 133.36C142.108 133.36 141.963 133.425 141.842 133.556C141.711 133.687 141.646 133.836 141.646 134.004C141.646 134.172 141.711 134.326 141.842 134.466C141.963 134.597 142.108 134.662 142.276 134.662ZM147.624 139.156C147.624 138.559 147.503 138.125 147.26 137.854C147.017 137.574 146.588 137.434 145.972 137.434C145.375 137.434 144.815 137.565 144.292 137.826V136.706C144.516 136.594 144.805 136.501 145.16 136.426C145.524 136.342 145.883 136.3 146.238 136.3C147.181 136.3 147.885 136.557 148.352 137.07C148.819 137.574 149.052 138.302 149.052 139.254V144H147.624V139.156ZM150.871 139.366C150.871 138.395 151.188 137.644 151.823 137.112C152.458 136.571 153.33 136.3 154.441 136.3C155.542 136.3 156.41 136.566 157.045 137.098C157.68 137.63 157.997 138.386 157.997 139.366V144H156.569V139.324C156.569 138.689 156.382 138.218 156.009 137.91C155.636 137.593 155.113 137.434 154.441 137.434C153.76 137.434 153.232 137.593 152.859 137.91C152.486 138.218 152.299 138.689 152.299 139.324V140.752C152.42 140.528 152.612 140.351 152.873 140.22C153.134 140.08 153.442 140.01 153.797 140.01H154.917V141.186H153.685C153.293 141.186 152.962 141.326 152.691 141.606C152.43 141.877 152.299 142.189 152.299 142.544V144H150.871V139.366ZM155.36 135.404C154.959 135.404 154.67 135.306 154.492 135.11C154.306 134.905 154.212 134.601 154.212 134.2V133.472H155.5V134.032C155.5 134.191 155.533 134.298 155.598 134.354C155.654 134.41 155.766 134.438 155.934 134.438H159.238V135.404H155.36ZM168.744 145.372C168.25 145.372 167.755 145.316 167.26 145.204C166.766 145.101 166.374 144.961 166.084 144.784V143.594C166.868 144.033 167.755 144.252 168.744 144.252C169.407 144.252 169.93 144.163 170.312 143.986C170.695 143.809 170.886 143.543 170.886 143.188C170.886 142.908 170.798 142.675 170.62 142.488C170.368 142.647 170.06 142.773 169.696 142.866C169.342 142.959 168.968 143.006 168.576 143.006C167.503 143.006 166.677 142.731 166.098 142.18C165.529 141.629 165.244 140.887 165.244 139.954V139.31C165.244 138.666 165.086 138.195 164.768 137.896C164.46 137.588 163.984 137.434 163.34 137.434C162.855 137.434 162.43 137.509 162.066 137.658C161.712 137.807 161.376 138.055 161.058 138.4L161.66 139.338V142.11C161.66 142.371 161.712 142.553 161.814 142.656C161.926 142.759 162.108 142.81 162.36 142.81H163.144V144H161.66C161.194 144 160.839 143.869 160.596 143.608C160.354 143.347 160.232 142.987 160.232 142.53V139.338L159.532 138.204C160.027 137.579 160.578 137.107 161.184 136.79C161.791 136.463 162.51 136.3 163.34 136.3C164.423 136.3 165.244 136.557 165.804 137.07C166.374 137.574 166.658 138.283 166.658 139.198V139.898C166.658 140.542 166.808 141.037 167.106 141.382C167.405 141.718 167.895 141.886 168.576 141.886C169.258 141.886 169.766 141.709 170.102 141.354C170.448 140.99 170.62 140.495 170.62 139.87V136.51H172.048V139.954C172.048 140.654 171.876 141.247 171.53 141.732C171.764 141.937 171.932 142.157 172.034 142.39C172.146 142.623 172.202 142.889 172.202 143.188C172.202 143.888 171.88 144.425 171.236 144.798C170.602 145.181 169.771 145.372 168.744 145.372ZM173.881 136.51H175.253V137.518C175.617 137.107 176.041 136.804 176.527 136.608C177.021 136.403 177.521 136.3 178.025 136.3C178.939 136.3 179.639 136.552 180.125 137.056C180.61 137.56 180.853 138.209 180.853 139.002V144H179.425V139.072C179.425 138.549 179.28 138.148 178.991 137.868C178.701 137.579 178.253 137.434 177.647 137.434C176.629 137.434 175.85 137.859 175.309 138.708V144H173.881V136.51ZM174.79 134.438H179.536V132.94H180.838V135.404H174.79V134.438ZM179.55 130.616H180.838V132.478H179.55V130.616ZM185.108 144.21C184.277 144.21 183.614 144.005 183.12 143.594C182.634 143.174 182.392 142.581 182.392 141.816C182.392 141.06 182.662 140.458 183.204 140.01C183.754 139.562 184.496 139.338 185.43 139.338C186.354 139.338 187.184 139.511 187.922 139.856V139.282C187.922 138.638 187.744 138.171 187.39 137.882C187.044 137.583 186.466 137.434 185.654 137.434C185.206 137.434 184.767 137.476 184.338 137.56C183.908 137.644 183.535 137.761 183.218 137.91V136.79C183.507 136.65 183.899 136.533 184.394 136.44C184.898 136.347 185.388 136.3 185.864 136.3C186.704 136.3 187.404 136.454 187.964 136.762L188.678 135.95H190.26L188.846 137.532C189.182 138.008 189.35 138.582 189.35 139.254V144H187.922V140.99C187.24 140.645 186.461 140.472 185.584 140.472C184.977 140.472 184.529 140.584 184.24 140.808C183.96 141.032 183.82 141.368 183.82 141.816C183.82 142.665 184.366 143.09 185.458 143.09C185.794 143.09 186.088 143.043 186.34 142.95V144.056C186.004 144.159 185.593 144.21 185.108 144.21ZM188.259 146.254C188.259 146.086 188.231 145.969 188.175 145.904C188.109 145.848 187.988 145.82 187.811 145.82H187.349V144.798H188.497C188.917 144.798 189.201 144.882 189.351 145.05C189.491 145.218 189.561 145.517 189.561 145.946V147.682H188.259V146.254ZM194.699 144.21C193.579 144.21 192.697 143.893 192.053 143.258C191.418 142.623 191.101 141.69 191.101 140.458C191.101 139.599 191.264 138.857 191.591 138.232C191.927 137.607 192.403 137.131 193.019 136.804C193.635 136.468 194.367 136.3 195.217 136.3C196.533 136.3 197.494 136.613 198.101 137.238C198.707 137.854 199.011 138.643 199.011 139.604V144H197.583V139.59C197.583 138.153 196.794 137.434 195.217 137.434C194.386 137.434 193.733 137.695 193.257 138.218C192.781 138.741 192.543 139.487 192.543 140.458C192.543 141.354 192.743 142.017 193.145 142.446C193.546 142.875 194.143 143.09 194.937 143.09C195.291 143.09 195.618 143.043 195.917 142.95V144.056C195.59 144.159 195.184 144.21 194.699 144.21ZM207.41 144C206.952 144 206.602 143.874 206.36 143.622C206.126 143.361 206.01 142.997 206.01 142.53V136.51H207.438V142.138C207.438 142.39 207.489 142.567 207.592 142.67C207.694 142.763 207.872 142.81 208.124 142.81H208.628V144H207.41ZM211.008 144C210.56 144 210.214 143.869 209.972 143.608C209.729 143.347 209.608 142.987 209.608 142.53V136.51H211.036V142.138C211.036 142.39 211.087 142.567 211.19 142.67C211.302 142.763 211.484 142.81 211.736 142.81H212.24V144H211.008ZM216.211 144.21C215.381 144.21 214.718 144.005 214.223 143.594C213.738 143.174 213.495 142.581 213.495 141.816C213.495 141.06 213.766 140.458 214.307 140.01C214.858 139.562 215.6 139.338 216.533 139.338C217.457 139.338 218.288 139.511 219.025 139.856V139.282C219.025 138.638 218.848 138.171 218.493 137.882C218.148 137.583 217.569 137.434 216.757 137.434C216.309 137.434 215.871 137.476 215.441 137.56C215.012 137.644 214.639 137.761 214.321 137.91V136.79C214.611 136.65 215.003 136.533 215.497 136.44C216.001 136.347 216.491 136.3 216.967 136.3C217.807 136.3 218.507 136.454 219.067 136.762L219.781 135.95H221.363L219.949 137.532C220.285 138.008 220.453 138.582 220.453 139.254V144H219.025V140.99C218.344 140.645 217.565 140.472 216.687 140.472C216.081 140.472 215.633 140.584 215.343 140.808C215.063 141.032 214.923 141.368 214.923 141.816C214.923 142.665 215.469 143.09 216.561 143.09C216.897 143.09 217.191 143.043 217.443 142.95V144.056C217.107 144.159 216.697 144.21 216.211 144.21ZM225.802 144.21C224.682 144.21 223.8 143.893 223.156 143.258C222.522 142.623 222.204 141.69 222.204 140.458C222.204 139.599 222.368 138.857 222.694 138.232C223.03 137.607 223.506 137.131 224.122 136.804C224.738 136.468 225.471 136.3 226.32 136.3C227.636 136.3 228.598 136.613 229.204 137.238C229.811 137.854 230.114 138.643 230.114 139.604V144H228.686V139.59C228.686 138.153 227.898 137.434 226.32 137.434C225.49 137.434 224.836 137.695 224.36 138.218C223.884 138.741 223.646 139.487 223.646 140.458C223.646 141.354 223.847 142.017 224.248 142.446C224.65 142.875 225.247 143.09 226.04 143.09C226.395 143.09 226.722 143.043 227.02 142.95V144.056C226.694 144.159 226.288 144.21 225.802 144.21ZM231.651 137.448H233.079L234.857 142.88C235.735 142.88 236.411 142.637 236.887 142.152C237.363 141.667 237.601 140.981 237.601 140.094C237.601 139.217 237.438 138.554 237.111 138.106C236.785 137.658 236.262 137.434 235.543 137.434C235.207 137.434 234.881 137.476 234.563 137.56V136.454C234.937 136.351 235.343 136.3 235.781 136.3C236.845 136.3 237.657 136.636 238.217 137.308C238.777 137.98 239.057 138.909 239.057 140.094C239.057 140.906 238.88 141.606 238.525 142.194C238.18 142.782 237.709 143.23 237.111 143.538C236.514 143.846 235.851 144 235.123 144H233.779L231.651 137.448ZM241.019 139.338L240.319 138.204C240.814 137.579 241.379 137.107 242.013 136.79C242.648 136.463 243.399 136.3 244.267 136.3C245.387 136.3 246.246 136.557 246.843 137.07C247.441 137.574 247.739 138.283 247.739 139.198V144H246.311V139.31C246.311 138.666 246.139 138.195 245.793 137.896C245.457 137.588 244.949 137.434 244.267 137.434C243.754 137.434 243.301 137.513 242.909 137.672C242.517 137.821 242.163 138.064 241.845 138.4L242.447 139.338V144H241.019V139.338ZM252.187 139.156C252.187 138.559 252.065 138.125 251.823 137.854C251.58 137.574 251.151 137.434 250.535 137.434C249.937 137.434 249.377 137.565 248.855 137.826V136.706C249.079 136.594 249.368 136.501 249.723 136.426C250.087 136.342 250.446 136.3 250.801 136.3C251.743 136.3 252.448 136.557 252.915 137.07C253.381 137.574 253.615 138.302 253.615 139.254V144H252.187V139.156ZM258.009 144.21C257.496 144.21 256.973 144.149 256.441 144.028C255.909 143.916 255.494 143.748 255.195 143.524V142.376C255.597 142.619 256.035 142.805 256.511 142.936C256.997 143.057 257.459 143.118 257.897 143.118C258.513 143.118 258.957 143.048 259.227 142.908C259.498 142.759 259.633 142.507 259.633 142.152C259.633 141.909 259.568 141.713 259.437 141.564C259.307 141.415 259.106 141.284 258.835 141.172C258.574 141.06 258.159 140.92 257.589 140.752C256.768 140.5 256.157 140.206 255.755 139.87C255.354 139.525 255.153 139.049 255.153 138.442C255.153 137.751 255.419 137.224 255.951 136.86C256.483 136.487 257.211 136.3 258.135 136.3C258.611 136.3 259.069 136.356 259.507 136.468C259.955 136.571 260.324 136.711 260.613 136.888V138.064C260.296 137.868 259.932 137.714 259.521 137.602C259.111 137.49 258.691 137.434 258.261 137.434C257.141 137.434 256.581 137.77 256.581 138.442C256.581 138.694 256.656 138.895 256.805 139.044C256.964 139.193 257.169 139.319 257.421 139.422C257.683 139.515 258.117 139.651 258.723 139.828C259.321 140.005 259.787 140.197 260.123 140.402C260.459 140.607 260.697 140.85 260.837 141.13C260.977 141.41 261.047 141.755 261.047 142.166C261.047 142.782 260.795 143.277 260.291 143.65C259.787 144.023 259.027 144.21 258.009 144.21ZM264.67 144C264.212 144 263.862 143.874 263.62 143.622C263.386 143.361 263.27 142.997 263.27 142.53V137.154C263.27 136.473 263.144 135.941 262.892 135.558C262.64 135.175 262.234 134.867 261.674 134.634V133.472H266.084V134.676H263.578C263.96 134.928 264.24 135.264 264.418 135.684C264.604 136.104 264.698 136.608 264.698 137.196V142.138C264.698 142.39 264.749 142.567 264.852 142.67C264.954 142.763 265.132 142.81 265.384 142.81H265.888V144H264.67ZM267.205 136.51H268.577V137.518C268.941 137.107 269.366 136.804 269.851 136.608C270.346 136.403 270.845 136.3 271.349 136.3C272.264 136.3 272.964 136.552 273.449 137.056C273.934 137.56 274.177 138.209 274.177 139.002V144H272.749V139.072C272.749 138.549 272.604 138.148 272.315 137.868C272.026 137.579 271.578 137.434 270.971 137.434C269.954 137.434 269.174 137.859 268.633 138.708V144H267.205V136.51ZM278.572 144.21C278.059 144.21 277.536 144.149 277.004 144.028C276.472 143.916 276.057 143.748 275.758 143.524V142.376C276.159 142.619 276.598 142.805 277.074 142.936C277.559 143.057 278.021 143.118 278.46 143.118C279.076 143.118 279.519 143.048 279.79 142.908C280.061 142.759 280.196 142.507 280.196 142.152C280.196 141.909 280.131 141.713 280 141.564C279.869 141.415 279.669 141.284 279.398 141.172C279.137 141.06 278.721 140.92 278.152 140.752C277.331 140.5 276.719 140.206 276.318 139.87C275.917 139.525 275.716 139.049 275.716 138.442C275.716 137.751 275.982 137.224 276.514 136.86C277.046 136.487 277.774 136.3 278.698 136.3C279.174 136.3 279.631 136.356 280.07 136.468C280.518 136.571 280.887 136.711 281.176 136.888V138.064C280.859 137.868 280.495 137.714 280.084 137.602C279.673 137.49 279.253 137.434 278.824 137.434C277.704 137.434 277.144 137.77 277.144 138.442C277.144 138.694 277.219 138.895 277.368 139.044C277.527 139.193 277.732 139.319 277.984 139.422C278.245 139.515 278.679 139.651 279.286 139.828C279.883 140.005 280.35 140.197 280.686 140.402C281.022 140.607 281.26 140.85 281.4 141.13C281.54 141.41 281.61 141.755 281.61 142.166C281.61 142.782 281.358 143.277 280.854 143.65C280.35 144.023 279.589 144.21 278.572 144.21ZM288.048 143.062L290.162 141.032C290.349 140.845 290.61 140.603 290.946 140.304C291.478 139.819 291.884 139.427 292.164 139.128C292.444 138.829 292.673 138.512 292.85 138.176C293.027 137.831 293.116 137.462 293.116 137.07C293.116 136.491 292.948 136.053 292.612 135.754C292.276 135.446 291.786 135.292 291.142 135.292C290.703 135.292 290.251 135.371 289.784 135.53C289.327 135.689 288.897 135.922 288.496 136.23V134.858C289.28 134.289 290.237 134.004 291.366 134.004C292.374 134.004 293.158 134.275 293.718 134.816C294.278 135.348 294.558 136.076 294.558 137C294.558 137.448 294.46 137.877 294.264 138.288C294.077 138.699 293.811 139.105 293.466 139.506C293.121 139.898 292.654 140.379 292.066 140.948L290.162 142.81H294.922V144H288.048V143.062ZM304.22 144.21C303.707 144.21 303.184 144.149 302.652 144.028C302.12 143.916 301.705 143.748 301.406 143.524V142.376C301.808 142.619 302.246 142.805 302.722 142.936C303.208 143.057 303.67 143.118 304.108 143.118C304.724 143.118 305.168 143.048 305.438 142.908C305.709 142.759 305.844 142.507 305.844 142.152C305.844 141.909 305.779 141.713 305.648 141.564C305.518 141.415 305.317 141.284 305.046 141.172C304.785 141.06 304.37 140.92 303.8 140.752C302.979 140.5 302.368 140.206 301.966 139.87C301.565 139.525 301.364 139.049 301.364 138.442C301.364 137.751 301.63 137.224 302.162 136.86C302.694 136.487 303.422 136.3 304.346 136.3C304.822 136.3 305.28 136.356 305.718 136.468C306.166 136.571 306.535 136.711 306.824 136.888V138.064C306.507 137.868 306.143 137.714 305.732 137.602C305.322 137.49 304.902 137.434 304.472 137.434C303.352 137.434 302.792 137.77 302.792 138.442C302.792 138.694 302.867 138.895 303.016 139.044C303.175 139.193 303.38 139.319 303.632 139.422C303.894 139.515 304.328 139.651 304.934 139.828C305.532 140.005 305.998 140.197 306.334 140.402C306.67 140.607 306.908 140.85 307.048 141.13C307.188 141.41 307.258 141.755 307.258 142.166C307.258 142.782 307.006 143.277 306.502 143.65C305.998 144.023 305.238 144.21 304.22 144.21ZM311.427 139.156C311.427 138.559 311.305 138.125 311.063 137.854C310.82 137.574 310.391 137.434 309.775 137.434C309.177 137.434 308.617 137.565 308.095 137.826V136.706C308.319 136.594 308.608 136.501 308.963 136.426C309.327 136.342 309.686 136.3 310.041 136.3C310.983 136.3 311.688 136.557 312.155 137.07C312.621 137.574 312.855 138.302 312.855 139.254V144H311.427V139.156ZM317.95 144.21C316.867 144.21 316.004 144.005 315.36 143.594C314.716 143.183 314.394 142.586 314.394 141.802C314.394 141.391 314.506 141.032 314.73 140.724C314.963 140.407 315.271 140.187 315.654 140.066C315.29 139.907 314.996 139.679 314.772 139.38C314.557 139.081 314.45 138.736 314.45 138.344C314.45 137.728 314.655 137.233 315.066 136.86C315.476 136.487 316.078 136.3 316.872 136.3C317.096 136.3 317.324 136.319 317.558 136.356C317.791 136.384 317.978 136.417 318.118 136.454V137.574C317.996 137.527 317.838 137.495 317.642 137.476C317.455 137.448 317.282 137.434 317.124 137.434C316.722 137.434 316.414 137.523 316.2 137.7C315.994 137.868 315.892 138.111 315.892 138.428C315.892 138.764 316.004 139.021 316.228 139.198C316.452 139.375 316.783 139.464 317.222 139.464H318.118V140.64H317.236C316.788 140.64 316.442 140.738 316.2 140.934C315.957 141.121 315.836 141.41 315.836 141.802C315.836 142.213 316.022 142.53 316.396 142.754C316.778 142.978 317.296 143.09 317.95 143.09C319.49 143.09 320.26 142.437 320.26 141.13V136.51H321.688V141.102C321.688 141.625 321.566 142.124 321.324 142.6C321.081 143.067 320.68 143.454 320.12 143.762C319.569 144.061 318.846 144.21 317.95 144.21ZM326.628 144.21C325.965 144.21 325.382 144.093 324.878 143.86C324.374 143.627 323.982 143.3 323.702 142.88C323.431 142.451 323.296 141.961 323.296 141.41V140.934C323.296 140.617 323.366 140.323 323.506 140.052C323.646 139.772 323.837 139.469 324.08 139.142C324.257 138.899 324.383 138.703 324.458 138.554C324.542 138.405 324.584 138.265 324.584 138.134C324.584 137.957 324.537 137.831 324.444 137.756C324.36 137.681 324.215 137.644 324.01 137.644H323.226V136.51H324.696C325.106 136.51 325.428 136.631 325.662 136.874C325.904 137.107 326.026 137.42 326.026 137.812C326.026 138.083 325.97 138.335 325.858 138.568C325.746 138.792 325.578 139.067 325.354 139.394C325.13 139.73 324.966 140.001 324.864 140.206C324.77 140.411 324.724 140.635 324.724 140.878V141.396C324.724 141.928 324.892 142.343 325.228 142.642C325.564 142.941 326.03 143.09 326.628 143.09C327.262 143.09 327.757 142.917 328.112 142.572C328.466 142.227 328.644 141.718 328.644 141.046C328.644 140.374 328.504 139.87 328.224 139.534C327.944 139.198 327.533 139.03 326.992 139.03V138.26L328.49 136.3H330.03L328.448 138.386C329.017 138.601 329.428 138.932 329.68 139.38C329.941 139.819 330.072 140.374 330.072 141.046C330.072 141.69 329.927 142.25 329.638 142.726C329.358 143.202 328.956 143.571 328.434 143.832C327.911 144.084 327.309 144.21 326.628 144.21ZM323.813 134.466H326.627V132.94H327.677V134.466H328.811V132.94H329.847V135.404H323.813V134.466ZM328.559 130.616H329.847V132.478H328.559V130.616ZM334.453 144.21C333.875 144.21 333.315 144.14 332.773 144C332.232 143.869 331.775 143.683 331.401 143.44V139.716H334.509V140.864H332.829V142.726C333.231 142.969 333.772 143.09 334.453 143.09C335.349 143.09 336.031 142.843 336.497 142.348C336.973 141.853 337.211 141.135 337.211 140.192C337.211 139.249 336.969 138.554 336.483 138.106C336.007 137.658 335.223 137.434 334.131 137.434C333.637 137.434 333.151 137.485 332.675 137.588C332.199 137.681 331.798 137.835 331.471 138.05V136.916C331.835 136.711 332.265 136.557 332.759 136.454C333.254 136.351 333.786 136.3 334.355 136.3C335.755 136.3 336.824 136.641 337.561 137.322C338.299 138.003 338.667 138.96 338.667 140.192C338.667 141.433 338.299 142.413 337.561 143.132C336.833 143.851 335.797 144.21 334.453 144.21Z" fill="#535353"/>
<path d="M102.744 205.754L100.63 207.28V205.922L102.94 204.214H104.172V214H102.744V205.754ZM109.398 214.21C108.698 214.21 108.068 214.051 107.508 213.734C106.957 213.407 106.519 212.931 106.192 212.306C105.875 211.671 105.716 210.911 105.716 210.024C105.716 208.083 106.113 206.594 106.906 205.558C107.709 204.522 108.857 204.004 110.35 204.004C110.863 204.004 111.321 204.06 111.722 204.172V205.376C111.395 205.236 110.975 205.166 110.462 205.166C108.465 205.166 107.368 206.365 107.172 208.764C107.452 208.409 107.821 208.143 108.278 207.966C108.745 207.779 109.253 207.686 109.804 207.686C110.439 207.686 110.994 207.817 111.47 208.078C111.946 208.339 112.315 208.713 112.576 209.198C112.847 209.683 112.982 210.248 112.982 210.892C112.982 211.527 112.837 212.096 112.548 212.6C112.268 213.104 111.857 213.501 111.316 213.79C110.775 214.07 110.135 214.21 109.398 214.21ZM109.398 213.104C110.051 213.104 110.574 212.908 110.966 212.516C111.367 212.115 111.568 211.587 111.568 210.934C111.568 210.281 111.367 209.763 110.966 209.38C110.574 208.997 110.051 208.806 109.398 208.806C108.997 208.806 108.628 208.895 108.292 209.072C107.965 209.249 107.704 209.501 107.508 209.828C107.321 210.155 107.228 210.533 107.228 210.962C107.228 211.345 107.317 211.699 107.494 212.026C107.681 212.353 107.937 212.614 108.264 212.81C108.591 213.006 108.969 213.104 109.398 213.104ZM117.929 214.21C117.229 214.21 116.599 214.051 116.039 213.734C115.489 213.407 115.05 212.931 114.723 212.306C114.406 211.671 114.247 210.911 114.247 210.024C114.247 208.083 114.644 206.594 115.437 205.558C116.24 204.522 117.388 204.004 118.881 204.004C119.395 204.004 119.852 204.06 120.253 204.172V205.376C119.927 205.236 119.507 205.166 118.993 205.166C116.996 205.166 115.899 206.365 115.703 208.764C115.983 208.409 116.352 208.143 116.809 207.966C117.276 207.779 117.785 207.686 118.335 207.686C118.97 207.686 119.525 207.817 120.001 208.078C120.477 208.339 120.846 208.713 121.107 209.198C121.378 209.683 121.513 210.248 121.513 210.892C121.513 211.527 121.369 212.096 121.079 212.6C120.799 213.104 120.389 213.501 119.847 213.79C119.306 214.07 118.667 214.21 117.929 214.21ZM117.929 213.104C118.583 213.104 119.105 212.908 119.497 212.516C119.899 212.115 120.099 211.587 120.099 210.934C120.099 210.281 119.899 209.763 119.497 209.38C119.105 208.997 118.583 208.806 117.929 208.806C117.528 208.806 117.159 208.895 116.823 209.072C116.497 209.249 116.235 209.501 116.039 209.828C115.853 210.155 115.759 210.533 115.759 210.962C115.759 211.345 115.848 211.699 116.025 212.026C116.212 212.353 116.469 212.614 116.795 212.81C117.122 213.006 117.5 213.104 117.929 213.104ZM125.41 214.21C124.897 214.21 124.44 214.154 124.038 214.042V212.852C124.402 212.992 124.822 213.062 125.298 213.062C127.305 213.062 128.406 211.863 128.602 209.464C128.322 209.819 127.954 210.085 127.496 210.262C127.048 210.439 126.544 210.528 125.984 210.528C125.359 210.528 124.804 210.397 124.318 210.136C123.833 209.875 123.455 209.501 123.184 209.016C122.914 208.531 122.778 207.966 122.778 207.322C122.778 206.687 122.918 206.118 123.198 205.614C123.488 205.11 123.903 204.718 124.444 204.438C124.986 204.149 125.625 204.004 126.362 204.004C127.072 204.004 127.702 204.163 128.252 204.48C128.812 204.797 129.251 205.273 129.568 205.908C129.886 206.533 130.044 207.294 130.044 208.19C130.044 210.131 129.643 211.62 128.84 212.656C128.047 213.692 126.904 214.21 125.41 214.21ZM126.362 209.408C126.978 209.408 127.492 209.212 127.902 208.82C128.322 208.428 128.532 207.91 128.532 207.266C128.532 206.883 128.439 206.529 128.252 206.202C128.075 205.875 127.823 205.614 127.496 205.418C127.17 205.222 126.792 205.124 126.362 205.124C125.709 205.124 125.182 205.32 124.78 205.712C124.388 206.104 124.192 206.627 124.192 207.28C124.192 207.933 124.388 208.451 124.78 208.834C125.182 209.217 125.709 209.408 126.362 209.408Z" fill="#4E5256"/>
<path d="M104.704 285.21C103.864 285.21 103.136 285.005 102.52 284.594C101.913 284.183 101.447 283.595 101.12 282.83C100.793 282.065 100.63 281.159 100.63 280.114C100.63 279.069 100.789 278.163 101.106 277.398C101.433 276.623 101.899 276.031 102.506 275.62C103.122 275.209 103.855 275.004 104.704 275.004C105.553 275.004 106.281 275.209 106.888 275.62C107.504 276.031 107.971 276.623 108.288 277.398C108.615 278.163 108.778 279.069 108.778 280.114C108.778 281.159 108.615 282.065 108.288 282.83C107.961 283.595 107.49 284.183 106.874 284.594C106.267 285.005 105.544 285.21 104.704 285.21ZM104.704 283.95C105.535 283.95 106.183 283.609 106.65 282.928C107.126 282.237 107.364 281.304 107.364 280.128C107.364 278.952 107.131 278.019 106.664 277.328C106.197 276.637 105.544 276.292 104.704 276.292C103.864 276.292 103.211 276.637 102.744 277.328C102.277 278.019 102.044 278.952 102.044 280.128C102.044 281.304 102.277 282.237 102.744 282.928C103.22 283.609 103.873 283.95 104.704 283.95ZM113.62 285.21C112.519 285.21 111.646 284.963 111.002 284.468C110.358 283.964 110.036 283.25 110.036 282.326C110.036 281.701 110.2 281.178 110.526 280.758C110.853 280.329 111.287 280.039 111.828 279.89C111.38 279.703 111.026 279.419 110.764 279.036C110.503 278.644 110.372 278.191 110.372 277.678C110.372 276.857 110.666 276.208 111.254 275.732C111.842 275.247 112.631 275.004 113.62 275.004C114.6 275.004 115.384 275.247 115.972 275.732C116.56 276.208 116.854 276.857 116.854 277.678C116.854 278.191 116.724 278.644 116.462 279.036C116.201 279.419 115.846 279.703 115.398 279.89C115.94 280.039 116.374 280.329 116.7 280.758C117.036 281.178 117.204 281.701 117.204 282.326C117.204 283.25 116.882 283.964 116.238 284.468C115.594 284.963 114.722 285.21 113.62 285.21ZM113.62 279.456C114.171 279.456 114.619 279.307 114.964 279.008C115.31 278.7 115.482 278.299 115.482 277.804C115.482 277.3 115.31 276.889 114.964 276.572C114.628 276.255 114.18 276.096 113.62 276.096C113.06 276.096 112.608 276.255 112.262 276.572C111.926 276.889 111.758 277.3 111.758 277.804C111.758 278.299 111.931 278.7 112.276 279.008C112.622 279.307 113.07 279.456 113.62 279.456ZM113.62 284.174C114.292 284.174 114.82 284.001 115.202 283.656C115.585 283.311 115.776 282.835 115.776 282.228C115.776 281.649 115.576 281.192 115.174 280.856C114.782 280.52 114.264 280.352 113.62 280.352C112.976 280.352 112.454 280.52 112.052 280.856C111.651 281.192 111.45 281.649 111.45 282.228C111.45 282.835 111.642 283.311 112.024 283.656C112.416 284.001 112.948 284.174 113.62 284.174ZM121.09 285.21C120.577 285.21 120.119 285.154 119.718 285.042V283.852C120.082 283.992 120.502 284.062 120.978 284.062C122.985 284.062 124.086 282.863 124.282 280.464C124.002 280.819 123.633 281.085 123.176 281.262C122.728 281.439 122.224 281.528 121.664 281.528C121.039 281.528 120.483 281.397 119.998 281.136C119.513 280.875 119.135 280.501 118.864 280.016C118.593 279.531 118.458 278.966 118.458 278.322C118.458 277.687 118.598 277.118 118.878 276.614C119.167 276.11 119.583 275.718 120.124 275.438C120.665 275.149 121.305 275.004 122.042 275.004C122.751 275.004 123.381 275.163 123.932 275.48C124.492 275.797 124.931 276.273 125.248 276.908C125.565 277.533 125.724 278.294 125.724 279.19C125.724 281.131 125.323 282.62 124.52 283.656C123.727 284.692 122.583 285.21 121.09 285.21ZM122.042 280.408C122.658 280.408 123.171 280.212 123.582 279.82C124.002 279.428 124.212 278.91 124.212 278.266C124.212 277.883 124.119 277.529 123.932 277.202C123.755 276.875 123.503 276.614 123.176 276.418C122.849 276.222 122.471 276.124 122.042 276.124C121.389 276.124 120.861 276.32 120.46 276.712C120.068 277.104 119.872 277.627 119.872 278.28C119.872 278.933 120.068 279.451 120.46 279.834C120.861 280.217 121.389 280.408 122.042 280.408ZM132.043 276.418H126.849V275.214H133.499V276.264L129.565 285H128.165L132.043 276.418ZM138.3 285.21C137.6 285.21 136.97 285.051 136.41 284.734C135.86 284.407 135.421 283.931 135.094 283.306C134.777 282.671 134.618 281.911 134.618 281.024C134.618 279.083 135.015 277.594 135.808 276.558C136.611 275.522 137.759 275.004 139.252 275.004C139.766 275.004 140.223 275.06 140.624 275.172V276.376C140.298 276.236 139.878 276.166 139.364 276.166C137.367 276.166 136.27 277.365 136.074 279.764C136.354 279.409 136.723 279.143 137.18 278.966C137.647 278.779 138.156 278.686 138.706 278.686C139.341 278.686 139.896 278.817 140.372 279.078C140.848 279.339 141.217 279.713 141.478 280.198C141.749 280.683 141.884 281.248 141.884 281.892C141.884 282.527 141.74 283.096 141.45 283.6C141.17 284.104 140.76 284.501 140.218 284.79C139.677 285.07 139.038 285.21 138.3 285.21ZM138.3 284.104C138.954 284.104 139.476 283.908 139.868 283.516C140.27 283.115 140.47 282.587 140.47 281.934C140.47 281.281 140.27 280.763 139.868 280.38C139.476 279.997 138.954 279.806 138.3 279.806C137.899 279.806 137.53 279.895 137.194 280.072C136.868 280.249 136.606 280.501 136.41 280.828C136.224 281.155 136.13 281.533 136.13 281.962C136.13 282.345 136.219 282.699 136.396 283.026C136.583 283.353 136.84 283.614 137.166 283.81C137.493 284.006 137.871 284.104 138.3 284.104ZM145.88 285.21C145.366 285.21 144.867 285.154 144.382 285.042C143.896 284.939 143.486 284.795 143.15 284.608V283.334C143.532 283.567 143.966 283.749 144.452 283.88C144.937 284.001 145.399 284.062 145.838 284.062C146.687 284.062 147.331 283.885 147.77 283.53C148.208 283.166 148.428 282.634 148.428 281.934C148.428 281.271 148.222 280.767 147.812 280.422C147.41 280.067 146.808 279.89 146.006 279.89C145.67 279.89 145.315 279.923 144.942 279.988C144.578 280.053 144.251 280.142 143.962 280.254L143.332 279.89L143.696 275.214H149.17V276.418H144.998L144.788 278.938C145.366 278.817 145.954 278.756 146.552 278.756C147.588 278.756 148.4 279.045 148.988 279.624C149.576 280.203 149.87 280.973 149.87 281.934C149.87 282.989 149.538 283.801 148.876 284.37C148.213 284.93 147.214 285.21 145.88 285.21ZM155.614 282.592H150.854V281.682L155.6 275.214H157.056V281.472H158.568V282.592H157.056V285H155.614V282.592ZM155.782 281.472V276.922L152.464 281.472H155.782ZM162.524 285.21C161.955 285.21 161.409 285.163 160.886 285.07C160.373 284.986 159.925 284.855 159.542 284.678V283.502C160.41 283.894 161.343 284.09 162.342 284.09C163.201 284.09 163.835 283.936 164.246 283.628C164.666 283.311 164.876 282.863 164.876 282.284C164.876 281.687 164.661 281.262 164.232 281.01C163.803 280.749 163.149 280.618 162.272 280.618H161.124V279.47H162.244C162.944 279.47 163.509 279.33 163.938 279.05C164.367 278.761 164.582 278.341 164.582 277.79C164.582 277.249 164.405 276.838 164.05 276.558C163.695 276.278 163.182 276.138 162.51 276.138C161.987 276.138 161.516 276.199 161.096 276.32C160.676 276.441 160.242 276.642 159.794 276.922V275.746C160.615 275.251 161.577 275.004 162.678 275.004C163.77 275.004 164.601 275.247 165.17 275.732C165.739 276.217 166.024 276.889 166.024 277.748C166.024 278.271 165.884 278.728 165.604 279.12C165.324 279.512 164.904 279.815 164.344 280.03C164.979 280.179 165.464 280.45 165.8 280.842C166.145 281.234 166.318 281.729 166.318 282.326C166.318 283.213 166.015 283.917 165.408 284.44C164.801 284.953 163.84 285.21 162.524 285.21ZM167.581 284.062L169.695 282.032C169.882 281.845 170.143 281.603 170.479 281.304C171.011 280.819 171.417 280.427 171.697 280.128C171.977 279.829 172.206 279.512 172.383 279.176C172.561 278.831 172.649 278.462 172.649 278.07C172.649 277.491 172.481 277.053 172.145 276.754C171.809 276.446 171.319 276.292 170.675 276.292C170.237 276.292 169.784 276.371 169.317 276.53C168.86 276.689 168.431 276.922 168.029 277.23V275.858C168.813 275.289 169.77 275.004 170.899 275.004C171.907 275.004 172.691 275.275 173.251 275.816C173.811 276.348 174.091 277.076 174.091 278C174.091 278.448 173.993 278.877 173.797 279.288C173.611 279.699 173.345 280.105 172.999 280.506C172.654 280.898 172.187 281.379 171.599 281.948L169.695 283.81H174.455V285H167.581V284.062ZM177.83 276.754L175.716 278.28V276.922L178.026 275.214H179.258V285H177.83V276.754Z" fill="#4E5256"/>
<path d="M104.704 361.21C103.864 361.21 103.136 361.005 102.52 360.594C101.913 360.183 101.447 359.595 101.12 358.83C100.793 358.065 100.63 357.159 100.63 356.114C100.63 355.069 100.789 354.163 101.106 353.398C101.433 352.623 101.899 352.031 102.506 351.62C103.122 351.209 103.855 351.004 104.704 351.004C105.553 351.004 106.281 351.209 106.888 351.62C107.504 352.031 107.971 352.623 108.288 353.398C108.615 354.163 108.778 355.069 108.778 356.114C108.778 357.159 108.615 358.065 108.288 358.83C107.961 359.595 107.49 360.183 106.874 360.594C106.267 361.005 105.544 361.21 104.704 361.21ZM104.704 359.95C105.535 359.95 106.183 359.609 106.65 358.928C107.126 358.237 107.364 357.304 107.364 356.128C107.364 354.952 107.131 354.019 106.664 353.328C106.197 352.637 105.544 352.292 104.704 352.292C103.864 352.292 103.211 352.637 102.744 353.328C102.277 354.019 102.044 354.952 102.044 356.128C102.044 357.304 102.277 358.237 102.744 358.928C103.22 359.609 103.873 359.95 104.704 359.95ZM112.668 361.21C112.155 361.21 111.698 361.154 111.296 361.042V359.852C111.66 359.992 112.08 360.062 112.556 360.062C114.563 360.062 115.664 358.863 115.86 356.464C115.58 356.819 115.212 357.085 114.754 357.262C114.306 357.439 113.802 357.528 113.242 357.528C112.617 357.528 112.062 357.397 111.576 357.136C111.091 356.875 110.713 356.501 110.442 356.016C110.172 355.531 110.036 354.966 110.036 354.322C110.036 353.687 110.176 353.118 110.456 352.614C110.746 352.11 111.161 351.718 111.702 351.438C112.244 351.149 112.883 351.004 113.62 351.004C114.33 351.004 114.96 351.163 115.51 351.48C116.07 351.797 116.509 352.273 116.826 352.908C117.144 353.533 117.302 354.294 117.302 355.19C117.302 357.131 116.901 358.62 116.098 359.656C115.305 360.692 114.162 361.21 112.668 361.21ZM113.62 356.408C114.236 356.408 114.75 356.212 115.16 355.82C115.58 355.428 115.79 354.91 115.79 354.266C115.79 353.883 115.697 353.529 115.51 353.202C115.333 352.875 115.081 352.614 114.754 352.418C114.428 352.222 114.05 352.124 113.62 352.124C112.967 352.124 112.44 352.32 112.038 352.712C111.646 353.104 111.45 353.627 111.45 354.28C111.45 354.933 111.646 355.451 112.038 355.834C112.44 356.217 112.967 356.408 113.62 356.408ZM122.152 361.21C121.05 361.21 120.178 360.963 119.534 360.468C118.89 359.964 118.568 359.25 118.568 358.326C118.568 357.701 118.731 357.178 119.058 356.758C119.384 356.329 119.818 356.039 120.36 355.89C119.912 355.703 119.557 355.419 119.296 355.036C119.034 354.644 118.904 354.191 118.904 353.678C118.904 352.857 119.198 352.208 119.785 351.732C120.374 351.247 121.162 351.004 122.152 351.004C123.132 351.004 123.916 351.247 124.504 351.732C125.092 352.208 125.386 352.857 125.386 353.678C125.386 354.191 125.255 354.644 124.994 355.036C124.732 355.419 124.378 355.703 123.93 355.89C124.471 356.039 124.905 356.329 125.232 356.758C125.568 357.178 125.736 357.701 125.736 358.326C125.736 359.25 125.414 359.964 124.77 360.468C124.126 360.963 123.253 361.21 122.152 361.21ZM122.152 355.456C122.702 355.456 123.15 355.307 123.496 355.008C123.841 354.7 124.014 354.299 124.014 353.804C124.014 353.3 123.841 352.889 123.496 352.572C123.16 352.255 122.712 352.096 122.152 352.096C121.592 352.096 121.139 352.255 120.794 352.572C120.458 352.889 120.29 353.3 120.29 353.804C120.29 354.299 120.462 354.7 120.808 355.008C121.153 355.307 121.601 355.456 122.152 355.456ZM122.152 360.174C122.824 360.174 123.351 360.001 123.734 359.656C124.116 359.311 124.308 358.835 124.308 358.228C124.308 357.649 124.107 357.192 123.706 356.856C123.314 356.52 122.796 356.352 122.152 356.352C121.508 356.352 120.985 356.52 120.584 356.856C120.182 357.192 119.982 357.649 119.982 358.228C119.982 358.835 120.173 359.311 120.556 359.656C120.948 360.001 121.48 360.174 122.152 360.174ZM132.043 352.418H126.849V351.214H133.499V352.264L129.565 361H128.165L132.043 352.418ZM138.3 361.21C137.6 361.21 136.97 361.051 136.41 360.734C135.86 360.407 135.421 359.931 135.094 359.306C134.777 358.671 134.618 357.911 134.618 357.024C134.618 355.083 135.015 353.594 135.808 352.558C136.611 351.522 137.759 351.004 139.252 351.004C139.766 351.004 140.223 351.06 140.624 351.172V352.376C140.298 352.236 139.878 352.166 139.364 352.166C137.367 352.166 136.27 353.365 136.074 355.764C136.354 355.409 136.723 355.143 137.18 354.966C137.647 354.779 138.156 354.686 138.706 354.686C139.341 354.686 139.896 354.817 140.372 355.078C140.848 355.339 141.217 355.713 141.478 356.198C141.749 356.683 141.884 357.248 141.884 357.892C141.884 358.527 141.74 359.096 141.45 359.6C141.17 360.104 140.76 360.501 140.218 360.79C139.677 361.07 139.038 361.21 138.3 361.21ZM138.3 360.104C138.954 360.104 139.476 359.908 139.868 359.516C140.27 359.115 140.47 358.587 140.47 357.934C140.47 357.281 140.27 356.763 139.868 356.38C139.476 355.997 138.954 355.806 138.3 355.806C137.899 355.806 137.53 355.895 137.194 356.072C136.868 356.249 136.606 356.501 136.41 356.828C136.224 357.155 136.13 357.533 136.13 357.962C136.13 358.345 136.219 358.699 136.396 359.026C136.583 359.353 136.84 359.614 137.166 359.81C137.493 360.006 137.871 360.104 138.3 360.104ZM145.88 361.21C145.366 361.21 144.867 361.154 144.382 361.042C143.896 360.939 143.486 360.795 143.15 360.608V359.334C143.532 359.567 143.966 359.749 144.452 359.88C144.937 360.001 145.399 360.062 145.838 360.062C146.687 360.062 147.331 359.885 147.77 359.53C148.208 359.166 148.428 358.634 148.428 357.934C148.428 357.271 148.222 356.767 147.812 356.422C147.41 356.067 146.808 355.89 146.006 355.89C145.67 355.89 145.315 355.923 144.942 355.988C144.578 356.053 144.251 356.142 143.962 356.254L143.332 355.89L143.696 351.214H149.17V352.418H144.998L144.788 354.938C145.366 354.817 145.954 354.756 146.552 354.756C147.588 354.756 148.4 355.045 148.988 355.624C149.576 356.203 149.87 356.973 149.87 357.934C149.87 358.989 149.538 359.801 148.876 360.37C148.213 360.93 147.214 361.21 145.88 361.21ZM155.614 358.592H150.854V357.682L155.6 351.214H157.056V357.472H158.568V358.592H157.056V361H155.614V358.592ZM155.782 357.472V352.922L152.464 357.472H155.782ZM162.524 361.21C161.955 361.21 161.409 361.163 160.886 361.07C160.373 360.986 159.925 360.855 159.542 360.678V359.502C160.41 359.894 161.343 360.09 162.342 360.09C163.201 360.09 163.835 359.936 164.246 359.628C164.666 359.311 164.876 358.863 164.876 358.284C164.876 357.687 164.661 357.262 164.232 357.01C163.803 356.749 163.149 356.618 162.272 356.618H161.124V355.47H162.244C162.944 355.47 163.509 355.33 163.938 355.05C164.367 354.761 164.582 354.341 164.582 353.79C164.582 353.249 164.405 352.838 164.05 352.558C163.695 352.278 163.182 352.138 162.51 352.138C161.987 352.138 161.516 352.199 161.096 352.32C160.676 352.441 160.242 352.642 159.794 352.922V351.746C160.615 351.251 161.577 351.004 162.678 351.004C163.77 351.004 164.601 351.247 165.17 351.732C165.739 352.217 166.024 352.889 166.024 353.748C166.024 354.271 165.884 354.728 165.604 355.12C165.324 355.512 164.904 355.815 164.344 356.03C164.979 356.179 165.464 356.45 165.8 356.842C166.145 357.234 166.318 357.729 166.318 358.326C166.318 359.213 166.015 359.917 165.408 360.44C164.801 360.953 163.84 361.21 162.524 361.21ZM167.581 360.062L169.695 358.032C169.882 357.845 170.143 357.603 170.479 357.304C171.011 356.819 171.417 356.427 171.697 356.128C171.977 355.829 172.206 355.512 172.383 355.176C172.561 354.831 172.649 354.462 172.649 354.07C172.649 353.491 172.481 353.053 172.145 352.754C171.809 352.446 171.319 352.292 170.675 352.292C170.237 352.292 169.784 352.371 169.317 352.53C168.86 352.689 168.431 352.922 168.029 353.23V351.858C168.813 351.289 169.77 351.004 170.899 351.004C171.907 351.004 172.691 351.275 173.251 351.816C173.811 352.348 174.091 353.076 174.091 354C174.091 354.448 173.993 354.877 173.797 355.288C173.611 355.699 173.345 356.105 172.999 356.506C172.654 356.898 172.187 357.379 171.599 357.948L169.695 359.81H174.455V361H167.581V360.062ZM177.83 352.754L175.716 354.28V352.922L178.026 351.214H179.258V361H177.83V352.754Z" fill="#4E5256"/>
<rect x="75" y="411" width="240" height="44" rx="22" fill="#16AD78"/>
<path d="M120.444 431.889V428.556H117.111V426.333H120.444V423H122.667V426.333H126V428.556H122.667V431.889H120.444ZM124.833 443C122.519 443 120.231 442.495 117.972 441.486C115.713 440.477 113.657 439.046 111.806 437.194C109.954 435.343 108.523 433.287 107.514 431.028C106.505 428.769 106 426.481 106 424.167C106 423.833 106.111 423.556 106.333 423.333C106.556 423.111 106.833 423 107.167 423H111.667C111.926 423 112.157 423.088 112.361 423.264C112.565 423.44 112.685 423.648 112.722 423.889L113.444 427.778C113.481 428.074 113.472 428.324 113.417 428.528C113.361 428.731 113.259 428.907 113.111 429.056L110.417 431.778C110.787 432.463 111.227 433.125 111.736 433.764C112.245 434.403 112.806 435.019 113.417 435.611C113.991 436.185 114.593 436.718 115.222 437.208C115.852 437.699 116.519 438.148 117.222 438.556L119.833 435.944C120 435.778 120.218 435.653 120.486 435.569C120.755 435.486 121.019 435.463 121.278 435.5L125.111 436.278C125.37 436.352 125.583 436.486 125.75 436.681C125.917 436.875 126 437.093 126 437.333V441.833C126 442.167 125.889 442.444 125.667 442.667C125.444 442.889 125.167 443 124.833 443ZM109.361 429.667L111.194 427.833L110.722 425.222H108.25C108.343 425.981 108.472 426.731 108.639 427.472C108.806 428.213 109.046 428.944 109.361 429.667ZM119.306 439.611C120.028 439.926 120.764 440.176 121.514 440.361C122.264 440.546 123.019 440.667 123.778 440.722V438.278L121.167 437.75L119.306 439.611Z" fill="#FFF3F3"/>
<path d="M144.656 438C144.069 438 143.616 437.835 143.296 437.504C142.987 437.163 142.832 436.693 142.832 436.096V429.44H145.264V435.44C145.264 435.696 145.317 435.877 145.424 435.984C145.531 436.091 145.707 436.144 145.952 436.144H146.512V438H144.656ZM147.336 429.44H149.768L150.968 434.672L152.44 429.44H154.2L155.672 434.672L156.872 429.44H159.304L156.92 438H154.856L153.32 432.672L151.784 438H149.72L147.336 429.44ZM149.541 426.848H156.949V428.384H149.541V426.848ZM154.773 423.4H156.949V425.656H154.773V423.4ZM165.672 438.24C165.139 438.24 164.622 438.139 164.12 437.936C163.619 437.733 163.182 437.435 162.808 437.04V438H160.488V429.44H162.92V435.2C163.155 435.595 163.438 435.888 163.768 436.08C164.099 436.261 164.488 436.352 164.936 436.352C166.035 436.352 166.584 435.835 166.584 434.8V429.44H169V434.944C169 435.563 168.872 436.123 168.616 436.624C168.36 437.125 167.982 437.52 167.48 437.808C166.979 438.096 166.376 438.24 165.672 438.24ZM172.5 438C171.913 438 171.46 437.835 171.14 437.504C170.83 437.163 170.676 436.693 170.676 436.096V429.44H173.108V435.44C173.108 435.696 173.161 435.877 173.268 435.984C173.374 436.091 173.55 436.144 173.796 436.144H174.356V438H172.5ZM180.076 438.24C179.191 438.24 178.417 438.085 177.756 437.776C177.095 437.456 176.583 437.019 176.22 436.464C175.857 435.909 175.676 435.28 175.676 434.576V429.44H178.108V434.416C178.108 435.035 178.268 435.515 178.588 435.856C178.919 436.187 179.415 436.352 180.076 436.352C180.737 436.352 181.228 436.187 181.548 435.856C181.868 435.515 182.028 435.035 182.028 434.416V429.44H184.46V434.576C184.46 435.28 184.279 435.909 183.916 436.464C183.553 437.019 183.041 437.456 182.38 437.776C181.719 438.085 180.951 438.24 180.076 438.24ZM189.633 438.24C188.919 438.24 188.215 438.165 187.521 438.016C186.828 437.877 186.252 437.68 185.793 437.424V432.928H189.841V434.704H188.177V436.08C188.508 436.261 188.993 436.352 189.633 436.352C191.329 436.352 192.177 435.467 192.177 433.696C192.177 432.789 191.932 432.128 191.441 431.712C190.951 431.296 190.124 431.088 188.961 431.088C188.428 431.088 187.879 431.147 187.313 431.264C186.759 431.371 186.289 431.525 185.905 431.728V429.84C186.343 429.637 186.871 429.483 187.489 429.376C188.108 429.259 188.753 429.2 189.425 429.2C191.143 429.2 192.444 429.595 193.329 430.384C194.225 431.163 194.673 432.267 194.673 433.696C194.673 435.104 194.236 436.213 193.361 437.024C192.487 437.835 191.244 438.24 189.633 438.24ZM199.22 438.24C198.59 438.24 197.95 438.176 197.299 438.048C196.66 437.931 196.153 437.749 195.78 437.504V435.648C196.249 435.925 196.772 436.139 197.348 436.288C197.934 436.437 198.462 436.512 198.932 436.512C199.497 436.512 199.908 436.459 200.164 436.352C200.43 436.235 200.564 436.032 200.564 435.744C200.564 435.488 200.436 435.291 200.18 435.152C199.934 435.013 199.47 434.837 198.788 434.624L198.388 434.496C197.47 434.208 196.793 433.861 196.356 433.456C195.918 433.051 195.7 432.496 195.7 431.792C195.7 430.971 196.03 430.336 196.692 429.888C197.353 429.429 198.244 429.2 199.364 429.2C199.972 429.2 200.558 429.264 201.124 429.392C201.689 429.52 202.142 429.685 202.484 429.888V431.792C202.142 431.557 201.716 431.371 201.204 431.232C200.702 431.083 200.206 431.008 199.716 431.008C198.681 431.008 198.164 431.269 198.164 431.792C198.164 432.048 198.286 432.245 198.532 432.384C198.777 432.523 199.214 432.688 199.844 432.88L200.42 433.056C201.092 433.269 201.614 433.504 201.988 433.76C202.372 434.016 202.638 434.304 202.788 434.624C202.937 434.944 203.012 435.333 203.012 435.792C203.012 436.528 202.692 437.12 202.052 437.568C201.422 438.016 200.478 438.24 199.22 438.24ZM198.363 427.168C198.363 426.699 198.491 426.347 198.747 426.112C198.993 425.877 199.387 425.76 199.931 425.76H203.531V427.28H200.971C200.811 427.28 200.699 427.317 200.635 427.392C200.561 427.456 200.523 427.568 200.523 427.728V428.384H198.363V427.168ZM208.331 438.24C207.009 438.24 205.963 437.877 205.195 437.152C204.427 436.416 204.043 435.339 204.043 433.92C204.043 432.949 204.182 432.112 204.459 431.408C204.737 430.693 205.126 430.149 205.627 429.776C206.139 429.392 206.726 429.2 207.387 429.2C207.782 429.2 208.123 429.275 208.411 429.424C208.71 429.573 208.95 429.781 209.131 430.048C209.334 429.76 209.611 429.547 209.963 429.408C210.326 429.269 210.731 429.2 211.179 429.2C211.99 429.2 212.619 429.451 213.067 429.952C213.515 430.443 213.739 431.093 213.739 431.904V438H211.323V432.144C211.323 431.781 211.265 431.515 211.147 431.344C211.041 431.173 210.854 431.088 210.587 431.088C210.118 431.088 209.825 431.376 209.707 431.952H208.571C208.497 431.376 208.246 431.088 207.819 431.088C207.435 431.088 207.126 431.328 206.891 431.808C206.657 432.288 206.539 432.992 206.539 433.92C206.539 434.752 206.715 435.365 207.067 435.76C207.43 436.155 208.001 436.352 208.779 436.352C209.185 436.352 209.547 436.293 209.867 436.176V438.032C209.451 438.171 208.939 438.24 208.331 438.24ZM206.338 426.848H213.746V428.384H206.338V426.848ZM219.394 438.24C218.071 438.24 217.026 437.872 216.258 437.136C215.49 436.4 215.106 435.323 215.106 433.904C215.106 432.421 215.548 431.269 216.434 430.448C217.319 429.616 218.54 429.2 220.098 429.2C221.708 429.2 222.892 429.573 223.65 430.32C224.418 431.067 224.802 432.048 224.802 433.264V438H222.386V433.248C222.386 432.544 222.204 432.011 221.842 431.648C221.49 431.275 220.908 431.088 220.098 431.088C219.33 431.088 218.722 431.328 218.274 431.808C217.826 432.288 217.602 432.987 217.602 433.904C217.602 434.747 217.783 435.365 218.146 435.76C218.519 436.155 219.084 436.352 219.842 436.352C220.247 436.352 220.61 436.293 220.93 436.176V438.032C220.514 438.171 220.002 438.24 219.394 438.24ZM230.456 438.24C229.134 438.24 228.088 437.877 227.32 437.152C226.552 436.416 226.168 435.339 226.168 433.92C226.168 432.949 226.307 432.112 226.584 431.408C226.862 430.693 227.251 430.149 227.752 429.776C228.264 429.392 228.851 429.2 229.512 429.2C229.907 429.2 230.248 429.275 230.536 429.424C230.835 429.573 231.075 429.781 231.256 430.048C231.459 429.76 231.736 429.547 232.088 429.408C232.451 429.269 232.856 429.2 233.304 429.2C234.115 429.2 234.744 429.451 235.192 429.952C235.64 430.443 235.864 431.093 235.864 431.904V438H233.448V432.144C233.448 431.781 233.39 431.515 233.272 431.344C233.166 431.173 232.979 431.088 232.712 431.088C232.243 431.088 231.95 431.376 231.832 431.952H230.696C230.622 431.376 230.371 431.088 229.944 431.088C229.56 431.088 229.251 431.328 229.016 431.808C228.782 432.288 228.664 432.992 228.664 433.92C228.664 434.752 228.84 435.365 229.192 435.76C229.555 436.155 230.126 436.352 230.904 436.352C231.31 436.352 231.672 436.293 231.992 436.176V438.032C231.576 438.171 231.064 438.24 230.456 438.24ZM233.455 425.536H235.887V428.384H233.455V425.536ZM241.071 438.24C240.356 438.24 239.652 438.165 238.959 438.016C238.265 437.877 237.689 437.68 237.231 437.424V432.928H241.279V434.704H239.615V436.08C239.945 436.261 240.431 436.352 241.071 436.352C242.767 436.352 243.615 435.467 243.615 433.696C243.615 432.789 243.369 432.128 242.879 431.712C242.388 431.296 241.561 431.088 240.399 431.088C239.865 431.088 239.316 431.147 238.751 431.264C238.196 431.371 237.727 431.525 237.343 431.728V429.84C237.78 429.637 238.308 429.483 238.927 429.376C239.545 429.259 240.191 429.2 240.863 429.2C242.58 429.2 243.881 429.595 244.767 430.384C245.663 431.163 246.111 432.267 246.111 433.696C246.111 435.104 245.673 436.213 244.799 437.024C243.924 437.835 242.681 438.24 241.071 438.24ZM250.481 438.24C249.436 438.24 248.636 437.952 248.081 437.376C247.537 436.789 247.265 435.995 247.265 434.992V433.152H249.697V434.848C249.697 435.36 249.82 435.739 250.065 435.984C250.321 436.229 250.716 436.352 251.249 436.352C251.665 436.352 252.049 436.251 252.401 436.048C252.764 435.845 253.046 435.563 253.249 435.2V433.536C253.249 432.693 253.041 432.075 252.625 431.68C252.22 431.285 251.484 431.088 250.417 431.088C249.873 431.088 249.276 431.141 248.625 431.248C247.985 431.355 247.489 431.493 247.137 431.664V429.792C247.553 429.621 248.097 429.483 248.769 429.376C249.452 429.259 250.102 429.2 250.721 429.2C252.47 429.2 253.729 429.557 254.497 430.272C255.276 430.987 255.665 432.043 255.665 433.44V438H253.361V437.04C253.041 437.424 252.625 437.723 252.113 437.936C251.612 438.139 251.068 438.24 250.481 438.24ZM253.572 440.816C253.572 440.624 253.534 440.485 253.46 440.4C253.385 440.325 253.252 440.288 253.06 440.288H252.532V438.752H254.212C254.788 438.752 255.188 438.869 255.412 439.104C255.625 439.339 255.732 439.744 255.732 440.32V442.384H253.572V440.816ZM257.796 432.896L256.996 431.536C258.244 429.979 259.849 429.2 261.812 429.2C263.188 429.2 264.244 429.504 264.98 430.112C265.726 430.72 266.1 431.568 266.1 432.656V438H263.668V432.848C263.668 431.675 263.049 431.088 261.812 431.088C261.353 431.088 260.942 431.152 260.58 431.28C260.228 431.408 259.897 431.616 259.588 431.904L260.212 432.928V438H257.796V432.896ZM269.594 438C269.007 438 268.554 437.835 268.234 437.504C267.924 437.163 267.77 436.693 267.77 436.096V429.44H270.202V435.44C270.202 435.696 270.255 435.877 270.362 435.984C270.468 436.091 270.644 436.144 270.89 436.144H271.45V438H269.594ZM275.778 438.24C274.733 438.24 273.933 437.952 273.378 437.376C272.834 436.789 272.562 435.995 272.562 434.992V433.152H274.994V434.848C274.994 435.36 275.117 435.739 275.362 435.984C275.618 436.229 276.013 436.352 276.546 436.352C276.962 436.352 277.346 436.251 277.698 436.048C278.061 435.845 278.343 435.563 278.546 435.2V433.536C278.546 432.693 278.338 432.075 277.922 431.68C277.517 431.285 276.781 431.088 275.714 431.088C275.17 431.088 274.573 431.141 273.922 431.248C273.282 431.355 272.786 431.493 272.434 431.664V429.792C272.85 429.621 273.394 429.483 274.066 429.376C274.749 429.259 275.399 429.2 276.018 429.2C277.767 429.2 279.026 429.557 279.794 430.272C280.573 430.987 280.962 432.043 280.962 433.44V438H278.658V437.04C278.338 437.424 277.922 437.723 277.41 437.936C276.909 438.139 276.365 438.24 275.778 438.24ZM273.556 426.848H280.964V428.384H273.556V426.848ZM285.973 438.24C285.279 438.24 284.682 438.096 284.181 437.808C283.679 437.52 283.295 437.125 283.029 436.624C282.773 436.123 282.645 435.563 282.645 434.944V429.44H285.077V434.8C285.077 435.835 285.626 436.352 286.725 436.352C287.173 436.352 287.557 436.261 287.877 436.08C288.207 435.888 288.495 435.595 288.741 435.2V429.44H291.157V438H288.853V437.04C288.479 437.435 288.037 437.733 287.525 437.936C287.023 438.139 286.506 438.24 285.973 438.24Z" fill="white"/>
<path d="M338.773 188.948C339.252 188.435 340.065 188.435 340.544 188.948L347.725 196.635C348.443 197.403 348.443 198.597 347.725 199.365L340.544 207.052C340.065 207.565 339.252 207.565 338.773 207.052C338.338 206.587 338.338 205.863 338.773 205.398L344.408 199.365C345.126 198.597 345.126 197.403 344.408 196.635L338.773 190.602C338.338 190.137 338.338 189.413 338.773 188.948Z" fill="#535353"/>
<path d="M338.773 259.948C339.252 259.435 340.065 259.435 340.544 259.948L347.725 267.635C348.443 268.403 348.443 269.597 347.725 270.365L340.544 278.052C340.065 278.565 339.252 278.565 338.773 278.052C338.338 277.587 338.338 276.863 338.773 276.398L344.408 270.365C345.126 269.597 345.126 268.403 344.408 267.635L338.773 261.602C338.338 261.137 338.338 260.413 338.773 259.948Z" fill="#535353"/>
<path d="M338.773 340.948C339.252 340.435 340.065 340.435 340.544 340.948L347.725 348.635C348.443 349.403 348.443 350.597 347.725 351.365L340.544 359.052C340.065 359.565 339.252 359.565 338.773 359.052C338.338 358.587 338.338 357.863 338.773 357.398L344.408 351.365C345.126 350.597 345.126 349.403 344.408 348.635L338.773 342.602C338.338 342.137 338.338 341.413 338.773 340.948Z" fill="#535353"/>
<path fill-rule="evenodd" clip-rule="evenodd" d="M59 201.167V202.833H77V201.167H59ZM59 197V198.667H77V197H59Z" fill="#4E5256"/>
<path fill-rule="evenodd" clip-rule="evenodd" d="M59 272.167V273.833H77V272.167H59ZM59 268V269.667H77V268H59Z" fill="#4E5256"/>
<path fill-rule="evenodd" clip-rule="evenodd" d="M59 348.167V349.833H77V348.167H59ZM59 344V345.667H77V344H59Z" fill="#4E5256"/>
</svg>
