<svg width="390" height="849" viewBox="0 0 390 849" fill="none" xmlns="http://www.w3.org/2000/svg">
<rect y="5" width="390" height="844" rx="32" fill="white"/>
<path fill-rule="evenodd" clip-rule="evenodd" d="M121 838.5C121 837.119 122.119 836 123.5 836H266.5C267.881 836 269 837.119 269 838.5C269 839.881 267.881 841 266.5 841H123.5C122.119 841 121 839.881 121 838.5Z" fill="#090A0A"/>
<path d="M54.0688 36V26.1304H53.9194L50.9395 28.2305V26.2217L54.0688 24.022H56.2021V36H54.0688ZM63.4219 36.2988C62.4701 36.2988 61.6538 36.0443 60.9731 35.5352C60.298 35.026 59.7778 34.3011 59.4126 33.3604C59.0474 32.4196 58.8647 31.3045 58.8647 30.0151V29.9985C58.8647 28.7091 59.0474 27.5968 59.4126 26.6616C59.7778 25.7209 60.298 24.9959 60.9731 24.4868C61.6538 23.9777 62.4701 23.7231 63.4219 23.7231C64.3737 23.7231 65.1899 23.9777 65.8706 24.4868C66.5513 24.9959 67.0742 25.7209 67.4395 26.6616C67.8047 27.5968 67.9873 28.7091 67.9873 29.9985V30.0151C67.9873 31.3045 67.8047 32.4196 67.4395 33.3604C67.0742 34.3011 66.5513 35.026 65.8706 35.5352C65.1899 36.0443 64.3737 36.2988 63.4219 36.2988ZM63.4219 34.564C63.931 34.564 64.3654 34.3813 64.7251 34.0161C65.0848 33.6509 65.3587 33.1307 65.5469 32.4556C65.7406 31.7749 65.8374 30.9614 65.8374 30.0151V29.9985C65.8374 29.0522 65.7406 28.2415 65.5469 27.5664C65.3587 26.8857 65.0848 26.3656 64.7251 26.0059C64.3654 25.6406 63.931 25.458 63.4219 25.458C62.9128 25.458 62.4784 25.6406 62.1187 26.0059C61.7645 26.3656 61.4906 26.8857 61.2969 27.5664C61.1087 28.2415 61.0146 29.0522 61.0146 29.9985V30.0151C61.0146 30.9614 61.1087 31.7749 61.2969 32.4556C61.4906 33.1307 61.7645 33.6509 62.1187 34.0161C62.4784 34.3813 62.9128 34.564 63.4219 34.564ZM71.2974 34.3896C70.9211 34.3896 70.6056 34.2651 70.3511 34.0161C70.1021 33.7616 69.9775 33.4517 69.9775 33.0864C69.9775 32.7157 70.1021 32.4058 70.3511 32.1567C70.6056 31.9022 70.9211 31.7749 71.2974 31.7749C71.6792 31.7749 71.9946 31.9022 72.2437 32.1567C72.4927 32.4058 72.6172 32.7157 72.6172 33.0864C72.6172 33.4517 72.4927 33.7616 72.2437 34.0161C71.9946 34.2651 71.6792 34.3896 71.2974 34.3896ZM71.2974 28.2305C70.9211 28.2305 70.6056 28.106 70.3511 27.8569C70.1021 27.6024 69.9775 27.2925 69.9775 26.9272C69.9775 26.5565 70.1021 26.2466 70.3511 25.9976C70.6056 25.743 70.9211 25.6157 71.2974 25.6157C71.6792 25.6157 71.9946 25.743 72.2437 25.9976C72.4927 26.2466 72.6172 26.5565 72.6172 26.9272C72.6172 27.2925 72.4927 27.6024 72.2437 27.8569C71.9946 28.106 71.6792 28.2305 71.2974 28.2305ZM79.1562 36.2988C78.2044 36.2988 77.3882 36.0443 76.7075 35.5352C76.0324 35.026 75.5122 34.3011 75.147 33.3604C74.7817 32.4196 74.5991 31.3045 74.5991 30.0151V29.9985C74.5991 28.7091 74.7817 27.5968 75.147 26.6616C75.5122 25.7209 76.0324 24.9959 76.7075 24.4868C77.3882 23.9777 78.2044 23.7231 79.1562 23.7231C80.1081 23.7231 80.9243 23.9777 81.605 24.4868C82.2856 24.9959 82.8086 25.7209 83.1738 26.6616C83.5391 27.5968 83.7217 28.7091 83.7217 29.9985V30.0151C83.7217 31.3045 83.5391 32.4196 83.1738 33.3604C82.8086 34.3011 82.2856 35.026 81.605 35.5352C80.9243 36.0443 80.1081 36.2988 79.1562 36.2988ZM79.1562 34.564C79.6654 34.564 80.0998 34.3813 80.4595 34.0161C80.8192 33.6509 81.0931 33.1307 81.2812 32.4556C81.4749 31.7749 81.5718 30.9614 81.5718 30.0151V29.9985C81.5718 29.0522 81.4749 28.2415 81.2812 27.5664C81.0931 26.8857 80.8192 26.3656 80.4595 26.0059C80.0998 25.6406 79.6654 25.458 79.1562 25.458C78.6471 25.458 78.2127 25.6406 77.853 26.0059C77.4989 26.3656 77.2249 26.8857 77.0312 27.5664C76.8431 28.2415 76.749 29.0522 76.749 29.9985V30.0151C76.749 30.9614 76.8431 31.7749 77.0312 32.4556C77.2249 33.1307 77.4989 33.6509 77.853 34.0161C78.2127 34.3813 78.6471 34.564 79.1562 34.564ZM89.9619 36.2988C89.0101 36.2988 88.1938 36.0443 87.5132 35.5352C86.8381 35.026 86.3179 34.3011 85.9526 33.3604C85.5874 32.4196 85.4048 31.3045 85.4048 30.0151V29.9985C85.4048 28.7091 85.5874 27.5968 85.9526 26.6616C86.3179 25.7209 86.8381 24.9959 87.5132 24.4868C88.1938 23.9777 89.0101 23.7231 89.9619 23.7231C90.9137 23.7231 91.73 23.9777 92.4106 24.4868C93.0913 24.9959 93.6143 25.7209 93.9795 26.6616C94.3447 27.5968 94.5273 28.7091 94.5273 29.9985V30.0151C94.5273 31.3045 94.3447 32.4196 93.9795 33.3604C93.6143 34.3011 93.0913 35.026 92.4106 35.5352C91.73 36.0443 90.9137 36.2988 89.9619 36.2988ZM89.9619 34.564C90.471 34.564 90.9054 34.3813 91.2651 34.0161C91.6248 33.6509 91.8988 33.1307 92.0869 32.4556C92.2806 31.7749 92.3774 30.9614 92.3774 30.0151V29.9985C92.3774 29.0522 92.2806 28.2415 92.0869 27.5664C91.8988 26.8857 91.6248 26.3656 91.2651 26.0059C90.9054 25.6406 90.471 25.458 89.9619 25.458C89.4528 25.458 89.0184 25.6406 88.6587 26.0059C88.3045 26.3656 88.0306 26.8857 87.8369 27.5664C87.6488 28.2415 87.5547 29.0522 87.5547 29.9985V30.0151C87.5547 30.9614 87.6488 31.7749 87.8369 32.4556C88.0306 33.1307 88.3045 33.6509 88.6587 34.0161C89.0184 34.3813 89.4528 34.564 89.9619 34.564Z" fill="black"/>
<path d="M288.333 31C288.977 31 289.5 31.5037 289.5 32.125V34.375C289.5 34.9963 288.977 35.5 288.333 35.5H287.167C286.523 35.5 286 34.9963 286 34.375V32.125C286 31.5037 286.523 31 287.167 31H288.333ZM293.823 28.75C294.468 28.75 294.99 29.2537 294.99 29.875V34.375C294.99 34.9963 294.468 35.5 293.823 35.5H292.657C292.013 35.5 291.49 34.9963 291.49 34.375V29.875C291.49 29.2537 292.013 28.75 292.657 28.75H293.823ZM299.313 26.125C299.958 26.125 300.48 26.6287 300.48 27.25V34.375C300.48 34.9963 299.958 35.5 299.313 35.5H298.147C297.503 35.5 296.98 34.9963 296.98 34.375V27.25C296.981 26.6287 297.503 26.125 298.147 26.125H299.313ZM304.804 23.5C305.448 23.5 305.971 24.0037 305.971 24.625V34.375C305.971 34.9963 305.448 35.5 304.804 35.5H303.638C302.993 35.5 302.471 34.9963 302.471 34.375V24.625C302.471 24.0037 302.993 23.5 303.638 23.5H304.804Z" fill="black"/>
<path d="M318.512 32.8262C319.932 31.5964 322.011 31.5964 323.431 32.8262C323.502 32.8924 323.544 32.9855 323.546 33.084C323.548 33.1826 323.51 33.2777 323.441 33.3467L321.218 35.6446C321.153 35.7121 321.063 35.7501 320.971 35.7501C320.878 35.7499 320.79 35.7119 320.725 35.6446L318.501 33.3467C318.432 33.2776 318.394 33.1826 318.396 33.084C318.399 32.9855 318.44 32.8923 318.512 32.8262ZM315.545 29.7608C318.604 26.8467 323.341 26.8467 326.4 29.7608C326.469 29.829 326.509 29.9225 326.51 30.0206C326.511 30.1188 326.473 30.2135 326.405 30.2833L325.12 31.6133C324.988 31.7491 324.774 31.7524 324.638 31.6202C323.633 30.6886 322.326 30.1728 320.971 30.1729C319.617 30.1736 318.311 30.6895 317.308 31.6202C317.172 31.7524 316.958 31.7491 316.825 31.6133L315.54 30.2833C315.472 30.2136 315.435 30.1189 315.436 30.0206C315.437 29.9224 315.476 29.829 315.545 29.7608ZM312.578 26.7032C317.27 22.0989 324.671 22.099 329.363 26.7032C329.431 26.7716 329.47 26.8654 329.471 26.963C329.471 27.0605 329.433 27.1545 329.366 27.2237L328.08 28.5538C327.947 28.6901 327.732 28.691 327.598 28.5567C325.81 26.8164 323.437 25.8459 320.971 25.8458C318.504 25.8459 316.131 26.8163 314.344 28.5567C314.209 28.6913 313.994 28.6904 313.861 28.5538L312.574 27.2237C312.507 27.1545 312.47 27.0605 312.471 26.963C312.471 26.8654 312.51 26.7715 312.578 26.7032Z" fill="black"/>
<rect opacity="0.4" x="336.471" y="23.5" width="24" height="12" rx="3.5" stroke="black"/>
<path opacity="0.5" d="M361.971 27.5V31.5C362.777 31.1612 363.301 30.3731 363.301 29.5C363.301 28.6269 362.777 27.8388 361.971 27.5Z" fill="black"/>
<rect x="337.971" y="25" width="17" height="9" rx="2" fill="black"/>
<path d="M128.186 565.21C127.103 565.21 126.24 565.005 125.596 564.594C124.952 564.183 124.63 563.586 124.63 562.802C124.63 562.391 124.742 562.032 124.966 561.724C125.199 561.407 125.507 561.187 125.89 561.066C125.526 560.907 125.232 560.679 125.008 560.38C124.793 560.081 124.686 559.736 124.686 559.344C124.686 558.728 124.891 558.233 125.302 557.86C125.713 557.487 126.315 557.3 127.108 557.3C127.332 557.3 127.561 557.319 127.794 557.356C128.027 557.384 128.214 557.417 128.354 557.454V558.574C128.233 558.527 128.074 558.495 127.878 558.476C127.691 558.448 127.519 558.434 127.36 558.434C126.959 558.434 126.651 558.523 126.436 558.7C126.231 558.868 126.128 559.111 126.128 559.428C126.128 559.764 126.24 560.021 126.464 560.198C126.688 560.375 127.019 560.464 127.458 560.464H128.354V561.64H127.472C127.024 561.64 126.679 561.738 126.436 561.934C126.193 562.121 126.072 562.41 126.072 562.802C126.072 563.213 126.259 563.53 126.632 563.754C127.015 563.978 127.533 564.09 128.186 564.09C129.726 564.09 130.496 563.437 130.496 562.13V557.51H131.924V562.102C131.924 562.625 131.803 563.124 131.56 563.6C131.317 564.067 130.916 564.454 130.356 564.762C129.805 565.061 129.082 565.21 128.186 565.21ZM129.29 556.404C128.889 556.404 128.599 556.306 128.422 556.11C128.235 555.905 128.142 555.601 128.142 555.2V554.472H129.43V555.032C129.43 555.191 129.463 555.298 129.528 555.354C129.584 555.41 129.696 555.438 129.864 555.438H133.168V556.404H129.29ZM133.462 558.448H134.89L136.668 563.88C137.545 563.88 138.222 563.637 138.698 563.152C139.174 562.667 139.412 561.981 139.412 561.094C139.412 560.217 139.249 559.554 138.922 559.106C138.595 558.658 138.073 558.434 137.354 558.434C137.018 558.434 136.691 558.476 136.374 558.56V557.454C136.747 557.351 137.153 557.3 137.592 557.3C138.656 557.3 139.468 557.636 140.028 558.308C140.588 558.98 140.868 559.909 140.868 561.094C140.868 561.906 140.691 562.606 140.336 563.194C139.991 563.782 139.519 564.23 138.922 564.538C138.325 564.846 137.662 565 136.934 565H135.59L133.462 558.448ZM144.286 564.986C143.829 564.986 143.479 564.86 143.236 564.608C143.003 564.347 142.886 563.983 142.886 563.516V558.21C142.886 557.585 142.975 557.071 143.152 556.67C143.329 556.269 143.628 555.937 144.048 555.676H141.5V554.472H145.91V555.62C145.35 555.863 144.944 556.175 144.692 556.558C144.44 556.941 144.314 557.473 144.314 558.154V563.11C144.314 563.362 144.365 563.539 144.468 563.642C144.571 563.735 144.748 563.782 145 563.782H145.504V564.986H144.286ZM151.105 565.21C150.592 565.21 150.102 565.107 149.635 564.902C149.178 564.697 148.767 564.393 148.403 563.992V565H147.031V557.51H148.459V562.802C149.01 563.661 149.766 564.09 150.727 564.09C151.334 564.09 151.791 563.95 152.099 563.67C152.416 563.381 152.575 562.956 152.575 562.396V557.51H154.003V562.452C154.003 563.264 153.746 563.927 153.233 564.44C152.72 564.953 152.01 565.21 151.105 565.21ZM152.616 554.066H154.03V556.404H152.616V554.066ZM159.896 565.21C159.383 565.21 158.893 565.107 158.426 564.902C157.969 564.697 157.558 564.393 157.194 563.992V565H155.822V557.51H157.25V562.802C157.801 563.661 158.557 564.09 159.518 564.09C160.125 564.09 160.582 563.95 160.89 563.67C161.207 563.381 161.366 562.956 161.366 562.396V557.51H162.794V562.452C162.794 563.264 162.537 563.927 162.024 564.44C161.511 564.953 160.801 565.21 159.896 565.21ZM156.731 555.438H161.477V553.94H162.779V556.404H156.731V555.438ZM168.211 565.21C167.483 565.21 166.848 565.079 166.307 564.818C165.766 564.557 165.346 564.193 165.047 563.726C164.758 563.25 164.613 562.709 164.613 562.102V557.51H166.041V562.074C166.041 562.699 166.223 563.194 166.587 563.558C166.96 563.913 167.502 564.09 168.211 564.09C168.911 564.09 169.443 563.913 169.807 563.558C170.18 563.194 170.367 562.699 170.367 562.074V557.51H171.795V562.102C171.795 562.709 171.646 563.25 171.347 563.726C171.058 564.193 170.642 564.557 170.101 564.818C169.56 565.079 168.93 565.21 168.211 565.21ZM169.157 556.404C168.756 556.404 168.467 556.306 168.289 556.11C168.103 555.905 168.009 555.601 168.009 555.2V554.472H169.297V555.032C169.297 555.191 169.33 555.298 169.395 555.354C169.451 555.41 169.563 555.438 169.731 555.438H173.035V556.404H169.157ZM182.541 566.372C182.047 566.372 181.552 566.316 181.057 566.204C180.563 566.101 180.171 565.961 179.881 565.784V564.594C180.665 565.033 181.552 565.252 182.541 565.252C183.204 565.252 183.727 565.163 184.109 564.986C184.492 564.809 184.683 564.543 184.683 564.188C184.683 563.908 184.595 563.675 184.417 563.488C184.165 563.647 183.857 563.773 183.493 563.866C183.139 563.959 182.765 564.006 182.373 564.006C181.3 564.006 180.474 563.731 179.895 563.18C179.326 562.629 179.041 561.887 179.041 560.954V560.31C179.041 559.666 178.883 559.195 178.565 558.896C178.257 558.588 177.781 558.434 177.137 558.434C176.652 558.434 176.227 558.509 175.863 558.658C175.509 558.807 175.173 559.055 174.855 559.4L175.457 560.338V563.11C175.457 563.371 175.509 563.553 175.611 563.656C175.723 563.759 175.905 563.81 176.157 563.81H176.941V565H175.457C174.991 565 174.636 564.869 174.393 564.608C174.151 564.347 174.029 563.987 174.029 563.53V560.338L173.329 559.204C173.824 558.579 174.375 558.107 174.981 557.79C175.588 557.463 176.307 557.3 177.137 557.3C178.22 557.3 179.041 557.557 179.601 558.07C180.171 558.574 180.455 559.283 180.455 560.198V560.898C180.455 561.542 180.605 562.037 180.903 562.382C181.202 562.718 181.692 562.886 182.373 562.886C183.055 562.886 183.563 562.709 183.899 562.354C184.245 561.99 184.417 561.495 184.417 560.87V557.51H185.845V560.954C185.845 561.654 185.673 562.247 185.327 562.732C185.561 562.937 185.729 563.157 185.831 563.39C185.943 563.623 185.999 563.889 185.999 564.188C185.999 564.888 185.677 565.425 185.033 565.798C184.399 566.181 183.568 566.372 182.541 566.372ZM190.8 565.21C190.137 565.21 189.554 565.093 189.05 564.86C188.546 564.627 188.154 564.3 187.874 563.88C187.603 563.451 187.468 562.961 187.468 562.41V561.934C187.468 561.617 187.538 561.323 187.678 561.052C187.818 560.772 188.009 560.469 188.252 560.142C188.429 559.899 188.555 559.703 188.63 559.554C188.714 559.405 188.756 559.265 188.756 559.134C188.756 558.957 188.709 558.831 188.616 558.756C188.532 558.681 188.387 558.644 188.182 558.644H187.398V557.51H188.868C189.278 557.51 189.6 557.631 189.834 557.874C190.076 558.107 190.198 558.42 190.198 558.812C190.198 559.083 190.142 559.335 190.03 559.568C189.918 559.792 189.75 560.067 189.526 560.394C189.302 560.73 189.138 561.001 189.036 561.206C188.942 561.411 188.896 561.635 188.896 561.878V562.396C188.896 562.928 189.064 563.343 189.4 563.642C189.736 563.941 190.202 564.09 190.8 564.09C191.434 564.09 191.929 563.917 192.284 563.572C192.638 563.227 192.816 562.718 192.816 562.046C192.816 561.374 192.676 560.87 192.396 560.534C192.116 560.198 191.705 560.03 191.164 560.03V559.26L192.662 557.3H194.202L192.62 559.386C193.189 559.601 193.6 559.932 193.852 560.38C194.113 560.819 194.244 561.374 194.244 562.046C194.244 562.69 194.099 563.25 193.81 563.726C193.53 564.202 193.128 564.571 192.606 564.832C192.083 565.084 191.481 565.21 190.8 565.21ZM187.971 555.438H192.717V553.94H194.019V556.404H187.971V555.438ZM202.449 561.92C202.449 561.351 202.556 560.875 202.771 560.492C202.986 560.109 203.35 559.741 203.863 559.386C204.236 559.125 204.516 558.919 204.703 558.77C204.89 558.611 205.034 558.439 205.137 558.252C205.249 558.056 205.305 557.827 205.305 557.566C205.305 557.146 205.137 556.815 204.801 556.572C204.465 556.329 203.98 556.208 203.345 556.208C202.412 556.208 201.548 556.395 200.755 556.768V555.536C201.128 555.377 201.534 555.251 201.973 555.158C202.421 555.055 202.878 555.004 203.345 555.004C204.372 555.004 205.188 555.233 205.795 555.69C206.402 556.147 206.705 556.773 206.705 557.566C206.705 558.051 206.579 558.467 206.327 558.812C206.075 559.157 205.678 559.526 205.137 559.918C204.745 560.198 204.465 560.422 204.297 560.59C204.129 560.749 204.008 560.931 203.933 561.136C203.858 561.332 203.821 561.598 203.821 561.934V562.214H202.449V561.92ZM203.121 565.21C202.888 565.21 202.692 565.131 202.533 564.972C202.374 564.813 202.295 564.617 202.295 564.384C202.295 564.151 202.374 563.955 202.533 563.796C202.692 563.637 202.888 563.558 203.121 563.558C203.354 563.558 203.55 563.637 203.709 563.796C203.877 563.955 203.961 564.151 203.961 564.384C203.961 564.617 203.877 564.813 203.709 564.972C203.55 565.131 203.354 565.21 203.121 565.21Z" fill="#4E5256"/>
<rect x="36.5" y="272.5" width="326" height="43" rx="7.5" fill="white"/>
<rect x="36.5" y="272.5" width="326" height="43" rx="7.5" stroke="#D3D3D3"/>
<path d="M54.682 299.21C54.1033 299.21 53.5433 299.14 53.002 299C52.4607 298.869 52.0033 298.683 51.63 298.44V294.716H54.738V295.864H53.058V297.726C53.4593 297.969 54.0007 298.09 54.682 298.09C55.578 298.09 56.2593 297.843 56.726 297.348C57.202 296.853 57.44 296.135 57.44 295.192C57.44 294.249 57.1973 293.554 56.712 293.106C56.236 292.658 55.452 292.434 54.36 292.434C53.8653 292.434 53.38 292.485 52.904 292.588C52.428 292.681 52.0267 292.835 51.7 293.05V291.916C52.064 291.711 52.4933 291.557 52.988 291.454C53.4827 291.351 54.0147 291.3 54.584 291.3C55.984 291.3 57.0527 291.641 57.79 292.322C58.5273 293.003 58.896 293.96 58.896 295.192C58.896 296.433 58.5273 297.413 57.79 298.132C57.062 298.851 56.026 299.21 54.682 299.21ZM52.5592 289.438H57.3052V287.94H58.6073V290.404H52.5592V289.438ZM61.8413 299C61.3839 299 61.0339 298.874 60.7913 298.622C60.5579 298.361 60.4413 297.997 60.4413 297.53V291.51H61.8693V297.138C61.8693 297.39 61.9206 297.567 62.0233 297.67C62.1259 297.763 62.3033 297.81 62.5553 297.81H63.0593V299H61.8413ZM68.6715 299.21C68.1582 299.21 67.6682 299.107 67.2015 298.902C66.7442 298.697 66.3335 298.393 65.9695 297.992V299H64.5975V291.51H66.0255V296.802C66.5762 297.661 67.3322 298.09 68.2935 298.09C68.9002 298.09 69.3575 297.95 69.6655 297.67C69.9828 297.381 70.1415 296.956 70.1415 296.396V291.51H71.5695V296.452C71.5695 297.264 71.3128 297.927 70.7995 298.44C70.2862 298.953 69.5768 299.21 68.6715 299.21ZM75.8245 299.21C74.9938 299.21 74.3312 299.005 73.8365 298.594C73.3512 298.174 73.1085 297.581 73.1085 296.816C73.1085 296.06 73.3792 295.458 73.9205 295.01C74.4712 294.562 75.2132 294.338 76.1465 294.338C77.0705 294.338 77.9012 294.511 78.6385 294.856V294.282C78.6385 293.638 78.4612 293.171 78.1065 292.882C77.7612 292.583 77.1825 292.434 76.3705 292.434C75.9225 292.434 75.4838 292.476 75.0545 292.56C74.6252 292.644 74.2518 292.761 73.9345 292.91V291.79C74.2238 291.65 74.6158 291.533 75.1105 291.44C75.6145 291.347 76.1045 291.3 76.5805 291.3C77.7472 291.3 78.6198 291.566 79.1985 292.098C79.7772 292.63 80.0665 293.349 80.0665 294.254V299H78.6385V295.99C77.9572 295.645 77.1778 295.472 76.3005 295.472C75.6938 295.472 75.2458 295.584 74.9565 295.808C74.6765 296.032 74.5365 296.368 74.5365 296.816C74.5365 297.665 75.0825 298.09 76.1745 298.09C76.5105 298.09 76.8045 298.043 77.0565 297.95V299.056C76.7205 299.159 76.3098 299.21 75.8245 299.21Z" fill="#4E5256"/>
<rect x="91" y="494" width="217" height="44" rx="22" fill="#16AD78"/>
<path d="M168.656 521C168.069 521 167.616 520.835 167.296 520.504C166.987 520.163 166.832 519.693 166.832 519.096V512.44H169.264V518.44C169.264 518.696 169.317 518.877 169.424 518.984C169.531 519.091 169.707 519.144 169.952 519.144H170.512V521H168.656ZM175.752 521.24C174.899 521.24 174.158 521.107 173.528 520.84C172.91 520.573 172.435 520.2 172.104 519.72C171.774 519.24 171.608 518.696 171.608 518.088V517.688C171.608 517.304 171.683 516.963 171.832 516.664C171.982 516.355 172.19 516.008 172.456 515.624C172.627 515.389 172.75 515.203 172.824 515.064C172.899 514.915 172.936 514.776 172.936 514.648C172.936 514.349 172.755 514.2 172.392 514.2H171.496V512.44H173.816C174.296 512.44 174.68 512.579 174.968 512.856C175.256 513.133 175.4 513.496 175.4 513.944C175.4 514.264 175.342 514.563 175.224 514.84C175.107 515.107 174.931 515.416 174.696 515.768C174.472 516.12 174.302 516.419 174.184 516.664C174.078 516.909 174.024 517.176 174.024 517.464V517.8C174.024 518.301 174.168 518.685 174.456 518.952C174.755 519.219 175.187 519.352 175.752 519.352C176.872 519.352 177.432 518.813 177.432 517.736V512.44H179.864V517.48C179.864 518.643 179.507 519.56 178.792 520.232C178.088 520.904 177.075 521.24 175.752 521.24ZM175.951 510.36C175.951 510.243 175.93 510.163 175.887 510.12C175.834 510.067 175.748 510.04 175.631 510.04H174.879V508.392H176.383C176.778 508.392 177.066 508.483 177.247 508.664C177.418 508.845 177.503 509.075 177.503 509.352V509.832H180.719V511.384H175.951V510.36ZM184.111 515.672C184.111 515.117 183.994 514.717 183.759 514.472C183.524 514.216 183.114 514.088 182.527 514.088C181.962 514.088 181.391 514.232 180.815 514.52V512.68C181.071 512.552 181.412 512.44 181.839 512.344C182.276 512.248 182.698 512.2 183.103 512.2C184.223 512.2 185.076 512.499 185.663 513.096C186.25 513.693 186.543 514.557 186.543 515.688V521H184.111V515.672ZM191.103 521.24C190.122 521.24 189.338 520.995 188.751 520.504C188.175 520.013 187.887 519.32 187.887 518.424C187.887 517.528 188.202 516.824 188.831 516.312C189.471 515.8 190.346 515.544 191.455 515.544C192.49 515.544 193.375 515.715 194.111 516.056V515.72C194.111 515.144 193.919 514.717 193.535 514.44C193.162 514.163 192.554 514.024 191.711 514.024C191.188 514.024 190.676 514.077 190.175 514.184C189.674 514.291 189.226 514.44 188.831 514.632V512.808C189.183 512.637 189.668 512.493 190.287 512.376C190.906 512.259 191.53 512.2 192.159 512.2C192.874 512.2 193.54 512.307 194.159 512.52L194.783 511.8H197.423L195.839 513.64C196.298 514.163 196.527 514.851 196.527 515.704V521H194.111V517.816C193.492 517.496 192.767 517.336 191.935 517.336C191.391 517.336 190.991 517.427 190.735 517.608C190.49 517.789 190.367 518.072 190.367 518.456C190.367 518.808 190.479 519.075 190.703 519.256C190.938 519.427 191.306 519.512 191.807 519.512C192.159 519.512 192.458 519.459 192.703 519.352V521.032C192.287 521.171 191.754 521.24 191.103 521.24ZM194.41 525.48C193.621 525.48 193.013 525.325 192.586 525.016C192.149 524.707 191.93 524.296 191.93 523.784V523.496C191.93 523.357 191.909 523.261 191.866 523.208C191.813 523.155 191.722 523.128 191.594 523.128H191.066V521.752H192.874C193.194 521.752 193.418 521.821 193.546 521.96C193.663 522.109 193.722 522.339 193.722 522.648V523.528C193.722 523.912 193.925 524.104 194.33 524.104C194.725 524.104 194.922 523.912 194.922 523.528V521.752H196.714V523.72C196.714 524.232 196.517 524.653 196.122 524.984C195.717 525.315 195.146 525.48 194.41 525.48ZM194.314 508.536H196.746V511.384H194.314V508.536ZM201.61 521.24C200.981 521.24 200.341 521.176 199.69 521.048C199.05 520.931 198.543 520.749 198.17 520.504V518.648C198.639 518.925 199.162 519.139 199.738 519.288C200.325 519.437 200.853 519.512 201.322 519.512C201.887 519.512 202.298 519.459 202.554 519.352C202.821 519.235 202.954 519.032 202.954 518.744C202.954 518.488 202.826 518.291 202.57 518.152C202.325 518.013 201.861 517.837 201.178 517.624L200.778 517.496C199.861 517.208 199.183 516.861 198.746 516.456C198.309 516.051 198.09 515.496 198.09 514.792C198.09 513.971 198.421 513.336 199.082 512.888C199.743 512.429 200.634 512.2 201.754 512.2C202.362 512.2 202.949 512.264 203.514 512.392C204.079 512.52 204.533 512.685 204.874 512.888V514.792C204.533 514.557 204.106 514.371 203.594 514.232C203.093 514.083 202.597 514.008 202.106 514.008C201.071 514.008 200.554 514.269 200.554 514.792C200.554 515.048 200.677 515.245 200.922 515.384C201.167 515.523 201.605 515.688 202.234 515.88L202.81 516.056C203.482 516.269 204.005 516.504 204.378 516.76C204.762 517.016 205.029 517.304 205.178 517.624C205.327 517.944 205.402 518.333 205.402 518.792C205.402 519.528 205.082 520.12 204.442 520.568C203.813 521.016 202.869 521.24 201.61 521.24ZM207.938 515.992C207.405 515.992 207.021 515.875 206.786 515.64C206.551 515.395 206.434 515.027 206.434 514.536V513.288H208.61V513.976C208.61 514.115 208.642 514.216 208.706 514.28C208.77 514.344 208.882 514.376 209.042 514.376H210.93V515.992H207.938ZM207.938 520.312C207.405 520.312 207.021 520.189 206.786 519.944C206.551 519.699 206.434 519.331 206.434 518.84V517.592H208.61V518.28C208.61 518.419 208.642 518.52 208.706 518.584C208.77 518.648 208.882 518.68 209.042 518.68H210.93V520.312H207.938ZM216.686 521.24C215.8 521.24 215.027 521.085 214.366 520.776C213.704 520.456 213.192 520.019 212.83 519.464C212.467 518.909 212.286 518.28 212.286 517.576V512.44H214.718V517.416C214.718 518.035 214.878 518.515 215.198 518.856C215.528 519.187 216.024 519.352 216.686 519.352C217.347 519.352 217.838 519.187 218.158 518.856C218.478 518.515 218.638 518.035 218.638 517.416V512.44H221.07V517.576C221.07 518.28 220.888 518.909 220.526 519.464C220.163 520.019 219.651 520.456 218.99 520.776C218.328 521.085 217.56 521.24 216.686 521.24ZM227.139 521.24C226.253 521.24 225.48 521.085 224.819 520.776C224.157 520.456 223.645 520.019 223.283 519.464C222.92 518.909 222.739 518.28 222.739 517.576V512.44H225.171V517.416C225.171 518.035 225.331 518.515 225.651 518.856C225.981 519.187 226.477 519.352 227.139 519.352C227.8 519.352 228.291 519.187 228.611 518.856C228.931 518.515 229.091 518.035 229.091 517.416V512.44H231.523V517.576C231.523 518.28 231.341 518.909 230.979 519.464C230.616 520.019 230.104 520.456 229.443 520.776C228.781 521.085 228.013 521.24 227.139 521.24Z" fill="white"/>
<path d="M215.227 565.21C214.396 565.21 213.724 565 213.211 564.58C212.707 564.16 212.455 563.567 212.455 562.802C212.455 562.298 212.581 561.855 212.833 561.472C213.094 561.089 213.458 560.791 213.925 560.576C214.401 560.361 214.956 560.254 215.591 560.254C216.496 560.254 217.28 560.408 217.943 560.716V560.38C217.943 559.801 217.77 559.377 217.425 559.106C217.089 558.826 216.543 558.686 215.787 558.686C215.329 558.686 214.877 558.733 214.429 558.826C213.99 558.919 213.607 559.045 213.281 559.204V557.818C213.579 557.678 213.99 557.557 214.513 557.454C215.045 557.351 215.563 557.3 216.067 557.3C217.28 557.3 218.19 557.575 218.797 558.126C219.403 558.677 219.707 559.414 219.707 560.338V565H217.943V562.116C217.317 561.799 216.603 561.64 215.801 561.64C215.278 561.64 214.886 561.743 214.625 561.948C214.373 562.144 214.247 562.433 214.247 562.816C214.247 563.161 214.363 563.418 214.597 563.586C214.83 563.745 215.199 563.824 215.703 563.824C216.02 563.824 216.295 563.777 216.529 563.684V565.042C216.183 565.154 215.749 565.21 215.227 565.21ZM221.109 558.448H222.887L224.525 563.614C225.309 563.614 225.911 563.395 226.331 562.956C226.76 562.508 226.975 561.873 226.975 561.052C226.975 560.259 226.83 559.666 226.541 559.274C226.251 558.882 225.789 558.686 225.155 558.686C224.809 558.686 224.487 558.733 224.189 558.826V557.468C224.553 557.356 224.977 557.3 225.463 557.3C226.555 557.3 227.381 557.631 227.941 558.294C228.51 558.957 228.795 559.876 228.795 561.052C228.795 561.873 228.613 562.583 228.249 563.18C227.894 563.777 227.413 564.23 226.807 564.538C226.2 564.846 225.528 565 224.791 565H223.181L221.109 558.448ZM230.194 557.51H231.902V558.434C232.256 558.061 232.667 557.781 233.134 557.594C233.61 557.398 234.086 557.3 234.562 557.3C235.486 557.3 236.19 557.561 236.676 558.084C237.161 558.597 237.404 559.26 237.404 560.072V565H235.626V560.156C235.626 559.176 235.103 558.686 234.058 558.686C233.152 558.686 232.457 559.069 231.972 559.834V565H230.194V557.51ZM240.018 560.534C239.57 560.534 239.253 560.431 239.066 560.226C238.889 560.021 238.8 559.703 238.8 559.274V558.378H240.396V558.952C240.396 559.092 240.424 559.19 240.48 559.246C240.546 559.302 240.653 559.33 240.802 559.33H242.454V560.534H240.018ZM240.018 564.328C239.57 564.328 239.253 564.225 239.066 564.02C238.889 563.815 238.8 563.497 238.8 563.068V562.172H240.396V562.746C240.396 562.886 240.424 562.984 240.48 563.04C240.546 563.096 240.653 563.124 240.802 563.124H242.454V564.328H240.018ZM245.35 565C244.864 565 244.491 564.865 244.23 564.594C243.978 564.314 243.852 563.927 243.852 563.432V557.51H245.63V562.872C245.63 563.115 245.681 563.283 245.784 563.376C245.886 563.469 246.054 563.516 246.288 563.516H246.778V565H245.35ZM251.924 565.21C251.177 565.21 250.519 565.075 249.95 564.804C249.39 564.533 248.956 564.16 248.648 563.684C248.349 563.199 248.2 562.648 248.2 562.032V557.51H249.978V561.962C249.978 562.55 250.141 563.007 250.468 563.334C250.795 563.661 251.28 563.824 251.924 563.824C252.559 563.824 253.039 563.661 253.366 563.334C253.693 563.007 253.856 562.55 253.856 561.962V557.51H255.634V562.032C255.634 562.648 255.48 563.199 255.172 563.684C254.873 564.16 254.444 564.533 253.884 564.804C253.324 565.075 252.671 565.21 251.924 565.21ZM249.409 555.354H254.071V553.842H255.667V556.488H249.409V555.354ZM260.721 565.21C259.61 565.21 258.719 564.995 258.047 564.566C257.375 564.137 257.039 563.53 257.039 562.746C257.039 562.363 257.151 562.018 257.375 561.71C257.599 561.402 257.888 561.187 258.243 561.066C257.907 560.907 257.631 560.679 257.417 560.38C257.211 560.081 257.109 559.745 257.109 559.372C257.109 558.747 257.323 558.247 257.753 557.874C258.182 557.491 258.817 557.3 259.657 557.3C259.918 557.3 260.17 557.319 260.413 557.356C260.655 557.384 260.847 557.421 260.987 557.468V558.854C260.865 558.798 260.707 558.756 260.511 558.728C260.324 558.7 260.156 558.686 260.007 558.686C259.288 558.686 258.929 558.952 258.929 559.484C258.929 559.773 259.017 559.988 259.195 560.128C259.372 560.268 259.657 560.338 260.049 560.338H260.987V561.78H260.049C259.255 561.78 258.859 562.102 258.859 562.746C258.859 563.082 259.022 563.348 259.349 563.544C259.685 563.731 260.142 563.824 260.721 563.824C261.449 563.824 261.981 563.675 262.317 563.376C262.662 563.077 262.835 562.639 262.835 562.06V557.496H264.613V562.032C264.613 562.564 264.482 563.073 264.221 563.558C263.969 564.034 263.549 564.431 262.961 564.748C262.382 565.056 261.635 565.21 260.721 565.21ZM269.199 565.21C268.593 565.21 268.07 565.089 267.631 564.846C267.193 564.594 266.857 564.253 266.623 563.824C266.399 563.385 266.287 562.9 266.287 562.368V557.51H268.065V562.284C268.065 563.311 268.611 563.824 269.703 563.824C270.562 563.824 271.234 563.441 271.719 562.676V557.51H273.497V565H271.789V564.076C271.435 564.449 271.029 564.734 270.571 564.93C270.123 565.117 269.666 565.21 269.199 565.21Z" fill="#EB6A6A"/>
<path d="M211.895 566.4H274.337V567.1H211.895V566.4Z" fill="#EB6A6A"/>
<path d="M215.377 565.21C214.546 565.21 213.874 565 213.361 564.58C212.857 564.16 212.605 563.567 212.605 562.802C212.605 562.298 212.731 561.855 212.983 561.472C213.244 561.089 213.608 560.791 214.075 560.576C214.551 560.361 215.106 560.254 215.741 560.254C216.646 560.254 217.43 560.408 218.093 560.716V560.38C218.093 559.801 217.92 559.377 217.575 559.106C217.239 558.826 216.693 558.686 215.937 558.686C215.48 558.686 215.027 558.733 214.579 558.826C214.14 558.919 213.758 559.045 213.431 559.204V557.818C213.73 557.678 214.14 557.557 214.663 557.454C215.195 557.351 215.713 557.3 216.217 557.3C217.43 557.3 218.34 557.575 218.947 558.126C219.554 558.677 219.857 559.414 219.857 560.338V565H218.093V562.116C217.468 561.799 216.754 561.64 215.951 561.64C215.428 561.64 215.036 561.743 214.775 561.948C214.523 562.144 214.397 562.433 214.397 562.816C214.397 563.161 214.514 563.418 214.747 563.586C214.98 563.745 215.349 563.824 215.853 563.824C216.17 563.824 216.446 563.777 216.679 563.684V565.042C216.334 565.154 215.9 565.21 215.377 565.21ZM221.259 558.448H223.037L224.675 563.614C225.459 563.614 226.061 563.395 226.481 562.956C226.911 562.508 227.125 561.873 227.125 561.052C227.125 560.259 226.981 559.666 226.691 559.274C226.402 558.882 225.94 558.686 225.305 558.686C224.96 558.686 224.638 558.733 224.339 558.826V557.468C224.703 557.356 225.128 557.3 225.613 557.3C226.705 557.3 227.531 557.631 228.091 558.294C228.661 558.957 228.945 559.876 228.945 561.052C228.945 561.873 228.763 562.583 228.399 563.18C228.045 563.777 227.564 564.23 226.957 564.538C226.351 564.846 225.679 565 224.941 565H223.331L221.259 558.448ZM230.344 557.51H232.052V558.434C232.407 558.061 232.817 557.781 233.284 557.594C233.76 557.398 234.236 557.3 234.712 557.3C235.636 557.3 236.341 557.561 236.826 558.084C237.311 558.597 237.554 559.26 237.554 560.072V565H235.776V560.156C235.776 559.176 235.253 558.686 234.208 558.686C233.303 558.686 232.607 559.069 232.122 559.834V565H230.344V557.51ZM240.169 560.534C239.721 560.534 239.403 560.431 239.217 560.226C239.039 560.021 238.951 559.703 238.951 559.274V558.378H240.547V558.952C240.547 559.092 240.575 559.19 240.631 559.246C240.696 559.302 240.803 559.33 240.953 559.33H242.605V560.534H240.169ZM240.169 564.328C239.721 564.328 239.403 564.225 239.217 564.02C239.039 563.815 238.951 563.497 238.951 563.068V562.172H240.547V562.746C240.547 562.886 240.575 562.984 240.631 563.04C240.696 563.096 240.803 563.124 240.953 563.124H242.605V564.328H240.169ZM245.5 565C245.015 565 244.641 564.865 244.38 564.594C244.128 564.314 244.002 563.927 244.002 563.432V557.51H245.78V562.872C245.78 563.115 245.831 563.283 245.934 563.376C246.037 563.469 246.205 563.516 246.438 563.516H246.928V565H245.5ZM252.074 565.21C251.328 565.21 250.67 565.075 250.1 564.804C249.54 564.533 249.106 564.16 248.798 563.684C248.5 563.199 248.35 562.648 248.35 562.032V557.51H250.128V561.962C250.128 562.55 250.292 563.007 250.618 563.334C250.945 563.661 251.43 563.824 252.074 563.824C252.709 563.824 253.19 563.661 253.516 563.334C253.843 563.007 254.006 562.55 254.006 561.962V557.51H255.784V562.032C255.784 562.648 255.63 563.199 255.322 563.684C255.024 564.16 254.594 564.533 254.034 564.804C253.474 565.075 252.821 565.21 252.074 565.21ZM249.559 555.354H254.221V553.842H255.817V556.488H249.559V555.354ZM260.871 565.21C259.76 565.21 258.869 564.995 258.197 564.566C257.525 564.137 257.189 563.53 257.189 562.746C257.189 562.363 257.301 562.018 257.525 561.71C257.749 561.402 258.038 561.187 258.393 561.066C258.057 560.907 257.782 560.679 257.567 560.38C257.362 560.081 257.259 559.745 257.259 559.372C257.259 558.747 257.474 558.247 257.903 557.874C258.332 557.491 258.967 557.3 259.807 557.3C260.068 557.3 260.32 557.319 260.563 557.356C260.806 557.384 260.997 557.421 261.137 557.468V558.854C261.016 558.798 260.857 558.756 260.661 558.728C260.474 558.7 260.306 558.686 260.157 558.686C259.438 558.686 259.079 558.952 259.079 559.484C259.079 559.773 259.168 559.988 259.345 560.128C259.522 560.268 259.807 560.338 260.199 560.338H261.137V561.78H260.199C259.406 561.78 259.009 562.102 259.009 562.746C259.009 563.082 259.172 563.348 259.499 563.544C259.835 563.731 260.292 563.824 260.871 563.824C261.599 563.824 262.131 563.675 262.467 563.376C262.812 563.077 262.985 562.639 262.985 562.06V557.496H264.763V562.032C264.763 562.564 264.632 563.073 264.371 563.558C264.119 564.034 263.699 564.431 263.111 564.748C262.532 565.056 261.786 565.21 260.871 565.21ZM269.35 565.21C268.743 565.21 268.22 565.089 267.782 564.846C267.343 564.594 267.007 564.253 266.774 563.824C266.55 563.385 266.438 562.9 266.438 562.368V557.51H268.216V562.284C268.216 563.311 268.762 563.824 269.854 563.824C270.712 563.824 271.384 563.441 271.87 562.676V557.51H273.648V565H271.94V564.076C271.585 564.449 271.179 564.734 270.722 564.93C270.274 565.117 269.816 565.21 269.35 565.21Z" fill="#EB6A6A"/>
<path d="M212.045 566.4H274.488V567.1H212.045V566.4Z" fill="#EB6A6A"/>
<path d="M285.528 413.21C284.697 413.21 284.034 413.005 283.54 412.594C283.054 412.174 282.812 411.581 282.812 410.816C282.812 410.06 283.082 409.458 283.624 409.01C284.174 408.562 284.916 408.338 285.85 408.338C286.774 408.338 287.604 408.511 288.342 408.856V408.282C288.342 407.638 288.164 407.171 287.81 406.882C287.464 406.583 286.886 406.434 286.074 406.434C285.626 406.434 285.187 406.476 284.758 406.56C284.328 406.644 283.955 406.761 283.638 406.91V405.79C283.927 405.65 284.319 405.533 284.814 405.44C285.318 405.347 285.808 405.3 286.284 405.3C287.45 405.3 288.323 405.566 288.902 406.098C289.48 406.63 289.77 407.349 289.77 408.254V413H288.342V409.99C287.66 409.645 286.881 409.472 286.004 409.472C285.397 409.472 284.949 409.584 284.66 409.808C284.38 410.032 284.24 410.368 284.24 410.816C284.24 411.665 284.786 412.09 285.878 412.09C286.214 412.09 286.508 412.043 286.76 411.95V413.056C286.424 413.159 286.013 413.21 285.528 413.21ZM283.728 403.466H286.542V401.94H287.592V403.466H288.726V401.94H289.762V404.404H283.728V403.466ZM295.67 413.21C295.156 413.21 294.666 413.107 294.2 412.902C293.742 412.697 293.332 412.393 292.968 411.992V413H291.596V405.51H293.024V410.802C293.574 411.661 294.33 412.09 295.292 412.09C295.898 412.09 296.356 411.95 296.664 411.67C296.981 411.381 297.14 410.956 297.14 410.396V405.51H298.568V410.452C298.568 411.264 298.311 411.927 297.798 412.44C297.284 412.953 296.575 413.21 295.67 413.21ZM302.963 413.21C302.449 413.21 301.927 413.149 301.395 413.028C300.863 412.916 300.447 412.748 300.149 412.524V411.376C300.55 411.619 300.989 411.805 301.465 411.936C301.95 412.057 302.412 412.118 302.851 412.118C303.467 412.118 303.91 412.048 304.181 411.908C304.451 411.759 304.587 411.507 304.587 411.152C304.587 410.909 304.521 410.713 304.391 410.564C304.26 410.415 304.059 410.284 303.789 410.172C303.527 410.06 303.112 409.92 302.543 409.752C301.721 409.5 301.11 409.206 300.709 408.87C300.307 408.525 300.107 408.049 300.107 407.442C300.107 406.751 300.373 406.224 300.905 405.86C301.437 405.487 302.165 405.3 303.089 405.3C303.565 405.3 304.022 405.356 304.461 405.468C304.909 405.571 305.277 405.711 305.567 405.888V407.064C305.249 406.868 304.885 406.714 304.475 406.602C304.064 406.49 303.644 406.434 303.215 406.434C302.095 406.434 301.535 406.77 301.535 407.442C301.535 407.694 301.609 407.895 301.759 408.044C301.917 408.193 302.123 408.319 302.375 408.422C302.636 408.515 303.07 408.651 303.677 408.828C304.274 409.005 304.741 409.197 305.077 409.402C305.413 409.607 305.651 409.85 305.791 410.13C305.931 410.41 306.001 410.755 306.001 411.166C306.001 411.782 305.749 412.277 305.245 412.65C304.741 413.023 303.98 413.21 302.963 413.21ZM307.537 405.51H308.965V408.814L312.591 405.51H314.257L312.213 407.372C312.978 407.568 313.51 407.881 313.809 408.31C314.117 408.739 314.271 409.313 314.271 410.032V413H312.843V410.116C312.843 409.556 312.726 409.131 312.493 408.842C312.269 408.553 311.877 408.347 311.317 408.226L308.965 410.368V413H307.537V405.51ZM311.644 404.404C311.242 404.404 310.953 404.306 310.776 404.11C310.589 403.905 310.496 403.601 310.496 403.2V402.472H311.784V403.032C311.784 403.191 311.816 403.298 311.882 403.354C311.938 403.41 312.05 403.438 312.218 403.438H315.522V404.404H311.644ZM318.532 413.21C317.701 413.21 317.038 413.005 316.544 412.594C316.058 412.174 315.816 411.581 315.816 410.816C315.816 410.06 316.086 409.458 316.628 409.01C317.178 408.562 317.92 408.338 318.854 408.338C319.778 408.338 320.608 408.511 321.346 408.856V408.282C321.346 407.638 321.168 407.171 320.814 406.882C320.468 406.583 319.89 406.434 319.078 406.434C318.63 406.434 318.191 406.476 317.762 406.56C317.332 406.644 316.959 406.761 316.642 406.91V405.79C316.931 405.65 317.323 405.533 317.818 405.44C318.322 405.347 318.812 405.3 319.288 405.3C320.128 405.3 320.828 405.454 321.388 405.762L322.102 404.95H323.684L322.27 406.532C322.606 407.008 322.774 407.582 322.774 408.254V413H321.346V409.99C320.664 409.645 319.885 409.472 319.008 409.472C318.401 409.472 317.953 409.584 317.664 409.808C317.384 410.032 317.244 410.368 317.244 410.816C317.244 411.665 317.79 412.09 318.882 412.09C319.218 412.09 319.512 412.043 319.764 411.95V413.056C319.428 413.159 319.017 413.21 318.532 413.21ZM324.805 407.036C324.805 406.541 324.935 406.163 325.197 405.902C325.458 405.641 325.831 405.51 326.317 405.51H327.423V406.714H326.919C326.667 406.714 326.485 406.77 326.373 406.882C326.27 406.985 326.219 407.167 326.219 407.428V410.914L328.095 407.862H328.711L330.587 410.914V405.51H332.001V413H330.713L328.403 409.234L326.093 413H324.805V407.036ZM330.608 402.066H332.022V404.404H330.608V402.066ZM336.446 408.156C336.446 407.559 336.325 407.125 336.082 406.854C335.84 406.574 335.41 406.434 334.794 406.434C334.197 406.434 333.637 406.565 333.114 406.826V405.706C333.338 405.594 333.628 405.501 333.982 405.426C334.346 405.342 334.706 405.3 335.06 405.3C336.003 405.3 336.708 405.557 337.174 406.07C337.641 406.574 337.874 407.302 337.874 408.254V413H336.446V408.156ZM342.591 413.21C341.677 413.21 340.963 412.953 340.449 412.44C339.945 411.927 339.693 411.264 339.693 410.452V405.51H341.121V410.396C341.121 410.956 341.275 411.381 341.583 411.67C341.901 411.95 342.363 412.09 342.969 412.09C343.931 412.09 344.687 411.661 345.237 410.802V405.51H346.665V413H345.279V411.992C344.579 412.804 343.683 413.21 342.591 413.21ZM355.08 409.92C355.08 409.351 355.187 408.875 355.402 408.492C355.617 408.109 355.981 407.741 356.494 407.386C356.867 407.125 357.147 406.919 357.334 406.77C357.521 406.611 357.665 406.439 357.768 406.252C357.88 406.056 357.936 405.827 357.936 405.566C357.936 405.146 357.768 404.815 357.432 404.572C357.096 404.329 356.611 404.208 355.976 404.208C355.043 404.208 354.179 404.395 353.386 404.768V403.536C353.759 403.377 354.165 403.251 354.604 403.158C355.052 403.055 355.509 403.004 355.976 403.004C357.003 403.004 357.819 403.233 358.426 403.69C359.033 404.147 359.336 404.773 359.336 405.566C359.336 406.051 359.21 406.467 358.958 406.812C358.706 407.157 358.309 407.526 357.768 407.918C357.376 408.198 357.096 408.422 356.928 408.59C356.76 408.749 356.639 408.931 356.564 409.136C356.489 409.332 356.452 409.598 356.452 409.934V410.214H355.08V409.92ZM355.752 413.21C355.519 413.21 355.323 413.131 355.164 412.972C355.005 412.813 354.926 412.617 354.926 412.384C354.926 412.151 355.005 411.955 355.164 411.796C355.323 411.637 355.519 411.558 355.752 411.558C355.985 411.558 356.181 411.637 356.34 411.796C356.508 411.955 356.592 412.151 356.592 412.384C356.592 412.617 356.508 412.813 356.34 412.972C356.181 413.131 355.985 413.21 355.752 413.21Z" fill="#4E5256"/>
<path d="M282.182 414.4H359.966V415.1H282.182V414.4Z" fill="#4E5256"/>
<path d="M132.08 180.04H151.48V185.16H138.16V191.68H147.96V196.36H138.16V208H132.08V180.04ZM157.209 208.6C154.862 208.6 152.942 208.013 151.449 206.84C149.982 205.64 149.249 204.013 149.249 201.96C149.249 199.827 149.955 198.173 151.369 197C152.782 195.8 154.782 195.2 157.369 195.2C158.515 195.2 159.609 195.32 160.649 195.56C161.689 195.8 162.609 196.133 163.409 196.56V196.08C163.409 194.88 162.982 194 162.129 193.44C161.275 192.88 159.969 192.6 158.209 192.6C155.862 192.6 153.702 193.04 151.729 193.92V189.52C152.582 189.147 153.689 188.84 155.049 188.6C156.409 188.333 157.769 188.2 159.129 188.2C162.595 188.2 165.182 188.92 166.889 190.36C168.595 191.773 169.449 193.76 169.449 196.32V208H163.769V206.24C162.142 207.813 159.955 208.6 157.209 208.6ZM158.849 204.6C159.835 204.6 160.729 204.413 161.529 204.04C162.329 203.667 162.955 203.147 163.409 202.48V200.56C162.049 199.653 160.555 199.2 158.929 199.2C157.809 199.2 156.942 199.44 156.329 199.92C155.742 200.373 155.449 201.053 155.449 201.96C155.449 202.813 155.742 203.467 156.329 203.92C156.915 204.373 157.755 204.6 158.849 204.6ZM173.447 178.44H179.487V208H173.447V178.44ZM183.682 178.44H189.722V208H183.682V178.44ZM207.9 180.04H213.98V191.24H226.18V180.04H232.26V208H226.18V196.28H213.98V208H207.9V180.04ZM247.456 208.6C243.776 208.6 240.883 207.72 238.776 205.96C236.669 204.173 235.616 201.68 235.616 198.48C235.616 195.307 236.549 192.8 238.416 190.96C240.309 189.12 243.003 188.2 246.496 188.2C248.789 188.2 250.736 188.627 252.336 189.48C253.936 190.333 255.149 191.52 255.976 193.04C256.803 194.533 257.216 196.227 257.216 198.12V200.56H241.376C241.803 203.013 244.096 204.24 248.256 204.24C249.483 204.24 250.749 204.133 252.056 203.92C253.363 203.707 254.496 203.413 255.456 203.04V207.28C254.523 207.68 253.323 208 251.856 208.24C250.389 208.48 248.923 208.6 247.456 208.6ZM251.496 196.64C251.416 195.36 250.936 194.373 250.056 193.68C249.176 192.96 247.963 192.6 246.416 192.6C244.896 192.6 243.696 192.96 242.816 193.68C241.936 194.4 241.456 195.387 241.376 196.64H251.496ZM260.557 178.44H266.597V208H260.557V178.44ZM270.791 188.8H276.631V190.92C278.578 189.107 280.978 188.2 283.831 188.2C285.831 188.2 287.591 188.627 289.111 189.48C290.658 190.307 291.858 191.493 292.711 193.04C293.564 194.56 293.991 196.333 293.991 198.36C293.991 200.36 293.564 202.133 292.711 203.68C291.858 205.227 290.658 206.44 289.111 207.32C287.591 208.173 285.831 208.6 283.831 208.6C282.471 208.6 281.178 208.4 279.951 208C278.724 207.6 277.684 207.027 276.831 206.28V216.76H270.791V188.8ZM282.311 203.88C283.938 203.88 285.258 203.373 286.271 202.36C287.311 201.347 287.831 200.013 287.831 198.36C287.831 196.707 287.311 195.387 286.271 194.4C285.258 193.413 283.938 192.92 282.311 192.92C281.058 192.92 279.938 193.253 278.951 193.92C277.964 194.587 277.258 195.467 276.831 196.56V200.2C277.231 201.32 277.924 202.213 278.911 202.88C279.924 203.547 281.058 203.88 282.311 203.88Z" fill="url(#paint0_linear_10_49)"/>
<path d="M193 186.399C193 189.224 195.211 190.729 196.829 192.077C197.4 192.552 197.95 193 198.5 193C199.05 193 199.6 192.553 200.171 192.076C201.79 190.73 204 189.224 204 186.4C204 183.576 200.975 181.571 198.5 184.287C196.025 181.571 193 183.575 193 186.399Z" fill="#84A36C"/>
<path d="M198.5 200.5L196.094 201.523V203.773L198.5 205L200.906 203.773V201.523L198.5 200.5ZM198.5 200.5C195.062 200.5 193.156 195.5 193 193M198.5 200.5C201.938 200.5 204 195.635 204 193" stroke="#84A36C" stroke-width="0.75" stroke-linecap="round" stroke-linejoin="round"/>
<rect x="36.5" y="342.5" width="326" height="43" rx="7.5" fill="white"/>
<rect x="36.5" y="342.5" width="326" height="43" rx="7.5" stroke="#D3D3D3"/>
<path d="M54.486 369.21C53.9727 369.21 53.45 369.149 52.918 369.028C52.386 368.916 51.9707 368.748 51.672 368.524V367.376C52.0733 367.619 52.512 367.805 52.988 367.936C53.4733 368.057 53.9353 368.118 54.374 368.118C54.99 368.118 55.4333 368.048 55.704 367.908C55.9747 367.759 56.11 367.507 56.11 367.152C56.11 366.909 56.0447 366.713 55.914 366.564C55.7833 366.415 55.5827 366.284 55.312 366.172C55.0507 366.06 54.6353 365.92 54.066 365.752C53.2447 365.5 52.6333 365.206 52.232 364.87C51.8307 364.525 51.63 364.049 51.63 363.442C51.63 362.751 51.896 362.224 52.428 361.86C52.96 361.487 53.688 361.3 54.612 361.3C55.088 361.3 55.5453 361.356 55.984 361.468C56.432 361.571 56.8007 361.711 57.09 361.888V363.064C56.7727 362.868 56.4087 362.714 55.998 362.602C55.5873 362.49 55.1673 362.434 54.738 362.434C53.618 362.434 53.058 362.77 53.058 363.442C53.058 363.694 53.1327 363.895 53.282 364.044C53.4407 364.193 53.646 364.319 53.898 364.422C54.1593 364.515 54.5933 364.651 55.2 364.828C55.7973 365.005 56.264 365.197 56.6 365.402C56.936 365.607 57.174 365.85 57.314 366.13C57.454 366.41 57.524 366.755 57.524 367.166C57.524 367.782 57.272 368.277 56.768 368.65C56.264 369.023 55.5033 369.21 54.486 369.21ZM59.0604 361.51H60.4884V364.814L64.1144 361.51H65.7804L63.7364 363.372C64.5017 363.568 65.0337 363.881 65.3324 364.31C65.6404 364.739 65.7944 365.313 65.7944 366.032V369H64.3664V366.116C64.3664 365.556 64.2497 365.131 64.0164 364.842C63.7924 364.553 63.4004 364.347 62.8404 364.226L60.4884 366.368V369H59.0604V361.51ZM63.167 360.404C62.7657 360.404 62.4763 360.306 62.299 360.11C62.1123 359.905 62.019 359.601 62.019 359.2V358.472H63.307V359.032C63.307 359.191 63.3397 359.298 63.405 359.354C63.461 359.41 63.573 359.438 63.741 359.438H67.045V360.404H63.167ZM70.055 369.21C69.2243 369.21 68.5617 369.005 68.067 368.594C67.5817 368.174 67.339 367.581 67.339 366.816C67.339 366.06 67.6097 365.458 68.151 365.01C68.7017 364.562 69.4437 364.338 70.377 364.338C71.301 364.338 72.1317 364.511 72.869 364.856V364.282C72.869 363.638 72.6917 363.171 72.337 362.882C71.9917 362.583 71.413 362.434 70.601 362.434C70.153 362.434 69.7143 362.476 69.285 362.56C68.8557 362.644 68.4823 362.761 68.165 362.91V361.79C68.4543 361.65 68.8463 361.533 69.341 361.44C69.845 361.347 70.335 361.3 70.811 361.3C71.651 361.3 72.351 361.454 72.911 361.762L73.625 360.95H75.207L73.793 362.532C74.129 363.008 74.297 363.582 74.297 364.254V369H72.869V365.99C72.1877 365.645 71.4083 365.472 70.531 365.472C69.9243 365.472 69.4763 365.584 69.187 365.808C68.907 366.032 68.767 366.368 68.767 366.816C68.767 367.665 69.313 368.09 70.405 368.09C70.741 368.09 71.035 368.043 71.287 367.95V369.056C70.951 369.159 70.5403 369.21 70.055 369.21ZM76.328 363.036C76.328 362.541 76.4586 362.163 76.72 361.902C76.9813 361.641 77.3546 361.51 77.84 361.51H78.946V362.714H78.442C78.19 362.714 78.008 362.77 77.896 362.882C77.7933 362.985 77.742 363.167 77.742 363.428V366.914L79.618 363.862H80.234L82.11 366.914V361.51H83.524V369H82.236L79.926 365.234L77.616 369H76.328V363.036ZM82.1317 358.066H83.5457V360.404H82.1317V358.066ZM87.9697 364.156C87.9697 363.559 87.8484 363.125 87.6057 362.854C87.3631 362.574 86.9337 362.434 86.3177 362.434C85.7204 362.434 85.1604 362.565 84.6377 362.826V361.706C84.8617 361.594 85.1511 361.501 85.5057 361.426C85.8697 361.342 86.2291 361.3 86.5837 361.3C87.5264 361.3 88.2311 361.557 88.6977 362.07C89.1644 362.574 89.3977 363.302 89.3977 364.254V369H87.9697V364.156ZM94.1146 369.21C93.2 369.21 92.486 368.953 91.9726 368.44C91.4686 367.927 91.2166 367.264 91.2166 366.452V361.51H92.6446V366.396C92.6446 366.956 92.7986 367.381 93.1066 367.67C93.424 367.95 93.886 368.09 94.4926 368.09C95.454 368.09 96.21 367.661 96.7606 366.802V361.51H98.1886V369H96.8026V367.992C96.1026 368.804 95.2066 369.21 94.1146 369.21Z" fill="#4E5256"/>
<path d="M326.5 367.6C327.58 367.6 328.497 367.25 329.253 366.55C330.009 365.85 330.386 365 330.386 364C330.386 363 330.009 362.15 329.253 361.45C328.497 360.75 327.58 360.4 326.5 360.4C325.42 360.4 324.503 360.75 323.747 361.45C322.991 362.15 322.614 363 322.614 364C322.614 365 322.991 365.85 323.747 366.55C324.503 367.25 325.42 367.6 326.5 367.6ZM326.5 366.16C325.852 366.16 325.302 365.95 324.848 365.53C324.395 365.11 324.168 364.6 324.168 364C324.168 363.4 324.395 362.89 324.848 362.47C325.302 362.05 325.852 361.84 326.5 361.84C327.148 361.84 327.698 362.05 328.152 362.47C328.605 362.89 328.832 363.4 328.832 364C328.832 364.6 328.605 365.11 328.152 365.53C327.698 365.95 327.148 366.16 326.5 366.16ZM326.5 370C324.398 370 322.484 369.457 320.757 368.37C319.03 367.283 317.777 365.827 317 364C317.777 362.173 319.03 360.717 320.757 359.63C322.484 358.543 324.398 358 326.5 358C328.602 358 330.516 358.543 332.243 359.63C333.97 360.717 335.223 362.173 336 364C335.223 365.827 333.97 367.283 332.243 368.37C330.516 369.457 328.602 370 326.5 370ZM326.5 368.4C328.127 368.4 329.62 368.003 330.98 367.21C332.34 366.417 333.38 365.347 334.1 364C333.38 362.653 332.34 361.583 330.98 360.79C329.62 359.997 328.127 359.6 326.5 359.6C324.873 359.6 323.38 359.997 322.02 360.79C320.66 361.583 319.62 362.653 318.9 364C319.62 365.347 320.66 366.417 322.02 367.21C323.38 368.003 324.873 368.4 326.5 368.4Z" fill="#4E5256"/>
<defs>
<linearGradient id="paint0_linear_10_49" x1="130" y1="194.5" x2="300" y2="194.5" gradientUnits="userSpaceOnUse">
<stop offset="0.4375" stop-color="#2A7E46"/>
<stop offset="0.644231" stop-color="#3BB162" stop-opacity="0.9"/>
</linearGradient>
</defs>
</svg>
