<svg width="390" height="849" viewBox="0 0 390 849" fill="none" xmlns="http://www.w3.org/2000/svg">
<rect y="5" width="390" height="844" rx="32" fill="white"/>
<path fill-rule="evenodd" clip-rule="evenodd" d="M121 838.5C121 837.119 122.119 836 123.5 836H266.5C267.881 836 269 837.119 269 838.5C269 839.881 267.881 841 266.5 841H123.5C122.119 841 121 839.881 121 838.5Z" fill="#090A0A"/>
<path d="M54.0688 36V26.1304H53.9194L50.9395 28.2305V26.2217L54.0688 24.022H56.2021V36H54.0688ZM63.4219 36.2988C62.4701 36.2988 61.6538 36.0443 60.9731 35.5352C60.298 35.026 59.7778 34.3011 59.4126 33.3604C59.0474 32.4196 58.8647 31.3045 58.8647 30.0151V29.9985C58.8647 28.7091 59.0474 27.5968 59.4126 26.6616C59.7778 25.7209 60.298 24.9959 60.9731 24.4868C61.6538 23.9777 62.4701 23.7231 63.4219 23.7231C64.3737 23.7231 65.1899 23.9777 65.8706 24.4868C66.5513 24.9959 67.0742 25.7209 67.4395 26.6616C67.8047 27.5968 67.9873 28.7091 67.9873 29.9985V30.0151C67.9873 31.3045 67.8047 32.4196 67.4395 33.3604C67.0742 34.3011 66.5513 35.026 65.8706 35.5352C65.1899 36.0443 64.3737 36.2988 63.4219 36.2988ZM63.4219 34.564C63.931 34.564 64.3654 34.3813 64.7251 34.0161C65.0848 33.6509 65.3587 33.1307 65.5469 32.4556C65.7406 31.7749 65.8374 30.9614 65.8374 30.0151V29.9985C65.8374 29.0522 65.7406 28.2415 65.5469 27.5664C65.3587 26.8857 65.0848 26.3656 64.7251 26.0059C64.3654 25.6406 63.931 25.458 63.4219 25.458C62.9128 25.458 62.4784 25.6406 62.1187 26.0059C61.7645 26.3656 61.4906 26.8857 61.2969 27.5664C61.1087 28.2415 61.0146 29.0522 61.0146 29.9985V30.0151C61.0146 30.9614 61.1087 31.7749 61.2969 32.4556C61.4906 33.1307 61.7645 33.6509 62.1187 34.0161C62.4784 34.3813 62.9128 34.564 63.4219 34.564ZM71.2974 34.3896C70.9211 34.3896 70.6056 34.2651 70.3511 34.0161C70.1021 33.7616 69.9775 33.4517 69.9775 33.0864C69.9775 32.7157 70.1021 32.4058 70.3511 32.1567C70.6056 31.9022 70.9211 31.7749 71.2974 31.7749C71.6792 31.7749 71.9946 31.9022 72.2437 32.1567C72.4927 32.4058 72.6172 32.7157 72.6172 33.0864C72.6172 33.4517 72.4927 33.7616 72.2437 34.0161C71.9946 34.2651 71.6792 34.3896 71.2974 34.3896ZM71.2974 28.2305C70.9211 28.2305 70.6056 28.106 70.3511 27.8569C70.1021 27.6024 69.9775 27.2925 69.9775 26.9272C69.9775 26.5565 70.1021 26.2466 70.3511 25.9976C70.6056 25.743 70.9211 25.6157 71.2974 25.6157C71.6792 25.6157 71.9946 25.743 72.2437 25.9976C72.4927 26.2466 72.6172 26.5565 72.6172 26.9272C72.6172 27.2925 72.4927 27.6024 72.2437 27.8569C71.9946 28.106 71.6792 28.2305 71.2974 28.2305ZM79.1562 36.2988C78.2044 36.2988 77.3882 36.0443 76.7075 35.5352C76.0324 35.026 75.5122 34.3011 75.147 33.3604C74.7817 32.4196 74.5991 31.3045 74.5991 30.0151V29.9985C74.5991 28.7091 74.7817 27.5968 75.147 26.6616C75.5122 25.7209 76.0324 24.9959 76.7075 24.4868C77.3882 23.9777 78.2044 23.7231 79.1562 23.7231C80.1081 23.7231 80.9243 23.9777 81.605 24.4868C82.2856 24.9959 82.8086 25.7209 83.1738 26.6616C83.5391 27.5968 83.7217 28.7091 83.7217 29.9985V30.0151C83.7217 31.3045 83.5391 32.4196 83.1738 33.3604C82.8086 34.3011 82.2856 35.026 81.605 35.5352C80.9243 36.0443 80.1081 36.2988 79.1562 36.2988ZM79.1562 34.564C79.6654 34.564 80.0998 34.3813 80.4595 34.0161C80.8192 33.6509 81.0931 33.1307 81.2812 32.4556C81.4749 31.7749 81.5718 30.9614 81.5718 30.0151V29.9985C81.5718 29.0522 81.4749 28.2415 81.2812 27.5664C81.0931 26.8857 80.8192 26.3656 80.4595 26.0059C80.0998 25.6406 79.6654 25.458 79.1562 25.458C78.6471 25.458 78.2127 25.6406 77.853 26.0059C77.4989 26.3656 77.2249 26.8857 77.0312 27.5664C76.8431 28.2415 76.749 29.0522 76.749 29.9985V30.0151C76.749 30.9614 76.8431 31.7749 77.0312 32.4556C77.2249 33.1307 77.4989 33.6509 77.853 34.0161C78.2127 34.3813 78.6471 34.564 79.1562 34.564ZM89.9619 36.2988C89.0101 36.2988 88.1938 36.0443 87.5132 35.5352C86.8381 35.026 86.3179 34.3011 85.9526 33.3604C85.5874 32.4196 85.4048 31.3045 85.4048 30.0151V29.9985C85.4048 28.7091 85.5874 27.5968 85.9526 26.6616C86.3179 25.7209 86.8381 24.9959 87.5132 24.4868C88.1938 23.9777 89.0101 23.7231 89.9619 23.7231C90.9137 23.7231 91.73 23.9777 92.4106 24.4868C93.0913 24.9959 93.6143 25.7209 93.9795 26.6616C94.3447 27.5968 94.5273 28.7091 94.5273 29.9985V30.0151C94.5273 31.3045 94.3447 32.4196 93.9795 33.3604C93.6143 34.3011 93.0913 35.026 92.4106 35.5352C91.73 36.0443 90.9137 36.2988 89.9619 36.2988ZM89.9619 34.564C90.471 34.564 90.9054 34.3813 91.2651 34.0161C91.6248 33.6509 91.8988 33.1307 92.0869 32.4556C92.2806 31.7749 92.3774 30.9614 92.3774 30.0151V29.9985C92.3774 29.0522 92.2806 28.2415 92.0869 27.5664C91.8988 26.8857 91.6248 26.3656 91.2651 26.0059C90.9054 25.6406 90.471 25.458 89.9619 25.458C89.4528 25.458 89.0184 25.6406 88.6587 26.0059C88.3045 26.3656 88.0306 26.8857 87.8369 27.5664C87.6488 28.2415 87.5547 29.0522 87.5547 29.9985V30.0151C87.5547 30.9614 87.6488 31.7749 87.8369 32.4556C88.0306 33.1307 88.3045 33.6509 88.6587 34.0161C89.0184 34.3813 89.4528 34.564 89.9619 34.564Z" fill="black"/>
<path d="M288.333 31C288.977 31 289.5 31.5037 289.5 32.125V34.375C289.5 34.9963 288.977 35.5 288.333 35.5H287.167C286.523 35.5 286 34.9963 286 34.375V32.125C286 31.5037 286.523 31 287.167 31H288.333ZM293.823 28.75C294.468 28.75 294.99 29.2537 294.99 29.875V34.375C294.99 34.9963 294.468 35.5 293.823 35.5H292.657C292.013 35.5 291.49 34.9963 291.49 34.375V29.875C291.49 29.2537 292.013 28.75 292.657 28.75H293.823ZM299.313 26.125C299.958 26.125 300.48 26.6287 300.48 27.25V34.375C300.48 34.9963 299.958 35.5 299.313 35.5H298.147C297.503 35.5 296.98 34.9963 296.98 34.375V27.25C296.981 26.6287 297.503 26.125 298.147 26.125H299.313ZM304.804 23.5C305.448 23.5 305.971 24.0037 305.971 24.625V34.375C305.971 34.9963 305.448 35.5 304.804 35.5H303.638C302.993 35.5 302.471 34.9963 302.471 34.375V24.625C302.471 24.0037 302.993 23.5 303.638 23.5H304.804Z" fill="black"/>
<path d="M318.512 32.8262C319.932 31.5964 322.011 31.5964 323.431 32.8262C323.502 32.8924 323.544 32.9855 323.546 33.084C323.548 33.1826 323.51 33.2777 323.441 33.3467L321.218 35.6446C321.153 35.7121 321.063 35.7501 320.971 35.7501C320.878 35.7499 320.79 35.7119 320.725 35.6446L318.501 33.3467C318.432 33.2776 318.394 33.1826 318.396 33.084C318.399 32.9855 318.44 32.8923 318.512 32.8262ZM315.545 29.7608C318.604 26.8467 323.341 26.8467 326.4 29.7608C326.469 29.829 326.509 29.9225 326.51 30.0206C326.511 30.1188 326.473 30.2135 326.405 30.2833L325.12 31.6133C324.988 31.7491 324.774 31.7524 324.638 31.6202C323.633 30.6886 322.326 30.1728 320.971 30.1729C319.617 30.1736 318.311 30.6895 317.308 31.6202C317.172 31.7524 316.958 31.7491 316.825 31.6133L315.54 30.2833C315.472 30.2136 315.435 30.1189 315.436 30.0206C315.437 29.9224 315.476 29.829 315.545 29.7608ZM312.578 26.7032C317.27 22.0989 324.671 22.099 329.363 26.7032C329.431 26.7716 329.47 26.8654 329.471 26.963C329.471 27.0605 329.433 27.1545 329.366 27.2237L328.08 28.5538C327.947 28.6901 327.732 28.691 327.598 28.5567C325.81 26.8164 323.437 25.8459 320.971 25.8458C318.504 25.8459 316.131 26.8163 314.344 28.5567C314.209 28.6913 313.994 28.6904 313.861 28.5538L312.574 27.2237C312.507 27.1545 312.47 27.0605 312.471 26.963C312.471 26.8654 312.51 26.7715 312.578 26.7032Z" fill="black"/>
<rect opacity="0.4" x="336.471" y="23.5" width="24" height="12" rx="3.5" stroke="black"/>
<path opacity="0.5" d="M361.971 27.5V31.5C362.777 31.1612 363.301 30.3731 363.301 29.5C363.301 28.6269 362.777 27.8388 361.971 27.5Z" fill="black"/>
<rect x="337.971" y="25" width="17" height="9" rx="2" fill="black"/>
<path d="M55.5 284.375C53.4333 284.375 51.8 283.808 50.6 282.675C49.4 281.525 48.8 279.842 48.8 277.625C48.8 276.108 49.0167 274.8 49.45 273.7C49.8833 272.583 50.4917 271.733 51.275 271.15C52.075 270.55 52.9917 270.25 54.025 270.25C54.6417 270.25 55.175 270.367 55.625 270.6C56.0917 270.833 56.4667 271.158 56.75 271.575C57.0667 271.125 57.5 270.792 58.05 270.575C58.6167 270.358 59.25 270.25 59.95 270.25C61.2167 270.25 62.2 270.642 62.9 271.425C63.6 272.192 63.95 273.208 63.95 274.475V284H60.175V274.85C60.175 274.283 60.0833 273.867 59.9 273.6C59.7333 273.333 59.4417 273.2 59.025 273.2C58.2917 273.2 57.8333 273.65 57.65 274.55H55.875C55.7583 273.65 55.3667 273.2 54.7 273.2C54.1 273.2 53.6167 273.575 53.25 274.325C52.8833 275.075 52.7 276.175 52.7 277.625C52.7 278.925 52.975 279.883 53.525 280.5C54.0917 281.117 54.9833 281.425 56.2 281.425C56.8333 281.425 57.4 281.333 57.9 281.15V284.05C57.25 284.267 56.45 284.375 55.5 284.375ZM58.8102 268.975C57.2102 268.975 56.4102 268.167 56.4102 266.55V264.725H59.8102V265.95C59.8102 266.183 59.8602 266.35 59.9602 266.45C60.0435 266.533 60.2102 266.575 60.4602 266.575H66.1602V268.975H58.8102ZM58.9852 262.825C58.9852 262.642 58.9602 262.517 58.9102 262.45C58.8435 262.383 58.7102 262.35 58.5102 262.35H57.4352V259.925H59.6852C60.7518 259.925 61.2852 260.383 61.2852 261.3V261.95H65.5352V264.175H58.9852V262.825ZM66.0852 272.3H69.8602L72.7102 281.175C73.9435 281.175 74.8935 280.808 75.5602 280.075C76.2268 279.325 76.5602 278.267 76.5602 276.9C76.5602 275.667 76.3268 274.742 75.8602 274.125C75.3935 273.508 74.6768 273.2 73.7102 273.2C73.1768 273.2 72.6435 273.283 72.1102 273.45V270.6C72.8102 270.367 73.6018 270.25 74.4852 270.25C76.4685 270.25 77.9518 270.833 78.9352 272C79.9352 273.15 80.4352 274.783 80.4352 276.9C80.4352 278.383 80.1102 279.658 79.4602 280.725C78.8102 281.792 77.9268 282.608 76.8102 283.175C75.7102 283.725 74.5018 284 73.1852 284H69.8352L66.0852 272.3ZM87.552 284.375C86.5686 284.375 85.5686 284.275 84.552 284.075C83.552 283.892 82.7603 283.608 82.177 283.225V280.325C82.9103 280.758 83.727 281.092 84.627 281.325C85.5436 281.558 86.3686 281.675 87.102 281.675C87.9853 281.675 88.627 281.592 89.027 281.425C89.4436 281.242 89.652 280.925 89.652 280.475C89.652 280.075 89.452 279.767 89.052 279.55C88.6686 279.333 87.9436 279.058 86.877 278.725L86.252 278.525C84.8186 278.075 83.7603 277.533 83.077 276.9C82.3936 276.267 82.052 275.4 82.052 274.3C82.052 273.017 82.5686 272.025 83.602 271.325C84.6353 270.608 86.027 270.25 87.777 270.25C88.727 270.25 89.6436 270.35 90.527 270.55C91.4103 270.75 92.1186 271.008 92.652 271.325V274.3C92.1186 273.933 91.452 273.642 90.652 273.425C89.8686 273.192 89.0936 273.075 88.327 273.075C86.7103 273.075 85.902 273.483 85.902 274.3C85.902 274.7 86.0936 275.008 86.477 275.225C86.8603 275.442 87.5436 275.7 88.527 276L89.427 276.275C90.477 276.608 91.2936 276.975 91.877 277.375C92.477 277.775 92.8936 278.225 93.127 278.725C93.3603 279.225 93.477 279.833 93.477 280.55C93.477 281.7 92.977 282.625 91.977 283.325C90.9936 284.025 89.5186 284.375 87.552 284.375ZM95.5891 270.625H99.3891V275.45L104.464 270.625H108.789L105.189 274.05C106.489 274.417 107.397 274.983 107.914 275.75C108.447 276.517 108.714 277.533 108.714 278.8V284H104.914V279.125C104.914 278.275 104.764 277.642 104.464 277.225C104.181 276.808 103.656 276.508 102.889 276.325L99.3891 279.6V284H95.5891V270.625ZM103.561 268.975C101.961 268.975 101.161 268.167 101.161 266.55V264.725H104.561V265.95C104.561 266.183 104.611 266.35 104.711 266.45C104.794 266.533 104.961 266.575 105.211 266.575H110.911V268.975H103.561ZM115.861 284.375C114.328 284.375 113.103 283.992 112.186 283.225C111.286 282.458 110.836 281.375 110.836 279.975C110.836 278.575 111.328 277.475 112.311 276.675C113.311 275.875 114.678 275.475 116.411 275.475C118.028 275.475 119.411 275.742 120.561 276.275V275.75C120.561 274.85 120.261 274.183 119.661 273.75C119.078 273.317 118.128 273.1 116.811 273.1C115.994 273.1 115.194 273.183 114.411 273.35C113.628 273.517 112.928 273.75 112.311 274.05V271.2C112.861 270.933 113.619 270.708 114.586 270.525C115.553 270.342 116.528 270.25 117.511 270.25C118.628 270.25 119.669 270.417 120.636 270.75L121.611 269.625H125.736L123.261 272.5C123.978 273.317 124.336 274.392 124.336 275.725V284H120.561V279.025C119.594 278.525 118.461 278.275 117.161 278.275C116.311 278.275 115.686 278.417 115.286 278.7C114.903 278.983 114.711 279.425 114.711 280.025C114.711 280.575 114.886 280.992 115.236 281.275C115.603 281.542 116.178 281.675 116.961 281.675C117.511 281.675 117.978 281.592 118.361 281.425V284.05C117.711 284.267 116.878 284.375 115.861 284.375ZM127.279 273.7C127.279 272.717 127.545 271.958 128.079 271.425C128.612 270.892 129.37 270.625 130.354 270.625H133.054V273.55H132.154C131.754 273.55 131.47 273.633 131.304 273.8C131.137 273.967 131.054 274.267 131.054 274.7V279.05L133.579 275.2H134.904L137.429 279.05V270.625H141.179V284H137.779L134.229 278.6L130.679 284H127.279V273.7ZM137.407 264.525H141.207V268.975H137.407V264.525ZM147.832 275.675C147.832 274.808 147.649 274.183 147.282 273.8C146.915 273.4 146.274 273.2 145.357 273.2C144.474 273.2 143.582 273.425 142.682 273.875V271C143.082 270.8 143.615 270.625 144.282 270.475C144.965 270.325 145.624 270.25 146.257 270.25C148.007 270.25 149.34 270.717 150.257 271.65C151.174 272.583 151.632 273.933 151.632 275.7V284H147.832V275.675ZM159.432 284.375C158.348 284.375 157.415 284.15 156.632 283.7C155.848 283.25 155.248 282.633 154.832 281.85C154.432 281.067 154.232 280.192 154.232 279.225V270.625H158.032V279C158.032 280.617 158.89 281.425 160.607 281.425C161.307 281.425 161.907 281.283 162.407 281C162.923 280.7 163.373 280.242 163.757 279.625V270.625H167.532V284H163.932V282.5C163.348 283.117 162.657 283.583 161.857 283.9C161.073 284.217 160.265 284.375 159.432 284.375ZM172.85 284C171.933 284 171.225 283.742 170.725 283.225C170.241 282.692 170 281.958 170 281.025V275C170 274.217 170.15 273.542 170.45 272.975C170.75 272.408 171.166 271.808 171.7 271.175C172.05 270.775 172.308 270.433 172.475 270.15C172.658 269.867 172.75 269.575 172.75 269.275C172.75 268.792 172.625 268.442 172.375 268.225C172.125 268.008 171.7 267.9 171.1 267.9C170.133 267.9 169.233 268.208 168.4 268.825V265.925C168.916 265.608 169.525 265.367 170.225 265.2C170.925 265.033 171.641 264.95 172.375 264.95C173.808 264.95 174.875 265.283 175.575 265.95C176.291 266.6 176.65 267.45 176.65 268.5C176.65 269.117 176.533 269.658 176.3 270.125C176.066 270.575 175.708 271.125 175.225 271.775C174.758 272.375 174.4 272.917 174.15 273.4C173.916 273.867 173.8 274.4 173.8 275V280C173.8 280.4 173.883 280.683 174.05 280.85C174.216 281.017 174.491 281.1 174.875 281.1H175.75V284H172.85ZM178.011 270.625H181.811V275.45L186.886 270.625H191.211L187.611 274.05C188.911 274.417 189.819 274.983 190.336 275.75C190.869 276.517 191.136 277.533 191.136 278.8V284H187.336V279.125C187.336 278.275 187.186 277.642 186.886 277.225C186.603 276.808 186.078 276.508 185.311 276.325L181.811 279.6V284H178.011V270.625ZM201.858 284.375C201.025 284.375 200.216 284.217 199.433 283.9C198.65 283.583 197.966 283.117 197.383 282.5V284H193.758V270.625H197.558V279.625C197.925 280.242 198.366 280.7 198.883 281C199.4 281.283 200.008 281.425 200.708 281.425C202.425 281.425 203.283 280.617 203.283 279V270.625H207.058V279.225C207.058 280.192 206.858 281.067 206.458 281.85C206.058 282.633 205.466 283.25 204.683 283.7C203.9 284.15 202.958 284.375 201.858 284.375ZM203.276 264.525H207.076V268.975H203.276V264.525ZM212.526 284C211.609 284 210.901 283.742 210.401 283.225C209.918 282.692 209.676 281.958 209.676 281.025V270.625H213.476V280C213.476 280.4 213.559 280.683 213.726 280.85C213.893 281.017 214.168 281.1 214.551 281.1H215.426V284H212.526ZM222.464 284.375C221.481 284.375 220.481 284.275 219.464 284.075C218.464 283.892 217.672 283.608 217.089 283.225V280.325C217.822 280.758 218.639 281.092 219.539 281.325C220.456 281.558 221.281 281.675 222.014 281.675C222.897 281.675 223.539 281.592 223.939 281.425C224.356 281.242 224.564 280.925 224.564 280.475C224.564 280.075 224.364 279.767 223.964 279.55C223.581 279.333 222.856 279.058 221.789 278.725L221.164 278.525C219.731 278.075 218.672 277.533 217.989 276.9C217.306 276.267 216.964 275.4 216.964 274.3C216.964 273.017 217.481 272.025 218.514 271.325C219.547 270.608 220.939 270.25 222.689 270.25C223.639 270.25 224.556 270.35 225.439 270.55C226.322 270.75 227.031 271.008 227.564 271.325V274.3C227.031 273.933 226.364 273.642 225.564 273.425C224.781 273.192 224.006 273.075 223.239 273.075C221.622 273.075 220.814 273.483 220.814 274.3C220.814 274.7 221.006 275.008 221.389 275.225C221.772 275.442 222.456 275.7 223.439 276L224.339 276.275C225.389 276.608 226.206 276.975 226.789 277.375C227.389 277.775 227.806 278.225 228.039 278.725C228.272 279.225 228.389 279.833 228.389 280.55C228.389 281.7 227.889 282.625 226.889 283.325C225.906 284.025 224.431 284.375 222.464 284.375ZM216.326 266.575H224.476V263.925H227.901V268.975H216.326V266.575ZM236.876 284.375C234.793 284.375 233.126 284 231.876 283.25C230.626 282.483 230.001 281.392 230.001 279.975C230.001 279.325 230.176 278.742 230.526 278.225C230.893 277.692 231.376 277.308 231.976 277.075C231.426 276.792 230.976 276.383 230.626 275.85C230.293 275.317 230.126 274.733 230.126 274.1C230.126 272.933 230.535 272 231.351 271.3C232.185 270.6 233.385 270.25 234.951 270.25C235.435 270.25 235.91 270.283 236.376 270.35C236.86 270.417 237.226 270.492 237.476 270.575V273.425C237.243 273.325 236.96 273.242 236.626 273.175C236.31 273.108 236.018 273.075 235.751 273.075C234.585 273.075 234.001 273.508 234.001 274.375C234.001 274.825 234.143 275.167 234.426 275.4C234.726 275.617 235.185 275.725 235.801 275.725H237.476V278.4H235.801C234.535 278.4 233.901 278.9 233.901 279.9C233.901 280.433 234.151 280.85 234.651 281.15C235.168 281.433 235.91 281.575 236.876 281.575C238.043 281.575 238.893 281.342 239.426 280.875C239.976 280.392 240.251 279.675 240.251 278.725V270.6H244.051V278.7C244.051 279.65 243.81 280.558 243.326 281.425C242.843 282.275 242.068 282.983 241.001 283.55C239.935 284.1 238.56 284.375 236.876 284.375ZM253.563 284.375C252.18 284.375 250.972 284.133 249.938 283.65C248.905 283.15 248.105 282.467 247.538 281.6C246.972 280.733 246.688 279.75 246.688 278.65V270.625H250.488V278.4C250.488 279.367 250.738 280.117 251.238 280.65C251.755 281.167 252.53 281.425 253.563 281.425C254.597 281.425 255.363 281.167 255.863 280.65C256.363 280.117 256.613 279.367 256.613 278.4V270.625H260.413V278.65C260.413 279.75 260.13 280.733 259.563 281.6C258.997 282.467 258.197 283.15 257.163 283.65C256.13 284.133 254.93 284.375 253.563 284.375ZM267.996 284.375C267.013 284.375 266.013 284.275 264.996 284.075C263.996 283.892 263.205 283.608 262.621 283.225V280.325C263.355 280.758 264.171 281.092 265.071 281.325C265.988 281.558 266.813 281.675 267.546 281.675C268.43 281.675 269.071 281.592 269.471 281.425C269.888 281.242 270.096 280.925 270.096 280.475C270.096 280.075 269.896 279.767 269.496 279.55C269.113 279.333 268.388 279.058 267.321 278.725L266.696 278.525C265.263 278.075 264.205 277.533 263.521 276.9C262.838 276.267 262.496 275.4 262.496 274.3C262.496 273.017 263.013 272.025 264.046 271.325C265.08 270.608 266.471 270.25 268.221 270.25C269.171 270.25 270.088 270.35 270.971 270.55C271.855 270.75 272.563 271.008 273.096 271.325V274.3C272.563 273.933 271.896 273.642 271.096 273.425C270.313 273.192 269.538 273.075 268.771 273.075C267.155 273.075 266.346 273.483 266.346 274.3C266.346 274.7 266.538 275.008 266.921 275.225C267.305 275.442 267.988 275.7 268.971 276L269.871 276.275C270.921 276.608 271.738 276.975 272.321 277.375C272.921 277.775 273.338 278.225 273.571 278.725C273.805 279.225 273.921 279.833 273.921 280.55C273.921 281.7 273.421 282.625 272.421 283.325C271.438 284.025 269.963 284.375 267.996 284.375ZM267.308 267.375C267.308 267.192 267.275 267.067 267.208 267C267.125 266.917 266.992 266.875 266.808 266.875H265.633V264.3H267.983C268.6 264.3 269.05 264.442 269.333 264.725C269.6 265.008 269.733 265.367 269.733 265.8V266.55H274.758V268.975H267.308V267.375ZM281.533 284.375C280.417 284.375 279.317 284.258 278.233 284.025C277.15 283.808 276.25 283.5 275.533 283.1V276.075H281.858V278.85H279.258V281C279.775 281.283 280.533 281.425 281.533 281.425C284.183 281.425 285.508 280.042 285.508 277.275C285.508 275.858 285.125 274.825 284.358 274.175C283.592 273.525 282.3 273.2 280.483 273.2C279.65 273.2 278.792 273.292 277.908 273.475C277.042 273.642 276.308 273.883 275.708 274.2V271.25C276.392 270.933 277.217 270.692 278.183 270.525C279.15 270.342 280.158 270.25 281.208 270.25C283.892 270.25 285.925 270.867 287.308 272.1C288.708 273.317 289.408 275.042 289.408 277.275C289.408 279.475 288.725 281.208 287.358 282.475C285.992 283.742 284.05 284.375 281.533 284.375ZM297.887 284.375C295.804 284.375 294.137 284 292.887 283.25C291.637 282.483 291.012 281.392 291.012 279.975C291.012 279.325 291.187 278.742 291.537 278.225C291.904 277.692 292.387 277.308 292.987 277.075C292.437 276.792 291.987 276.383 291.637 275.85C291.304 275.317 291.137 274.733 291.137 274.1C291.137 272.933 291.545 272 292.362 271.3C293.195 270.6 294.395 270.25 295.962 270.25C296.445 270.25 296.92 270.283 297.387 270.35C297.87 270.417 298.237 270.492 298.487 270.575V273.425C298.254 273.325 297.97 273.242 297.637 273.175C297.32 273.108 297.029 273.075 296.762 273.075C295.595 273.075 295.012 273.508 295.012 274.375C295.012 274.825 295.154 275.167 295.437 275.4C295.737 275.617 296.195 275.725 296.812 275.725H298.487V278.4H296.812C295.545 278.4 294.912 278.9 294.912 279.9C294.912 280.433 295.162 280.85 295.662 281.15C296.179 281.433 296.92 281.575 297.887 281.575C299.054 281.575 299.904 281.342 300.437 280.875C300.987 280.392 301.262 279.675 301.262 278.725V270.6H305.062V278.7C305.062 279.65 304.82 280.558 304.337 281.425C303.854 282.275 303.079 282.983 302.012 283.55C300.945 284.1 299.57 284.375 297.887 284.375ZM310.524 284C309.607 284 308.899 283.742 308.399 283.225C307.916 282.692 307.674 281.958 307.674 281.025V270.625H311.474V280C311.474 280.4 311.557 280.683 311.724 280.85C311.891 281.017 312.166 281.1 312.549 281.1H313.424V284H310.524ZM317.549 284C316.632 284 315.924 283.742 315.424 283.225C314.941 282.692 314.699 281.958 314.699 281.025V270.625H318.474V280C318.474 280.4 318.557 280.683 318.724 280.85C318.891 281.017 319.174 281.1 319.574 281.1H320.449V284H317.549ZM327.018 284.375C325.485 284.375 324.26 283.992 323.343 283.225C322.443 282.458 321.993 281.375 321.993 279.975C321.993 278.575 322.485 277.475 323.468 276.675C324.468 275.875 325.835 275.475 327.568 275.475C329.185 275.475 330.568 275.742 331.718 276.275V275.75C331.718 274.85 331.418 274.183 330.818 273.75C330.235 273.317 329.285 273.1 327.968 273.1C327.152 273.1 326.352 273.183 325.568 273.35C324.785 273.517 324.085 273.75 323.468 274.05V271.2C324.018 270.933 324.777 270.708 325.743 270.525C326.71 270.342 327.685 270.25 328.668 270.25C330.902 270.25 332.593 270.75 333.743 271.75C334.91 272.733 335.493 274.058 335.493 275.725V284H331.718V279.025C330.752 278.525 329.618 278.275 328.318 278.275C327.468 278.275 326.843 278.417 326.443 278.7C326.06 278.983 325.868 279.425 325.868 280.025C325.868 280.575 326.043 280.992 326.393 281.275C326.76 281.542 327.335 281.675 328.118 281.675C328.668 281.675 329.135 281.592 329.518 281.425V284.05C328.868 284.267 328.035 284.375 327.018 284.375ZM329.369 267.375C329.369 267.192 329.336 267.067 329.269 267C329.186 266.917 329.052 266.875 328.869 266.875H327.694V264.3H330.044C330.661 264.3 331.111 264.442 331.394 264.725C331.661 265.008 331.794 265.367 331.794 265.8V266.55H336.819V268.975H329.369V267.375ZM342.669 284.375C340.452 284.375 338.761 284.017 337.594 283.3V280.35C338.627 281.067 340.044 281.425 341.844 281.425C343.244 281.425 344.327 281.092 345.094 280.425C345.861 279.742 346.244 278.708 346.244 277.325C346.244 275.942 345.861 274.908 345.094 274.225C344.327 273.542 343.244 273.2 341.844 273.2C340.111 273.2 338.727 273.567 337.694 274.3V271.35C338.277 270.983 339.002 270.708 339.869 270.525C340.736 270.342 341.669 270.25 342.669 270.25C345.002 270.25 346.827 270.875 348.144 272.125C349.477 273.358 350.144 275.092 350.144 277.325C350.144 279.558 349.477 281.292 348.144 282.525C346.827 283.758 345.002 284.375 342.669 284.375Z" fill="#3CB364"/>
<path d="M66.8551 317.21C66.3418 317.21 65.8191 317.149 65.2871 317.028C64.7551 316.916 64.3398 316.748 64.0411 316.524V315.376C64.4425 315.619 64.8811 315.805 65.3571 315.936C65.8425 316.057 66.3045 316.118 66.7431 316.118C67.3591 316.118 67.8025 316.048 68.0731 315.908C68.3438 315.759 68.4791 315.507 68.4791 315.152C68.4791 314.909 68.4138 314.713 68.2831 314.564C68.1525 314.415 67.9518 314.284 67.6811 314.172C67.4198 314.06 67.0045 313.92 66.4351 313.752C65.6138 313.5 65.0025 313.206 64.6011 312.87C64.1998 312.525 63.9991 312.049 63.9991 311.442C63.9991 310.751 64.2651 310.224 64.7971 309.86C65.3291 309.487 66.0571 309.3 66.9811 309.3C67.4571 309.3 67.9145 309.356 68.3531 309.468C68.8011 309.571 69.1698 309.711 69.4591 309.888V311.064C69.1418 310.868 68.7778 310.714 68.3671 310.602C67.9565 310.49 67.5365 310.434 67.1071 310.434C65.9871 310.434 65.4271 310.77 65.4271 311.442C65.4271 311.694 65.5018 311.895 65.6511 312.044C65.8098 312.193 66.0151 312.319 66.2671 312.422C66.5285 312.515 66.9625 312.651 67.5691 312.828C68.1665 313.005 68.6331 313.197 68.9691 313.402C69.3051 313.607 69.5431 313.85 69.6831 314.13C69.8231 314.41 69.8931 314.755 69.8931 315.166C69.8931 315.782 69.6411 316.277 69.1371 316.65C68.6331 317.023 67.8725 317.21 66.8551 317.21ZM74.2015 317.21C73.6229 317.21 73.0629 317.14 72.5215 317C71.9802 316.869 71.5229 316.683 71.1495 316.44V312.716H74.2575V313.864H72.5775V315.726C72.9789 315.969 73.5202 316.09 74.2015 316.09C75.0975 316.09 75.7789 315.843 76.2455 315.348C76.7215 314.853 76.9595 314.135 76.9595 313.192C76.9595 312.249 76.7169 311.554 76.2315 311.106C75.7555 310.658 74.9715 310.434 73.8795 310.434C73.3849 310.434 72.8995 310.485 72.4235 310.588C71.9475 310.681 71.5462 310.835 71.2195 311.05V309.916C71.5835 309.711 72.0129 309.557 72.5075 309.454C73.0022 309.351 73.5342 309.3 74.1035 309.3C75.5035 309.3 76.5722 309.641 77.3095 310.322C78.0469 311.003 78.4155 311.96 78.4155 313.192C78.4155 314.433 78.0469 315.413 77.3095 316.132C76.5815 316.851 75.5455 317.21 74.2015 317.21ZM82.3968 317.21C81.5661 317.21 80.9034 317.005 80.4088 316.594C79.9234 316.174 79.6808 315.581 79.6808 314.816C79.6808 314.06 79.9514 313.458 80.4928 313.01C81.0434 312.562 81.7854 312.338 82.7188 312.338C83.6428 312.338 84.4734 312.511 85.2108 312.856V312.282C85.2108 311.638 85.0334 311.171 84.6788 310.882C84.3334 310.583 83.7548 310.434 82.9428 310.434C82.4948 310.434 82.0561 310.476 81.6268 310.56C81.1974 310.644 80.8241 310.761 80.5068 310.91V309.79C80.7961 309.65 81.1881 309.533 81.6828 309.44C82.1868 309.347 82.6768 309.3 83.1528 309.3C83.9928 309.3 84.6928 309.454 85.2528 309.762L85.9668 308.95H87.5488L86.1348 310.532C86.4708 311.008 86.6388 311.582 86.6388 312.254V317H85.2108V313.99C84.5294 313.645 83.7501 313.472 82.8728 313.472C82.2661 313.472 81.8181 313.584 81.5288 313.808C81.2488 314.032 81.1088 314.368 81.1088 314.816C81.1088 315.665 81.6548 316.09 82.7468 316.09C83.0828 316.09 83.3768 316.043 83.6288 315.95V317.056C83.2928 317.159 82.8821 317.21 82.3968 317.21ZM84.2178 308.404C83.8164 308.404 83.5271 308.306 83.3498 308.11C83.1631 307.905 83.0698 307.601 83.0698 307.2V306.472H84.3578V307.032C84.3578 307.191 84.3904 307.298 84.4558 307.354C84.5118 307.41 84.6238 307.438 84.7918 307.438H88.0958V308.404H84.2178ZM89.0898 312.338L88.3898 311.204C88.8844 310.579 89.4491 310.107 90.0838 309.79C90.7184 309.463 91.4698 309.3 92.3378 309.3C93.4578 309.3 94.3164 309.557 94.9138 310.07C95.5111 310.574 95.8098 311.283 95.8098 312.198V317H94.3818V312.31C94.3818 311.666 94.2091 311.195 93.8638 310.896C93.5278 310.588 93.0191 310.434 92.3378 310.434C91.8244 310.434 91.3718 310.513 90.9798 310.672C90.5878 310.821 90.2331 311.064 89.9158 311.4L90.5178 312.338V317H89.0898V312.338ZM97.6248 312.366C97.6248 311.395 97.9422 310.644 98.5768 310.112C99.2115 309.571 100.084 309.3 101.195 309.3C102.296 309.3 103.164 309.566 103.799 310.098C104.434 310.63 104.751 311.386 104.751 312.366V317H103.323V312.324C103.323 311.689 103.136 311.218 102.763 310.91C102.39 310.593 101.867 310.434 101.195 310.434C100.514 310.434 99.9862 310.593 99.6128 310.91C99.2395 311.218 99.0528 311.689 99.0528 312.324V313.752C99.1742 313.528 99.3655 313.351 99.6268 313.22C99.8882 313.08 100.196 313.01 100.551 313.01H101.671V314.186H100.439C100.047 314.186 99.7155 314.326 99.4448 314.606C99.1835 314.877 99.0528 315.189 99.0528 315.544V317H97.6248V312.366ZM109.142 317.21C108.629 317.21 108.106 317.149 107.574 317.028C107.042 316.916 106.627 316.748 106.328 316.524V315.376C106.73 315.619 107.168 315.805 107.644 315.936C108.13 316.057 108.592 316.118 109.03 316.118C109.646 316.118 110.09 316.048 110.36 315.908C110.631 315.759 110.766 315.507 110.766 315.152C110.766 314.909 110.701 314.713 110.57 314.564C110.44 314.415 110.239 314.284 109.968 314.172C109.707 314.06 109.292 313.92 108.722 313.752C107.901 313.5 107.29 313.206 106.888 312.87C106.487 312.525 106.286 312.049 106.286 311.442C106.286 310.751 106.552 310.224 107.084 309.86C107.616 309.487 108.344 309.3 109.268 309.3C109.744 309.3 110.202 309.356 110.64 309.468C111.088 309.571 111.457 309.711 111.746 309.888V311.064C111.429 310.868 111.065 310.714 110.654 310.602C110.244 310.49 109.824 310.434 109.394 310.434C108.274 310.434 107.714 310.77 107.714 311.442C107.714 311.694 107.789 311.895 107.938 312.044C108.097 312.193 108.302 312.319 108.554 312.422C108.816 312.515 109.25 312.651 109.856 312.828C110.454 313.005 110.92 313.197 111.256 313.402C111.592 313.607 111.83 313.85 111.97 314.13C112.11 314.41 112.18 314.755 112.18 315.166C112.18 315.782 111.928 316.277 111.424 316.65C110.92 317.023 110.16 317.21 109.142 317.21ZM110.161 320.794C109.582 320.794 109.134 320.673 108.817 320.43C108.49 320.187 108.327 319.861 108.327 319.45V319.072C108.327 318.941 108.308 318.853 108.271 318.806C108.233 318.769 108.154 318.75 108.033 318.75H107.557V317.798H108.789C109.041 317.798 109.213 317.854 109.307 317.966C109.4 318.078 109.447 318.26 109.447 318.512V319.31C109.447 319.721 109.671 319.926 110.119 319.926C110.557 319.926 110.777 319.721 110.777 319.31V317.798H111.897V319.408C111.897 319.819 111.747 320.15 111.449 320.402C111.141 320.663 110.711 320.794 110.161 320.794ZM110.511 306.066H111.925V308.404H110.511V306.066ZM118.772 307.214H120.144V314.2H118.772V307.214ZM119.444 317.21C119.211 317.21 119.015 317.131 118.856 316.972C118.698 316.813 118.618 316.617 118.618 316.384C118.618 316.151 118.698 315.955 118.856 315.796C119.015 315.637 119.211 315.558 119.444 315.558C119.678 315.558 119.874 315.637 120.032 315.796C120.2 315.955 120.284 316.151 120.284 316.384C120.284 316.617 120.2 316.813 120.032 316.972C119.874 317.131 119.678 317.21 119.444 317.21ZM129.582 317.21C129.068 317.21 128.546 317.149 128.014 317.028C127.482 316.916 127.066 316.748 126.768 316.524V315.376C127.169 315.619 127.608 315.805 128.084 315.936C128.569 316.057 129.031 316.118 129.47 316.118C130.086 316.118 130.529 316.048 130.8 315.908C131.07 315.759 131.206 315.507 131.206 315.152C131.206 314.909 131.14 314.713 131.01 314.564C130.879 314.415 130.678 314.284 130.408 314.172C130.146 314.06 129.731 313.92 129.162 313.752C128.34 313.5 127.729 313.206 127.328 312.87C126.926 312.525 126.726 312.049 126.726 311.442C126.726 310.751 126.992 310.224 127.524 309.86C128.056 309.487 128.784 309.3 129.708 309.3C130.184 309.3 130.641 309.356 131.08 309.468C131.528 309.571 131.896 309.711 132.186 309.888V311.064C131.868 310.868 131.504 310.714 131.094 310.602C130.683 310.49 130.263 310.434 129.834 310.434C128.714 310.434 128.154 310.77 128.154 311.442C128.154 311.694 128.228 311.895 128.378 312.044C128.536 312.193 128.742 312.319 128.994 312.422C129.255 312.515 129.689 312.651 130.296 312.828C130.893 313.005 131.36 313.197 131.696 313.402C132.032 313.607 132.27 313.85 132.41 314.13C132.55 314.41 132.62 314.755 132.62 315.166C132.62 315.782 132.368 316.277 131.864 316.65C131.36 317.023 130.599 317.21 129.582 317.21ZM134.996 312.45C134.585 312.45 134.296 312.357 134.128 312.17C133.96 311.983 133.876 311.699 133.876 311.316V310.518H135.164V311.05C135.164 311.199 135.197 311.307 135.262 311.372C135.327 311.428 135.444 311.456 135.612 311.456H137.25V312.45H134.996ZM134.996 316.272C134.585 316.272 134.296 316.179 134.128 315.992C133.96 315.805 133.876 315.521 133.876 315.138V314.34H135.164V314.872C135.164 315.021 135.197 315.129 135.262 315.194C135.327 315.25 135.444 315.278 135.612 315.278H137.25V316.272H134.996ZM142.389 317.21C141.661 317.21 141.026 317.079 140.485 316.818C139.944 316.557 139.524 316.193 139.225 315.726C138.936 315.25 138.791 314.709 138.791 314.102V309.51H140.219V314.074C140.219 314.699 140.401 315.194 140.765 315.558C141.138 315.913 141.68 316.09 142.389 316.09C143.089 316.09 143.621 315.913 143.985 315.558C144.358 315.194 144.545 314.699 144.545 314.074V309.51H145.973V314.102C145.973 314.709 145.824 315.25 145.525 315.726C145.236 316.193 144.82 316.557 144.279 316.818C143.738 317.079 143.108 317.21 142.389 317.21ZM151.385 317.21C150.657 317.21 150.022 317.079 149.481 316.818C148.94 316.557 148.52 316.193 148.221 315.726C147.932 315.25 147.787 314.709 147.787 314.102V309.51H149.215V314.074C149.215 314.699 149.397 315.194 149.761 315.558C150.134 315.913 150.676 316.09 151.385 316.09C152.085 316.09 152.617 315.913 152.981 315.558C153.354 315.194 153.541 314.699 153.541 314.074V309.51H154.969V314.102C154.969 314.709 154.82 315.25 154.521 315.726C154.232 316.193 153.816 316.557 153.275 316.818C152.734 317.079 152.104 317.21 151.385 317.21ZM157.203 312.338L156.503 311.204C156.998 310.579 157.562 310.107 158.197 309.79C158.832 309.463 159.583 309.3 160.451 309.3C161.571 309.3 162.43 309.557 163.027 310.07C163.624 310.574 163.923 311.283 163.923 312.198V317H162.495V312.31C162.495 311.666 162.322 311.195 161.977 310.896C161.641 310.588 161.132 310.434 160.451 310.434C159.938 310.434 159.485 310.513 159.093 310.672C158.701 310.821 158.346 311.064 158.029 311.4L158.631 312.338V317H157.203V312.338ZM163.022 308.53C162.602 308.53 162.243 308.381 161.944 308.082C161.636 307.783 161.482 307.424 161.482 307.004C161.482 306.575 161.636 306.211 161.944 305.912C162.243 305.604 162.602 305.45 163.022 305.45C163.442 305.45 163.806 305.604 164.114 305.912C164.413 306.211 164.562 306.575 164.562 307.004C164.562 307.424 164.413 307.783 164.114 308.082C163.806 308.381 163.442 308.53 163.022 308.53ZM163.022 307.662C163.19 307.662 163.339 307.597 163.47 307.466C163.591 307.326 163.652 307.172 163.652 307.004C163.652 306.836 163.591 306.687 163.47 306.556C163.339 306.425 163.19 306.36 163.022 306.36C162.854 306.36 162.709 306.425 162.588 306.556C162.457 306.687 162.392 306.836 162.392 307.004C162.392 307.172 162.457 307.326 162.588 307.466C162.709 307.597 162.854 307.662 163.022 307.662ZM168.37 312.156C168.37 311.559 168.249 311.125 168.006 310.854C167.763 310.574 167.334 310.434 166.718 310.434C166.121 310.434 165.561 310.565 165.038 310.826V309.706C165.262 309.594 165.551 309.501 165.906 309.426C166.27 309.342 166.629 309.3 166.984 309.3C167.927 309.3 168.631 309.557 169.098 310.07C169.565 310.574 169.798 311.302 169.798 312.254V317H168.37V312.156ZM174.053 317.21C173.222 317.21 172.56 317.005 172.065 316.594C171.58 316.174 171.337 315.581 171.337 314.816C171.337 314.06 171.608 313.458 172.149 313.01C172.7 312.562 173.442 312.338 174.375 312.338C175.299 312.338 176.13 312.511 176.867 312.856V312.282C176.867 311.638 176.69 311.171 176.335 310.882C175.99 310.583 175.411 310.434 174.599 310.434C174.151 310.434 173.712 310.476 173.283 310.56C172.854 310.644 172.48 310.761 172.163 310.91V309.79C172.452 309.65 172.844 309.533 173.339 309.44C173.843 309.347 174.333 309.3 174.809 309.3C175.976 309.3 176.848 309.566 177.427 310.098C178.006 310.63 178.295 311.349 178.295 312.254V317H176.867V313.99C176.186 313.645 175.406 313.472 174.529 313.472C173.922 313.472 173.474 313.584 173.185 313.808C172.905 314.032 172.765 314.368 172.765 314.816C172.765 315.665 173.311 316.09 174.403 316.09C174.739 316.09 175.033 316.043 175.285 315.95V317.056C174.949 317.159 174.538 317.21 174.053 317.21ZM175.669 308.404C175.268 308.404 174.978 308.306 174.801 308.11C174.614 307.905 174.521 307.601 174.521 307.2V306.472H175.809V307.032C175.809 307.191 175.842 307.298 175.907 307.354C175.963 307.41 176.075 307.438 176.243 307.438H179.547V308.404H175.669ZM179.841 310.448H181.269L183.047 315.88C183.924 315.88 184.601 315.637 185.077 315.152C185.553 314.667 185.791 313.981 185.791 313.094C185.791 312.217 185.628 311.554 185.301 311.106C184.974 310.658 184.452 310.434 183.733 310.434C183.397 310.434 183.07 310.476 182.753 310.56V309.454C183.126 309.351 183.532 309.3 183.971 309.3C185.035 309.3 185.847 309.636 186.407 310.308C186.967 310.98 187.247 311.909 187.247 313.094C187.247 313.906 187.07 314.606 186.715 315.194C186.37 315.782 185.898 316.23 185.301 316.538C184.704 316.846 184.041 317 183.313 317H181.969L179.841 310.448ZM188.369 309.51H189.797L191.155 314.998L192.779 309.51H193.871L195.481 314.998L196.853 309.51H198.281L196.195 317H194.991L193.325 311.372L191.645 317H190.441L188.369 309.51ZM202.317 312.156C202.317 311.559 202.196 311.125 201.953 310.854C201.711 310.574 201.281 310.434 200.665 310.434C200.068 310.434 199.508 310.565 198.985 310.826V309.706C199.209 309.594 199.499 309.501 199.853 309.426C200.217 309.342 200.577 309.3 200.931 309.3C201.874 309.3 202.579 309.557 203.045 310.07C203.512 310.574 203.745 311.302 203.745 312.254V317H202.317V312.156ZM205.564 309.51H206.936V310.518C207.3 310.107 207.725 309.804 208.21 309.608C208.705 309.403 209.204 309.3 209.708 309.3C210.623 309.3 211.323 309.552 211.808 310.056C212.294 310.56 212.536 311.209 212.536 312.002V317H211.108V312.072C211.108 311.549 210.964 311.148 210.674 310.868C210.385 310.579 209.937 310.434 209.33 310.434C208.313 310.434 207.534 310.859 206.992 311.708V317H205.564V309.51ZM211.149 306.066H212.563V308.404H211.149V306.066ZM216.987 312.156C216.987 311.559 216.866 311.125 216.623 310.854C216.381 310.574 215.951 310.434 215.335 310.434C214.738 310.434 214.178 310.565 213.655 310.826V309.706C213.879 309.594 214.169 309.501 214.523 309.426C214.887 309.342 215.247 309.3 215.601 309.3C216.544 309.3 217.249 309.557 217.715 310.07C218.182 310.574 218.415 311.302 218.415 312.254V317H216.987V312.156ZM223.132 317.21C222.218 317.21 221.504 316.953 220.99 316.44C220.486 315.927 220.234 315.264 220.234 314.452V309.51H221.662V314.396C221.662 314.956 221.816 315.381 222.124 315.67C222.442 315.95 222.904 316.09 223.51 316.09C224.472 316.09 225.228 315.661 225.778 314.802V309.51H227.206V317H225.82V315.992C225.12 316.804 224.224 317.21 223.132 317.21ZM230.901 316.986C230.444 316.986 230.094 316.86 229.851 316.608C229.618 316.347 229.501 315.983 229.501 315.516V310.21C229.501 309.585 229.59 309.071 229.767 308.67C229.945 308.269 230.243 307.937 230.663 307.676H228.115V306.472H232.525V307.62C231.965 307.863 231.559 308.175 231.307 308.558C231.055 308.941 230.929 309.473 230.929 310.154V315.11C230.929 315.362 230.981 315.539 231.083 315.642C231.186 315.735 231.363 315.782 231.615 315.782H232.119V316.986H230.901ZM237.244 317.21C236.516 317.21 235.882 317.079 235.34 316.818C234.799 316.557 234.379 316.193 234.08 315.726C233.791 315.25 233.646 314.709 233.646 314.102V309.51H235.074V314.074C235.074 314.699 235.256 315.194 235.62 315.558C235.994 315.913 236.535 316.09 237.244 316.09C237.944 316.09 238.476 315.913 238.84 315.558C239.214 315.194 239.4 314.699 239.4 314.074V307.004H240.828V314.102C240.828 314.709 240.679 315.25 240.38 315.726C240.091 316.193 239.676 316.557 239.134 316.818C238.593 317.079 237.963 317.21 237.244 317.21ZM242.642 309.51H244.07V312.814L247.696 309.51H249.362L247.318 311.372C248.084 311.568 248.616 311.881 248.914 312.31C249.222 312.739 249.376 313.313 249.376 314.032V317H247.948V314.116C247.948 313.556 247.832 313.131 247.598 312.842C247.374 312.553 246.982 312.347 246.422 312.226L244.07 314.368V317H242.642V309.51ZM254.099 317.21C253.184 317.21 252.47 316.953 251.957 316.44C251.453 315.927 251.201 315.264 251.201 314.452V309.51H252.629V314.396C252.629 314.956 252.783 315.381 253.091 315.67C253.408 315.95 253.87 316.09 254.477 316.09C255.438 316.09 256.194 315.661 256.745 314.802V309.51H258.173V317H256.787V315.992C256.087 316.804 255.191 317.21 254.099 317.21ZM255.162 307.522C255.162 307.41 255.143 307.331 255.106 307.284C255.059 307.237 254.98 307.214 254.868 307.214H254.238V306.206H255.288C255.587 306.206 255.806 306.281 255.946 306.43C256.077 306.57 256.142 306.747 256.142 306.962V307.452H259.012V308.404H255.162V307.522ZM262.624 312.156C262.624 311.559 262.503 311.125 262.26 310.854C262.017 310.574 261.588 310.434 260.972 310.434C260.375 310.434 259.815 310.565 259.292 310.826V309.706C259.516 309.594 259.805 309.501 260.16 309.426C260.524 309.342 260.883 309.3 261.238 309.3C262.181 309.3 262.885 309.557 263.352 310.07C263.819 310.574 264.052 311.302 264.052 312.254V317H262.624V312.156ZM267.271 317C266.814 317 266.464 316.874 266.221 316.622C265.988 316.361 265.871 315.997 265.871 315.53V309.51H267.299V315.138C267.299 315.39 267.35 315.567 267.453 315.67C267.556 315.763 267.733 315.81 267.985 315.81H268.489V317H267.271ZM273.107 317.21C272.435 317.21 271.852 317.093 271.357 316.86C270.863 316.627 270.48 316.3 270.209 315.88C269.948 315.451 269.817 314.961 269.817 314.41V313.934C269.817 313.617 269.883 313.327 270.013 313.066C270.144 312.805 270.335 312.501 270.587 312.156C270.765 311.923 270.895 311.731 270.979 311.582C271.063 311.423 271.105 311.274 271.105 311.134C271.105 310.957 271.059 310.831 270.965 310.756C270.881 310.681 270.737 310.644 270.531 310.644H269.747V309.51H271.217C271.628 309.51 271.95 309.631 272.183 309.874C272.426 310.107 272.547 310.42 272.547 310.812C272.547 311.083 272.491 311.335 272.379 311.568C272.267 311.792 272.099 312.067 271.875 312.394C271.651 312.73 271.488 313.001 271.385 313.206C271.292 313.411 271.245 313.635 271.245 313.878V314.396C271.245 314.937 271.399 315.357 271.707 315.656C272.025 315.945 272.491 316.09 273.107 316.09C273.723 316.09 274.181 315.941 274.479 315.642C274.778 315.334 274.927 314.905 274.927 314.354V309.51H276.355V314.116C276.355 315.077 276.071 315.833 275.501 316.384C274.932 316.935 274.134 317.21 273.107 317.21ZM273.346 307.522C273.346 307.41 273.327 307.331 273.29 307.284C273.243 307.237 273.164 307.214 273.052 307.214H272.422V306.206H273.472C273.77 306.206 273.99 306.281 274.13 306.43C274.26 306.57 274.326 306.747 274.326 306.962V307.452H277.196V308.404H273.346V307.522ZM280.808 312.156C280.808 311.559 280.686 311.125 280.444 310.854C280.201 310.574 279.772 310.434 279.156 310.434C278.558 310.434 277.998 310.565 277.476 310.826V309.706C277.7 309.594 277.989 309.501 278.344 309.426C278.708 309.342 279.067 309.3 279.422 309.3C280.364 309.3 281.069 309.557 281.536 310.07C282.002 310.574 282.236 311.302 282.236 312.254V317H280.808V312.156ZM286.491 317.21C285.66 317.21 284.997 317.005 284.503 316.594C284.017 316.174 283.775 315.581 283.775 314.816C283.775 314.06 284.045 313.458 284.587 313.01C285.137 312.562 285.879 312.338 286.813 312.338C287.737 312.338 288.567 312.511 289.305 312.856V312.282C289.305 311.638 289.127 311.171 288.773 310.882C288.427 310.583 287.849 310.434 287.037 310.434C286.589 310.434 286.15 310.476 285.721 310.56C285.291 310.644 284.918 310.761 284.601 310.91V309.79C284.89 309.65 285.282 309.533 285.777 309.44C286.281 309.347 286.771 309.3 287.247 309.3C288.087 309.3 288.787 309.454 289.347 309.762L290.061 308.95H291.643L290.229 310.532C290.565 311.008 290.733 311.582 290.733 312.254V317H289.305V313.99C288.623 313.645 287.844 313.472 286.967 313.472C286.36 313.472 285.912 313.584 285.623 313.808C285.343 314.032 285.203 314.368 285.203 314.816C285.203 315.665 285.749 316.09 286.841 316.09C287.177 316.09 287.471 316.043 287.723 315.95V317.056C287.387 317.159 286.976 317.21 286.491 317.21ZM289.208 320.794C288.629 320.794 288.181 320.673 287.864 320.43C287.537 320.187 287.374 319.861 287.374 319.45V319.072C287.374 318.941 287.355 318.853 287.318 318.806C287.28 318.769 287.201 318.75 287.08 318.75H286.604V317.798H287.836C288.088 317.798 288.26 317.854 288.354 317.966C288.447 318.078 288.494 318.26 288.494 318.512V319.31C288.494 319.721 288.718 319.926 289.166 319.926C289.604 319.926 289.824 319.721 289.824 319.31V317.798H290.944V319.408C290.944 319.819 290.794 320.15 290.496 320.402C290.188 320.663 289.758 320.794 289.208 320.794ZM289.558 306.066H290.972V308.404H289.558V306.066ZM295.34 317.21C294.826 317.21 294.304 317.149 293.772 317.028C293.24 316.916 292.824 316.748 292.526 316.524V315.376C292.927 315.619 293.366 315.805 293.842 315.936C294.327 316.057 294.789 316.118 295.228 316.118C295.844 316.118 296.287 316.048 296.558 315.908C296.828 315.759 296.964 315.507 296.964 315.152C296.964 314.909 296.898 314.713 296.768 314.564C296.637 314.415 296.436 314.284 296.166 314.172C295.904 314.06 295.489 313.92 294.92 313.752C294.098 313.5 293.487 313.206 293.086 312.87C292.684 312.525 292.484 312.049 292.484 311.442C292.484 310.751 292.75 310.224 293.282 309.86C293.814 309.487 294.542 309.3 295.466 309.3C295.942 309.3 296.399 309.356 296.838 309.468C297.286 309.571 297.654 309.711 297.944 309.888V311.064C297.626 310.868 297.262 310.714 296.852 310.602C296.441 310.49 296.021 310.434 295.592 310.434C294.472 310.434 293.912 310.77 293.912 311.442C293.912 311.694 293.986 311.895 294.136 312.044C294.294 312.193 294.5 312.319 294.752 312.422C295.013 312.515 295.447 312.651 296.054 312.828C296.651 313.005 297.118 313.197 297.454 313.402C297.79 313.607 298.028 313.85 298.168 314.13C298.308 314.41 298.378 314.755 298.378 315.166C298.378 315.782 298.126 316.277 297.622 316.65C297.118 317.023 296.357 317.21 295.34 317.21ZM300.754 312.45C300.343 312.45 300.054 312.357 299.886 312.17C299.718 311.983 299.634 311.699 299.634 311.316V310.518H300.922V311.05C300.922 311.199 300.955 311.307 301.02 311.372C301.085 311.428 301.202 311.456 301.37 311.456H303.008V312.45H300.754ZM300.754 316.272C300.343 316.272 300.054 316.179 299.886 315.992C299.718 315.805 299.634 315.521 299.634 315.138V314.34H300.922V314.872C300.922 315.021 300.955 315.129 301.02 315.194C301.085 315.25 301.202 315.278 301.37 315.278H303.008V316.272H300.754ZM308.147 317.21C307.419 317.21 306.784 317.079 306.243 316.818C305.701 316.557 305.281 316.193 304.983 315.726C304.693 315.25 304.549 314.709 304.549 314.102V309.51H305.977V314.074C305.977 314.699 306.159 315.194 306.523 315.558C306.896 315.913 307.437 316.09 308.147 316.09C308.847 316.09 309.379 315.913 309.743 315.558C310.116 315.194 310.303 314.699 310.303 314.074V309.51H311.731V314.102C311.731 314.709 311.581 315.25 311.283 315.726C310.993 316.193 310.578 316.557 310.037 316.818C309.495 317.079 308.865 317.21 308.147 317.21ZM317.143 317.21C316.415 317.21 315.78 317.079 315.239 316.818C314.697 316.557 314.277 316.193 313.979 315.726C313.689 315.25 313.545 314.709 313.545 314.102V309.51H314.973V314.074C314.973 314.699 315.155 315.194 315.519 315.558C315.892 315.913 316.433 316.09 317.143 316.09C317.843 316.09 318.375 315.913 318.739 315.558C319.112 315.194 319.299 314.699 319.299 314.074V309.51H320.727V314.102C320.727 314.709 320.577 315.25 320.279 315.726C319.989 316.193 319.574 316.557 319.033 316.818C318.491 317.079 317.861 317.21 317.143 317.21Z" fill="#4E5256"/>
<path fill-rule="evenodd" clip-rule="evenodd" d="M195 238C198.414 238 201.795 237.327 204.95 236.021C208.104 234.714 210.97 232.799 213.385 230.385C215.799 227.97 217.714 225.104 219.021 221.95C220.327 218.795 221 215.414 221 212C221 208.586 220.327 205.205 219.021 202.05C217.714 198.896 215.799 196.03 213.385 193.615C210.97 191.201 208.104 189.286 204.95 187.979C201.795 186.673 198.414 186 195 186C188.104 186 181.491 188.739 176.615 193.615C171.739 198.491 169 205.104 169 212C169 218.896 171.739 225.509 176.615 230.385C181.491 235.261 188.104 238 195 238ZM194.33 222.516L208.774 205.182L204.337 201.484L191.915 216.388L185.487 209.958L181.402 214.042L190.069 222.709L192.305 224.945L194.33 222.516Z" fill="#3CB364"/>
</svg>
